mtllib material.mtl
usemtl material_1_0
v -0.75485800 0.26528500 -0.39526100
v -0.74851900 0.26036500 -0.40053000
v -0.75569000 0.26959200 -0.40028200
v -0.74935100 0.26467200 -0.40555200
v -0.74423600 0.25420700 -0.40652100
v -0.74506700 0.25851400 -0.41154200
v -0.78137600 0.26981600 -0.38698500
v -0.77218600 0.26886700 -0.38932000
v -0.77186600 0.27017700 -0.38824900
v -0.76282100 0.26863200 -0.39107200
v -0.76356400 0.26739400 -0.39201000
v -0.75485800 0.26528500 -0.39526100
v -0.75597400 0.26420400 -0.39600300
v -0.74851900 0.26036500 -0.40053000
v -0.74993200 0.25951400 -0.40102500
v -0.74423600 0.25420700 -0.40652100
v -0.74584900 0.25364500 -0.40673600
v -0.74230100 0.24723000 -0.41282500
v -0.74400400 0.24699400 -0.41274500
v -0.74452300 0.24001800 -0.41864200
v -0.74284500 0.23991100 -0.41901200
v -0.74737000 0.23319000 -0.42402800
v -0.74583200 0.23274700 -0.42466200
v -0.75235200 0.22697500 -0.42853300
v -0.75105800 0.22622700 -0.42938800
v -0.75912800 0.22179800 -0.43185100
v -0.75816800 0.22079600 -0.43287000
v -0.76723800 0.21801200 -0.43375600
v -0.76667500 0.21682400 -0.43486800
v -0.77612700 0.21587300 -0.43411900
v -0.78519200 0.21552900 -0.43291400
v -0.77600200 0.21458000 -0.43524900
v -0.78125000 0.26852300 -0.38811500
v -0.79070200 0.26757200 -0.38736500
v -0.79013900 0.26638400 -0.38847700
v -0.79920900 0.26359900 -0.38936400
v -0.79824800 0.26259700 -0.39038300
v -0.80631900 0.25816800 -0.39284600
v -0.80502500 0.25742100 -0.39370100
v -0.81154500 0.25164900 -0.39757200
v -0.81000600 0.25120600 -0.39820600
v -0.81453200 0.24448500 -0.40322200
v -0.81285400 0.24437800 -0.40359100
v -0.81337300 0.23740100 -0.40948900
v -0.81507600 0.23716600 -0.40940900
v -0.81152800 0.23075100 -0.41549800
v -0.81314100 0.23018900 -0.41571300
v -0.80744500 0.22488100 -0.42120800
v -0.80885800 0.22403100 -0.42170400
v -0.80140300 0.22019200 -0.42623100
v -0.80251900 0.21911100 -0.42697300
v -0.79381300 0.21700200 -0.43022300
v -0.79455500 0.21576400 -0.43116200
v -0.78551100 0.21421900 -0.43398500
v -0.76365300 0.27293900 -0.39609400
v -0.76282100 0.26863200 -0.39107200
v -0.74230100 0.24723000 -0.41282500
v -0.74313200 0.25153700 -0.41784600
v -0.79153300 0.27187900 -0.39238700
v -0.79070200 0.26757200 -0.38736500
v -0.78220700 0.27412300 -0.39200700
v -0.78137600 0.26981600 -0.38698500
v -0.77269700 0.27448400 -0.39327100
v -0.77186600 0.27017700 -0.38824900
v -0.74284500 0.23991100 -0.41901200
v -0.74367700 0.24421700 -0.42403400
v -0.74583200 0.23274700 -0.42466200
v -0.74666400 0.23705400 -0.42968300
v -0.75105800 0.22622700 -0.42938800
v -0.75189000 0.23053500 -0.43441000
v -0.75816800 0.22079600 -0.43287000
v -0.75899900 0.22510300 -0.43789100
v -0.76750700 0.22113100 -0.43989000
v -0.76667500 0.21682400 -0.43486800
v -0.77683300 0.21888700 -0.44027100
v -0.77600200 0.21458000 -0.43524900
v -0.78634200 0.21852600 -0.43900600
v -0.78551100 0.21421900 -0.43398500
v -0.79538700 0.22007100 -0.43618400
v -0.79455500 0.21576400 -0.43116200
v -0.80335000 0.22341800 -0.43199500
v -0.80251900 0.21911100 -0.42697300
v -0.80885800 0.22403100 -0.42170400
v -0.80968900 0.22833800 -0.42672600
v -0.81314100 0.23018900 -0.41571300
v -0.81397300 0.23449600 -0.42073500
v -0.81507600 0.23716600 -0.40940900
v -0.81590800 0.24147300 -0.41443100
v -0.81453200 0.24448500 -0.40322200
v -0.81536300 0.24879200 -0.40824300
v -0.81154500 0.25164900 -0.39757200
v -0.81237600 0.25595600 -0.40259400
v -0.80631900 0.25816800 -0.39284600
v -0.80715000 0.26247600 -0.39786700
v -0.79920900 0.26359900 -0.38936400
v -0.80004100 0.26790700 -0.39438600
vn 0.64801970 0.62781310 0.43118580
vn 0.82040270 0.49401860 0.28789760
vn 0.64801970 0.62781310 0.43118580
vn 0.82040270 0.49401860 0.28789760
vn 0.93687657 0.32655759 0.12498970
vn 0.93687657 0.32655759 0.12498970
vn 0.12467370 -0.64594423 0.75313513
vn 0.12467370 -0.64594423 0.75313513
vn 0.12467370 -0.64594423 0.75313513
vn 0.12467370 -0.64594423 0.75313513
vn 0.12467370 -0.64594423 0.75313513
vn 0.12467370 -0.64594423 0.75313513
vn 0.12467370 -0.64594423 0.75313513
vn 0.12467370 -0.64594423 0.75313513
vn 0.12467370 -0.64594423 0.75313513
vn 0.12467370 -0.64594423 0.75313513
vn 0.12467370 -0.64594423 0.75313513
vn 0.12467370 -0.64594423 0.75313513
vn 0.12467370 -0.64594423 0.75313513
vn 0.12467370 -0.64594423 0.75313513
vn 0.12467370 -0.64594423 0.75313513
vn 0.12467370 -0.64594423 0.75313513
vn 0.12467370 -0.64594423 0.75313513
vn 0.12467370 -0.64594423 0.75313513
vn 0.12467370 -0.64594423 0.75313513
vn 0.12467370 -0.64594423 0.75313513
vn 0.12467370 -0.64594423 0.75313513
vn 0.12467370 -0.64594423 0.75313513
vn 0.12467370 -0.64594423 0.75313513
vn 0.12467370 -0.64594423 0.75313513
vn 0.12467370 -0.64594423 0.75313513
vn 0.12467370 -0.64594423 0.75313513
vn 0.12467370 -0.64594423 0.75313513
vn 0.12467370 -0.64594423 0.75313513
vn 0.12467370 -0.64594423 0.75313513
vn 0.12467370 -0.64594423 0.75313513
vn 0.12467370 -0.64594423 0.75313513
vn 0.12467370 -0.64594423 0.75313513
vn 0.12467370 -0.64594423 0.75313513
vn 0.12467370 -0.64594423 0.75313513
vn 0.12467370 -0.64594423 0.75313513
vn 0.12467370 -0.64594423 0.75313513
vn 0.12467370 -0.64594423 0.75313513
vn 0.12467370 -0.64594423 0.75313513
vn 0.12467370 -0.64594423 0.75313513
vn 0.12467370 -0.64594423 0.75313513
vn 0.12467370 -0.64594423 0.75313513
vn 0.12467370 -0.64594423 0.75313513
vn 0.12467370 -0.64594423 0.75313513
vn 0.12467370 -0.64594423 0.75313513
vn 0.12467370 -0.64594423 0.75313513
vn 0.12467370 -0.64594423 0.75313513
vn 0.12467370 -0.64594423 0.75313513
vn 0.12467370 -0.64594423 0.75313513
vn 0.43147529 0.71882309 0.54508939
vn 0.43147529 0.71882309 0.54508939
vn 0.98950385 0.13684229 -0.04643611
vn 0.98950385 0.13684229 -0.04643611
vn -0.32667839 0.69001169 0.64588319
vn -0.32667839 0.69001169 0.64588319
vn -0.07306559 0.75101945 0.65622496
vn -0.07306559 0.75101945 0.65622496
vn 0.18552650 0.76084648 0.62184608
vn 0.18552650 0.76084648 0.62184608
vn 0.97469809 -0.06219864 -0.21469740
vn 0.97469809 -0.06219864 -0.21469740
vn 0.89346829 -0.25700080 -0.36832730
vn 0.89346829 -0.25700080 -0.36832730
vn 0.75135009 -0.43428880 -0.49685640
vn 0.75135009 -0.43428880 -0.49685640
vn 0.55802860 -0.58198080 -0.59152550
vn 0.55802860 -0.58198080 -0.59152550
vn 0.32667839 -0.69001169 -0.64588319
vn 0.32667839 -0.69001169 -0.64588319
vn 0.07306559 -0.75101945 -0.65622496
vn 0.07306559 -0.75101945 -0.65622496
vn -0.18552650 -0.76084648 -0.62184608
vn -0.18552650 -0.76084648 -0.62184608
vn -0.43147529 -0.71882309 -0.54508939
vn -0.43147529 -0.71882309 -0.54508939
vn -0.64801970 -0.62781310 -0.43118580
vn -0.64801970 -0.62781310 -0.43118580
vn -0.82040270 -0.49401860 -0.28789760
vn -0.82040270 -0.49401860 -0.28789760
vn -0.93687657 -0.32655759 -0.12498970
vn -0.93687657 -0.32655759 -0.12498970
vn -0.98950385 -0.13684229 0.04643611
vn -0.98950385 -0.13684229 0.04643611
vn -0.97469809 0.06219864 0.21469740
vn -0.97469809 0.06219864 0.21469740
vn -0.89346829 0.25700080 0.36832730
vn -0.89346829 0.25700080 0.36832730
vn -0.75135009 0.43428880 0.49685640
vn -0.75135009 0.43428880 0.49685640
vn -0.55802860 0.58198080 0.59152550
vn -0.55802860 0.58198080 0.59152550
f 1//1 2//2 3//3
f 4//4 3//3 2//2
f 2//2 5//5 4//4
f 6//6 4//4 5//5
f 7//7 8//8 9//9
f 9//9 8//8 10//10
f 8//8 11//11 10//10
f 10//10 11//11 12//12
f 11//11 13//13 12//12
f 12//12 13//13 14//14
f 13//13 15//15 14//14
f 14//14 15//15 16//16
f 15//15 17//17 16//16
f 16//16 17//17 18//18
f 17//17 19//19 18//18
f 19//19 20//20 18//18
f 18//18 20//20 21//21
f 20//20 22//22 21//21
f 21//21 22//22 23//23
f 22//22 24//24 23//23
f 23//23 24//24 25//25
f 24//24 26//26 25//25
f 25//25 26//26 27//27
f 26//26 28//28 27//27
f 27//27 28//28 29//29
f 28//28 30//30 29//29
f 31//31 32//32 30//30
f 29//29 30//30 32//32
f 8//8 7//7 33//33
f 7//7 34//34 33//33
f 33//33 34//34 35//35
f 34//34 36//36 35//35
f 35//35 36//36 37//37
f 36//36 38//38 37//37
f 37//37 38//38 39//39
f 38//38 40//40 39//39
f 39//39 40//40 41//41
f 40//40 42//42 41//41
f 41//41 42//42 43//43
f 43//43 42//42 44//44
f 42//42 45//45 44//44
f 44//44 45//45 46//46
f 45//45 47//47 46//46
f 46//46 47//47 48//48
f 47//47 49//49 48//48
f 48//48 49//49 50//50
f 49//49 51//51 50//50
f 50//50 51//51 52//52
f 51//51 53//53 52//52
f 52//52 53//53 31//31
f 31//31 53//53 32//32
f 54//54 32//32 53//53
f 55//55 56//56 3//3
f 1//1 3//3 56//56
f 5//5 57//57 6//6
f 58//58 6//6 57//57
f 59//59 60//60 61//61
f 62//62 61//61 60//60
f 61//61 62//62 63//63
f 64//64 63//63 62//62
f 63//63 64//64 55//55
f 56//56 55//55 64//64
f 57//57 65//65 58//58
f 66//66 58//58 65//65
f 65//65 67//67 66//66
f 68//68 66//66 67//67
f 67//67 69//69 68//68
f 70//70 68//68 69//69
f 69//69 71//71 70//70
f 72//72 70//70 71//71
f 73//73 72//72 74//74
f 71//71 74//74 72//72
f 75//75 73//73 76//76
f 74//74 76//76 73//73
f 77//77 75//75 78//78
f 76//76 78//78 75//75
f 79//79 77//77 80//80
f 78//78 80//80 77//77
f 81//81 79//79 82//82
f 80//80 82//82 79//79
f 83//83 84//84 82//82
f 81//81 82//82 84//84
f 85//85 86//86 83//83
f 84//84 83//83 86//86
f 87//87 88//88 85//85
f 86//86 85//85 88//88
f 89//89 90//90 87//87
f 88//88 87//87 90//90
f 91//91 92//92 89//89
f 90//90 89//89 92//92
f 93//93 94//94 91//91
f 92//92 91//91 94//94
f 95//95 96//96 93//93
f 94//94 93//93 96//96
f 96//96 95//95 59//59
f 60//60 59//59 95//95

