mtllib material.mtl
usemtl material_0_0
v 0.24673300 -0.61404600 0.08235800
v 0.24673300 -0.61404600 0.08235800
v 0.24673300 -0.61404600 0.08235800
v 0.24673300 -0.61404600 0.08235800
v 0.21522100 -0.56983600 0.14401900
v 0.21522100 -0.56983600 0.14401900
v 0.21522100 -0.56983600 0.14401900
v 0.21522100 -0.56983600 0.14401900
v 0.21522100 -0.61404600 0.14401900
v 0.21522100 -0.61404600 0.14401900
v 0.21522100 -0.61404600 0.14401900
v 0.21522100 -0.61404600 0.14401900
v 0.24673300 -0.56983600 0.08235800
v 0.24673300 -0.56983600 0.08235800
v 0.24673300 -0.56983600 0.08235800
v 0.24673300 -0.56983600 0.08235800
v 0.16882400 -0.56983600 0.19542400
v 0.16882400 -0.56983600 0.19542400
v 0.16882400 -0.56983600 0.19542400
v 0.16882400 -0.56983600 0.19542400
v 0.23635200 -0.61404600 -0.12039900
v 0.23635200 -0.61404600 -0.12039900
v 0.23635200 -0.61404600 -0.12039900
v 0.23635200 -0.61404600 -0.12039900
v 0.26121200 -0.61404600 0.01464100
v 0.26121200 -0.61404600 0.01464100
v 0.26121200 -0.61404600 0.01464100
v 0.26121200 -0.61404600 0.01464100
v 0.23635200 -0.56983600 -0.12039900
v 0.23635200 -0.56983600 -0.12039900
v 0.23635200 -0.56983600 -0.12039900
v 0.23635200 -0.56983600 -0.12039900
v 0.16882400 -0.61404600 0.19542400
v 0.16882400 -0.61404600 0.19542400
v 0.16882400 -0.61404600 0.19542400
v 0.16882400 -0.61404600 0.19542400
v 0.19870700 -0.56983600 -0.17852000
v 0.19870700 -0.56983600 -0.17852000
v 0.19870700 -0.56983600 -0.17852000
v 0.19870700 -0.56983600 -0.17852000
v 0.19870700 -0.61404600 -0.17852000
v 0.19870700 -0.61404600 -0.17852000
v 0.19870700 -0.61404600 -0.17852000
v 0.19870700 -0.61404600 -0.17852000
v 0.25767100 -0.61404600 -0.05451500
v 0.25767100 -0.61404600 -0.05451500
v 0.25767100 -0.61404600 -0.05451500
v 0.25767100 -0.61404600 -0.05451500
v 0.26121200 -0.56983600 0.01464100
v 0.26121200 -0.56983600 0.01464100
v 0.26121200 -0.56983600 0.01464100
v 0.26121200 -0.56983600 0.01464100
v 0.25767100 -0.56983600 -0.05451500
v 0.25767100 -0.56983600 -0.05451500
v 0.25767100 -0.56983600 -0.05451500
v 0.25767100 -0.56983600 -0.05451500
v 0.11070300 -0.61404600 0.23306900
v 0.11070300 -0.61404600 0.23306900
v 0.11070300 -0.61404600 0.23306900
v 0.11070300 -0.61404600 0.23306900
v 0.14730300 -0.56983600 -0.22491700
v 0.14730300 -0.56983600 -0.22491700
v 0.14730300 -0.56983600 -0.22491700
v 0.14730300 -0.56983600 -0.22491700
v 0.11070300 -0.56983600 0.23306900
v 0.11070300 -0.56983600 0.23306900
v 0.11070300 -0.56983600 0.23306900
v 0.11070300 -0.56983600 0.23306900
v 0.14730300 -0.61404600 -0.22491700
v 0.14730300 -0.61404600 -0.22491700
v 0.14730300 -0.61404600 -0.22491700
v 0.14730300 -0.61404600 -0.22491700
v 0.04481900 -0.61404600 0.25438800
v 0.04481900 -0.61404600 0.25438800
v 0.04481900 -0.61404600 0.25438800
v 0.04481900 -0.61404600 0.25438800
v 0.08564100 -0.61404600 -0.25642900
v 0.08564100 -0.61404600 -0.25642900
v 0.08564100 -0.61404600 -0.25642900
v 0.08564100 -0.61404600 -0.25642900
v 0.08564100 -0.56983600 -0.25642900
v 0.08564100 -0.56983600 -0.25642900
v 0.08564100 -0.56983600 -0.25642900
v 0.08564100 -0.56983600 -0.25642900
v 0.04481900 -0.56983600 0.25438800
v 0.04481900 -0.56983600 0.25438800
v 0.04481900 -0.56983600 0.25438800
v 0.04481900 -0.56983600 0.25438800
v -0.02433700 -0.61404600 0.25792900
v -0.02433700 -0.61404600 0.25792900
v -0.02433700 -0.61404600 0.25792900
v -0.02433700 -0.61404600 0.25792900
v 0.01792500 -0.61404600 -0.27090800
v 0.01792500 -0.61404600 -0.27090800
v 0.01792500 -0.61404600 -0.27090800
v 0.01792500 -0.61404600 -0.27090800
v 0.01792500 -0.56983600 -0.27090800
v 0.01792500 -0.56983600 -0.27090800
v 0.01792500 -0.56983600 -0.27090800
v 0.01792500 -0.56983600 -0.27090800
v -0.02433700 -0.56983600 0.25792900
v -0.02433700 -0.56983600 0.25792900
v -0.02433700 -0.56983600 0.25792900
v -0.02433700 -0.56983600 0.25792900
v -0.01665400 -0.56983600 -0.26913800
v -0.01665400 -0.56983600 -0.26913800
v -0.01665400 -0.56983600 -0.26913800
v -0.01665400 -0.56983600 -0.26913800
v -0.09205400 -0.61404600 0.24345000
v -0.09205400 -0.61404600 0.24345000
v -0.09205400 -0.61404600 0.24345000
v -0.09205400 -0.61404600 0.24345000
v -0.05123200 -0.61404600 -0.26736700
v -0.05123200 -0.61404600 -0.26736700
v -0.05123200 -0.61404600 -0.26736700
v -0.05123200 -0.61404600 -0.26736700
v -0.05123200 -0.56983600 -0.26736700
v -0.05123200 -0.56983600 -0.26736700
v -0.05123200 -0.56983600 -0.26736700
v -0.05123200 -0.56983600 -0.26736700
v -0.09205400 -0.56983600 0.24345000
v -0.09205400 -0.56983600 0.24345000
v -0.09205400 -0.56983600 0.24345000
v -0.09205400 -0.56983600 0.24345000
v -0.15371600 -0.61404600 0.21193800
v -0.15371600 -0.61404600 0.21193800
v -0.15371600 -0.61404600 0.21193800
v -0.15371600 -0.61404600 0.21193800
v -0.11711600 -0.61404600 -0.24604800
v -0.11711600 -0.61404600 -0.24604800
v -0.11711600 -0.61404600 -0.24604800
v -0.11711600 -0.61404600 -0.24604800
v -0.11711600 -0.56983600 -0.24604800
v -0.11711600 -0.56983600 -0.24604800
v -0.11711600 -0.56983600 -0.24604800
v -0.11711600 -0.56983600 -0.24604800
v -0.15371600 -0.56983600 0.21193800
v -0.15371600 -0.56983600 0.21193800
v -0.15371600 -0.56983600 0.21193800
v -0.15371600 -0.56983600 0.21193800
v -0.20512000 -0.61404600 0.16554000
v -0.20512000 -0.61404600 0.16554000
v -0.20512000 -0.61404600 0.16554000
v -0.20512000 -0.61404600 0.16554000
v -0.17523700 -0.61404600 -0.20840400
v -0.17523700 -0.61404600 -0.20840400
v -0.17523700 -0.61404600 -0.20840400
v -0.17523700 -0.61404600 -0.20840400
v -0.17523700 -0.56983600 -0.20840400
v -0.17523700 -0.56983600 -0.20840400
v -0.17523700 -0.56983600 -0.20840400
v -0.17523700 -0.56983600 -0.20840400
v -0.20512000 -0.56983600 0.16554000
v -0.20512000 -0.56983600 0.16554000
v -0.20512000 -0.56983600 0.16554000
v -0.20512000 -0.56983600 0.16554000
v -0.24276500 -0.56983600 0.10741900
v -0.24276500 -0.56983600 0.10741900
v -0.24276500 -0.56983600 0.10741900
v -0.24276500 -0.56983600 0.10741900
v -0.22163400 -0.61404600 -0.15699900
v -0.22163400 -0.61404600 -0.15699900
v -0.22163400 -0.61404600 -0.15699900
v -0.22163400 -0.61404600 -0.15699900
v -0.22163400 -0.56983600 -0.15699900
v -0.22163400 -0.56983600 -0.15699900
v -0.22163400 -0.56983600 -0.15699900
v -0.22163400 -0.56983600 -0.15699900
v -0.24276500 -0.61404600 0.10741900
v -0.24276500 -0.61404600 0.10741900
v -0.24276500 -0.61404600 0.10741900
v -0.24276500 -0.61404600 0.10741900
v -0.26408400 -0.56983600 0.04153600
v -0.26408400 -0.56983600 0.04153600
v -0.26408400 -0.56983600 0.04153600
v -0.26408400 -0.56983600 0.04153600
v -0.25314600 -0.56983600 -0.09533700
v -0.25314600 -0.56983600 -0.09533700
v -0.25314600 -0.56983600 -0.09533700
v -0.25314600 -0.56983600 -0.09533700
v -0.25314600 -0.61404600 -0.09533700
v -0.25314600 -0.61404600 -0.09533700
v -0.25314600 -0.61404600 -0.09533700
v -0.25314600 -0.61404600 -0.09533700
v -0.26408400 -0.61404600 0.04153600
v -0.26408400 -0.61404600 0.04153600
v -0.26408400 -0.61404600 0.04153600
v -0.26408400 -0.61404600 0.04153600
v -0.26762500 -0.56983600 -0.02762100
v -0.26762500 -0.56983600 -0.02762100
v -0.26762500 -0.56983600 -0.02762100
v -0.26762500 -0.56983600 -0.02762100
v -0.26762500 -0.61404600 -0.02762100
v -0.26762500 -0.61404600 -0.02762100
v -0.26762500 -0.61404600 -0.02762100
v -0.26762500 -0.61404600 -0.02762100
vn 0.94223835 0.00000000 0.33494312
vn -0.94223835 0.00000000 -0.33494312
vn 0.00000000 -1.00000000 0.00000000
vn 0.00000000 1.00000000 0.00000000
vn 0.00000000 -1.00000000 0.00000000
vn 0.82344300 0.00000000 0.56739900
vn 0.00000000 1.00000000 0.00000000
vn -0.82344300 0.00000000 -0.56739900
vn 0.00000000 -1.00000000 0.00000000
vn 0.00000000 1.00000000 0.00000000
vn 0.82344300 0.00000000 0.56739900
vn -0.82344300 0.00000000 -0.56739900
vn 0.00000000 1.00000000 0.00000000
vn 0.00000000 -1.00000000 0.00000000
vn -0.94223835 0.00000000 -0.33494312
vn 0.94223835 0.00000000 0.33494312
vn -0.64853112 0.00000000 -0.76118814
vn 0.00000000 -1.00000000 0.00000000
vn 0.64853112 0.00000000 0.76118814
vn 0.00000000 1.00000000 0.00000000
vn 0.00000000 1.00000000 0.00000000
vn 0.00000000 -1.00000000 0.00000000
vn -0.90310357 0.00000000 0.42942280
vn 0.90310357 0.00000000 -0.42942280
vn 0.99682201 0.00000000 0.07966100
vn -0.99682201 0.00000000 -0.07966100
vn 0.00000000 -1.00000000 0.00000000
vn 0.00000000 1.00000000 0.00000000
vn 0.90310357 0.00000000 -0.42942280
vn -0.90310357 0.00000000 0.42942280
vn 0.00000000 1.00000000 0.00000000
vn 0.00000000 -1.00000000 0.00000000
vn 0.00000000 -1.00000000 0.00000000
vn 0.00000000 1.00000000 0.00000000
vn 0.64853112 0.00000000 0.76118814
vn -0.64853112 0.00000000 -0.76118814
vn 0.00000000 1.00000000 0.00000000
vn 0.00000000 -1.00000000 0.00000000
vn -0.76118814 0.00000000 0.64853112
vn 0.76118814 0.00000000 -0.64853112
vn 0.76118814 0.00000000 -0.64853112
vn -0.76118814 0.00000000 0.64853112
vn 0.00000000 -1.00000000 0.00000000
vn 0.00000000 1.00000000 0.00000000
vn 0.00000000 1.00000000 0.00000000
vn 0.00000000 -1.00000000 0.00000000
vn -0.98347390 0.00000000 0.18104998
vn 0.98347390 0.00000000 -0.18104998
vn 0.00000000 -1.00000000 0.00000000
vn 0.99682201 0.00000000 0.07966100
vn -0.99682201 0.00000000 -0.07966100
vn 0.00000000 1.00000000 0.00000000
vn 0.98347390 0.00000000 -0.18104998
vn -0.98347390 0.00000000 0.18104998
vn 0.00000000 1.00000000 0.00000000
vn 0.00000000 -1.00000000 0.00000000
vn 0.00000000 -1.00000000 0.00000000
vn 0.00000000 1.00000000 0.00000000
vn -0.42942280 0.00000000 -0.90310357
vn 0.42942280 0.00000000 0.90310357
vn 0.56739900 0.00000000 -0.82344300
vn -0.56739900 0.00000000 0.82344300
vn 0.00000000 1.00000000 0.00000000
vn 0.00000000 -1.00000000 0.00000000
vn 0.00000000 -1.00000000 0.00000000
vn 0.00000000 1.00000000 0.00000000
vn 0.42942280 0.00000000 0.90310357
vn -0.42942280 0.00000000 -0.90310357
vn -0.56739900 0.00000000 0.82344300
vn 0.56739900 0.00000000 -0.82344300
vn 0.00000000 1.00000000 0.00000000
vn 0.00000000 -1.00000000 0.00000000
vn 0.00000000 -1.00000000 0.00000000
vn 0.00000000 1.00000000 0.00000000
vn -0.18104998 0.00000000 -0.98347390
vn 0.18104998 0.00000000 0.98347390
vn -0.33494312 0.00000000 0.94223835
vn 0.33494312 0.00000000 -0.94223835
vn 0.00000000 1.00000000 0.00000000
vn 0.00000000 -1.00000000 0.00000000
vn 0.00000000 -1.00000000 0.00000000
vn 0.00000000 1.00000000 0.00000000
vn 0.33494312 0.00000000 -0.94223835
vn -0.33494312 0.00000000 0.94223835
vn 0.18104998 0.00000000 0.98347390
vn -0.18104998 0.00000000 -0.98347390
vn 0.00000000 1.00000000 0.00000000
vn 0.00000000 -1.00000000 0.00000000
vn 0.00000000 -1.00000000 0.00000000
vn 0.00000000 1.00000000 0.00000000
vn -0.07966100 0.00000000 0.99682201
vn 0.07966100 0.00000000 -0.99682201
vn 0.07966100 0.00000000 -0.99682201
vn -0.07966100 0.00000000 0.99682201
vn 0.00000000 1.00000000 0.00000000
vn 0.00000000 -1.00000000 0.00000000
vn 0.00000000 1.00000000 0.00000000
vn 0.00000000 -1.00000000 0.00000000
vn 0.07966100 0.00000000 -0.99682201
vn -0.07966100 0.00000000 0.99682201
vn -0.07966100 0.00000000 0.99682201
vn 0.07966100 0.00000000 -0.99682201
vn 0.00000000 -1.00000000 0.00000000
vn 0.00000000 1.00000000 0.00000000
vn 0.00000000 1.00000000 0.00000000
vn 0.00000000 -1.00000000 0.00000000
vn -0.05113200 0.00000000 -0.99869190
vn 0.05113200 0.00000000 0.99869190
vn 0.33494312 0.00000000 -0.94223835
vn -0.33494312 0.00000000 0.94223835
vn 0.00000000 -1.00000000 0.00000000
vn 0.00000000 1.00000000 0.00000000
vn 0.00000000 1.00000000 0.00000000
vn 0.00000000 -1.00000000 0.00000000
vn 0.18104998 0.00000000 0.98347390
vn -0.18104998 0.00000000 -0.98347390
vn -0.18104998 0.00000000 -0.98347390
vn 0.18104998 0.00000000 0.98347390
vn 0.00000000 -1.00000000 0.00000000
vn 0.00000000 1.00000000 0.00000000
vn 0.00000000 1.00000000 0.00000000
vn 0.00000000 -1.00000000 0.00000000
vn -0.33494312 0.00000000 0.94223835
vn 0.33494312 0.00000000 -0.94223835
vn -0.56739900 0.00000000 0.82344300
vn 0.56739900 0.00000000 -0.82344300
vn 0.00000000 -1.00000000 0.00000000
vn 0.00000000 1.00000000 0.00000000
vn -0.42942280 0.00000000 -0.90310357
vn 0.42942280 0.00000000 0.90310357
vn 0.00000000 -1.00000000 0.00000000
vn 0.00000000 1.00000000 0.00000000
vn 0.00000000 1.00000000 0.00000000
vn 0.00000000 -1.00000000 0.00000000
vn 0.42942280 0.00000000 0.90310357
vn -0.42942280 0.00000000 -0.90310357
vn -0.56739900 0.00000000 0.82344300
vn 0.56739900 0.00000000 -0.82344300
vn 0.00000000 -1.00000000 0.00000000
vn 0.00000000 1.00000000 0.00000000
vn 0.00000000 1.00000000 0.00000000
vn 0.00000000 -1.00000000 0.00000000
vn 0.76118814 0.00000000 -0.64853112
vn -0.76118814 0.00000000 0.64853112
vn 0.00000000 -1.00000000 0.00000000
vn 0.64853112 0.00000000 0.76118814
vn -0.64853112 0.00000000 -0.76118814
vn 0.00000000 1.00000000 0.00000000
vn 0.64853112 0.00000000 0.76118814
vn 0.00000000 -1.00000000 0.00000000
vn 0.00000000 1.00000000 0.00000000
vn -0.64853112 0.00000000 -0.76118814
vn -0.76118814 0.00000000 0.64853112
vn 0.76118814 0.00000000 -0.64853112
vn 0.00000000 -1.00000000 0.00000000
vn 0.00000000 1.00000000 0.00000000
vn 0.00000000 1.00000000 0.00000000
vn 0.00000000 -1.00000000 0.00000000
vn -0.90310357 0.00000000 0.42942280
vn 0.90310357 0.00000000 -0.42942280
vn -0.82344300 0.00000000 -0.56739900
vn 0.82344300 0.00000000 0.56739900
vn 0.00000000 1.00000000 0.00000000
vn 0.00000000 -1.00000000 0.00000000
vn 0.00000000 -1.00000000 0.00000000
vn 0.00000000 1.00000000 0.00000000
vn 0.82344300 0.00000000 0.56739900
vn -0.82344300 0.00000000 -0.56739900
vn 0.90310357 0.00000000 -0.42942280
vn -0.90310357 0.00000000 0.42942280
vn 0.00000000 1.00000000 0.00000000
vn 0.00000000 -1.00000000 0.00000000
vn 0.00000000 -1.00000000 0.00000000
vn 0.00000000 1.00000000 0.00000000
vn -0.98347390 0.00000000 0.18104998
vn 0.98347390 0.00000000 -0.18104998
vn -0.94223835 0.00000000 -0.33494312
vn 0.94223835 0.00000000 0.33494312
vn 0.00000000 1.00000000 0.00000000
vn 0.00000000 -1.00000000 0.00000000
vn 0.00000000 -1.00000000 0.00000000
vn 0.00000000 1.00000000 0.00000000
vn 0.94223835 0.00000000 0.33494312
vn -0.94223835 0.00000000 -0.33494312
vn -0.98347390 0.00000000 0.18104998
vn 0.98347390 0.00000000 -0.18104998
vn 0.00000000 1.00000000 0.00000000
vn 0.00000000 -1.00000000 0.00000000
vn 0.00000000 -1.00000000 0.00000000
vn 0.99682201 0.00000000 0.07966100
vn -0.99682201 0.00000000 -0.07966100
vn 0.00000000 1.00000000 0.00000000
vn 0.99682201 0.00000000 0.07966100
vn 0.00000000 1.00000000 0.00000000
vn 0.00000000 -1.00000000 0.00000000
vn -0.99682201 0.00000000 -0.07966100
f 1//1 6//6 11//11
f 6//6 1//1 16//16
f 12//12 8//8 2//2
f 15//15 2//2 8//8
f 19//19 11//11 6//6
f 8//8 12//12 17//17
f 9//9 22//22 3//3
f 4//4 21//21 10//10
f 25//25 16//16 1//1
f 2//2 15//15 26//26
f 31//31 7//7 13//13
f 14//14 5//5 32//32
f 11//11 19//19 35//35
f 36//36 17//17 12//12
f 37//37 20//20 7//7
f 5//5 18//18 38//38
f 9//9 43//43 22//22
f 21//21 44//44 10//10
f 3//3 22//22 46//46
f 45//45 21//21 4//4
f 16//16 25//25 50//50
f 51//51 26//26 15//15
f 3//3 46//46 27//27
f 28//28 45//45 4//4
f 37//37 7//7 31//31
f 32//32 5//5 38//38
f 31//31 13//13 55//55
f 56//56 14//14 32//32
f 19//19 60//60 35//35
f 36//36 59//59 17//17
f 33//33 43//43 9//9
f 10//10 44//44 34//34
f 63//63 20//20 37//37
f 38//38 18//18 64//64
f 41//41 29//29 24//24
f 23//23 30//30 42//42
f 24//24 53//53 48//48
f 47//47 54//54 23//23
f 48//48 50//50 25//25
f 26//26 51//51 47//47
f 55//55 13//13 52//52
f 49//49 14//14 56//56
f 29//29 41//41 40//40
f 39//39 42//42 30//30
f 53//53 24//24 29//29
f 30//30 23//23 54//54
f 60//60 19//19 67//67
f 68//68 17//17 59//59
f 57//57 72//72 33//33
f 34//34 71//71 58//58
f 33//33 72//72 43//43
f 44//44 71//71 34//34
f 63//63 66//66 20//20
f 18//18 65//65 64//64
f 41//41 61//61 40//40
f 39//39 62//62 42//42
f 50//50 48//48 53//53
f 54//54 47//47 51//51
f 67//67 76//76 60//60
f 59//59 75//75 68//68
f 57//57 80//80 72//72
f 71//71 79//79 58//58
f 61//61 41//41 70//70
f 69//69 42//42 62//62
f 82//82 66//66 63//63
f 64//64 65//65 81//81
f 76//76 67//67 85//85
f 86//86 68//68 75//75
f 73//73 80//80 57//57
f 58//58 79//79 74//74
f 83//83 70//70 78//78
f 77//77 69//69 84//84
f 70//70 83//83 61//61
f 62//62 84//84 69//69
f 82//82 87//87 66//66
f 65//65 88//88 81//81
f 85//85 91//91 76//76
f 75//75 92//92 86//86
f 73//73 96//96 80//80
f 79//79 95//95 74//74
f 78//78 99//99 83//83
f 84//84 100//100 77//77
f 97//97 87//87 82//82
f 81//81 88//88 98//98
f 91//91 85//85 101//101
f 102//102 86//86 92//92
f 89//89 96//96 73//73
f 74//74 95//95 90//90
f 99//99 78//78 93//93
f 94//94 77//77 100//100
f 105//105 87//87 97//97
f 98//98 88//88 106//106
f 105//105 104//104 87//87
f 88//88 103//103 106//106
f 101//101 110//110 91//91
f 92//92 109//109 102//102
f 89//89 114//114 96//96
f 95//95 113//113 90//90
f 93//93 117//117 99//99
f 100//100 118//118 94//94
f 99//99 117//117 107//107
f 108//108 118//118 100//100
f 120//120 104//104 105//105
f 106//106 103//103 119//119
f 110//110 101//101 123//123
f 124//124 102//102 109//109
f 111//111 114//114 89//89
f 90//90 113//113 112//112
f 117//117 93//93 116//116
f 115//115 94//94 118//118
f 120//120 121//121 104//104
f 103//103 122//122 119//119
f 123//123 125//125 110//110
f 109//109 126//126 124//124
f 111//111 131//131 114//114
f 113//113 132//132 112//112
f 116//116 136//136 117//117
f 118//118 135//135 115//115
f 133//133 121//121 120//120
f 119//119 122//122 134//134
f 125//125 123//123 137//137
f 138//138 124//124 126//126
f 127//127 131//131 111//111
f 112//112 132//132 128//128
f 136//136 116//116 129//129
f 130//130 115//115 135//135
f 133//133 140//140 121//121
f 122//122 139//139 134//134
f 137//137 144//144 125//125
f 126//126 143//143 138//138
f 127//127 145//145 131//131
f 132//132 148//148 128//128
f 129//129 152//152 136//136
f 135//135 149//149 130//130
f 151//151 140//140 133//133
f 134//134 139//139 150//150
f 144//144 137//137 153//153
f 154//154 138//138 143//143
f 142//142 145//145 127//127
f 128//128 148//148 141//141
f 152//152 129//129 147//147
f 146//146 130//130 149//149
f 151//151 156//156 140//140
f 139//139 155//155 150//150
f 159//159 144//144 153//153
f 154//154 143//143 160//160
f 142//142 164//164 145//145
f 148//148 163//163 141//141
f 161//161 152//152 147//147
f 146//146 149//149 162//162
f 166//166 156//156 151//151
f 150//150 155//155 165//165
f 144//144 159//159 170//170
f 169//169 160//160 143//143
f 166//166 157//157 156//156
f 155//155 158//158 165//165
f 172//172 164//164 142//142
f 141//141 163//163 171//171
f 152//152 161//161 168//168
f 167//167 162//162 149//149
f 175//175 170//170 159//159
f 160//160 169//169 176//176
f 179//179 157//157 166//166
f 165//165 158//158 180//180
f 172//172 181//181 164//164
f 163//163 182//182 171//171
f 184//184 168//168 161//161
f 162//162 167//167 183//183
f 170//170 175//175 185//185
f 186//186 176//176 169//169
f 179//179 174//174 157//157
f 158//158 173//173 180//180
f 168//168 184//184 177//177
f 178//178 183//183 167//167
f 188//188 181//181 172//172
f 171//171 182//182 187//187
f 191//191 185//185 175//175
f 176//176 186//186 190//190
f 174//174 179//179 192//192
f 189//189 180//180 173//173
f 196//196 177//177 184//184
f 183//183 178//178 193//193
f 181//181 188//188 195//195
f 194//194 187//187 182//182
f 185//185 191//191 196//196
f 193//193 190//190 186//186
f 177//177 196//196 191//191
f 190//190 193//193 178//178

