mtllib material.mtl
usemtl material_1_0
v 0.36865500 0.13546800 0.51331100
v 0.27567100 0.13546800 0.35328300
v 0.30421800 0.09826500 0.35328300
v 0.32828400 0.18808100 0.51331100
v 0.39403400 0.07419900 0.51331100
v 0.32216300 0.05494100 0.35328300
v 0.27567100 0.22845200 0.51331100
v 0.23846800 0.16401500 0.35328300
v 0.23846800 -0.14711600 0.35328300
v 0.18885600 -0.14159100 0.35328300
v 0.14865300 -0.14688400 0.35328300
v 0.27567100 -0.11856900 0.35328300
v 0.22631900 -0.12607300 0.35328300
v 0.25849000 -0.10138800 0.35328300
v 0.30421800 -0.08136600 0.35328300
v 0.28317500 -0.06921700 0.35328300
v 0.32216300 -0.03804200 0.35328300
v 0.29869300 -0.03175400 0.35328300
v 0.32828400 0.00844900 0.35328300
v 0.30398600 0.00844900 0.35328300
v 0.32216300 0.05494100 0.35328300
v 0.29869300 0.04865300 0.35328300
v 0.28317500 0.08611600 0.35328300
v 0.30421800 0.09826500 0.35328300
v 0.25849000 0.11828700 0.35328300
v 0.27567100 0.13546800 0.35328300
v 0.22631900 0.14297200 0.35328300
v 0.23846800 0.16401500 0.35328300
v 0.18885600 0.15849000 0.35328300
v 0.14865300 0.16378300 0.35328300
v 0.19514500 -0.16506100 0.35328300
v 0.10216100 -0.16506100 0.35328300
v 0.14865300 -0.17118200 0.35328300
v 0.05883700 -0.14711600 0.35328300
v 0.10844900 -0.14159100 0.35328300
v 0.02163400 -0.11856900 0.35328300
v 0.07098600 -0.12607300 0.35328300
v 0.03881500 -0.10138800 0.35328300
v -0.00691200 -0.08136600 0.35328300
v 0.01413000 -0.06921700 0.35328300
v -0.02485800 -0.03804200 0.35328300
v -0.00138800 -0.03175400 0.35328300
v -0.03097800 0.00844900 0.35328300
v -0.00668100 0.00844900 0.35328300
v -0.02485800 0.05494100 0.35328300
v -0.00138800 0.04865300 0.35328300
v 0.01413000 0.08611600 0.35328300
v -0.00691200 0.09826500 0.35328300
v 0.03881500 0.11828700 0.35328300
v 0.02163400 0.13546800 0.35328300
v 0.07098600 0.14297200 0.35328300
v 0.05883700 0.16401500 0.35328300
v 0.10844900 0.15849000 0.35328300
v 0.19514500 0.18196000 0.35328300
v 0.10216100 0.18196000 0.35328300
v 0.14865300 0.18808100 0.35328300
v 0.40269000 0.00844900 0.51331100
v 0.32828400 0.00844900 0.35328300
v 0.21440200 0.25383000 0.51331100
v 0.19514500 0.18196000 0.35328300
v 0.23846800 -0.14711600 0.35328300
v 0.21440200 -0.23693100 0.51331100
v 0.27567100 -0.21155300 0.51331100
v 0.19514500 -0.16506100 0.35328300
v 0.27567100 -0.11856900 0.35328300
v 0.32828400 -0.17118200 0.51331100
v 0.30421800 -0.08136600 0.35328300
v 0.36865500 -0.11856900 0.51331100
v 0.32216300 -0.03804200 0.35328300
v 0.39403400 -0.05730000 0.51331100
v 0.14865300 0.26248700 0.51331100
v 0.14865300 0.18808100 0.35328300
v 0.10216100 0.18196000 0.35328300
v 0.08290300 0.25383000 0.51331100
v 0.05883700 0.16401500 0.35328300
v 0.02163400 0.22845200 0.51331100
v 0.02163400 0.13546800 0.35328300
v -0.03097800 0.18808100 0.51331100
v -0.00691200 0.09826500 0.35328300
v -0.07135000 0.13546800 0.51331100
v -0.02485800 0.05494100 0.35328300
v -0.09672800 0.07419900 0.51331100
v -0.03097800 0.00844900 0.35328300
v -0.10538400 0.00844900 0.51331100
v -0.02485800 -0.03804200 0.35328300
v -0.09672800 -0.05730000 0.51331100
v -0.00691200 -0.08136600 0.35328300
v -0.07135000 -0.11856900 0.51331100
v 0.02163400 -0.11856900 0.35328300
v -0.03097800 -0.17118200 0.51331100
v 0.02163400 -0.21155300 0.51331100
v 0.05883700 -0.14711600 0.35328300
v 0.08290300 -0.23693100 0.51331100
v 0.10216100 -0.16506100 0.35328300
v 0.14865300 -0.24558700 0.51331100
v 0.14865300 -0.17118200 0.35328300
vn -0.78529242 -0.45338881 0.42160931
vn -0.64118859 -0.64118859 0.42160929
vn -0.78529242 -0.45338881 0.42160931
vn -0.64118859 -0.64118859 0.42160929
vn -0.87587990 -0.23469130 0.42160930
vn -0.87587990 -0.23469130 0.42160930
vn -0.45338881 -0.78529242 0.42160931
vn -0.45338881 -0.78529242 0.42160931
vn 0.00000000 0.00000000 1.00000000
vn 0.00000000 0.00000000 1.00000000
vn 0.00000000 0.00000000 1.00000000
vn 0.00000000 0.00000000 1.00000000
vn 0.00000000 0.00000000 1.00000000
vn 0.00000000 0.00000000 1.00000000
vn 0.00000000 0.00000000 1.00000000
vn 0.00000000 0.00000000 1.00000000
vn 0.00000000 0.00000000 1.00000000
vn 0.00000000 0.00000000 1.00000000
vn 0.00000000 0.00000000 1.00000000
vn 0.00000000 0.00000000 1.00000000
vn 0.00000000 0.00000000 1.00000000
vn 0.00000000 0.00000000 1.00000000
vn 0.00000000 0.00000000 1.00000000
vn 0.00000000 0.00000000 1.00000000
vn 0.00000000 0.00000000 1.00000000
vn 0.00000000 0.00000000 1.00000000
vn 0.00000000 0.00000000 1.00000000
vn 0.00000000 0.00000000 1.00000000
vn 0.00000000 0.00000000 1.00000000
vn 0.00000000 0.00000000 1.00000000
vn 0.00000000 0.00000000 1.00000000
vn 0.00000000 0.00000000 1.00000000
vn 0.00000000 0.00000000 1.00000000
vn 0.00000000 0.00000000 1.00000000
vn 0.00000000 0.00000000 1.00000000
vn 0.00000000 0.00000000 1.00000000
vn 0.00000000 0.00000000 1.00000000
vn 0.00000000 0.00000000 1.00000000
vn 0.00000000 0.00000000 1.00000000
vn 0.00000000 0.00000000 1.00000000
vn 0.00000000 0.00000000 1.00000000
vn 0.00000000 0.00000000 1.00000000
vn 0.00000000 0.00000000 1.00000000
vn 0.00000000 0.00000000 1.00000000
vn 0.00000000 0.00000000 1.00000000
vn 0.00000000 0.00000000 1.00000000
vn 0.00000000 0.00000000 1.00000000
vn 0.00000000 0.00000000 1.00000000
vn 0.00000000 0.00000000 1.00000000
vn 0.00000000 0.00000000 1.00000000
vn 0.00000000 0.00000000 1.00000000
vn 0.00000000 0.00000000 1.00000000
vn 0.00000000 0.00000000 1.00000000
vn 0.00000000 0.00000000 1.00000000
vn 0.00000000 0.00000000 1.00000000
vn 0.00000000 0.00000000 1.00000000
vn -0.90677759 0.00000000 0.42160930
vn -0.90677759 0.00000000 0.42160930
vn -0.23469130 -0.87587990 0.42160930
vn -0.23469130 -0.87587990 0.42160930
vn -0.45338881 0.78529242 0.42160931
vn -0.23469130 0.87587990 0.42160930
vn -0.45338881 0.78529242 0.42160931
vn -0.23469130 0.87587990 0.42160930
vn -0.64118859 0.64118859 0.42160929
vn -0.64118859 0.64118859 0.42160929
vn -0.78529242 0.45338881 0.42160931
vn -0.78529242 0.45338881 0.42160931
vn -0.87587990 0.23469130 0.42160930
vn -0.87587990 0.23469130 0.42160930
vn 0.00000000 -0.90677759 0.42160930
vn 0.00000000 -0.90677759 0.42160930
vn 0.23469130 -0.87587990 0.42160930
vn 0.23469130 -0.87587990 0.42160930
vn 0.45338881 -0.78529242 0.42160931
vn 0.45338881 -0.78529242 0.42160931
vn 0.64118859 -0.64118859 0.42160929
vn 0.64118859 -0.64118859 0.42160929
vn 0.78529242 -0.45338881 0.42160931
vn 0.78529242 -0.45338881 0.42160931
vn 0.87587990 -0.23469130 0.42160930
vn 0.87587990 -0.23469130 0.42160930
vn 0.90677759 0.00000000 0.42160930
vn 0.90677759 0.00000000 0.42160930
vn 0.87587990 0.23469130 0.42160930
vn 0.87587990 0.23469130 0.42160930
vn 0.78529242 0.45338881 0.42160931
vn 0.78529242 0.45338881 0.42160931
vn 0.64118859 0.64118859 0.42160929
vn 0.64118859 0.64118859 0.42160929
vn 0.45338881 0.78529242 0.42160931
vn 0.45338881 0.78529242 0.42160931
vn 0.23469130 0.87587990 0.42160930
vn 0.23469130 0.87587990 0.42160930
vn 0.00000000 0.90677759 0.42160930
vn 0.00000000 0.90677759 0.42160930
f 1//1 2//2 3//3
f 2//2 1//1 4//4
f 5//5 3//3 6//6
f 3//3 5//5 1//1
f 7//7 2//2 4//4
f 2//2 7//7 8//8
f 9//9 10//10 11//11
f 10//10 9//9 12//12
f 10//10 12//12 13//13
f 13//13 12//12 14//14
f 14//14 12//12 15//15
f 14//14 15//15 16//16
f 16//16 15//15 17//17
f 16//16 17//17 18//18
f 18//18 17//17 19//19
f 18//18 19//19 20//20
f 20//20 19//19 21//21
f 20//20 21//21 22//22
f 22//22 21//21 23//23
f 23//23 21//21 24//24
f 23//23 24//24 25//25
f 25//25 24//24 26//26
f 25//25 26//26 27//27
f 27//27 26//26 28//28
f 27//27 28//28 29//29
f 29//29 28//28 30//30
f 31//31 32//32 33//33
f 32//32 31//31 34//34
f 34//34 31//31 9//9
f 34//34 9//9 11//11
f 34//34 11//11 35//35
f 34//34 35//35 36//36
f 36//36 35//35 37//37
f 36//36 37//37 38//38
f 36//36 38//38 39//39
f 39//39 38//38 40//40
f 39//39 40//40 41//41
f 41//41 40//40 42//42
f 41//41 42//42 43//43
f 43//43 42//42 44//44
f 43//43 44//44 45//45
f 45//45 44//44 46//46
f 45//45 46//46 47//47
f 45//45 47//47 48//48
f 48//48 47//47 49//49
f 48//48 49//49 50//50
f 50//50 49//49 51//51
f 50//50 51//51 52//52
f 52//52 51//51 53//53
f 52//52 53//53 30//30
f 52//52 30//30 28//28
f 52//52 28//28 54//54
f 52//52 54//54 55//55
f 55//55 54//54 56//56
f 57//57 6//6 58//58
f 6//6 57//57 5//5
f 59//59 8//8 7//7
f 8//8 59//59 60//60
f 61//61 62//62 63//63
f 62//62 61//61 64//64
f 65//65 63//63 66//66
f 63//63 65//65 61//61
f 66//66 67//67 65//65
f 67//67 66//66 68//68
f 68//68 69//69 67//67
f 69//69 68//68 70//70
f 70//70 58//58 69//69
f 58//58 70//70 57//57
f 71//71 60//60 59//59
f 60//60 71//71 72//72
f 71//71 73//73 72//72
f 73//73 71//71 74//74
f 74//74 75//75 73//73
f 75//75 74//74 76//76
f 76//76 77//77 75//75
f 77//77 76//76 78//78
f 78//78 79//79 77//77
f 79//79 78//78 80//80
f 80//80 81//81 79//79
f 81//81 80//80 82//82
f 82//82 83//83 81//81
f 83//83 82//82 84//84
f 84//84 85//85 83//83
f 85//85 84//84 86//86
f 86//86 87//87 85//85
f 87//87 86//86 88//88
f 88//88 89//89 87//87
f 89//89 88//88 90//90
f 89//89 91//91 92//92
f 91//91 89//89 90//90
f 92//92 93//93 94//94
f 93//93 92//92 91//91
f 94//94 95//95 96//96
f 95//95 94//94 93//93
f 64//64 95//95 62//62
f 95//95 64//64 96//96

