# SSTK version 0.8.0
# 14
mtllib original-14.mtl
o mesh16/mesh16-geometry#mesh16-geometry
v 0.246733 -0.614046 0.082358
v 0.215221 -0.569836 0.144019
v 0.215221 -0.614046 0.144019
v 0.246733 -0.569836 0.082358
v 0.168824 -0.569836 0.195424
v 0.236352 -0.614046 -0.120399
v 0.261212 -0.614046 0.014641
v 0.236352 -0.569836 -0.120399
v 0.168824 -0.614046 0.195424
v 0.198707 -0.569836 -0.178520
v 0.198707 -0.614046 -0.178520
v 0.257671 -0.614046 -0.054515
v 0.261212 -0.569836 0.014641
v 0.257671 -0.569836 -0.054515
v 0.110703 -0.614046 0.233069
v 0.147303 -0.569836 -0.224917
v 0.110703 -0.569836 0.233069
v 0.147303 -0.614046 -0.224917
v 0.044819 -0.614046 0.254388
v 0.085641 -0.614046 -0.256429
v 0.085641 -0.569836 -0.256429
v 0.044819 -0.569836 0.254388
v -0.024337 -0.614046 0.257929
v 0.017925 -0.614046 -0.270908
v 0.017925 -0.569836 -0.270908
v -0.024337 -0.569836 0.257929
v -0.016654 -0.569836 -0.269138
v -0.092054 -0.614046 0.243450
v -0.051232 -0.614046 -0.267367
v -0.051232 -0.569836 -0.267367
v -0.092054 -0.569836 0.243450
v -0.153716 -0.614046 0.211938
v -0.117116 -0.614046 -0.246048
v -0.117116 -0.569836 -0.246048
v -0.153716 -0.569836 0.211938
v -0.205120 -0.614046 0.165540
v -0.175237 -0.614046 -0.208404
v -0.175237 -0.569836 -0.208404
v -0.205120 -0.569836 0.165540
v -0.242765 -0.569836 0.107419
v -0.221634 -0.614046 -0.156999
v -0.221634 -0.569836 -0.156999
v -0.242765 -0.614046 0.107419
v -0.264084 -0.569836 0.041536
v -0.253146 -0.569836 -0.095337
v -0.253146 -0.614046 -0.095337
v -0.264084 -0.614046 0.041536
v -0.267625 -0.569836 -0.027621
v -0.267625 -0.614046 -0.027621
vn 0.9422383477364242 0 0.3349431236119549
vn 0.8234430002264469 0 0.5673990001560347
vn -0.8234430002264469 0 -0.5673990001560347
vn -0.9422383477364242 0 -0.3349431236119549
vn 0.6485311202036329 0 0.7611881410843321
vn -0.6485311202036329 0 -0.7611881410843321
vn 0 -1 0
vn 0 1 0
vn 0.9968220126571475 0 0.07966100101149555
vn -0.9968220126571475 0 -0.07966100101149555
vn 0.42942279650839404 0 0.9031035720441539
vn -0.42942279650839404 0 -0.9031035720441539
vn 0.7611881410843321 0 -0.6485311202036329
vn 0.9031035720441539 0 -0.42942279650839404
vn -0.9031035720441539 0 0.42942279650839404
vn -0.7611881410843321 0 0.6485311202036329
vn 0.9834738961569637 0 -0.18104998088329563
vn -0.9834738961569637 0 0.18104998088329563
vn 0.5673990001560347 0 -0.8234430002264469
vn -0.5673990001560347 0 0.8234430002264469
vn 0.18104998088329563 0 0.9834738961569637
vn -0.18104998088329563 0 -0.9834738961569637
vn 0.3349431236119549 0 -0.9422383477364242
vn -0.3349431236119549 0 0.9422383477364242
vn -0.07966100101149555 0 0.9968220126571475
vn 0.07966100101149555 0 -0.9968220126571475
vn -0.051131995083965695 0 -0.9986919039817701
vn 0.051131995083965695 0 0.9986919039817701
usemtl material_0_0
f 1//1 2//2 3//2
f 2//2 1//1 4//1
f 3//3 2//3 1//4
f 4//4 1//4 2//3
f 5//5 3//2 2//2
f 2//3 3//3 5//6
f 3//7 6//7 1//7
f 1//8 6//8 3//8
f 7//9 4//1 1//1
f 1//4 4//4 7//10
f 8//8 2//8 4//8
f 4//7 2//7 8//7
f 3//2 5//5 9//5
f 9//6 5//6 3//3
f 10//8 5//8 2//8
f 2//7 5//7 10//7
f 3//7 11//7 6//7
f 6//8 11//8 3//8
f 1//7 6//7 12//7
f 12//8 6//8 1//8
f 4//1 7//9 13//9
f 13//10 7//10 4//4
f 1//7 12//7 7//7
f 7//8 12//8 1//8
f 10//8 2//8 8//8
f 8//7 2//7 10//7
f 8//8 4//8 14//8
f 14//7 4//7 8//7
f 5//5 15//11 9//5
f 9//6 15//12 5//6
f 9//7 11//7 3//7
f 3//8 11//8 9//8
f 16//8 5//8 10//8
f 10//7 5//7 16//7
f 11//13 8//14 6//14
f 6//15 8//15 11//16
f 6//14 14//17 12//17
f 12//18 14//18 6//15
f 12//17 13//9 7//9
f 7//10 13//10 12//18
f 14//8 4//8 13//8
f 13//7 4//7 14//7
f 8//14 11//13 10//13
f 10//16 11//16 8//15
f 14//17 6//14 8//14
f 8//15 6//15 14//18
f 15//11 5//5 17//11
f 17//12 5//6 15//12
f 15//7 18//7 9//7
f 9//8 18//8 15//8
f 9//7 18//7 11//7
f 11//8 18//8 9//8
f 16//8 17//8 5//8
f 5//7 17//7 16//7
f 11//13 16//19 10//13
f 10//16 16//20 11//16
f 13//9 12//17 14//17
f 14//18 12//18 13//10
f 17//11 19//21 15//11
f 15//12 19//22 17//12
f 15//7 20//7 18//7
f 18//8 20//8 15//8
f 16//19 11//13 18//19
f 18//20 11//16 16//20
f 21//8 17//8 16//8
f 16//7 17//7 21//7
f 19//21 17//11 22//21
f 22//22 17//12 19//22
f 19//7 20//7 15//7
f 15//8 20//8 19//8
f 21//23 18//19 20//23
f 20//24 18//20 21//24
f 18//19 21//23 16//19
f 16//20 21//24 18//20
f 21//8 22//8 17//8
f 17//7 22//7 21//7
f 22//21 23//25 19//21
f 19//22 23//26 22//22
f 19//7 24//7 20//7
f 20//8 24//8 19//8
f 20//23 25//26 21//23
f 21//24 25//25 20//24
f 25//8 22//8 21//8
f 21//7 22//7 25//7
f 23//25 22//21 26//25
f 26//26 22//22 23//26
f 23//7 24//7 19//7
f 19//8 24//8 23//8
f 25//26 20//23 24//26
f 24//25 20//24 25//25
f 27//8 22//8 25//8
f 25//7 22//7 27//7
f 27//8 26//8 22//8
f 22//7 26//7 27//7
f 26//25 28//24 23//25
f 23//26 28//23 26//26
f 23//7 29//7 24//7
f 24//8 29//8 23//8
f 24//26 30//22 25//26
f 25//25 30//21 24//25
f 25//26 30//22 27//27
f 27//28 30//21 25//25
f 30//8 26//8 27//8
f 27//7 26//7 30//7
f 28//24 26//25 31//24
f 31//23 26//26 28//23
f 28//7 29//7 23//7
f 23//8 29//8 28//8
f 30//22 24//26 29//22
f 29//21 24//25 30//21
f 30//8 31//8 26//8
f 26//7 31//7 30//7
f 31//24 32//20 28//24
f 28//23 32//19 31//23
f 28//7 33//7 29//7
f 29//8 33//8 28//8
f 29//22 34//12 30//22
f 30//21 34//11 29//21
f 34//8 31//8 30//8
f 30//7 31//7 34//7
f 32//20 31//24 35//20
f 35//19 31//23 32//19
f 32//7 33//7 28//7
f 28//8 33//8 32//8
f 34//12 29//22 33//12
f 33//11 29//21 34//11
f 34//8 35//8 31//8
f 31//7 35//7 34//7
f 35//20 36//16 32//20
f 32//19 36//13 35//19
f 32//7 37//7 33//7
f 33//8 37//8 32//8
f 33//12 38//6 34//12
f 34//11 38//5 33//11
f 38//8 35//8 34//8
f 34//7 35//7 38//7
f 36//16 35//20 39//16
f 39//13 35//19 36//13
f 36//7 37//7 32//7
f 32//8 37//8 36//8
f 38//6 33//12 37//6
f 37//5 33//11 38//5
f 38//8 39//8 35//8
f 35//7 39//7 38//7
f 40//15 36//16 39//16
f 39//13 36//13 40//14
f 36//7 41//7 37//7
f 37//8 41//8 36//8
f 41//3 38//6 37//6
f 37//5 38//5 41//2
f 42//8 39//8 38//8
f 38//7 39//7 42//7
f 36//16 40//15 43//15
f 43//14 40//14 36//13
f 42//8 40//8 39//8
f 39//7 40//7 42//7
f 43//7 41//7 36//7
f 36//8 41//8 43//8
f 38//6 41//3 42//3
f 42//2 41//2 38//5
f 44//18 43//15 40//15
f 40//14 43//14 44//17
f 45//8 40//8 42//8
f 42//7 40//7 45//7
f 43//7 46//7 41//7
f 41//8 46//8 43//8
f 46//4 42//3 41//3
f 41//2 42//2 46//1
f 43//15 44//18 47//18
f 47//17 44//17 43//14
f 45//8 44//8 40//8
f 40//7 44//7 45//7
f 42//3 46//4 45//4
f 45//1 46//1 42//2
f 47//7 46//7 43//7
f 43//8 46//8 47//8
f 48//10 47//18 44//18
f 44//17 47//17 48//9
f 44//8 45//8 48//8
f 48//7 45//7 44//7
f 49//10 45//4 46//4
f 46//1 45//1 49//9
f 46//7 47//7 49//7
f 49//8 47//8 46//8
f 47//18 48//10 49//10
f 49//9 48//9 47//17
f 45//4 49//10 48//10
f 48//9 49//9 45//1
