# SSTK version 0.8.0
# 3
mtllib original-3.mtl
o mesh1/mesh1-geometry#mesh1-geometry
v 0.147065 0.258806 -0.152117
v 0.127604 0.242828 -0.148866
v 0.147065 0.164355 -0.132901
v 0.111496 0.258806 -0.152117
v 0.127604 0.180268 -0.136139
v 0.147065 0.256851 -0.161723
v 0.118860 0.242828 -0.148866
v 0.110444 0.164355 -0.132901
v 0.127604 0.178314 -0.145745
v 0.147065 0.162400 -0.142507
v 0.111496 0.256851 -0.161723
v 0.102883 0.241926 -0.148683
v 0.118860 0.240873 -0.158472
v 0.113074 0.180268 -0.136139
v 0.110444 0.162400 -0.142507
v 0.127604 0.240873 -0.158472
v 0.100894 0.258355 -0.152025
v 0.102883 0.239971 -0.158289
v 0.101305 0.181170 -0.136322
v 0.100747 0.162900 -0.142609
v 0.113074 0.178314 -0.145745
v 0.100894 0.256400 -0.161631
v 0.097903 0.240235 -0.148339
v 0.097903 0.238280 -0.157945
v 0.100747 0.164854 -0.133003
v 0.101305 0.179216 -0.145928
v 0.093153 0.257002 -0.151750
v 0.096974 0.182733 -0.136640
v 0.093219 0.164398 -0.142914
v 0.096974 0.180778 -0.146246
v 0.093153 0.255048 -0.161356
v 0.093876 0.237480 -0.147778
v 0.093876 0.235526 -0.157384
v 0.093219 0.166352 -0.133307
v 0.085280 0.253603 -0.151058
v 0.090720 0.233550 -0.146979
v 0.093449 0.185101 -0.137122
v 0.085493 0.167635 -0.143572
v 0.093449 0.183146 -0.146728
v 0.085280 0.251649 -0.160665
v 0.090720 0.231596 -0.156585
v 0.090613 0.188765 -0.137867
v 0.085493 0.169590 -0.133966
v 0.090613 0.186810 -0.147473
v 0.078623 0.248304 -0.149980
v 0.088353 0.228332 -0.145917
v 0.079543 0.171936 -0.144447
v 0.088353 0.192263 -0.148583
v 0.088353 0.226377 -0.155523
v 0.078623 0.246350 -0.159587
v 0.079543 0.173890 -0.134841
v 0.086874 0.221196 -0.144465
v 0.088353 0.194217 -0.138976
v 0.086874 0.199760 -0.150108
v 0.086874 0.219242 -0.154072
v 0.073297 0.239400 -0.158173
v 0.073609 0.181251 -0.136339
v 0.086381 0.211516 -0.142496
v 0.086874 0.201715 -0.140502
v 0.086381 0.209562 -0.152102
v 0.073609 0.179297 -0.145945
v 0.073297 0.241354 -0.148566
v 0.069418 0.231048 -0.156473
v 0.069221 0.188623 -0.147842
v 0.069221 0.190577 -0.138236
v 0.069418 0.233003 -0.146867
v 0.067051 0.220941 -0.154417
v 0.067002 0.199822 -0.140117
v 0.067051 0.222895 -0.144811
v 0.067002 0.197868 -0.149723
v 0.066262 0.208724 -0.151932
v 0.066262 0.210678 -0.142325
vn 0 0.1993639094100209 0.9799255235091863
vn 0 -0.1993639094100209 -0.9799255235091863
vn 1 0 0
vn -1 0 0
vn 0 0.9799255235091864 -0.1993639094100208
vn -0.02169011358524879 0.9796949880072504 -0.19931700741816413
vn 0 -0.9799255235091864 0.1993639094100208
vn 0.02169011358524879 -0.9796949880072504 0.19931700741816413
vn 0.028771158802642735 -0.9795198583729012 0.1992813776404721
vn -0.028771158802642735 0.9795198583729012 -0.1992813776404721
vn -0.026244132749571276 -0.9795880013228527 0.19929524118884917
vn 0.026244132749571276 0.9795880013228527 -0.19929524118884917
vn 0.039017196408966615 0.9791793487154679 -0.19921210162421463
vn -0.039017196408966615 -0.9791793487154679 0.19921210162421463
vn -0.10971560513998962 0.9740097331468132 -0.19816035356256279
vn 0.10971560513998962 -0.9740097331468132 0.19816035356256279
vn 0.19432395090335702 -0.9612456049080158 0.19556351692054463
vn -0.19432395090335702 0.9612456049080158 -0.19556351692054463
vn -0.12607773912611195 -0.9721060750708082 0.19777305809254256
vn 0.12607773912611195 0.9721060750708082 -0.19777305809254256
vn 0.4541978946336666 -0.8730164532217305 0.17761347053220533
vn -0.4541978946336666 0.8730164532217305 -0.17761347053220533
vn 0.21372916444957837 0.9572823397063742 -0.1947571984548326
vn -0.21372916444957837 -0.9572823397063742 0.1947571984548326
vn -0.2914184981144264 0.937392504052207 -0.1907106507342084
vn 0.2914184981144264 -0.937392504052207 0.1907106507342084
vn -0.29764849043350083 -0.935510922910824 0.19032784677286763
vn 0.29764849043350083 0.935510922910824 -0.19032784677286763
vn 0.6865492070587655 -0.7124875245934131 0.14495417753804388
vn -0.6865492070587655 0.7124875245934131 -0.14495417753804388
vn 0.45890911616792884 0.8706473794563303 -0.17713148716079608
vn -0.45890911616792884 -0.8706473794563303 0.17713148716079608
vn -0.5214742618427982 0.8361381236960118 -0.17011064733761247
vn 0.5214742618427982 -0.8361381236960118 0.17011064733761247
vn -0.49671693119152965 -0.8504897140123099 0.17303044999920866
vn 0.49671693119152965 0.8504897140123099 -0.17303044999920866
vn 0.6899530240575158 0.7093231529041178 -0.1443103923771623
vn -0.6899530240575158 -0.7093231529041178 0.1443103923771623
vn 0.8564433679449448 -0.5058777202442781 0.1029198215290518
vn -0.8564433679449448 0.5058777202442781 -0.1029198215290518
vn -0.7204729374344533 0.6795617449048437 -0.13825549278945265
vn 0.7204729374344533 -0.6795617449048437 0.13825549278945265
vn 0.869159382667471 0.48460459685626084 -0.0985918466551969
vn -0.869159382667471 -0.48460459685626084 0.0985918466551969
vn -0.6953190664807589 -0.7042736366402628 0.14328307828150882
vn 0.6953190664807589 0.7042736366402628 -0.14328307828150882
vn 0.9525386903246225 -0.29830652493528587 0.06068987243096228
vn -0.9525386903246225 0.29830652493528587 -0.06068987243096228
vn 0.9586966260586935 0.27872082694465106 -0.05670520091638227
vn -0.9586966260586935 -0.27872082694465106 0.05670520091638227
vn -0.8599655375492029 0.5001070566900813 -0.10174579144364825
vn 0.8599655375492029 -0.5001070566900813 0.10174579144364825
vn 0.9921785990922642 -0.12232056503029454 0.02488587699844068
vn -0.9921785990922642 0.12232056503029454 -0.02488587699844068
vn -0.8523553949312956 -0.5124647740895202 0.10425994460430246
vn 0.8523553949312956 0.5124647740895202 -0.10425994460430246
vn 0.9927940217547573 0.11742775249122263 -0.0238904439656255
vn -0.9927940217547573 -0.11742775249122263 0.0238904439656255
vn 0.9999999528760212 -0.00030083546844812394 0.00006120438098625636
vn -0.9999999528760212 0.00030083546844812394 -0.00006120438098625636
vn -0.9472172707264119 0.3141566067819596 -0.06391454023031269
vn 0.9472172707264119 -0.3141566067819596 0.06391454023031269
vn -0.945543923556317 -0.3189603970560384 0.06489186185940608
vn 0.945543923556317 0.3189603970560384 -0.06489186185940608
vn -0.9895943768842755 0.14099684279576807 -0.02868552876709608
vn 0.9895943768842755 -0.14099684279576807 0.02868552876709608
vn -0.9889453825499506 -0.14530359431495696 0.029561728844677785
vn 0.9889453825499506 0.14530359431495696 -0.029561728844677785
vn -0.9999984966358986 -0.0016991823646293576 0.00034569529100534393
vn 0.9999984966358986 0.0016991823646293576 -0.00034569529100534393
usemtl material_0_0
f 1//1 2//1 3//1
f 2//1 1//1 4//1
f 3//2 2//2 1//2
f 4//2 1//2 2//2
f 5//1 3//1 2//1
f 2//2 3//2 5//2
f 3//3 6//3 1//3
f 1//4 6//4 3//4
f 6//5 4//6 1//5
f 1//7 4//8 6//7
f 2//1 4//1 7//1
f 7//2 4//2 2//2
f 3//1 5//1 8//1
f 8//2 5//2 3//2
f 2//4 9//4 5//4
f 5//3 9//3 2//3
f 6//3 3//3 10//3
f 10//4 3//4 6//4
f 4//6 6//5 11//6
f 11//8 6//7 4//8
f 7//1 4//1 12//1
f 12//2 4//2 7//2
f 13//9 2//7 7//9
f 7//10 2//5 13//10
f 8//1 5//1 14//1
f 14//2 5//2 8//2
f 15//11 3//7 8//11
f 8//12 3//5 15//12
f 9//4 2//4 16//4
f 16//3 2//3 9//3
f 9//5 14//13 5//5
f 5//7 14//14 9//7
f 3//7 15//11 10//7
f 10//5 15//12 3//5
f 10//2 9//2 6//2
f 6//1 9//1 10//1
f 6//2 16//2 11//2
f 11//1 16//1 6//1
f 11//6 17//15 4//6
f 4//8 17//16 11//8
f 12//1 4//1 17//1
f 17//2 4//2 12//2
f 18//17 7//9 12//17
f 12//18 7//10 18//18
f 2//7 13//9 16//7
f 16//5 13//10 2//5
f 7//9 18//17 13//9
f 13//10 18//18 7//10
f 8//1 14//1 19//1
f 19//2 14//2 8//2
f 8//11 20//19 15//11
f 15//12 20//20 8//12
f 16//2 6//2 9//2
f 9//1 6//1 16//1
f 14//13 9//5 21//13
f 21//14 9//7 14//14
f 9//2 10//2 15//2
f 15//1 10//1 9//1
f 11//2 16//2 13//2
f 13//1 16//1 11//1
f 17//15 11//6 22//15
f 22//16 11//8 17//16
f 12//1 17//1 23//1
f 23//2 17//2 12//2
f 12//17 24//21 18//17
f 18//18 24//22 12//18
f 11//2 13//2 18//2
f 18//1 13//1 11//1
f 21//13 19//23 14//13
f 14//14 19//24 21//14
f 8//1 19//1 25//1
f 25//2 19//2 8//2
f 20//19 8//11 25//19
f 25//20 8//12 20//20
f 26//2 15//2 20//2
f 20//1 15//1 26//1
f 9//2 15//2 21//2
f 21//1 15//1 9//1
f 11//2 18//2 22//2
f 22//1 18//1 11//1
f 22//15 27//25 17//15
f 17//16 27//26 22//16
f 23//1 17//1 27//1
f 27//2 17//2 23//2
f 24//21 12//17 23//21
f 23//22 12//18 24//22
f 22//2 18//2 24//2
f 24//1 18//1 22//1
f 19//23 21//13 26//23
f 26//24 21//14 19//24
f 25//1 19//1 28//1
f 28//2 19//2 25//2
f 25//19 29//27 20//19
f 20//20 29//28 25//20
f 21//2 15//2 26//2
f 26//1 15//1 21//1
f 26//2 20//2 30//2
f 30//1 20//1 26//1
f 27//25 22//15 31//25
f 31//26 22//16 27//26
f 23//1 27//1 32//1
f 32//2 27//2 23//2
f 23//21 33//29 24//21
f 24//22 33//30 23//22
f 22//2 24//2 31//2
f 31//1 24//1 22//1
f 26//23 28//31 19//23
f 19//24 28//32 26//24
f 25//1 28//1 34//1
f 34//2 28//2 25//2
f 29//27 25//19 34//27
f 34//28 25//20 29//28
f 30//2 20//2 29//2
f 29//1 20//1 30//1
f 28//31 26//23 30//31
f 30//32 26//24 28//32
f 31//25 35//33 27//25
f 27//26 35//34 31//26
f 32//1 27//1 36//1
f 36//2 27//2 32//2
f 33//29 23//21 32//29
f 32//30 23//22 33//30
f 31//2 24//2 33//2
f 33//1 24//1 31//1
f 34//1 28//1 37//1
f 37//2 28//2 34//2
f 34//27 38//35 29//27
f 29//28 38//36 34//28
f 30//2 29//2 39//2
f 39//1 29//1 30//1
f 30//31 37//37 28//31
f 28//32 37//38 30//32
f 35//33 31//25 40//33
f 40//34 31//26 35//34
f 36//1 27//1 35//1
f 35//2 27//2 36//2
f 36//39 33//29 32//29
f 32//30 33//30 36//40
f 31//2 33//2 41//2
f 41//1 33//1 31//1
f 34//1 37//1 42//1
f 42//2 37//2 34//2
f 38//35 34//27 43//35
f 43//36 34//28 38//36
f 44//2 29//2 38//2
f 38//1 29//1 44//1
f 39//2 29//2 44//2
f 44//1 29//1 39//1
f 37//37 30//31 39//37
f 39//38 30//32 37//38
f 31//2 41//2 40//2
f 40//1 41//1 31//1
f 40//33 45//41 35//33
f 35//34 45//42 40//34
f 36//1 35//1 46//1
f 46//2 35//2 36//2
f 33//29 36//39 41//39
f 41//40 36//40 33//30
f 37//37 44//43 42//43
f 42//44 44//44 37//38
f 34//1 42//1 43//1
f 43//2 42//2 34//2
f 43//35 47//45 38//35
f 38//36 47//46 43//36
f 44//2 38//2 48//2
f 48//1 38//1 44//1
f 44//43 37//37 39//37
f 39//38 37//38 44//44
f 40//2 41//2 49//2
f 49//1 41//1 40//1
f 45//41 40//33 50//41
f 50//42 40//34 45//42
f 51//1 35//1 45//1
f 45//2 35//2 51//2
f 46//1 35//1 52//1
f 52//2 35//2 46//2
f 46//47 41//39 36//39
f 36//40 41//40 46//48
f 48//49 42//43 44//43
f 44//44 42//44 48//50
f 43//1 42//1 53//1
f 53//2 42//2 43//2
f 47//45 43//35 51//45
f 51//46 43//36 47//46
f 40//2 38//2 47//2
f 47//1 38//1 40//1
f 48//2 38//2 54//2
f 54//1 38//1 48//1
f 41//39 46//47 49//47
f 49//48 46//48 41//40
f 40//2 49//2 55//2
f 55//1 49//1 40//1
f 40//2 47//2 50//2
f 50//1 47//1 40//1
f 56//51 45//41 50//41
f 50//42 45//42 56//52
f 43//1 35//1 51//1
f 51//2 35//2 43//2
f 51//1 45//1 57//1
f 57//2 45//2 51//2
f 52//1 35//1 58//1
f 58//2 35//2 52//2
f 52//53 49//47 46//47
f 46//48 49//48 52//54
f 42//43 48//49 53//49
f 53//50 48//50 42//44
f 43//1 53//1 59//1
f 59//2 53//2 43//2
f 57//55 47//45 51//45
f 51//46 47//46 57//56
f 40//2 60//2 38//2
f 38//1 60//1 40//1
f 54//2 38//2 60//2
f 60//1 38//1 54//1
f 54//57 53//49 48//49
f 48//50 53//50 54//58
f 49//47 52//53 55//53
f 55//54 52//54 49//48
f 40//2 55//2 60//2
f 60//1 55//1 40//1
f 50//2 47//2 61//2
f 61//1 47//1 50//1
f 45//41 56//51 62//51
f 62//52 56//52 45//42
f 50//2 61//2 56//2
f 56//1 61//1 50//1
f 58//1 35//1 43//1
f 43//2 35//2 58//2
f 57//1 45//1 62//1
f 62//2 45//2 57//2
f 58//59 55//53 52//53
f 52//54 55//54 58//60
f 53//49 54//57 59//57
f 59//58 54//58 53//50
f 43//1 59//1 58//1
f 58//2 59//2 43//2
f 47//45 57//55 61//55
f 61//56 57//56 47//46
f 60//59 59//57 54//57
f 54//58 59//58 60//60
f 55//53 58//59 60//59
f 60//60 58//60 55//54
f 63//61 62//51 56//51
f 56//52 62//52 63//62
f 56//2 61//2 64//2
f 64//1 61//1 56//1
f 57//1 62//1 65//1
f 65//2 62//2 57//2
f 59//57 60//59 58//59
f 58//60 60//60 59//58
f 65//63 61//55 57//55
f 57//56 61//56 65//64
f 62//51 63//61 66//61
f 66//62 63//62 62//52
f 56//2 64//2 63//2
f 63//1 64//1 56//1
f 61//55 65//63 64//63
f 64//64 65//64 61//56
f 65//1 62//1 66//1
f 66//2 62//2 65//2
f 67//65 66//61 63//61
f 63//62 66//62 67//66
f 63//2 64//2 67//2
f 67//1 64//1 63//1
f 68//67 64//63 65//63
f 65//64 64//64 68//68
f 65//1 66//1 69//1
f 69//2 66//2 65//2
f 66//61 67//65 69//65
f 69//66 67//66 66//62
f 67//2 64//2 70//2
f 70//1 64//1 67//1
f 64//63 68//67 70//67
f 70//68 68//68 64//64
f 65//1 69//1 68//1
f 68//2 69//2 65//2
f 71//69 69//65 67//65
f 67//66 69//66 71//70
f 67//2 70//2 71//2
f 71//1 70//1 67//1
f 72//69 70//67 68//67
f 68//68 70//68 72//70
f 68//1 69//1 72//1
f 72//2 69//2 68//2
f 69//65 71//69 72//69
f 72//70 71//70 69//66
f 70//67 72//69 71//69
f 71//70 72//70 70//68
