# SSTK version 0.8.0
# 9
mtllib original-9.mtl
o mesh2/mesh2-geometry#mesh2-geometry
v -0.011689 -0.408025 0.164015
v -0.023988 -0.421467 0.166749
v -0.033433 -0.416201 0.165678
v -0.008165 -0.415518 0.165539
v -0.020081 -0.444700 0.171476
v -0.033433 -0.415543 0.168912
v -0.008165 -0.414860 0.168773
v -0.022293 -0.425114 0.167491
v -0.011689 -0.407367 0.167249
v -0.023988 -0.420809 0.169983
v -0.022293 -0.424456 0.170725
v -0.020043 -0.429915 0.168468
v -0.020081 -0.444042 0.174710
v -0.007571 -0.419578 0.166365
v -0.018195 -0.434163 0.169332
v 0.002223 -0.435655 0.173004
v -0.007571 -0.418920 0.169599
v -0.005321 -0.424379 0.167342
v 0.002223 -0.436313 0.169770
v -0.018195 -0.433505 0.172566
v -0.020043 -0.429257 0.171702
v -0.005321 -0.423722 0.170576
v -0.001812 -0.428003 0.168079
v -0.001812 -0.427345 0.171313
vn 0 -0.19936947404693475 -0.9799243913783597
vn 0 0.19936947404693475 0.9799243913783597
vn -0.35824165289736304 0.9148857290941682 -0.18613710223702756
vn 0.35824165289736304 -0.9148857290941682 0.18613710223702756
vn 0.908165134778327 0.4102082046318817 -0.08345847366056462
vn -0.908165134778327 -0.4102082046318817 0.08345847366056462
vn -0.9087927070274033 -0.40887140103660574 0.08318649570793978
vn 0.9087927070274033 0.40887140103660574 -0.08318649570793978
vn 0.9100776057111978 0.4061177816532412 -0.0826262610071639
vn -0.9100776057111978 -0.4061177816532412 0.0826262610071639
vn 0.9198565374110157 0.3843801991179447 -0.07820366428924981
vn -0.9198565374110157 -0.3843801991179447 0.07820366428924981
vn 0.9029856061377799 0.421044895740943 -0.08566324111592276
vn -0.9029856061377799 -0.421044895740943 0.08566324111592276
usemtl material_0_0
f 1//1 2//1 3//1
f 2//1 1//1 4//1
f 3//2 2//2 1//2
f 4//2 1//2 2//2
f 2//1 5//1 3//1
f 3//2 5//2 2//2
f 6//3 1//3 3//3
f 3//4 1//4 6//4
f 1//5 7//5 4//5
f 4//6 7//6 1//6
f 7//4 2//4 4//4
f 4//3 2//3 7//3
f 5//1 2//1 8//1
f 8//2 2//2 5//2
f 5//7 6//7 3//7
f 3//8 6//8 5//8
f 1//3 6//3 9//3
f 9//4 6//4 1//4
f 7//5 1//5 9//5
f 9//6 1//6 7//6
f 2//4 7//4 10//4
f 10//3 7//3 2//3
f 2//9 11//9 8//9
f 8//10 11//10 2//10
f 5//1 8//1 12//1
f 12//2 8//2 5//2
f 6//7 5//7 13//7
f 13//8 5//8 6//8
f 10//2 9//2 6//2
f 6//1 9//1 10//1
f 9//2 10//2 7//2
f 7//1 10//1 9//1
f 11//9 2//9 10//9
f 10//10 2//10 11//10
f 11//3 14//3 8//3
f 8//4 14//4 11//4
f 12//1 8//1 14//1
f 14//2 8//2 12//2
f 15//1 5//1 12//1
f 12//2 5//2 15//2
f 5//4 16//4 13//4
f 13//3 16//3 5//3
f 13//2 10//2 6//2
f 6//1 10//1 13//1
f 10//2 13//2 11//2
f 11//1 13//1 10//1
f 14//3 11//3 17//3
f 17//4 11//4 14//4
f 12//1 14//1 18//1
f 18//2 14//2 12//2
f 5//1 15//1 19//1
f 19//2 15//2 5//2
f 12//11 20//11 15//11
f 15//12 20//12 12//12
f 16//4 5//4 19//4
f 19//3 5//3 16//3
f 20//2 13//2 16//2
f 16//1 13//1 20//1
f 11//2 13//2 21//2
f 21//1 13//1 11//1
f 11//2 21//2 17//2
f 17//1 21//1 11//1
f 22//8 14//8 17//8
f 17//7 14//7 22//7
f 14//8 22//8 18//8
f 18//7 22//7 14//7
f 22//4 12//4 18//4
f 18//3 12//3 22//3
f 19//1 15//1 23//1
f 23//2 15//2 19//2
f 20//11 12//11 21//11
f 21//12 12//12 20//12
f 20//3 23//3 15//3
f 15//4 23//4 20//4
f 23//13 16//13 19//13
f 19//14 16//14 23//14
f 13//2 20//2 21//2
f 21//1 20//1 13//1
f 20//2 16//2 24//2
f 24//1 16//1 20//1
f 17//2 21//2 22//2
f 22//1 21//1 17//1
f 12//4 22//4 21//4
f 21//3 22//3 12//3
f 23//3 20//3 24//3
f 24//4 20//4 23//4
f 16//13 23//13 24//13
f 24//14 23//14 16//14
