mtllib material.mtl
usemtl material_0_0
v 0.10143200 -0.04242000 -0.06012300
v 0.08476200 0.07426700 -0.04678700
v 0.08476200 -0.05908900 -0.04678700
v 0.10143200 0.05759800 -0.06012300
v 0.21811900 0.07426700 -0.04678700
v 0.10143200 0.05759800 -0.06012300
v 0.20145000 0.05759800 -0.06012300
v 0.08476200 0.07426700 -0.04678700
v 0.20145000 -0.04242000 -0.06012300
v 0.08476200 -0.05908900 -0.04678700
v 0.21811900 -0.05908900 -0.04678700
v 0.10143200 -0.04242000 -0.06012300
v 0.20145000 0.05759800 -0.06012300
v 0.10143200 -0.04242000 -0.06012300
v 0.20145000 -0.04242000 -0.06012300
v 0.10143200 0.05759800 -0.06012300
v 0.21811900 0.07426700 -0.04678700
v 0.20145000 -0.04242000 -0.06012300
v 0.21811900 -0.05908900 -0.04678700
v 0.20145000 0.05759800 -0.06012300
vn 0.62469502 0.00000000 0.78086883
vn 0.62469502 0.00000000 0.78086883
vn 0.62469502 0.00000000 0.78086883
vn 0.62469502 0.00000000 0.78086883
vn 0.00000000 -0.62469502 0.78086883
vn 0.00000000 -0.62469502 0.78086883
vn 0.00000000 -0.62469502 0.78086883
vn 0.00000000 -0.62469502 0.78086883
vn 0.00000000 0.62469502 0.78086883
vn 0.00000000 0.62469502 0.78086883
vn 0.00000000 0.62469502 0.78086883
vn 0.00000000 0.62469502 0.78086883
vn 0.00000000 0.00000000 1.00000000
vn 0.00000000 0.00000000 1.00000000
vn 0.00000000 0.00000000 1.00000000
vn 0.00000000 0.00000000 1.00000000
vn -0.62469502 0.00000000 0.78086883
vn -0.62469502 0.00000000 0.78086883
vn -0.62469502 0.00000000 0.78086883
vn -0.62469502 0.00000000 0.78086883
f 1//1 2//2 3//3
f 2//2 1//1 4//4
f 5//5 6//6 7//7
f 6//6 5//5 8//8
f 9//9 10//10 11//11
f 10//10 9//9 12//12
f 13//13 14//14 15//15
f 14//14 13//13 16//16
f 17//17 18//18 19//19
f 18//18 17//17 20//20

