mtllib material.mtl
usemtl material_0_0
v 0.01010200 0.26108700 -0.15258100
v 0.01010200 0.26108700 -0.15258100
v 0.01010200 0.26108700 -0.15258100
v 0.01010200 0.26108700 -0.15258100
v 0.01010200 0.26108700 -0.15258100
v 0.01010200 0.26108700 -0.15258100
v 0.04188500 0.22634900 -0.14551400
v 0.04188500 0.22634900 -0.14551400
v 0.04188500 0.22634900 -0.14551400
v 0.04188500 0.22634900 -0.14551400
v 0.04188500 0.22634900 -0.14551400
v 0.04188500 0.22634900 -0.14551400
v 0.06629500 0.23995800 -0.14828200
v 0.06629500 0.23995800 -0.14828200
v 0.06629500 0.23995800 -0.14828200
v 0.06629500 0.23995800 -0.14828200
v 0.06629500 0.23995800 -0.14828200
v 0.06629500 0.23995800 -0.14828200
v 0.00099400 0.24172400 -0.14864200
v 0.00099400 0.24172400 -0.14864200
v 0.00099400 0.24172400 -0.14864200
v 0.00099400 0.24172400 -0.14864200
v 0.00099400 0.24172400 -0.14864200
v 0.00099400 0.24172400 -0.14864200
v 0.03178700 0.16630800 -0.13329900
v 0.03178700 0.16630800 -0.13329900
v 0.03178700 0.16630800 -0.13329900
v 0.03178700 0.16630800 -0.13329900
v 0.03178700 0.16630800 -0.13329900
v 0.03178700 0.16630800 -0.13329900
v 0.06629500 0.23825800 -0.15664000
v 0.06629500 0.23825800 -0.15664000
v 0.06629500 0.23825800 -0.15664000
v 0.06629500 0.23825800 -0.15664000
v 0.06629500 0.23825800 -0.15664000
v 0.06629500 0.23825800 -0.15664000
v 0.00099400 0.24002300 -0.15699900
v 0.00099400 0.24002300 -0.15699900
v 0.00099400 0.24002300 -0.15699900
v 0.00099400 0.24002300 -0.15699900
v 0.00099400 0.24002300 -0.15699900
v 0.00099400 0.24002300 -0.15699900
v 0.03750500 0.21692500 -0.14359600
v 0.03750500 0.21692500 -0.14359600
v 0.03750500 0.21692500 -0.14359600
v 0.03750500 0.21692500 -0.14359600
v 0.03750500 0.21692500 -0.14359600
v 0.03750500 0.21692500 -0.14359600
v 0.01010200 0.25938700 -0.16093800
v 0.01010200 0.25938700 -0.16093800
v 0.01010200 0.25938700 -0.16093800
v 0.01010200 0.25938700 -0.16093800
v 0.01010200 0.25938700 -0.16093800
v 0.01010200 0.25938700 -0.16093800
v 0.04188500 0.22464800 -0.15387100
v 0.04188500 0.22464800 -0.15387100
v 0.04188500 0.22464800 -0.15387100
v 0.04188500 0.22464800 -0.15387100
v 0.04188500 0.22464800 -0.15387100
v 0.04188500 0.22464800 -0.15387100
v 0.03750500 0.21522500 -0.15195400
v 0.03750500 0.21522500 -0.15195400
v 0.03750500 0.21522500 -0.15195400
v 0.03750500 0.21522500 -0.15195400
v 0.03750500 0.21522500 -0.15195400
v 0.03750500 0.21522500 -0.15195400
v 0.03169100 0.20451600 -0.14107200
v 0.03169100 0.20451600 -0.14107200
v 0.03169100 0.20451600 -0.14107200
v 0.03169100 0.20451600 -0.14107200
v 0.03169100 0.20451600 -0.14107200
v 0.03169100 0.20451600 -0.14107200
v 0.03178700 0.16460800 -0.14165600
v 0.03178700 0.16460800 -0.14165600
v 0.03178700 0.16460800 -0.14165600
v 0.03178700 0.16460800 -0.14165600
v 0.03178700 0.16460800 -0.14165600
v 0.03178700 0.16460800 -0.14165600
v -0.00054200 0.23123100 -0.14650700
v -0.00054200 0.23123100 -0.14650700
v -0.00054200 0.23123100 -0.14650700
v -0.00054200 0.23123100 -0.14650700
v -0.00054200 0.23123100 -0.14650700
v -0.00054200 0.23123100 -0.14650700
v 0.02691500 0.19353900 -0.13883900
v 0.02691500 0.19353900 -0.13883900
v 0.02691500 0.19353900 -0.13883900
v 0.02691500 0.19353900 -0.13883900
v 0.02691500 0.19353900 -0.13883900
v 0.02691500 0.19353900 -0.13883900
v -0.02585300 0.18628100 -0.14606500
v -0.02585300 0.18628100 -0.14606500
v -0.02585300 0.18628100 -0.14606500
v -0.02585300 0.18628100 -0.14606500
v -0.02585300 0.18628100 -0.14606500
v -0.02585300 0.18628100 -0.14606500
v -0.00054200 0.22953100 -0.15486400
v -0.00054200 0.22953100 -0.15486400
v -0.00054200 0.22953100 -0.15486400
v -0.00054200 0.22953100 -0.15486400
v -0.00054200 0.22953100 -0.15486400
v -0.00054200 0.22953100 -0.15486400
v -0.00635600 0.21882200 -0.14398200
v -0.00635600 0.21882200 -0.14398200
v -0.00635600 0.21882200 -0.14398200
v -0.00635600 0.21882200 -0.14398200
v -0.00635600 0.21882200 -0.14398200
v -0.00635600 0.21882200 -0.14398200
v -0.02585300 0.18798200 -0.13770800
v -0.02585300 0.18798200 -0.13770800
v -0.02585300 0.18798200 -0.13770800
v -0.02585300 0.18798200 -0.13770800
v -0.02585300 0.18798200 -0.13770800
v -0.02585300 0.18798200 -0.13770800
v 0.02691500 0.19183900 -0.14719600
v 0.02691500 0.19183900 -0.14719600
v 0.02691500 0.19183900 -0.14719600
v 0.02691500 0.19183900 -0.14719600
v 0.02691500 0.19183900 -0.14719600
v 0.02691500 0.19183900 -0.14719600
v 0.03169100 0.20281600 -0.14942900
v 0.03169100 0.20281600 -0.14942900
v 0.03169100 0.20281600 -0.14942900
v 0.03169100 0.20281600 -0.14942900
v 0.03169100 0.20281600 -0.14942900
v 0.03169100 0.20281600 -0.14942900
v -0.00635600 0.21712200 -0.15234000
v -0.00635600 0.21712200 -0.15234000
v -0.00635600 0.21712200 -0.15234000
v -0.00635600 0.21712200 -0.15234000
v -0.00635600 0.21712200 -0.15234000
v -0.00635600 0.21712200 -0.15234000
v -0.01542400 0.20945900 -0.14207700
v -0.01542400 0.20945900 -0.14207700
v -0.01542400 0.20945900 -0.14207700
v -0.01542400 0.20945900 -0.14207700
v -0.01542400 0.20945900 -0.14207700
v -0.01542400 0.20945900 -0.14207700
v -0.01542400 0.20775800 -0.15043500
v -0.01542400 0.20775800 -0.15043500
v -0.01542400 0.20775800 -0.15043500
v -0.01542400 0.20775800 -0.15043500
v -0.01542400 0.20775800 -0.15043500
v -0.01542400 0.20775800 -0.15043500
vn 0.00000000 0.19936391 0.97992552
vn 0.00000000 -0.19936391 -0.97992552
vn 0.35824156 0.91488682 -0.18613191
vn -0.35824156 -0.91488682 0.18613191
vn -0.90816509 0.41020878 -0.08345616
vn 0.90816509 -0.41020878 0.08345616
vn 0.35824156 0.91488682 -0.18613191
vn 0.00000000 -0.19936391 -0.97992552
vn -0.35824156 -0.91488682 0.18613191
vn 0.00000000 0.19936391 0.97992552
vn -0.91007756 0.40611835 -0.08262398
vn 0.91007756 -0.40611835 0.08262398
vn 0.35824156 0.91488682 -0.18613191
vn -0.35824156 -0.91488682 0.18613191
vn 0.00000000 0.19936391 0.97992552
vn 0.00000000 -0.19936391 -0.97992552
vn 0.90879266 -0.40887197 0.08318419
vn -0.90879266 0.40887197 -0.08318419
vn 0.00000000 -0.19936391 -0.97992552
vn 0.35824156 0.91488682 -0.18613191
vn -0.35824156 -0.91488682 0.18613191
vn 0.90816509 -0.41020878 0.08345616
vn -0.90816509 0.41020878 -0.08345616
vn 0.00000000 0.19936391 0.97992552
vn 0.00000000 0.19936391 0.97992552
vn 0.90879266 -0.40887197 0.08318419
vn -0.90879266 0.40887197 -0.08318419
vn -0.35824156 -0.91488682 0.18613191
vn 0.35824156 0.91488682 -0.18613191
vn 0.00000000 -0.19936391 -0.97992552
vn 0.35824156 0.91488682 -0.18613191
vn 0.00000000 -0.19936391 -0.97992552
vn -0.35824156 -0.91488682 0.18613191
vn 0.00000000 0.19936391 0.97992552
vn 0.90879266 -0.40887197 0.08318419
vn -0.90879266 0.40887197 -0.08318419
vn 0.00000000 -0.19936391 -0.97992552
vn 0.90816509 -0.41020878 0.08345616
vn 0.00000000 0.19936391 0.97992552
vn 0.35824156 0.91488682 -0.18613191
vn -0.90816509 0.41020878 -0.08345616
vn -0.35824156 -0.91488682 0.18613191
vn 0.91007756 -0.40611835 0.08262398
vn -0.91007756 0.40611835 -0.08262398
vn -0.35824156 -0.91488682 0.18613191
vn 0.35824156 0.91488682 -0.18613191
vn 0.00000000 -0.19936391 -0.97992552
vn 0.00000000 0.19936391 0.97992552
vn 0.00000000 0.19936391 0.97992552
vn 0.00000000 -0.19936391 -0.97992552
vn 0.35824156 0.91488682 -0.18613191
vn -0.35824156 -0.91488682 0.18613191
vn -0.90816509 0.41020878 -0.08345616
vn 0.90816509 -0.41020878 0.08345616
vn -0.35824156 -0.91488682 0.18613191
vn 0.91007756 -0.40611835 0.08262398
vn 0.00000000 -0.19936391 -0.97992552
vn 0.35824156 0.91488682 -0.18613191
vn -0.91007756 0.40611835 -0.08262398
vn 0.00000000 0.19936391 0.97992552
vn 0.35824156 0.91488682 -0.18613191
vn -0.35824156 -0.91488682 0.18613191
vn 0.00000000 0.19936391 0.97992552
vn 0.00000000 -0.19936391 -0.97992552
vn -0.91007756 0.40611835 -0.08262398
vn 0.91007756 -0.40611835 0.08262398
vn 0.00000000 0.19936391 0.97992552
vn -0.35824156 -0.91488682 0.18613191
vn 0.00000000 -0.19936391 -0.97992552
vn 0.35824156 0.91488682 -0.18613191
vn 0.91985649 -0.38438074 0.07820150
vn -0.91985649 0.38438074 -0.07820150
vn -0.90879266 0.40887197 -0.08318419
vn 0.00000000 0.19936391 0.97992552
vn 0.00000000 -0.19936391 -0.97992552
vn 0.35824156 0.91488682 -0.18613191
vn 0.90879266 -0.40887197 0.08318419
vn -0.35824156 -0.91488682 0.18613191
vn 0.00000000 -0.19936391 -0.97992552
vn -0.90879266 0.40887197 -0.08318419
vn 0.35824156 0.91488682 -0.18613191
vn 0.00000000 0.19936391 0.97992552
vn -0.35824156 -0.91488682 0.18613191
vn 0.90879266 -0.40887197 0.08318419
vn 0.00000000 0.19936391 0.97992552
vn 0.00000000 -0.19936391 -0.97992552
vn -0.35824156 -0.91488682 0.18613191
vn 0.35824156 0.91488682 -0.18613191
vn -0.91985649 0.38438074 -0.07820150
vn 0.91985649 -0.38438074 0.07820150
vn -0.90298556 0.42104549 -0.08566087
vn 0.90298556 -0.42104549 0.08566087
vn 0.35824156 0.91488682 -0.18613191
vn -0.35824156 -0.91488682 0.18613191
vn 0.00000000 0.19936391 0.97992552
vn 0.00000000 -0.19936391 -0.97992552
vn 0.35824156 0.91488682 -0.18613191
vn -0.35824156 -0.91488682 0.18613191
vn 0.90879266 -0.40887197 0.08318419
vn -0.90879266 0.40887197 -0.08318419
vn 0.00000000 0.19936391 0.97992552
vn 0.00000000 -0.19936391 -0.97992552
vn -0.90879266 0.40887197 -0.08318419
vn 0.90879266 -0.40887197 0.08318419
vn 0.00000000 -0.19936391 -0.97992552
vn 0.00000000 0.19936391 0.97992552
vn -0.35824156 -0.91488682 0.18613191
vn 0.35824156 0.91488682 -0.18613191
vn 0.00000000 0.19936391 0.97992552
vn 0.00000000 -0.19936391 -0.97992552
vn 0.35824156 0.91488682 -0.18613191
vn -0.35824156 -0.91488682 0.18613191
vn 0.90298556 -0.42104549 0.08566087
vn -0.90298556 0.42104549 -0.08566087
vn 0.00000000 -0.19936391 -0.97992552
vn 0.00000000 0.19936391 0.97992552
vn -0.35824156 -0.91488682 0.18613191
vn 0.35824156 0.91488682 -0.18613191
vn 0.91985649 -0.38438074 0.07820150
vn -0.91985649 0.38438074 -0.07820150
vn 0.35824156 0.91488682 -0.18613191
vn -0.35824156 -0.91488682 0.18613191
vn 0.00000000 0.19936391 0.97992552
vn 0.00000000 -0.19936391 -0.97992552
vn -0.91985649 0.38438074 -0.07820150
vn 0.91985649 -0.38438074 0.07820150
vn -0.35824156 -0.91488682 0.18613191
vn 0.35824156 0.91488682 -0.18613191
vn -0.90879266 0.40887197 -0.08318419
vn 0.90879266 -0.40887197 0.08318419
vn 0.00000000 0.19936391 0.97992552
vn 0.00000000 -0.19936391 -0.97992552
vn 0.00000000 -0.19936391 -0.97992552
vn 0.00000000 0.19936391 0.97992552
vn -0.35824156 -0.91488682 0.18613191
vn 0.35824156 0.91488682 -0.18613191
vn 0.90298556 -0.42104549 0.08566087
vn -0.90298556 0.42104549 -0.08566087
vn 0.00000000 0.19936391 0.97992552
vn 0.00000000 -0.19936391 -0.97992552
vn 0.35824156 0.91488682 -0.18613191
vn -0.35824156 -0.91488682 0.18613191
vn -0.90298556 0.42104549 -0.08566087
vn 0.90298556 -0.42104549 0.08566087
f 1//1 10//10 15//15
f 10//10 1//1 24//24
f 16//16 8//8 2//2
f 19//19 2//2 8//8
f 10//10 25//25 15//15
f 16//16 30//30 8//8
f 31//31 3//3 13//13
f 14//14 4//4 33//33
f 5//5 41//41 23//23
f 22//22 38//38 6//6
f 42//42 9//9 21//21
f 20//20 7//7 40//40
f 25//25 10//10 48//48
f 47//47 8//8 30//30
f 26//26 35//35 17//17
f 18//18 36//36 27//27
f 3//3 31//31 51//51
f 52//52 33//33 4//4
f 41//41 5//5 53//53
f 54//54 6//6 38//38
f 9//9 42//42 55//55
f 58//58 40//40 7//7
f 11//11 65//65 44//44
f 43//43 66//66 12//12
f 25//25 48//48 67//67
f 69//69 47//47 30//30
f 35//35 26//26 77//77
f 73//73 27//27 36//36
f 57//57 50//50 32//32
f 34//34 49//49 60//60
f 50//50 57//57 37//37
f 39//39 60//60 49//49
f 65//65 11//11 59//59
f 56//56 12//12 66//66
f 61//61 81//81 46//46
f 45//45 83//83 62//62
f 67//67 48//48 82//82
f 79//79 47//47 69//69
f 85//85 25//25 67//67
f 69//69 30//30 86//86
f 28//28 94//94 78//78
f 76//76 93//93 29//29
f 75//75 57//57 32//32
f 34//34 60//60 74//74
f 57//57 75//75 64//64
f 63//63 74//74 60//60
f 81//81 61//61 97//97
f 98//98 62//62 83//83
f 67//67 82//82 106//106
f 105//105 79//79 69//69
f 25//25 85//85 109//109
f 110//110 86//86 30//30
f 72//72 120//120 89//89
f 90//90 119//119 71//71
f 94//94 28//28 112//112
f 111//111 29//29 93//93
f 115//115 75//75 96//96
f 95//95 74//74 116//116
f 64//64 75//75 124//124
f 123//123 74//74 63//63
f 64//64 124//124 102//102
f 101//101 123//123 63//63
f 129//129 80//80 100//100
f 99//99 84//84 130//130
f 80//80 129//129 103//103
f 104//104 130//130 84//84
f 127//127 68//68 107//107
f 108//108 70//70 128//128
f 109//109 85//85 134//134
f 133//133 86//86 110//110
f 120//120 72//72 125//125
f 126//126 71//71 119//119
f 118//118 136//136 88//88
f 87//87 135//135 117//117
f 138//138 91//91 114//114
f 113//113 92//92 137//137
f 75//75 115//115 124//124
f 123//123 116//116 74//74
f 115//115 96//96 140//140
f 139//139 95//95 116//116
f 102//102 124//124 132//132
f 131//131 123//123 101//101
f 68//68 127//127 122//122
f 121//121 128//128 70//70
f 136//136 118//118 141//141
f 142//142 117//117 135//135
f 91//91 138//138 143//143
f 144//144 137//137 92//92

