mtllib material.mtl
usemtl material_0_0
v 0.45147700 0.43990300 -0.17058600
v 0.45703800 0.43590200 -0.16713400
v 0.45728700 0.43590200 -0.16902900
v 0.45102200 0.43990300 -0.16713400
v 0.45102200 0.43990300 -0.16713400
v 0.45147700 0.43990300 -0.17058600
v 0.45703800 0.43590200 -0.16713400
v 0.45728700 0.43590200 -0.16902900
v 0.45147700 0.43990300 -0.16368300
v 0.45728700 0.43590200 -0.16524000
v 0.45147700 0.43990300 -0.16368300
v 0.45728700 0.43590200 -0.16524000
v 0.45280900 0.43990300 -0.17380200
v 0.45801800 0.43590200 -0.17079400
v 0.45280900 0.43990300 -0.17380200
v 0.45801800 0.43590200 -0.17079400
v 0.45280900 0.43990300 -0.16046600
v 0.45801800 0.43590200 -0.16347400
v 0.45280900 0.43990300 -0.16046600
v 0.45801800 0.43590200 -0.16347400
v 0.45492800 0.43990300 -0.17656400
v 0.45918200 0.43590200 -0.17231100
v 0.45492800 0.43990300 -0.17656400
v 0.45918200 0.43590200 -0.17231100
v 0.45492800 0.43990300 -0.15770400
v 0.45918200 0.43590200 -0.16195800
v 0.45492800 0.43990300 -0.15770400
v 0.45918200 0.43590200 -0.16195800
v 0.45769000 0.43990300 -0.17868300
v 0.46069800 0.43590200 -0.17347400
v 0.45769000 0.43990300 -0.17868300
v 0.46069800 0.43590200 -0.17347400
v 0.45769000 0.43990300 -0.15558500
v 0.46069800 0.43590200 -0.16079500
v 0.45769000 0.43990300 -0.15558500
v 0.46069800 0.43590200 -0.16079500
v 0.46090600 0.43990300 -0.18001600
v 0.46246300 0.43590200 -0.17420500
v 0.46090600 0.43990300 -0.18001600
v 0.46246300 0.43590200 -0.17420500
v 0.46090600 0.43990300 -0.15425300
v 0.46246300 0.43590200 -0.16006300
v 0.46090600 0.43990300 -0.15425300
v 0.46246300 0.43590200 -0.16006300
v 0.46435800 0.43990300 -0.18047000
v 0.46474900 0.43590200 -0.17450600
v 0.46435800 0.43990300 -0.18047000
v 0.46474900 0.43590200 -0.17450600
v 0.46435800 0.43990300 -0.15379900
v 0.46474900 0.43590200 -0.15976200
v 0.46435800 0.43990300 -0.15379900
v 0.46474900 0.43590200 -0.15976200
v 0.51731000 0.43590200 -0.17450600
v 0.51770100 0.43990300 -0.18047000
v 0.51731000 0.43590200 -0.17450600
v 0.51770100 0.43990300 -0.18047000
v 0.51731000 0.43590200 -0.15976200
v 0.51770100 0.43990300 -0.15379900
v 0.51731000 0.43590200 -0.15976200
v 0.51770100 0.43990300 -0.15379900
v 0.51959500 0.43590200 -0.17420500
v 0.52115200 0.43990300 -0.18001600
v 0.51959500 0.43590200 -0.17420500
v 0.52115200 0.43990300 -0.18001600
v 0.51959500 0.43590200 -0.16006300
v 0.52115200 0.43990300 -0.15425300
v 0.51959500 0.43590200 -0.16006300
v 0.52115200 0.43990300 -0.15425300
v 0.52136100 0.43590200 -0.17347400
v 0.52436900 0.43990300 -0.17868300
v 0.52136100 0.43590200 -0.17347400
v 0.52436900 0.43990300 -0.17868300
v 0.52136100 0.43590200 -0.16079500
v 0.52436900 0.43990300 -0.15558500
v 0.52136100 0.43590200 -0.16079500
v 0.52436900 0.43990300 -0.15558500
v 0.52287700 0.43590200 -0.17231100
v 0.52713000 0.43990300 -0.17656400
v 0.52287700 0.43590200 -0.17231100
v 0.52713000 0.43990300 -0.17656400
v 0.52287700 0.43590200 -0.16195800
v 0.52713000 0.43990300 -0.15770400
v 0.52287700 0.43590200 -0.16195800
v 0.52713000 0.43990300 -0.15770400
v 0.52404000 0.43590200 -0.17079400
v 0.52925000 0.43990300 -0.17380200
v 0.52404000 0.43590200 -0.17079400
v 0.52925000 0.43990300 -0.17380200
v 0.52404000 0.43590200 -0.16347400
v 0.52925000 0.43990300 -0.16046600
v 0.52404000 0.43590200 -0.16347400
v 0.52925000 0.43990300 -0.16046600
v 0.52477200 0.43590200 -0.16902900
v 0.53058200 0.43990300 -0.17058600
v 0.52477200 0.43590200 -0.16902900
v 0.53058200 0.43990300 -0.17058600
v 0.52477200 0.43590200 -0.16524000
v 0.53058200 0.43990300 -0.16368300
v 0.52477200 0.43590200 -0.16524000
v 0.53058200 0.43990300 -0.16368300
v 0.52502100 0.43590200 -0.16713400
v 0.53103600 0.43990300 -0.16713400
v 0.52502100 0.43590200 -0.16713400
v 0.53103600 0.43990300 -0.16713400
vn 0.53491770 0.83265800 0.14333080
vn 0.55378752 0.83265802 0.00000000
vn 0.53491770 0.83265800 0.14333080
vn 0.55378752 0.83265802 0.00000000
vn -0.55378752 -0.83265802 0.00000000
vn -0.53491770 -0.83265800 -0.14333080
vn -0.55378752 -0.83265802 0.00000000
vn -0.53491770 -0.83265800 -0.14333080
vn 0.53491770 0.83265800 -0.14333080
vn 0.53491770 0.83265800 -0.14333080
vn -0.53491770 -0.83265800 0.14333080
vn -0.53491770 -0.83265800 0.14333080
vn 0.47959409 0.83265799 0.27689380
vn 0.47959409 0.83265799 0.27689380
vn -0.47959409 -0.83265799 -0.27689380
vn -0.47959409 -0.83265799 -0.27689380
vn 0.47959409 0.83265799 -0.27689380
vn 0.47959409 0.83265799 -0.27689380
vn -0.47959409 -0.83265799 0.27689380
vn -0.47959409 -0.83265799 0.27689380
vn 0.39158691 0.83265802 0.39158691
vn 0.39158691 0.83265802 0.39158691
vn -0.39158691 -0.83265802 -0.39158691
vn -0.39158691 -0.83265802 -0.39158691
vn 0.39158691 0.83265802 -0.39158691
vn 0.39158691 0.83265802 -0.39158691
vn -0.39158691 -0.83265802 0.39158691
vn -0.39158691 -0.83265802 0.39158691
vn 0.27689380 0.83265799 0.47959409
vn 0.27689380 0.83265799 0.47959409
vn -0.27689380 -0.83265799 -0.47959409
vn -0.27689380 -0.83265799 -0.47959409
vn 0.27689380 0.83265799 -0.47959409
vn 0.27689380 0.83265799 -0.47959409
vn -0.27689380 -0.83265799 0.47959409
vn -0.27689380 -0.83265799 0.47959409
vn 0.14333080 0.83265800 0.53491770
vn 0.14333080 0.83265800 0.53491770
vn -0.14333080 -0.83265800 -0.53491770
vn -0.14333080 -0.83265800 -0.53491770
vn 0.14333080 0.83265800 -0.53491770
vn 0.14333080 0.83265800 -0.53491770
vn -0.14333080 -0.83265800 0.53491770
vn -0.14333080 -0.83265800 0.53491770
vn 0.03638141 0.83100557 0.55507308
vn 0.03638141 0.83100557 0.55507308
vn -0.03638141 -0.83100557 -0.55507308
vn -0.03638141 -0.83100557 -0.55507308
vn 0.03638141 0.83100557 -0.55507308
vn 0.03638141 0.83100557 -0.55507308
vn -0.03638141 -0.83100557 0.55507308
vn -0.03638141 -0.83100557 0.55507308
vn -0.03638141 0.83100557 0.55507308
vn -0.03638141 0.83100557 0.55507308
vn 0.03638141 -0.83100557 -0.55507308
vn 0.03638141 -0.83100557 -0.55507308
vn -0.03638141 0.83100557 -0.55507308
vn -0.03638141 0.83100557 -0.55507308
vn 0.03638141 -0.83100557 0.55507308
vn 0.03638141 -0.83100557 0.55507308
vn -0.14333080 0.83265800 0.53491770
vn -0.14333080 0.83265800 0.53491770
vn 0.14333080 -0.83265800 -0.53491770
vn 0.14333080 -0.83265800 -0.53491770
vn -0.14333080 0.83265800 -0.53491770
vn -0.14333080 0.83265800 -0.53491770
vn 0.14333080 -0.83265800 0.53491770
vn 0.14333080 -0.83265800 0.53491770
vn -0.27689380 0.83265799 0.47959409
vn -0.27689380 0.83265799 0.47959409
vn 0.27689380 -0.83265799 -0.47959409
vn 0.27689380 -0.83265799 -0.47959409
vn -0.27689380 0.83265799 -0.47959409
vn -0.27689380 0.83265799 -0.47959409
vn 0.27689380 -0.83265799 0.47959409
vn 0.27689380 -0.83265799 0.47959409
vn -0.39158691 0.83265802 0.39158691
vn -0.39158691 0.83265802 0.39158691
vn 0.39158691 -0.83265802 -0.39158691
vn 0.39158691 -0.83265802 -0.39158691
vn -0.39158691 0.83265802 -0.39158691
vn -0.39158691 0.83265802 -0.39158691
vn 0.39158691 -0.83265802 0.39158691
vn 0.39158691 -0.83265802 0.39158691
vn -0.47959409 0.83265799 0.27689380
vn -0.47959409 0.83265799 0.27689380
vn 0.47959409 -0.83265799 -0.27689380
vn 0.47959409 -0.83265799 -0.27689380
vn -0.47959409 0.83265799 -0.27689380
vn -0.47959409 0.83265799 -0.27689380
vn 0.47959409 -0.83265799 0.27689380
vn 0.47959409 -0.83265799 0.27689380
vn -0.53491770 0.83265800 0.14333080
vn -0.53491770 0.83265800 0.14333080
vn 0.53491770 -0.83265800 -0.14333080
vn 0.53491770 -0.83265800 -0.14333080
vn -0.53491770 0.83265800 -0.14333080
vn -0.53491770 0.83265800 -0.14333080
vn 0.53491770 -0.83265800 0.14333080
vn 0.53491770 -0.83265800 0.14333080
vn -0.55378752 0.83265802 0.00000000
vn -0.55378752 0.83265802 0.00000000
vn 0.55378752 -0.83265802 0.00000000
vn 0.55378752 -0.83265802 0.00000000
f 1//1 2//2 3//3
f 2//2 1//1 4//4
f 5//5 6//6 7//7
f 8//8 7//7 6//6
f 2//2 9//9 10//10
f 9//9 2//2 4//4
f 5//5 7//7 11//11
f 12//12 11//11 7//7
f 13//13 3//3 14//14
f 3//3 13//13 1//1
f 6//6 15//15 8//8
f 16//16 8//8 15//15
f 10//10 17//17 18//18
f 17//17 10//10 9//9
f 11//11 12//12 19//19
f 20//20 19//19 12//12
f 21//21 14//14 22//22
f 14//14 21//21 13//13
f 15//15 23//23 16//16
f 24//24 16//16 23//23
f 18//18 25//25 26//26
f 25//25 18//18 17//17
f 19//19 20//20 27//27
f 28//28 27//27 20//20
f 29//29 22//22 30//30
f 22//22 29//29 21//21
f 23//23 31//31 24//24
f 32//32 24//24 31//31
f 26//26 33//33 34//34
f 33//33 26//26 25//25
f 27//27 28//28 35//35
f 36//36 35//35 28//28
f 37//37 30//30 38//38
f 30//30 37//37 29//29
f 31//31 39//39 32//32
f 40//40 32//32 39//39
f 34//34 41//41 42//42
f 41//41 34//34 33//33
f 35//35 36//36 43//43
f 44//44 43//43 36//36
f 45//45 38//38 46//46
f 38//38 45//45 37//37
f 39//39 47//47 40//40
f 48//48 40//40 47//47
f 42//42 49//49 50//50
f 49//49 42//42 41//41
f 43//43 44//44 51//51
f 52//52 51//51 44//44
f 45//45 53//53 54//54
f 53//53 45//45 46//46
f 48//48 47//47 55//55
f 56//56 55//55 47//47
f 57//57 49//49 58//58
f 49//49 57//57 50//50
f 52//52 59//59 51//51
f 60//60 51//51 59//59
f 54//54 61//61 62//62
f 61//61 54//54 53//53
f 55//55 56//56 63//63
f 64//64 63//63 56//56
f 65//65 58//58 66//66
f 58//58 65//65 57//57
f 59//59 67//67 60//60
f 68//68 60//60 67//67
f 62//62 69//69 70//70
f 69//69 62//62 61//61
f 63//63 64//64 71//71
f 72//72 71//71 64//64
f 73//73 66//66 74//74
f 66//66 73//73 65//65
f 67//67 75//75 68//68
f 76//76 68//68 75//75
f 70//70 77//77 78//78
f 77//77 70//70 69//69
f 71//71 72//72 79//79
f 80//80 79//79 72//72
f 81//81 74//74 82//82
f 74//74 81//81 73//73
f 75//75 83//83 76//76
f 84//84 76//76 83//83
f 78//78 85//85 86//86
f 85//85 78//78 77//77
f 79//79 80//80 87//87
f 88//88 87//87 80//80
f 89//89 82//82 90//90
f 82//82 89//89 81//81
f 83//83 91//91 84//84
f 92//92 84//84 91//91
f 86//86 93//93 94//94
f 93//93 86//86 85//85
f 87//87 88//88 95//95
f 96//96 95//95 88//88
f 97//97 90//90 98//98
f 90//90 97//97 89//89
f 91//91 99//99 92//92
f 100//100 92//92 99//99
f 94//94 101//101 102//102
f 101//101 94//94 93//93
f 95//95 96//96 103//103
f 104//104 103//103 96//96
f 101//101 98//98 102//102
f 98//98 101//101 97//97
f 99//99 103//103 100//100
f 104//104 100//100 103//103

