mtllib material.mtl
usemtl material_0_0
v 0.38343600 -0.23883500 0.05989800
v 0.37428500 -0.23883500 0.05989800
v 0.37886000 -0.23943700 0.05989800
v 0.37002100 -0.23706900 0.05989800
v 0.38770000 -0.23706900 0.05989800
v 0.36635900 -0.23425900 0.05989800
v 0.39136100 -0.23425900 0.05989800
v 0.39417100 -0.23059800 0.05989800
v 0.36355000 -0.23059800 0.05989800
v 0.39593700 -0.22633400 0.05989800
v 0.36178300 -0.22633400 0.05989800
v 0.39654000 -0.22175800 0.05989800
v 0.36118100 -0.22175800 0.05989800
v 0.39593700 -0.21718200 0.05989800
v 0.36178300 -0.21718200 0.05989800
v 0.39417100 -0.21291800 0.05989800
v 0.36355000 -0.21291800 0.05989800
v 0.36635900 -0.20925700 0.05989800
v 0.39136100 -0.20925700 0.05989800
v 0.38770000 -0.20644700 0.05989800
v 0.37002100 -0.20644700 0.05989800
v 0.38343600 -0.20468100 0.05989800
v 0.37428500 -0.20468100 0.05989800
v 0.37886000 -0.20407900 0.05989800
v 0.37886000 -0.20407900 0.05989800
v 0.38343600 -0.20468100 0.05989800
v 0.37428500 -0.20468100 0.05989800
v 0.37002100 -0.20644700 0.05989800
v 0.38770000 -0.20644700 0.05989800
v 0.36635900 -0.20925700 0.05989800
v 0.39136100 -0.20925700 0.05989800
v 0.39417100 -0.21291800 0.05989800
v 0.36355000 -0.21291800 0.05989800
v 0.36178300 -0.21718200 0.05989800
v 0.39593700 -0.21718200 0.05989800
v 0.36118100 -0.22175800 0.05989800
v 0.39654000 -0.22175800 0.05989800
v 0.36178300 -0.22633400 0.05989800
v 0.39593700 -0.22633400 0.05989800
v 0.36355000 -0.23059800 0.05989800
v 0.39417100 -0.23059800 0.05989800
v 0.36635900 -0.23425900 0.05989800
v 0.39136100 -0.23425900 0.05989800
v 0.38770000 -0.23706900 0.05989800
v 0.37002100 -0.23706900 0.05989800
v 0.38343600 -0.23883500 0.05989800
v 0.37428500 -0.23883500 0.05989800
v 0.37886000 -0.23943700 0.05989800
v 0.39136100 -0.20925700 0.05989800
v 0.39865400 -0.21033000 0.05323000
v 0.39502200 -0.20559700 0.05323000
v 0.39417100 -0.21291800 0.05989800
v 0.39417100 -0.21291800 0.05989800
v 0.39136100 -0.20925700 0.05989800
v 0.39865400 -0.21033000 0.05323000
v 0.39502200 -0.20559700 0.05323000
v 0.39028800 -0.20196500 0.05323000
v 0.38770000 -0.20644700 0.05989800
v 0.38770000 -0.20644700 0.05989800
v 0.39028800 -0.20196500 0.05323000
v 0.38477600 -0.19968100 0.05323000
v 0.38343600 -0.20468100 0.05989800
v 0.38343600 -0.20468100 0.05989800
v 0.38477600 -0.19968100 0.05323000
v 0.37886000 -0.19890300 0.05323000
v 0.37886000 -0.20407900 0.05989800
v 0.37886000 -0.20407900 0.05989800
v 0.37886000 -0.19890300 0.05323000
v 0.37294500 -0.19968100 0.05323000
v 0.37428500 -0.20468100 0.05989800
v 0.37428500 -0.20468100 0.05989800
v 0.37294500 -0.19968100 0.05323000
v 0.37002100 -0.20644700 0.05989800
v 0.36743300 -0.20196500 0.05323000
v 0.36743300 -0.20196500 0.05323000
v 0.37002100 -0.20644700 0.05989800
v 0.36635900 -0.20925700 0.05989800
v 0.36269900 -0.20559700 0.05323000
v 0.36269900 -0.20559700 0.05323000
v 0.36635900 -0.20925700 0.05989800
v 0.36355000 -0.21291800 0.05989800
v 0.35906700 -0.21033000 0.05323000
v 0.36355000 -0.21291800 0.05989800
v 0.35906700 -0.21033000 0.05323000
v 0.36178300 -0.21718200 0.05989800
v 0.35678400 -0.21584300 0.05323000
v 0.36178300 -0.21718200 0.05989800
v 0.35678400 -0.21584300 0.05323000
v 0.36118100 -0.22175800 0.05989800
v 0.35600500 -0.22175800 0.05323000
v 0.36118100 -0.22175800 0.05989800
v 0.35600500 -0.22175800 0.05323000
v 0.36178300 -0.22633400 0.05989800
v 0.35678400 -0.22767300 0.05323000
v 0.36178300 -0.22633400 0.05989800
v 0.35678400 -0.22767300 0.05323000
v 0.36355000 -0.23059800 0.05989800
v 0.35906700 -0.23318600 0.05323000
v 0.36355000 -0.23059800 0.05989800
v 0.35906700 -0.23318600 0.05323000
v 0.36635900 -0.23425900 0.05989800
v 0.36269900 -0.23791900 0.05323000
v 0.36635900 -0.23425900 0.05989800
v 0.36269900 -0.23791900 0.05323000
v 0.36743300 -0.24155100 0.05323000
v 0.37002100 -0.23706900 0.05989800
v 0.36743300 -0.24155100 0.05323000
v 0.37002100 -0.23706900 0.05989800
v 0.37294500 -0.24383500 0.05323000
v 0.37428500 -0.23883500 0.05989800
v 0.37294500 -0.24383500 0.05323000
v 0.37428500 -0.23883500 0.05989800
v 0.37886000 -0.24461300 0.05323000
v 0.37886000 -0.23943700 0.05989800
v 0.37886000 -0.24461300 0.05323000
v 0.37886000 -0.23943700 0.05989800
v 0.38343600 -0.23883500 0.05989800
v 0.38477600 -0.24383500 0.05323000
v 0.38343600 -0.23883500 0.05989800
v 0.38477600 -0.24383500 0.05323000
v 0.38770000 -0.23706900 0.05989800
v 0.39028800 -0.24155100 0.05323000
v 0.38770000 -0.23706900 0.05989800
v 0.39028800 -0.24155100 0.05323000
v 0.39136100 -0.23425900 0.05989800
v 0.39502200 -0.23791900 0.05323000
v 0.39136100 -0.23425900 0.05989800
v 0.39502200 -0.23791900 0.05323000
v 0.39417100 -0.23059800 0.05989800
v 0.39865400 -0.23318600 0.05323000
v 0.39417100 -0.23059800 0.05989800
v 0.39865400 -0.23318600 0.05323000
v 0.39593700 -0.22633400 0.05989800
v 0.40093700 -0.22767300 0.05323000
v 0.39593700 -0.22633400 0.05989800
v 0.40093700 -0.22767300 0.05323000
v 0.39654000 -0.22175800 0.05989800
v 0.40171600 -0.22175800 0.05323000
v 0.39654000 -0.22175800 0.05989800
v 0.40171600 -0.22175800 0.05323000
v 0.39593700 -0.21718200 0.05989800
v 0.40093700 -0.21584300 0.05323000
v 0.39593700 -0.21718200 0.05989800
v 0.40093700 -0.21584300 0.05323000
v 0.39502200 -0.20559700 0.05323000
v 0.39865400 -0.21033000 0.04656200
v 0.39502200 -0.20559700 0.04656200
v 0.39865400 -0.21033000 0.05323000
v 0.39865400 -0.21033000 0.05323000
v 0.39502200 -0.20559700 0.05323000
v 0.39865400 -0.21033000 0.04656200
v 0.39502200 -0.20559700 0.04656200
v 0.39028800 -0.20196500 0.04656200
v 0.39028800 -0.20196500 0.05323000
v 0.39028800 -0.20196500 0.05323000
v 0.39028800 -0.20196500 0.04656200
v 0.38477600 -0.19968100 0.04656200
v 0.38477600 -0.19968100 0.05323000
v 0.38477600 -0.19968100 0.05323000
v 0.38477600 -0.19968100 0.04656200
v 0.37886000 -0.19890300 0.04656200
v 0.37886000 -0.19890300 0.05323000
v 0.37886000 -0.19890300 0.05323000
v 0.37886000 -0.19890300 0.04656200
v 0.37294500 -0.19968100 0.04656200
v 0.37294500 -0.19968100 0.05323000
v 0.37294500 -0.19968100 0.05323000
v 0.37294500 -0.19968100 0.04656200
v 0.36743300 -0.20196500 0.04656200
v 0.36743300 -0.20196500 0.05323000
v 0.36743300 -0.20196500 0.05323000
v 0.36743300 -0.20196500 0.04656200
v 0.36269900 -0.20559700 0.04656200
v 0.36269900 -0.20559700 0.05323000
v 0.36269900 -0.20559700 0.05323000
v 0.36269900 -0.20559700 0.04656200
v 0.35906700 -0.21033000 0.05323000
v 0.35906700 -0.21033000 0.04656200
v 0.35906700 -0.21033000 0.05323000
v 0.35906700 -0.21033000 0.04656200
v 0.35678400 -0.21584300 0.05323000
v 0.35678400 -0.21584300 0.04656200
v 0.35678400 -0.21584300 0.05323000
v 0.35678400 -0.21584300 0.04656200
v 0.35600500 -0.22175800 0.05323000
v 0.35600500 -0.22175800 0.04656200
v 0.35600500 -0.22175800 0.05323000
v 0.35600500 -0.22175800 0.04656200
v 0.35678400 -0.22767300 0.05323000
v 0.35678400 -0.22767300 0.04656200
v 0.35678400 -0.22767300 0.05323000
v 0.35678400 -0.22767300 0.04656200
v 0.35906700 -0.23318600 0.05323000
v 0.35906700 -0.23318600 0.04656200
v 0.35906700 -0.23318600 0.05323000
v 0.35906700 -0.23318600 0.04656200
v 0.36269900 -0.23791900 0.05323000
v 0.36269900 -0.23791900 0.04656200
v 0.36269900 -0.23791900 0.05323000
v 0.36269900 -0.23791900 0.04656200
v 0.36743300 -0.24155100 0.04656200
v 0.36743300 -0.24155100 0.05323000
v 0.36743300 -0.24155100 0.04656200
v 0.36743300 -0.24155100 0.05323000
v 0.37294500 -0.24383500 0.04656200
v 0.37294500 -0.24383500 0.05323000
v 0.37294500 -0.24383500 0.04656200
v 0.37294500 -0.24383500 0.05323000
v 0.37886000 -0.24461300 0.04656200
v 0.37886000 -0.24461300 0.05323000
v 0.37886000 -0.24461300 0.04656200
v 0.37886000 -0.24461300 0.05323000
v 0.38477600 -0.24383500 0.04656200
v 0.38477600 -0.24383500 0.05323000
v 0.38477600 -0.24383500 0.04656200
v 0.38477600 -0.24383500 0.05323000
v 0.39028800 -0.24155100 0.04656200
v 0.39028800 -0.24155100 0.05323000
v 0.39028800 -0.24155100 0.04656200
v 0.39028800 -0.24155100 0.05323000
v 0.39502200 -0.23791900 0.04656200
v 0.39502200 -0.23791900 0.05323000
v 0.39502200 -0.23791900 0.04656200
v 0.39502200 -0.23791900 0.05323000
v 0.39865400 -0.23318600 0.05323000
v 0.39865400 -0.23318600 0.04656200
v 0.39865400 -0.23318600 0.05323000
v 0.39865400 -0.23318600 0.04656200
v 0.40093700 -0.22767300 0.05323000
v 0.40093700 -0.22767300 0.04656200
v 0.40093700 -0.22767300 0.05323000
v 0.40093700 -0.22767300 0.04656200
v 0.40171600 -0.22175800 0.05323000
v 0.40171600 -0.22175800 0.04656200
v 0.40171600 -0.22175800 0.05323000
v 0.40171600 -0.22175800 0.04656200
v 0.40093700 -0.21584300 0.05323000
v 0.40093700 -0.21584300 0.04656200
v 0.40093700 -0.21584300 0.05323000
v 0.40093700 -0.21584300 0.04656200
vn 0.00000000 0.00000000 1.00000000
vn 0.00000000 0.00000000 1.00000000
vn 0.00000000 0.00000000 1.00000000
vn 0.00000000 0.00000000 1.00000000
vn 0.00000000 0.00000000 1.00000000
vn 0.00000000 0.00000000 1.00000000
vn 0.00000000 0.00000000 1.00000000
vn 0.00000000 0.00000000 1.00000000
vn 0.00000000 0.00000000 1.00000000
vn 0.00000000 0.00000000 1.00000000
vn 0.00000000 0.00000000 1.00000000
vn 0.00000000 0.00000000 1.00000000
vn 0.00000000 0.00000000 1.00000000
vn 0.00000000 0.00000000 1.00000000
vn 0.00000000 0.00000000 1.00000000
vn 0.00000000 0.00000000 1.00000000
vn 0.00000000 0.00000000 1.00000000
vn 0.00000000 0.00000000 1.00000000
vn 0.00000000 0.00000000 1.00000000
vn 0.00000000 0.00000000 1.00000000
vn 0.00000000 0.00000000 1.00000000
vn 0.00000000 0.00000000 1.00000000
vn 0.00000000 0.00000000 1.00000000
vn 0.00000000 0.00000000 1.00000000
vn 0.00000000 0.00000000 -1.00000000
vn 0.00000000 0.00000000 -1.00000000
vn 0.00000000 0.00000000 -1.00000000
vn 0.00000000 0.00000000 -1.00000000
vn 0.00000000 0.00000000 -1.00000000
vn 0.00000000 0.00000000 -1.00000000
vn 0.00000000 0.00000000 -1.00000000
vn 0.00000000 0.00000000 -1.00000000
vn 0.00000000 0.00000000 -1.00000000
vn 0.00000000 0.00000000 -1.00000000
vn 0.00000000 0.00000000 -1.00000000
vn 0.00000000 0.00000000 -1.00000000
vn 0.00000000 0.00000000 -1.00000000
vn 0.00000000 0.00000000 -1.00000000
vn 0.00000000 0.00000000 -1.00000000
vn 0.00000000 0.00000000 -1.00000000
vn 0.00000000 0.00000000 -1.00000000
vn 0.00000000 0.00000000 -1.00000000
vn 0.00000000 0.00000000 -1.00000000
vn 0.00000000 0.00000000 -1.00000000
vn 0.00000000 0.00000000 -1.00000000
vn 0.00000000 0.00000000 -1.00000000
vn 0.00000000 0.00000000 -1.00000000
vn 0.00000000 0.00000000 -1.00000000
vn 0.55856070 0.55856070 0.61320460
vn 0.68409437 0.39496208 0.61320457
vn 0.55856070 0.55856070 0.61320460
vn 0.68409437 0.39496208 0.61320457
vn -0.68409437 -0.39496208 -0.61320457
vn -0.55856070 -0.55856070 -0.61320460
vn -0.68409437 -0.39496208 -0.61320457
vn -0.55856070 -0.55856070 -0.61320460
vn 0.39496208 0.68409437 0.61320457
vn 0.39496208 0.68409437 0.61320457
vn -0.39496208 -0.68409437 -0.61320457
vn -0.39496208 -0.68409437 -0.61320457
vn 0.20444740 0.76300811 0.61320461
vn 0.20444740 0.76300811 0.61320461
vn -0.20444740 -0.76300811 -0.61320461
vn -0.20444740 -0.76300811 -0.61320461
vn 0.00000000 0.78992411 0.61320461
vn 0.00000000 0.78992411 0.61320461
vn 0.00000000 -0.78992411 -0.61320461
vn 0.00000000 -0.78992411 -0.61320461
vn -0.20444740 0.76300811 0.61320461
vn -0.20444740 0.76300811 0.61320461
vn 0.20444740 -0.76300811 -0.61320461
vn 0.20444740 -0.76300811 -0.61320461
vn -0.39496208 0.68409437 0.61320457
vn -0.39496208 0.68409437 0.61320457
vn 0.39496208 -0.68409437 -0.61320457
vn 0.39496208 -0.68409437 -0.61320457
vn -0.55856070 0.55856070 0.61320460
vn -0.55856070 0.55856070 0.61320460
vn 0.55856070 -0.55856070 -0.61320460
vn 0.55856070 -0.55856070 -0.61320460
vn -0.68409437 0.39496208 0.61320457
vn -0.68409437 0.39496208 0.61320457
vn 0.68409437 -0.39496208 -0.61320457
vn 0.68409437 -0.39496208 -0.61320457
vn -0.76300811 0.20444740 0.61320461
vn -0.76300811 0.20444740 0.61320461
vn 0.76300811 -0.20444740 -0.61320461
vn 0.76300811 -0.20444740 -0.61320461
vn -0.78992411 0.00000000 0.61320461
vn -0.78992411 0.00000000 0.61320461
vn 0.78992411 0.00000000 -0.61320461
vn 0.78992411 0.00000000 -0.61320461
vn -0.76300811 -0.20444740 0.61320461
vn -0.76300811 -0.20444740 0.61320461
vn 0.76300811 0.20444740 -0.61320461
vn 0.76300811 0.20444740 -0.61320461
vn -0.68409437 -0.39496208 0.61320457
vn -0.68409437 -0.39496208 0.61320457
vn 0.68409437 0.39496208 -0.61320457
vn 0.68409437 0.39496208 -0.61320457
vn -0.55856070 -0.55856070 0.61320460
vn -0.55856070 -0.55856070 0.61320460
vn 0.55856070 0.55856070 -0.61320460
vn 0.55856070 0.55856070 -0.61320460
vn -0.39496208 -0.68409437 0.61320457
vn -0.39496208 -0.68409437 0.61320457
vn 0.39496208 0.68409437 -0.61320457
vn 0.39496208 0.68409437 -0.61320457
vn -0.20444740 -0.76300811 0.61320461
vn -0.20444740 -0.76300811 0.61320461
vn 0.20444740 0.76300811 -0.61320461
vn 0.20444740 0.76300811 -0.61320461
vn 0.00000000 -0.78992411 0.61320461
vn 0.00000000 -0.78992411 0.61320461
vn 0.00000000 0.78992411 -0.61320461
vn 0.00000000 0.78992411 -0.61320461
vn 0.20444740 -0.76300811 0.61320461
vn 0.20444740 -0.76300811 0.61320461
vn -0.20444740 0.76300811 -0.61320461
vn -0.20444740 0.76300811 -0.61320461
vn 0.39496208 -0.68409437 0.61320457
vn 0.39496208 -0.68409437 0.61320457
vn -0.39496208 0.68409437 -0.61320457
vn -0.39496208 0.68409437 -0.61320457
vn 0.55856070 -0.55856070 0.61320460
vn 0.55856070 -0.55856070 0.61320460
vn -0.55856070 0.55856070 -0.61320460
vn -0.55856070 0.55856070 -0.61320460
vn 0.68409437 -0.39496208 0.61320457
vn 0.68409437 -0.39496208 0.61320457
vn -0.68409437 0.39496208 -0.61320457
vn -0.68409437 0.39496208 -0.61320457
vn 0.76300811 -0.20444740 0.61320461
vn 0.76300811 -0.20444740 0.61320461
vn -0.76300811 0.20444740 -0.61320461
vn -0.76300811 0.20444740 -0.61320461
vn 0.78992411 0.00000000 0.61320461
vn 0.78992411 0.00000000 0.61320461
vn -0.78992411 0.00000000 -0.61320461
vn -0.78992411 0.00000000 -0.61320461
vn 0.76300811 0.20444740 0.61320461
vn 0.76300811 0.20444740 0.61320461
vn -0.76300811 -0.20444740 -0.61320461
vn -0.76300811 -0.20444740 -0.61320461
vn 0.70710678 0.70710678 0.00000000
vn 0.86602540 0.50000000 0.00000000
vn 0.70710678 0.70710678 0.00000000
vn 0.86602540 0.50000000 0.00000000
vn -0.86602540 -0.50000000 0.00000000
vn -0.70710678 -0.70710678 0.00000000
vn -0.86602540 -0.50000000 0.00000000
vn -0.70710678 -0.70710678 0.00000000
vn 0.50000000 0.86602540 0.00000000
vn 0.50000000 0.86602540 0.00000000
vn -0.50000000 -0.86602540 0.00000000
vn -0.50000000 -0.86602540 0.00000000
vn 0.25881901 0.96592584 0.00000000
vn 0.25881901 0.96592584 0.00000000
vn -0.25881901 -0.96592584 0.00000000
vn -0.25881901 -0.96592584 0.00000000
vn 0.00000000 1.00000000 0.00000000
vn 0.00000000 1.00000000 0.00000000
vn 0.00000000 -1.00000000 0.00000000
vn 0.00000000 -1.00000000 0.00000000
vn -0.25881901 0.96592584 0.00000000
vn -0.25881901 0.96592584 0.00000000
vn 0.25881901 -0.96592584 0.00000000
vn 0.25881901 -0.96592584 0.00000000
vn -0.50000000 0.86602540 0.00000000
vn -0.50000000 0.86602540 0.00000000
vn 0.50000000 -0.86602540 0.00000000
vn 0.50000000 -0.86602540 0.00000000
vn -0.70710678 0.70710678 0.00000000
vn -0.70710678 0.70710678 0.00000000
vn 0.70710678 -0.70710678 0.00000000
vn 0.70710678 -0.70710678 0.00000000
vn -0.86602540 0.50000000 0.00000000
vn -0.86602540 0.50000000 0.00000000
vn 0.86602540 -0.50000000 0.00000000
vn 0.86602540 -0.50000000 0.00000000
vn -0.96592584 0.25881901 0.00000000
vn -0.96592584 0.25881901 0.00000000
vn 0.96592584 -0.25881901 0.00000000
vn 0.96592584 -0.25881901 0.00000000
vn -1.00000000 0.00000000 0.00000000
vn -1.00000000 0.00000000 0.00000000
vn 1.00000000 0.00000000 0.00000000
vn 1.00000000 0.00000000 0.00000000
vn -0.96592584 -0.25881901 0.00000000
vn -0.96592584 -0.25881901 0.00000000
vn 0.96592584 0.25881901 0.00000000
vn 0.96592584 0.25881901 0.00000000
vn -0.86602540 -0.50000000 0.00000000
vn -0.86602540 -0.50000000 0.00000000
vn 0.86602540 0.50000000 0.00000000
vn 0.86602540 0.50000000 0.00000000
vn -0.70710678 -0.70710678 0.00000000
vn -0.70710678 -0.70710678 0.00000000
vn 0.70710678 0.70710678 0.00000000
vn 0.70710678 0.70710678 0.00000000
vn -0.50000000 -0.86602540 0.00000000
vn -0.50000000 -0.86602540 0.00000000
vn 0.50000000 0.86602540 0.00000000
vn 0.50000000 0.86602540 0.00000000
vn -0.25881901 -0.96592584 0.00000000
vn -0.25881901 -0.96592584 0.00000000
vn 0.25881901 0.96592584 0.00000000
vn 0.25881901 0.96592584 0.00000000
vn 0.00000000 -1.00000000 0.00000000
vn 0.00000000 -1.00000000 0.00000000
vn 0.00000000 1.00000000 0.00000000
vn 0.00000000 1.00000000 0.00000000
vn 0.25881901 -0.96592584 0.00000000
vn 0.25881901 -0.96592584 0.00000000
vn -0.25881901 0.96592584 0.00000000
vn -0.25881901 0.96592584 0.00000000
vn 0.50000000 -0.86602540 0.00000000
vn 0.50000000 -0.86602540 0.00000000
vn -0.50000000 0.86602540 0.00000000
vn -0.50000000 0.86602540 0.00000000
vn 0.70710678 -0.70710678 0.00000000
vn 0.70710678 -0.70710678 0.00000000
vn -0.70710678 0.70710678 0.00000000
vn -0.70710678 0.70710678 0.00000000
vn 0.86602540 -0.50000000 0.00000000
vn 0.86602540 -0.50000000 0.00000000
vn -0.86602540 0.50000000 0.00000000
vn -0.86602540 0.50000000 0.00000000
vn 0.96592584 -0.25881901 0.00000000
vn 0.96592584 -0.25881901 0.00000000
vn -0.96592584 0.25881901 0.00000000
vn -0.96592584 0.25881901 0.00000000
vn 1.00000000 0.00000000 0.00000000
vn 1.00000000 0.00000000 0.00000000
vn -1.00000000 0.00000000 0.00000000
vn -1.00000000 0.00000000 0.00000000
vn 0.96592584 0.25881901 0.00000000
vn 0.96592584 0.25881901 0.00000000
vn -0.96592584 -0.25881901 0.00000000
vn -0.96592584 -0.25881901 0.00000000
f 1//1 2//2 3//3
f 2//2 1//1 4//4
f 4//4 1//1 5//5
f 4//4 5//5 6//6
f 6//6 5//5 7//7
f 6//6 7//7 8//8
f 6//6 8//8 9//9
f 9//9 8//8 10//10
f 9//9 10//10 11//11
f 11//11 10//10 12//12
f 11//11 12//12 13//13
f 13//13 12//12 14//14
f 13//13 14//14 15//15
f 15//15 14//14 16//16
f 15//15 16//16 17//17
f 17//17 16//16 18//18
f 18//18 16//16 19//19
f 18//18 19//19 20//20
f 18//18 20//20 21//21
f 21//21 20//20 22//22
f 21//21 22//22 23//23
f 23//23 22//22 24//24
f 25//25 26//26 27//27
f 27//27 26//26 28//28
f 26//26 29//29 28//28
f 28//28 29//29 30//30
f 29//29 31//31 30//30
f 31//31 32//32 30//30
f 30//30 32//32 33//33
f 33//33 32//32 34//34
f 32//32 35//35 34//34
f 34//34 35//35 36//36
f 35//35 37//37 36//36
f 36//36 37//37 38//38
f 37//37 39//39 38//38
f 38//38 39//39 40//40
f 39//39 41//41 40//40
f 40//40 41//41 42//42
f 41//41 43//43 42//42
f 43//43 44//44 42//42
f 42//42 44//44 45//45
f 44//44 46//46 45//45
f 45//45 46//46 47//47
f 48//48 47//47 46//46
f 49//49 50//50 51//51
f 50//50 49//49 52//52
f 53//53 54//54 55//55
f 56//56 55//55 54//54
f 57//57 49//49 51//51
f 49//49 57//57 58//58
f 59//59 60//60 54//54
f 56//56 54//54 60//60
f 61//61 58//58 57//57
f 58//58 61//61 62//62
f 63//63 64//64 59//59
f 60//60 59//59 64//64
f 65//65 62//62 61//61
f 62//62 65//65 66//66
f 67//67 68//68 63//63
f 64//64 63//63 68//68
f 69//69 66//66 65//65
f 66//66 69//69 70//70
f 71//71 72//72 67//67
f 68//68 67//67 72//72
f 69//69 73//73 70//70
f 73//73 69//69 74//74
f 75//75 72//72 76//76
f 71//71 76//76 72//72
f 74//74 77//77 73//73
f 77//77 74//74 78//78
f 79//79 75//75 80//80
f 76//76 80//80 75//75
f 81//81 78//78 82//82
f 78//78 81//81 77//77
f 80//80 83//83 79//79
f 84//84 79//79 83//83
f 85//85 82//82 86//86
f 82//82 85//85 81//81
f 83//83 87//87 84//84
f 88//88 84//84 87//87
f 89//89 86//86 90//90
f 86//86 89//89 85//85
f 87//87 91//91 88//88
f 92//92 88//88 91//91
f 93//93 90//90 94//94
f 90//90 93//93 89//89
f 91//91 95//95 92//92
f 96//96 92//92 95//95
f 97//97 94//94 98//98
f 94//94 97//97 93//93
f 95//95 99//99 96//96
f 100//100 96//96 99//99
f 101//101 98//98 102//102
f 98//98 101//101 97//97
f 99//99 103//103 100//100
f 104//104 100//100 103//103
f 101//101 105//105 106//106
f 105//105 101//101 102//102
f 104//104 103//103 107//107
f 108//108 107//107 103//103
f 106//106 109//109 110//110
f 109//109 106//106 105//105
f 107//107 108//108 111//111
f 112//112 111//111 108//108
f 110//110 113//113 114//114
f 113//113 110//110 109//109
f 111//111 112//112 115//115
f 116//116 115//115 112//112
f 117//117 113//113 118//118
f 113//113 117//117 114//114
f 116//116 119//119 115//115
f 120//120 115//115 119//119
f 121//121 118//118 122//122
f 118//118 121//121 117//117
f 119//119 123//123 120//120
f 124//124 120//120 123//123
f 125//125 122//122 126//126
f 122//122 125//125 121//121
f 123//123 127//127 124//124
f 128//128 124//124 127//127
f 129//129 126//126 130//130
f 126//126 129//129 125//125
f 127//127 131//131 128//128
f 132//132 128//128 131//131
f 133//133 130//130 134//134
f 130//130 133//133 129//129
f 131//131 135//135 132//132
f 136//136 132//132 135//135
f 137//137 134//134 138//138
f 134//134 137//137 133//133
f 135//135 139//139 136//136
f 140//140 136//136 139//139
f 141//141 138//138 142//142
f 138//138 141//141 137//137
f 139//139 143//143 140//140
f 144//144 140//140 143//143
f 52//52 142//142 50//50
f 142//142 52//52 141//141
f 143//143 53//53 144//144
f 55//55 144//144 53//53
f 145//145 146//146 147//147
f 146//146 145//145 148//148
f 149//149 150//150 151//151
f 152//152 151//151 150//150
f 153//153 145//145 147//147
f 145//145 153//153 154//154
f 155//155 156//156 150//150
f 152//152 150//150 156//156
f 157//157 154//154 153//153
f 154//154 157//157 158//158
f 159//159 160//160 155//155
f 156//156 155//155 160//160
f 161//161 158//158 157//157
f 158//158 161//161 162//162
f 163//163 164//164 159//159
f 160//160 159//159 164//164
f 165//165 162//162 161//161
f 162//162 165//165 166//166
f 167//167 168//168 163//163
f 164//164 163//163 168//168
f 169//169 166//166 165//165
f 166//166 169//169 170//170
f 171//171 172//172 167//167
f 168//168 167//167 172//172
f 173//173 170//170 169//169
f 170//170 173//173 174//174
f 175//175 176//176 171//171
f 172//172 171//171 176//176
f 177//177 173//173 178//178
f 173//173 177//177 174//174
f 175//175 179//179 176//176
f 180//180 176//176 179//179
f 181//181 178//178 182//182
f 178//178 181//181 177//177
f 179//179 183//183 180//180
f 184//184 180//180 183//183
f 185//185 182//182 186//186
f 182//182 185//185 181//181
f 183//183 187//187 184//184
f 188//188 184//184 187//187
f 189//189 186//186 190//190
f 186//186 189//189 185//185
f 187//187 191//191 188//188
f 192//192 188//188 191//191
f 193//193 190//190 194//194
f 190//190 193//193 189//189
f 191//191 195//195 192//192
f 196//196 192//192 195//195
f 197//197 194//194 198//198
f 194//194 197//197 193//193
f 195//195 199//199 196//196
f 200//200 196//196 199//199
f 197//197 201//201 202//202
f 201//201 197//197 198//198
f 200//200 199//199 203//203
f 204//204 203//203 199//199
f 202//202 205//205 206//206
f 205//205 202//202 201//201
f 203//203 204//204 207//207
f 208//208 207//207 204//204
f 206//206 209//209 210//210
f 209//209 206//206 205//205
f 207//207 208//208 211//211
f 212//212 211//211 208//208
f 210//210 213//213 214//214
f 213//213 210//210 209//209
f 211//211 212//212 215//215
f 216//216 215//215 212//212
f 214//214 217//217 218//218
f 217//217 214//214 213//213
f 215//215 216//216 219//219
f 220//220 219//219 216//216
f 218//218 221//221 222//222
f 221//221 218//218 217//217
f 219//219 220//220 223//223
f 224//224 223//223 220//220
f 225//225 221//221 226//226
f 221//221 225//225 222//222
f 224//224 227//227 223//223
f 228//228 223//223 227//227
f 229//229 226//226 230//230
f 226//226 229//229 225//225
f 227//227 231//231 228//228
f 232//232 228//228 231//231
f 233//233 230//230 234//234
f 230//230 233//233 229//229
f 231//231 235//235 232//232
f 236//236 232//232 235//235
f 237//237 234//234 238//238
f 234//234 237//237 233//233
f 235//235 239//239 236//236
f 240//240 236//236 239//239
f 148//148 238//238 146//146
f 238//238 148//148 237//237
f 239//239 149//149 240//240
f 151//151 240//240 149//149

