# Blender v2.79 (sub 0) OBJ File: ''
# www.blender.org
mtllib original-107_0.mtl
o original-107_0
v 0.146645 -0.353327 -0.457410
v 0.151749 -0.344075 -0.457410
v 0.151749 -0.351587 -0.457410
v 0.151027 -0.344075 -0.457410
v 0.148528 -0.345858 -0.457410
v 0.145785 -0.347173 -0.457410
v 0.143676 -0.353853 -0.457410
v 0.142963 -0.347985 -0.457410
v 0.140268 -0.354028 -0.457410
v 0.140225 -0.348256 -0.457410
v 0.137279 -0.353849 -0.457410
v 0.138432 -0.348107 -0.457410
v 0.136639 -0.347640 -0.457410
v 0.134615 -0.353312 -0.457410
v 0.135238 -0.346632 -0.457410
v 0.134808 -0.345881 -0.457410
v 0.134665 -0.344924 -0.457410
v 0.151160 -0.334228 -0.457410
v 0.151323 -0.329102 -0.457410
v 0.151558 -0.331215 -0.457410
v 0.150619 -0.327201 -0.457410
v 0.149966 -0.336690 -0.457410
v 0.149445 -0.325511 -0.457410
v 0.149040 -0.337727 -0.457410
v 0.147801 -0.324031 -0.457410
v 0.147855 -0.338653 -0.457410
v 0.144703 -0.340170 -0.457410
v 0.145807 -0.322829 -0.457410
v 0.143578 -0.321970 -0.457410
v 0.143451 -0.330260 -0.457410
v 0.143236 -0.331345 -0.457410
v 0.141276 -0.341104 -0.457410
v 0.142591 -0.332180 -0.457410
v 0.141331 -0.332857 -0.457410
v 0.139270 -0.333464 -0.457410
v 0.137827 -0.341910 -0.457410
v 0.136204 -0.334164 -0.457410
v 0.136623 -0.342351 -0.457410
v 0.135599 -0.342993 -0.457410
v 0.133053 -0.335098 -0.457410
v 0.134899 -0.343847 -0.457410
v 0.132276 -0.352416 -0.457410
v 0.130185 -0.336491 -0.457410
v 0.130262 -0.351163 -0.457410
v 0.128642 -0.349615 -0.457410
v 0.128161 -0.338292 -0.457410
v 0.127485 -0.347836 -0.457410
v 0.127460 -0.339375 -0.457410
v 0.126790 -0.345827 -0.457410
v 0.126959 -0.340618 -0.457410
v 0.126559 -0.343587 -0.457410
v 0.143316 -0.329472 -0.457410
v 0.141117 -0.321455 -0.457410
v 0.142910 -0.328764 -0.457410
v 0.141626 -0.327756 -0.457410
v 0.139886 -0.327183 -0.457410
v 0.138421 -0.321283 -0.457410
v 0.138018 -0.327034 -0.457410
v 0.135607 -0.321426 -0.457410
v 0.135379 -0.327294 -0.457410
v 0.132808 -0.321856 -0.457410
v 0.132808 -0.328074 -0.457410
v 0.130466 -0.329230 -0.457410
v 0.130164 -0.322530 -0.457410
v 0.128511 -0.330620 -0.457410
v 0.127811 -0.323405 -0.457410
v 0.127811 -0.330620 -0.457410
v 0.146645 -0.353327 -0.456410
v 0.151749 -0.344075 -0.456410
v 0.151749 -0.351587 -0.456410
v 0.151027 -0.344075 -0.456410
v 0.148528 -0.345858 -0.456410
v 0.145785 -0.347173 -0.456410
v 0.143676 -0.353853 -0.456410
v 0.142963 -0.347985 -0.456410
v 0.140268 -0.354028 -0.456410
v 0.140225 -0.348256 -0.456410
v 0.137279 -0.353849 -0.456410
v 0.138432 -0.348107 -0.456410
v 0.136639 -0.347640 -0.456410
v 0.134615 -0.353312 -0.456410
v 0.135238 -0.346632 -0.456410
v 0.134808 -0.345881 -0.456410
v 0.134665 -0.344924 -0.456410
v 0.151160 -0.334228 -0.456410
v 0.151323 -0.329102 -0.456410
v 0.151558 -0.331215 -0.456410
v 0.150619 -0.327201 -0.456410
v 0.149966 -0.336690 -0.456410
v 0.149445 -0.325511 -0.456410
v 0.149040 -0.337727 -0.456410
v 0.147801 -0.324031 -0.456410
v 0.147855 -0.338653 -0.456410
v 0.144703 -0.340170 -0.456410
v 0.145807 -0.322829 -0.456410
v 0.143578 -0.321970 -0.456410
v 0.143451 -0.330260 -0.456410
v 0.143236 -0.331345 -0.456410
v 0.141276 -0.341104 -0.456410
v 0.142591 -0.332180 -0.456410
v 0.141331 -0.332857 -0.456410
v 0.139270 -0.333464 -0.456410
v 0.137827 -0.341910 -0.456410
v 0.136204 -0.334164 -0.456410
v 0.136623 -0.342351 -0.456410
v 0.135599 -0.342993 -0.456410
v 0.133053 -0.335098 -0.456410
v 0.134899 -0.343847 -0.456410
v 0.132276 -0.352416 -0.456410
v 0.130185 -0.336491 -0.456410
v 0.130262 -0.351163 -0.456410
v 0.128642 -0.349615 -0.456410
v 0.128161 -0.338292 -0.456410
v 0.127485 -0.347836 -0.456410
v 0.127460 -0.339375 -0.456410
v 0.126790 -0.345827 -0.456410
v 0.126959 -0.340618 -0.456410
v 0.126559 -0.343587 -0.456410
v 0.143316 -0.329472 -0.456410
v 0.141117 -0.321455 -0.456410
v 0.142910 -0.328764 -0.456410
v 0.141626 -0.327756 -0.456410
v 0.139886 -0.327183 -0.456410
v 0.138421 -0.321283 -0.456410
v 0.138018 -0.327034 -0.456410
v 0.135607 -0.321426 -0.456410
v 0.135379 -0.327294 -0.456410
v 0.132808 -0.321856 -0.456410
v 0.132808 -0.328074 -0.456410
v 0.130466 -0.329230 -0.456410
v 0.130164 -0.322530 -0.456410
v 0.128511 -0.330620 -0.456410
v 0.127811 -0.323405 -0.456410
v 0.127811 -0.330620 -0.456410
vn 0.1804 -0.7007 -0.6903
vn 0.5774 0.5774 -0.5774
vn 0.6526 -0.4670 -0.5966
vn -0.2332 0.7282 -0.6445
vn -0.3491 0.5912 -0.7270
vn -0.2444 0.6424 -0.7264
vn 0.0815 -0.7159 -0.6934
vn -0.1290 0.6732 -0.7281
vn -0.0031 -0.7192 -0.6948
vn -0.0054 0.6855 -0.7281
vn -0.0932 -0.7161 -0.6918
vn 0.1154 0.6769 -0.7269
vn 0.2809 0.5978 -0.7508
vn -0.2020 -0.6962 -0.6888
vn 0.4844 0.4366 -0.7581
vn 0.6236 0.2165 -0.7512
vn 0.6611 -0.0217 -0.7500
vn 0.7085 -0.2125 -0.6729
vn 0.7128 0.1689 -0.6807
vn 0.7323 -0.0075 -0.6809
vn 0.6502 0.3392 -0.6798
vn 0.6113 -0.4095 -0.6773
vn 0.5486 0.4836 -0.6821
vn 0.4963 -0.5300 -0.6876
vn 0.4330 0.5844 -0.6863
vn 0.3851 -0.6198 -0.6838
vn 0.2541 -0.6806 -0.6872
vn 0.3190 0.6518 -0.6880
vn 0.2051 0.6948 -0.6894
vn -0.6610 0.0086 -0.7504
vn -0.5890 0.2678 -0.7625
vn 0.1745 -0.6894 -0.7030
vn -0.4223 0.4983 -0.7572
vn -0.2592 0.6311 -0.7311
vn -0.1769 0.6773 -0.7141
vn 0.1984 -0.6639 -0.7210
vn -0.1810 0.6908 -0.7000
vn 0.3001 -0.6124 -0.7313
vn 0.4407 -0.5003 -0.7453
vn -0.2621 0.6756 -0.6891
vn 0.5811 -0.2809 -0.7638
vn -0.3237 -0.6513 -0.6863
vn -0.4090 0.6113 -0.6775
vn -0.4466 -0.5760 -0.6847
vn -0.5629 -0.4669 -0.6820
vn -0.5578 0.4785 -0.6781
vn -0.6580 -0.3218 -0.6808
vn -0.6456 0.3351 -0.6862
vn -0.7139 -0.1581 -0.6821
vn -0.7087 0.1874 -0.6802
vn -0.7318 0.0118 -0.6815
vn -0.6239 -0.2243 -0.7486
vn 0.0972 0.7159 -0.6914
vn -0.4981 -0.4306 -0.7527
vn -0.3133 -0.5849 -0.7482
vn -0.1340 -0.6648 -0.7349
vn 0.0047 0.7195 -0.6945
vn 0.0064 -0.6859 -0.7276
vn -0.0728 0.7145 -0.6958
vn 0.1334 -0.6705 -0.7299
vn -0.1433 0.7033 -0.6963
vn 0.2529 -0.6395 -0.7260
vn 0.3528 -0.5909 -0.7255
vn -0.2143 0.6860 -0.6953
vn 0.2325 -0.7283 -0.6446
vn -0.6579 0.4573 -0.5984
vn -0.5774 -0.5774 -0.5774
vn 0.1804 -0.7007 0.6903
vn 0.6526 -0.4670 0.5966
vn 0.5773 0.5774 0.5774
vn -0.2332 0.7282 0.6445
vn -0.3491 0.5912 0.7270
vn -0.2444 0.6424 0.7264
vn 0.0815 -0.7159 0.6934
vn -0.1291 0.6732 0.7281
vn -0.0031 -0.7192 0.6948
vn -0.0054 0.6855 0.7281
vn -0.0932 -0.7161 0.6918
vn 0.1154 0.6769 0.7269
vn 0.2809 0.5978 0.7508
vn -0.2020 -0.6962 0.6888
vn 0.4844 0.4366 0.7581
vn 0.6235 0.2165 0.7513
vn 0.6611 -0.0217 0.7500
vn 0.7085 -0.2125 0.6729
vn 0.7324 -0.0075 0.6809
vn 0.7128 0.1689 0.6807
vn 0.6502 0.3392 0.6798
vn 0.6113 -0.4095 0.6773
vn 0.5486 0.4836 0.6821
vn 0.4963 -0.5300 0.6876
vn 0.4330 0.5844 0.6863
vn 0.3851 -0.6198 0.6838
vn 0.2541 -0.6806 0.6872
vn 0.3190 0.6518 0.6880
vn 0.2051 0.6948 0.6894
vn -0.6610 0.0086 0.7504
vn -0.5890 0.2678 0.7625
vn 0.1744 -0.6894 0.7030
vn -0.4223 0.4983 0.7572
vn -0.2592 0.6311 0.7311
vn -0.1769 0.6773 0.7141
vn 0.1984 -0.6639 0.7210
vn -0.1810 0.6908 0.7000
vn 0.3001 -0.6125 0.7313
vn 0.4407 -0.5003 0.7453
vn -0.2621 0.6756 0.6891
vn 0.5812 -0.2809 0.7638
vn -0.3237 -0.6513 0.6863
vn -0.4090 0.6113 0.6775
vn -0.4467 -0.5760 0.6847
vn -0.5629 -0.4669 0.6820
vn -0.5578 0.4785 0.6781
vn -0.6580 -0.3218 0.6808
vn -0.6456 0.3351 0.6862
vn -0.7139 -0.1581 0.6821
vn -0.7087 0.1874 0.6802
vn -0.7318 0.0110 0.6814
vn 0.0972 0.7159 0.6914
vn -0.6239 -0.2243 0.7486
vn -0.4980 -0.4306 0.7527
vn -0.3133 -0.5849 0.7482
vn -0.1340 -0.6648 0.7349
vn 0.0047 0.7195 0.6945
vn 0.0064 -0.6859 0.7276
vn -0.0728 0.7145 0.6958
vn 0.1334 -0.6705 0.7299
vn -0.1433 0.7033 0.6963
vn 0.2529 -0.6395 0.7260
vn 0.3528 -0.5909 0.7255
vn -0.2143 0.6860 0.6953
vn 0.2325 -0.7283 0.6446
vn -0.6579 0.4573 0.5984
vn -0.5774 -0.5774 0.5774
usemtl material_1_0.001
s 1
f 1//1 2//2 3//3
f 2//2 1//1 4//4
f 4//4 1//1 5//5
f 5//5 1//1 6//6
f 6//6 1//1 7//7
f 6//6 7//7 8//8
f 8//8 7//7 9//9
f 8//8 9//9 10//10
f 10//10 9//9 11//11
f 10//10 11//11 12//12
f 12//12 11//11 13//13
f 13//13 11//11 14//14
f 13//13 14//14 15//15
f 15//15 14//14 16//16
f 16//16 14//14 17//17
f 18//18 19//19 20//20
f 19//19 18//18 21//21
f 21//21 18//18 22//22
f 21//21 22//22 23//23
f 23//23 22//22 24//24
f 23//23 24//24 25//25
f 25//25 24//24 26//26
f 25//25 26//26 27//27
f 25//25 27//27 28//28
f 28//28 27//27 29//29
f 29//29 27//27 30//30
f 30//30 27//27 31//31
f 31//31 27//27 32//32
f 31//31 32//32 33//33
f 33//33 32//32 34//34
f 34//34 32//32 35//35
f 35//35 32//32 36//36
f 35//35 36//36 37//37
f 37//37 36//36 38//38
f 37//37 38//38 39//39
f 37//37 39//39 40//40
f 40//40 39//39 41//41
f 40//40 41//41 17//17
f 40//40 17//17 14//14
f 40//40 14//14 42//42
f 40//40 42//42 43//43
f 43//43 42//42 44//44
f 43//43 44//44 45//45
f 43//43 45//45 46//46
f 46//46 45//45 47//47
f 46//46 47//47 48//48
f 48//48 47//47 49//49
f 48//48 49//49 50//50
f 50//50 49//49 51//51
f 29//29 52//52 53//53
f 52//52 29//29 30//30
f 53//53 52//52 54//54
f 53//53 54//54 55//55
f 53//53 55//55 56//56
f 53//53 56//56 57//57
f 57//57 56//56 58//58
f 57//57 58//58 59//59
f 59//59 58//58 60//60
f 59//59 60//60 61//61
f 61//61 60//60 62//62
f 61//61 62//62 63//63
f 61//61 63//63 64//64
f 64//64 63//63 65//65
f 64//64 65//65 66//66
f 66//66 65//65 67//67
f 68//68 70//69 69//70
f 69//70 71//71 68//68
f 71//71 72//72 68//68
f 72//72 73//73 68//68
f 73//73 74//74 68//68
f 73//73 75//75 74//74
f 75//75 76//76 74//74
f 75//75 77//77 76//76
f 77//77 78//78 76//76
f 77//77 79//79 78//78
f 79//79 80//80 78//78
f 80//80 81//81 78//78
f 80//80 82//82 81//81
f 82//82 83//83 81//81
f 83//83 84//84 81//81
f 85//85 87//86 86//87
f 86//87 88//88 85//85
f 88//88 89//89 85//85
f 88//88 90//90 89//89
f 90//90 91//91 89//89
f 90//90 92//92 91//91
f 92//92 93//93 91//91
f 92//92 94//94 93//93
f 92//92 95//95 94//94
f 95//95 96//96 94//94
f 96//96 97//97 94//94
f 97//97 98//98 94//94
f 98//98 99//99 94//94
f 98//98 100//100 99//99
f 100//100 101//101 99//99
f 101//101 102//102 99//99
f 102//102 103//103 99//99
f 102//102 104//104 103//103
f 104//104 105//105 103//103
f 104//104 106//106 105//105
f 104//104 107//107 106//106
f 107//107 108//108 106//106
f 107//107 84//84 108//108
f 107//107 81//81 84//84
f 107//107 109//109 81//81
f 107//107 110//110 109//109
f 110//110 111//111 109//109
f 110//110 112//112 111//111
f 110//110 113//113 112//112
f 113//113 114//114 112//112
f 113//113 115//115 114//114
f 115//115 116//116 114//114
f 115//115 117//117 116//116
f 117//117 118//118 116//116
f 96//96 120//119 119//120
f 119//120 97//97 96//96
f 120//119 121//121 119//120
f 120//119 122//122 121//121
f 120//119 123//123 122//122
f 120//119 124//124 123//123
f 124//124 125//125 123//123
f 124//124 126//126 125//125
f 126//126 127//127 125//125
f 126//126 128//128 127//127
f 128//128 129//129 127//127
f 128//128 130//130 129//129
f 128//128 131//131 130//130
f 131//131 132//132 130//130
f 131//131 133//133 132//132
f 133//133 134//134 132//132
f 27//27 26//26 93//93 94//94
f 29//29 53//53 120//119 96//96
f 37//37 40//40 107//107 104//104
f 26//26 24//24 91//91 93//93
f 64//64 66//66 133//133 131//131
f 15//15 16//16 83//83 82//82
f 24//24 22//22 89//89 91//91
f 30//30 31//31 98//98 97//97
f 50//50 51//51 118//118 117//117
f 8//8 10//10 77//77 75//75
f 38//38 36//36 103//103 105//105
f 51//51 49//49 116//116 118//118
f 6//6 8//8 75//75 73//73
f 45//45 44//44 111//111 112//112
f 31//31 33//33 100//100 98//98
f 59//59 61//61 128//128 126//126
f 22//22 18//18 85//85 89//89
f 5//5 6//6 73//73 72//72
f 20//20 19//19 86//87 87//86
f 58//58 56//56 123//123 125//125
f 57//57 59//59 126//126 124//124
f 12//12 13//13 80//80 79//79
f 47//47 45//45 112//112 114//114
f 18//18 20//20 87//86 85//85
f 33//33 34//34 101//101 100//100
f 63//63 62//62 129//129 130//130
f 49//49 47//47 114//114 116//116
f 11//11 9//9 76//76 78//78
f 2//2 4//4 71//71 69//70
f 65//65 63//63 130//130 132//132
f 40//40 43//43 110//110 107//107
f 32//32 27//27 94//94 99//99
f 54//54 52//52 119//120 121//121
f 39//39 38//38 105//105 106//106
f 13//13 15//15 82//82 80//80
f 56//56 55//55 122//122 123//123
f 52//52 30//30 97//97 119//120
f 48//48 50//50 117//117 115//115
f 25//25 28//28 95//95 92//92
f 42//42 14//14 81//81 109//109
f 43//43 46//46 113//113 110//110
f 41//41 39//39 106//106 108//108
f 21//21 23//23 90//90 88//88
f 16//16 17//17 84//84 83//83
f 23//23 25//25 92//92 90//90
f 35//35 37//37 104//104 102//102
f 62//62 60//60 127//127 129//129
f 44//44 42//42 109//109 111//111
f 9//9 7//7 74//74 76//76
f 67//67 65//65 132//132 134//134
f 19//19 21//21 88//88 86//87
f 34//34 35//35 102//102 101//101
f 60//60 58//58 125//125 127//127
f 66//66 67//67 134//134 133//133
f 46//46 48//48 115//115 113//113
f 7//7 1//1 68//68 74//74
f 53//53 57//57 124//124 120//119
f 55//55 54//54 121//121 122//122
f 36//36 32//32 99//99 103//103
f 14//14 11//11 78//78 81//81
f 4//4 5//5 72//72 71//71
f 10//10 12//12 79//79 77//77
f 3//3 2//2 69//70 70//69
f 61//61 64//64 131//131 128//128
f 1//1 3//3 70//69 68//68
f 28//28 29//29 96//96 95//95
f 17//17 41//41 108//108 84//84
