# Blender v2.79 (sub 0) OBJ File: ''
# www.blender.org
mtllib original-116.mtl
o original-116
v 0.393283 0.401319 -0.094483
v 0.392431 0.392534 -0.094483
v 0.393283 0.392534 -0.094483
v 0.390050 0.394226 -0.094483
v 0.387198 0.395634 -0.094483
v 0.384068 0.396584 -0.094483
v 0.380854 0.396901 -0.094483
v 0.366941 0.398755 -0.094483
v 0.368942 0.400557 -0.094483
v 0.371371 0.402021 -0.094483
v 0.390418 0.402385 -0.094483
v 0.374084 0.403067 -0.094483
v 0.387198 0.403206 -0.094483
v 0.377082 0.403694 -0.094483
v 0.383790 0.403729 -0.094483
v 0.380363 0.403903 -0.094483
v 0.393681 0.371571 -0.094483
v 0.378167 0.371060 -0.094483
v 0.392272 0.369405 -0.094483
v 0.380350 0.371241 -0.094483
v 0.382534 0.371810 -0.094483
v 0.394526 0.374017 -0.094483
v 0.384239 0.373037 -0.094483
v 0.384763 0.373951 -0.094483
v 0.384937 0.375117 -0.094483
v 0.394808 0.376745 -0.094483
v 0.384653 0.376429 -0.094483
v 0.383800 0.377469 -0.094483
v 0.394320 0.380360 -0.094483
v 0.382553 0.378250 -0.094483
v 0.381087 0.378787 -0.094483
v 0.376888 0.379769 -0.094483
v 0.372715 0.380906 -0.094483
v 0.393711 0.381874 -0.094483
v 0.368877 0.382753 -0.094483
v 0.392857 0.383192 -0.094483
v 0.367434 0.383880 -0.094483
v 0.390393 0.385386 -0.094483
v 0.366306 0.385143 -0.094483
v 0.364853 0.388141 -0.094483
v 0.386901 0.387081 -0.094483
v 0.383064 0.388218 -0.094483
v 0.364368 0.391810 -0.094483
v 0.379330 0.389071 -0.094483
v 0.376820 0.389811 -0.094483
v 0.375286 0.390634 -0.094483
v 0.374501 0.391652 -0.094483
v 0.374239 0.392973 -0.094483
v 0.364654 0.394382 -0.094483
v 0.374404 0.393932 -0.094483
v 0.374898 0.394795 -0.094483
v 0.365512 0.396697 -0.094483
v 0.376461 0.396022 -0.094483
v 0.378580 0.396720 -0.094483
v 0.381755 0.364250 -0.094483
v 0.373965 0.364245 -0.094483
v 0.378115 0.364032 -0.094483
v 0.370350 0.364885 -0.094483
v 0.384998 0.364904 -0.094483
v 0.364136 0.367003 -0.094483
v 0.387846 0.365994 -0.094483
v 0.390299 0.367520 -0.094483
v 0.374834 0.371390 -0.094483
v 0.371397 0.372378 -0.094483
v 0.368057 0.373980 -0.094483
v 0.364136 0.376151 -0.094483
v 0.365014 0.376151 -0.094483
v 0.365014 0.376151 -0.094483
v 0.368057 0.373980 -0.094483
v 0.364136 0.376151 -0.094483
v 0.378167 0.371060 -0.094483
v 0.392272 0.369405 -0.094483
v 0.374834 0.371390 -0.094483
v 0.390299 0.367520 -0.094483
v 0.364136 0.367003 -0.094483
v 0.371397 0.372378 -0.094483
v 0.387846 0.365994 -0.094483
v 0.384998 0.364904 -0.094483
v 0.370350 0.364885 -0.094483
v 0.381755 0.364250 -0.094483
v 0.373965 0.364245 -0.094483
v 0.378115 0.364032 -0.094483
v 0.380854 0.396901 -0.094483
v 0.378580 0.396720 -0.094483
v 0.366941 0.398755 -0.094483
v 0.365512 0.396697 -0.094483
v 0.376461 0.396022 -0.094483
v 0.374898 0.394795 -0.094483
v 0.364654 0.394382 -0.094483
v 0.374404 0.393932 -0.094483
v 0.374239 0.392973 -0.094483
v 0.364368 0.391810 -0.094483
v 0.374501 0.391652 -0.094483
v 0.375286 0.390634 -0.094483
v 0.376820 0.389811 -0.094483
v 0.379330 0.389071 -0.094483
v 0.383064 0.388218 -0.094483
v 0.364853 0.388141 -0.094483
v 0.386901 0.387081 -0.094483
v 0.390393 0.385386 -0.094483
v 0.366306 0.385143 -0.094483
v 0.367434 0.383880 -0.094483
v 0.392857 0.383192 -0.094483
v 0.368877 0.382753 -0.094483
v 0.393711 0.381874 -0.094483
v 0.372715 0.380906 -0.094483
v 0.394320 0.380360 -0.094483
v 0.376888 0.379769 -0.094483
v 0.381087 0.378787 -0.094483
v 0.382553 0.378250 -0.094483
v 0.383800 0.377469 -0.094483
v 0.394808 0.376745 -0.094483
v 0.384653 0.376429 -0.094483
v 0.384937 0.375117 -0.094483
v 0.394526 0.374017 -0.094483
v 0.384763 0.373951 -0.094483
v 0.384239 0.373037 -0.094483
v 0.382534 0.371810 -0.094483
v 0.393681 0.371571 -0.094483
v 0.380350 0.371241 -0.094483
v 0.380363 0.403903 -0.094483
v 0.383790 0.403729 -0.094483
v 0.377082 0.403694 -0.094483
v 0.387198 0.403206 -0.094483
v 0.374084 0.403067 -0.094483
v 0.390418 0.402385 -0.094483
v 0.371371 0.402021 -0.094483
v 0.393283 0.401319 -0.094483
v 0.368942 0.400557 -0.094483
v 0.384068 0.396584 -0.094483
v 0.387198 0.395634 -0.094483
v 0.390050 0.394226 -0.094483
v 0.392431 0.392534 -0.094483
v 0.393283 0.392534 -0.094483
v 0.393283 0.401319 -0.093483
v 0.392431 0.392534 -0.093483
v 0.393283 0.392534 -0.093483
v 0.390050 0.394226 -0.093483
v 0.387198 0.395634 -0.093483
v 0.384068 0.396584 -0.093483
v 0.380854 0.396901 -0.093483
v 0.366941 0.398755 -0.093483
v 0.368942 0.400557 -0.093483
v 0.371371 0.402021 -0.093483
v 0.390418 0.402385 -0.093483
v 0.374084 0.403067 -0.093483
v 0.387198 0.403206 -0.093483
v 0.377082 0.403694 -0.093483
v 0.383790 0.403729 -0.093483
v 0.380363 0.403903 -0.093483
v 0.393681 0.371571 -0.093483
v 0.378167 0.371060 -0.093483
v 0.392272 0.369405 -0.093483
v 0.380350 0.371241 -0.093483
v 0.382534 0.371810 -0.093483
v 0.394526 0.374017 -0.093483
v 0.384239 0.373037 -0.093483
v 0.384763 0.373951 -0.093483
v 0.384937 0.375117 -0.093483
v 0.394808 0.376745 -0.093483
v 0.384653 0.376429 -0.093483
v 0.383800 0.377469 -0.093483
v 0.394320 0.380360 -0.093483
v 0.382553 0.378250 -0.093483
v 0.381087 0.378787 -0.093483
v 0.376888 0.379769 -0.093483
v 0.372715 0.380906 -0.093483
v 0.393711 0.381874 -0.093483
v 0.368877 0.382753 -0.093483
v 0.392857 0.383192 -0.093483
v 0.367434 0.383880 -0.093483
v 0.390393 0.385386 -0.093483
v 0.366306 0.385143 -0.093483
v 0.364853 0.388141 -0.093483
v 0.386901 0.387081 -0.093483
v 0.383064 0.388218 -0.093483
v 0.364368 0.391810 -0.093483
v 0.379330 0.389071 -0.093483
v 0.376820 0.389811 -0.093483
v 0.375286 0.390634 -0.093483
v 0.374501 0.391652 -0.093483
v 0.374239 0.392973 -0.093483
v 0.364654 0.394382 -0.093483
v 0.374404 0.393932 -0.093483
v 0.374898 0.394795 -0.093483
v 0.365512 0.396697 -0.093483
v 0.376461 0.396022 -0.093483
v 0.378580 0.396720 -0.093483
v 0.381755 0.364250 -0.093483
v 0.373965 0.364245 -0.093483
v 0.378115 0.364032 -0.093483
v 0.370350 0.364885 -0.093483
v 0.384998 0.364904 -0.093483
v 0.364136 0.367003 -0.093483
v 0.387846 0.365994 -0.093483
v 0.390299 0.367520 -0.093483
v 0.374834 0.371390 -0.093483
v 0.371397 0.372378 -0.093483
v 0.368057 0.373980 -0.093483
v 0.364136 0.376151 -0.093483
v 0.365014 0.376151 -0.093483
v 0.365014 0.376151 -0.093483
v 0.368057 0.373980 -0.093483
v 0.364136 0.376151 -0.093483
v 0.378167 0.371060 -0.093483
v 0.392272 0.369405 -0.093483
v 0.374834 0.371390 -0.093483
v 0.390299 0.367520 -0.093483
v 0.364136 0.367003 -0.093483
v 0.371397 0.372378 -0.093483
v 0.387846 0.365994 -0.093483
v 0.384998 0.364904 -0.093483
v 0.370350 0.364885 -0.093483
v 0.381755 0.364250 -0.093483
v 0.373965 0.364245 -0.093483
v 0.378115 0.364032 -0.093483
v 0.380854 0.396901 -0.093483
v 0.378580 0.396720 -0.093483
v 0.366941 0.398755 -0.093483
v 0.365512 0.396697 -0.093483
v 0.376461 0.396022 -0.093483
v 0.374898 0.394795 -0.093483
v 0.364654 0.394382 -0.093483
v 0.374404 0.393932 -0.093483
v 0.374239 0.392973 -0.093483
v 0.364368 0.391810 -0.093483
v 0.374501 0.391652 -0.093483
v 0.375286 0.390634 -0.093483
v 0.376820 0.389811 -0.093483
v 0.379330 0.389071 -0.093483
v 0.383064 0.388218 -0.093483
v 0.364853 0.388141 -0.093483
v 0.386901 0.387081 -0.093483
v 0.390393 0.385386 -0.093483
v 0.366306 0.385143 -0.093483
v 0.367434 0.383880 -0.093483
v 0.392857 0.383192 -0.093483
v 0.368877 0.382753 -0.093483
v 0.393711 0.381874 -0.093483
v 0.372715 0.380906 -0.093483
v 0.394320 0.380360 -0.093483
v 0.376888 0.379769 -0.093483
v 0.381087 0.378787 -0.093483
v 0.382553 0.378250 -0.093483
v 0.383800 0.377469 -0.093483
v 0.394808 0.376745 -0.093483
v 0.384653 0.376429 -0.093483
v 0.384937 0.375117 -0.093483
v 0.394526 0.374017 -0.093483
v 0.384763 0.373951 -0.093483
v 0.384239 0.373037 -0.093483
v 0.382534 0.371810 -0.093483
v 0.393681 0.371571 -0.093483
v 0.380350 0.371241 -0.093483
v 0.380363 0.403903 -0.093483
v 0.383790 0.403729 -0.093483
v 0.377082 0.403694 -0.093483
v 0.387198 0.403206 -0.093483
v 0.374084 0.403067 -0.093483
v 0.390418 0.402385 -0.093483
v 0.371371 0.402021 -0.093483
v 0.393283 0.401319 -0.093483
v 0.368942 0.400557 -0.093483
v 0.384068 0.396584 -0.093483
v 0.387198 0.395634 -0.093483
v 0.390050 0.394226 -0.093483
v 0.392431 0.392534 -0.093483
v 0.393283 0.392534 -0.093483
vn 0.6579 0.4572 -0.5984
vn 0.5774 -0.5773 -0.5774
vn -0.2324 -0.7283 -0.6447
vn -0.3528 -0.5910 -0.7255
vn -0.2529 -0.6395 -0.7260
vn -0.1335 -0.6705 -0.7298
vn -0.0065 -0.6859 -0.7276
vn -0.5487 0.4835 -0.6821
vn -0.4331 0.5843 -0.6863
vn -0.3190 0.6518 -0.6880
vn 0.2144 0.6860 -0.6953
vn -0.2051 0.6948 -0.6894
vn 0.1433 0.7033 -0.6963
vn -0.0972 0.7159 -0.6914
vn 0.0728 0.7145 -0.6959
vn -0.0046 0.7195 -0.6945
vn 0.6581 -0.3217 -0.6807
vn 0.5629 -0.4669 -0.6820
vn 0.0055 0.6854 -0.7281
vn -0.1153 0.6770 -0.7269
vn -0.2809 0.5978 -0.7508
vn 0.7139 -0.1580 -0.6822
vn -0.4844 0.4368 -0.7580
vn -0.6235 0.2166 -0.7513
vn -0.6612 -0.0215 -0.7499
vn 0.7318 0.0114 -0.6814
vn -0.5810 -0.2807 -0.7639
vn -0.4405 -0.5005 -0.7453
vn 0.7086 0.1872 -0.6803
vn -0.2999 -0.6126 -0.7313
vn -0.1984 -0.6639 -0.7210
vn -0.1745 -0.6894 -0.7030
vn -0.2541 -0.6806 -0.6872
vn 0.6457 0.3351 -0.6861
vn -0.3850 -0.6199 -0.6838
vn 0.5577 0.4785 -0.6782
vn -0.4962 -0.5301 -0.6876
vn 0.4091 0.6113 -0.6775
vn -0.6113 -0.4094 -0.6772
vn -0.7085 -0.2125 -0.6730
vn 0.2620 0.6756 -0.6891
vn 0.1811 0.6908 -0.7000
vn -0.7323 -0.0076 -0.6809
vn 0.1770 0.6772 -0.7142
vn 0.2592 0.6313 -0.7310
vn 0.4222 0.4981 -0.7573
vn 0.5892 0.2676 -0.7623
vn 0.6608 0.0084 -0.7505
vn -0.7128 0.1690 -0.6807
vn 0.6241 -0.2244 -0.7484
vn 0.4980 -0.4303 -0.7529
vn -0.6501 0.3392 -0.6799
vn 0.3134 -0.5849 -0.7481
vn 0.1339 -0.6648 -0.7349
vn 0.0932 -0.7161 -0.6918
vn 0.0031 -0.7192 -0.6948
vn -0.0814 -0.7159 -0.6934
vn -0.1803 -0.7007 -0.6903
vn 0.2019 -0.6962 -0.6889
vn -0.6526 -0.4670 -0.5966
vn 0.3236 -0.6514 -0.6863
vn 0.4466 -0.5760 -0.6847
vn 0.1290 0.6733 -0.7281
vn 0.2444 0.6423 -0.7264
vn 0.3492 0.5912 -0.7270
vn -0.5773 0.5773 -0.5774
vn 0.2331 0.7282 -0.6445
vn 0.0055 0.6857 -0.7279
vn 0.4222 0.4981 -0.7574
vn -0.1154 0.6768 -0.7271
vn 0.0728 0.7145 -0.6958
vn 0.6579 0.4572 0.5984
vn -0.2324 -0.7283 0.6446
vn 0.5774 -0.5774 0.5774
vn -0.3528 -0.5910 0.7255
vn -0.2529 -0.6395 0.7260
vn -0.1335 -0.6705 0.7299
vn -0.0065 -0.6859 0.7276
vn -0.5487 0.4835 0.6821
vn -0.4331 0.5844 0.6863
vn -0.3190 0.6518 0.6880
vn 0.2144 0.6860 0.6953
vn -0.2051 0.6948 0.6894
vn 0.1433 0.7033 0.6963
vn -0.0972 0.7159 0.6914
vn 0.0728 0.7145 0.6959
vn -0.0046 0.7195 0.6945
vn 0.6581 -0.3217 0.6807
vn 0.0055 0.6855 0.7281
vn 0.5629 -0.4669 0.6820
vn -0.1154 0.6769 0.7270
vn -0.2809 0.5978 0.7508
vn 0.7139 -0.1580 0.6822
vn -0.4844 0.4368 0.7580
vn -0.6235 0.2166 0.7513
vn -0.6612 -0.0215 0.7499
vn 0.7318 0.0114 0.6814
vn -0.5810 -0.2807 0.7639
vn -0.4405 -0.5005 0.7453
vn 0.7086 0.1872 0.6803
vn -0.3000 -0.6126 0.7313
vn -0.1984 -0.6639 0.7210
vn -0.1745 -0.6894 0.7030
vn -0.2541 -0.6806 0.6872
vn 0.6457 0.3351 0.6861
vn -0.3850 -0.6199 0.6838
vn 0.5577 0.4785 0.6782
vn -0.4962 -0.5301 0.6876
vn 0.4091 0.6113 0.6775
vn -0.6113 -0.4094 0.6772
vn -0.7085 -0.2125 0.6730
vn 0.2620 0.6756 0.6891
vn 0.1811 0.6908 0.7000
vn -0.7323 -0.0076 0.6809
vn 0.1770 0.6772 0.7142
vn 0.2592 0.6313 0.7310
vn 0.4222 0.4981 0.7574
vn 0.5892 0.2676 0.7623
vn 0.6608 0.0084 0.7505
vn -0.7128 0.1690 0.6807
vn 0.6241 -0.2244 0.7484
vn 0.4980 -0.4303 0.7529
vn -0.6501 0.3392 0.6799
vn 0.3134 -0.5849 0.7481
vn 0.1339 -0.6648 0.7349
vn 0.0932 -0.7161 0.6918
vn -0.0814 -0.7159 0.6934
vn 0.0031 -0.7192 0.6948
vn -0.1803 -0.7007 0.6903
vn 0.2019 -0.6962 0.6889
vn -0.6526 -0.4670 0.5966
vn 0.3236 -0.6514 0.6863
vn 0.4466 -0.5760 0.6847
vn 0.1290 0.6733 0.7281
vn 0.2444 0.6423 0.7264
vn 0.3492 0.5912 0.7270
vn -0.5774 0.5774 0.5774
vn 0.2331 0.7282 0.6445
usemtl material_0_0.001
s 1
f 1//1 3//2 2//3
f 2//3 4//4 1//1
f 4//4 5//5 1//1
f 5//5 6//6 1//1
f 6//6 7//7 1//1
f 7//7 8//8 1//1
f 8//8 9//9 1//1
f 9//9 10//10 1//1
f 10//10 11//11 1//1
f 10//10 12//12 11//11
f 12//12 13//13 11//11
f 12//12 14//14 13//13
f 14//14 15//15 13//13
f 14//14 16//16 15//15
f 17//17 19//18 18//19
f 18//19 20//20 17//17
f 20//20 21//21 17//17
f 21//21 22//22 17//17
f 21//21 23//23 22//22
f 23//23 24//24 22//22
f 24//24 25//25 22//22
f 25//25 26//26 22//22
f 25//25 27//27 26//26
f 27//27 28//28 26//26
f 28//28 29//29 26//26
f 28//28 30//30 29//29
f 30//30 31//31 29//29
f 31//31 32//32 29//29
f 32//32 33//33 29//29
f 33//33 34//34 29//29
f 33//33 35//35 34//34
f 35//35 36//36 34//34
f 35//35 37//37 36//36
f 37//37 38//38 36//36
f 37//37 39//39 38//38
f 39//39 40//40 38//38
f 40//40 41//41 38//38
f 40//40 42//42 41//41
f 40//40 43//43 42//42
f 43//43 44//44 42//42
f 43//43 45//45 44//44
f 43//43 46//46 45//45
f 43//43 47//47 46//46
f 43//43 48//48 47//47
f 43//43 49//49 48//48
f 49//49 50//50 48//48
f 49//49 51//51 50//50
f 49//49 52//52 51//51
f 52//52 53//53 51//51
f 52//52 54//54 53//53
f 52//52 8//8 54//54
f 8//8 7//7 54//54
f 55//55 57//56 56//57
f 56//57 58//58 55//55
f 58//58 59//59 55//55
f 58//58 60//60 59//59
f 60//60 61//61 59//59
f 60//60 62//62 61//61
f 60//60 63//63 62//62
f 60//60 64//64 63//63
f 60//60 65//65 64//64
f 60//60 66//66 65//65
f 63//63 19//18 62//62
f 63//63 18//19 19//18
f 66//66 67//67 65//65
f 68//67 69//65 70//66
f 71//68 72//18 73//63
f 72//18 74//62 73//63
f 70//66 69//65 75//60
f 69//65 76//64 75//60
f 76//64 73//63 75//60
f 73//63 74//62 75//60
f 74//62 77//61 75//60
f 77//61 78//59 75//60
f 75//60 78//59 79//58
f 78//59 80//55 79//58
f 79//58 80//55 81//57
f 82//56 81//57 80//55
f 83//7 84//54 85//8
f 85//8 84//54 86//52
f 84//54 87//53 86//52
f 87//53 88//51 86//52
f 86//52 88//51 89//49
f 88//51 90//50 89//49
f 90//50 91//48 89//49
f 89//49 91//48 92//43
f 91//48 93//47 92//43
f 93//47 94//69 92//43
f 94//69 95//45 92//43
f 95//45 96//44 92//43
f 96//44 97//42 92//43
f 92//43 97//42 98//40
f 97//42 99//41 98//40
f 99//41 100//38 98//40
f 98//40 100//38 101//39
f 101//39 100//38 102//37
f 100//38 103//36 102//37
f 102//37 103//36 104//35
f 103//36 105//34 104//35
f 104//35 105//34 106//33
f 105//34 107//29 106//33
f 106//33 107//29 108//32
f 108//32 107//29 109//31
f 109//31 107//29 110//30
f 110//30 107//29 111//28
f 107//29 112//26 111//28
f 111//28 112//26 113//27
f 113//27 112//26 114//25
f 112//26 115//22 114//25
f 114//25 115//22 116//24
f 116//24 115//22 117//23
f 117//23 115//22 118//21
f 115//22 119//17 118//21
f 118//21 119//17 120//70
f 120//70 119//17 71//68
f 72//18 71//68 119//17
f 121//16 122//71 123//14
f 122//71 124//13 123//14
f 123//14 124//13 125//12
f 124//13 126//11 125//12
f 125//12 126//11 127//10
f 126//11 128//1 127//10
f 127//10 128//1 129//9
f 129//9 128//1 85//8
f 85//8 128//1 83//7
f 83//7 128//1 130//6
f 130//6 128//1 131//5
f 131//5 128//1 132//4
f 132//4 128//1 133//3
f 134//2 133//3 128//1
f 135//72 136//73 137//74
f 136//73 135//72 138//75
f 138//75 135//72 139//76
f 139//76 135//72 140//77
f 140//77 135//72 141//78
f 141//78 135//72 142//79
f 142//79 135//72 143//80
f 143//80 135//72 144//81
f 144//81 135//72 145//82
f 144//81 145//82 146//83
f 146//83 145//82 147//84
f 146//83 147//84 148//85
f 148//85 147//84 149//86
f 148//85 149//86 150//87
f 151//88 152//89 153//90
f 152//89 151//88 154//91
f 154//91 151//88 155//92
f 155//92 151//88 156//93
f 155//92 156//93 157//94
f 157//94 156//93 158//95
f 158//95 156//93 159//96
f 159//96 156//93 160//97
f 159//96 160//97 161//98
f 161//98 160//97 162//99
f 162//99 160//97 163//100
f 162//99 163//100 164//101
f 164//101 163//100 165//102
f 165//102 163//100 166//103
f 166//103 163//100 167//104
f 167//104 163//100 168//105
f 167//104 168//105 169//106
f 169//106 168//105 170//107
f 169//106 170//107 171//108
f 171//108 170//107 172//109
f 171//108 172//109 173//110
f 173//110 172//109 174//111
f 174//111 172//109 175//112
f 174//111 175//112 176//113
f 174//111 176//113 177//114
f 177//114 176//113 178//115
f 177//114 178//115 179//116
f 177//114 179//116 180//117
f 177//114 180//117 181//118
f 177//114 181//118 182//119
f 177//114 182//119 183//120
f 183//120 182//119 184//121
f 183//120 184//121 185//122
f 183//120 185//122 186//123
f 186//123 185//122 187//124
f 186//123 187//124 188//125
f 186//123 188//125 142//79
f 142//79 188//125 141//78
f 189//126 190//127 191//128
f 190//127 189//126 192//129
f 192//129 189//126 193//130
f 192//129 193//130 194//131
f 194//131 193//130 195//132
f 194//131 195//132 196//133
f 194//131 196//133 197//134
f 194//131 197//134 198//135
f 194//131 198//135 199//136
f 194//131 199//136 200//137
f 197//134 196//133 153//90
f 197//134 153//90 152//89
f 200//137 199//136 201//138
f 202//138 204//137 203//136
f 205//89 207//134 206//90
f 206//90 207//134 208//133
f 204//137 209//131 203//136
f 203//136 209//131 210//135
f 210//135 209//131 207//134
f 207//134 209//131 208//133
f 208//133 209//131 211//132
f 211//132 209//131 212//130
f 209//131 213//129 212//130
f 212//130 213//129 214//126
f 213//129 215//127 214//126
f 216//128 214//126 215//127
f 217//78 219//79 218//125
f 219//79 220//123 218//125
f 218//125 220//123 221//124
f 221//124 220//123 222//122
f 220//123 223//120 222//122
f 222//122 223//120 224//121
f 224//121 223//120 225//119
f 223//120 226//114 225//119
f 225//119 226//114 227//118
f 227//118 226//114 228//117
f 228//117 226//114 229//116
f 229//116 226//114 230//115
f 230//115 226//114 231//113
f 226//114 232//111 231//113
f 231//113 232//111 233//112
f 233//112 232//111 234//109
f 232//111 235//110 234//109
f 235//110 236//108 234//109
f 234//109 236//108 237//107
f 236//108 238//106 237//107
f 237//107 238//106 239//105
f 238//106 240//104 239//105
f 239//105 240//104 241//100
f 240//104 242//103 241//100
f 242//103 243//102 241//100
f 243//102 244//101 241//100
f 244//101 245//99 241//100
f 241//100 245//99 246//97
f 245//99 247//98 246//97
f 247//98 248//96 246//97
f 246//97 248//96 249//93
f 248//96 250//95 249//93
f 250//95 251//94 249//93
f 251//94 252//92 249//93
f 249//93 252//92 253//88
f 252//92 254//91 253//88
f 254//91 205//89 253//88
f 206//90 253//88 205//89
f 255//87 257//85 256//86
f 256//86 257//85 258//84
f 257//85 259//83 258//84
f 258//84 259//83 260//82
f 259//83 261//81 260//82
f 260//82 261//81 262//72
f 261//81 263//80 262//72
f 263//80 219//79 262//72
f 219//79 217//78 262//72
f 217//78 264//77 262//72
f 264//77 265//76 262//72
f 265//76 266//75 262//72
f 266//75 267//73 262//72
f 268//74 262//72 267//73
f 105//34 103//36 237//107 239//105
f 42//42 44//44 178//115 176//113
f 80//55 78//59 212//130 214//126
f 86//52 89//49 223//120 220//123
f 78//59 77//61 211//132 212//130
f 41//41 42//42 176//113 175//112
f 134//2 128//1 262//72 268//74
f 12//12 10//10 144//81 146//83
f 45//45 46//46 180//117 179//116
f 104//35 106//33 240//104 238//106
f 16//16 14//14 148//85 150//87
f 10//10 9//9 143//80 144//81
f 64//64 65//65 199//136 198//135
f 112//26 107//29 241//100 246//97
f 23//23 21//21 155//92 157//94
f 82//56 80//55 214//126 216//128
f 34//34 36//36 170//107 168//105
f 123//14 125//12 259//83 257//85
f 25//25 24//24 158//95 159//96
f 75//60 79//58 213//129 209//131
f 6//6 5//5 139//76 140//77
f 21//21 20//20 154//91 155//92
f 19//18 17//17 151//88 153//90
f 77//61 74//62 208//133 211//132
f 4//4 2//3 136//73 138//75
f 53//53 54//54 188//125 187//124
f 127//10 129//9 263//80 261//81
f 26//26 29//29 163//100 160//97
f 49//49 43//43 177//114 183//120
f 27//27 25//25 159//96 161//98
f 60//60 58//58 192//129 194//131
f 43//43 40//40 174//111 177//114
f 33//33 32//32 166//103 167//104
f 72//18 119//17 253//88 206//90
f 90//50 88//51 222//122 224//121
f 88//51 87//53 221//124 222//122
f 46//46 47//47 181//118 180//117
f 84//54 83//7 217//78 218//125
f 69//65 68//67 202//138 203//136
f 132//4 133//3 267//73 266//75
f 83//7 130//6 264//77 217//78
f 22//22 26//26 160//97 156//93
f 61//61 62//62 196//133 195//132
f 48//48 50//50 184//121 182//119
f 13//13 15//15 149//86 147//84
f 100//38 99//41 233//112 234//109
f 1//1 11//11 145//82 135//72
f 89//49 92//43 226//114 223//120
f 37//37 35//35 169//106 171//108
f 74//62 72//18 206//90 208//133
f 65//65 67//67 201//138 199//136
f 24//24 23//23 157//94 158//95
f 129//9 85//8 219//79 263//80
f 9//9 8//8 142//79 143//80
f 107//29 105//34 239//105 241//100
f 96//44 95//45 229//116 230//115
f 30//30 28//28 162//99 164//101
f 126//11 124//13 258//84 260//82
f 57//56 55//55 189//126 191//128
f 5//5 4//4 138//75 139//76
f 8//8 52//52 186//123 142//79
f 108//32 109//31 243//102 242//103
f 73//63 76//64 210//135 207//134
f 18//19 63//63 197//134 152//89
f 28//28 27//27 161//98 162//99
f 3//2 1//1 135//72 137//74
f 51//51 53//53 187//124 185//122
f 54//54 7//7 141//78 188//125
f 87//53 84//54 218//125 221//124
f 50//50 51//51 185//122 184//121
f 76//64 69//65 203//136 210//135
f 98//40 101//39 235//110 232//111
f 68//67 70//66 204//137 202//138
f 59//59 61//61 195//132 193//130
f 14//14 12//12 146//83 148//85
f 32//32 31//31 165//102 166//103
f 29//29 34//34 168//105 163//100
f 119//17 115//22 249//93 253//88
f 99//41 97//42 231//113 233//112
f 97//42 96//44 230//115 231//113
f 131//5 132//4 266//75 265//76
f 47//47 48//48 182//119 181//118
f 116//24 117//23 251//94 250//95
f 93//47 91//48 225//119 227//118
f 36//36 38//38 172//109 170//107
f 58//58 56//57 190//127 192//129
f 15//15 16//16 150//87 149//86
f 40//40 39//39 173//110 174//111
f 95//45 94//69 228//117 229//116
f 91//48 90//50 224//121 225//119
f 106//33 108//32 242//103 240//104
f 62//62 19//18 153//90 196//133
f 121//16 123//14 257//85 255//87
f 109//31 110//30 244//101 243//102
f 102//37 104//35 238//106 236//108
f 70//66 75//60 209//131 204//137
f 125//12 127//10 261//81 259//83
f 101//39 102//37 236//108 235//110
f 52//52 49//49 183//120 186//123
f 31//31 30//30 164//101 165//102
f 79//58 81//57 215//127 213//129
f 44//44 45//45 179//116 178//115
f 11//11 13//13 147//84 145//82
f 118//21 120//70 254//91 252//92
f 130//6 131//5 265//76 264//77
f 85//8 86//52 220//123 219//79
f 71//68 73//63 207//134 205//89
f 38//38 41//41 175//112 172//109
f 117//23 118//21 252//92 251//94
f 39//39 37//37 171//108 173//110
f 66//66 60//60 194//131 200//137
f 63//63 64//64 198//135 197//134
f 81//57 82//56 216//128 215//127
f 55//55 59//59 193//130 189//126
f 7//7 6//6 140//77 141//78
f 17//17 22//22 156//93 151//88
f 120//70 71//68 205//89 254//91
f 67//67 66//66 200//137 201//138
f 114//25 116//24 250//95 248//96
f 113//27 114//25 248//96 247//98
f 35//35 33//33 167//104 169//106
f 115//22 112//26 246//97 249//93
f 110//30 111//28 245//99 244//101
f 20//20 18//19 152//89 154//91
f 128//1 126//11 260//82 262//72
f 111//28 113//27 247//98 245//99
f 94//69 93//47 227//118 228//117
f 103//36 100//38 234//109 237//107
f 133//3 134//2 268//74 267//73
f 124//13 122//71 256//86 258//84
f 122//71 121//16 255//87 256//86
f 92//43 98//40 232//111 226//114
f 2//3 3//2 137//74 136//73
f 56//57 57//56 191//128 190//127
