mtllib material.mtl
usemtl material_1_0
v 0.12910800 0.42035000 0.16013200
v 0.12910800 0.42035000 0.17862100
v 0.13031500 0.42050800 0.16937700
v 0.12557000 0.41988400 0.15151700
v 0.12557000 0.41988400 0.18723600
v 0.11994300 0.41914300 0.14412000
v 0.11994300 0.41914300 0.19463300
v 0.11260800 0.41817700 0.20031000
v 0.11260800 0.41817700 0.13844300
v 0.10406700 0.41705300 0.13487500
v 0.10406700 0.41705300 0.20387800
v 0.09490200 0.41584600 0.13365800
v 0.09490200 0.41584600 0.20509500
v 0.08573600 0.41463900 0.13487500
v 0.08573600 0.41463900 0.20387800
v 0.07719500 0.41351500 0.20031000
v 0.07719500 0.41351500 0.13844300
v 0.06986100 0.41254900 0.19463300
v 0.06986100 0.41254900 0.14412000
v 0.06423300 0.41180900 0.15151700
v 0.06423300 0.41180900 0.18723600
v 0.06069500 0.41134300 0.17862100
v 0.06069500 0.41134300 0.16013200
v 0.05948900 0.41118400 0.16937700
v 0.11295700 0.41553300 0.20031000
v 0.10441600 0.41440900 0.20387800
v 0.12029100 0.41649900 0.19463300
v 0.12591900 0.41723900 0.18723600
v 0.12945700 0.41770500 0.17862100
v 0.13066300 0.41786400 0.16937700
v 0.12945700 0.41770500 0.16013200
v 0.12591900 0.41723900 0.15151700
v 0.12029100 0.41649900 0.14412000
v 0.11295700 0.41553300 0.13844300
v 0.10441600 0.41440900 0.13487500
v 0.09525000 0.41320200 0.13365800
v 0.08608400 0.41199500 0.13487500
v 0.07754300 0.41087100 0.13844300
v 0.07020900 0.40990500 0.14412000
v 0.06458100 0.40916400 0.15151700
v 0.06104400 0.40869800 0.16013200
v 0.05983700 0.40854000 0.16937700
v 0.06104400 0.40869800 0.17862100
v 0.06458100 0.40916400 0.18723600
v 0.07020900 0.40990500 0.19463300
v 0.07754300 0.41087100 0.20031000
v 0.08608400 0.41199500 0.20387800
v 0.09525000 0.41320200 0.20509500
vn 0.61455682 0.76564032 -0.19003900
vn 0.61455682 0.76564032 0.19003900
vn 0.63936188 0.76890597 0.00000000
vn 0.54183202 0.75606592 -0.36712721
vn 0.54183202 0.75606592 0.36712721
vn 0.42614358 0.74083526 -0.51919627
vn 0.42614358 0.74083526 0.51919627
vn 0.27537549 0.72098626 0.63588297
vn 0.27537549 0.72098626 -0.63588297
vn 0.09980232 0.69787161 -0.70923531
vn 0.09980232 0.69787161 0.70923531
vn -0.08861089 0.67306652 -0.73425443
vn -0.08861089 0.67306652 0.73425443
vn -0.27702410 0.64826149 -0.70923529
vn -0.27702410 0.64826149 0.70923529
vn -0.45259729 0.62514679 0.63588299
vn -0.45259729 0.62514679 -0.63588299
vn -0.60336539 0.60529779 0.51919629
vn -0.60336539 0.60529779 -0.51919629
vn -0.71905378 0.59006719 -0.36712719
vn -0.71905378 0.59006719 0.36712719
vn -0.79177857 0.58049278 0.19003899
vn -0.79177857 0.58049278 -0.19003899
vn -0.81658367 0.57722708 0.00000000
vn 0.49572241 0.06526310 0.86602542
vn 0.25660481 0.03378266 0.96592583
vn 0.70105738 0.09229596 0.70710678
vn 0.85861643 0.11303900 0.50000002
vn 0.95766221 0.12607860 0.25881900
vn 0.99144486 0.13052619 0.00000000
vn 0.95766221 0.12607860 -0.25881900
vn 0.85861643 0.11303900 -0.50000002
vn 0.70105738 0.09229596 -0.70710678
vn 0.49572241 0.06526310 -0.86602542
vn 0.25660481 0.03378266 -0.96592583
vn 0.00000000 0.00000000 -1.00000000
vn -0.25660481 -0.03378266 -0.96592583
vn -0.49572241 -0.06526310 -0.86602542
vn -0.70105738 -0.09229596 -0.70710678
vn -0.85861643 -0.11303900 -0.50000002
vn -0.95766221 -0.12607860 -0.25881900
vn -0.99144486 -0.13052619 0.00000000
vn -0.95766221 -0.12607860 0.25881900
vn -0.85861643 -0.11303900 0.50000002
vn -0.70105738 -0.09229596 0.70710678
vn -0.49572241 -0.06526310 0.86602542
vn -0.25660481 -0.03378266 0.96592583
vn 0.00000000 0.00000000 1.00000000
f 1//1 2//2 3//3
f 2//2 1//1 4//4
f 2//2 4//4 5//5
f 5//5 4//4 6//6
f 5//5 6//6 7//7
f 7//7 6//6 8//8
f 8//8 6//6 9//9
f 8//8 9//9 10//10
f 8//8 10//10 11//11
f 11//11 10//10 12//12
f 11//11 12//12 13//13
f 13//13 12//12 14//14
f 13//13 14//14 15//15
f 15//15 14//14 16//16
f 16//16 14//14 17//17
f 16//16 17//17 18//18
f 18//18 17//17 19//19
f 18//18 19//19 20//20
f 18//18 20//20 21//21
f 21//21 20//20 22//22
f 22//22 20//20 23//23
f 22//22 23//23 24//24
f 25//25 11//11 26//26
f 11//11 25//25 8//8
f 27//27 8//8 25//25
f 8//8 27//27 7//7
f 7//7 28//28 5//5
f 28//28 7//7 27//27
f 5//5 29//29 2//2
f 29//29 5//5 28//28
f 2//2 30//30 3//3
f 30//30 2//2 29//29
f 3//3 31//31 1//1
f 31//31 3//3 30//30
f 1//1 32//32 4//4
f 32//32 1//1 31//31
f 4//4 33//33 6//6
f 33//33 4//4 32//32
f 9//9 33//33 34//34
f 33//33 9//9 6//6
f 10//10 34//34 35//35
f 34//34 10//10 9//9
f 12//12 35//35 36//36
f 35//35 12//12 10//10
f 14//14 36//36 37//37
f 36//36 14//14 12//12
f 17//17 37//37 38//38
f 37//37 17//17 14//14
f 19//19 38//38 39//39
f 38//38 19//19 17//17
f 40//40 19//19 39//39
f 19//19 40//40 20//20
f 41//41 20//20 40//40
f 20//20 41//41 23//23
f 42//42 23//23 41//41
f 23//23 42//42 24//24
f 43//43 24//24 42//42
f 24//24 43//43 22//22
f 44//44 22//22 43//43
f 22//22 44//44 21//21
f 45//45 21//21 44//44
f 21//21 45//45 18//18
f 46//46 18//18 45//45
f 18//18 46//46 16//16
f 47//47 16//16 46//46
f 16//16 47//47 15//15
f 48//48 15//15 47//47
f 15//15 48//48 13//13
f 26//26 13//13 48//48
f 13//13 26//26 11//11

