# Blender v2.79 (sub 0) OBJ File: ''
# www.blender.org
mtllib original-110_1.mtl
o original-110_1
v -0.032773 -0.321856 -0.457410
v -0.032773 -0.353455 -0.457410
v -0.025515 -0.321856 -0.457410
v -0.025515 -0.339958 -0.457410
v -0.025133 -0.353455 -0.457410
v -0.015435 -0.321856 -0.457410
v -0.012952 -0.331427 -0.457410
v -0.005694 -0.321856 -0.457410
v -0.012952 -0.353455 -0.457410
v -0.005694 -0.353455 -0.457410
v -0.032773 -0.321856 -0.456410
v -0.032773 -0.353455 -0.456410
v -0.025515 -0.321856 -0.456410
v -0.025515 -0.339958 -0.456410
v -0.025133 -0.353455 -0.456410
v -0.015435 -0.321856 -0.456410
v -0.012952 -0.331427 -0.456410
v -0.005694 -0.321856 -0.456410
v -0.012952 -0.353455 -0.456410
v -0.005694 -0.353455 -0.456410
vn -0.5774 0.5774 -0.5773
vn 0.5774 0.5774 -0.5774
vn -0.5774 -0.5773 -0.5774
vn 0.0340 0.1311 -0.9908
vn 0.4030 -0.6834 -0.6087
vn -0.4019 0.6839 -0.6089
vn -0.0336 -0.1304 -0.9909
vn -0.5774 -0.5774 -0.5774
vn 0.5774 -0.5774 -0.5774
vn -0.5774 0.5774 0.5774
vn -0.5774 -0.5774 0.5773
vn 0.5774 0.5774 0.5774
vn 0.0340 0.1311 0.9908
vn 0.4030 -0.6834 0.6087
vn -0.4019 0.6839 0.6089
vn -0.0336 -0.1304 0.9909
vn 0.5774 0.5773 0.5773
vn -0.5773 -0.5774 0.5774
vn 0.5774 -0.5774 0.5773
usemtl material_0_0.005
s 1
f 1//1 3//2 2//3
f 3//2 4//4 2//3
f 2//3 4//4 5//5
f 4//4 6//6 5//5
f 5//5 6//6 7//7
f 6//6 8//2 7//7
f 7//7 8//2 9//8
f 10//9 9//8 8//2
f 11//10 12//11 13//12
f 13//12 12//11 14//13
f 12//11 15//14 14//13
f 14//13 15//14 16//15
f 15//14 17//16 16//15
f 16//15 17//16 18//17
f 17//16 19//18 18//17
f 20//19 18//17 19//18
f 6//6 4//4 14//13 16//15
f 4//4 3//2 13//12 14//13
f 8//2 6//6 16//15 18//17
f 5//5 7//7 17//16 15//14
f 2//3 5//5 15//14 12//11
f 9//8 10//9 20//19 19//18
f 3//2 1//1 11//10 13//12
f 7//7 9//8 19//18 17//16
f 1//1 2//3 12//11 11//10
f 10//9 8//2 18//17 20//19
