# Blender v2.79 (sub 0) OBJ File: ''
# www.blender.org
mtllib original-110_0.mtl
o original-110_0
v -0.012952 -0.353455 -0.457410
v -0.005694 -0.321856 -0.457410
v -0.005694 -0.353455 -0.457410
v -0.012952 -0.331427 -0.457410
v -0.015435 -0.321856 -0.457410
v -0.025133 -0.353455 -0.457410
v -0.025515 -0.339958 -0.457410
v -0.032773 -0.353455 -0.457410
v -0.025515 -0.321856 -0.457410
v -0.032773 -0.321856 -0.457410
v -0.012952 -0.353455 -0.456410
v -0.005694 -0.321856 -0.456410
v -0.005694 -0.353455 -0.456410
v -0.012952 -0.331427 -0.456410
v -0.015435 -0.321856 -0.456410
v -0.025133 -0.353455 -0.456410
v -0.025515 -0.339958 -0.456410
v -0.032773 -0.353455 -0.456410
v -0.025515 -0.321856 -0.456410
v -0.032773 -0.321856 -0.456410
vn -0.5774 -0.5774 -0.5774
vn 0.5774 0.5774 -0.5774
vn 0.5774 -0.5774 -0.5774
vn -0.0336 -0.1304 -0.9909
vn -0.4019 0.6839 -0.6089
vn 0.4030 -0.6834 -0.6087
vn 0.0340 0.1311 -0.9908
vn -0.5774 0.5774 -0.5774
vn -0.5773 -0.5774 0.5774
vn 0.5774 -0.5774 0.5773
vn 0.5774 0.5773 0.5773
vn -0.0336 -0.1304 0.9909
vn -0.4019 0.6839 0.6089
vn 0.4030 -0.6834 0.6087
vn 0.0340 0.1311 0.9908
vn -0.5774 -0.5774 0.5773
vn 0.5774 0.5774 0.5774
vn -0.5774 0.5774 0.5774
usemtl material_1_0.004
s 1
f 1//1 2//2 3//3
f 2//2 1//1 4//4
f 2//2 4//4 5//5
f 5//5 4//4 6//6
f 5//5 6//6 7//7
f 7//7 6//6 8//1
f 7//7 8//1 9//2
f 9//2 8//1 10//8
f 11//9 13//10 12//11
f 12//11 14//12 11//9
f 12//11 15//13 14//12
f 15//13 16//14 14//12
f 15//13 17//15 16//14
f 17//15 18//16 16//14
f 17//15 19//17 18//16
f 19//17 20//18 18//16
f 6//6 4//4 14//12 16//14
f 8//1 6//6 16//14 18//16
f 4//4 1//1 11//9 14//12
f 5//5 7//7 17//15 15//13
f 2//2 5//5 15//13 12//11
f 3//3 2//2 12//11 13//10
f 9//2 10//8 20//18 19//17
f 1//1 3//3 13//10 11//9
f 7//7 9//2 19//17 17//15
f 10//8 8//1 18//16 20//18
