mtllib material.mtl
usemtl material_0_0
v 0.74737800 0.39587700 0.49709100
v 0.74737800 0.27942800 -0.53430900
v 0.74737800 0.39587700 -0.53430900
v 0.74737800 0.27942800 0.49709100
v 0.74737800 0.27942800 0.49709100
v 0.74737800 0.39587700 0.49709100
v 0.74737800 0.27942800 -0.53430900
v 0.74737800 0.39587700 -0.53430900
v 0.74737800 0.27942800 0.49709100
v 0.71410700 0.27942800 0.46382000
v 0.74737800 0.27942800 -0.53430900
v -0.81635900 0.27942800 0.49709100
v -0.78308800 0.27942800 0.46382000
v -0.78308800 0.27942800 -0.50103800
v 0.71410700 0.27942800 -0.50103800
v -0.81635900 0.27942800 -0.53430900
v -0.81635900 0.27942800 0.49709100
v -0.78308800 0.27942800 -0.50103800
v -0.81635900 0.27942800 -0.53430900
v 0.71410700 0.27942800 -0.50103800
v 0.71410700 0.27942800 0.46382000
v 0.74737800 0.27942800 -0.53430900
v -0.78308800 0.27942800 0.46382000
v 0.74737800 0.27942800 0.49709100
v -0.81635900 0.27942800 -0.53430900
v 0.74737800 0.39587700 -0.53430900
v 0.74737800 0.27942800 -0.53430900
v -0.81635900 0.39587700 -0.53430900
v -0.81635900 0.39587700 -0.53430900
v -0.81635900 0.27942800 -0.53430900
v 0.74737800 0.39587700 -0.53430900
v 0.74737800 0.27942800 -0.53430900
v 0.74737800 0.39587700 -0.53430900
v 0.71410700 0.39587700 -0.50103800
v 0.71410700 0.39587700 0.46382000
v -0.81635900 0.39587700 -0.53430900
v -0.78308800 0.39587700 -0.50103800
v -0.81635900 0.39587700 0.49709100
v 0.74737800 0.39587700 0.49709100
v -0.78308800 0.39587700 0.46382000
v -0.78308800 0.39587700 -0.50103800
v -0.78308800 0.39587700 0.46382000
v -0.81635900 0.39587700 0.49709100
v 0.71410700 0.39587700 0.46382000
v 0.74737800 0.39587700 -0.53430900
v 0.74737800 0.39587700 0.49709100
v -0.81635900 0.39587700 -0.53430900
v 0.71410700 0.39587700 -0.50103800
v 0.74737800 0.39587700 0.49709100
v -0.81635900 0.27942800 0.49709100
v 0.74737800 0.27942800 0.49709100
v -0.81635900 0.39587700 0.49709100
v -0.81635900 0.39587700 0.49709100
v 0.74737800 0.39587700 0.49709100
v -0.81635900 0.27942800 0.49709100
v 0.74737800 0.27942800 0.49709100
v -0.81635900 0.27942800 -0.53430900
v -0.81635900 0.39587700 0.49709100
v -0.81635900 0.39587700 -0.53430900
v -0.81635900 0.27942800 0.49709100
v -0.81635900 0.27942800 0.49709100
v -0.81635900 0.27942800 -0.53430900
v -0.81635900 0.39587700 0.49709100
v -0.81635900 0.39587700 -0.53430900
vn 1.00000000 0.00000000 0.00000000
vn 1.00000000 0.00000000 0.00000000
vn 1.00000000 0.00000000 0.00000000
vn 1.00000000 0.00000000 0.00000000
vn -1.00000000 0.00000000 0.00000000
vn -1.00000000 0.00000000 0.00000000
vn -1.00000000 0.00000000 0.00000000
vn -1.00000000 0.00000000 0.00000000
vn 0.00000000 -1.00000000 0.00000000
vn 0.00000000 -1.00000000 0.00000000
vn 0.00000000 -1.00000000 0.00000000
vn 0.00000000 -1.00000000 0.00000000
vn 0.00000000 -1.00000000 0.00000000
vn 0.00000000 -1.00000000 0.00000000
vn 0.00000000 -1.00000000 0.00000000
vn 0.00000000 -1.00000000 0.00000000
vn 0.00000000 1.00000000 0.00000000
vn 0.00000000 1.00000000 0.00000000
vn 0.00000000 1.00000000 0.00000000
vn 0.00000000 1.00000000 0.00000000
vn 0.00000000 1.00000000 0.00000000
vn 0.00000000 1.00000000 0.00000000
vn 0.00000000 1.00000000 0.00000000
vn 0.00000000 1.00000000 0.00000000
vn 0.00000000 0.00000000 -1.00000000
vn 0.00000000 0.00000000 -1.00000000
vn 0.00000000 0.00000000 -1.00000000
vn 0.00000000 0.00000000 -1.00000000
vn 0.00000000 0.00000000 1.00000000
vn 0.00000000 0.00000000 1.00000000
vn 0.00000000 0.00000000 1.00000000
vn 0.00000000 0.00000000 1.00000000
vn 0.00000000 1.00000000 0.00000000
vn 0.00000000 1.00000000 0.00000000
vn 0.00000000 1.00000000 0.00000000
vn 0.00000000 1.00000000 0.00000000
vn 0.00000000 1.00000000 0.00000000
vn 0.00000000 1.00000000 0.00000000
vn 0.00000000 1.00000000 0.00000000
vn 0.00000000 1.00000000 0.00000000
vn 0.00000000 -1.00000000 0.00000000
vn 0.00000000 -1.00000000 0.00000000
vn 0.00000000 -1.00000000 0.00000000
vn 0.00000000 -1.00000000 0.00000000
vn 0.00000000 -1.00000000 0.00000000
vn 0.00000000 -1.00000000 0.00000000
vn 0.00000000 -1.00000000 0.00000000
vn 0.00000000 -1.00000000 0.00000000
vn 0.00000000 0.00000000 1.00000000
vn 0.00000000 0.00000000 1.00000000
vn 0.00000000 0.00000000 1.00000000
vn 0.00000000 0.00000000 1.00000000
vn 0.00000000 0.00000000 -1.00000000
vn 0.00000000 0.00000000 -1.00000000
vn 0.00000000 0.00000000 -1.00000000
vn 0.00000000 0.00000000 -1.00000000
vn -1.00000000 0.00000000 0.00000000
vn -1.00000000 0.00000000 0.00000000
vn -1.00000000 0.00000000 0.00000000
vn -1.00000000 0.00000000 0.00000000
vn 1.00000000 0.00000000 0.00000000
vn 1.00000000 0.00000000 0.00000000
vn 1.00000000 0.00000000 0.00000000
vn 1.00000000 0.00000000 0.00000000
f 1//1 2//2 3//3
f 2//2 1//1 4//4
f 5//5 6//6 7//7
f 8//8 7//7 6//6
f 9//9 10//10 11//11
f 10//10 9//9 12//12
f 10//10 12//12 13//13
f 13//13 12//12 14//14
f 11//11 15//15 16//16
f 15//15 11//11 10//10
f 16//16 15//15 14//14
f 16//16 14//14 12//12
f 17//17 18//18 19//19
f 18//18 20//20 19//19
f 21//21 22//22 20//20
f 19//19 20//20 22//22
f 18//18 17//17 23//23
f 23//23 17//17 21//21
f 17//17 24//24 21//21
f 22//22 21//21 24//24
f 25//25 26//26 27//27
f 26//26 25//25 28//28
f 29//29 30//30 31//31
f 32//32 31//31 30//30
f 33//33 34//34 35//35
f 34//34 33//33 36//36
f 34//34 36//36 37//37
f 37//37 36//36 38//38
f 39//39 35//35 38//38
f 35//35 39//39 33//33
f 38//38 35//35 40//40
f 38//38 40//40 37//37
f 41//41 42//42 43//43
f 42//42 44//44 43//43
f 45//45 46//46 44//44
f 43//43 44//44 46//46
f 43//43 47//47 41//41
f 41//41 47//47 48//48
f 47//47 45//45 48//48
f 44//44 48//48 45//45
f 49//49 50//50 51//51
f 50//50 49//49 52//52
f 53//53 54//54 55//55
f 56//56 55//55 54//54
f 57//57 58//58 59//59
f 58//58 57//57 60//60
f 61//61 62//62 63//63
f 64//64 63//63 62//62

