mtllib material.mtl
usemtl material_0_0
v -0.82849300 0.43323500 -0.22493800
v -0.82849300 0.43990300 -0.22493800
v -0.82602500 0.43323500 -0.24367900
v -0.82602500 0.43990300 -0.24367900
v -0.82602500 0.43323500 -0.20619700
v -0.82602500 0.43990300 -0.20619700
v -0.82849300 0.43323500 -0.22493800
v -0.82701800 0.43323500 -0.22493800
v -0.82602500 0.43323500 -0.20619700
v -0.82460100 0.43323500 -0.20657800
v -0.81879200 0.43323500 -0.18873300
v -0.81751500 0.43323500 -0.18947000
v -0.80728400 0.43323500 -0.17373600
v -0.80624200 0.43323500 -0.17477900
v -0.79228800 0.43323500 -0.16222900
v -0.79155000 0.43323500 -0.16350600
v -0.77482400 0.43323500 -0.15499500
v -0.77444200 0.43323500 -0.15641900
v -0.75608200 0.43323500 -0.15252800
v -0.75608200 0.43323500 -0.15400200
v -0.73772300 0.43323500 -0.15641900
v -0.73734100 0.43323500 -0.15499500
v -0.72061400 0.43323500 -0.16350600
v -0.71987700 0.43323500 -0.16222900
v -0.70592300 0.43323500 -0.17477900
v -0.70488100 0.43323500 -0.17373600
v -0.69465000 0.43323500 -0.18947000
v -0.69337300 0.43323500 -0.18873300
v -0.68756400 0.43323500 -0.20657800
v -0.68613900 0.43323500 -0.20619700
v -0.68514600 0.43323500 -0.22493800
v -0.68367200 0.43323500 -0.22493800
v -0.82602500 0.43323500 -0.24367900
v -0.82460100 0.43323500 -0.24329800
v -0.81879200 0.43323500 -0.26114300
v -0.81751500 0.43323500 -0.26040600
v -0.80728400 0.43323500 -0.27614000
v -0.80624200 0.43323500 -0.27509700
v -0.79228800 0.43323500 -0.28764700
v -0.79155000 0.43323500 -0.28637000
v -0.77482400 0.43323500 -0.29488100
v -0.77444200 0.43323500 -0.29345700
v -0.75608200 0.43323500 -0.29587400
v -0.75608200 0.43323500 -0.29734800
v -0.73772300 0.43323500 -0.29345700
v -0.73734100 0.43323500 -0.29488100
v -0.72061400 0.43323500 -0.28637000
v -0.71987700 0.43323500 -0.28764700
v -0.70592300 0.43323500 -0.27509700
v -0.70488100 0.43323500 -0.27614000
v -0.69465000 0.43323500 -0.26040600
v -0.69337300 0.43323500 -0.26114300
v -0.68756400 0.43323500 -0.24329800
v -0.68613900 0.43323500 -0.24367900
v -0.81879200 0.43323500 -0.26114300
v -0.81879200 0.43990300 -0.26114300
v -0.81879200 0.43323500 -0.18873300
v -0.81879200 0.43990300 -0.18873300
v -0.80728400 0.43323500 -0.17373600
v -0.80728400 0.43990300 -0.17373600
v -0.79228800 0.43990300 -0.16222900
v -0.79228800 0.43323500 -0.16222900
v -0.77482400 0.43990300 -0.15499500
v -0.77482400 0.43323500 -0.15499500
v -0.75608200 0.43990300 -0.15252800
v -0.75608200 0.43323500 -0.15252800
v -0.73734100 0.43990300 -0.15499500
v -0.73734100 0.43323500 -0.15499500
v -0.71987700 0.43990300 -0.16222900
v -0.71987700 0.43323500 -0.16222900
v -0.70488100 0.43990300 -0.17373600
v -0.70488100 0.43323500 -0.17373600
v -0.69337300 0.43990300 -0.18873300
v -0.69337300 0.43323500 -0.18873300
v -0.68613900 0.43990300 -0.20619700
v -0.68613900 0.43323500 -0.20619700
v -0.68367200 0.43990300 -0.22493800
v -0.68367200 0.43323500 -0.22493800
v -0.68613900 0.43990300 -0.24367900
v -0.68613900 0.43323500 -0.24367900
v -0.69337300 0.43990300 -0.26114300
v -0.69337300 0.43323500 -0.26114300
v -0.70488100 0.43990300 -0.27614000
v -0.70488100 0.43323500 -0.27614000
v -0.71987700 0.43990300 -0.28764700
v -0.71987700 0.43323500 -0.28764700
v -0.73734100 0.43990300 -0.29488100
v -0.73734100 0.43323500 -0.29488100
v -0.75608200 0.43990300 -0.29734800
v -0.75608200 0.43323500 -0.29734800
v -0.77482400 0.43990300 -0.29488100
v -0.77482400 0.43323500 -0.29488100
v -0.79228800 0.43990300 -0.28764700
v -0.79228800 0.43323500 -0.28764700
v -0.80728400 0.43990300 -0.27614000
v -0.80728400 0.43323500 -0.27614000
vn -1.00000000 0.00000000 0.00000000
vn -1.00000000 0.00000000 0.00000000
vn -0.96592584 0.00000000 -0.25881901
vn -0.96592584 0.00000000 -0.25881901
vn -0.96592584 0.00000000 0.25881901
vn -0.96592584 0.00000000 0.25881901
vn 0.00000000 -1.00000000 0.00000000
vn 0.00000000 -1.00000000 0.00000000
vn 0.00000000 -1.00000000 0.00000000
vn 0.00000000 -1.00000000 0.00000000
vn 0.00000000 -1.00000000 0.00000000
vn 0.00000000 -1.00000000 0.00000000
vn 0.00000000 -1.00000000 0.00000000
vn 0.00000000 -1.00000000 0.00000000
vn 0.00000000 -1.00000000 0.00000000
vn 0.00000000 -1.00000000 0.00000000
vn 0.00000000 -1.00000000 0.00000000
vn 0.00000000 -1.00000000 0.00000000
vn 0.00000000 -1.00000000 0.00000000
vn 0.00000000 -1.00000000 0.00000000
vn 0.00000000 -1.00000000 0.00000000
vn 0.00000000 -1.00000000 0.00000000
vn 0.00000000 -1.00000000 0.00000000
vn 0.00000000 -1.00000000 0.00000000
vn 0.00000000 -1.00000000 0.00000000
vn 0.00000000 -1.00000000 0.00000000
vn 0.00000000 -1.00000000 0.00000000
vn 0.00000000 -1.00000000 0.00000000
vn 0.00000000 -1.00000000 0.00000000
vn 0.00000000 -1.00000000 0.00000000
vn 0.00000000 -1.00000000 0.00000000
vn 0.00000000 -1.00000000 0.00000000
vn 0.00000000 -1.00000000 0.00000000
vn 0.00000000 -1.00000000 0.00000000
vn 0.00000000 -1.00000000 0.00000000
vn 0.00000000 -1.00000000 0.00000000
vn 0.00000000 -1.00000000 0.00000000
vn 0.00000000 -1.00000000 0.00000000
vn 0.00000000 -1.00000000 0.00000000
vn 0.00000000 -1.00000000 0.00000000
vn 0.00000000 -1.00000000 0.00000000
vn 0.00000000 -1.00000000 0.00000000
vn 0.00000000 -1.00000000 0.00000000
vn 0.00000000 -1.00000000 0.00000000
vn 0.00000000 -1.00000000 0.00000000
vn 0.00000000 -1.00000000 0.00000000
vn 0.00000000 -1.00000000 0.00000000
vn 0.00000000 -1.00000000 0.00000000
vn 0.00000000 -1.00000000 0.00000000
vn 0.00000000 -1.00000000 0.00000000
vn 0.00000000 -1.00000000 0.00000000
vn 0.00000000 -1.00000000 0.00000000
vn 0.00000000 -1.00000000 0.00000000
vn 0.00000000 -1.00000000 0.00000000
vn -0.86602540 0.00000000 -0.50000000
vn -0.86602540 0.00000000 -0.50000000
vn -0.86602540 0.00000000 0.50000000
vn -0.86602540 0.00000000 0.50000000
vn -0.70710678 0.00000000 0.70710678
vn -0.70710678 0.00000000 0.70710678
vn -0.50000000 0.00000000 0.86602540
vn -0.50000000 0.00000000 0.86602540
vn -0.25881901 0.00000000 0.96592584
vn -0.25881901 0.00000000 0.96592584
vn 0.00000000 0.00000000 1.00000000
vn 0.00000000 0.00000000 1.00000000
vn 0.25881901 0.00000000 0.96592584
vn 0.25881901 0.00000000 0.96592584
vn 0.50000000 0.00000000 0.86602540
vn 0.50000000 0.00000000 0.86602540
vn 0.70710678 0.00000000 0.70710678
vn 0.70710678 0.00000000 0.70710678
vn 0.86602540 0.00000000 0.50000000
vn 0.86602540 0.00000000 0.50000000
vn 0.96592584 0.00000000 0.25881901
vn 0.96592584 0.00000000 0.25881901
vn 1.00000000 0.00000000 0.00000000
vn 1.00000000 0.00000000 0.00000000
vn 0.96592584 0.00000000 -0.25881901
vn 0.96592584 0.00000000 -0.25881901
vn 0.86602540 0.00000000 -0.50000000
vn 0.86602540 0.00000000 -0.50000000
vn 0.70710678 0.00000000 -0.70710678
vn 0.70710678 0.00000000 -0.70710678
vn 0.50000000 0.00000000 -0.86602540
vn 0.50000000 0.00000000 -0.86602540
vn 0.25881901 0.00000000 -0.96592584
vn 0.25881901 0.00000000 -0.96592584
vn 0.00000000 0.00000000 -1.00000000
vn 0.00000000 0.00000000 -1.00000000
vn -0.25881901 0.00000000 -0.96592584
vn -0.25881901 0.00000000 -0.96592584
vn -0.50000000 0.00000000 -0.86602540
vn -0.50000000 0.00000000 -0.86602540
vn -0.70710678 0.00000000 -0.70710678
vn -0.70710678 0.00000000 -0.70710678
f 1//1 2//2 3//3
f 4//4 3//3 2//2
f 5//5 6//6 1//1
f 2//2 1//1 6//6
f 7//7 8//8 9//9
f 8//8 10//10 9//9
f 9//9 10//10 11//11
f 10//10 12//12 11//11
f 11//11 12//12 13//13
f 12//12 14//14 13//13
f 13//13 14//14 15//15
f 14//14 16//16 15//15
f 15//15 16//16 17//17
f 16//16 18//18 17//17
f 17//17 18//18 19//19
f 18//18 20//20 19//19
f 20//20 21//21 19//19
f 19//19 21//21 22//22
f 21//21 23//23 22//22
f 22//22 23//23 24//24
f 23//23 25//25 24//24
f 24//24 25//25 26//26
f 25//25 27//27 26//26
f 26//26 27//27 28//28
f 27//27 29//29 28//28
f 28//28 29//29 30//30
f 29//29 31//31 30//30
f 32//32 30//30 31//31
f 7//7 33//33 8//8
f 8//8 33//33 34//34
f 33//33 35//35 34//34
f 34//34 35//35 36//36
f 35//35 37//37 36//36
f 36//36 37//37 38//38
f 37//37 39//39 38//38
f 38//38 39//39 40//40
f 39//39 41//41 40//40
f 40//40 41//41 42//42
f 42//42 41//41 43//43
f 41//41 44//44 43//43
f 43//43 44//44 45//45
f 44//44 46//46 45//45
f 45//45 46//46 47//47
f 46//46 48//48 47//47
f 47//47 48//48 49//49
f 48//48 50//50 49//49
f 49//49 50//50 51//51
f 50//50 52//52 51//51
f 51//51 52//52 53//53
f 52//52 54//54 53//53
f 53//53 54//54 31//31
f 32//32 31//31 54//54
f 3//3 4//4 55//55
f 56//56 55//55 4//4
f 57//57 58//58 5//5
f 6//6 5//5 58//58
f 59//59 60//60 57//57
f 58//58 57//57 60//60
f 61//61 60//60 62//62
f 59//59 62//62 60//60
f 63//63 61//61 64//64
f 62//62 64//64 61//61
f 65//65 63//63 66//66
f 64//64 66//66 63//63
f 67//67 65//65 68//68
f 66//66 68//68 65//65
f 69//69 67//67 70//70
f 68//68 70//70 67//67
f 71//71 69//69 72//72
f 70//70 72//72 69//69
f 71//71 72//72 73//73
f 74//74 73//73 72//72
f 73//73 74//74 75//75
f 76//76 75//75 74//74
f 75//75 76//76 77//77
f 78//78 77//77 76//76
f 77//77 78//78 79//79
f 80//80 79//79 78//78
f 79//79 80//80 81//81
f 82//82 81//81 80//80
f 81//81 82//82 83//83
f 84//84 83//83 82//82
f 85//85 83//83 86//86
f 84//84 86//86 83//83
f 87//87 85//85 88//88
f 86//86 88//88 85//85
f 89//89 87//87 90//90
f 88//88 90//90 87//87
f 91//91 89//89 92//92
f 90//90 92//92 89//89
f 93//93 91//91 94//94
f 92//92 94//94 91//91
f 95//95 93//93 96//96
f 94//94 96//96 93//93
f 55//55 56//56 96//96
f 95//95 96//96 56//56

