# Blender v2.79 (sub 0) OBJ File: ''
# www.blender.org
mtllib original-103_1.mtl
o original-103_1
v -0.463342 0.263579 -0.457410
v -0.463159 -0.309373 -0.457410
v 0.551378 0.263443 -0.457410
v 0.551378 -0.309373 -0.457410
v -0.463342 0.263579 -0.456410
v -0.463159 -0.309373 -0.456410
v 0.551378 0.263443 -0.456410
v 0.551378 -0.309373 -0.456410
vn -0.5774 0.5773 -0.5773
vn 0.5774 0.5773 -0.5774
vn -0.5772 -0.5774 -0.5774
vn 0.5774 -0.5774 -0.5774
vn -0.5774 0.5773 0.5773
vn -0.5772 -0.5774 0.5774
vn 0.5774 0.5773 0.5774
vn 0.5774 -0.5774 0.5774
usemtl material_0_0.007
s 1
f 1//1 3//2 2//3
f 4//4 2//3 3//2
f 5//5 6//6 7//7
f 8//8 7//7 6//6
f 4//4 3//2 7//7 8//8
f 2//3 4//4 8//8 6//6
f 1//1 2//3 6//6 5//5
f 3//2 1//1 5//5 7//7
