mtllib material.mtl
usemtl material_1_0
v -0.69167500 0.44657100 -0.24219600
v -0.69167500 0.44657100 -0.20768000
v -0.68940200 0.44657100 -0.22493800
v -0.69833600 0.44657100 -0.19159800
v -0.69833600 0.44657100 -0.25827800
v -0.70893200 0.44657100 -0.17778800
v -0.70893200 0.44657100 -0.27208800
v -0.72274200 0.44657100 -0.28268400
v -0.72274200 0.44657100 -0.16719200
v -0.73882400 0.44657100 -0.16053000
v -0.73882400 0.44657100 -0.28934600
v -0.75608200 0.44657100 -0.15825800
v -0.75608200 0.44657100 -0.29161800
v -0.77334000 0.44657100 -0.28934600
v -0.77334000 0.44657100 -0.16053000
v -0.78942200 0.44657100 -0.28268400
v -0.78942200 0.44657100 -0.16719200
v -0.80323200 0.44657100 -0.17778800
v -0.80323200 0.44657100 -0.27208800
v -0.81382900 0.44657100 -0.25827800
v -0.81382900 0.44657100 -0.19159800
v -0.82049000 0.44657100 -0.20768000
v -0.82049000 0.44657100 -0.24219600
v -0.82276200 0.44657100 -0.22493800
v -0.80323200 0.44657100 -0.27208800
v -0.79155000 0.43990300 -0.28637000
v -0.80624200 0.43990300 -0.27509700
v -0.78942200 0.44657100 -0.28268400
v -0.81751500 0.43990300 -0.26040600
v -0.81382900 0.44657100 -0.25827800
v -0.82460100 0.43990300 -0.24329800
v -0.82049000 0.44657100 -0.24219600
v -0.82701800 0.43990300 -0.22493800
v -0.82276200 0.44657100 -0.22493800
v -0.82049000 0.44657100 -0.20768000
v -0.82460100 0.43990300 -0.20657800
v -0.81382900 0.44657100 -0.19159800
v -0.81751500 0.43990300 -0.18947000
v -0.80323200 0.44657100 -0.17778800
v -0.80624200 0.43990300 -0.17477900
v -0.78942200 0.44657100 -0.16719200
v -0.79155000 0.43990300 -0.16350600
v -0.77334000 0.44657100 -0.16053000
v -0.77444200 0.43990300 -0.15641900
v -0.75608200 0.44657100 -0.15825800
v -0.75608200 0.43990300 -0.15400200
v -0.73882400 0.44657100 -0.16053000
v -0.73772300 0.43990300 -0.15641900
v -0.72274200 0.44657100 -0.16719200
v -0.72061400 0.43990300 -0.16350600
v -0.70893200 0.44657100 -0.17778800
v -0.70592300 0.43990300 -0.17477900
v -0.69465000 0.43990300 -0.18947000
v -0.69833600 0.44657100 -0.19159800
v -0.68756400 0.43990300 -0.20657800
v -0.69167500 0.44657100 -0.20768000
v -0.68514600 0.43990300 -0.22493800
v -0.68940200 0.44657100 -0.22493800
v -0.69167500 0.44657100 -0.24219600
v -0.68756400 0.43990300 -0.24329800
v -0.69833600 0.44657100 -0.25827800
v -0.69465000 0.43990300 -0.26040600
v -0.70893200 0.44657100 -0.27208800
v -0.70592300 0.43990300 -0.27509700
v -0.72274200 0.44657100 -0.28268400
v -0.72061400 0.43990300 -0.28637000
v -0.73882400 0.44657100 -0.28934600
v -0.73772300 0.43990300 -0.29345700
v -0.75608200 0.44657100 -0.29161800
v -0.75608200 0.43990300 -0.29587400
v -0.77334000 0.44657100 -0.28934600
v -0.77444200 0.43990300 -0.29345700
v -0.80624200 0.43990300 -0.27509700
v -0.79155000 0.43323500 -0.28637000
v -0.80624200 0.43323500 -0.27509700
v -0.79155000 0.43990300 -0.28637000
v -0.81751500 0.43323500 -0.26040600
v -0.81751500 0.43990300 -0.26040600
v -0.82460100 0.43323500 -0.24329800
v -0.82460100 0.43990300 -0.24329800
v -0.82701800 0.43323500 -0.22493800
v -0.82701800 0.43990300 -0.22493800
v -0.82460100 0.43323500 -0.20657800
v -0.82460100 0.43990300 -0.20657800
v -0.81751500 0.43323500 -0.18947000
v -0.81751500 0.43990300 -0.18947000
v -0.80624200 0.43323500 -0.17477900
v -0.80624200 0.43990300 -0.17477900
v -0.79155000 0.43990300 -0.16350600
v -0.79155000 0.43323500 -0.16350600
v -0.77444200 0.43990300 -0.15641900
v -0.77444200 0.43323500 -0.15641900
v -0.75608200 0.43990300 -0.15400200
v -0.75608200 0.43323500 -0.15400200
v -0.73772300 0.43990300 -0.15641900
v -0.73772300 0.43323500 -0.15641900
v -0.72061400 0.43990300 -0.16350600
v -0.72061400 0.43323500 -0.16350600
v -0.70592300 0.43990300 -0.17477900
v -0.70592300 0.43323500 -0.17477900
v -0.69465000 0.43323500 -0.18947000
v -0.69465000 0.43990300 -0.18947000
v -0.68756400 0.43323500 -0.20657800
v -0.68756400 0.43990300 -0.20657800
v -0.68514600 0.43323500 -0.22493800
v -0.68514600 0.43990300 -0.22493800
v -0.68756400 0.43323500 -0.24329800
v -0.68756400 0.43990300 -0.24329800
v -0.69465000 0.43323500 -0.26040600
v -0.69465000 0.43990300 -0.26040600
v -0.70592300 0.43323500 -0.27509700
v -0.70592300 0.43990300 -0.27509700
v -0.72061400 0.43990300 -0.28637000
v -0.72061400 0.43323500 -0.28637000
v -0.73772300 0.43990300 -0.29345700
v -0.73772300 0.43323500 -0.29345700
v -0.75608200 0.43990300 -0.29587400
v -0.75608200 0.43323500 -0.29587400
v -0.77444200 0.43990300 -0.29345700
v -0.77444200 0.43323500 -0.29345700
vn 0.00000000 1.00000000 0.00000000
vn 0.00000000 1.00000000 0.00000000
vn 0.00000000 1.00000000 0.00000000
vn 0.00000000 1.00000000 0.00000000
vn 0.00000000 1.00000000 0.00000000
vn 0.00000000 1.00000000 0.00000000
vn 0.00000000 1.00000000 0.00000000
vn 0.00000000 1.00000000 0.00000000
vn 0.00000000 1.00000000 0.00000000
vn 0.00000000 1.00000000 0.00000000
vn 0.00000000 1.00000000 0.00000000
vn 0.00000000 1.00000000 0.00000000
vn 0.00000000 1.00000000 0.00000000
vn 0.00000000 1.00000000 0.00000000
vn 0.00000000 1.00000000 0.00000000
vn 0.00000000 1.00000000 0.00000000
vn 0.00000000 1.00000000 0.00000000
vn 0.00000000 1.00000000 0.00000000
vn 0.00000000 1.00000000 0.00000000
vn 0.00000000 1.00000000 0.00000000
vn 0.00000000 1.00000000 0.00000000
vn 0.00000000 1.00000000 0.00000000
vn 0.00000000 1.00000000 0.00000000
vn 0.00000000 1.00000000 0.00000000
vn -0.59603251 0.53804321 -0.59603251
vn -0.42145863 0.53804323 -0.72998774
vn -0.59603251 0.53804321 -0.59603251
vn -0.42145863 0.53804323 -0.72998774
vn -0.72998774 0.53804323 -0.42145863
vn -0.72998774 0.53804323 -0.42145863
vn -0.81419554 0.53804323 -0.21816301
vn -0.81419554 0.53804323 -0.21816301
vn -0.84291725 0.53804323 0.00000000
vn -0.84291725 0.53804323 0.00000000
vn -0.81419554 0.53804323 0.21816301
vn -0.81419554 0.53804323 0.21816301
vn -0.72998774 0.53804323 0.42145863
vn -0.72998774 0.53804323 0.42145863
vn -0.59603251 0.53804321 0.59603251
vn -0.59603251 0.53804321 0.59603251
vn -0.42145863 0.53804323 0.72998774
vn -0.42145863 0.53804323 0.72998774
vn -0.21816301 0.53804323 0.81419554
vn -0.21816301 0.53804323 0.81419554
vn 0.00000000 0.53804323 0.84291725
vn 0.00000000 0.53804323 0.84291725
vn 0.21816301 0.53804323 0.81419554
vn 0.21816301 0.53804323 0.81419554
vn 0.42145863 0.53804323 0.72998774
vn 0.42145863 0.53804323 0.72998774
vn 0.59603251 0.53804321 0.59603251
vn 0.59603251 0.53804321 0.59603251
vn 0.72998774 0.53804323 0.42145863
vn 0.72998774 0.53804323 0.42145863
vn 0.81419554 0.53804323 0.21816301
vn 0.81419554 0.53804323 0.21816301
vn 0.84291725 0.53804323 0.00000000
vn 0.84291725 0.53804323 0.00000000
vn 0.81419554 0.53804323 -0.21816301
vn 0.81419554 0.53804323 -0.21816301
vn 0.72998774 0.53804323 -0.42145863
vn 0.72998774 0.53804323 -0.42145863
vn 0.59603251 0.53804321 -0.59603251
vn 0.59603251 0.53804321 -0.59603251
vn 0.42145863 0.53804323 -0.72998774
vn 0.42145863 0.53804323 -0.72998774
vn 0.21816301 0.53804323 -0.81419554
vn 0.21816301 0.53804323 -0.81419554
vn 0.00000000 0.53804323 -0.84291725
vn 0.00000000 0.53804323 -0.84291725
vn -0.21816301 0.53804323 -0.81419554
vn -0.21816301 0.53804323 -0.81419554
vn -0.70710678 0.00000000 -0.70710678
vn -0.50000000 0.00000000 -0.86602540
vn -0.70710678 0.00000000 -0.70710678
vn -0.50000000 0.00000000 -0.86602540
vn -0.86602540 0.00000000 -0.50000000
vn -0.86602540 0.00000000 -0.50000000
vn -0.96592584 0.00000000 -0.25881901
vn -0.96592584 0.00000000 -0.25881901
vn -1.00000000 0.00000000 0.00000000
vn -1.00000000 0.00000000 0.00000000
vn -0.96592584 0.00000000 0.25881901
vn -0.96592584 0.00000000 0.25881901
vn -0.86602540 0.00000000 0.50000000
vn -0.86602540 0.00000000 0.50000000
vn -0.70710678 0.00000000 0.70710678
vn -0.70710678 0.00000000 0.70710678
vn -0.50000000 0.00000000 0.86602540
vn -0.50000000 0.00000000 0.86602540
vn -0.25881901 0.00000000 0.96592584
vn -0.25881901 0.00000000 0.96592584
vn 0.00000000 0.00000000 1.00000000
vn 0.00000000 0.00000000 1.00000000
vn 0.25881901 0.00000000 0.96592584
vn 0.25881901 0.00000000 0.96592584
vn 0.50000000 0.00000000 0.86602540
vn 0.50000000 0.00000000 0.86602540
vn 0.70710678 0.00000000 0.70710678
vn 0.70710678 0.00000000 0.70710678
vn 0.86602540 0.00000000 0.50000000
vn 0.86602540 0.00000000 0.50000000
vn 0.96592584 0.00000000 0.25881901
vn 0.96592584 0.00000000 0.25881901
vn 1.00000000 0.00000000 0.00000000
vn 1.00000000 0.00000000 0.00000000
vn 0.96592584 0.00000000 -0.25881901
vn 0.96592584 0.00000000 -0.25881901
vn 0.86602540 0.00000000 -0.50000000
vn 0.86602540 0.00000000 -0.50000000
vn 0.70710678 0.00000000 -0.70710678
vn 0.70710678 0.00000000 -0.70710678
vn 0.50000000 0.00000000 -0.86602540
vn 0.50000000 0.00000000 -0.86602540
vn 0.25881901 0.00000000 -0.96592584
vn 0.25881901 0.00000000 -0.96592584
vn 0.00000000 0.00000000 -1.00000000
vn 0.00000000 0.00000000 -1.00000000
vn -0.25881901 0.00000000 -0.96592584
vn -0.25881901 0.00000000 -0.96592584
f 1//1 2//2 3//3
f 2//2 1//1 4//4
f 4//4 1//1 5//5
f 4//4 5//5 6//6
f 6//6 5//5 7//7
f 6//6 7//7 8//8
f 6//6 8//8 9//9
f 9//9 8//8 10//10
f 10//10 8//8 11//11
f 10//10 11//11 12//12
f 12//12 11//11 13//13
f 12//12 13//13 14//14
f 12//12 14//14 15//15
f 15//15 14//14 16//16
f 15//15 16//16 17//17
f 17//17 16//16 18//18
f 18//18 16//16 19//19
f 18//18 19//19 20//20
f 18//18 20//20 21//21
f 21//21 20//20 22//22
f 22//22 20//20 23//23
f 22//22 23//23 24//24
f 25//25 26//26 27//27
f 26//26 25//25 28//28
f 29//29 25//25 27//27
f 25//25 29//29 30//30
f 31//31 30//30 29//29
f 30//30 31//31 32//32
f 33//33 32//32 31//31
f 32//32 33//33 34//34
f 33//33 35//35 34//34
f 35//35 33//33 36//36
f 36//36 37//37 35//35
f 37//37 36//36 38//38
f 38//38 39//39 37//37
f 39//39 38//38 40//40
f 41//41 40//40 42//42
f 40//40 41//41 39//39
f 43//43 42//42 44//44
f 42//42 43//43 41//41
f 45//45 44//44 46//46
f 44//44 45//45 43//43
f 47//47 46//46 48//48
f 46//46 47//47 45//45
f 49//49 48//48 50//50
f 48//48 49//49 47//47
f 51//51 50//50 52//52
f 50//50 51//51 49//49
f 51//51 53//53 54//54
f 53//53 51//51 52//52
f 54//54 55//55 56//56
f 55//55 54//54 53//53
f 56//56 57//57 58//58
f 57//57 56//56 55//55
f 59//59 57//57 60//60
f 57//57 59//59 58//58
f 61//61 60//60 62//62
f 60//60 61//61 59//59
f 63//63 62//62 64//64
f 62//62 63//63 61//61
f 65//65 64//64 66//66
f 64//64 65//65 63//63
f 67//67 66//66 68//68
f 66//66 67//67 65//65
f 69//69 68//68 70//70
f 68//68 69//69 67//67
f 71//71 70//70 72//72
f 70//70 71//71 69//69
f 28//28 72//72 26//26
f 72//72 28//28 71//71
f 73//73 74//74 75//75
f 74//74 73//73 76//76
f 77//77 73//73 75//75
f 73//73 77//77 78//78
f 79//79 78//78 77//77
f 78//78 79//79 80//80
f 81//81 80//80 79//79
f 80//80 81//81 82//82
f 83//83 82//82 81//81
f 82//82 83//83 84//84
f 85//85 84//84 83//83
f 84//84 85//85 86//86
f 87//87 86//86 85//85
f 86//86 87//87 88//88
f 89//89 87//87 90//90
f 87//87 89//89 88//88
f 91//91 90//90 92//92
f 90//90 91//91 89//89
f 93//93 92//92 94//94
f 92//92 93//93 91//91
f 95//95 94//94 96//96
f 94//94 95//95 93//93
f 97//97 96//96 98//98
f 96//96 97//97 95//95
f 99//99 98//98 100//100
f 98//98 99//99 97//97
f 99//99 101//101 102//102
f 101//101 99//99 100//100
f 102//102 103//103 104//104
f 103//103 102//102 101//101
f 104//104 105//105 106//106
f 105//105 104//104 103//103
f 106//106 107//107 108//108
f 107//107 106//106 105//105
f 108//108 109//109 110//110
f 109//109 108//108 107//107
f 110//110 111//111 112//112
f 111//111 110//110 109//109
f 113//113 111//111 114//114
f 111//111 113//113 112//112
f 115//115 114//114 116//116
f 114//114 115//115 113//113
f 117//117 116//116 118//118
f 116//116 117//117 115//115
f 119//119 118//118 120//120
f 118//118 119//119 117//117
f 76//76 120//120 74//74
f 120//120 76//76 119//119

