mtllib material.mtl
usemtl material_1_0
v 0.68117000 -0.27787600 -0.26837800
v 0.68117000 0.03071200 -0.26837800
v 0.67092000 -0.27787600 -0.28889100
v 0.67092000 0.03071200 -0.28889100
v 0.66932000 -0.27741400 -0.29209300
v 0.66782100 0.02989500 -0.29509300
v 0.66776100 -0.27655800 -0.29521300
v 0.66669100 0.02939700 -0.29735300
v 0.66669100 -0.18553500 -0.29735300
v 0.66669100 -0.27600200 -0.29735300
v 0.66669100 -0.05658900 -0.29735300
v 0.68117000 0.03071200 -0.26837800
v 0.67538100 0.04978200 -0.26795300
v 0.67092000 0.03071200 -0.28889100
v 0.66430900 0.04978200 -0.29011000
v 0.68765600 -0.27787600 -0.23664300
v 0.68765600 0.03071200 -0.23664300
v 0.68117000 -0.27787600 -0.26837800
v 0.67092000 -0.27787600 -0.28889100
v 0.67538100 -0.29694600 -0.26795300
v 0.66430900 -0.29694600 -0.29011000
v 0.66932000 -0.27741400 -0.29209300
v 0.66251100 -0.29642700 -0.29370800
v 0.66776100 -0.27655800 -0.29521300
v 0.66075900 -0.29546600 -0.29721400
v 0.66669100 -0.27600200 -0.29735300
v 0.66573100 -0.27582900 -0.29843700
v 0.66464700 -0.27532300 -0.29966000
v 0.66215200 -0.27372800 -0.30247400
v 0.65985200 -0.27179600 -0.30506900
v 0.65778200 -0.26955800 -0.30740500
v 0.65597300 -0.26704700 -0.30944600
v 0.65445300 -0.26430400 -0.31116100
v 0.65324600 -0.26136900 -0.31252300
v 0.65237100 -0.25828800 -0.31351100
v 0.65166200 -0.25188000 -0.31431000
v 0.65166200 -0.18722300 -0.31431000
v 0.66669100 -0.05658900 -0.29735300
v 0.64919700 -0.05827700 -0.29698600
v 0.66669100 -0.18553500 -0.29735300
v 0.64919700 -0.18722300 -0.29698600
v 0.66573100 0.02925500 -0.29843700
v 0.66477300 0.02888800 -0.29951700
v 0.66228100 0.02750100 -0.30232900
v 0.65997100 0.02576000 -0.30493500
v 0.65788300 0.02369300 -0.30729200
v 0.65605100 0.02133700 -0.30935800
v 0.65450700 0.01873000 -0.31110000
v 0.65327900 0.01591900 -0.31248600
v 0.65238600 0.01295100 -0.31349400
v 0.65166200 -0.05790900 -0.31431000
v 0.65166200 0.00674900 -0.31431000
v 0.66082700 0.04886400 -0.29707900
v 0.66669100 0.02939700 -0.29735300
v 0.66782100 0.02989500 -0.29509300
v 0.68226900 0.04978200 -0.23424700
v 0.68765600 0.03071200 -0.23664300
v 0.68570700 0.02718400 -0.20431100
v 0.68591700 0.02849600 -0.20780500
v 0.68570700 -0.27447200 -0.20431100
v 0.68591900 -0.27577000 -0.20782800
v 0.68612400 0.02969400 -0.21123500
v 0.68612500 -0.27693300 -0.21125400
v 0.68655700 -0.27787600 -0.21841300
v 0.68655700 0.03071200 -0.21841300
v 0.68226900 -0.29694600 -0.23424700
v 0.68765600 -0.27787600 -0.23664300
v 0.66000300 -0.29484100 -0.29872700
v 0.65166200 -0.18722300 -0.31431000
v 0.66669100 -0.18553500 -0.29735300
v 0.64919700 -0.18722300 -0.29698600
v 0.66573100 -0.27582900 -0.29843700
v 0.66464700 -0.27532300 -0.29966000
v 0.65836700 -0.29407800 -0.30057400
v 0.65958500 -0.29464600 -0.29920000
v 0.66215200 -0.27372800 -0.30247400
v 0.65556400 -0.29228500 -0.30373600
v 0.65985200 -0.27179600 -0.30506900
v 0.65297900 -0.29011500 -0.30665200
v 0.65778200 -0.26955800 -0.30740500
v 0.65065300 -0.28760000 -0.30927700
v 0.65597300 -0.26704700 -0.30944600
v 0.64862000 -0.28477900 -0.31157000
v 0.65445300 -0.26430400 -0.31116100
v 0.64691300 -0.28169600 -0.31349700
v 0.65324600 -0.26136900 -0.31252300
v 0.64555700 -0.27839900 -0.31502700
v 0.65237100 -0.25828800 -0.31351100
v 0.64457300 -0.27493700 -0.31613700
v 0.65166200 -0.25188000 -0.31431000
v 0.64377700 -0.26773700 -0.31703500
v 0.65166200 -0.18722300 -0.31431000
v 0.64377700 -0.18722300 -0.31703500
v 0.64919700 -0.18722300 -0.29698600
v 0.64919700 -0.05827700 -0.29698600
v 0.64168200 -0.18722300 -0.30546500
v 0.64168200 -0.05790900 -0.30546500
v 0.66669100 -0.05658900 -0.29735300
v 0.65166200 -0.05790900 -0.31431000
v 0.64919700 -0.05827700 -0.29698600
v 0.65166200 0.00674900 -0.31431000
v 0.64377700 0.02285700 -0.31703500
v 0.65166200 -0.05790900 -0.31431000
v 0.64377700 -0.05790900 -0.31703500
v 0.64459000 0.02982600 -0.31611800
v 0.65238600 0.01295100 -0.31349400
v 0.64559300 0.03316000 -0.31498600
v 0.65327900 0.01591900 -0.31248600
v 0.64697400 0.03631900 -0.31342800
v 0.65450700 0.01873000 -0.31110000
v 0.64870800 0.03924800 -0.31147100
v 0.65605100 0.02133700 -0.30935800
v 0.65076600 0.04189600 -0.30914900
v 0.65788300 0.02369300 -0.30729200
v 0.65311300 0.04421800 -0.30650100
v 0.65997100 0.02576000 -0.30493500
v 0.65570900 0.04617500 -0.30357300
v 0.66228100 0.02750100 -0.30232900
v 0.65850800 0.04773200 -0.30041400
v 0.66477300 0.02888800 -0.29951700
v 0.66573100 0.02925500 -0.29843700
v 0.65958500 0.04814400 -0.29920000
v 0.66000300 0.04830500 -0.29872700
v 0.68109500 0.04978200 -0.21475800
v 0.68655700 0.03071200 -0.21841300
v 0.68037600 0.04729200 -0.20283900
v 0.68060900 0.04863800 -0.20669300
v 0.68591700 0.02849600 -0.20780500
v 0.68612400 0.02969400 -0.21123500
v 0.68570700 0.02718400 -0.20431100
v 0.68020000 0.04581800 -0.19990700
v 0.68060800 0.00274800 -0.18902700
v 0.68092100 0.00993600 -0.18996700
v 0.68060800 -0.25021500 -0.18902700
v 0.68092200 -0.25737400 -0.18996900
v 0.68130800 0.01337900 -0.19112700
v 0.68131000 -0.26080000 -0.19113200
v 0.68184100 0.01664200 -0.19272300
v 0.68184400 -0.26404500 -0.19273300
v 0.68251000 0.01967100 -0.19472900
v 0.68251500 -0.26705400 -0.19474300
v 0.68330500 0.02241400 -0.19711000
v 0.68331100 -0.26977400 -0.19712900
v 0.68421100 0.02482600 -0.19982700
v 0.68421800 -0.27216000 -0.19984900
v 0.68521400 0.02686500 -0.20283400
v 0.68522200 -0.27417000 -0.20285700
v 0.68570700 -0.27447200 -0.20431100
v 0.68591900 -0.27577000 -0.20782800
v 0.68037800 -0.29458000 -0.20286400
v 0.68061000 -0.29588700 -0.20671400
v 0.68612500 -0.27693300 -0.21125400
v 0.68109500 -0.29694600 -0.21475800
v 0.68655700 -0.27787600 -0.21841300
v 0.64168200 -0.18722300 -0.30546500
v 0.65958500 -0.29464600 -0.29920000
v 0.64377700 -0.18722300 -0.31703500
v 0.64168200 -0.18722300 -0.30546500
v 0.64168200 -0.05790900 -0.30546500
v 0.64377700 -0.18722300 -0.31703500
v 0.64377700 -0.05790900 -0.31703500
v 0.64168200 -0.05790900 -0.30546500
v 0.64377700 -0.05790900 -0.31703500
v 0.65958500 0.04814400 -0.29920000
v 0.68521400 0.02686500 -0.20283400
v 0.67883400 0.04316800 -0.19581400
v 0.67996100 0.04545900 -0.19919200
v 0.68421100 0.02482600 -0.19982700
v 0.67781600 0.04045900 -0.19276100
v 0.68330500 0.02241400 -0.19711000
v 0.67692300 0.03737700 -0.19008500
v 0.68251000 0.01967100 -0.19472900
v 0.67617100 0.03397300 -0.18783100
v 0.68184100 0.01664200 -0.19272300
v 0.67557300 0.03030700 -0.18603800
v 0.68130800 0.01337900 -0.19112700
v 0.67513800 0.02643900 -0.18473400
v 0.68092100 0.00993600 -0.18996700
v 0.67478600 0.01836100 -0.18367800
v 0.68060800 0.00274800 -0.18902700
v 0.68060800 -0.25021500 -0.18902700
v 0.67478600 -0.26586600 -0.18367800
v 0.67513900 -0.27391000 -0.18473700
v 0.68092200 -0.25737400 -0.18996900
v 0.67557500 -0.27776000 -0.18604400
v 0.68131000 -0.26080000 -0.19113200
v 0.67617500 -0.28140600 -0.18784200
v 0.68184400 -0.26404500 -0.19273300
v 0.67692800 -0.28478600 -0.19010100
v 0.68251500 -0.26705400 -0.19474300
v 0.67782300 -0.28784300 -0.19278100
v 0.68331100 -0.26977400 -0.19712900
v 0.67884200 -0.29052300 -0.19583800
v 0.68421800 -0.27216000 -0.19984900
v 0.67997000 -0.29278200 -0.19921800
v 0.68522200 -0.27417000 -0.20285700
v 0.68020000 -0.29312200 -0.19990700
vn -0.94523011 0.00000000 0.32640470
vn -0.94523011 0.00000000 0.32640470
vn -0.89453920 0.00000000 0.44698950
vn -0.89453920 0.00000000 0.44698950
vn -0.89453920 0.00000000 0.44698950
vn -0.89453920 0.00000000 0.44698950
vn -0.89453920 0.00000000 0.44698950
vn -0.83515077 0.00000000 0.55002108
vn -0.85375960 0.00000000 0.52066740
vn -0.83634681 0.00000000 0.54820071
vn -0.85117462 0.00000000 0.52488261
vn -0.90854796 -0.28265429 0.30764779
vn -0.90489162 -0.28179751 0.31900051
vn -0.85533618 -0.26815569 0.44327479
vn -0.85415044 -0.26757661 0.44590332
vn -0.99750193 0.00000000 0.07063917
vn -0.99750193 0.00000000 0.07063917
vn -0.90854796 0.28265429 0.30764779
vn -0.85476086 0.26787459 0.44455268
vn -0.90489162 0.28179751 0.31900051
vn -0.85350741 0.26726310 0.44732040
vn -0.84094299 0.26085880 0.47409659
vn -0.84057519 0.26066250 0.47485620
vn -0.83502714 0.25775748 0.48609747
vn -0.82784489 0.25565970 0.49931049
vn -0.78322678 0.23446639 0.57583098
vn -0.74836911 0.00000000 0.66328251
vn -0.74836911 0.00000000 0.66328251
vn -0.74836911 0.00000000 0.66328251
vn -0.74836911 0.00000000 0.66328251
vn -0.74836911 0.00000000 0.66328251
vn -0.74836911 0.00000000 0.66328251
vn -0.74836911 0.00000000 0.66328251
vn -0.74836911 0.00000000 0.66328251
vn -0.74836911 0.00000000 0.66328251
vn -0.74836911 0.00000000 0.66328251
vn -0.74836911 0.00000000 0.66328251
vn 0.02094993 0.00000000 0.99978053
vn 0.02094993 0.00000000 0.99978053
vn 0.02094993 0.00000000 0.99978053
vn 0.02094993 0.00000000 0.99978053
vn -0.74836911 0.00000000 0.66328251
vn -0.74836911 0.00000000 0.66328251
vn -0.74836911 0.00000000 0.66328251
vn -0.74836911 0.00000000 0.66328251
vn -0.74836911 0.00000000 0.66328251
vn -0.74836911 0.00000000 0.66328251
vn -0.74836911 0.00000000 0.66328251
vn -0.74836911 0.00000000 0.66328251
vn -0.74836911 0.00000000 0.66328251
vn -0.74836911 0.00000000 0.66328251
vn -0.74836911 0.00000000 0.66328251
vn -0.83811697 -0.26054449 0.47924578
vn -0.78806252 -0.23606471 0.56853401
vn -0.84429158 -0.26235670 0.46726939
vn -0.95866446 -0.27824079 0.05953585
vn -0.95707668 -0.27980779 0.07557666
vn -0.98580397 0.00000000 -0.16790039
vn -0.99818843 0.00000000 -0.06016529
vn -0.98571097 0.00000000 -0.16844549
vn -0.99818843 0.00000000 -0.06016529
vn -0.99818843 0.00000000 -0.06016529
vn -0.99818843 0.00000000 -0.06016529
vn -0.99818843 0.00000000 -0.06016529
vn -0.99818843 0.00000000 -0.06016529
vn -0.95866446 0.27824079 0.05953585
vn -0.95707668 0.27980779 0.07557666
vn -0.76384346 0.22845889 0.60361387
vn 0.03183955 -0.99948272 0.00453089
vn 0.09631136 -0.99525689 0.01370547
vn 0.05970587 -0.99817985 0.00849637
vn -0.70384431 0.20162310 0.68113971
vn -0.68430499 0.19489330 0.70266869
vn -0.68515011 0.19522090 0.70175361
vn -0.69163087 0.19773709 0.69465587
vn -0.66937611 0.18878230 0.71853801
vn -0.67103862 0.18949081 0.71679872
vn -0.65275691 0.18134480 0.73554231
vn -0.65552799 0.18262530 0.73275579
vn -0.63363699 0.17211830 0.75424098
vn -0.63800199 0.17427740 0.75005389
vn -0.61078873 0.16038321 0.77538014
vn -0.61757021 0.16393030 0.76924241
vn -0.58222660 0.14497020 0.79999739
vn -0.59287222 0.15078640 0.79105372
vn -0.54450360 0.12387180 0.82956110
vn -0.56170001 0.13355830 0.81648961
vn -0.46185832 0.07692777 0.88361134
vn -0.51361690 0.10624720 0.85141600
vn -0.34850709 0.01223559 0.93722628
vn -0.42023218 0.05329381 0.90585026
vn -0.32663929 0.00000000 0.94514907
vn -0.32663929 0.00000000 0.94514907
vn -0.74836911 0.00000000 0.66328251
vn -0.74836911 0.00000000 0.66328251
vn -0.74836911 0.00000000 0.66328251
vn -0.74836911 0.00000000 0.66328251
vn -0.09587691 0.99536476 0.00752396
vn -0.02594492 0.99962279 0.00900772
vn -0.05121567 0.99859021 0.01394802
vn -0.34970591 -0.01270820 0.93677333
vn -0.42542969 -0.05543957 0.90329178
vn -0.32663929 0.00000000 0.94514907
vn -0.32663929 0.00000000 0.94514907
vn -0.52071539 -0.10887850 0.84675909
vn -0.46855499 -0.07963814 0.87983748
vn -0.56904531 -0.13607550 0.81096911
vn -0.55232839 -0.12674440 0.82393519
vn -0.60004299 -0.15306340 0.78518788
vn -0.58994592 -0.14759370 0.79383872
vn -0.62453092 -0.16599310 0.76315622
vn -0.61826680 -0.16274350 0.76893480
vn -0.64479356 -0.17617819 0.74377585
vn -0.64089753 -0.17426641 0.74758383
vn -0.66222351 -0.18442170 0.72625661
vn -0.65988150 -0.18334780 0.72865630
vn -0.67772809 -0.19123920 0.71000859
vn -0.67647162 -0.19070771 0.71134852
vn -0.69193700 -0.19697470 0.69456760
vn -0.69149461 -0.19680430 0.69505631
vn -0.70899218 -0.20285389 0.67541128
vn -0.69870092 -0.19958281 0.68701072
vn -0.76935947 -0.22994419 0.59599637
vn -0.96227900 -0.26069150 -0.07784001
vn -0.96235600 -0.26129550 -0.07480371
vn -0.95765743 -0.24048361 -0.15830311
vn -0.96060151 -0.25110770 -0.11912040
vn -0.95797070 -0.24550720 -0.14838580
vn -0.96062448 -0.25121149 -0.11871560
vn -0.94292378 -0.21947870 -0.25044729
vn -0.93883080 -0.21229420 -0.27116030
vn -0.94860406 0.00000000 -0.31646539
vn -0.94860406 0.00000000 -0.31646539
vn -0.94860406 0.00000000 -0.31646539
vn -0.94860406 0.00000000 -0.31646539
vn -0.94860406 0.00000000 -0.31646539
vn -0.94860406 0.00000000 -0.31646539
vn -0.94860406 0.00000000 -0.31646539
vn -0.94860406 0.00000000 -0.31646539
vn -0.94860406 0.00000000 -0.31646539
vn -0.94860406 0.00000000 -0.31646539
vn -0.94860406 0.00000000 -0.31646539
vn -0.94860406 0.00000000 -0.31646539
vn -0.94860406 0.00000000 -0.31646539
vn -0.94860406 0.00000000 -0.31646539
vn -0.94860406 0.00000000 -0.31646539
vn -0.94860406 0.00000000 -0.31646539
vn -0.94365200 0.21761950 -0.24932440
vn -0.95886805 0.24432759 -0.14448559
vn -0.95741533 0.24321931 -0.15556430
vn -0.96075393 0.25156801 -0.11689920
vn -0.96079111 0.25174230 -0.11621640
vn -0.96231402 0.26095761 -0.07650394
vn -0.96238450 0.26153890 -0.07357637
vn 0.00000000 -1.00000000 0.00000000
vn -0.69163087 0.19773709 0.69465587
vn 0.00000000 -1.00000000 0.00000000
vn -0.98400130 0.00000000 -0.17816130
vn -0.98400130 0.00000000 -0.17816130
vn -0.98400130 0.00000000 -0.17816130
vn -0.98400130 0.00000000 -0.17816130
vn 0.01513704 0.99973956 0.01707884
vn 0.00000000 1.00000000 0.00000000
vn -0.69870092 -0.19958281 0.68701072
vn -0.90572461 -0.17972690 -0.38387650
vn -0.88989263 -0.16806340 -0.42408231
vn -0.89916329 -0.17549050 -0.40088460
vn -0.88766711 -0.16624060 -0.42943121
vn -0.87926050 -0.15924780 -0.44893330
vn -0.87583593 -0.15636391 -0.45657612
vn -0.86667729 -0.14858070 -0.47622920
vn -0.86149076 -0.14414999 -0.48688238
vn -0.85122957 -0.13536520 -0.50703498
vn -0.84330349 -0.12859770 -0.52182550
vn -0.83142361 -0.11851190 -0.54285331
vn -0.81896592 -0.10806130 -0.56357571
vn -0.80086781 -0.09311020 -0.59155831
vn -0.76467267 -0.06469739 -0.64116297
vn -0.73895438 -0.04527436 -0.67223259
vn -0.69049186 -0.00971905 -0.72327486
vn -0.69059089 0.00976515 -0.72317969
vn -0.73942312 0.04552218 -0.67170022
vn -0.80150829 0.09344163 -0.59063789
vn -0.76525629 0.06500744 -0.64043489
vn -0.83207244 0.11884081 -0.54178623
vn -0.81965138 0.10842320 -0.56250869
vn -0.85185330 0.13567280 -0.50590400
vn -0.84397427 0.12894480 -0.52065408
vn -0.86727210 0.14886730 -0.47505540
vn -0.86213242 0.14447500 -0.48564871
vn -0.87982962 0.15951860 -0.44772051
vn -0.87644899 0.15666990 -0.45529299
vn -0.89044190 0.16832510 -0.42282370
vn -0.88825750 0.16653440 -0.42809450
vn -0.89969952 0.17575030 -0.39956551
vn -0.90629980 0.18006100 -0.38235940
vn -0.93797183 0.21431701 -0.27253821
f 1//1 2//2 3//3
f 2//2 4//4 3//3
f 3//3 4//4 5//5
f 4//4 6//6 5//5
f 5//5 6//6 7//7
f 6//6 8//8 7//7
f 8//8 9//9 7//7
f 10//10 7//7 9//9
f 11//11 9//9 8//8
f 12//12 13//13 14//14
f 15//15 14//14 13//13
f 16//16 17//17 1//1
f 2//2 1//1 17//17
f 18//18 19//19 20//20
f 21//21 20//20 19//19
f 19//19 22//22 21//21
f 23//23 21//21 22//22
f 22//22 24//24 23//23
f 25//25 23//23 24//24
f 26//26 25//25 24//24
f 10//10 9//9 27//27
f 27//27 9//9 28//28
f 28//28 9//9 29//29
f 29//29 9//9 30//30
f 30//30 9//9 31//31
f 31//31 9//9 32//32
f 32//32 9//9 33//33
f 33//33 9//9 34//34
f 34//34 9//9 35//35
f 35//35 9//9 36//36
f 37//37 36//36 9//9
f 38//38 39//39 40//40
f 41//41 40//40 39//39
f 8//8 42//42 11//11
f 42//42 43//43 11//11
f 43//43 44//44 11//11
f 44//44 45//45 11//11
f 45//45 46//46 11//11
f 46//46 47//47 11//11
f 47//47 48//48 11//11
f 48//48 49//49 11//11
f 49//49 50//50 11//11
f 11//11 50//50 51//51
f 52//52 51//51 50//50
f 53//53 54//54 55//55
f 14//14 15//15 55//55
f 53//53 55//55 15//15
f 56//56 13//13 57//57
f 12//12 57//57 13//13
f 58//58 59//59 60//60
f 60//60 59//59 61//61
f 59//59 62//62 61//61
f 61//61 62//62 63//63
f 63//63 62//62 64//64
f 62//62 65//65 64//64
f 64//64 65//65 16//16
f 17//17 16//16 65//65
f 66//66 67//67 20//20
f 18//18 20//20 67//67
f 26//26 68//68 25//25
f 69//69 70//70 71//71
f 72//72 68//68 26//26
f 73//73 74//74 72//72
f 75//75 72//72 74//74
f 76//76 77//77 73//73
f 74//74 73//73 77//77
f 78//78 79//79 76//76
f 77//77 76//76 79//79
f 80//80 81//81 78//78
f 79//79 78//78 81//81
f 82//82 83//83 80//80
f 81//81 80//80 83//83
f 84//84 85//85 82//82
f 83//83 82//82 85//85
f 86//86 87//87 84//84
f 85//85 84//84 87//87
f 88//88 89//89 86//86
f 87//87 86//86 89//89
f 90//90 91//91 88//88
f 89//89 88//88 91//91
f 92//92 93//93 90//90
f 91//91 90//90 93//93
f 94//94 95//95 96//96
f 97//97 96//96 95//95
f 98//98 99//99 100//100
f 101//101 102//102 103//103
f 104//104 103//103 102//102
f 105//105 102//102 106//106
f 101//101 106//106 102//102
f 107//107 105//105 108//108
f 106//106 108//108 105//105
f 109//109 107//107 110//110
f 108//108 110//110 107//107
f 111//111 109//109 112//112
f 110//110 112//112 109//109
f 113//113 111//111 114//114
f 112//112 114//114 111//111
f 115//115 113//113 116//116
f 114//114 116//116 113//113
f 117//117 115//115 118//118
f 116//116 118//118 115//115
f 119//119 117//117 120//120
f 118//118 120//120 117//117
f 121//121 122//122 120//120
f 119//119 120//120 122//122
f 123//123 121//121 54//54
f 123//123 54//54 53//53
f 124//124 56//56 125//125
f 57//57 125//125 56//56
f 126//126 127//127 128//128
f 129//129 128//128 127//127
f 128//128 130//130 131//131
f 132//132 133//133 134//134
f 134//134 133//133 135//135
f 133//133 136//136 135//135
f 135//135 136//136 137//137
f 136//136 138//138 137//137
f 137//137 138//138 139//139
f 138//138 140//140 139//139
f 139//139 140//140 141//141
f 140//140 142//142 141//141
f 141//141 142//142 143//143
f 142//142 144//144 143//143
f 143//143 144//144 145//145
f 144//144 146//146 145//145
f 145//145 146//146 147//147
f 147//147 146//146 60//60
f 58//58 60//60 146//146
f 148//148 149//149 150//150
f 150//150 149//149 151//151
f 152//152 151//151 149//149
f 151//151 152//152 153//153
f 154//154 153//153 152//152
f 153//153 154//154 66//66
f 67//67 66//66 154//154
f 127//127 124//124 129//129
f 125//125 129//129 124//124
f 69//69 71//71 155//155
f 156//156 68//68 72//72
f 157//157 69//69 155//155
f 158//158 159//159 160//160
f 161//161 160//160 159//159
f 100//100 99//99 162//162
f 99//99 163//163 162//162
f 123//123 164//164 121//121
f 126//126 128//128 131//131
f 130//130 165//165 131//131
f 166//166 167//167 168//168
f 165//165 168//168 167//167
f 169//169 166//166 170//170
f 168//168 170//170 166//166
f 171//171 169//169 172//172
f 170//170 172//172 169//169
f 173//173 171//171 174//174
f 172//172 174//174 171//171
f 175//175 173//173 176//176
f 174//174 176//176 173//173
f 177//177 175//175 178//178
f 176//176 178//178 175//175
f 179//179 177//177 180//180
f 178//178 180//180 177//177
f 180//180 181//181 179//179
f 182//182 179//179 181//181
f 182//182 181//181 183//183
f 184//184 183//183 181//181
f 183//183 184//184 185//185
f 186//186 185//185 184//184
f 185//185 186//186 187//187
f 188//188 187//187 186//186
f 187//187 188//188 189//189
f 190//190 189//189 188//188
f 189//189 190//190 191//191
f 192//192 191//191 190//190
f 191//191 192//192 193//193
f 194//194 193//193 192//192
f 193//193 194//194 195//195
f 196//196 195//195 194//194
f 196//196 148//148 197//197
f 148//148 150//150 197//197
f 131//131 165//165 167//167
f 196//196 197//197 195//195

