mtllib material.mtl
usemtl material_0_0
v 0.22912300 -0.07202100 0.31327600
v 0.24720900 -0.04845200 0.29994100
v 0.22912300 -0.07202100 0.29994100
v 0.24720900 -0.04845200 0.31327600
v 0.24720900 -0.04845200 0.31327600
v 0.22912300 -0.07202100 0.31327600
v 0.24720900 -0.04845200 0.29994100
v 0.22912300 -0.07202100 0.29994100
v 0.25857800 -0.02100500 0.29994100
v 0.25857800 -0.02100500 0.31327600
v 0.25857800 -0.02100500 0.31327600
v 0.25857800 -0.02100500 0.29994100
v 0.20555400 -0.09010700 0.29994100
v 0.20555400 -0.09010700 0.31327600
v 0.20555400 -0.09010700 0.31327600
v 0.20555400 -0.09010700 0.29994100
v 0.26245500 0.00844900 0.29994100
v 0.26245500 0.00844900 0.31327600
v 0.26245500 0.00844900 0.31327600
v 0.26245500 0.00844900 0.29994100
v 0.17810700 -0.10147500 0.29994100
v 0.17810700 -0.10147500 0.31327600
v 0.17810700 -0.10147500 0.31327600
v 0.17810700 -0.10147500 0.29994100
v 0.25857800 0.03790400 0.29994100
v 0.25857800 0.03790400 0.31327600
v 0.25857800 0.03790400 0.31327600
v 0.25857800 0.03790400 0.29994100
v 0.14865300 -0.10535300 0.29994100
v 0.14865300 -0.10535300 0.31327600
v 0.14865300 -0.10535300 0.31327600
v 0.14865300 -0.10535300 0.29994100
v 0.24720900 0.06535100 0.29994100
v 0.24720900 0.06535100 0.31327600
v 0.24720900 0.06535100 0.31327600
v 0.24720900 0.06535100 0.29994100
v 0.11919900 -0.10147500 0.29994100
v 0.11919900 -0.10147500 0.31327600
v 0.11919900 -0.10147500 0.31327600
v 0.11919900 -0.10147500 0.29994100
v 0.22912300 0.08892000 0.29994100
v 0.22912300 0.08892000 0.31327600
v 0.22912300 0.08892000 0.31327600
v 0.22912300 0.08892000 0.29994100
v 0.09175200 -0.09010700 0.29994100
v 0.09175200 -0.09010700 0.31327600
v 0.09175200 -0.09010700 0.31327600
v 0.09175200 -0.09010700 0.29994100
v 0.20555400 0.10700600 0.31327600
v 0.20555400 0.10700600 0.29994100
v 0.20555400 0.10700600 0.29994100
v 0.20555400 0.10700600 0.31327600
v 0.06818200 -0.07202100 0.29994100
v 0.06818200 -0.07202100 0.31327600
v 0.06818200 -0.07202100 0.31327600
v 0.06818200 -0.07202100 0.29994100
v 0.17810700 0.11837400 0.31327600
v 0.17810700 0.11837400 0.29994100
v 0.17810700 0.11837400 0.29994100
v 0.17810700 0.11837400 0.31327600
v 0.05009700 -0.04845200 0.31327600
v 0.05009700 -0.04845200 0.29994100
v 0.05009700 -0.04845200 0.31327600
v 0.05009700 -0.04845200 0.29994100
v 0.14865300 0.12225200 0.31327600
v 0.14865300 0.12225200 0.29994100
v 0.14865300 0.12225200 0.29994100
v 0.14865300 0.12225200 0.31327600
v 0.03872800 -0.02100500 0.31327600
v 0.03872800 -0.02100500 0.29994100
v 0.03872800 -0.02100500 0.31327600
v 0.03872800 -0.02100500 0.29994100
v 0.11919900 0.11837400 0.31327600
v 0.11919900 0.11837400 0.29994100
v 0.11919900 0.11837400 0.29994100
v 0.11919900 0.11837400 0.31327600
v 0.03485000 0.00844900 0.31327600
v 0.03485000 0.00844900 0.29994100
v 0.03485000 0.00844900 0.31327600
v 0.03485000 0.00844900 0.29994100
v 0.09175200 0.10700600 0.31327600
v 0.09175200 0.10700600 0.29994100
v 0.09175200 0.10700600 0.29994100
v 0.09175200 0.10700600 0.31327600
v 0.03872800 0.03790400 0.31327600
v 0.03872800 0.03790400 0.29994100
v 0.03872800 0.03790400 0.31327600
v 0.03872800 0.03790400 0.29994100
v 0.06818200 0.08892000 0.31327600
v 0.06818200 0.08892000 0.29994100
v 0.06818200 0.08892000 0.29994100
v 0.06818200 0.08892000 0.31327600
v 0.05009700 0.06535100 0.31327600
v 0.05009700 0.06535100 0.29994100
v 0.05009700 0.06535100 0.31327600
v 0.05009700 0.06535100 0.29994100
vn -0.70710678 0.70710678 0.00000000
vn -0.86602540 0.50000000 0.00000000
vn -0.70710678 0.70710678 0.00000000
vn -0.86602540 0.50000000 0.00000000
vn 0.86602540 -0.50000000 0.00000000
vn 0.70710678 -0.70710678 0.00000000
vn 0.86602540 -0.50000000 0.00000000
vn 0.70710678 -0.70710678 0.00000000
vn -0.96592584 0.25881901 0.00000000
vn -0.96592584 0.25881901 0.00000000
vn 0.96592584 -0.25881901 0.00000000
vn 0.96592584 -0.25881901 0.00000000
vn -0.50000000 0.86602540 0.00000000
vn -0.50000000 0.86602540 0.00000000
vn 0.50000000 -0.86602540 0.00000000
vn 0.50000000 -0.86602540 0.00000000
vn -1.00000000 0.00000000 0.00000000
vn -1.00000000 0.00000000 0.00000000
vn 1.00000000 0.00000000 0.00000000
vn 1.00000000 0.00000000 0.00000000
vn -0.25881901 0.96592584 0.00000000
vn -0.25881901 0.96592584 0.00000000
vn 0.25881901 -0.96592584 0.00000000
vn 0.25881901 -0.96592584 0.00000000
vn -0.96592584 -0.25881901 0.00000000
vn -0.96592584 -0.25881901 0.00000000
vn 0.96592584 0.25881901 0.00000000
vn 0.96592584 0.25881901 0.00000000
vn 0.00000000 1.00000000 0.00000000
vn 0.00000000 1.00000000 0.00000000
vn 0.00000000 -1.00000000 0.00000000
vn 0.00000000 -1.00000000 0.00000000
vn -0.86602540 -0.50000000 0.00000000
vn -0.86602540 -0.50000000 0.00000000
vn 0.86602540 0.50000000 0.00000000
vn 0.86602540 0.50000000 0.00000000
vn 0.25881901 0.96592584 0.00000000
vn 0.25881901 0.96592584 0.00000000
vn -0.25881901 -0.96592584 0.00000000
vn -0.25881901 -0.96592584 0.00000000
vn -0.70710678 -0.70710678 0.00000000
vn -0.70710678 -0.70710678 0.00000000
vn 0.70710678 0.70710678 0.00000000
vn 0.70710678 0.70710678 0.00000000
vn 0.50000000 0.86602540 0.00000000
vn 0.50000000 0.86602540 0.00000000
vn -0.50000000 -0.86602540 0.00000000
vn -0.50000000 -0.86602540 0.00000000
vn -0.50000000 -0.86602540 0.00000000
vn -0.50000000 -0.86602540 0.00000000
vn 0.50000000 0.86602540 0.00000000
vn 0.50000000 0.86602540 0.00000000
vn 0.70710678 0.70710678 0.00000000
vn 0.70710678 0.70710678 0.00000000
vn -0.70710678 -0.70710678 0.00000000
vn -0.70710678 -0.70710678 0.00000000
vn -0.25881901 -0.96592584 0.00000000
vn -0.25881901 -0.96592584 0.00000000
vn 0.25881901 0.96592584 0.00000000
vn 0.25881901 0.96592584 0.00000000
vn 0.86602540 0.50000000 0.00000000
vn 0.86602540 0.50000000 0.00000000
vn -0.86602540 -0.50000000 0.00000000
vn -0.86602540 -0.50000000 0.00000000
vn 0.00000000 -1.00000000 0.00000000
vn 0.00000000 -1.00000000 0.00000000
vn 0.00000000 1.00000000 0.00000000
vn 0.00000000 1.00000000 0.00000000
vn 0.96592584 0.25881901 0.00000000
vn 0.96592584 0.25881901 0.00000000
vn -0.96592584 -0.25881901 0.00000000
vn -0.96592584 -0.25881901 0.00000000
vn 0.25881901 -0.96592584 0.00000000
vn 0.25881901 -0.96592584 0.00000000
vn -0.25881901 0.96592584 0.00000000
vn -0.25881901 0.96592584 0.00000000
vn 1.00000000 0.00000000 0.00000000
vn 1.00000000 0.00000000 0.00000000
vn -1.00000000 0.00000000 0.00000000
vn -1.00000000 0.00000000 0.00000000
vn 0.50000000 -0.86602540 0.00000000
vn 0.50000000 -0.86602540 0.00000000
vn -0.50000000 0.86602540 0.00000000
vn -0.50000000 0.86602540 0.00000000
vn 0.96592584 -0.25881901 0.00000000
vn 0.96592584 -0.25881901 0.00000000
vn -0.96592584 0.25881901 0.00000000
vn -0.96592584 0.25881901 0.00000000
vn 0.70710678 -0.70710678 0.00000000
vn 0.70710678 -0.70710678 0.00000000
vn -0.70710678 0.70710678 0.00000000
vn -0.70710678 0.70710678 0.00000000
vn 0.86602540 -0.50000000 0.00000000
vn 0.86602540 -0.50000000 0.00000000
vn -0.86602540 0.50000000 0.00000000
vn -0.86602540 0.50000000 0.00000000
f 1//1 2//2 3//3
f 2//2 1//1 4//4
f 5//5 6//6 7//7
f 8//8 7//7 6//6
f 4//4 9//9 2//2
f 9//9 4//4 10//10
f 11//11 5//5 12//12
f 7//7 12//12 5//5
f 13//13 1//1 3//3
f 1//1 13//13 14//14
f 15//15 16//16 6//6
f 8//8 6//6 16//16
f 10//10 17//17 9//9
f 17//17 10//10 18//18
f 19//19 11//11 20//20
f 12//12 20//20 11//11
f 21//21 14//14 13//13
f 14//14 21//21 22//22
f 23//23 24//24 15//15
f 16//16 15//15 24//24
f 18//18 25//25 17//17
f 25//25 18//18 26//26
f 27//27 19//19 28//28
f 20//20 28//28 19//19
f 29//29 22//22 21//21
f 22//22 29//29 30//30
f 31//31 32//32 23//23
f 24//24 23//23 32//32
f 26//26 33//33 25//25
f 33//33 26//26 34//34
f 35//35 27//27 36//36
f 28//28 36//36 27//27
f 37//37 30//30 29//29
f 30//30 37//37 38//38
f 39//39 40//40 31//31
f 32//32 31//31 40//40
f 34//34 41//41 33//33
f 41//41 34//34 42//42
f 43//43 35//35 44//44
f 36//36 44//44 35//35
f 45//45 38//38 37//37
f 38//38 45//45 46//46
f 47//47 48//48 39//39
f 40//40 39//39 48//48
f 49//49 41//41 42//42
f 41//41 49//49 50//50
f 51//51 52//52 44//44
f 43//43 44//44 52//52
f 53//53 46//46 45//45
f 46//46 53//53 54//54
f 55//55 56//56 47//47
f 48//48 47//47 56//56
f 57//57 50//50 49//49
f 50//50 57//57 58//58
f 59//59 60//60 51//51
f 52//52 51//51 60//60
f 61//61 53//53 62//62
f 53//53 61//61 54//54
f 55//55 63//63 56//56
f 64//64 56//56 63//63
f 65//65 58//58 57//57
f 58//58 65//65 66//66
f 67//67 68//68 59//59
f 60//60 59//59 68//68
f 69//69 62//62 70//70
f 62//62 69//69 61//61
f 63//63 71//71 64//64
f 72//72 64//64 71//71
f 73//73 66//66 65//65
f 66//66 73//73 74//74
f 75//75 76//76 67//67
f 68//68 67//67 76//76
f 77//77 70//70 78//78
f 70//70 77//77 69//69
f 71//71 79//79 72//72
f 80//80 72//72 79//79
f 81//81 74//74 73//73
f 74//74 81//81 82//82
f 83//83 84//84 75//75
f 76//76 75//75 84//84
f 85//85 78//78 86//86
f 78//78 85//85 77//77
f 79//79 87//87 80//80
f 88//88 80//80 87//87
f 89//89 82//82 81//81
f 82//82 89//89 90//90
f 91//91 92//92 83//83
f 84//84 83//83 92//92
f 93//93 86//86 94//94
f 86//86 93//93 85//85
f 87//87 95//95 88//88
f 96//96 88//88 95//95
f 89//89 94//94 90//90
f 94//94 89//89 93//93
f 95//95 92//92 96//96
f 91//91 96//96 92//92

