mtllib material.mtl
usemtl material_0_0
v 0.08776000 -0.05244300 0.24659800
v 0.08776000 -0.05244300 0.20659100
v 0.10559500 -0.06612900 0.24659800
v 0.10559500 -0.06612900 0.20659100
v 0.09754900 -0.04265500 0.11324100
v 0.11251700 -0.05414000 0.11324100
v 0.07407400 -0.03460800 0.24659800
v 0.07407400 -0.03460800 0.20659100
v 0.12636400 -0.07473200 0.24659800
v 0.12636400 -0.07473200 0.20659100
v 0.08606300 -0.02768700 0.11324100
v 0.12994700 -0.06136000 0.11324100
v 0.06547100 -0.01383900 0.24659800
v 0.06547100 -0.01383900 0.20659100
v 0.14865300 -0.07766600 0.24659800
v 0.14865300 -0.07766600 0.20659100
v 0.07884300 -0.01025600 0.11324100
v 0.14865300 -0.06382300 0.11324100
v 0.06253700 0.00844900 0.24659800
v 0.06253700 0.00844900 0.20659100
v 0.17094100 -0.07473200 0.24659800
v 0.17094100 -0.07473200 0.20659100
v 0.07638100 0.00844900 0.11324100
v 0.16735800 -0.06136000 0.11324100
v 0.06547100 0.03073800 0.24659800
v 0.06547100 0.03073800 0.20659100
v 0.19171000 -0.06612900 0.24659800
v 0.19171000 -0.06612900 0.20659100
v 0.07884300 0.02715500 0.11324100
v 0.18478900 -0.05414000 0.11324100
v 0.07407400 0.05150700 0.24659800
v 0.07407400 0.05150700 0.20659100
v 0.20954600 -0.05244300 0.24659800
v 0.20954600 -0.05244300 0.20659100
v 0.08606300 0.04458600 0.11324100
v 0.19975700 -0.04265500 0.11324100
v 0.08776000 0.06934200 0.24659800
v 0.08776000 0.06934200 0.20659100
v 0.22323100 -0.03460800 0.24659800
v 0.22323100 -0.03460800 0.20659100
v 0.09754900 0.05955300 0.11324100
v 0.21124200 -0.02768700 0.11324100
v 0.10559500 0.08302800 0.20659100
v 0.10559500 0.08302800 0.24659800
v 0.23183400 -0.01383900 0.24659800
v 0.23183400 -0.01383900 0.20659100
v 0.11251700 0.07103900 0.11324100
v 0.21846200 -0.01025600 0.11324100
v 0.12636400 0.09163100 0.20659100
v 0.12636400 0.09163100 0.24659800
v 0.23476800 0.00844900 0.24659800
v 0.23476800 0.00844900 0.20659100
v 0.12994700 0.07825900 0.11324100
v 0.22092500 0.00844900 0.11324100
v 0.14865300 0.09456500 0.20659100
v 0.14865300 0.09456500 0.24659800
v 0.23183400 0.03073800 0.24659800
v 0.23183400 0.03073800 0.20659100
v 0.14865300 0.08072200 0.11324100
v 0.21846200 0.02715500 0.11324100
v 0.17094100 0.09163100 0.20659100
v 0.17094100 0.09163100 0.24659800
v 0.22323100 0.05150700 0.24659800
v 0.22323100 0.05150700 0.20659100
v 0.16735800 0.07825900 0.11324100
v 0.21124200 0.04458600 0.11324100
v 0.19171000 0.08302800 0.20659100
v 0.19171000 0.08302800 0.24659800
v 0.20954600 0.06934200 0.24659800
v 0.20954600 0.06934200 0.20659100
v 0.18478900 0.07103900 0.11324100
v 0.19975700 0.05955300 0.11324100
vn -0.70710678 -0.70710678 0.00000000
vn -0.70521492 -0.70521492 -0.07310159
vn -0.50000000 -0.86602540 0.00000000
vn -0.49866219 -0.86370839 -0.07310159
vn -0.69945731 -0.69945731 -0.14669340
vn -0.49459102 -0.85665674 -0.14669341
vn -0.86602540 -0.50000000 0.00000000
vn -0.86370839 -0.49866219 -0.07310159
vn -0.25881901 -0.96592584 0.00000000
vn -0.25812660 -0.96334149 -0.07310159
vn -0.85665674 -0.49459102 -0.14669341
vn -0.25601911 -0.95547646 -0.14669341
vn -0.96592584 -0.25881901 0.00000000
vn -0.96334149 -0.25812660 -0.07310159
vn 0.00000000 -1.00000000 0.00000000
vn 0.00000000 -0.99732450 -0.07310159
vn -0.95547646 -0.25601911 -0.14669341
vn 0.00000000 -0.98918201 -0.14669340
vn -1.00000000 0.00000000 0.00000000
vn -0.99732450 0.00000000 -0.07310159
vn 0.25881901 -0.96592584 0.00000000
vn 0.25812660 -0.96334149 -0.07310159
vn -0.98918201 0.00000000 -0.14669340
vn 0.25601911 -0.95547646 -0.14669341
vn -0.96592584 0.25881901 0.00000000
vn -0.96334149 0.25812660 -0.07310159
vn 0.50000000 -0.86602540 0.00000000
vn 0.49866219 -0.86370839 -0.07310159
vn -0.95547646 0.25601911 -0.14669341
vn 0.49459102 -0.85665674 -0.14669341
vn -0.86602540 0.50000000 0.00000000
vn -0.86370839 0.49866219 -0.07310159
vn 0.70710678 -0.70710678 0.00000000
vn 0.70521492 -0.70521492 -0.07310159
vn -0.85665674 0.49459102 -0.14669341
vn 0.69945731 -0.69945731 -0.14669340
vn -0.70710678 0.70710678 0.00000000
vn -0.70521492 0.70521492 -0.07310159
vn 0.86602540 -0.50000000 0.00000000
vn 0.86370839 -0.49866219 -0.07310159
vn -0.69945731 0.69945731 -0.14669340
vn 0.85665674 -0.49459102 -0.14669341
vn -0.49866219 0.86370839 -0.07310159
vn -0.50000000 0.86602540 0.00000000
vn 0.96592584 -0.25881901 0.00000000
vn 0.96334149 -0.25812660 -0.07310159
vn -0.49459102 0.85665674 -0.14669341
vn 0.95547646 -0.25601911 -0.14669341
vn -0.25812660 0.96334149 -0.07310159
vn -0.25881901 0.96592584 0.00000000
vn 1.00000000 0.00000000 0.00000000
vn 0.99732450 0.00000000 -0.07310159
vn -0.25601911 0.95547646 -0.14669341
vn 0.98918201 0.00000000 -0.14669340
vn 0.00000000 0.99732450 -0.07310159
vn 0.00000000 1.00000000 0.00000000
vn 0.96592584 0.25881901 0.00000000
vn 0.96334149 0.25812660 -0.07310159
vn 0.00000000 0.98918201 -0.14669340
vn 0.95547646 0.25601911 -0.14669341
vn 0.25812660 0.96334149 -0.07310159
vn 0.25881901 0.96592584 0.00000000
vn 0.86602540 0.50000000 0.00000000
vn 0.86370839 0.49866219 -0.07310159
vn 0.25601911 0.95547646 -0.14669341
vn 0.85665674 0.49459102 -0.14669341
vn 0.49866219 0.86370839 -0.07310159
vn 0.50000000 0.86602540 0.00000000
vn 0.70710678 0.70710678 0.00000000
vn 0.70521492 0.70521492 -0.07310159
vn 0.49459102 0.85665674 -0.14669341
vn 0.69945731 0.69945731 -0.14669340
f 1//1 2//2 3//3
f 4//4 3//3 2//2
f 2//2 5//5 4//4
f 6//6 4//4 5//5
f 1//1 7//7 2//2
f 8//8 2//2 7//7
f 3//3 4//4 9//9
f 10//10 9//9 4//4
f 2//2 8//8 5//5
f 11//11 5//5 8//8
f 4//4 6//6 10//10
f 12//12 10//10 6//6
f 7//7 13//13 8//8
f 14//14 8//8 13//13
f 9//9 10//10 15//15
f 16//16 15//15 10//10
f 8//8 14//14 11//11
f 17//17 11//11 14//14
f 10//10 12//12 16//16
f 18//18 16//16 12//12
f 13//13 19//19 14//14
f 20//20 14//14 19//19
f 15//15 16//16 21//21
f 22//22 21//21 16//16
f 14//14 20//20 17//17
f 23//23 17//17 20//20
f 18//18 24//24 16//16
f 22//22 16//16 24//24
f 19//19 25//25 20//20
f 26//26 20//20 25//25
f 21//21 22//22 27//27
f 28//28 27//27 22//22
f 20//20 26//26 23//23
f 29//29 23//23 26//26
f 24//24 30//30 22//22
f 28//28 22//22 30//30
f 25//25 31//31 26//26
f 32//32 26//26 31//31
f 27//27 28//28 33//33
f 34//34 33//33 28//28
f 26//26 32//32 29//29
f 35//35 29//29 32//32
f 30//30 36//36 28//28
f 34//34 28//28 36//36
f 31//31 37//37 32//32
f 38//38 32//32 37//37
f 39//39 33//33 40//40
f 34//34 40//40 33//33
f 32//32 38//38 35//35
f 41//41 35//35 38//38
f 40//40 34//34 42//42
f 36//36 42//42 34//34
f 38//38 37//37 43//43
f 44//44 43//43 37//37
f 45//45 39//39 46//46
f 40//40 46//46 39//39
f 38//38 43//43 41//41
f 47//47 41//41 43//43
f 46//46 40//40 48//48
f 42//42 48//48 40//40
f 43//43 44//44 49//49
f 50//50 49//49 44//44
f 51//51 45//45 52//52
f 46//46 52//52 45//45
f 43//43 49//49 47//47
f 53//53 47//47 49//49
f 52//52 46//46 54//54
f 48//48 54//54 46//46
f 49//49 50//50 55//55
f 56//56 55//55 50//50
f 57//57 51//51 58//58
f 52//52 58//58 51//51
f 53//53 49//49 59//59
f 55//55 59//59 49//49
f 58//58 52//52 60//60
f 54//54 60//60 52//52
f 55//55 56//56 61//61
f 62//62 61//61 56//56
f 63//63 57//57 64//64
f 58//58 64//64 57//57
f 59//59 55//55 65//65
f 61//61 65//65 55//55
f 64//64 58//58 66//66
f 60//60 66//66 58//58
f 61//61 62//62 67//67
f 68//68 67//67 62//62
f 69//69 63//63 70//70
f 64//64 70//70 63//63
f 65//65 61//61 71//71
f 67//67 71//71 61//61
f 70//70 64//64 72//72
f 66//66 72//72 64//64
f 67//67 68//68 70//70
f 69//69 70//70 68//68
f 71//71 67//67 72//72
f 70//70 72//72 67//67

