# Blender v2.79 (sub 0) OBJ File: ''
# www.blender.org
mtllib original-85.mtl
o original-85
v -0.513559 -0.401214 -0.407698
v -0.512517 -0.401132 -0.409652
v -0.511499 -0.400888 -0.409652
v -0.511499 -0.400888 -0.409652
v -0.512517 -0.401132 -0.409652
v -0.513559 -0.401214 -0.407698
v -0.513791 -0.400245 -0.407781
v -0.512749 -0.400163 -0.409735
v -0.511731 -0.399919 -0.409735
v -0.511731 -0.399919 -0.409735
v -0.512749 -0.400163 -0.409735
v -0.513791 -0.400245 -0.407781
vn -0.3834 -0.5871 0.7130
vn -0.2451 -0.7394 -0.6270
vn 0.8899 -0.3732 -0.2623
vn 0.8899 -0.3734 -0.2622
vn -0.3833 -0.5872 0.7129
vn -0.2445 -0.7392 -0.6275
vn -0.6335 0.4580 0.6236
vn 0.6358 0.6860 -0.3537
vn -0.5269 0.4381 -0.7283
vn 0.6357 0.6861 -0.3538
vn -0.5276 0.4378 -0.7280
vn -0.6334 0.4582 0.6235
usemtl material_0_0.018
s 1
f 1//1 2//2 3//3
f 4//4 6//5 5//6
f 7//7 9//8 8//9
f 10//10 11//11 12//12
f 5//6 6//5 12//12 11//11
f 6//5 4//4 10//10 12//12
f 3//3 2//2 8//9 9//8
f 2//2 1//1 7//7 8//9
f 4//4 5//6 11//11 10//10
f 1//1 3//3 9//8 7//7
