mtllib material.mtl
usemtl material_0_0
v -0.05168600 0.15934900 0.61631900
v -0.08640700 0.15809600 0.61514700
v -0.05165300 0.15923100 0.61671500
v -0.05226500 0.16298300 0.60441300
v -0.05226500 0.18541600 0.53141600
v -0.05226500 0.18541600 0.53141600
v -0.05226500 0.16298300 0.60441300
v -0.08640700 0.15809600 0.61514700
v -0.05168600 0.15934900 0.61631900
v -0.05165300 0.15923100 0.61671500
v -0.03442500 0.14401200 0.66993100
v -0.17289000 0.06874500 0.89782900
v -0.03373000 0.14379300 0.67059400
v -0.03757300 0.14494300 0.66619800
v -0.04554500 0.14956400 0.64966900
v -0.05055600 0.15520400 0.63022300
v -0.17289000 0.06874500 0.89782900
v -0.05055600 0.15520400 0.63022300
v -0.04554500 0.14956400 0.64966900
v -0.03757300 0.14494300 0.66619800
v -0.03442500 0.14401200 0.66993100
v -0.03373000 0.14379300 0.67059400
v -0.08481200 0.22156600 0.40744400
v -0.00279800 0.22499900 0.41009900
v -0.00210300 0.22555400 0.40839500
v -0.01508600 0.22389600 0.41162900
v -0.02718400 0.22125400 0.41823400
v -0.03757300 0.21731600 0.42937900
v -0.04554500 0.21234900 0.44430300
v -0.05055600 0.20669200 0.46198900
v -0.05082500 0.20575500 0.46501400
v -0.05226500 0.19808800 0.48989300
v -0.08481200 0.22156600 0.40744400
v -0.05226500 0.19808800 0.48989300
v -0.05082500 0.20575500 0.46501400
v -0.05055600 0.20669200 0.46198900
v -0.04554500 0.21234900 0.44430300
v -0.03757300 0.21731600 0.42937900
v -0.02718400 0.22125400 0.41823400
v -0.01508600 0.22389600 0.41162900
v -0.00279800 0.22499900 0.41009900
v -0.00210300 0.22555400 0.40839500
v -0.01508600 0.13967400 0.68306800
v -0.00210300 0.06874500 0.89782900
v -0.00210300 0.13897200 0.68519300
v -0.02718400 0.14173100 0.67683800
v -0.02718400 0.14173100 0.67683800
v -0.01508600 0.13967400 0.68306800
v -0.00210300 0.06874500 0.89782900
v -0.00210300 0.13897200 0.68519300
v -0.25078800 0.06874500 0.88757300
v -0.25078800 0.06874500 0.88757300
v -0.00210300 0.28648800 0.19671800
v -0.07588100 0.28293500 0.19692500
v -0.07588100 0.28293500 0.19692500
v -0.00210300 0.28648800 0.19671800
v -0.16966900 0.14987000 0.60378600
v -0.16966900 0.14987000 0.60378600
v -0.00210300 0.06874500 0.89782900
v -0.17289000 0.03618800 0.89782900
v -0.00210300 0.03618800 0.89782900
v -0.17289000 0.06874500 0.89782900
v -0.17289000 0.06874500 0.89782900
v -0.00210300 0.06874500 0.89782900
v -0.17289000 0.03618800 0.89782900
v -0.00210300 0.03618800 0.89782900
v -0.32337700 0.06874500 0.85750600
v -0.32337700 0.06874500 0.85750600
v -0.25078800 0.03618800 0.88757300
v -0.25078800 0.06874500 0.88757300
v -0.25078800 0.06874500 0.88757300
v -0.25078800 0.03618800 0.88757300
v -0.16671100 0.20963900 0.40460000
v -0.16671100 0.20963900 0.40460000
v -0.00210300 0.32500500 0.05501000
v -0.00210300 0.32500500 0.05501000
v -0.32337700 0.03618800 0.85750600
v -0.32337700 0.06874500 0.85750600
v -0.32337700 0.06874500 0.85750600
v -0.32337700 0.03618800 0.85750600
v -0.14897400 0.27230800 0.19754300
v -0.14897400 0.27230800 0.19754300
v -0.10003500 0.31797100 0.06143700
v -0.10003500 0.31797100 0.06143700
v -0.25085900 0.13627200 0.58500600
v -0.25085900 0.13627200 0.58500600
v -0.38571100 0.06874500 0.80967500
v -0.38571100 0.06874500 0.80967500
v -0.38571100 0.03618800 0.80967500
v -0.38571100 0.06874500 0.80967500
v -0.38571100 0.06874500 0.80967500
v -0.38571100 0.03618800 0.80967500
v -0.24699500 0.18989100 0.39989100
v -0.24699500 0.18989100 0.39989100
v -0.43354100 0.06874500 0.74734100
v -0.43354100 0.03618800 0.74734100
v -0.43354100 0.06874500 0.74734100
v -0.43354100 0.03618800 0.74734100
v -0.19429400 0.29713300 0.08047900
v -0.19429400 0.29713300 0.08047900
v -0.22070400 0.25470700 0.19856700
v -0.22070400 0.25470700 0.19856700
v -0.32897100 0.11747200 0.55904000
v -0.32897100 0.11747200 0.55904000
v -0.43354100 0.06874500 0.74734100
v -0.43354100 0.06874500 0.74734100
v -0.46360800 0.06874500 0.67475200
v -0.46360800 0.03618800 0.67475200
v -0.46360800 0.06874500 0.67475200
v -0.46360800 0.03618800 0.67475200
v -0.32487700 0.16251600 0.39336200
v -0.32487700 0.16251600 0.39336200
v -0.46360800 0.06874500 0.67475200
v -0.46360800 0.06874500 0.67475200
v -0.47386400 0.06874500 0.59685400
v -0.47386400 0.03618800 0.59685400
v -0.47386400 0.06874500 0.59685400
v -0.47386400 0.03618800 0.59685400
v -0.28134400 0.26327200 0.11142200
v -0.28134400 0.26327200 0.11142200
v -0.29040300 0.23029400 0.19998700
v -0.29040300 0.23029400 0.19998700
v -0.40304100 0.09370100 0.52620900
v -0.40304100 0.09370100 0.52620900
v -0.47386400 0.06874500 0.59685400
v -0.47386400 0.06874500 0.59685400
v -0.47215300 0.06525400 0.48692000
v -0.47215300 0.06525400 0.48692000
v -0.39959400 0.12778100 0.38507900
v -0.39959400 0.12778100 0.38507900
v -0.47215300 0.06525400 0.48692000
v -0.47215300 0.06525400 0.48692000
v -0.35791800 0.21765900 0.15310300
v -0.35791800 0.21765900 0.15310300
v -0.35742400 0.19929700 0.20179100
v -0.35742400 0.19929700 0.20179100
v -0.47041300 0.08602800 0.37512200
v -0.47041300 0.08602800 0.37512200
v -0.42114500 0.16200400 0.20396000
v -0.42114500 0.16200400 0.20396000
vn -0.04440519 0.95493708 0.29346779
vn -0.07976655 0.95655615 0.28042401
vn -0.04447376 0.95572250 0.29088930
vn -0.04440519 0.95493708 0.29346779
vn -0.04882975 0.95524346 0.29176289
vn 0.04882975 -0.95524346 -0.29176289
vn 0.04440519 -0.95493708 -0.29346779
vn 0.07976655 -0.95655615 -0.28042401
vn 0.04440519 -0.95493708 -0.29346779
vn 0.04447376 -0.95572250 -0.29088930
vn -0.04453297 0.95639821 0.28865080
vn -0.02552280 0.95409205 0.29842411
vn -0.02597643 0.95385227 0.29915059
vn -0.04453297 0.95639821 0.28865080
vn -0.04453297 0.95639821 0.28865080
vn -0.04453297 0.95639821 0.28865080
vn 0.02552280 -0.95409205 -0.29842411
vn 0.04453297 -0.95639821 -0.28865080
vn 0.04453297 -0.95639821 -0.28865080
vn 0.04453297 -0.95639821 -0.28865080
vn 0.04453297 -0.95639821 -0.28865080
vn 0.02597643 -0.95385227 -0.29915059
vn -0.09795318 0.95465299 0.28114560
vn -0.04942070 0.95528277 0.29153459
vn -0.04843570 0.95781167 0.28328569
vn -0.04942070 0.95528277 0.29153459
vn -0.04942070 0.95528277 0.29153459
vn -0.04942070 0.95528277 0.29153459
vn -0.04942070 0.95528277 0.29153459
vn -0.04942070 0.95528277 0.29153459
vn -0.04942070 0.95528277 0.29153459
vn -0.04942070 0.95528277 0.29153459
vn 0.09795318 -0.95465299 -0.28114560
vn 0.04942070 -0.95528277 -0.29153459
vn 0.04942070 -0.95528277 -0.29153459
vn 0.04942070 -0.95528277 -0.29153459
vn 0.04942070 -0.95528277 -0.29153459
vn 0.04942070 -0.95528277 -0.29153459
vn 0.04942070 -0.95528277 -0.29153459
vn 0.04942070 -0.95528277 -0.29153459
vn 0.04942070 -0.95528277 -0.29153459
vn 0.04843570 -0.95781167 -0.28328569
vn 0.00000000 0.94955323 0.31360591
vn 0.00000000 0.94955323 0.31360591
vn 0.00000000 0.94955323 0.31360591
vn 0.00000000 0.94955323 0.31360591
vn 0.00000000 -0.94955323 -0.31360591
vn 0.00000000 -0.94955323 -0.31360591
vn 0.00000000 -0.94955323 -0.31360591
vn 0.00000000 -0.94955323 -0.31360591
vn -0.07765363 0.96025863 0.26809191
vn 0.07765363 -0.96025863 -0.26809191
vn -0.04667893 0.96188580 0.26943790
vn -0.08978437 0.95840449 0.27092360
vn 0.08978437 -0.95840449 -0.27092360
vn 0.04667893 -0.96188580 -0.26943790
vn -0.16361971 0.95522384 0.24652791
vn 0.16361971 -0.95522384 -0.24652791
vn 0.00000000 0.00000000 1.00000000
vn -0.06540313 0.00000000 0.99785892
vn 0.00000000 0.00000000 1.00000000
vn -0.06540313 0.00000000 0.99785892
vn 0.06540313 0.00000000 -0.99785892
vn 0.00000000 0.00000000 -1.00000000
vn 0.06540313 0.00000000 -0.99785892
vn 0.00000000 0.00000000 -1.00000000
vn -0.13521220 0.96383082 0.22966891
vn 0.13521220 -0.96383082 -0.22966891
vn -0.25881901 0.00000000 0.96592584
vn -0.25881901 0.00000000 0.96592584
vn 0.25881901 0.00000000 -0.96592584
vn 0.25881901 0.00000000 -0.96592584
vn -0.19554079 0.94243177 0.27126769
vn 0.19554079 -0.94243177 -0.27126769
vn -0.05024233 0.96436423 0.25976401
vn 0.05024233 -0.96436423 -0.25976401
vn -0.50000000 0.00000000 0.86602540
vn -0.50000000 0.00000000 0.86602540
vn 0.50000000 0.00000000 -0.86602540
vn 0.50000000 0.00000000 -0.86602540
vn -0.17787251 0.94510255 0.27412141
vn 0.17787251 -0.94510255 -0.27412141
vn -0.10165570 0.95957598 0.26245010
vn 0.10165570 -0.95957598 -0.26245010
vn -0.24205471 0.94797794 0.20675431
vn 0.24205471 -0.94797794 -0.20675431
vn -0.18616440 0.96459059 0.18683630
vn 0.18616440 -0.96459059 -0.18683630
vn -0.70710678 0.00000000 0.70710678
vn -0.70710678 0.00000000 0.70710678
vn 0.70710678 0.00000000 -0.70710678
vn 0.70710678 0.00000000 -0.70710678
vn -0.29105069 0.92199866 0.25535849
vn 0.29105069 -0.92199866 -0.25535849
vn -0.86602540 0.00000000 0.50000000
vn -0.86602540 0.00000000 0.50000000
vn 0.86602540 0.00000000 -0.50000000
vn 0.86602540 0.00000000 -0.50000000
vn -0.20421010 0.94070880 0.27086010
vn 0.20421010 -0.94070880 -0.27086010
vn -0.26494029 0.92341376 0.27769349
vn 0.26494029 -0.92341376 -0.27769349
vn -0.31356489 0.93595797 0.16018659
vn 0.31356489 -0.93595797 -0.16018659
vn -0.23217529 0.96287708 0.13770390
vn 0.23217529 -0.96287708 -0.13770390
vn -0.96592584 0.00000000 0.25881901
vn -0.96592584 0.00000000 0.25881901
vn 0.96592584 0.00000000 -0.25881901
vn 0.96592584 0.00000000 -0.25881901
vn -0.38368180 0.89370839 0.23253730
vn 0.38368180 -0.89370839 -0.23253730
vn -0.27507421 0.95780994 0.08327246
vn 0.27507421 -0.95780994 -0.08327246
vn -0.99829422 0.00000000 0.05838365
vn -0.99793705 0.00000000 0.06420000
vn 0.99829422 0.00000000 -0.05838365
vn 0.99793705 0.00000000 -0.06420000
vn -0.30593410 0.90782791 0.28679750
vn 0.30593410 -0.90782791 -0.28679750
vn -0.35038210 0.89347151 0.28096450
vn 0.35038210 -0.89347151 -0.28096450
vn -0.38173330 0.91833170 0.10462590
vn 0.38173330 -0.91833170 -0.10462590
vn -0.32466799 0.94567816 0.01683767
vn 0.32466799 -0.94567816 -0.01683767
vn -0.99987889 0.00000000 -0.01556304
vn 0.99987889 0.00000000 0.01556304
vn -0.47217260 0.85823700 0.20120210
vn 0.47217260 -0.85823700 -0.20120210
vn -0.44398932 0.88987053 0.10489960
vn 0.44398932 -0.88987053 -0.10489960
vn -0.40458420 0.85974319 0.31169420
vn 0.40458420 -0.85974319 -0.31169420
vn -0.43646249 0.85423029 0.28247320
vn 0.43646249 -0.85423029 -0.28247320
vn -0.51489777 0.83884045 0.17671159
vn 0.51489777 -0.83884045 -0.17671159
vn -0.48246040 0.83899370 0.25163770
vn 0.48246040 -0.83899370 -0.25163770
f 1//1 2//2 3//3
f 2//2 1//1 4//4
f 2//2 4//4 5//5
f 6//6 7//7 8//8
f 7//7 9//9 8//8
f 10//10 8//8 9//9
f 11//11 12//12 13//13
f 12//12 11//11 14//14
f 12//12 14//14 15//15
f 12//12 15//15 16//16
f 12//12 16//16 3//3
f 12//12 3//3 2//2
f 8//8 10//10 17//17
f 10//10 18//18 17//17
f 18//18 19//19 17//17
f 19//19 20//20 17//17
f 20//20 21//21 17//17
f 22//22 17//17 21//21
f 23//23 24//24 25//25
f 24//24 23//23 26//26
f 26//26 23//23 27//27
f 27//27 23//23 28//28
f 28//28 23//23 29//29
f 29//29 23//23 30//30
f 30//30 23//23 31//31
f 31//31 23//23 32//32
f 32//32 2//2 5//5
f 2//2 32//32 23//23
f 33//33 34//34 8//8
f 6//6 8//8 34//34
f 34//34 33//33 35//35
f 35//35 33//33 36//36
f 36//36 33//33 37//37
f 37//37 33//33 38//38
f 38//38 33//33 39//39
f 39//39 33//33 40//40
f 40//40 33//33 41//41
f 42//42 41//41 33//33
f 43//43 44//44 45//45
f 44//44 43//43 12//12
f 12//12 43//43 46//46
f 12//12 46//46 13//13
f 22//22 47//47 17//17
f 47//47 48//48 17//17
f 17//17 48//48 49//49
f 50//50 49//49 48//48
f 51//51 12//12 2//2
f 8//8 17//17 52//52
f 53//53 23//23 25//25
f 23//23 53//53 54//54
f 55//55 56//56 33//33
f 42//42 33//33 56//56
f 57//57 2//2 23//23
f 33//33 8//8 58//58
f 59//59 60//60 61//61
f 60//60 59//59 62//62
f 63//63 64//64 65//65
f 66//66 65//65 64//64
f 67//67 51//51 2//2
f 8//8 52//52 68//68
f 62//62 69//69 60//60
f 69//69 62//62 70//70
f 71//71 63//63 72//72
f 65//65 72//72 63//63
f 73//73 23//23 54//54
f 55//55 33//33 74//74
f 54//54 53//53 75//75
f 76//76 56//56 55//55
f 57//57 23//23 73//73
f 74//74 33//33 58//58
f 67//67 2//2 57//57
f 58//58 8//8 68//68
f 70//70 77//77 69//69
f 77//77 70//70 78//78
f 79//79 71//71 80//80
f 72//72 80//80 71//71
f 73//73 54//54 81//81
f 82//82 55//55 74//74
f 83//83 54//54 75//75
f 76//76 55//55 84//84
f 85//85 57//57 73//73
f 74//74 58//58 86//86
f 87//87 67//67 57//57
f 58//58 68//68 88//88
f 78//78 89//89 77//77
f 89//89 78//78 90//90
f 91//91 79//79 92//92
f 80//80 92//92 79//79
f 81//81 54//54 83//83
f 84//84 55//55 82//82
f 93//93 73//73 81//81
f 82//82 74//74 94//94
f 85//85 73//73 93//93
f 94//94 74//74 86//86
f 87//87 57//57 85//85
f 86//86 58//58 88//88
f 89//89 95//95 96//96
f 95//95 89//89 90//90
f 91//91 92//92 97//97
f 98//98 97//97 92//92
f 99//99 81//81 83//83
f 84//84 82//82 100//100
f 93//93 81//81 101//101
f 102//102 82//82 94//94
f 103//103 85//85 93//93
f 94//94 86//86 104//104
f 105//105 87//87 85//85
f 86//86 88//88 106//106
f 96//96 107//107 108//108
f 107//107 96//96 95//95
f 97//97 98//98 109//109
f 110//110 109//109 98//98
f 101//101 81//81 99//99
f 100//100 82//82 102//102
f 111//111 93//93 101//101
f 102//102 94//94 112//112
f 103//103 93//93 111//111
f 112//112 94//94 104//104
f 105//105 85//85 103//103
f 104//104 86//86 106//106
f 113//113 105//105 103//103
f 104//104 106//106 114//114
f 108//108 115//115 116//116
f 115//115 108//108 107//107
f 109//109 110//110 117//117
f 118//118 117//117 110//110
f 119//119 101//101 99//99
f 100//100 102//102 120//120
f 111//111 101//101 121//121
f 122//122 102//102 112//112
f 123//123 103//103 111//111
f 112//112 104//104 124//124
f 125//125 113//113 103//103
f 104//104 114//114 126//126
f 115//115 127//127 116//116
f 118//118 128//128 117//117
f 121//121 101//101 119//119
f 120//120 102//102 122//122
f 129//129 111//111 121//121
f 122//122 112//112 130//130
f 123//123 111//111 129//129
f 130//130 112//112 124//124
f 125//125 103//103 123//123
f 124//124 104//104 126//126
f 125//125 123//123 131//131
f 132//132 124//124 126//126
f 133//133 121//121 119//119
f 120//120 122//122 134//134
f 129//129 121//121 135//135
f 136//136 122//122 130//130
f 131//131 123//123 129//129
f 130//130 124//124 132//132
f 133//133 135//135 121//121
f 122//122 136//136 134//134
f 137//137 129//129 135//135
f 136//136 130//130 138//138
f 131//131 129//129 137//137
f 138//138 130//130 132//132
f 139//139 135//135 133//133
f 134//134 136//136 140//140
f 137//137 135//135 139//139
f 140//140 136//136 138//138

