# Blender v2.79 (sub 0) OBJ File: ''
# www.blender.org
mtllib original-6_1.mtl
o original-6_1
v 0.148653 0.122252 0.300941
v 0.178107 0.118374 0.300941
v 0.119199 0.118374 0.300941
v 0.148653 0.108409 0.300941
v 0.091752 0.107006 0.300941
v 0.122781 0.105003 0.300941
v 0.098673 0.095017 0.300941
v 0.068182 0.088920 0.300941
v 0.077971 0.079131 0.300941
v 0.050097 0.065351 0.300941
v 0.062086 0.058429 0.300941
v 0.038728 0.037904 0.300941
v 0.052100 0.034321 0.300941
v 0.048694 0.008449 0.300941
v 0.034850 0.008449 0.300941
v 0.052100 -0.017422 0.300941
v 0.038728 -0.021005 0.300941
v 0.062086 -0.041530 0.300941
v 0.050097 -0.048452 0.300941
v 0.077971 -0.062232 0.300941
v 0.068182 -0.072021 0.300941
v 0.098673 -0.078117 0.300941
v 0.122781 -0.088104 0.300941
v 0.091752 -0.090107 0.300941
v 0.148653 -0.091510 0.300941
v 0.178107 -0.101475 0.300941
v 0.119199 -0.101475 0.300941
v 0.148653 -0.105353 0.300941
v 0.205554 0.107006 0.300941
v 0.174524 0.105003 0.300941
v 0.198632 0.095017 0.300941
v 0.229123 0.088920 0.300941
v 0.219335 0.079131 0.300941
v 0.247209 0.065351 0.300941
v 0.235220 0.058429 0.300941
v 0.258578 0.037904 0.300941
v 0.245206 0.034321 0.300941
v 0.262455 0.008449 0.300941
v 0.248612 0.008449 0.300941
v 0.245206 -0.017422 0.300941
v 0.258578 -0.021005 0.300941
v 0.235220 -0.041530 0.300941
v 0.247209 -0.048452 0.300941
v 0.219335 -0.062232 0.300941
v 0.229123 -0.072021 0.300941
v 0.198632 -0.078117 0.300941
v 0.174524 -0.088104 0.300941
v 0.205554 -0.090107 0.300941
v 0.148653 0.122252 0.299941
v 0.178107 0.118374 0.299941
v 0.119199 0.118374 0.299941
v 0.148653 0.108409 0.299941
v 0.091752 0.107006 0.299941
v 0.122781 0.105003 0.299941
v 0.098673 0.095017 0.299941
v 0.068182 0.088920 0.299941
v 0.077971 0.079131 0.299941
v 0.050097 0.065351 0.299941
v 0.062086 0.058429 0.299941
v 0.038728 0.037904 0.299941
v 0.052100 0.034321 0.299941
v 0.048694 0.008449 0.299941
v 0.034850 0.008449 0.299941
v 0.052100 -0.017422 0.299941
v 0.038728 -0.021005 0.299941
v 0.062086 -0.041530 0.299941
v 0.050097 -0.048452 0.299941
v 0.077971 -0.062232 0.299941
v 0.068182 -0.072021 0.299941
v 0.098673 -0.078117 0.299941
v 0.122781 -0.088104 0.299941
v 0.091752 -0.090107 0.299941
v 0.148653 -0.091510 0.299941
v 0.178107 -0.101475 0.299941
v 0.119199 -0.101475 0.299941
v 0.148653 -0.105353 0.299941
v 0.205554 0.107006 0.299941
v 0.174524 0.105003 0.299941
v 0.198632 0.095017 0.299941
v 0.229123 0.088920 0.299941
v 0.219335 0.079131 0.299941
v 0.247209 0.065351 0.299941
v 0.235220 0.058429 0.299941
v 0.258578 0.037904 0.299941
v 0.245206 0.034321 0.299941
v 0.262455 0.008449 0.299941
v 0.248612 0.008449 0.299941
v 0.245206 -0.017422 0.299941
v 0.258578 -0.021005 0.299941
v 0.235220 -0.041530 0.299941
v 0.247209 -0.048452 0.299941
v 0.219335 -0.062232 0.299941
v 0.229123 -0.072021 0.299941
v 0.198632 -0.078117 0.299941
v 0.174524 -0.088104 0.299941
v 0.205554 -0.090107 0.299941
vn 0.0000 0.7343 0.6789
vn -0.1900 0.7092 0.6789
vn 0.1900 0.7092 0.6789
vn -0.0000 -0.6751 0.7377
vn -0.3671 0.6359 0.6789
vn 0.1747 -0.6521 0.7377
vn 0.3376 -0.5847 0.7377
vn -0.5192 0.5192 0.6789
vn 0.4774 -0.4774 0.7377
vn -0.6359 0.3671 0.6789
vn 0.5847 -0.3376 0.7377
vn -0.7092 0.1900 0.6789
vn 0.6521 -0.1747 0.7377
vn 0.6751 0.0000 0.7377
vn -0.7343 -0.0000 0.6789
vn 0.6521 0.1747 0.7377
vn -0.7092 -0.1900 0.6789
vn 0.5847 0.3376 0.7377
vn -0.6359 -0.3671 0.6789
vn 0.4774 0.4774 0.7377
vn -0.5192 -0.5192 0.6789
vn 0.3376 0.5847 0.7377
vn 0.1747 0.6521 0.7377
vn -0.3671 -0.6359 0.6789
vn -0.0000 0.6751 0.7377
vn 0.1900 -0.7092 0.6789
vn -0.1900 -0.7092 0.6789
vn 0.0000 -0.7343 0.6789
vn 0.3671 0.6359 0.6789
vn -0.1747 -0.6521 0.7377
vn -0.3376 -0.5847 0.7377
vn 0.5192 0.5192 0.6789
vn -0.4774 -0.4774 0.7377
vn 0.6359 0.3671 0.6789
vn -0.5847 -0.3376 0.7377
vn 0.7092 0.1900 0.6789
vn -0.6521 -0.1747 0.7377
vn 0.7342 -0.0000 0.6789
vn -0.6751 0.0000 0.7377
vn -0.6521 0.1747 0.7377
vn 0.7092 -0.1900 0.6789
vn -0.5847 0.3376 0.7377
vn 0.6359 -0.3671 0.6789
vn -0.4774 0.4774 0.7377
vn 0.5192 -0.5192 0.6789
vn -0.3376 0.5847 0.7377
vn -0.1748 0.6521 0.7377
vn 0.3671 -0.6359 0.6789
vn 0.0000 0.7343 -0.6789
vn 0.1900 0.7092 -0.6789
vn -0.1900 0.7092 -0.6789
vn -0.0000 -0.6751 -0.7377
vn -0.3671 0.6359 -0.6789
vn 0.1747 -0.6521 -0.7377
vn 0.3376 -0.5847 -0.7377
vn -0.5192 0.5192 -0.6789
vn 0.4774 -0.4774 -0.7377
vn -0.6359 0.3671 -0.6789
vn 0.5847 -0.3376 -0.7377
vn -0.7092 0.1900 -0.6789
vn 0.6521 -0.1747 -0.7377
vn 0.6751 0.0000 -0.7377
vn -0.7343 -0.0000 -0.6789
vn 0.6521 0.1747 -0.7377
vn -0.7092 -0.1900 -0.6789
vn 0.5847 0.3376 -0.7377
vn -0.6359 -0.3671 -0.6789
vn 0.4774 0.4774 -0.7377
vn -0.5192 -0.5192 -0.6789
vn 0.3376 0.5847 -0.7377
vn 0.1747 0.6521 -0.7377
vn -0.3671 -0.6359 -0.6789
vn -0.0000 0.6751 -0.7377
vn 0.1900 -0.7092 -0.6789
vn -0.1900 -0.7092 -0.6789
vn 0.0000 -0.7343 -0.6789
vn 0.3671 0.6359 -0.6789
vn -0.1747 -0.6521 -0.7377
vn -0.3376 -0.5847 -0.7377
vn 0.5192 0.5192 -0.6789
vn -0.4774 -0.4774 -0.7377
vn 0.6359 0.3671 -0.6789
vn -0.5847 -0.3376 -0.7377
vn 0.7092 0.1900 -0.6789
vn -0.6521 -0.1747 -0.7377
vn 0.7342 -0.0000 -0.6789
vn -0.6751 0.0000 -0.7377
vn -0.6521 0.1747 -0.7377
vn 0.7092 -0.1900 -0.6789
vn -0.5847 0.3376 -0.7377
vn 0.6359 -0.3671 -0.6789
vn -0.4774 0.4774 -0.7377
vn 0.5192 -0.5192 -0.6789
vn -0.3376 0.5847 -0.7377
vn -0.1748 0.6521 -0.7377
vn 0.3671 -0.6359 -0.6789
usemtl material_0_0.016
s 1
f 1//1 3//2 2//3
f 2//3 3//2 4//4
f 3//2 5//5 4//4
f 4//4 5//5 6//6
f 6//6 5//5 7//7
f 5//5 8//8 7//7
f 7//7 8//8 9//9
f 8//8 10//10 9//9
f 9//9 10//10 11//11
f 10//10 12//12 11//11
f 11//11 12//12 13//13
f 13//13 12//12 14//14
f 12//12 15//15 14//14
f 14//14 15//15 16//16
f 15//15 17//17 16//16
f 16//16 17//17 18//18
f 17//17 19//19 18//18
f 18//18 19//19 20//20
f 19//19 21//21 20//20
f 20//20 21//21 22//22
f 22//22 21//21 23//23
f 21//21 24//24 23//23
f 23//23 24//24 25//25
f 25//25 24//24 26//26
f 24//24 27//27 26//26
f 28//28 26//26 27//27
f 2//3 4//4 29//29
f 4//4 30//30 29//29
f 30//30 31//31 29//29
f 29//29 31//31 32//32
f 31//31 33//33 32//32
f 32//32 33//33 34//34
f 33//33 35//35 34//34
f 34//34 35//35 36//36
f 35//35 37//37 36//36
f 36//36 37//37 38//38
f 37//37 39//39 38//38
f 39//39 40//40 38//38
f 38//38 40//40 41//41
f 40//40 42//42 41//41
f 41//41 42//42 43//43
f 42//42 44//44 43//43
f 43//43 44//44 45//45
f 44//44 46//46 45//45
f 46//46 47//47 45//45
f 45//45 47//47 48//48
f 47//47 25//25 48//48
f 26//26 48//48 25//25
f 49//49 50//50 51//51
f 50//50 52//52 51//51
f 51//51 52//52 53//53
f 52//52 54//54 53//53
f 54//54 55//55 53//53
f 53//53 55//55 56//56
f 55//55 57//57 56//56
f 56//56 57//57 58//58
f 57//57 59//59 58//58
f 58//58 59//59 60//60
f 59//59 61//61 60//60
f 61//61 62//62 60//60
f 60//60 62//62 63//63
f 62//62 64//64 63//63
f 63//63 64//64 65//65
f 64//64 66//66 65//65
f 65//65 66//66 67//67
f 66//66 68//68 67//67
f 67//67 68//68 69//69
f 68//68 70//70 69//69
f 70//70 71//71 69//69
f 69//69 71//71 72//72
f 71//71 73//73 72//72
f 73//73 74//74 72//72
f 72//72 74//74 75//75
f 76//76 75//75 74//74
f 50//50 77//77 52//52
f 52//52 77//77 78//78
f 78//78 77//77 79//79
f 77//77 80//80 79//79
f 79//79 80//80 81//81
f 80//80 82//82 81//81
f 81//81 82//82 83//83
f 82//82 84//84 83//83
f 83//83 84//84 85//85
f 84//84 86//86 85//85
f 85//85 86//86 87//87
f 87//87 86//86 88//88
f 86//86 89//89 88//88
f 88//88 89//89 90//90
f 89//89 91//91 90//90
f 90//90 91//91 92//92
f 91//91 93//93 92//92
f 92//92 93//93 94//94
f 94//94 93//93 95//95
f 93//93 96//96 95//95
f 95//95 96//96 73//73
f 74//74 73//73 96//96
f 48//48 26//26 74//74 96//96
f 27//27 24//24 72//72 75//75
f 15//15 12//12 60//60 63//63
f 38//38 41//41 89//89 86//86
f 14//14 16//16 64//64 62//62
f 39//39 37//37 85//85 87//87
f 33//33 31//31 79//79 81//81
f 45//45 48//48 96//96 93//93
f 16//16 18//18 66//66 64//64
f 36//36 38//38 86//86 84//84
f 13//13 14//14 62//62 61//61
f 19//19 17//17 65//65 67//67
f 17//17 15//15 63//63 65//65
f 44//44 42//42 90//90 92//92
f 18//18 20//20 68//68 66//66
f 22//22 23//23 71//71 70//70
f 7//7 9//9 57//57 55//55
f 26//26 28//28 76//76 74//74
f 42//42 40//40 88//88 90//90
f 21//21 19//19 67//67 69//69
f 4//4 6//6 54//54 52//52
f 24//24 21//21 69//69 72//72
f 9//9 11//11 59//59 57//57
f 41//41 43//43 91//91 89//89
f 25//25 47//47 95//95 73//73
f 30//30 4//4 52//52 78//78
f 34//34 36//36 84//84 82//82
f 12//12 10//10 58//58 60//60
f 32//32 34//34 82//82 80//80
f 31//31 30//30 78//78 79//79
f 28//28 27//27 75//75 76//76
f 11//11 13//13 61//61 59//59
f 10//10 8//8 56//56 58//58
f 43//43 45//45 93//93 91//91
f 29//29 32//32 80//80 77//77
f 3//2 1//1 49//49 51//51
f 35//35 33//33 81//81 83//83
f 47//47 46//46 94//94 95//95
f 2//3 29//29 77//77 50//50
f 40//40 39//39 87//87 88//88
f 6//6 7//7 55//55 54//54
f 23//23 25//25 73//73 71//71
f 1//1 2//3 50//50 49//49
f 5//5 3//2 51//51 53//53
f 46//46 44//44 92//92 94//94
f 37//37 35//35 83//83 85//85
f 20//20 22//22 70//70 68//68
f 8//8 5//5 53//53 56//56
