mtllib material.mtl
usemtl material_0_0
v 0.34093100 0.34148500 0.44663300
v 0.34093100 0.34148500 0.43329700
v 0.42057500 0.28037200 0.44663300
v 0.42057500 0.28037200 0.43329700
v 0.24818300 0.37990300 0.44663300
v 0.24818300 0.37990300 0.43329700
v 0.48168900 0.20072800 0.44663300
v 0.48168900 0.20072800 0.43329700
v 0.14865300 0.39300600 0.44663300
v 0.14865300 0.39300600 0.43329700
v 0.52010600 0.10798000 0.44663300
v 0.52010600 0.10798000 0.43329700
v 0.04912200 0.37990300 0.44663300
v 0.04912200 0.37990300 0.43329700
v 0.53320900 0.00844900 0.44663300
v 0.53320900 0.00844900 0.43329700
v -0.04362600 0.34148500 0.44663300
v -0.04362600 0.34148500 0.43329700
v 0.52010600 -0.09108100 0.44663300
v 0.52010600 -0.09108100 0.43329700
v -0.12327000 0.28037200 0.44663300
v -0.12327000 0.28037200 0.43329700
v 0.48168900 -0.18382900 0.44663300
v 0.48168900 -0.18382900 0.43329700
v -0.18438300 0.20072800 0.44663300
v -0.18438300 0.20072800 0.43329700
v 0.42057500 -0.26347300 0.44663300
v 0.42057500 -0.26347300 0.43329700
v -0.22280100 0.10798000 0.44663300
v -0.22280100 0.10798000 0.43329700
v 0.34093100 -0.32458600 0.43329700
v 0.34093100 -0.32458600 0.44663300
v -0.23590400 0.00844900 0.44663300
v -0.23590400 0.00844900 0.43329700
v 0.24818300 -0.36300400 0.43329700
v 0.24818300 -0.36300400 0.44663300
v -0.22280100 -0.09108100 0.44663300
v -0.22280100 -0.09108100 0.43329700
v 0.14865300 -0.37610700 0.43329700
v 0.14865300 -0.37610700 0.44663300
v -0.18438300 -0.18382900 0.44663300
v -0.18438300 -0.18382900 0.43329700
v 0.04912200 -0.36300400 0.43329700
v 0.04912200 -0.36300400 0.44663300
v -0.12327000 -0.26347300 0.44663300
v -0.12327000 -0.26347300 0.43329700
v -0.04362600 -0.32458600 0.43329700
v -0.04362600 -0.32458600 0.44663300
vn -0.50000000 -0.86602540 0.00000000
vn -0.50000000 -0.86602540 0.00000000
vn -0.70710678 -0.70710678 0.00000000
vn -0.70710678 -0.70710678 0.00000000
vn -0.25881901 -0.96592584 0.00000000
vn -0.25881901 -0.96592584 0.00000000
vn -0.86602540 -0.50000000 0.00000000
vn -0.86602540 -0.50000000 0.00000000
vn 0.00000000 -1.00000000 0.00000000
vn 0.00000000 -1.00000000 0.00000000
vn -0.96592584 -0.25881901 0.00000000
vn -0.96592584 -0.25881901 0.00000000
vn 0.25881901 -0.96592584 0.00000000
vn 0.25881901 -0.96592584 0.00000000
vn -1.00000000 0.00000000 0.00000000
vn -1.00000000 0.00000000 0.00000000
vn 0.50000000 -0.86602540 0.00000000
vn 0.50000000 -0.86602540 0.00000000
vn -0.96592584 0.25881901 0.00000000
vn -0.96592584 0.25881901 0.00000000
vn 0.70710678 -0.70710678 0.00000000
vn 0.70710678 -0.70710678 0.00000000
vn -0.86602540 0.50000000 0.00000000
vn -0.86602540 0.50000000 0.00000000
vn 0.86602540 -0.50000000 0.00000000
vn 0.86602540 -0.50000000 0.00000000
vn -0.70710678 0.70710678 0.00000000
vn -0.70710678 0.70710678 0.00000000
vn 0.96592584 -0.25881901 0.00000000
vn 0.96592584 -0.25881901 0.00000000
vn -0.50000000 0.86602540 0.00000000
vn -0.50000000 0.86602540 0.00000000
vn 1.00000000 0.00000000 0.00000000
vn 1.00000000 0.00000000 0.00000000
vn -0.25881901 0.96592584 0.00000000
vn -0.25881901 0.96592584 0.00000000
vn 0.96592584 0.25881901 0.00000000
vn 0.96592584 0.25881901 0.00000000
vn 0.00000000 1.00000000 0.00000000
vn 0.00000000 1.00000000 0.00000000
vn 0.86602540 0.50000000 0.00000000
vn 0.86602540 0.50000000 0.00000000
vn 0.25881901 0.96592584 0.00000000
vn 0.25881901 0.96592584 0.00000000
vn 0.70710678 0.70710678 0.00000000
vn 0.70710678 0.70710678 0.00000000
vn 0.50000000 0.86602540 0.00000000
vn 0.50000000 0.86602540 0.00000000
f 1//1 2//2 3//3
f 4//4 3//3 2//2
f 5//5 6//6 1//1
f 2//2 1//1 6//6
f 7//7 3//3 8//8
f 4//4 8//8 3//3
f 9//9 10//10 5//5
f 6//6 5//5 10//10
f 11//11 7//7 12//12
f 8//8 12//12 7//7
f 13//13 14//14 9//9
f 10//10 9//9 14//14
f 15//15 11//11 16//16
f 12//12 16//16 11//11
f 17//17 18//18 13//13
f 14//14 13//13 18//18
f 19//19 15//15 20//20
f 16//16 20//20 15//15
f 21//21 22//22 17//17
f 18//18 17//17 22//22
f 23//23 19//19 24//24
f 20//20 24//24 19//19
f 21//21 25//25 22//22
f 26//26 22//22 25//25
f 27//27 23//23 28//28
f 24//24 28//28 23//23
f 25//25 29//29 26//26
f 30//30 26//26 29//29
f 31//31 32//32 28//28
f 27//27 28//28 32//32
f 29//29 33//33 30//30
f 34//34 30//30 33//33
f 35//35 36//36 31//31
f 32//32 31//31 36//36
f 33//33 37//37 34//34
f 38//38 34//34 37//37
f 39//39 40//40 35//35
f 36//36 35//35 40//40
f 37//37 41//41 38//38
f 42//42 38//38 41//41
f 43//43 44//44 39//39
f 40//40 39//39 44//44
f 41//41 45//45 42//42
f 46//46 42//42 45//45
f 47//47 48//48 43//43
f 44//44 43//43 48//48
f 46//46 45//45 47//47
f 48//48 47//47 45//45

