mtllib material.mtl
usemtl material_1_0
v -0.12039800 0.42256600 -0.16713400
v -0.12014800 0.42256600 -0.16902900
v -0.12014800 0.42256600 -0.16524000
v -0.11941700 0.42256600 -0.16347400
v -0.11941700 0.42256600 -0.17079400
v -0.11825400 0.42256600 -0.16195800
v -0.11825400 0.42256600 -0.17231100
v -0.11673700 0.42256600 -0.16079500
v -0.11673700 0.42256600 -0.17347400
v -0.11497200 0.42256600 -0.16006300
v -0.11497200 0.42256600 -0.17420500
v -0.11268600 0.42256600 -0.17450600
v -0.11268600 0.42256600 -0.15976200
v -0.02011800 0.42256600 -0.15976200
v -0.02011800 0.42256600 -0.17450600
v -0.01783300 0.42256600 -0.17420500
v -0.01783300 0.42256600 -0.16006300
v -0.01606700 0.42256600 -0.16079500
v -0.01606700 0.42256600 -0.17347400
v -0.01455100 0.42256600 -0.16195800
v -0.01455100 0.42256600 -0.17231100
v -0.01338800 0.42256600 -0.16347400
v -0.01338800 0.42256600 -0.17079400
v -0.01265700 0.42256600 -0.16524000
v -0.01265700 0.42256600 -0.16902900
v -0.01240700 0.42256600 -0.16713400
v -0.11268600 0.43590200 -0.17450600
v -0.02011800 0.43590200 -0.17450600
v -0.11268600 0.42256600 -0.17450600
v -0.02011800 0.42256600 -0.17450600
v -0.11497200 0.43590200 -0.17420500
v -0.11497200 0.42256600 -0.17420500
v -0.11673700 0.43590200 -0.17347400
v -0.11673700 0.42256600 -0.17347400
v -0.11825400 0.43590200 -0.17231100
v -0.11825400 0.42256600 -0.17231100
v -0.11941700 0.42256600 -0.17079400
v -0.11941700 0.43590200 -0.17079400
v -0.12014800 0.42256600 -0.16902900
v -0.12014800 0.43590200 -0.16902900
v -0.12039800 0.42256600 -0.16713400
v -0.12039800 0.43590200 -0.16713400
v -0.12014800 0.42256600 -0.16524000
v -0.12014800 0.43590200 -0.16524000
v -0.11941700 0.42256600 -0.16347400
v -0.11941700 0.43590200 -0.16347400
v -0.11825400 0.42256600 -0.16195800
v -0.11825400 0.43590200 -0.16195800
v -0.11673700 0.43590200 -0.16079500
v -0.11673700 0.42256600 -0.16079500
v -0.11497200 0.43590200 -0.16006300
v -0.11497200 0.42256600 -0.16006300
v -0.11268600 0.43590200 -0.15976200
v -0.11268600 0.42256600 -0.15976200
v -0.02011800 0.43590200 -0.15976200
v -0.02011800 0.42256600 -0.15976200
v -0.01783300 0.43590200 -0.16006300
v -0.01783300 0.42256600 -0.16006300
v -0.01606700 0.43590200 -0.16079500
v -0.01606700 0.42256600 -0.16079500
v -0.01455100 0.43590200 -0.16195800
v -0.01455100 0.42256600 -0.16195800
v -0.01338800 0.43590200 -0.16347400
v -0.01338800 0.42256600 -0.16347400
v -0.01265700 0.43590200 -0.16524000
v -0.01265700 0.42256600 -0.16524000
v -0.01240700 0.43590200 -0.16713400
v -0.01240700 0.42256600 -0.16713400
v -0.01265700 0.43590200 -0.16902900
v -0.01265700 0.42256600 -0.16902900
v -0.01338800 0.43590200 -0.17079400
v -0.01338800 0.42256600 -0.17079400
v -0.01455100 0.43590200 -0.17231100
v -0.01455100 0.42256600 -0.17231100
v -0.01606700 0.43590200 -0.17347400
v -0.01606700 0.42256600 -0.17347400
v -0.01783300 0.43590200 -0.17420500
v -0.01783300 0.42256600 -0.17420500
vn 0.00000000 -1.00000000 0.00000000
vn 0.00000000 -1.00000000 0.00000000
vn 0.00000000 -1.00000000 0.00000000
vn 0.00000000 -1.00000000 0.00000000
vn 0.00000000 -1.00000000 0.00000000
vn 0.00000000 -1.00000000 0.00000000
vn 0.00000000 -1.00000000 0.00000000
vn 0.00000000 -1.00000000 0.00000000
vn 0.00000000 -1.00000000 0.00000000
vn 0.00000000 -1.00000000 0.00000000
vn 0.00000000 -1.00000000 0.00000000
vn 0.00000000 -1.00000000 0.00000000
vn 0.00000000 -1.00000000 0.00000000
vn 0.00000000 -1.00000000 0.00000000
vn 0.00000000 -1.00000000 0.00000000
vn 0.00000000 -1.00000000 0.00000000
vn 0.00000000 -1.00000000 0.00000000
vn 0.00000000 -1.00000000 0.00000000
vn 0.00000000 -1.00000000 0.00000000
vn 0.00000000 -1.00000000 0.00000000
vn 0.00000000 -1.00000000 0.00000000
vn 0.00000000 -1.00000000 0.00000000
vn 0.00000000 -1.00000000 0.00000000
vn 0.00000000 -1.00000000 0.00000000
vn 0.00000000 -1.00000000 0.00000000
vn 0.00000000 -1.00000000 0.00000000
vn -0.06540313 0.00000000 -0.99785892
vn 0.06540313 0.00000000 -0.99785892
vn -0.06540313 0.00000000 -0.99785892
vn 0.06540313 0.00000000 -0.99785892
vn -0.25881901 0.00000000 -0.96592584
vn -0.25881901 0.00000000 -0.96592584
vn -0.50000000 0.00000000 -0.86602540
vn -0.50000000 0.00000000 -0.86602540
vn -0.70710678 0.00000000 -0.70710678
vn -0.70710678 0.00000000 -0.70710678
vn -0.86602540 0.00000000 -0.50000000
vn -0.86602540 0.00000000 -0.50000000
vn -0.96592584 0.00000000 -0.25881901
vn -0.96592584 0.00000000 -0.25881901
vn -1.00000000 0.00000000 0.00000000
vn -1.00000000 0.00000000 0.00000000
vn -0.96592584 0.00000000 0.25881901
vn -0.96592584 0.00000000 0.25881901
vn -0.86602540 0.00000000 0.50000000
vn -0.86602540 0.00000000 0.50000000
vn -0.70710678 0.00000000 0.70710678
vn -0.70710678 0.00000000 0.70710678
vn -0.50000000 0.00000000 0.86602540
vn -0.50000000 0.00000000 0.86602540
vn -0.25881901 0.00000000 0.96592584
vn -0.25881901 0.00000000 0.96592584
vn -0.06540313 0.00000000 0.99785892
vn -0.06540313 0.00000000 0.99785892
vn 0.06540313 0.00000000 0.99785892
vn 0.06540313 0.00000000 0.99785892
vn 0.25881901 0.00000000 0.96592584
vn 0.25881901 0.00000000 0.96592584
vn 0.50000000 0.00000000 0.86602540
vn 0.50000000 0.00000000 0.86602540
vn 0.70710678 0.00000000 0.70710678
vn 0.70710678 0.00000000 0.70710678
vn 0.86602540 0.00000000 0.50000000
vn 0.86602540 0.00000000 0.50000000
vn 0.96592584 0.00000000 0.25881901
vn 0.96592584 0.00000000 0.25881901
vn 1.00000000 0.00000000 0.00000000
vn 1.00000000 0.00000000 0.00000000
vn 0.96592584 0.00000000 -0.25881901
vn 0.96592584 0.00000000 -0.25881901
vn 0.86602540 0.00000000 -0.50000000
vn 0.86602540 0.00000000 -0.50000000
vn 0.70710678 0.00000000 -0.70710678
vn 0.70710678 0.00000000 -0.70710678
vn 0.50000000 0.00000000 -0.86602540
vn 0.50000000 0.00000000 -0.86602540
vn 0.25881901 0.00000000 -0.96592584
vn 0.25881901 0.00000000 -0.96592584
f 1//1 2//2 3//3
f 3//3 2//2 4//4
f 2//2 5//5 4//4
f 4//4 5//5 6//6
f 5//5 7//7 6//6
f 6//6 7//7 8//8
f 7//7 9//9 8//8
f 8//8 9//9 10//10
f 9//9 11//11 10//10
f 11//11 12//12 10//10
f 10//10 12//12 13//13
f 13//13 12//12 14//14
f 12//12 15//15 14//14
f 15//15 16//16 14//14
f 14//14 16//16 17//17
f 17//17 16//16 18//18
f 16//16 19//19 18//18
f 18//18 19//19 20//20
f 19//19 21//21 20//20
f 20//20 21//21 22//22
f 21//21 23//23 22//22
f 22//22 23//23 24//24
f 23//23 25//25 24//24
f 26//26 24//24 25//25
f 27//27 28//28 29//29
f 30//30 29//29 28//28
f 31//31 27//27 32//32
f 29//29 32//32 27//27
f 33//33 31//31 34//34
f 32//32 34//34 31//31
f 35//35 33//33 36//36
f 34//34 36//36 33//33
f 37//37 38//38 36//36
f 35//35 36//36 38//38
f 39//39 40//40 37//37
f 38//38 37//37 40//40
f 41//41 42//42 39//39
f 40//40 39//39 42//42
f 43//43 44//44 41//41
f 42//42 41//41 44//44
f 45//45 46//46 43//43
f 44//44 43//43 46//46
f 47//47 48//48 45//45
f 46//46 45//45 48//48
f 49//49 48//48 50//50
f 47//47 50//50 48//48
f 51//51 49//49 52//52
f 50//50 52//52 49//49
f 53//53 51//51 54//54
f 52//52 54//54 51//51
f 55//55 53//53 56//56
f 54//54 56//56 53//53
f 57//57 55//55 58//58
f 56//56 58//58 55//55
f 59//59 57//57 60//60
f 58//58 60//60 57//57
f 61//61 59//59 62//62
f 60//60 62//62 59//59
f 61//61 62//62 63//63
f 64//64 63//63 62//62
f 63//63 64//64 65//65
f 66//66 65//65 64//64
f 65//65 66//66 67//67
f 68//68 67//67 66//66
f 67//67 68//68 69//69
f 70//70 69//69 68//68
f 69//69 70//70 71//71
f 72//72 71//71 70//70
f 71//71 72//72 73//73
f 74//74 73//73 72//72
f 75//75 73//73 76//76
f 74//74 76//76 73//73
f 77//77 75//75 78//78
f 76//76 78//78 75//75
f 28//28 77//77 30//30
f 78//78 30//30 77//77

