mtllib material.mtl
usemtl material_0_0
v -0.08671900 0.53188600 0.07565400
v -0.09007800 0.48244100 0.07571900
v -0.09659600 0.50803600 0.07584400
v -0.08704600 0.50547600 0.07566100
v -0.07815700 0.52694200 0.07549000
v -0.07100700 0.55236700 0.07535300
v -0.06401500 0.54537500 0.07521800
v -0.05053000 0.56808300 0.07495900
v -0.04558600 0.55951900 0.07486400
v -0.02668400 0.57796200 0.07450100
v -0.02412500 0.56841000 0.07445200
v -0.00109400 0.58133200 0.07401000
v -0.00109400 0.57144300 0.07401000
v 0.02193700 0.56841000 0.07356800
v 0.02449600 0.57796200 0.07351900
v 0.04339900 0.55951900 0.07315600
v 0.04834200 0.56808300 0.07306100
v 0.06182800 0.54537500 0.07280200
v 0.06881900 0.55236700 0.07266800
v 0.07596900 0.52694200 0.07253000
v 0.08453200 0.53188600 0.07236600
v 0.08485900 0.50547600 0.07236000
v 0.09440900 0.50803600 0.07217600
v 0.08789100 0.48244100 0.07230200
v -0.09659600 0.45684700 0.07584400
v -0.09996500 0.48244100 0.07590900
v -0.08671900 0.43299600 0.07565400
v -0.08704600 0.45940600 0.07566100
v -0.07815700 0.43794100 0.07549000
v -0.07100700 0.41251600 0.07535300
v -0.06401500 0.41950800 0.07521800
v -0.05053000 0.39680000 0.07495900
v -0.04558600 0.40536400 0.07486400
v -0.02668400 0.38692100 0.07450100
v -0.02412500 0.39647300 0.07445200
v -0.00109400 0.38355100 0.07401000
v -0.00109400 0.39344000 0.07401000
v 0.02193700 0.39647300 0.07356800
v 0.02449600 0.38692100 0.07351900
v 0.04339900 0.40536400 0.07315600
v 0.04834200 0.39680000 0.07306100
v 0.06182800 0.41950800 0.07280200
v 0.06881900 0.41251600 0.07266800
v 0.07596900 0.43794100 0.07253000
v 0.08453200 0.43299600 0.07236600
v 0.08485900 0.45940600 0.07236000
v 0.09440900 0.45684700 0.07217600
v 0.09777800 0.48244100 0.07211200
v 0.09777800 0.48244100 0.07211200
v 0.09440900 0.50803600 0.07217600
v 0.09440900 0.45684700 0.07217600
v 0.08789100 0.48244100 0.07230200
v 0.08485900 0.45940600 0.07236000
v 0.08453200 0.43299600 0.07236600
v 0.07596900 0.43794100 0.07253000
v 0.06881900 0.41251600 0.07266800
v 0.06182800 0.41950800 0.07280200
v 0.04834200 0.39680000 0.07306100
v 0.04339900 0.40536400 0.07315600
v 0.02449600 0.38692100 0.07351900
v 0.02193700 0.39647300 0.07356800
v -0.00109400 0.38355100 0.07401000
v -0.00109400 0.39344000 0.07401000
v -0.02412500 0.39647300 0.07445200
v -0.02668400 0.38692100 0.07450100
v -0.04558600 0.40536400 0.07486400
v -0.05053000 0.39680000 0.07495900
v -0.06401500 0.41950800 0.07521800
v -0.07100700 0.41251600 0.07535300
v -0.07815700 0.43794100 0.07549000
v -0.08671900 0.43299600 0.07565400
v -0.08704600 0.45940600 0.07566100
v -0.09007800 0.48244100 0.07571900
v -0.09659600 0.50803600 0.07584400
v -0.09659600 0.45684700 0.07584400
v -0.09996500 0.48244100 0.07590900
v 0.08485900 0.50547600 0.07236000
v 0.08453200 0.53188600 0.07236600
v 0.07596900 0.52694200 0.07253000
v 0.06881900 0.55236700 0.07266800
v 0.06182800 0.54537500 0.07280200
v 0.04834200 0.56808300 0.07306100
v 0.04339900 0.55951900 0.07315600
v 0.02449600 0.57796200 0.07351900
v 0.02193700 0.56841000 0.07356800
v -0.00109400 0.58133200 0.07401000
v -0.00109400 0.57144300 0.07401000
v -0.02412500 0.56841000 0.07445200
v -0.02668400 0.57796200 0.07450100
v -0.04558600 0.55951900 0.07486400
v -0.05053000 0.56808300 0.07495900
v -0.06401500 0.54537500 0.07521800
v -0.07100700 0.55236700 0.07535300
v -0.07815700 0.52694200 0.07549000
v -0.08671900 0.53188600 0.07565400
v -0.08704600 0.50547600 0.07566100
v -0.09412800 0.45684700 0.20437700
v -0.08671900 0.43299600 0.07565400
v -0.08425100 0.43299600 0.20418800
v -0.09659600 0.45684700 0.07584400
v -0.09659600 0.45684700 0.07584400
v -0.09412800 0.45684700 0.20437700
v -0.08671900 0.43299600 0.07565400
v -0.08425100 0.43299600 0.20418800
v -0.09749700 0.48244100 0.20444200
v -0.09996500 0.48244100 0.07590900
v -0.09996500 0.48244100 0.07590900
v -0.09749700 0.48244100 0.20444200
v -0.09412800 0.50803600 0.20437700
v -0.09659600 0.50803600 0.07584400
v -0.09659600 0.50803600 0.07584400
v -0.09412800 0.50803600 0.20437700
v -0.08425100 0.53188600 0.20418800
v -0.08671900 0.53188600 0.07565400
v -0.08671900 0.53188600 0.07565400
v -0.08425100 0.53188600 0.20418800
v -0.06853900 0.55236700 0.20388600
v -0.07100700 0.55236700 0.07535300
v -0.07100700 0.55236700 0.07535300
v -0.06853900 0.55236700 0.20388600
v -0.05053000 0.56808300 0.07495900
v -0.04806200 0.56808300 0.20349300
v -0.04806200 0.56808300 0.20349300
v -0.05053000 0.56808300 0.07495900
v -0.02668400 0.57796200 0.07450100
v -0.02421600 0.57796200 0.20303500
v -0.02421600 0.57796200 0.20303500
v -0.02668400 0.57796200 0.07450100
v -0.00109400 0.58133200 0.07401000
v 0.00137400 0.58133200 0.20254300
v 0.00137400 0.58133200 0.20254300
v -0.00109400 0.58133200 0.07401000
v 0.02449600 0.57796200 0.07351900
v 0.02696400 0.57796200 0.20205200
v 0.02696400 0.57796200 0.20205200
v 0.02449600 0.57796200 0.07351900
v 0.04834200 0.56808300 0.07306100
v 0.05081000 0.56808300 0.20159400
v 0.05081000 0.56808300 0.20159400
v 0.04834200 0.56808300 0.07306100
v 0.06881900 0.55236700 0.07266800
v 0.07128700 0.55236700 0.20120100
v 0.07128700 0.55236700 0.20120100
v 0.06881900 0.55236700 0.07266800
v 0.08700000 0.53188600 0.20089900
v 0.08453200 0.53188600 0.07236600
v 0.08700000 0.53188600 0.20089900
v 0.08453200 0.53188600 0.07236600
v 0.09687700 0.50803600 0.20071000
v 0.09440900 0.50803600 0.07217600
v 0.09687700 0.50803600 0.20071000
v 0.09440900 0.50803600 0.07217600
v 0.10024600 0.48244100 0.20064500
v 0.09777800 0.48244100 0.07211200
v 0.10024600 0.48244100 0.20064500
v 0.09777800 0.48244100 0.07211200
v 0.09687700 0.45684700 0.20071000
v 0.09440900 0.45684700 0.07217600
v 0.09687700 0.45684700 0.20071000
v 0.09440900 0.45684700 0.07217600
v 0.08700000 0.43299600 0.20089900
v 0.08453200 0.43299600 0.07236600
v 0.08700000 0.43299600 0.20089900
v 0.08453200 0.43299600 0.07236600
v 0.07128700 0.41251600 0.20120100
v 0.06881900 0.41251600 0.07266800
v 0.07128700 0.41251600 0.20120100
v 0.06881900 0.41251600 0.07266800
v 0.04834200 0.39680000 0.07306100
v 0.05081000 0.39680000 0.20159400
v 0.05081000 0.39680000 0.20159400
v 0.04834200 0.39680000 0.07306100
v 0.02449600 0.38692100 0.07351900
v 0.02696400 0.38692100 0.20205200
v 0.02696400 0.38692100 0.20205200
v 0.02449600 0.38692100 0.07351900
v -0.00109400 0.38355100 0.07401000
v 0.00137400 0.38355100 0.20254300
v 0.00137400 0.38355100 0.20254300
v -0.00109400 0.38355100 0.07401000
v -0.02668400 0.38692100 0.07450100
v -0.02421600 0.38692100 0.20303500
v -0.02421600 0.38692100 0.20303500
v -0.02668400 0.38692100 0.07450100
v -0.05053000 0.39680000 0.07495900
v -0.04806200 0.39680000 0.20349300
v -0.04806200 0.39680000 0.20349300
v -0.05053000 0.39680000 0.07495900
v -0.07100700 0.41251600 0.07535300
v -0.06853900 0.41251600 0.20388600
v -0.06853900 0.41251600 0.20388600
v -0.07100700 0.41251600 0.07535300
vn -0.01919744 0.00000000 -0.99981571
vn -0.01919744 0.00000000 -0.99981571
vn -0.01919744 0.00000000 -0.99981571
vn -0.01919744 0.00000000 -0.99981571
vn -0.01919744 0.00000000 -0.99981571
vn -0.01919744 0.00000000 -0.99981571
vn -0.01919744 0.00000000 -0.99981571
vn -0.01919744 0.00000000 -0.99981571
vn -0.01919744 0.00000000 -0.99981571
vn -0.01919744 0.00000000 -0.99981571
vn -0.01919744 0.00000000 -0.99981571
vn -0.01919744 0.00000000 -0.99981571
vn -0.01919744 0.00000000 -0.99981571
vn -0.01919744 0.00000000 -0.99981571
vn -0.01919744 0.00000000 -0.99981571
vn -0.01919744 0.00000000 -0.99981571
vn -0.01919744 0.00000000 -0.99981571
vn -0.01919744 0.00000000 -0.99981571
vn -0.01919744 0.00000000 -0.99981571
vn -0.01919744 0.00000000 -0.99981571
vn -0.01919744 0.00000000 -0.99981571
vn -0.01919744 0.00000000 -0.99981571
vn -0.01919744 0.00000000 -0.99981571
vn -0.01919744 0.00000000 -0.99981571
vn -0.01919744 0.00000000 -0.99981571
vn -0.01919744 0.00000000 -0.99981571
vn -0.01919744 0.00000000 -0.99981571
vn -0.01919744 0.00000000 -0.99981571
vn -0.01919744 0.00000000 -0.99981571
vn -0.01919744 0.00000000 -0.99981571
vn -0.01919744 0.00000000 -0.99981571
vn -0.01919744 0.00000000 -0.99981571
vn -0.01919744 0.00000000 -0.99981571
vn -0.01919744 0.00000000 -0.99981571
vn -0.01919744 0.00000000 -0.99981571
vn -0.01919744 0.00000000 -0.99981571
vn -0.01919744 0.00000000 -0.99981571
vn -0.01919744 0.00000000 -0.99981571
vn -0.01919744 0.00000000 -0.99981571
vn -0.01919744 0.00000000 -0.99981571
vn -0.01919744 0.00000000 -0.99981571
vn -0.01919744 0.00000000 -0.99981571
vn -0.01919744 0.00000000 -0.99981571
vn -0.01919744 0.00000000 -0.99981571
vn -0.01919744 0.00000000 -0.99981571
vn -0.01919744 0.00000000 -0.99981571
vn -0.01919744 0.00000000 -0.99981571
vn -0.01919744 0.00000000 -0.99981571
vn 0.01919744 0.00000000 0.99981571
vn 0.01919744 0.00000000 0.99981571
vn 0.01919744 0.00000000 0.99981571
vn 0.01919744 0.00000000 0.99981571
vn 0.01919744 0.00000000 0.99981571
vn 0.01919744 0.00000000 0.99981571
vn 0.01919744 0.00000000 0.99981571
vn 0.01919744 0.00000000 0.99981571
vn 0.01919744 0.00000000 0.99981571
vn 0.01919744 0.00000000 0.99981571
vn 0.01919744 0.00000000 0.99981571
vn 0.01919744 0.00000000 0.99981571
vn 0.01919744 0.00000000 0.99981571
vn 0.01919744 0.00000000 0.99981571
vn 0.01919744 0.00000000 0.99981571
vn 0.01919744 0.00000000 0.99981571
vn 0.01919744 0.00000000 0.99981571
vn 0.01919744 0.00000000 0.99981571
vn 0.01919744 0.00000000 0.99981571
vn 0.01919744 0.00000000 0.99981571
vn 0.01919744 0.00000000 0.99981571
vn 0.01919744 0.00000000 0.99981571
vn 0.01919744 0.00000000 0.99981571
vn 0.01919744 0.00000000 0.99981571
vn 0.01919744 0.00000000 0.99981571
vn 0.01919744 0.00000000 0.99981571
vn 0.01919744 0.00000000 0.99981571
vn 0.01919744 0.00000000 0.99981571
vn 0.01919744 0.00000000 0.99981571
vn 0.01919744 0.00000000 0.99981571
vn 0.01919744 0.00000000 0.99981571
vn 0.01919744 0.00000000 0.99981571
vn 0.01919744 0.00000000 0.99981571
vn 0.01919744 0.00000000 0.99981571
vn 0.01919744 0.00000000 0.99981571
vn 0.01919744 0.00000000 0.99981571
vn 0.01919744 0.00000000 0.99981571
vn 0.01919744 0.00000000 0.99981571
vn 0.01919744 0.00000000 0.99981571
vn 0.01919744 0.00000000 0.99981571
vn 0.01919744 0.00000000 0.99981571
vn 0.01919744 0.00000000 0.99981571
vn 0.01919744 0.00000000 0.99981571
vn 0.01919744 0.00000000 0.99981571
vn 0.01919744 0.00000000 0.99981571
vn 0.01919744 0.00000000 0.99981571
vn 0.01919744 0.00000000 0.99981571
vn 0.01919744 0.00000000 0.99981571
vn -0.96574783 -0.25881901 0.01854330
vn -0.86586581 -0.50000000 0.01662547
vn -0.86586581 -0.50000000 0.01662547
vn -0.96574783 -0.25881901 0.01854330
vn 0.96574783 0.25881901 -0.01854330
vn 0.96574783 0.25881901 -0.01854330
vn 0.86586581 0.50000000 -0.01662547
vn 0.86586581 0.50000000 -0.01662547
vn -0.99981571 0.00000000 0.01919744
vn -0.99981571 0.00000000 0.01919744
vn 0.99981571 0.00000000 -0.01919744
vn 0.99981571 0.00000000 -0.01919744
vn -0.96574783 0.25881901 0.01854330
vn -0.96574783 0.25881901 0.01854330
vn 0.96574783 -0.25881901 -0.01854330
vn 0.96574783 -0.25881901 -0.01854330
vn -0.86586581 0.50000000 0.01662547
vn -0.86586581 0.50000000 0.01662547
vn 0.86586581 -0.50000000 -0.01662547
vn 0.86586581 -0.50000000 -0.01662547
vn -0.70697647 0.70710678 0.01357464
vn -0.70697647 0.70710678 0.01357464
vn 0.70697647 -0.70710678 -0.01357464
vn 0.70697647 -0.70710678 -0.01357464
vn -0.49990786 0.86602540 0.00959872
vn -0.49990786 0.86602540 0.00959872
vn 0.49990786 -0.86602540 -0.00959872
vn 0.49990786 -0.86602540 -0.00959872
vn -0.25877132 0.96592584 0.00496866
vn -0.25877132 0.96592584 0.00496866
vn 0.25877132 -0.96592584 -0.00496866
vn 0.25877132 -0.96592584 -0.00496866
vn 0.00000000 1.00000000 0.00000000
vn 0.00000000 1.00000000 0.00000000
vn 0.00000000 -1.00000000 0.00000000
vn 0.00000000 -1.00000000 0.00000000
vn 0.25877132 0.96592584 -0.00496866
vn 0.25877132 0.96592584 -0.00496866
vn -0.25877132 -0.96592584 0.00496866
vn -0.25877132 -0.96592584 0.00496866
vn 0.49990786 0.86602540 -0.00959872
vn 0.49990786 0.86602540 -0.00959872
vn -0.49990786 -0.86602540 0.00959872
vn -0.49990786 -0.86602540 0.00959872
vn 0.70697647 0.70710678 -0.01357464
vn 0.70697647 0.70710678 -0.01357464
vn -0.70697647 -0.70710678 0.01357464
vn -0.70697647 -0.70710678 0.01357464
vn 0.86586581 0.50000000 -0.01662547
vn 0.86586581 0.50000000 -0.01662547
vn -0.86586581 -0.50000000 0.01662547
vn -0.86586581 -0.50000000 0.01662547
vn 0.96574783 0.25881901 -0.01854330
vn 0.96574783 0.25881901 -0.01854330
vn -0.96574783 -0.25881901 0.01854330
vn -0.96574783 -0.25881901 0.01854330
vn 0.99981571 0.00000000 -0.01919744
vn 0.99981571 0.00000000 -0.01919744
vn -0.99981571 0.00000000 0.01919744
vn -0.99981571 0.00000000 0.01919744
vn 0.96574783 -0.25881901 -0.01854330
vn 0.96574783 -0.25881901 -0.01854330
vn -0.96574783 0.25881901 0.01854330
vn -0.96574783 0.25881901 0.01854330
vn 0.86586581 -0.50000000 -0.01662547
vn 0.86586581 -0.50000000 -0.01662547
vn -0.86586581 0.50000000 0.01662547
vn -0.86586581 0.50000000 0.01662547
vn 0.70697647 -0.70710678 -0.01357464
vn 0.70697647 -0.70710678 -0.01357464
vn -0.70697647 0.70710678 0.01357464
vn -0.70697647 0.70710678 0.01357464
vn 0.49990786 -0.86602540 -0.00959872
vn 0.49990786 -0.86602540 -0.00959872
vn -0.49990786 0.86602540 0.00959872
vn -0.49990786 0.86602540 0.00959872
vn 0.25877132 -0.96592584 -0.00496866
vn 0.25877132 -0.96592584 -0.00496866
vn -0.25877132 0.96592584 0.00496866
vn -0.25877132 0.96592584 0.00496866
vn 0.00000000 -1.00000000 0.00000000
vn 0.00000000 -1.00000000 0.00000000
vn 0.00000000 1.00000000 0.00000000
vn 0.00000000 1.00000000 0.00000000
vn -0.25877132 -0.96592584 0.00496866
vn -0.25877132 -0.96592584 0.00496866
vn 0.25877132 0.96592584 -0.00496866
vn 0.25877132 0.96592584 -0.00496866
vn -0.49990786 -0.86602540 0.00959872
vn -0.49990786 -0.86602540 0.00959872
vn 0.49990786 0.86602540 -0.00959872
vn 0.49990786 0.86602540 -0.00959872
vn -0.70697647 -0.70710678 0.01357464
vn -0.70697647 -0.70710678 0.01357464
vn 0.70697647 0.70710678 -0.01357464
vn 0.70697647 0.70710678 -0.01357464
f 1//1 2//2 3//3
f 2//2 1//1 4//4
f 4//4 1//1 5//5
f 5//5 1//1 6//6
f 5//5 6//6 7//7
f 7//7 6//6 8//8
f 7//7 8//8 9//9
f 9//9 8//8 10//10
f 9//9 10//10 11//11
f 11//11 10//10 12//12
f 11//11 12//12 13//13
f 13//13 12//12 14//14
f 14//14 12//12 15//15
f 14//14 15//15 16//16
f 16//16 15//15 17//17
f 16//16 17//17 18//18
f 18//18 17//17 19//19
f 18//18 19//19 20//20
f 20//20 19//19 21//21
f 20//20 21//21 22//22
f 22//22 21//21 23//23
f 22//22 23//23 24//24
f 3//3 25//25 26//26
f 25//25 3//3 27//27
f 27//27 3//3 2//2
f 27//27 2//2 28//28
f 27//27 28//28 29//29
f 27//27 29//29 30//30
f 30//30 29//29 31//31
f 30//30 31//31 32//32
f 32//32 31//31 33//33
f 32//32 33//33 34//34
f 34//34 33//33 35//35
f 34//34 35//35 36//36
f 36//36 35//35 37//37
f 36//36 37//37 38//38
f 36//36 38//38 39//39
f 39//39 38//38 40//40
f 39//39 40//40 41//41
f 41//41 40//40 42//42
f 41//41 42//42 43//43
f 43//43 42//42 44//44
f 43//43 44//44 45//45
f 45//45 44//44 46//46
f 45//45 46//46 47//47
f 47//47 46//46 24//24
f 47//47 24//24 23//23
f 47//47 23//23 48//48
f 49//49 50//50 51//51
f 50//50 52//52 51//51
f 52//52 53//53 51//51
f 51//51 53//53 54//54
f 53//53 55//55 54//54
f 54//54 55//55 56//56
f 55//55 57//57 56//56
f 56//56 57//57 58//58
f 57//57 59//59 58//58
f 58//58 59//59 60//60
f 59//59 61//61 60//60
f 60//60 61//61 62//62
f 61//61 63//63 62//62
f 63//63 64//64 62//62
f 62//62 64//64 65//65
f 64//64 66//66 65//65
f 65//65 66//66 67//67
f 66//66 68//68 67//67
f 67//67 68//68 69//69
f 68//68 70//70 69//69
f 69//69 70//70 71//71
f 70//70 72//72 71//71
f 72//72 73//73 71//71
f 73//73 74//74 71//71
f 71//71 74//74 75//75
f 76//76 75//75 74//74
f 52//52 50//50 77//77
f 50//50 78//78 77//77
f 77//77 78//78 79//79
f 78//78 80//80 79//79
f 79//79 80//80 81//81
f 80//80 82//82 81//81
f 81//81 82//82 83//83
f 82//82 84//84 83//83
f 83//83 84//84 85//85
f 84//84 86//86 85//85
f 85//85 86//86 87//87
f 87//87 86//86 88//88
f 86//86 89//89 88//88
f 88//88 89//89 90//90
f 89//89 91//91 90//90
f 90//90 91//91 92//92
f 91//91 93//93 92//92
f 92//92 93//93 94//94
f 93//93 95//95 94//94
f 94//94 95//95 96//96
f 96//96 95//95 73//73
f 74//74 73//73 95//95
f 97//97 98//98 99//99
f 98//98 97//97 100//100
f 101//101 102//102 103//103
f 104//104 103//103 102//102
f 105//105 100//100 97//97
f 100//100 105//105 106//106
f 107//107 108//108 101//101
f 102//102 101//101 108//108
f 109//109 106//106 105//105
f 106//106 109//109 110//110
f 111//111 112//112 107//107
f 108//108 107//107 112//112
f 113//113 110//110 109//109
f 110//110 113//113 114//114
f 115//115 116//116 111//111
f 112//112 111//111 116//116
f 117//117 114//114 113//113
f 114//114 117//117 118//118
f 119//119 120//120 115//115
f 116//116 115//115 120//120
f 117//117 121//121 118//118
f 121//121 117//117 122//122
f 123//123 120//120 124//124
f 119//119 124//124 120//120
f 122//122 125//125 121//121
f 125//125 122//122 126//126
f 127//127 123//123 128//128
f 124//124 128//128 123//123
f 126//126 129//129 125//125
f 129//129 126//126 130//130
f 131//131 127//127 132//132
f 128//128 132//132 127//127
f 130//130 133//133 129//129
f 133//133 130//130 134//134
f 135//135 131//131 136//136
f 132//132 136//136 131//131
f 134//134 137//137 133//133
f 137//137 134//134 138//138
f 139//139 135//135 140//140
f 136//136 140//140 135//135
f 138//138 141//141 137//137
f 141//141 138//138 142//142
f 143//143 139//139 144//144
f 140//140 144//144 139//139
f 141//141 145//145 146//146
f 145//145 141//141 142//142
f 143//143 144//144 147//147
f 148//148 147//147 144//144
f 146//146 149//149 150//150
f 149//149 146//146 145//145
f 147//147 148//148 151//151
f 152//152 151//151 148//148
f 150//150 153//153 154//154
f 153//153 150//150 149//149
f 151//151 152//152 155//155
f 156//156 155//155 152//152
f 154//154 157//157 158//158
f 157//157 154//154 153//153
f 155//155 156//156 159//159
f 160//160 159//159 156//156
f 158//158 161//161 162//162
f 161//161 158//158 157//157
f 159//159 160//160 163//163
f 164//164 163//163 160//160
f 162//162 165//165 166//166
f 165//165 162//162 161//161
f 163//163 164//164 167//167
f 168//168 167//167 164//164
f 165//165 169//169 166//166
f 169//169 165//165 170//170
f 171//171 167//167 172//172
f 168//168 172//172 167//167
f 170//170 173//173 169//169
f 173//173 170//170 174//174
f 175//175 171//171 176//176
f 172//172 176//176 171//171
f 174//174 177//177 173//173
f 177//177 174//174 178//178
f 179//179 175//175 180//180
f 176//176 180//180 175//175
f 178//178 181//181 177//177
f 181//181 178//178 182//182
f 183//183 179//179 184//184
f 180//180 184//184 179//179
f 182//182 185//185 181//181
f 185//185 182//182 186//186
f 187//187 183//183 188//188
f 184//184 188//188 183//183
f 186//186 189//189 185//185
f 189//189 186//186 190//190
f 191//191 187//187 192//192
f 188//188 192//192 187//187
f 99//99 189//189 190//190
f 189//189 99//99 98//98
f 103//103 104//104 192//192
f 191//191 192//192 104//104

