mtllib material.mtl
usemtl material_0_0
v -0.66077000 -0.31888700 -0.43457400
v -0.66448500 -0.30620400 -0.43501400
v -0.65920000 -0.31888700 -0.44781700
v -0.66291500 -0.30620400 -0.44825700
v -0.66291500 -0.30620400 -0.44825700
v -0.66713700 -0.30809100 -0.45275900
v -0.65920000 -0.31888700 -0.44781700
v -0.66376400 -0.31960900 -0.45235900
v -0.67133300 -0.29492100 -0.43582600
v -0.66976300 -0.29492100 -0.44906900
v -0.66044200 -0.33210600 -0.43453500
v -0.65887100 -0.33210600 -0.44777800
v -0.66346500 -0.33161400 -0.45232300
v -0.65887100 -0.33210600 -0.44777800
v -0.70406300 -0.28100900 -0.45713700
v -0.71598500 -0.28130900 -0.45855000
v -0.69247100 -0.28382600 -0.45576200
v -0.72742300 -0.28470700 -0.45990700
v -0.68199700 -0.28956800 -0.45452100
v -0.73759800 -0.29096900 -0.46111300
v -0.67335600 -0.29784400 -0.45349600
v -0.74581700 -0.29967100 -0.46208800
v -0.66713700 -0.30809100 -0.45275900
v -0.75151900 -0.31021800 -0.46276400
v -0.66376400 -0.31960900 -0.45235900
v -0.75431700 -0.32189100 -0.46309500
v -0.66346500 -0.33161400 -0.45232300
v -0.75401800 -0.33389600 -0.46306000
v -0.66626200 -0.34328800 -0.45265500
v -0.75064500 -0.34541500 -0.46266000
v -0.67196500 -0.35383500 -0.45333100
v -0.74442600 -0.35566100 -0.46192300
v -0.68018400 -0.36253600 -0.45430600
v -0.73578500 -0.36393700 -0.46089800
v -0.69035900 -0.36879900 -0.45551200
v -0.72531100 -0.36968000 -0.45965600
v -0.70179700 -0.37219600 -0.45686800
v -0.71371900 -0.37249700 -0.45828200
v -0.66976300 -0.29492100 -0.44906900
v -0.67335600 -0.29784400 -0.45349600
v -0.68084800 -0.28580800 -0.43695500
v -0.67927800 -0.28580800 -0.45019700
v -0.66352200 -0.34496000 -0.43490000
v -0.66195200 -0.34496000 -0.44814300
v -0.66626200 -0.34328800 -0.45265500
v -0.66195200 -0.34496000 -0.44814300
v -0.73578500 -0.36393700 -0.46089800
v -0.73850400 -0.36769800 -0.45722000
v -0.72531100 -0.36968000 -0.45965600
v -0.72697200 -0.37402100 -0.45585200
v -0.74442600 -0.35566100 -0.46192300
v -0.74801900 -0.35858400 -0.45834800
v -0.75064500 -0.34541500 -0.46266000
v -0.75486700 -0.34730200 -0.45916000
v -0.75401800 -0.33389600 -0.46306000
v -0.75858200 -0.33461900 -0.45960000
v -0.75431700 -0.32189100 -0.46309500
v -0.75891000 -0.32140000 -0.45963900
v -0.75583000 -0.30854500 -0.45927400
v -0.75151900 -0.31021800 -0.46276400
v -0.74955100 -0.29693200 -0.45853000
v -0.74581700 -0.29967100 -0.46208800
v -0.74050100 -0.28735100 -0.45745700
v -0.73759800 -0.29096900 -0.46111300
v -0.72929700 -0.28045500 -0.45612800
v -0.72742300 -0.28470700 -0.45990700
v -0.71670200 -0.27671400 -0.45463500
v -0.71598500 -0.28130900 -0.45855000
v -0.70357500 -0.27638300 -0.45307800
v -0.70406300 -0.28100900 -0.45713700
v -0.69081000 -0.27948500 -0.45156500
v -0.69247100 -0.28382600 -0.45576200
v -0.67927800 -0.28580800 -0.45019700
v -0.68199700 -0.28956800 -0.45452100
v -0.67196500 -0.35383500 -0.45333100
v -0.66823100 -0.35657400 -0.44888800
v -0.68018400 -0.36253600 -0.45430600
v -0.67728100 -0.36615500 -0.44996100
v -0.69035900 -0.36879900 -0.45551200
v -0.68848500 -0.37305100 -0.45128900
v -0.70179700 -0.37219600 -0.45686800
v -0.70108000 -0.37679200 -0.45278200
v -0.71371900 -0.37249700 -0.45828200
v -0.71420700 -0.37712300 -0.45433900
v -0.69238100 -0.27948500 -0.43832200
v -0.69081000 -0.27948500 -0.45156500
v -0.66980100 -0.35657400 -0.43564500
v -0.66823100 -0.35657400 -0.44888800
v -0.74007500 -0.36769800 -0.44397700
v -0.72854200 -0.37402100 -0.44260900
v -0.73850400 -0.36769800 -0.45722000
v -0.72697200 -0.37402100 -0.45585200
v -0.74958900 -0.35858400 -0.44510500
v -0.74801900 -0.35858400 -0.45834800
v -0.75643700 -0.34730200 -0.44591700
v -0.75486700 -0.34730200 -0.45916000
v -0.76015200 -0.33461900 -0.44635700
v -0.75858200 -0.33461900 -0.45960000
v -0.76048100 -0.32140000 -0.44639600
v -0.75891000 -0.32140000 -0.45963900
v -0.75740000 -0.30854500 -0.44603100
v -0.75583000 -0.30854500 -0.45927400
v -0.75112100 -0.29693200 -0.44528700
v -0.74955100 -0.29693200 -0.45853000
v -0.74207100 -0.28735100 -0.44421400
v -0.74050100 -0.28735100 -0.45745700
v -0.73086700 -0.28045500 -0.44288500
v -0.72929700 -0.28045500 -0.45612800
v -0.71827200 -0.27671400 -0.44139200
v -0.71670200 -0.27671400 -0.45463500
v -0.70514500 -0.27638300 -0.43983500
v -0.70357500 -0.27638300 -0.45307800
v -0.67885100 -0.36615500 -0.43671800
v -0.67728100 -0.36615500 -0.44996100
v -0.69005500 -0.37305100 -0.43804600
v -0.68848500 -0.37305100 -0.45128900
v -0.70265000 -0.37679200 -0.43954000
v -0.70108000 -0.37679200 -0.45278200
v -0.71577700 -0.37712300 -0.44109600
v -0.71420700 -0.37712300 -0.45433900
vn -0.98099724 -0.15529101 -0.11631471
vn -0.90765789 -0.40567880 -0.10761910
vn -0.98099724 -0.15529101 -0.11631471
vn -0.90765789 -0.40567880 -0.10761910
vn -0.65227881 -0.24856091 0.71606552
vn -0.65110393 -0.25138691 0.71614823
vn -0.69467152 -0.09471187 0.71306462
vn -0.69450151 -0.09586129 0.71307662
vn -0.77246313 -0.62842033 -0.09158930
vn -0.77246313 -0.62842033 -0.09158930
vn -0.98748326 0.10567970 -0.11708380
vn -0.98748326 0.10567970 -0.11708380
vn -0.69832310 0.06521407 0.71280570
vn -0.69840180 0.06442785 0.71280010
vn -0.11774310 0.00000000 0.99304409
vn -0.11774310 0.00000000 0.99304409
vn -0.11774310 0.00000000 0.99304409
vn -0.11774310 0.00000000 0.99304409
vn -0.11774310 0.00000000 0.99304409
vn -0.11774310 0.00000000 0.99304409
vn -0.11774310 0.00000000 0.99304409
vn -0.11774310 0.00000000 0.99304409
vn -0.11774310 0.00000000 0.99304409
vn -0.11774310 0.00000000 0.99304409
vn -0.11774310 0.00000000 0.99304409
vn -0.11774310 0.00000000 0.99304409
vn -0.11774310 0.00000000 0.99304409
vn -0.11774310 0.00000000 0.99304409
vn -0.11774310 0.00000000 0.99304409
vn -0.11774310 0.00000000 0.99304409
vn -0.11774310 0.00000000 0.99304409
vn -0.11774310 0.00000000 0.99304409
vn -0.11774310 0.00000000 0.99304409
vn -0.11774310 0.00000000 0.99304409
vn -0.11774310 0.00000000 0.99304409
vn -0.11774310 0.00000000 0.99304409
vn -0.11774310 0.00000000 0.99304409
vn -0.11774310 0.00000000 0.99304409
vn -0.57308868 -0.38831869 0.72164947
vn -0.57020300 -0.39217190 0.72185160
vn -0.58462631 -0.80833601 -0.06931789
vn -0.58462631 -0.80833601 -0.06931789
vn -0.92667395 0.35944842 -0.10987371
vn -0.92667395 0.35944842 -0.10987371
vn -0.66238929 0.22251830 0.71535029
vn -0.66330869 0.21997330 0.71528549
vn 0.30918030 0.54126170 0.78194841
vn 0.30312151 0.54525212 0.78154813
vn 0.15286861 0.61756672 0.77151963
vn 0.14511440 0.62007908 0.77100178
vn 0.44087228 0.42485848 0.79064967
vn 0.43708562 0.42921002 0.79040174
vn 0.53719570 0.27616640 0.79696480
vn 0.53557898 0.27958869 0.79685966
vn 0.58998917 0.10610950 0.80040836
vn 0.58974912 0.10755130 0.80039283
vn 0.59467650 -0.07223409 0.80071349
vn 0.59456519 -0.07322338 0.80070629
vn 0.54957432 -0.24804261 0.79777373
vn 0.55084789 -0.24493190 0.79785648
vn 0.45897142 -0.40290671 0.79184053
vn 0.46231290 -0.39863450 0.79205891
vn 0.33096371 -0.52607562 0.78339483
vn 0.33661400 -0.52191921 0.78376741
vn 0.17659620 -0.60918930 0.77311201
vn 0.18409640 -0.60632771 0.77361181
vn 0.00832617 -0.64778100 0.76178110
vn 0.01670996 -0.64695369 0.76234618
vn -0.16134620 -0.64119188 0.75022688
vn -0.15323010 -0.64253378 0.75078018
vn -0.32095820 -0.59203951 0.73923951
vn -0.31411929 -0.59511108 0.73971067
vn -0.46077249 -0.50545849 0.72952068
vn -0.45584017 -0.50942006 0.72986365
vn -0.58840680 0.36681760 0.72057080
vn -0.59092622 0.36309571 0.72039413
vn -0.48003289 0.48921519 0.72817369
vn -0.48456941 0.48519651 0.72785771
vn -0.34297179 0.58150619 0.73771329
vn -0.34948061 0.57819121 0.73726402
vn -0.18501960 0.63668082 0.74860222
vn -0.19296051 0.63495894 0.74805975
vn -0.01594951 0.64957118 0.76013347
vn -0.02437099 0.64997511 0.75956462
vn -0.35694812 -0.93316496 -0.04232258
vn -0.35694812 -0.93316496 -0.04232258
vn -0.80271330 0.58872140 -0.09517600
vn -0.80271330 0.58872140 -0.09517600
vn 0.58462631 0.80833601 0.06931789
vn 0.35694812 0.93316496 0.04232258
vn 0.58462631 0.80833601 0.06931789
vn 0.35694812 0.93316496 0.04232258
vn 0.77246313 0.62842033 0.09158930
vn 0.77246313 0.62842033 0.09158930
vn 0.90765789 0.40567880 0.10761910
vn 0.90765789 0.40567880 0.10761910
vn 0.98099724 0.15529101 0.11631471
vn 0.98099724 0.15529101 0.11631471
vn 0.98748326 -0.10567970 0.11708380
vn 0.98748326 -0.10567970 0.11708380
vn 0.92667395 -0.35944842 0.10987371
vn 0.92667395 -0.35944842 0.10987371
vn 0.80271330 -0.58872140 0.09517600
vn 0.80271330 -0.58872140 0.09517600
vn 0.62404912 -0.77787393 0.07399217
vn 0.62404912 -0.77787393 0.07399217
vn 0.40285699 -0.91401568 0.04776589
vn 0.40285699 -0.91401568 0.04776589
vn 0.15421080 -0.98786877 0.01828445
vn 0.15421080 -0.98786877 0.01828445
vn -0.10494460 -0.99440022 -0.01244305
vn -0.10494460 -0.99440022 -0.01244305
vn -0.62404912 0.77787393 -0.07399217
vn -0.62404912 0.77787393 -0.07399217
vn -0.40285699 0.91401568 -0.04776589
vn -0.40285699 0.91401568 -0.04776589
vn -0.15421080 0.98786877 -0.01828445
vn -0.15421080 0.98786877 -0.01828445
vn 0.10494460 0.99440022 0.01244305
vn 0.10494460 0.99440022 0.01244305
f 1//1 2//2 3//3
f 4//4 3//3 2//2
f 5//5 6//6 7//7
f 8//8 7//7 6//6
f 2//2 9//9 4//4
f 10//10 4//4 9//9
f 11//11 1//1 12//12
f 3//3 12//12 1//1
f 8//8 13//13 7//7
f 14//14 7//7 13//13
f 15//15 16//16 17//17
f 16//16 18//18 17//17
f 17//17 18//18 19//19
f 18//18 20//20 19//19
f 19//19 20//20 21//21
f 20//20 22//22 21//21
f 21//21 22//22 23//23
f 22//22 24//24 23//23
f 23//23 24//24 25//25
f 24//24 26//26 25//25
f 25//25 26//26 27//27
f 26//26 28//28 27//27
f 27//27 28//28 29//29
f 28//28 30//30 29//29
f 29//29 30//30 31//31
f 30//30 32//32 31//31
f 31//31 32//32 33//33
f 32//32 34//34 33//33
f 33//33 34//34 35//35
f 34//34 36//36 35//35
f 35//35 36//36 37//37
f 38//38 37//37 36//36
f 39//39 40//40 5//5
f 6//6 5//5 40//40
f 41//41 42//42 9//9
f 10//10 9//9 42//42
f 11//11 12//12 43//43
f 44//44 43//43 12//12
f 13//13 45//45 14//14
f 46//46 14//14 45//45
f 47//47 48//48 49//49
f 50//50 49//49 48//48
f 51//51 52//52 47//47
f 48//48 47//47 52//52
f 53//53 54//54 51//51
f 52//52 51//51 54//54
f 55//55 56//56 53//53
f 54//54 53//53 56//56
f 57//57 58//58 55//55
f 56//56 55//55 58//58
f 59//59 58//58 60//60
f 57//57 60//60 58//58
f 61//61 59//59 62//62
f 60//60 62//62 59//59
f 63//63 61//61 64//64
f 62//62 64//64 61//61
f 65//65 63//63 66//66
f 64//64 66//66 63//63
f 67//67 65//65 68//68
f 66//66 68//68 65//65
f 69//69 67//67 70//70
f 68//68 70//70 67//67
f 69//69 70//70 71//71
f 72//72 71//71 70//70
f 71//71 72//72 73//73
f 74//74 73//73 72//72
f 73//73 74//74 39//39
f 40//40 39//39 74//74
f 45//45 75//75 46//46
f 76//76 46//46 75//75
f 75//75 77//77 76//76
f 78//78 76//76 77//77
f 77//77 79//79 78//78
f 80//80 78//78 79//79
f 79//79 81//81 80//80
f 82//82 80//80 81//81
f 81//81 83//83 82//82
f 84//84 82//82 83//83
f 49//49 50//50 83//83
f 84//84 83//83 50//50
f 85//85 86//86 41//41
f 42//42 41//41 86//86
f 43//43 44//44 87//87
f 88//88 87//87 44//44
f 89//89 90//90 91//91
f 92//92 91//91 90//90
f 93//93 89//89 94//94
f 91//91 94//94 89//89
f 93//93 94//94 95//95
f 96//96 95//95 94//94
f 95//95 96//96 97//97
f 98//98 97//97 96//96
f 97//97 98//98 99//99
f 100//100 99//99 98//98
f 101//101 99//99 102//102
f 100//100 102//102 99//99
f 103//103 101//101 104//104
f 102//102 104//104 101//101
f 105//105 103//103 106//106
f 104//104 106//106 103//103
f 105//105 106//106 107//107
f 108//108 107//107 106//106
f 107//107 108//108 109//109
f 110//110 109//109 108//108
f 109//109 110//110 111//111
f 112//112 111//111 110//110
f 111//111 112//112 85//85
f 86//86 85//85 112//112
f 87//87 88//88 113//113
f 114//114 113//113 88//88
f 115//115 113//113 116//116
f 114//114 116//116 113//113
f 117//117 115//115 118//118
f 116//116 118//118 115//115
f 119//119 117//117 120//120
f 118//118 120//120 117//117
f 90//90 119//119 92//92
f 120//120 92//92 119//119

