mtllib material.mtl
usemtl material_0_0
v 0.29089500 -0.06955700 -0.04678700
v 0.21811900 -0.05908900 -0.04678700
v 0.00641000 -0.06955700 -0.04678700
v 0.29089500 0.08645600 -0.04678700
v 0.21811900 0.07426700 -0.04678700
v 0.08476200 0.07426700 -0.04678700
v 0.00641000 0.08645600 -0.04678700
v 0.08476200 -0.05908900 -0.04678700
v 0.29089500 -0.06955700 -0.04678700
v -0.05168900 -0.10141900 -0.02011600
v 0.34899400 -0.10141900 -0.02011600
v 0.00641000 -0.06955700 -0.04678700
v 0.34899400 0.11831800 -0.02011600
v 0.29089500 -0.06955700 -0.04678700
v 0.34899400 -0.10141900 -0.02011600
v 0.29089500 0.08645600 -0.04678700
v 0.29089500 0.08645600 -0.04678700
v -0.05168900 0.11831800 -0.02011600
v 0.00641000 0.08645600 -0.04678700
v 0.34899400 0.11831800 -0.02011600
v 0.00641000 -0.06955700 -0.04678700
v -0.05168900 0.11831800 -0.02011600
v -0.05168900 -0.10141900 -0.02011600
v 0.00641000 0.08645600 -0.04678700
vn 0.00000000 0.00000000 1.00000000
vn 0.00000000 0.00000000 1.00000000
vn 0.00000000 0.00000000 1.00000000
vn 0.00000000 0.00000000 1.00000000
vn 0.00000000 0.00000000 1.00000000
vn 0.00000000 0.00000000 1.00000000
vn 0.00000000 0.00000000 1.00000000
vn 0.00000000 0.00000000 1.00000000
vn 0.00000000 0.64188359 0.76680209
vn 0.00000000 0.64188359 0.76680209
vn 0.00000000 0.64188359 0.76680209
vn 0.00000000 0.64188359 0.76680209
vn -0.41720590 0.00000000 0.90881199
vn -0.41720590 0.00000000 0.90881199
vn -0.41720590 0.00000000 0.90881199
vn -0.41720590 0.00000000 0.90881199
vn 0.00000000 -0.64188359 0.76680209
vn 0.00000000 -0.64188359 0.76680209
vn 0.00000000 -0.64188359 0.76680209
vn 0.00000000 -0.64188359 0.76680209
vn 0.41720590 0.00000000 0.90881199
vn 0.41720590 0.00000000 0.90881199
vn 0.41720590 0.00000000 0.90881199
vn 0.41720590 0.00000000 0.90881199
f 1//1 2//2 3//3
f 2//2 1//1 4//4
f 2//2 4//4 5//5
f 5//5 4//4 6//6
f 6//6 4//4 7//7
f 3//3 8//8 7//7
f 8//8 3//3 2//2
f 7//7 8//8 6//6
f 9//9 10//10 11//11
f 10//10 9//9 12//12
f 13//13 14//14 15//15
f 14//14 13//13 16//16
f 17//17 18//18 19//19
f 18//18 17//17 20//20
f 21//21 22//22 23//23
f 22//22 21//21 24//24

