mtllib material.mtl
usemtl material_0_0
v 0.14865300 0.16352900 -0.03345200
v 0.14002400 0.15279400 -0.02011600
v 0.14865300 0.15165700 -0.02011600
v 0.14309700 0.16426000 -0.03345200
v 0.15420900 0.16426000 -0.03345200
v 0.15728100 0.15279400 -0.02011600
v 0.15420900 0.16426000 -0.03345200
v 0.14309700 0.16426000 -0.03345200
v 0.14865300 0.16352900 -0.03345200
v 0.13791900 0.16640500 -0.03345200
v 0.15938700 0.16640500 -0.03345200
v 0.16383300 0.16981700 -0.03345200
v 0.13347300 0.16981700 -0.03345200
v 0.13006100 0.17426300 -0.03345200
v 0.16724400 0.17426300 -0.03345200
v 0.12791700 0.17944000 -0.03345200
v 0.16938900 0.17944000 -0.03345200
v 0.17012100 0.18499700 -0.03345200
v 0.12718500 0.18499700 -0.03345200
v 0.16938900 0.19055300 -0.03345200
v 0.12791700 0.19055300 -0.03345200
v 0.13006100 0.19573000 -0.03345200
v 0.16724400 0.19573000 -0.03345200
v 0.16383300 0.20017700 -0.03345200
v 0.13347300 0.20017700 -0.03345200
v 0.15938700 0.20358800 -0.03345200
v 0.13791900 0.20358800 -0.03345200
v 0.15420900 0.20573300 -0.03345200
v 0.14309700 0.20573300 -0.03345200
v 0.14865300 0.20646400 -0.03345200
v 0.13791900 0.16640500 -0.03345200
v 0.13198300 0.15612400 -0.02011600
v 0.15938700 0.16640500 -0.03345200
v 0.16532200 0.15612400 -0.02011600
v 0.17752500 0.16832700 -0.02011600
v 0.16383300 0.16981700 -0.03345200
v 0.17222700 0.16142200 -0.02011600
v 0.16724400 0.17426300 -0.03345200
v 0.16938900 0.17944000 -0.03345200
v 0.18085600 0.17636800 -0.02011600
v 0.17012100 0.18499700 -0.03345200
v 0.18199200 0.18499700 -0.02011600
v 0.16938900 0.19055300 -0.03345200
v 0.18085600 0.19362600 -0.02011600
v 0.16724400 0.19573000 -0.03345200
v 0.17752500 0.20166600 -0.02011600
v 0.16383300 0.20017700 -0.03345200
v 0.17222700 0.20857100 -0.02011600
v 0.15938700 0.20358800 -0.03345200
v 0.16532200 0.21386900 -0.02011600
v 0.15728100 0.21720000 -0.02011600
v 0.15420900 0.20573300 -0.03345200
v 0.14865300 0.21833600 -0.02011600
v 0.14865300 0.20646400 -0.03345200
v 0.14002400 0.21720000 -0.02011600
v 0.14309700 0.20573300 -0.03345200
v 0.13791900 0.20358800 -0.03345200
v 0.13198300 0.21386900 -0.02011600
v 0.12507800 0.20857100 -0.02011600
v 0.13347300 0.20017700 -0.03345200
v 0.11978000 0.20166600 -0.02011600
v 0.13006100 0.19573000 -0.03345200
v 0.12791700 0.19055300 -0.03345200
v 0.11645000 0.19362600 -0.02011600
v 0.12718500 0.18499700 -0.03345200
v 0.11531400 0.18499700 -0.02011600
v 0.12791700 0.17944000 -0.03345200
v 0.11645000 0.17636800 -0.02011600
v 0.13006100 0.17426300 -0.03345200
v 0.11978000 0.16832700 -0.02011600
v 0.13347300 0.16981700 -0.03345200
v 0.12507800 0.16142200 -0.02011600
vn 0.00000000 0.74692208 0.66491158
vn 0.19331770 0.72147130 0.66491160
vn 0.00000000 0.74692208 0.66491158
vn 0.19331770 0.72147130 0.66491160
vn -0.19331770 0.72147130 0.66491160
vn -0.19331770 0.72147130 0.66491160
vn 0.00000000 0.00000000 1.00000000
vn 0.00000000 0.00000000 1.00000000
vn 0.00000000 0.00000000 1.00000000
vn 0.00000000 0.00000000 1.00000000
vn 0.00000000 0.00000000 1.00000000
vn 0.00000000 0.00000000 1.00000000
vn 0.00000000 0.00000000 1.00000000
vn 0.00000000 0.00000000 1.00000000
vn 0.00000000 0.00000000 1.00000000
vn 0.00000000 0.00000000 1.00000000
vn 0.00000000 0.00000000 1.00000000
vn 0.00000000 0.00000000 1.00000000
vn 0.00000000 0.00000000 1.00000000
vn 0.00000000 0.00000000 1.00000000
vn 0.00000000 0.00000000 1.00000000
vn 0.00000000 0.00000000 1.00000000
vn 0.00000000 0.00000000 1.00000000
vn 0.00000000 0.00000000 1.00000000
vn 0.00000000 0.00000000 1.00000000
vn 0.00000000 0.00000000 1.00000000
vn 0.00000000 0.00000000 1.00000000
vn 0.00000000 0.00000000 1.00000000
vn 0.00000000 0.00000000 1.00000000
vn 0.00000000 0.00000000 1.00000000
vn 0.37346100 0.64685350 0.66491160
vn 0.37346100 0.64685350 0.66491160
vn -0.37346100 0.64685350 0.66491160
vn -0.37346100 0.64685350 0.66491160
vn -0.64685350 0.37346100 0.66491160
vn -0.52815367 0.52815367 0.66491157
vn -0.52815367 0.52815367 0.66491157
vn -0.64685350 0.37346100 0.66491160
vn -0.72147130 0.19331770 0.66491160
vn -0.72147130 0.19331770 0.66491160
vn -0.74692208 0.00000000 0.66491158
vn -0.74692208 0.00000000 0.66491158
vn -0.72147130 -0.19331770 0.66491160
vn -0.72147130 -0.19331770 0.66491160
vn -0.64685350 -0.37346100 0.66491160
vn -0.64685350 -0.37346100 0.66491160
vn -0.52815367 -0.52815367 0.66491157
vn -0.52815367 -0.52815367 0.66491157
vn -0.37346100 -0.64685350 0.66491160
vn -0.37346100 -0.64685350 0.66491160
vn -0.19331770 -0.72147130 0.66491160
vn -0.19331770 -0.72147130 0.66491160
vn 0.00000000 -0.74692208 0.66491158
vn 0.00000000 -0.74692208 0.66491158
vn 0.19331770 -0.72147130 0.66491160
vn 0.19331770 -0.72147130 0.66491160
vn 0.37346100 -0.64685350 0.66491160
vn 0.37346100 -0.64685350 0.66491160
vn 0.52815367 -0.52815367 0.66491157
vn 0.52815367 -0.52815367 0.66491157
vn 0.64685350 -0.37346100 0.66491160
vn 0.64685350 -0.37346100 0.66491160
vn 0.72147130 -0.19331770 0.66491160
vn 0.72147130 -0.19331770 0.66491160
vn 0.74692208 0.00000000 0.66491158
vn 0.74692208 0.00000000 0.66491158
vn 0.72147130 0.19331770 0.66491160
vn 0.72147130 0.19331770 0.66491160
vn 0.64685350 0.37346100 0.66491160
vn 0.64685350 0.37346100 0.66491160
vn 0.52815367 0.52815367 0.66491157
vn 0.52815367 0.52815367 0.66491157
f 1//1 2//2 3//3
f 2//2 1//1 4//4
f 5//5 3//3 6//6
f 3//3 5//5 1//1
f 7//7 8//8 9//9
f 8//8 7//7 10//10
f 10//10 7//7 11//11
f 10//10 11//11 12//12
f 10//10 12//12 13//13
f 13//13 12//12 14//14
f 14//14 12//12 15//15
f 14//14 15//15 16//16
f 16//16 15//15 17//17
f 16//16 17//17 18//18
f 16//16 18//18 19//19
f 19//19 18//18 20//20
f 19//19 20//20 21//21
f 21//21 20//20 22//22
f 22//22 20//20 23//23
f 22//22 23//23 24//24
f 22//22 24//24 25//25
f 25//25 24//24 26//26
f 25//25 26//26 27//27
f 27//27 26//26 28//28
f 27//27 28//28 29//29
f 29//29 28//28 30//30
f 31//31 2//2 4//4
f 2//2 31//31 32//32
f 33//33 6//6 34//34
f 6//6 33//33 5//5
f 35//35 36//36 37//37
f 36//36 35//35 38//38
f 35//35 39//39 38//38
f 39//39 35//35 40//40
f 40//40 41//41 39//39
f 41//41 40//40 42//42
f 42//42 43//43 41//41
f 43//43 42//42 44//44
f 44//44 45//45 43//43
f 45//45 44//44 46//46
f 46//46 47//47 45//45
f 47//47 46//46 48//48
f 48//48 49//49 47//47
f 49//49 48//48 50//50
f 51//51 49//49 50//50
f 49//49 51//51 52//52
f 53//53 52//52 51//51
f 52//52 53//53 54//54
f 55//55 54//54 53//53
f 54//54 55//55 56//56
f 55//55 57//57 56//56
f 57//57 55//55 58//58
f 57//57 59//59 60//60
f 59//59 57//57 58//58
f 60//60 61//61 62//62
f 61//61 60//60 59//59
f 61//61 63//63 62//62
f 63//63 61//61 64//64
f 64//64 65//65 63//63
f 65//65 64//64 66//66
f 66//66 67//67 65//65
f 67//67 66//66 68//68
f 68//68 69//69 67//67
f 69//69 68//68 70//70
f 71//71 70//70 72//72
f 70//70 71//71 69//69
f 31//31 72//72 32//32
f 72//72 31//31 71//71
f 37//37 33//33 34//34
f 33//33 37//37 36//36

