mtllib material.mtl
usemtl material_1_0
v -0.64290000 -0.19975200 -0.45259900
v -0.62803800 -0.19767800 -0.44412200
v -0.62725300 -0.19767800 -0.45074400
v -0.64368500 -0.19975200 -0.44597700
v -0.61345800 -0.19159600 -0.44239300
v -0.61267300 -0.19159600 -0.44901500
v -0.64290000 -0.19975200 -0.45259900
v -0.62588200 -0.20282900 -0.45458200
v -0.64290000 -0.20508500 -0.45659900
v -0.62725300 -0.19767800 -0.45074400
v -0.65854700 -0.19767800 -0.45445400
v -0.65933200 -0.19767800 -0.44783200
v -0.60302700 -0.18353600 -0.44115700
v -0.60224200 -0.18353600 -0.44777800
v -0.61002500 -0.19621500 -0.45270200
v -0.61267300 -0.19159600 -0.44901500
v -0.66484600 -0.22135100 -0.45920200
v -0.62095400 -0.22135100 -0.45399700
v -0.64290000 -0.22426000 -0.45659900
v -0.68529600 -0.21282100 -0.46162600
v -0.60050400 -0.21282100 -0.45157300
v -0.69656600 -0.20411300 -0.46296300
v -0.64290000 -0.20508500 -0.45659900
v -0.65991700 -0.20282900 -0.45861700
v -0.67577500 -0.19621500 -0.46049700
v -0.68310100 -0.19055400 -0.46136600
v -0.58923400 -0.20411300 -0.45023600
v -0.62588200 -0.20282900 -0.45458200
v -0.61002500 -0.19621500 -0.45270200
v -0.60269900 -0.19055400 -0.45183300
v -0.65991700 -0.20282900 -0.45861700
v -0.65854700 -0.19767800 -0.45445400
v -0.67312700 -0.19159600 -0.45618300
v -0.67391200 -0.19159600 -0.44956100
v -0.60224200 -0.18353600 -0.44777800
v -0.58207300 -0.20463700 -0.43867200
v -0.58128700 -0.20463700 -0.44529300
v -0.60302700 -0.18353600 -0.44115700
v -0.60269900 -0.19055400 -0.45183300
v -0.60224200 -0.18353600 -0.44777800
v -0.67577500 -0.19621500 -0.46049700
v -0.67312700 -0.19159600 -0.45618300
v -0.58923400 -0.20411300 -0.45023600
v -0.58128700 -0.20463700 -0.44529300
v -0.60050400 -0.21282100 -0.45157300
v -0.58128700 -0.20463700 -0.44529300
v -0.59785600 -0.21744000 -0.44725800
v -0.58923400 -0.20411300 -0.45023600
v -0.62095400 -0.22135100 -0.45399700
v -0.61958400 -0.22650300 -0.44983400
v -0.64290000 -0.22426000 -0.45659900
v -0.64290000 -0.22959400 -0.45259900
v -0.66621700 -0.22650300 -0.45536300
v -0.66484600 -0.22135100 -0.45920200
v -0.68794400 -0.21744000 -0.45794000
v -0.68529600 -0.21282100 -0.46162600
v -0.70451300 -0.20463700 -0.45990400
v -0.69656600 -0.20411300 -0.46296300
v -0.68355800 -0.18353600 -0.45742000
v -0.68310100 -0.19055400 -0.46136600
v -0.68310100 -0.19055400 -0.46136600
v -0.68355800 -0.18353600 -0.45742000
v -0.68355800 -0.18353600 -0.45742000
v -0.68434300 -0.18353600 -0.45079800
v -0.58207300 -0.20463700 -0.43867200
v -0.59785600 -0.21744000 -0.44725800
v -0.58128700 -0.20463700 -0.44529300
v -0.59864100 -0.21744000 -0.44063700
v -0.61958400 -0.22650300 -0.44983400
v -0.62036900 -0.22650300 -0.44321300
v -0.64290000 -0.22959400 -0.45259900
v -0.64368500 -0.22959400 -0.44597700
v -0.66621700 -0.22650300 -0.45536300
v -0.66700200 -0.22650300 -0.44874200
v -0.68794400 -0.21744000 -0.45794000
v -0.68872900 -0.21744000 -0.45131800
v -0.70451300 -0.20463700 -0.45990400
v -0.70529800 -0.20463700 -0.45328300
v -0.70451300 -0.20463700 -0.45990400
v -0.68434300 -0.18353600 -0.45079800
v -0.68355800 -0.18353600 -0.45742000
v -0.70529800 -0.20463700 -0.45328300
vn 0.00000000 1.00000000 0.00000000
vn -0.25701871 0.96592583 -0.03047416
vn -0.25701871 0.96592583 -0.03047416
vn 0.00000000 1.00000000 0.00000000
vn -0.49652201 0.86602542 -0.05887156
vn -0.49652201 0.86602542 -0.05887156
vn 0.09053813 0.59760259 -0.79666429
vn -0.05906858 0.58625551 -0.80796991
vn 0.09761544 0.59720129 -0.79612929
vn -0.06596951 0.58480468 -0.80848717
vn 0.25701871 0.96592583 0.03047416
vn 0.25701871 0.96592583 0.03047416
vn -0.60452693 0.79335334 -0.07167747
vn -0.60452693 0.79335334 -0.07167747
vn -0.20972930 0.53368819 -0.81926219
vn -0.21551129 0.53071629 -0.81969208
vn 0.11774310 0.00000000 -0.99304409
vn 0.11774310 0.00000000 -0.99304409
vn 0.11774310 0.00000000 -0.99304409
vn 0.11774310 0.00000000 -0.99304409
vn 0.11774310 0.00000000 -0.99304409
vn 0.11774310 0.00000000 -0.99304409
vn 0.11774310 0.00000000 -0.99304409
vn 0.11774310 0.00000000 -0.99304409
vn 0.11774310 0.00000000 -0.99304409
vn 0.11774310 0.00000000 -0.99304409
vn 0.11774310 0.00000000 -0.99304409
vn 0.11774310 0.00000000 -0.99304409
vn 0.11774310 0.00000000 -0.99304409
vn 0.11774310 0.00000000 -0.99304409
vn 0.24933070 0.56770071 -0.78457001
vn 0.24300999 0.56977189 -0.78505168
vn 0.49652201 0.86602542 0.05887156
vn 0.49652201 0.86602542 0.05887156
vn 0.70218819 0.70710679 0.08325696
vn 0.70218819 0.70710679 0.08325696
vn 0.70218819 0.70710679 0.08325696
vn 0.70218819 0.70710679 0.08325696
vn 0.10806320 0.49206871 -0.86382332
vn 0.14218590 0.48824351 -0.86104672
vn 0.38640940 0.50153790 -0.77404620
vn 0.38152969 0.50468559 -0.77442078
vn 0.50144771 0.40813671 -0.76287261
vn 0.50144771 0.40813671 -0.76287261
vn 0.38152969 -0.50468559 -0.77442078
vn 0.44673780 -0.46044470 -0.76708280
vn 0.38640940 -0.50153790 -0.77404620
vn 0.44673780 -0.46044470 -0.76708280
vn 0.24300999 -0.56977189 -0.78505168
vn 0.24933070 -0.56770071 -0.78457001
vn 0.09053813 -0.59760259 -0.79666429
vn 0.09761544 -0.59720129 -0.79612929
vn -0.05906858 -0.58625551 -0.80796991
vn -0.06596951 -0.58480468 -0.80848717
vn -0.20972930 -0.53368819 -0.81926219
vn -0.21551129 -0.53071629 -0.81969208
vn -0.35723201 -0.03095656 -0.93350253
vn -0.35741879 -0.02821666 -0.93351788
vn -0.34741289 0.44234868 -0.82682037
vn -0.34741289 0.44234868 -0.82682037
vn 0.44673780 0.46044470 -0.76708280
vn 0.44673780 0.46044470 -0.76708280
vn 0.60452693 0.79335334 0.07167747
vn 0.60452693 0.79335334 0.07167747
vn 0.60452693 -0.79335334 0.07167747
vn 0.49652201 -0.86602542 0.05887156
vn 0.60452693 -0.79335334 0.07167747
vn 0.49652201 -0.86602542 0.05887156
vn 0.25701871 -0.96592583 0.03047416
vn 0.25701871 -0.96592583 0.03047416
vn 0.00000000 -1.00000000 0.00000000
vn 0.00000000 -1.00000000 0.00000000
vn -0.25701871 -0.96592583 -0.03047416
vn -0.25701871 -0.96592583 -0.03047416
vn -0.49652201 -0.86602542 -0.05887156
vn -0.49652201 -0.86602542 -0.05887156
vn -0.60452693 -0.79335334 -0.07167747
vn -0.60452693 -0.79335334 -0.07167747
vn -0.70218819 0.70710679 -0.08325696
vn -0.70218819 0.70710679 -0.08325696
vn -0.70218819 0.70710679 -0.08325696
vn -0.70218819 0.70710679 -0.08325696
f 1//1 2//2 3//3
f 2//2 1//1 4//4
f 3//3 5//5 6//6
f 5//5 3//3 2//2
f 7//7 8//8 9//9
f 8//8 7//7 10//10
f 11//11 4//4 1//1
f 4//4 11//11 12//12
f 6//6 13//13 14//14
f 13//13 6//6 5//5
f 10//10 15//15 8//8
f 15//15 10//10 16//16
f 17//17 18//18 19//19
f 18//18 17//17 20//20
f 18//18 20//20 21//21
f 21//21 20//20 22//22
f 21//21 22//22 23//23
f 23//23 22//22 24//24
f 24//24 22//22 25//25
f 25//25 22//22 26//26
f 23//23 27//27 21//21
f 27//27 23//23 28//28
f 27//27 28//28 29//29
f 27//27 29//29 30//30
f 31//31 7//7 9//9
f 7//7 31//31 32//32
f 33//33 12//12 11//11
f 12//12 33//33 34//34
f 35//35 36//36 37//37
f 36//36 35//35 38//38
f 16//16 39//39 15//15
f 39//39 16//16 40//40
f 41//41 32//32 31//31
f 32//32 41//41 42//42
f 43//43 40//40 44//44
f 40//40 43//43 39//39
f 45//45 46//46 47//47
f 46//46 45//45 48//48
f 49//49 47//47 50//50
f 47//47 49//49 45//45
f 51//51 50//50 52//52
f 50//50 51//51 49//49
f 53//53 51//51 52//52
f 51//51 53//53 54//54
f 55//55 54//54 53//53
f 54//54 55//55 56//56
f 57//57 56//56 55//55
f 56//56 57//57 58//58
f 59//59 58//58 57//57
f 58//58 59//59 60//60
f 61//61 42//42 41//41
f 42//42 61//61 62//62
f 63//63 34//34 33//33
f 34//34 63//63 64//64
f 65//65 66//66 67//67
f 66//66 65//65 68//68
f 68//68 69//69 66//66
f 69//69 68//68 70//70
f 70//70 71//71 69//69
f 71//71 70//70 72//72
f 72//72 73//73 71//71
f 73//73 72//72 74//74
f 74//74 75//75 73//73
f 75//75 74//74 76//76
f 76//76 77//77 75//75
f 77//77 76//76 78//78
f 79//79 80//80 81//81
f 80//80 79//79 82//82

