mtllib material.mtl
usemtl material_1_0
v -0.76233100 0.03944700 -0.45735900
v -0.75660300 0.04484300 -0.44593700
v -0.75534700 0.04484300 -0.45653100
v -0.76358700 0.03944700 -0.44676500
v -0.76233100 0.03944700 -0.45735900
v -0.75301600 0.04077600 -0.46025500
v -0.75903400 0.03612600 -0.46096900
v -0.75534700 0.04484300 -0.45653100
v -0.76894600 0.03241400 -0.44740000
v -0.76769000 0.03241400 -0.45799400
v -0.74847100 0.04823500 -0.44497200
v -0.74721400 0.04823500 -0.45556700
v -0.74600700 0.04370000 -0.45942400
v -0.74721400 0.04823500 -0.45556700
v -0.74600700 -0.01282900 -0.45942400
v -0.73096600 -0.01282900 -0.45764100
v -0.73848700 -0.01382600 -0.45853300
v -0.72395800 -0.00990600 -0.45681000
v -0.75301600 -0.00990600 -0.46025500
v -0.75903400 -0.00525600 -0.46096900
v -0.71794000 -0.00525600 -0.45609600
v -0.71332200 0.00080500 -0.45554900
v -0.76365200 0.00080500 -0.46151600
v -0.71041900 0.00786200 -0.45520500
v -0.76655500 0.00786200 -0.46186100
v -0.70942900 0.01543600 -0.45508700
v -0.76754500 0.01543600 -0.46197800
v -0.76655500 0.02300900 -0.46186100
v -0.71041900 0.02300900 -0.45520500
v -0.71332200 0.03006600 -0.45554900
v -0.76365200 0.03006600 -0.46151600
v -0.75903400 0.03612600 -0.46096900
v -0.71794000 0.03612600 -0.45609600
v -0.75301600 0.04077600 -0.46025500
v -0.72395800 0.04077600 -0.45681000
v -0.73096600 0.04370000 -0.45764100
v -0.74600700 0.04370000 -0.45942400
v -0.73848700 0.04469700 -0.45853300
v -0.76769000 0.03241400 -0.45799400
v -0.76365200 0.03006600 -0.46151600
v -0.77231500 0.02422400 -0.44780000
v -0.77105900 0.02422400 -0.45839400
v -0.73974300 0.04939300 -0.44393800
v -0.73848700 0.04939300 -0.45453200
v -0.73848700 0.04469700 -0.45853300
v -0.73848700 0.04939300 -0.45453200
v -0.72975900 0.04823500 -0.45349700
v -0.73096600 0.04370000 -0.45764100
v -0.72162600 0.04484300 -0.45253300
v -0.72395800 0.04077600 -0.45681000
v -0.71464200 0.03944700 -0.45170500
v -0.71794000 0.03612600 -0.45609600
v -0.70928400 0.03241400 -0.45106900
v -0.71332200 0.03006600 -0.45554900
v -0.70591500 0.02422400 -0.45067000
v -0.71041900 0.02300900 -0.45520500
v -0.70942900 0.01543600 -0.45508700
v -0.70476600 0.01543600 -0.45053400
v -0.71041900 0.00786200 -0.45520500
v -0.70591500 0.00664700 -0.45067000
v -0.71332200 0.00080500 -0.45554900
v -0.70928400 -0.00154300 -0.45106900
v -0.71794000 -0.00525600 -0.45609600
v -0.71464200 -0.00857600 -0.45170500
v -0.72395800 -0.00990600 -0.45681000
v -0.72162600 -0.01397200 -0.45253300
v -0.73096600 -0.01282900 -0.45764100
v -0.72975900 -0.01736500 -0.45349700
v -0.73848700 -0.01382600 -0.45853300
v -0.73848700 -0.01852200 -0.45453200
v -0.74721400 -0.01736500 -0.45556700
v -0.74600700 -0.01282900 -0.45942400
v -0.75534700 -0.01397200 -0.45653100
v -0.75301600 -0.00990600 -0.46025500
v -0.76233100 -0.00857600 -0.45735900
v -0.75903400 -0.00525600 -0.46096900
v -0.76769000 -0.00154300 -0.45799400
v -0.76365200 0.00080500 -0.46151600
v -0.77105900 0.00664700 -0.45839400
v -0.76655500 0.00786200 -0.46186100
v -0.77220800 0.01543600 -0.45853000
v -0.76754500 0.01543600 -0.46197800
v -0.77105900 0.02422400 -0.45839400
v -0.76655500 0.02300900 -0.46186100
v -0.77346400 0.01543600 -0.44793600
v -0.77220800 0.01543600 -0.45853000
v -0.73101500 0.04823500 -0.44290300
v -0.72975900 0.04823500 -0.45349700
v -0.72288300 0.04484300 -0.44193800
v -0.72162600 0.04484300 -0.45253300
v -0.71589900 0.03944700 -0.44111000
v -0.71464200 0.03944700 -0.45170500
v -0.70928400 0.03241400 -0.45106900
v -0.71054000 0.03241400 -0.44047500
v -0.70591500 0.02422400 -0.45067000
v -0.70717100 0.02422400 -0.44007600
v -0.70476600 0.01543600 -0.45053400
v -0.70602200 0.01543600 -0.43993900
v -0.70717100 0.00664700 -0.44007600
v -0.70591500 0.00664700 -0.45067000
v -0.71054000 -0.00154300 -0.44047500
v -0.70928400 -0.00154300 -0.45106900
v -0.71589900 -0.00857600 -0.44111000
v -0.71464200 -0.00857600 -0.45170500
v -0.72162600 -0.01397200 -0.45253300
v -0.72288300 -0.01397200 -0.44193800
v -0.72975900 -0.01736500 -0.45349700
v -0.73101500 -0.01736500 -0.44290300
v -0.73848700 -0.01852200 -0.45453200
v -0.73974300 -0.01852200 -0.44393800
v -0.74721400 -0.01736500 -0.45556700
v -0.74847100 -0.01736500 -0.44497200
v -0.75534700 -0.01397200 -0.45653100
v -0.75660300 -0.01397200 -0.44593700
v -0.76233100 -0.00857600 -0.45735900
v -0.76358700 -0.00857600 -0.44676500
v -0.76894600 -0.00154300 -0.44740000
v -0.76769000 -0.00154300 -0.45799400
v -0.77231500 0.00664700 -0.44780000
v -0.77105900 0.00664700 -0.45839400
vn -0.70218819 0.70710679 -0.08325696
vn -0.49652201 0.86602542 -0.05887156
vn -0.49652201 0.86602542 -0.05887156
vn -0.70218819 0.70710679 -0.08325696
vn -0.38359619 0.47805449 -0.79013788
vn -0.24602220 0.57412230 -0.78093320
vn -0.38827900 0.47374170 -0.79044811
vn -0.23925071 0.57758972 -0.78048012
vn -0.86000141 0.50000000 -0.10196850
vn -0.86000141 0.50000000 -0.10196850
vn -0.25701871 0.96592583 -0.03047416
vn -0.25701871 0.96592583 -0.03047416
vn -0.08406052 0.63249371 -0.76999061
vn -0.07598672 0.63417752 -0.76944453
vn 0.11774310 0.00000000 -0.99304409
vn 0.11774310 0.00000000 -0.99304409
vn 0.11774310 0.00000000 -0.99304409
vn 0.11774310 0.00000000 -0.99304409
vn 0.11774310 0.00000000 -0.99304409
vn 0.11774310 0.00000000 -0.99304409
vn 0.11774310 0.00000000 -0.99304409
vn 0.11774310 0.00000000 -0.99304409
vn 0.11774310 0.00000000 -0.99304409
vn 0.11774310 0.00000000 -0.99304409
vn 0.11774310 0.00000000 -0.99304409
vn 0.11774310 0.00000000 -0.99304409
vn 0.11774310 0.00000000 -0.99304409
vn 0.11774310 0.00000000 -0.99304409
vn 0.11774310 0.00000000 -0.99304409
vn 0.11774310 0.00000000 -0.99304409
vn 0.11774310 0.00000000 -0.99304409
vn 0.11774310 0.00000000 -0.99304409
vn 0.11774310 0.00000000 -0.99304409
vn 0.11774310 0.00000000 -0.99304409
vn 0.11774310 0.00000000 -0.99304409
vn 0.11774310 0.00000000 -0.99304409
vn 0.11774310 0.00000000 -0.99304409
vn 0.11774310 0.00000000 -0.99304409
vn -0.49703411 0.34160201 -0.79766231
vn -0.49944241 0.33769720 -0.79782071
vn -0.95920694 0.25881901 -0.11373110
vn -0.95920694 0.25881901 -0.11373110
vn 0.00000000 1.00000000 0.00000000
vn 0.00000000 1.00000000 0.00000000
vn 0.08536594 0.64615296 -0.75841875
vn 0.09363618 0.64567102 -0.75785302
vn 0.25769780 0.61343360 -0.74651930
vn 0.25032129 0.61586228 -0.74702938
vn 0.40576239 0.54165028 -0.73618738
vn 0.40007490 0.54532880 -0.73658440
vn 0.52933158 0.43653979 -0.72748958
vn 0.52567250 0.44051400 -0.72774710
vn 0.62197750 0.30563590 -0.72092350
vn 0.62019704 0.30893882 -0.72104954
vn 0.67927459 0.15723100 -0.71684339
vn 0.67880554 0.15909361 -0.71687674
vn 0.69865360 0.00000000 -0.71546010
vn 0.69865360 0.00000000 -0.71546010
vn 0.67880554 -0.15909361 -0.71687674
vn 0.67927459 -0.15723100 -0.71684339
vn 0.62019704 -0.30893882 -0.72104954
vn 0.62197750 -0.30563590 -0.72092350
vn 0.52567250 -0.44051400 -0.72774710
vn 0.52933158 -0.43653979 -0.72748958
vn 0.40007490 -0.54532880 -0.73658440
vn 0.40576239 -0.54165028 -0.73618738
vn 0.25032129 -0.61586228 -0.74702938
vn 0.25769780 -0.61343360 -0.74651930
vn 0.08536594 -0.64615296 -0.75841875
vn 0.09363618 -0.64567102 -0.75785302
vn -0.07598672 -0.63417752 -0.76944453
vn -0.08406052 -0.63249371 -0.76999061
vn -0.23925071 -0.57758972 -0.78048012
vn -0.24602220 -0.57412230 -0.78093320
vn -0.38359619 -0.47805449 -0.79013788
vn -0.38827900 -0.47374170 -0.79044811
vn -0.49703411 -0.34160201 -0.79766231
vn -0.49944241 -0.33769720 -0.79782071
vn -0.56956168 -0.17800169 -0.80244307
vn -0.57021862 -0.17568981 -0.80248602
vn -0.59451760 0.00000000 -0.80408260
vn -0.59451760 0.00000000 -0.80408260
vn -0.56956168 0.17800169 -0.80244307
vn -0.57021862 0.17568981 -0.80248602
vn -0.99304409 0.00000000 -0.11774310
vn -0.99304409 0.00000000 -0.11774310
vn 0.25701871 0.96592583 0.03047416
vn 0.25701871 0.96592583 0.03047416
vn 0.49652201 0.86602542 0.05887156
vn 0.49652201 0.86602542 0.05887156
vn 0.70218819 0.70710679 0.08325696
vn 0.70218819 0.70710679 0.08325696
vn 0.86000141 0.50000000 0.10196850
vn 0.86000141 0.50000000 0.10196850
vn 0.95920694 0.25881901 0.11373110
vn 0.95920694 0.25881901 0.11373110
vn 0.99304409 0.00000000 0.11774310
vn 0.99304409 0.00000000 0.11774310
vn 0.95920694 -0.25881901 0.11373110
vn 0.95920694 -0.25881901 0.11373110
vn 0.86000141 -0.50000000 0.10196850
vn 0.86000141 -0.50000000 0.10196850
vn 0.70218819 -0.70710679 0.08325696
vn 0.70218819 -0.70710679 0.08325696
vn 0.49652201 -0.86602542 0.05887156
vn 0.49652201 -0.86602542 0.05887156
vn 0.25701871 -0.96592583 0.03047416
vn 0.25701871 -0.96592583 0.03047416
vn 0.00000000 -1.00000000 0.00000000
vn 0.00000000 -1.00000000 0.00000000
vn -0.25701871 -0.96592583 -0.03047416
vn -0.25701871 -0.96592583 -0.03047416
vn -0.49652201 -0.86602542 -0.05887156
vn -0.49652201 -0.86602542 -0.05887156
vn -0.70218819 -0.70710679 -0.08325696
vn -0.70218819 -0.70710679 -0.08325696
vn -0.86000141 -0.50000000 -0.10196850
vn -0.86000141 -0.50000000 -0.10196850
vn -0.95920694 -0.25881901 -0.11373110
vn -0.95920694 -0.25881901 -0.11373110
f 1//1 2//2 3//3
f 2//2 1//1 4//4
f 5//5 6//6 7//7
f 6//6 5//5 8//8
f 9//9 1//1 10//10
f 1//1 9//9 4//4
f 3//3 11//11 12//12
f 11//11 3//3 2//2
f 8//8 13//13 6//6
f 13//13 8//8 14//14
f 15//15 16//16 17//17
f 16//16 15//15 18//18
f 18//18 15//15 19//19
f 18//18 19//19 20//20
f 18//18 20//20 21//21
f 21//21 20//20 22//22
f 22//22 20//20 23//23
f 22//22 23//23 24//24
f 24//24 23//23 25//25
f 24//24 25//25 26//26
f 26//26 25//25 27//27
f 26//26 27//27 28//28
f 26//26 28//28 29//29
f 29//29 28//28 30//30
f 30//30 28//28 31//31
f 30//30 31//31 32//32
f 30//30 32//32 33//33
f 33//33 32//32 34//34
f 33//33 34//34 35//35
f 35//35 34//34 36//36
f 36//36 34//34 37//37
f 36//36 37//37 38//38
f 39//39 7//7 40//40
f 7//7 39//39 5//5
f 41//41 10//10 42//42
f 10//10 41//41 9//9
f 12//12 43//43 44//44
f 43//43 12//12 11//11
f 14//14 45//45 13//13
f 45//45 14//14 46//46
f 45//45 47//47 48//48
f 47//47 45//45 46//46
f 48//48 49//49 50//50
f 49//49 48//48 47//47
f 50//50 51//51 52//52
f 51//51 50//50 49//49
f 52//52 53//53 54//54
f 53//53 52//52 51//51
f 54//54 55//55 56//56
f 55//55 54//54 53//53
f 57//57 55//55 58//58
f 55//55 57//57 56//56
f 59//59 58//58 60//60
f 58//58 59//59 57//57
f 61//61 60//60 62//62
f 60//60 61//61 59//59
f 63//63 62//62 64//64
f 62//62 63//63 61//61
f 65//65 64//64 66//66
f 64//64 65//65 63//63
f 67//67 66//66 68//68
f 66//66 67//67 65//65
f 69//69 68//68 70//70
f 68//68 69//69 67//67
f 71//71 69//69 70//70
f 69//69 71//71 72//72
f 73//73 72//72 71//71
f 72//72 73//73 74//74
f 75//75 74//74 73//73
f 74//74 75//75 76//76
f 77//77 76//76 75//75
f 76//76 77//77 78//78
f 79//79 78//78 77//77
f 78//78 79//79 80//80
f 81//81 80//80 79//79
f 80//80 81//81 82//82
f 83//83 82//82 81//81
f 82//82 83//83 84//84
f 83//83 40//40 84//84
f 40//40 83//83 39//39
f 85//85 42//42 86//86
f 42//42 85//85 41//41
f 44//44 87//87 88//88
f 87//87 44//44 43//43
f 88//88 89//89 90//90
f 89//89 88//88 87//87
f 90//90 91//91 92//92
f 91//91 90//90 89//89
f 91//91 93//93 92//92
f 93//93 91//91 94//94
f 94//94 95//95 93//93
f 95//95 94//94 96//96
f 96//96 97//97 95//95
f 97//97 96//96 98//98
f 97//97 99//99 100//100
f 99//99 97//97 98//98
f 100//100 101//101 102//102
f 101//101 100//100 99//99
f 102//102 103//103 104//104
f 103//103 102//102 101//101
f 103//103 105//105 104//104
f 105//105 103//103 106//106
f 106//106 107//107 105//105
f 107//107 106//106 108//108
f 108//108 109//109 107//107
f 109//109 108//108 110//110
f 110//110 111//111 109//109
f 111//111 110//110 112//112
f 112//112 113//113 111//111
f 113//113 112//112 114//114
f 114//114 115//115 113//113
f 115//115 114//114 116//116
f 115//115 117//117 118//118
f 117//117 115//115 116//116
f 118//118 119//119 120//120
f 119//119 118//118 117//117
f 120//120 85//85 86//86
f 85//85 120//120 119//119

