mtllib material.mtl
usemtl material_0_0
v -0.76358700 0.03944700 -0.44676500
v -0.76233100 0.03944700 -0.45735900
v -0.75660300 0.04484300 -0.44593700
v -0.75534700 0.04484300 -0.45653100
v -0.75534700 0.04484300 -0.45653100
v -0.76233100 0.03944700 -0.45735900
v -0.75301600 0.04077600 -0.46025500
v -0.75903400 0.03612600 -0.46096900
v -0.76894600 0.03241400 -0.44740000
v -0.76769000 0.03241400 -0.45799400
v -0.74847100 0.04823500 -0.44497200
v -0.74721400 0.04823500 -0.45556700
v -0.74721400 0.04823500 -0.45556700
v -0.74600700 0.04370000 -0.45942400
v -0.73848700 0.04469700 -0.45853300
v -0.74600700 0.04370000 -0.45942400
v -0.73096600 0.04370000 -0.45764100
v -0.75301600 0.04077600 -0.46025500
v -0.72395800 0.04077600 -0.45681000
v -0.71794000 0.03612600 -0.45609600
v -0.75903400 0.03612600 -0.46096900
v -0.71332200 0.03006600 -0.45554900
v -0.76365200 0.03006600 -0.46151600
v -0.76655500 0.02300900 -0.46186100
v -0.71041900 0.02300900 -0.45520500
v -0.70942900 0.01543600 -0.45508700
v -0.76754500 0.01543600 -0.46197800
v -0.76655500 0.00786200 -0.46186100
v -0.71041900 0.00786200 -0.45520500
v -0.76365200 0.00080500 -0.46151600
v -0.71332200 0.00080500 -0.45554900
v -0.75903400 -0.00525600 -0.46096900
v -0.71794000 -0.00525600 -0.45609600
v -0.72395800 -0.00990600 -0.45681000
v -0.75301600 -0.00990600 -0.46025500
v -0.74600700 -0.01282900 -0.45942400
v -0.73096600 -0.01282900 -0.45764100
v -0.73848700 -0.01382600 -0.45853300
v -0.76769000 0.03241400 -0.45799400
v -0.76365200 0.03006600 -0.46151600
v -0.77231500 0.02422400 -0.44780000
v -0.77105900 0.02422400 -0.45839400
v -0.73974300 0.04939300 -0.44393800
v -0.73848700 0.04939300 -0.45453200
v -0.73848700 0.04939300 -0.45453200
v -0.73848700 0.04469700 -0.45853300
v -0.72975900 0.04823500 -0.45349700
v -0.73096600 0.04370000 -0.45764100
v -0.72162600 0.04484300 -0.45253300
v -0.72395800 0.04077600 -0.45681000
v -0.71464200 0.03944700 -0.45170500
v -0.71794000 0.03612600 -0.45609600
v -0.70928400 0.03241400 -0.45106900
v -0.71332200 0.03006600 -0.45554900
v -0.70591500 0.02422400 -0.45067000
v -0.71041900 0.02300900 -0.45520500
v -0.70942900 0.01543600 -0.45508700
v -0.70476600 0.01543600 -0.45053400
v -0.71041900 0.00786200 -0.45520500
v -0.70591500 0.00664700 -0.45067000
v -0.71332200 0.00080500 -0.45554900
v -0.70928400 -0.00154300 -0.45106900
v -0.71794000 -0.00525600 -0.45609600
v -0.71464200 -0.00857600 -0.45170500
v -0.72395800 -0.00990600 -0.45681000
v -0.72162600 -0.01397200 -0.45253300
v -0.73096600 -0.01282900 -0.45764100
v -0.72975900 -0.01736500 -0.45349700
v -0.73848700 -0.01382600 -0.45853300
v -0.73848700 -0.01852200 -0.45453200
v -0.74600700 -0.01282900 -0.45942400
v -0.74721400 -0.01736500 -0.45556700
v -0.75301600 -0.00990600 -0.46025500
v -0.75534700 -0.01397200 -0.45653100
v -0.75903400 -0.00525600 -0.46096900
v -0.76233100 -0.00857600 -0.45735900
v -0.76365200 0.00080500 -0.46151600
v -0.76769000 -0.00154300 -0.45799400
v -0.76655500 0.00786200 -0.46186100
v -0.77105900 0.00664700 -0.45839400
v -0.76754500 0.01543600 -0.46197800
v -0.77220800 0.01543600 -0.45853000
v -0.76655500 0.02300900 -0.46186100
v -0.77105900 0.02422400 -0.45839400
v -0.77346400 0.01543600 -0.44793600
v -0.77220800 0.01543600 -0.45853000
v -0.73101500 0.04823500 -0.44290300
v -0.72975900 0.04823500 -0.45349700
v -0.72288300 0.04484300 -0.44193800
v -0.72162600 0.04484300 -0.45253300
v -0.71589900 0.03944700 -0.44111000
v -0.71464200 0.03944700 -0.45170500
v -0.71054000 0.03241400 -0.44047500
v -0.70928400 0.03241400 -0.45106900
v -0.70717100 0.02422400 -0.44007600
v -0.70591500 0.02422400 -0.45067000
v -0.70602200 0.01543600 -0.43993900
v -0.70476600 0.01543600 -0.45053400
v -0.70717100 0.00664700 -0.44007600
v -0.70591500 0.00664700 -0.45067000
v -0.71054000 -0.00154300 -0.44047500
v -0.70928400 -0.00154300 -0.45106900
v -0.71589900 -0.00857600 -0.44111000
v -0.71464200 -0.00857600 -0.45170500
v -0.72288300 -0.01397200 -0.44193800
v -0.72162600 -0.01397200 -0.45253300
v -0.73101500 -0.01736500 -0.44290300
v -0.72975900 -0.01736500 -0.45349700
v -0.73974300 -0.01852200 -0.44393800
v -0.73848700 -0.01852200 -0.45453200
v -0.74847100 -0.01736500 -0.44497200
v -0.74721400 -0.01736500 -0.45556700
v -0.75660300 -0.01397200 -0.44593700
v -0.75534700 -0.01397200 -0.45653100
v -0.76358700 -0.00857600 -0.44676500
v -0.76233100 -0.00857600 -0.45735900
v -0.76894600 -0.00154300 -0.44740000
v -0.76769000 -0.00154300 -0.45799400
v -0.77231500 0.00664700 -0.44780000
v -0.77105900 0.00664700 -0.45839400
vn 0.70218819 -0.70710679 0.08325696
vn 0.70218819 -0.70710679 0.08325696
vn 0.49652201 -0.86602542 0.05887156
vn 0.49652201 -0.86602542 0.05887156
vn 0.23925071 -0.57758972 0.78048012
vn 0.38359619 -0.47805449 0.79013788
vn 0.24602220 -0.57412230 0.78093320
vn 0.38827900 -0.47374170 0.79044811
vn 0.86000141 -0.50000000 0.10196850
vn 0.86000141 -0.50000000 0.10196850
vn 0.25701871 -0.96592583 0.03047416
vn 0.25701871 -0.96592583 0.03047416
vn 0.07598672 -0.63417752 0.76944453
vn 0.08406052 -0.63249371 0.76999061
vn -0.11774310 0.00000000 0.99304409
vn -0.11774310 0.00000000 0.99304409
vn -0.11774310 0.00000000 0.99304409
vn -0.11774310 0.00000000 0.99304409
vn -0.11774310 0.00000000 0.99304409
vn -0.11774310 0.00000000 0.99304409
vn -0.11774310 0.00000000 0.99304409
vn -0.11774310 0.00000000 0.99304409
vn -0.11774310 0.00000000 0.99304409
vn -0.11774310 0.00000000 0.99304409
vn -0.11774310 0.00000000 0.99304409
vn -0.11774310 0.00000000 0.99304409
vn -0.11774310 0.00000000 0.99304409
vn -0.11774310 0.00000000 0.99304409
vn -0.11774310 0.00000000 0.99304409
vn -0.11774310 0.00000000 0.99304409
vn -0.11774310 0.00000000 0.99304409
vn -0.11774310 0.00000000 0.99304409
vn -0.11774310 0.00000000 0.99304409
vn -0.11774310 0.00000000 0.99304409
vn -0.11774310 0.00000000 0.99304409
vn -0.11774310 0.00000000 0.99304409
vn -0.11774310 0.00000000 0.99304409
vn -0.11774310 0.00000000 0.99304409
vn 0.49703411 -0.34160201 0.79766231
vn 0.49944241 -0.33769720 0.79782071
vn 0.95920694 -0.25881901 0.11373110
vn 0.95920694 -0.25881901 0.11373110
vn 0.00000000 -1.00000000 0.00000000
vn 0.00000000 -1.00000000 0.00000000
vn -0.09363618 -0.64567102 0.75785302
vn -0.08536594 -0.64615296 0.75841875
vn -0.25769780 -0.61343360 0.74651930
vn -0.25032129 -0.61586228 0.74702938
vn -0.40576239 -0.54165028 0.73618738
vn -0.40007490 -0.54532880 0.73658440
vn -0.52933158 -0.43653979 0.72748958
vn -0.52567250 -0.44051400 0.72774710
vn -0.62197750 -0.30563590 0.72092350
vn -0.62019704 -0.30893882 0.72104954
vn -0.67927459 -0.15723100 0.71684339
vn -0.67880554 -0.15909361 0.71687674
vn -0.69865360 0.00000000 0.71546010
vn -0.69865360 0.00000000 0.71546010
vn -0.67880554 0.15909361 0.71687674
vn -0.67927459 0.15723100 0.71684339
vn -0.62019704 0.30893882 0.72104954
vn -0.62197750 0.30563590 0.72092350
vn -0.52567250 0.44051400 0.72774710
vn -0.52933158 0.43653979 0.72748958
vn -0.40007490 0.54532880 0.73658440
vn -0.40576239 0.54165028 0.73618738
vn -0.25032129 0.61586228 0.74702938
vn -0.25769780 0.61343360 0.74651930
vn -0.08536594 0.64615296 0.75841875
vn -0.09363618 0.64567102 0.75785302
vn 0.08406052 0.63249371 0.76999061
vn 0.07598672 0.63417752 0.76944453
vn 0.24602220 0.57412230 0.78093320
vn 0.23925071 0.57758972 0.78048012
vn 0.38827900 0.47374170 0.79044811
vn 0.38359619 0.47805449 0.79013788
vn 0.49944241 0.33769720 0.79782071
vn 0.49703411 0.34160201 0.79766231
vn 0.57021862 0.17568981 0.80248602
vn 0.56956168 0.17800169 0.80244307
vn 0.59451760 0.00000000 0.80408260
vn 0.59451760 0.00000000 0.80408260
vn 0.57021862 -0.17568981 0.80248602
vn 0.56956168 -0.17800169 0.80244307
vn 0.99304409 0.00000000 0.11774310
vn 0.99304409 0.00000000 0.11774310
vn -0.25701871 -0.96592583 -0.03047416
vn -0.25701871 -0.96592583 -0.03047416
vn -0.49652201 -0.86602542 -0.05887156
vn -0.49652201 -0.86602542 -0.05887156
vn -0.70218819 -0.70710679 -0.08325696
vn -0.70218819 -0.70710679 -0.08325696
vn -0.86000141 -0.50000000 -0.10196850
vn -0.86000141 -0.50000000 -0.10196850
vn -0.95920694 -0.25881901 -0.11373110
vn -0.95920694 -0.25881901 -0.11373110
vn -0.99304409 0.00000000 -0.11774310
vn -0.99304409 0.00000000 -0.11774310
vn -0.95920694 0.25881901 -0.11373110
vn -0.95920694 0.25881901 -0.11373110
vn -0.86000141 0.50000000 -0.10196850
vn -0.86000141 0.50000000 -0.10196850
vn -0.70218819 0.70710679 -0.08325696
vn -0.70218819 0.70710679 -0.08325696
vn -0.49652201 0.86602542 -0.05887156
vn -0.49652201 0.86602542 -0.05887156
vn -0.25701871 0.96592583 -0.03047416
vn -0.25701871 0.96592583 -0.03047416
vn 0.00000000 1.00000000 0.00000000
vn 0.00000000 1.00000000 0.00000000
vn 0.25701871 0.96592583 0.03047416
vn 0.25701871 0.96592583 0.03047416
vn 0.49652201 0.86602542 0.05887156
vn 0.49652201 0.86602542 0.05887156
vn 0.70218819 0.70710679 0.08325696
vn 0.70218819 0.70710679 0.08325696
vn 0.86000141 0.50000000 0.10196850
vn 0.86000141 0.50000000 0.10196850
vn 0.95920694 0.25881901 0.11373110
vn 0.95920694 0.25881901 0.11373110
f 1//1 2//2 3//3
f 4//4 3//3 2//2
f 5//5 6//6 7//7
f 8//8 7//7 6//6
f 1//1 9//9 2//2
f 10//10 2//2 9//9
f 3//3 4//4 11//11
f 12//12 11//11 4//4
f 13//13 5//5 14//14
f 7//7 14//14 5//5
f 15//15 16//16 17//17
f 16//16 18//18 17//17
f 17//17 18//18 19//19
f 19//19 18//18 20//20
f 18//18 21//21 20//20
f 20//20 21//21 22//22
f 21//21 23//23 22//22
f 23//23 24//24 22//22
f 22//22 24//24 25//25
f 25//25 24//24 26//26
f 24//24 27//27 26//26
f 27//27 28//28 26//26
f 26//26 28//28 29//29
f 28//28 30//30 29//29
f 29//29 30//30 31//31
f 30//30 32//32 31//31
f 31//31 32//32 33//33
f 33//33 32//32 34//34
f 32//32 35//35 34//34
f 35//35 36//36 34//34
f 34//34 36//36 37//37
f 38//38 37//37 36//36
f 6//6 39//39 8//8
f 40//40 8//8 39//39
f 9//9 41//41 10//10
f 42//42 10//10 41//41
f 11//11 12//12 43//43
f 44//44 43//43 12//12
f 45//45 13//13 46//46
f 14//14 46//46 13//13
f 45//45 46//46 47//47
f 48//48 47//47 46//46
f 47//47 48//48 49//49
f 50//50 49//49 48//48
f 49//49 50//50 51//51
f 52//52 51//51 50//50
f 51//51 52//52 53//53
f 54//54 53//53 52//52
f 53//53 54//54 55//55
f 56//56 55//55 54//54
f 56//56 57//57 55//55
f 58//58 55//55 57//57
f 57//57 59//59 58//58
f 60//60 58//58 59//59
f 59//59 61//61 60//60
f 62//62 60//60 61//61
f 61//61 63//63 62//62
f 64//64 62//62 63//63
f 63//63 65//65 64//64
f 66//66 64//64 65//65
f 65//65 67//67 66//66
f 68//68 66//66 67//67
f 67//67 69//69 68//68
f 70//70 68//68 69//69
f 71//71 72//72 69//69
f 70//70 69//69 72//72
f 73//73 74//74 71//71
f 72//72 71//71 74//74
f 75//75 76//76 73//73
f 74//74 73//73 76//76
f 77//77 78//78 75//75
f 76//76 75//75 78//78
f 79//79 80//80 77//77
f 78//78 77//77 80//80
f 81//81 82//82 79//79
f 80//80 79//79 82//82
f 83//83 84//84 81//81
f 82//82 81//81 84//84
f 39//39 84//84 40//40
f 83//83 40//40 84//84
f 41//41 85//85 42//42
f 86//86 42//42 85//85
f 43//43 44//44 87//87
f 88//88 87//87 44//44
f 87//87 88//88 89//89
f 90//90 89//89 88//88
f 89//89 90//90 91//91
f 92//92 91//91 90//90
f 93//93 91//91 94//94
f 92//92 94//94 91//91
f 95//95 93//93 96//96
f 94//94 96//96 93//93
f 97//97 95//95 98//98
f 96//96 98//98 95//95
f 97//97 98//98 99//99
f 100//100 99//99 98//98
f 99//99 100//100 101//101
f 102//102 101//101 100//100
f 101//101 102//102 103//103
f 104//104 103//103 102//102
f 105//105 103//103 106//106
f 104//104 106//106 103//103
f 107//107 105//105 108//108
f 106//106 108//108 105//105
f 109//109 107//107 110//110
f 108//108 110//110 107//107
f 111//111 109//109 112//112
f 110//110 112//112 109//109
f 113//113 111//111 114//114
f 112//112 114//114 111//111
f 115//115 113//113 116//116
f 114//114 116//116 113//113
f 115//115 116//116 117//117
f 118//118 117//117 116//116
f 117//117 118//118 119//119
f 120//120 119//119 118//118
f 119//119 120//120 85//85
f 86//86 85//85 120//120

