mtllib material.mtl
usemtl material_0_0
v 0.69747100 0.31935300 -0.48440300
v 0.69747100 0.38589500 -0.48440300
v 0.69747100 0.31935300 -0.50103800
v 0.69747100 0.38590000 -0.50103800
v -0.02039300 0.38578100 -0.50103800
v -0.02906800 0.38536400 -0.50103800
v 0.69747100 0.38590000 -0.50103800
v -0.03734000 0.38271700 -0.50103800
v -0.04464500 0.37801800 -0.50103800
v -0.05048500 0.37158900 -0.50103800
v -0.05446200 0.36386800 -0.50103800
v -0.05630500 0.35538000 -0.50103800
v -0.05588900 0.34670500 -0.50103800
v -0.05324100 0.33843300 -0.50103800
v -0.04854300 0.33112800 -0.50103800
v -0.04211400 0.32528800 -0.50103800
v -0.03439200 0.32131100 -0.50103800
v -0.02590400 0.31946800 -0.50103800
v 0.69747100 0.31935300 -0.50103800
v -0.02039300 0.38578100 -0.48440300
v -0.02039300 0.38578100 -0.50103800
v 0.68083600 0.38589500 -0.48440300
v 0.69747100 0.38590000 -0.50103800
v 0.69747100 0.38589500 -0.48440300
v 0.69747100 0.31935300 0.46382000
v 0.69747100 0.38589500 0.46382000
v 0.69747100 0.31935300 0.44718500
v 0.69747100 0.31935300 -0.48440300
v 0.69747100 0.38589500 -0.48440300
v -0.02590400 0.31946800 -0.48440300
v 0.68083600 0.31935300 -0.48440300
v -0.02590400 0.31946800 -0.50103800
v 0.69747100 0.31935300 -0.50103800
v 0.69747100 0.31935300 -0.48440300
v -0.03439200 0.32131100 -0.50103800
v -0.03439200 0.32131100 -0.48440300
v -0.04211400 0.32528800 -0.50103800
v -0.04211400 0.32528800 -0.48440300
v -0.04854300 0.33112800 -0.50103800
v -0.04854300 0.33112800 -0.48440300
v -0.05324100 0.33843300 -0.48440300
v -0.05324100 0.33843300 -0.50103800
v -0.05588900 0.34670500 -0.48440300
v -0.05588900 0.34670500 -0.50103800
v -0.05630500 0.35538000 -0.48440300
v -0.05630500 0.35538000 -0.50103800
v -0.05446200 0.36386800 -0.48440300
v -0.05446200 0.36386800 -0.50103800
v -0.05048500 0.37158900 -0.48440300
v -0.05048500 0.37158900 -0.50103800
v -0.04464500 0.37801800 -0.48440300
v -0.04464500 0.37801800 -0.50103800
v -0.03734000 0.38271700 -0.48440300
v -0.03734000 0.38271700 -0.50103800
v -0.02906800 0.38536400 -0.48440300
v -0.02906800 0.38536400 -0.50103800
v -0.02039300 0.38578100 -0.48440300
v 0.68083600 0.38589500 -0.48440300
v -0.02906800 0.38536400 -0.48440300
v -0.03734000 0.38271700 -0.48440300
v -0.04464500 0.37801800 -0.48440300
v -0.05048500 0.37158900 -0.48440300
v -0.05446200 0.36386800 -0.48440300
v -0.05630500 0.35538000 -0.48440300
v -0.05588900 0.34670500 -0.48440300
v -0.05324100 0.33843300 -0.48440300
v -0.04854300 0.33112800 -0.48440300
v -0.04211400 0.32528800 -0.48440300
v -0.03439200 0.32131100 -0.48440300
v -0.02590400 0.31946800 -0.48440300
v 0.68083600 0.31935300 -0.48440300
v 0.68083600 0.38589500 0.44718500
v 0.68083600 0.38589500 -0.48440300
v 0.68083600 0.38589500 0.46382000
v 0.69747100 0.38589500 0.46382000
v 0.69747100 0.38589500 -0.48440300
v 0.69747100 0.30604500 0.46382000
v 0.69747100 0.30604500 0.44718500
v 0.68083600 0.31935300 -0.48440300
v 0.68083600 0.31935300 0.44718500
v 0.69747100 0.31935300 -0.48440300
v 0.69747100 0.31935300 0.44718500
v 0.68083600 0.38589500 0.44718500
v 0.68083600 0.31935300 0.44718500
v 0.68083600 0.38589500 -0.48440300
v 0.68083600 0.31935300 -0.48440300
v -0.01785500 0.38589500 0.46382000
v -0.01785500 0.38589500 0.44718500
v -0.01785500 0.30604500 0.44718500
v -0.01785500 0.30604500 0.46382000
v 0.69747100 0.30604500 0.44718500
v 0.69747100 0.30604500 0.46382000
v 0.68083600 0.31935300 0.44718500
v -0.04608600 0.31773900 0.44718500
v 0.69747100 0.31935300 0.44718500
v -0.03781700 0.31139400 0.44718500
v -0.02818800 0.30740500 0.44718500
v 0.69747100 0.30604500 0.44718500
v -0.01785500 0.30604500 0.44718500
v -0.01785500 0.38589500 0.44718500
v -0.02818800 0.38453500 0.44718500
v 0.68083600 0.38589500 0.44718500
v -0.03781700 0.38054600 0.44718500
v -0.04608600 0.37420200 0.44718500
v -0.05243100 0.36593300 0.44718500
v -0.05642000 0.35630400 0.44718500
v -0.05778000 0.34597000 0.44718500
v -0.05642000 0.33563700 0.44718500
v -0.05243100 0.32600800 0.44718500
v -0.02818800 0.38453500 0.46382000
v -0.02818800 0.38453500 0.44718500
v -0.02818800 0.30740500 0.44718500
v -0.02818800 0.30740500 0.46382000
v -0.03781700 0.31139400 0.44718500
v -0.03781700 0.31139400 0.46382000
v -0.04608600 0.31773900 0.44718500
v -0.04608600 0.31773900 0.46382000
v -0.05243100 0.32600800 0.46382000
v -0.05243100 0.32600800 0.44718500
v -0.05642000 0.33563700 0.46382000
v -0.05642000 0.33563700 0.44718500
v -0.05778000 0.34597000 0.46382000
v -0.05778000 0.34597000 0.44718500
v -0.05642000 0.35630400 0.46382000
v -0.05642000 0.35630400 0.44718500
v -0.05243100 0.36593300 0.46382000
v -0.05243100 0.36593300 0.44718500
v -0.04608600 0.37420200 0.46382000
v -0.04608600 0.37420200 0.44718500
v -0.03781700 0.38054600 0.46382000
v -0.03781700 0.38054600 0.44718500
vn -1.00000000 0.00000000 0.00000000
vn -1.00000000 0.00000000 0.00000000
vn -1.00000000 0.00000000 0.00000000
vn -1.00000000 0.00000000 0.00000000
vn 0.00000000 0.00000000 1.00000000
vn 0.00000000 0.00000000 1.00000000
vn 0.00000000 0.00000000 1.00000000
vn 0.00000000 0.00000000 1.00000000
vn 0.00000000 0.00000000 1.00000000
vn 0.00000000 0.00000000 1.00000000
vn 0.00000000 0.00000000 1.00000000
vn 0.00000000 0.00000000 1.00000000
vn 0.00000000 0.00000000 1.00000000
vn 0.00000000 0.00000000 1.00000000
vn 0.00000000 0.00000000 1.00000000
vn 0.00000000 0.00000000 1.00000000
vn 0.00000000 0.00000000 1.00000000
vn 0.00000000 0.00000000 1.00000000
vn 0.00000000 0.00000000 1.00000000
vn 0.02406616 -0.99971037 -0.00005999
vn 0.02406616 -0.99971037 -0.00005999
vn 0.00016322 -0.99999998 -0.00011995
vn 0.00016322 -0.99999998 -0.00011995
vn 0.00016322 -0.99999998 -0.00011995
vn -1.00000000 0.00000000 0.00000000
vn -1.00000000 0.00000000 0.00000000
vn -1.00000000 0.00000000 0.00000000
vn -1.00000000 0.00000000 0.00000000
vn -1.00000000 0.00000000 0.00000000
vn 0.10678830 0.99428178 0.00002300
vn 0.00015906 0.99999999 0.00004575
vn 0.10678830 0.99428178 0.00002300
vn 0.00015906 0.99999999 0.00004575
vn 0.00015906 0.99999999 0.00004575
vn 0.33793820 0.94116830 0.00000000
vn 0.33793820 0.94116830 0.00000000
vn 0.57001552 0.82163393 0.00000000
vn 0.57001552 0.82163393 0.00000000
vn 0.76324719 0.64610659 0.00000000
vn 0.76324719 0.64610659 0.00000000
vn 0.90446488 0.42654809 0.00000000
vn 0.90446488 0.42654809 0.00000000
vn 0.98404476 0.17792109 0.00000000
vn 0.98404476 0.17792109 0.00000000
vn 0.99656361 -0.08283093 0.00000000
vn 0.99656361 -0.08283093 0.00000000
vn 0.94116830 -0.33793820 0.00000000
vn 0.94116830 -0.33793820 0.00000000
vn 0.82163393 -0.57001552 0.00000000
vn 0.82163393 -0.57001552 0.00000000
vn 0.64610659 -0.76324719 0.00000000
vn 0.64610659 -0.76324719 0.00000000
vn 0.42654809 -0.90446488 0.00000000
vn 0.42654809 -0.90446488 0.00000000
vn 0.17792109 -0.98404476 0.00000000
vn 0.17792109 -0.98404476 0.00000000
vn 0.00000000 0.00000000 -1.00000000
vn 0.00000000 0.00000000 -1.00000000
vn 0.00000000 0.00000000 -1.00000000
vn 0.00000000 0.00000000 -1.00000000
vn 0.00000000 0.00000000 -1.00000000
vn 0.00000000 0.00000000 -1.00000000
vn 0.00000000 0.00000000 -1.00000000
vn 0.00000000 0.00000000 -1.00000000
vn 0.00000000 0.00000000 -1.00000000
vn 0.00000000 0.00000000 -1.00000000
vn 0.00000000 0.00000000 -1.00000000
vn 0.00000000 0.00000000 -1.00000000
vn 0.00000000 0.00000000 -1.00000000
vn 0.00000000 0.00000000 -1.00000000
vn 0.00000000 0.00000000 -1.00000000
vn 0.00000000 -1.00000000 0.00000000
vn 0.00000000 -1.00000000 0.00000000
vn 0.00000000 -1.00000000 0.00000000
vn 0.00000000 -1.00000000 0.00000000
vn 0.00000000 -1.00000000 0.00000000
vn -1.00000000 0.00000000 0.00000000
vn -1.00000000 0.00000000 0.00000000
vn 0.00000000 1.00000000 0.00000000
vn 0.00000000 1.00000000 0.00000000
vn 0.00000000 1.00000000 0.00000000
vn 0.00000000 1.00000000 0.00000000
vn 1.00000000 0.00000000 0.00000000
vn 1.00000000 0.00000000 0.00000000
vn 1.00000000 0.00000000 0.00000000
vn 1.00000000 0.00000000 0.00000000
vn 0.06540313 -0.99785892 0.00000000
vn 0.06540313 -0.99785892 0.00000000
vn 0.06540313 0.99785892 0.00000000
vn 0.06540313 0.99785892 0.00000000
vn 0.00000000 1.00000000 0.00000000
vn 0.00000000 1.00000000 0.00000000
vn 0.00000000 0.00000000 1.00000000
vn 0.00000000 0.00000000 1.00000000
vn 0.00000000 0.00000000 1.00000000
vn 0.00000000 0.00000000 1.00000000
vn 0.00000000 0.00000000 1.00000000
vn 0.00000000 0.00000000 1.00000000
vn 0.00000000 0.00000000 1.00000000
vn 0.00000000 0.00000000 1.00000000
vn 0.00000000 0.00000000 1.00000000
vn 0.00000000 0.00000000 1.00000000
vn 0.00000000 0.00000000 1.00000000
vn 0.00000000 0.00000000 1.00000000
vn 0.00000000 0.00000000 1.00000000
vn 0.00000000 0.00000000 1.00000000
vn 0.00000000 0.00000000 1.00000000
vn 0.00000000 0.00000000 1.00000000
vn 0.00000000 0.00000000 1.00000000
vn 0.25881901 -0.96592584 0.00000000
vn 0.25881901 -0.96592584 0.00000000
vn 0.25881901 0.96592584 0.00000000
vn 0.25881901 0.96592584 0.00000000
vn 0.50000000 0.86602540 0.00000000
vn 0.50000000 0.86602540 0.00000000
vn 0.70710678 0.70710678 0.00000000
vn 0.70710678 0.70710678 0.00000000
vn 0.86602540 0.50000000 0.00000000
vn 0.86602540 0.50000000 0.00000000
vn 0.96592584 0.25881901 0.00000000
vn 0.96592584 0.25881901 0.00000000
vn 1.00000000 0.00000000 0.00000000
vn 1.00000000 0.00000000 0.00000000
vn 0.96592584 -0.25881901 0.00000000
vn 0.96592584 -0.25881901 0.00000000
vn 0.86602540 -0.50000000 0.00000000
vn 0.86602540 -0.50000000 0.00000000
vn 0.70710678 -0.70710678 0.00000000
vn 0.70710678 -0.70710678 0.00000000
vn 0.50000000 -0.86602540 0.00000000
vn 0.50000000 -0.86602540 0.00000000
f 1//1 2//2 3//3
f 4//4 3//3 2//2
f 5//5 6//6 7//7
f 6//6 8//8 7//7
f 8//8 9//9 7//7
f 9//9 10//10 7//7
f 10//10 11//11 7//7
f 11//11 12//12 7//7
f 12//12 13//13 7//7
f 13//13 14//14 7//7
f 14//14 15//15 7//7
f 15//15 16//16 7//7
f 16//16 17//17 7//7
f 17//17 18//18 7//7
f 19//19 7//7 18//18
f 20//20 21//21 22//22
f 21//21 23//23 22//22
f 24//24 22//22 23//23
f 25//25 26//26 27//27
f 27//27 26//26 28//28
f 29//29 28//28 26//26
f 30//30 31//31 32//32
f 32//32 31//31 33//33
f 34//34 33//33 31//31
f 35//35 36//36 32//32
f 30//30 32//32 36//36
f 37//37 38//38 35//35
f 36//36 35//35 38//38
f 39//39 40//40 37//37
f 38//38 37//37 40//40
f 41//41 40//40 42//42
f 39//39 42//42 40//40
f 43//43 41//41 44//44
f 42//42 44//44 41//41
f 45//45 43//43 46//46
f 44//44 46//46 43//43
f 47//47 45//45 48//48
f 46//46 48//48 45//45
f 49//49 47//47 50//50
f 48//48 50//50 47//47
f 51//51 49//49 52//52
f 50//50 52//52 49//49
f 51//51 52//52 53//53
f 54//54 53//53 52//52
f 53//53 54//54 55//55
f 56//56 55//55 54//54
f 55//55 56//56 20//20
f 21//21 20//20 56//56
f 57//57 58//58 59//59
f 59//59 58//58 60//60
f 60//60 58//58 61//61
f 61//61 58//58 62//62
f 62//62 58//58 63//63
f 63//63 58//58 64//64
f 64//64 58//58 65//65
f 65//65 58//58 66//66
f 66//66 58//58 67//67
f 67//67 58//58 68//68
f 68//68 58//58 69//69
f 69//69 58//58 70//70
f 71//71 70//70 58//58
f 72//72 73//73 74//74
f 74//74 73//73 75//75
f 76//76 75//75 73//73
f 77//77 25//25 78//78
f 27//27 78//78 25//25
f 79//79 80//80 81//81
f 82//82 81//81 80//80
f 83//83 84//84 85//85
f 86//86 85//85 84//84
f 87//87 88//88 74//74
f 72//72 74//74 88//88
f 89//89 90//90 91//91
f 92//92 91//91 90//90
f 93//93 94//94 95//95
f 94//94 96//96 95//95
f 96//96 97//97 95//95
f 95//95 97//97 98//98
f 99//99 98//98 97//97
f 100//100 101//101 102//102
f 101//101 103//103 102//102
f 103//103 104//104 102//102
f 104//104 105//105 102//102
f 105//105 106//106 102//102
f 106//106 107//107 102//102
f 107//107 108//108 102//102
f 108//108 109//109 102//102
f 102//102 109//109 93//93
f 94//94 93//93 109//109
f 110//110 111//111 87//87
f 88//88 87//87 111//111
f 112//112 113//113 89//89
f 90//90 89//89 113//113
f 114//114 115//115 112//112
f 113//113 112//112 115//115
f 116//116 117//117 114//114
f 115//115 114//114 117//117
f 118//118 117//117 119//119
f 116//116 119//119 117//117
f 120//120 118//118 121//121
f 119//119 121//121 118//118
f 122//122 120//120 123//123
f 121//121 123//123 120//120
f 124//124 122//122 125//125
f 123//123 125//125 122//122
f 126//126 124//124 127//127
f 125//125 127//127 124//124
f 128//128 126//126 129//129
f 127//127 129//129 126//126
f 128//128 129//129 130//130
f 131//131 130//130 129//129
f 130//130 131//131 110//110
f 111//111 110//110 131//131

