mtllib material.mtl
usemtl material_0_0
v -0.02028400 0.55808100 0.28208600
v -0.00087100 0.56150300 0.23225900
v -0.02123400 0.55808100 0.23265000
v 0.00007900 0.56150300 0.28169500
v 0.00007900 0.56150300 0.28169500
v -0.02028400 0.55808100 0.28208600
v -0.00087100 0.56150300 0.23225900
v -0.02123400 0.55808100 0.23265000
v -0.03906800 0.54950400 0.28244700
v -0.04001700 0.54950400 0.23301100
v -0.03906800 0.54950400 0.28244700
v -0.04001700 0.54950400 0.23301100
v -0.03419300 0.41256400 0.28235300
v -0.02575800 0.47476300 0.28219100
v -0.02676800 0.48244100 0.28221100
v -0.01484700 0.40534500 0.28198200
v -0.02279500 0.46760800 0.28213400
v -0.01808100 0.46146400 0.28204400
v -0.01193800 0.45674900 0.28192600
v 0.00570800 0.40338000 0.28158700
v -0.00478400 0.45378500 0.28178800
v 0.00289300 0.45277500 0.28164100
v 0.01057000 0.45378500 0.28149400
v 0.02607100 0.40680200 0.28119600
v 0.01772400 0.45674900 0.28135600
v 0.02386700 0.46146400 0.28123800
v 0.02858100 0.46760800 0.28114800
v 0.04485400 0.41537900 0.28083500
v 0.03154400 0.47476300 0.28109100
v 0.03255500 0.48244100 0.28107100
v 0.03997900 0.55231900 0.28092900
v 0.05679800 0.54033700 0.28060600
v 0.06077800 0.42852700 0.28053000
v 0.06994300 0.52441000 0.28035400
v 0.07275700 0.44534800 0.28030000
v 0.07851900 0.50562300 0.28018900
v 0.07997500 0.46469800 0.28016100
v 0.08194100 0.48525600 0.28012300
v -0.07273200 0.45926000 0.28309300
v -0.07418900 0.50018500 0.28312100
v -0.07615400 0.47962600 0.28315900
v -0.06697100 0.51953500 0.28298200
v -0.06415700 0.44047300 0.28292800
v -0.05499200 0.53635600 0.28275200
v -0.05101200 0.42454600 0.28267600
v -0.03906800 0.54950400 0.28244700
v -0.02028400 0.55808100 0.28208600
v -0.02575800 0.49012000 0.28219100
v -0.02279500 0.49727500 0.28213400
v -0.01808100 0.50341900 0.28204400
v 0.00007900 0.56150300 0.28169500
v -0.01193800 0.50813400 0.28192600
v -0.00478400 0.51109800 0.28178800
v 0.00289300 0.51210800 0.28164100
v 0.02063400 0.55953800 0.28130000
v 0.01057000 0.51109800 0.28149400
v 0.01772400 0.50813400 0.28135600
v 0.02386700 0.50341900 0.28123800
v 0.02858100 0.49727500 0.28114800
v 0.03154400 0.49012000 0.28109100
v 0.03255500 0.48244100 0.28107100
v 0.03154400 0.49012000 0.28109100
v 0.03997900 0.55231900 0.28092900
v 0.02858100 0.49727500 0.28114800
v 0.02386700 0.50341900 0.28123800
v 0.02063400 0.55953800 0.28130000
v 0.01772400 0.50813400 0.28135600
v 0.01057000 0.51109800 0.28149400
v 0.00289300 0.51210800 0.28164100
v 0.00007900 0.56150300 0.28169500
v -0.00478400 0.51109800 0.28178800
v -0.01193800 0.50813400 0.28192600
v -0.01808100 0.50341900 0.28204400
v -0.02028400 0.55808100 0.28208600
v -0.02279500 0.49727500 0.28213400
v -0.02575800 0.49012000 0.28219100
v -0.02676800 0.48244100 0.28221100
v -0.03419300 0.41256400 0.28235300
v -0.03906800 0.54950400 0.28244700
v -0.05101200 0.42454600 0.28267600
v -0.05499200 0.53635600 0.28275200
v -0.06415700 0.44047300 0.28292800
v -0.06697100 0.51953500 0.28298200
v -0.07273200 0.45926000 0.28309300
v -0.07418900 0.50018500 0.28312100
v -0.07615400 0.47962600 0.28315900
v 0.08194100 0.48525600 0.28012300
v 0.07997500 0.46469800 0.28016100
v 0.07851900 0.50562300 0.28018900
v 0.07275700 0.44534800 0.28030000
v 0.06994300 0.52441000 0.28035400
v 0.06077800 0.42852700 0.28053000
v 0.05679800 0.54033700 0.28060600
v 0.04485400 0.41537900 0.28083500
v 0.03154400 0.47476300 0.28109100
v 0.02858100 0.46760800 0.28114800
v 0.02607100 0.40680200 0.28119600
v 0.02386700 0.46146400 0.28123800
v 0.01772400 0.45674900 0.28135600
v 0.01057000 0.45378500 0.28149400
v 0.00570800 0.40338000 0.28158700
v 0.00289300 0.45277500 0.28164100
v -0.00478400 0.45378500 0.28178800
v -0.01193800 0.45674900 0.28192600
v -0.01484700 0.40534500 0.28198200
v -0.01808100 0.46146400 0.28204400
v -0.02279500 0.46760800 0.28213400
v -0.02575800 0.47476300 0.28219100
v 0.01968400 0.55953800 0.23186500
v 0.02063400 0.55953800 0.28130000
v 0.02063400 0.55953800 0.28130000
v 0.01968400 0.55953800 0.23186500
v -0.05499200 0.53635600 0.28275200
v -0.05594100 0.53635600 0.23331700
v -0.05499200 0.53635600 0.28275200
v -0.05594100 0.53635600 0.23331700
v 0.08099100 0.48525600 0.23068700
v 0.07997500 0.46469800 0.28016100
v 0.07902600 0.46469800 0.23072500
v 0.08194100 0.48525600 0.28012300
v 0.08194100 0.48525600 0.28012300
v 0.08099100 0.48525600 0.23068700
v 0.07997500 0.46469800 0.28016100
v 0.07902600 0.46469800 0.23072500
v 0.07756900 0.50562300 0.23075300
v 0.07851900 0.50562300 0.28018900
v 0.07851900 0.50562300 0.28018900
v 0.07756900 0.50562300 0.23075300
v 0.06899400 0.52441000 0.23091800
v 0.06994300 0.52441000 0.28035400
v 0.06994300 0.52441000 0.28035400
v 0.06899400 0.52441000 0.23091800
v 0.05584900 0.54033700 0.23117000
v 0.05679800 0.54033700 0.28060600
v 0.05679800 0.54033700 0.28060600
v 0.05584900 0.54033700 0.23117000
v 0.03997900 0.55231900 0.28092900
v 0.03903000 0.55231900 0.23149300
v 0.03997900 0.55231900 0.28092900
v 0.03903000 0.55231900 0.23149300
v -0.06792000 0.51953500 0.23354700
v -0.06697100 0.51953500 0.28298200
v -0.06792000 0.51953500 0.23354700
v -0.06697100 0.51953500 0.28298200
v -0.07513800 0.50018500 0.23368500
v -0.07418900 0.50018500 0.28312100
v -0.07513800 0.50018500 0.23368500
v -0.07418900 0.50018500 0.28312100
v -0.07710300 0.47962600 0.23372300
v -0.07615400 0.47962600 0.28315900
v -0.07710300 0.47962600 0.23372300
v -0.07615400 0.47962600 0.28315900
v -0.07368200 0.45926000 0.23365700
v -0.07273200 0.45926000 0.28309300
v -0.07368200 0.45926000 0.23365700
v -0.07273200 0.45926000 0.28309300
v -0.06510600 0.44047300 0.23349300
v -0.06415700 0.44047300 0.28292800
v -0.06510600 0.44047300 0.23349300
v -0.06415700 0.44047300 0.28292800
v -0.05196100 0.42454600 0.23324000
v -0.05101200 0.42454600 0.28267600
v -0.05196100 0.42454600 0.23324000
v -0.05101200 0.42454600 0.28267600
v -0.03419300 0.41256400 0.28235300
v -0.03514200 0.41256400 0.23291700
v -0.03419300 0.41256400 0.28235300
v -0.03514200 0.41256400 0.23291700
v -0.01484700 0.40534500 0.28198200
v -0.01579700 0.40534500 0.23254600
v -0.01484700 0.40534500 0.28198200
v -0.01579700 0.40534500 0.23254600
v 0.00570800 0.40338000 0.28158700
v 0.00475800 0.40338000 0.23215100
v 0.00570800 0.40338000 0.28158700
v 0.00475800 0.40338000 0.23215100
v 0.02607100 0.40680200 0.28119600
v 0.02512100 0.40680200 0.23176000
v 0.02607100 0.40680200 0.28119600
v 0.02512100 0.40680200 0.23176000
v 0.04390500 0.41537900 0.23140000
v 0.04485400 0.41537900 0.28083500
v 0.04485400 0.41537900 0.28083500
v 0.04390500 0.41537900 0.23140000
v 0.06077800 0.42852700 0.28053000
v 0.05982900 0.42852700 0.23109400
v 0.06077800 0.42852700 0.28053000
v 0.05982900 0.42852700 0.23109400
v 0.07180800 0.44534800 0.23086400
v 0.07275700 0.44534800 0.28030000
v 0.07275700 0.44534800 0.28030000
v 0.07180800 0.44534800 0.23086400
vn -0.29297069 0.95610487 0.00562532
vn -0.03557544 0.99936676 0.00068308
vn -0.29297069 0.95610487 0.00562532
vn -0.03557544 0.99936676 0.00068308
vn 0.03557544 -0.99936676 -0.00068308
vn 0.29297069 -0.95610487 -0.00562532
vn 0.03557544 -0.99936676 -0.00068308
vn 0.29297069 -0.95610487 -0.00562532
vn -0.53040054 0.84768600 0.01018421
vn -0.53040054 0.84768600 0.01018421
vn 0.53040054 -0.84768600 -0.01018421
vn 0.53040054 -0.84768600 -0.01018421
vn 0.01919744 0.00000000 0.99981571
vn 0.01919744 0.00000000 0.99981571
vn 0.01919744 0.00000000 0.99981571
vn 0.01919744 0.00000000 0.99981571
vn 0.01919744 0.00000000 0.99981571
vn 0.01919744 0.00000000 0.99981571
vn 0.01919744 0.00000000 0.99981571
vn 0.01919744 0.00000000 0.99981571
vn 0.01919744 0.00000000 0.99981571
vn 0.01919744 0.00000000 0.99981571
vn 0.01919744 0.00000000 0.99981571
vn 0.01919744 0.00000000 0.99981571
vn 0.01919744 0.00000000 0.99981571
vn 0.01919744 0.00000000 0.99981571
vn 0.01919744 0.00000000 0.99981571
vn 0.01919744 0.00000000 0.99981571
vn 0.01919744 0.00000000 0.99981571
vn 0.01919744 0.00000000 0.99981571
vn 0.01919744 0.00000000 0.99981571
vn 0.01919744 0.00000000 0.99981571
vn 0.01919744 0.00000000 0.99981571
vn 0.01919744 0.00000000 0.99981571
vn 0.01919744 0.00000000 0.99981571
vn 0.01919744 0.00000000 0.99981571
vn 0.01919744 0.00000000 0.99981571
vn 0.01919744 0.00000000 0.99981571
vn 0.01919744 0.00000000 0.99981571
vn 0.01919744 0.00000000 0.99981571
vn 0.01919744 0.00000000 0.99981571
vn 0.01919744 0.00000000 0.99981571
vn 0.01919744 0.00000000 0.99981571
vn 0.01919744 0.00000000 0.99981571
vn 0.01919744 0.00000000 0.99981571
vn 0.01919744 0.00000000 0.99981571
vn 0.01919744 0.00000000 0.99981571
vn 0.01919744 0.00000000 0.99981571
vn 0.01919744 0.00000000 0.99981571
vn 0.01919744 0.00000000 0.99981571
vn 0.01919744 0.00000000 0.99981571
vn 0.01919744 0.00000000 0.99981571
vn 0.01919744 0.00000000 0.99981571
vn 0.01919744 0.00000000 0.99981571
vn 0.01919744 0.00000000 0.99981571
vn 0.01919744 0.00000000 0.99981571
vn 0.01919744 0.00000000 0.99981571
vn 0.01919744 0.00000000 0.99981571
vn 0.01919744 0.00000000 0.99981571
vn 0.01919744 0.00000000 0.99981571
vn -0.01919744 0.00000000 -0.99981571
vn -0.01919744 0.00000000 -0.99981571
vn -0.01919744 0.00000000 -0.99981571
vn -0.01919744 0.00000000 -0.99981571
vn -0.01919744 0.00000000 -0.99981571
vn -0.01919744 0.00000000 -0.99981571
vn -0.01919744 0.00000000 -0.99981571
vn -0.01919744 0.00000000 -0.99981571
vn -0.01919744 0.00000000 -0.99981571
vn -0.01919744 0.00000000 -0.99981571
vn -0.01919744 0.00000000 -0.99981571
vn -0.01919744 0.00000000 -0.99981571
vn -0.01919744 0.00000000 -0.99981571
vn -0.01919744 0.00000000 -0.99981571
vn -0.01919744 0.00000000 -0.99981571
vn -0.01919744 0.00000000 -0.99981571
vn -0.01919744 0.00000000 -0.99981571
vn -0.01919744 0.00000000 -0.99981571
vn -0.01919744 0.00000000 -0.99981571
vn -0.01919744 0.00000000 -0.99981571
vn -0.01919744 0.00000000 -0.99981571
vn -0.01919744 0.00000000 -0.99981571
vn -0.01919744 0.00000000 -0.99981571
vn -0.01919744 0.00000000 -0.99981571
vn -0.01919744 0.00000000 -0.99981571
vn -0.01919744 0.00000000 -0.99981571
vn -0.01919744 0.00000000 -0.99981571
vn -0.01919744 0.00000000 -0.99981571
vn -0.01919744 0.00000000 -0.99981571
vn -0.01919744 0.00000000 -0.99981571
vn -0.01919744 0.00000000 -0.99981571
vn -0.01919744 0.00000000 -0.99981571
vn -0.01919744 0.00000000 -0.99981571
vn -0.01919744 0.00000000 -0.99981571
vn -0.01919744 0.00000000 -0.99981571
vn -0.01919744 0.00000000 -0.99981571
vn -0.01919744 0.00000000 -0.99981571
vn -0.01919744 0.00000000 -0.99981571
vn -0.01919744 0.00000000 -0.99981571
vn -0.01919744 0.00000000 -0.99981571
vn -0.01919744 0.00000000 -0.99981571
vn -0.01919744 0.00000000 -0.99981571
vn -0.01919744 0.00000000 -0.99981571
vn -0.01919744 0.00000000 -0.99981571
vn -0.01919744 0.00000000 -0.99981571
vn -0.01919744 0.00000000 -0.99981571
vn -0.01919744 0.00000000 -0.99981571
vn -0.01919744 0.00000000 -0.99981571
vn 0.22424426 0.97452346 -0.00430571
vn 0.22424426 0.97452346 -0.00430571
vn -0.22424426 -0.97452346 0.00430571
vn -0.22424426 -0.97452346 0.00430571
vn -0.73168445 0.68149871 0.01404906
vn -0.73168445 0.68149871 0.01404906
vn 0.73168445 -0.68149871 -0.01404906
vn 0.73168445 -0.68149871 -0.01404906
vn 0.99918259 0.03558200 -0.01918528
vn 0.97434387 -0.22428559 -0.01870836
vn 0.97434387 -0.22428559 -0.01870836
vn 0.99918259 0.03558200 -0.01918528
vn -0.99918259 -0.03558200 0.01918528
vn -0.99918259 -0.03558200 0.01918528
vn -0.97434387 0.22428559 0.01870836
vn -0.97434387 0.22428559 0.01870836
vn 0.95592868 0.29302469 -0.01835477
vn 0.95592868 0.29302469 -0.01835477
vn -0.95592868 -0.29302469 0.01835477
vn -0.95592868 -0.29302469 0.01835477
vn 0.84752978 0.53049830 -0.01627340
vn 0.84752978 0.53049830 -0.01627340
vn -0.84752978 -0.53049830 0.01627340
vn -0.84752978 -0.53049830 0.01627340
vn 0.68137312 0.73181931 -0.01308303
vn 0.68137312 0.73181931 -0.01308303
vn -0.68137312 -0.73181931 0.01308303
vn -0.68137312 -0.73181931 0.01308303
vn 0.46878209 0.88326798 -0.00900107
vn 0.46878209 0.88326798 -0.00900107
vn -0.46878209 -0.88326798 0.00900107
vn -0.46878209 -0.88326798 0.00900107
vn -0.88310521 0.46886849 0.01695648
vn -0.88310521 0.46886849 0.01695648
vn 0.88310521 -0.46886849 -0.01695648
vn 0.88310521 -0.46886849 -0.01695648
vn -0.97434387 0.22428559 0.01870836
vn -0.97434387 0.22428559 0.01870836
vn 0.97434387 -0.22428559 -0.01870836
vn 0.97434387 -0.22428559 -0.01870836
vn -0.99918259 -0.03558200 0.01918528
vn -0.99918259 -0.03558200 0.01918528
vn 0.99918259 0.03558200 -0.01918528
vn 0.99918259 0.03558200 -0.01918528
vn -0.95592868 -0.29302469 0.01835477
vn -0.95592868 -0.29302469 0.01835477
vn 0.95592868 0.29302469 -0.01835477
vn 0.95592868 0.29302469 -0.01835477
vn -0.84752978 -0.53049830 0.01627340
vn -0.84752978 -0.53049830 0.01627340
vn 0.84752978 0.53049830 -0.01627340
vn 0.84752978 0.53049830 -0.01627340
vn -0.68137312 -0.73181931 0.01308303
vn -0.68137312 -0.73181931 0.01308303
vn 0.68137312 0.73181931 -0.01308303
vn 0.68137312 0.73181931 -0.01308303
vn -0.46878209 -0.88326798 0.00900107
vn -0.46878209 -0.88326798 0.00900107
vn 0.46878209 0.88326798 -0.00900107
vn 0.46878209 0.88326798 -0.00900107
vn -0.22424426 -0.97452346 0.00430571
vn -0.22424426 -0.97452346 0.00430571
vn 0.22424426 0.97452346 -0.00430571
vn 0.22424426 0.97452346 -0.00430571
vn 0.03557544 -0.99936676 -0.00068308
vn 0.03557544 -0.99936676 -0.00068308
vn -0.03557544 0.99936676 0.00068308
vn -0.03557544 0.99936676 0.00068308
vn 0.29297069 -0.95610487 -0.00562532
vn 0.29297069 -0.95610487 -0.00562532
vn -0.29297069 0.95610487 0.00562532
vn -0.29297069 0.95610487 0.00562532
vn 0.53040054 -0.84768600 -0.01018421
vn 0.53040054 -0.84768600 -0.01018421
vn -0.53040054 0.84768600 0.01018421
vn -0.53040054 0.84768600 0.01018421
vn 0.73168445 -0.68149871 -0.01404906
vn 0.73168445 -0.68149871 -0.01404906
vn -0.73168445 0.68149871 0.01404906
vn -0.73168445 0.68149871 0.01404906
vn 0.88310521 -0.46886849 -0.01695648
vn 0.88310521 -0.46886849 -0.01695648
vn -0.88310521 0.46886849 0.01695648
vn -0.88310521 0.46886849 0.01695648
f 1//1 2//2 3//3
f 2//2 1//1 4//4
f 5//5 6//6 7//7
f 8//8 7//7 6//6
f 9//9 3//3 10//10
f 3//3 9//9 1//1
f 6//6 11//11 8//8
f 12//12 8//8 11//11
f 13//13 14//14 15//15
f 14//14 13//13 16//16
f 14//14 16//16 17//17
f 17//17 16//16 18//18
f 18//18 16//16 19//19
f 19//19 16//16 20//20
f 19//19 20//20 21//21
f 21//21 20//20 22//22
f 22//22 20//20 23//23
f 23//23 20//20 24//24
f 23//23 24//24 25//25
f 25//25 24//24 26//26
f 26//26 24//24 27//27
f 27//27 24//24 28//28
f 27//27 28//28 29//29
f 29//29 28//28 30//30
f 30//30 28//28 31//31
f 31//31 28//28 32//32
f 32//32 28//28 33//33
f 32//32 33//33 34//34
f 34//34 33//33 35//35
f 34//34 35//35 36//36
f 36//36 35//35 37//37
f 36//36 37//37 38//38
f 39//39 40//40 41//41
f 40//40 39//39 42//42
f 42//42 39//39 43//43
f 42//42 43//43 44//44
f 44//44 43//43 45//45
f 44//44 45//45 46//46
f 46//46 45//45 13//13
f 46//46 13//13 47//47
f 47//47 13//13 15//15
f 47//47 15//15 48//48
f 47//47 48//48 49//49
f 47//47 49//49 50//50
f 47//47 50//50 51//51
f 51//51 50//50 52//52
f 51//51 52//52 53//53
f 51//51 53//53 54//54
f 51//51 54//54 55//55
f 55//55 54//54 56//56
f 55//55 56//56 57//57
f 55//55 57//57 58//58
f 55//55 58//58 31//31
f 31//31 58//58 59//59
f 31//31 59//59 60//60
f 31//31 60//60 30//30
f 61//61 62//62 63//63
f 62//62 64//64 63//63
f 64//64 65//65 63//63
f 63//63 65//65 66//66
f 65//65 67//67 66//66
f 67//67 68//68 66//66
f 68//68 69//69 66//66
f 66//66 69//69 70//70
f 69//69 71//71 70//70
f 71//71 72//72 70//70
f 72//72 73//73 70//70
f 70//70 73//73 74//74
f 73//73 75//75 74//74
f 75//75 76//76 74//74
f 76//76 77//77 74//74
f 77//77 78//78 74//74
f 74//74 78//78 79//79
f 78//78 80//80 79//79
f 79//79 80//80 81//81
f 80//80 82//82 81//81
f 81//81 82//82 83//83
f 82//82 84//84 83//83
f 83//83 84//84 85//85
f 86//86 85//85 84//84
f 87//87 88//88 89//89
f 88//88 90//90 89//89
f 89//89 90//90 91//91
f 90//90 92//92 91//91
f 91//91 92//92 93//93
f 92//92 94//94 93//93
f 93//93 94//94 63//63
f 63//63 94//94 61//61
f 61//61 94//94 95//95
f 95//95 94//94 96//96
f 94//94 97//97 96//96
f 96//96 97//97 98//98
f 98//98 97//97 99//99
f 99//99 97//97 100//100
f 97//97 101//101 100//100
f 100//100 101//101 102//102
f 102//102 101//101 103//103
f 103//103 101//101 104//104
f 101//101 105//105 104//104
f 104//104 105//105 106//106
f 106//106 105//105 107//107
f 107//107 105//105 108//108
f 105//105 78//78 108//108
f 77//77 108//108 78//78
f 4//4 109//109 2//2
f 109//109 4//4 110//110
f 111//111 5//5 112//112
f 7//7 112//112 5//5
f 113//113 10//10 114//114
f 10//10 113//113 9//9
f 11//11 115//115 12//12
f 116//116 12//12 115//115
f 117//117 118//118 119//119
f 118//118 117//117 120//120
f 121//121 122//122 123//123
f 124//124 123//123 122//122
f 125//125 120//120 117//117
f 120//120 125//125 126//126
f 127//127 128//128 121//121
f 122//122 121//121 128//128
f 129//129 126//126 125//125
f 126//126 129//129 130//130
f 131//131 132//132 127//127
f 128//128 127//127 132//132
f 133//133 130//130 129//129
f 130//130 133//133 134//134
f 135//135 136//136 131//131
f 132//132 131//131 136//136
f 137//137 133//133 138//138
f 133//133 137//137 134//134
f 135//135 139//139 136//136
f 140//140 136//136 139//139
f 110//110 138//138 109//109
f 138//138 110//110 137//137
f 139//139 111//111 140//140
f 112//112 140//140 111//111
f 113//113 141//141 142//142
f 141//141 113//113 114//114
f 116//116 115//115 143//143
f 144//144 143//143 115//115
f 142//142 145//145 146//146
f 145//145 142//142 141//141
f 143//143 144//144 147//147
f 148//148 147//147 144//144
f 146//146 149//149 150//150
f 149//149 146//146 145//145
f 147//147 148//148 151//151
f 152//152 151//151 148//148
f 150//150 153//153 154//154
f 153//153 150//150 149//149
f 151//151 152//152 155//155
f 156//156 155//155 152//152
f 154//154 157//157 158//158
f 157//157 154//154 153//153
f 155//155 156//156 159//159
f 160//160 159//159 156//156
f 158//158 161//161 162//162
f 161//161 158//158 157//157
f 159//159 160//160 163//163
f 164//164 163//163 160//160
f 165//165 161//161 166//166
f 161//161 165//165 162//162
f 164//164 167//167 163//163
f 168//168 163//163 167//167
f 169//169 166//166 170//170
f 166//166 169//169 165//165
f 167//167 171//171 168//168
f 172//172 168//168 171//171
f 173//173 170//170 174//174
f 170//170 173//173 169//169
f 171//171 175//175 172//172
f 176//176 172//172 175//175
f 177//177 174//174 178//178
f 174//174 177//177 173//173
f 175//175 179//179 176//176
f 180//180 176//176 179//179
f 181//181 177//177 178//178
f 177//177 181//181 182//182
f 183//183 184//184 179//179
f 180//180 179//179 184//184
f 185//185 181//181 186//186
f 181//181 185//185 182//182
f 183//183 187//187 184//184
f 188//188 184//184 187//187
f 189//189 185//185 186//186
f 185//185 189//189 190//190
f 191//191 192//192 187//187
f 188//188 187//187 192//192
f 119//119 190//190 189//189
f 190//190 119//119 118//118
f 123//123 124//124 191//191
f 192//192 191//191 124//124

