# Blender v2.79 (sub 0) OBJ File: ''
# www.blender.org
mtllib original-113.mtl
o original-113
v 0.475274 0.403206 -0.094483
v 0.465662 0.364730 -0.094483
v 0.475274 0.364730 -0.094483
v 0.465662 0.390234 -0.094483
v 0.452070 0.373774 -0.094483
v 0.458659 0.373774 -0.094483
v 0.455636 0.384213 -0.094483
v 0.464137 0.403206 -0.094483
v 0.445067 0.390234 -0.094483
v 0.447109 0.403206 -0.094483
v 0.435971 0.364730 -0.094483
v 0.445067 0.364730 -0.094483
v 0.435971 0.403206 -0.094483
v 0.447109 0.403206 -0.094483
v 0.445067 0.390234 -0.094483
v 0.435971 0.403206 -0.094483
v 0.435971 0.364730 -0.094483
v 0.445067 0.364730 -0.094483
v 0.455636 0.384213 -0.094483
v 0.452070 0.373774 -0.094483
v 0.475274 0.403206 -0.094483
v 0.465662 0.390234 -0.094483
v 0.464137 0.403206 -0.094483
v 0.458659 0.373774 -0.094483
v 0.465662 0.364730 -0.094483
v 0.475274 0.364730 -0.094483
v 0.475274 0.403206 -0.093483
v 0.465662 0.364730 -0.093483
v 0.475274 0.364730 -0.093483
v 0.465662 0.390234 -0.093483
v 0.452070 0.373774 -0.093483
v 0.458659 0.373774 -0.093483
v 0.455636 0.384213 -0.093483
v 0.464137 0.403206 -0.093483
v 0.445067 0.390234 -0.093483
v 0.447109 0.403206 -0.093483
v 0.435971 0.364730 -0.093483
v 0.445067 0.364730 -0.093483
v 0.435971 0.403206 -0.093483
v 0.447109 0.403206 -0.093483
v 0.445067 0.390234 -0.093483
v 0.435971 0.403206 -0.093483
v 0.435971 0.364730 -0.093483
v 0.445067 0.364730 -0.093483
v 0.455636 0.384213 -0.093483
v 0.452070 0.373774 -0.093483
v 0.475274 0.403206 -0.093483
v 0.465662 0.390234 -0.093483
v 0.464137 0.403206 -0.093483
v 0.458659 0.373774 -0.093483
v 0.465662 0.364730 -0.093483
v 0.475274 0.364730 -0.093483
vn 0.5774 0.5774 -0.5774
vn 0.5774 -0.5774 -0.5774
vn -0.5774 -0.5774 -0.5774
vn -0.0212 -0.1040 -0.9944
vn 0.4406 -0.6663 -0.6015
vn -0.4406 -0.6663 -0.6015
vn -0.0001 0.2299 -0.9732
vn -0.4339 0.6696 -0.6028
vn 0.0212 -0.1040 -0.9944
vn 0.4335 0.6698 -0.6028
vn -0.5774 0.5774 -0.5774
vn 0.5774 0.5774 0.5774
vn -0.5774 -0.5774 0.5774
vn 0.5774 -0.5774 0.5774
vn -0.0212 -0.1040 0.9944
vn -0.4406 -0.6663 0.6015
vn 0.4406 -0.6663 0.6015
vn -0.0001 0.2299 0.9732
vn -0.4339 0.6696 0.6028
vn 0.0212 -0.1040 0.9944
vn 0.4335 0.6698 0.6028
vn -0.5774 0.5774 0.5774
usemtl material_0_0.011
s 1
f 1//1 3//2 2//3
f 2//3 4//4 1//1
f 4//4 6//5 5//6
f 5//6 7//7 4//4
f 7//7 8//8 4//4
f 8//8 1//1 4//4
f 7//7 5//6 9//9
f 9//9 10//10 7//7
f 9//9 12//2 11//3
f 11//3 13//11 9//9
f 13//11 10//10 9//9
f 14//10 15//9 16//11
f 16//11 15//9 17//3
f 18//2 17//3 15//9
f 14//10 19//7 15//9
f 20//6 15//9 19//7
f 21//1 22//4 23//8
f 23//8 22//4 19//7
f 19//7 22//4 20//6
f 24//5 20//6 22//4
f 22//4 21//1 25//3
f 26//2 25//3 21//1
f 27//12 28//13 29//14
f 28//13 27//12 30//15
f 30//15 31//16 32//17
f 31//16 30//15 33//18
f 33//18 30//15 34//19
f 34//19 30//15 27//12
f 33//18 35//20 31//16
f 35//20 33//18 36//21
f 35//20 37//13 38//14
f 37//13 35//20 39//22
f 39//22 35//20 36//21
f 40//21 42//22 41//20
f 42//22 43//13 41//20
f 44//14 41//20 43//13
f 40//21 41//20 45//18
f 46//16 45//18 41//20
f 47//12 49//19 48//15
f 49//19 45//18 48//15
f 45//18 46//16 48//15
f 50//17 48//15 46//16
f 48//15 51//13 47//12
f 52//14 47//12 51//13
f 25//3 26//2 52//14 51//13
f 13//11 11//3 37//13 39//22
f 17//3 18//2 44//14 43//13
f 6//5 4//4 30//15 32//17
f 14//10 16//11 42//22 40//21
f 11//3 12//2 38//14 37//13
f 5//6 6//5 32//17 31//16
f 26//2 21//1 47//12 52//14
f 2//3 3//2 29//14 28//13
f 22//4 25//3 51//13 48//15
f 15//9 20//6 46//16 41//20
f 7//7 10//10 36//21 33//18
f 24//5 22//4 48//15 50//17
f 21//1 23//8 49//19 47//12
f 23//8 19//7 45//18 49//19
f 18//2 15//9 41//20 44//14
f 12//2 9//9 35//20 38//14
f 8//8 7//7 33//18 34//19
f 4//4 2//3 28//13 30//15
f 3//2 1//1 27//12 29//14
f 10//10 13//11 39//22 36//21
f 1//1 8//8 34//19 27//12
f 16//11 17//3 43//13 42//22
f 20//6 24//5 50//17 46//16
f 19//7 14//10 40//21 45//18
f 9//9 5//6 31//16 35//20
