mtllib material.mtl
usemtl material_0_0
v -0.55262500 0.00390800 -0.42175100
v -0.55136900 0.00390800 -0.43234600
v -0.55599400 -0.00428200 -0.42215100
v -0.55473800 -0.00428200 -0.43274500
v -0.55587300 0.00512300 -0.43688100
v -0.55877600 -0.00193400 -0.43722500
v -0.55136900 0.00390800 -0.43234600
v -0.55473800 -0.00428200 -0.43274500
v -0.55147600 0.01269700 -0.42161500
v -0.55022000 0.01269700 -0.43221000
v -0.56135300 -0.01131500 -0.42278600
v -0.56009700 -0.01131500 -0.43338100
v -0.56339400 -0.00799400 -0.43777200
v -0.56009700 -0.01131500 -0.43338100
v -0.58394100 0.04195800 -0.44020800
v -0.59146200 0.04096100 -0.44110000
v -0.57642000 0.04096100 -0.43931700
v -0.56941200 0.03803800 -0.43848600
v -0.59847000 0.03803800 -0.44193100
v -0.56339400 0.03338700 -0.43777200
v -0.60448800 0.03338700 -0.44264500
v -0.55877600 0.02732700 -0.43722500
v -0.60910600 0.02732700 -0.44319200
v -0.61200900 0.02027000 -0.44353600
v -0.55587300 0.02027000 -0.43688100
v -0.55488300 0.01269700 -0.43676300
v -0.61299900 0.01269700 -0.44365400
v -0.55587300 0.00512300 -0.43688100
v -0.61200900 0.00512300 -0.44353600
v -0.60910600 -0.00193400 -0.44319200
v -0.55877600 -0.00193400 -0.43722500
v -0.56339400 -0.00799400 -0.43777200
v -0.60448800 -0.00799400 -0.44264500
v -0.56941200 -0.01264500 -0.43848600
v -0.59847000 -0.01264500 -0.44193100
v -0.59146200 -0.01556800 -0.44110000
v -0.57642000 -0.01556800 -0.43931700
v -0.58394100 -0.01656500 -0.44020800
v -0.55488300 0.01269700 -0.43676300
v -0.55022000 0.01269700 -0.43221000
v -0.55262500 0.02148500 -0.42175100
v -0.55136900 0.02148500 -0.43234600
v -0.56833700 -0.01671100 -0.42361400
v -0.56708100 -0.01671100 -0.43420900
v -0.56941200 -0.01264500 -0.43848600
v -0.56708100 -0.01671100 -0.43420900
v -0.60448800 -0.00799400 -0.44264500
v -0.60778500 -0.01131500 -0.43903500
v -0.59847000 -0.01264500 -0.44193100
v -0.60080100 -0.01671100 -0.43820700
v -0.60910600 -0.00193400 -0.44319200
v -0.61314400 -0.00428200 -0.43967000
v -0.61200900 0.00512300 -0.44353600
v -0.61651300 0.00390800 -0.44007000
v -0.61299900 0.01269700 -0.44365400
v -0.61766200 0.01269700 -0.44020600
v -0.61200900 0.02027000 -0.44353600
v -0.61651300 0.02148500 -0.44007000
v -0.61314400 0.02967500 -0.43967000
v -0.60910600 0.02732700 -0.44319200
v -0.60778500 0.03670800 -0.43903500
v -0.60448800 0.03338700 -0.44264500
v -0.60080100 0.04210400 -0.43820700
v -0.59847000 0.03803800 -0.44193100
v -0.59266900 0.04549700 -0.43724300
v -0.59146200 0.04096100 -0.44110000
v -0.58394100 0.04665400 -0.43620800
v -0.58394100 0.04195800 -0.44020800
v -0.57521300 0.04549700 -0.43517300
v -0.57642000 0.04096100 -0.43931700
v -0.56708100 0.04210400 -0.43420900
v -0.56941200 0.03803800 -0.43848600
v -0.56009700 0.03670800 -0.43338100
v -0.56339400 0.03338700 -0.43777200
v -0.55473800 0.02967500 -0.43274500
v -0.55877600 0.02732700 -0.43722500
v -0.55136900 0.02148500 -0.43234600
v -0.55587300 0.02027000 -0.43688100
v -0.57642000 -0.01556800 -0.43931700
v -0.57521300 -0.02010400 -0.43517300
v -0.58394100 -0.01656500 -0.44020800
v -0.58394100 -0.02126100 -0.43620800
v -0.59146200 -0.01556800 -0.44110000
v -0.59266900 -0.02010400 -0.43724300
v -0.55599400 0.02967500 -0.42215100
v -0.55473800 0.02967500 -0.43274500
v -0.57647000 -0.02010400 -0.42457900
v -0.57521300 -0.02010400 -0.43517300
v -0.60904200 -0.01131500 -0.42844100
v -0.60205800 -0.01671100 -0.42761300
v -0.60778500 -0.01131500 -0.43903500
v -0.60080100 -0.01671100 -0.43820700
v -0.61440000 -0.00428200 -0.42907600
v -0.61314400 -0.00428200 -0.43967000
v -0.61776900 0.00390800 -0.42947500
v -0.61651300 0.00390800 -0.44007000
v -0.61891800 0.01269700 -0.42961200
v -0.61766200 0.01269700 -0.44020600
v -0.61776900 0.02148500 -0.42947500
v -0.61651300 0.02148500 -0.44007000
v -0.61440000 0.02967500 -0.42907600
v -0.61314400 0.02967500 -0.43967000
v -0.60904200 0.03670800 -0.42844100
v -0.60778500 0.03670800 -0.43903500
v -0.60205800 0.04210400 -0.42761300
v -0.60080100 0.04210400 -0.43820700
v -0.59392500 0.04549700 -0.42664800
v -0.59266900 0.04549700 -0.43724300
v -0.58519700 0.04665400 -0.42561300
v -0.58394100 0.04665400 -0.43620800
v -0.57647000 0.04549700 -0.42457900
v -0.57521300 0.04549700 -0.43517300
v -0.56833700 0.04210400 -0.42361400
v -0.56708100 0.04210400 -0.43420900
v -0.56135300 0.03670800 -0.42278600
v -0.56009700 0.03670800 -0.43338100
v -0.58519700 -0.02126100 -0.42561300
v -0.58394100 -0.02126100 -0.43620800
v -0.59392500 -0.02010400 -0.42664800
v -0.59266900 -0.02010400 -0.43724300
vn -0.95920694 0.25881901 -0.11373110
vn -0.95920694 0.25881901 -0.11373110
vn -0.86000141 0.50000000 -0.10196850
vn -0.86000141 0.50000000 -0.10196850
vn -0.67880554 0.15909361 0.71687674
vn -0.62019704 0.30893882 0.72104954
vn -0.67927459 0.15723100 0.71684339
vn -0.62197750 0.30563590 0.72092350
vn -0.99304409 0.00000000 -0.11774310
vn -0.99304409 0.00000000 -0.11774310
vn -0.70218819 0.70710679 -0.08325696
vn -0.70218819 0.70710679 -0.08325696
vn -0.52567250 0.44051400 0.72774710
vn -0.52933158 0.43653979 0.72748958
vn -0.11774310 0.00000000 0.99304409
vn -0.11774310 0.00000000 0.99304409
vn -0.11774310 0.00000000 0.99304409
vn -0.11774310 0.00000000 0.99304409
vn -0.11774310 0.00000000 0.99304409
vn -0.11774310 0.00000000 0.99304409
vn -0.11774310 0.00000000 0.99304409
vn -0.11774310 0.00000000 0.99304409
vn -0.11774310 0.00000000 0.99304409
vn -0.11774310 0.00000000 0.99304409
vn -0.11774310 0.00000000 0.99304409
vn -0.11774310 0.00000000 0.99304409
vn -0.11774310 0.00000000 0.99304409
vn -0.11774310 0.00000000 0.99304409
vn -0.11774310 0.00000000 0.99304409
vn -0.11774310 0.00000000 0.99304409
vn -0.11774310 0.00000000 0.99304409
vn -0.11774310 0.00000000 0.99304409
vn -0.11774310 0.00000000 0.99304409
vn -0.11774310 0.00000000 0.99304409
vn -0.11774310 0.00000000 0.99304409
vn -0.11774310 0.00000000 0.99304409
vn -0.11774310 0.00000000 0.99304409
vn -0.11774310 0.00000000 0.99304409
vn -0.69865360 0.00000000 0.71546010
vn -0.69865360 0.00000000 0.71546010
vn -0.95920694 -0.25881901 -0.11373110
vn -0.95920694 -0.25881901 -0.11373110
vn -0.49652201 0.86602542 -0.05887156
vn -0.49652201 0.86602542 -0.05887156
vn -0.40007490 0.54532880 0.73658440
vn -0.40576239 0.54165028 0.73618738
vn 0.38827900 0.47374170 0.79044811
vn 0.38359619 0.47805449 0.79013788
vn 0.24602220 0.57412230 0.78093320
vn 0.23925071 0.57758972 0.78048012
vn 0.49944241 0.33769720 0.79782071
vn 0.49703411 0.34160201 0.79766231
vn 0.57021862 0.17568981 0.80248602
vn 0.56956168 0.17800169 0.80244307
vn 0.59451760 0.00000000 0.80408260
vn 0.59451760 0.00000000 0.80408260
vn 0.57021862 -0.17568981 0.80248602
vn 0.56956168 -0.17800169 0.80244307
vn 0.49703411 -0.34160201 0.79766231
vn 0.49944241 -0.33769720 0.79782071
vn 0.38359619 -0.47805449 0.79013788
vn 0.38827900 -0.47374170 0.79044811
vn 0.23925071 -0.57758972 0.78048012
vn 0.24602220 -0.57412230 0.78093320
vn 0.07598672 -0.63417752 0.76944453
vn 0.08406052 -0.63249371 0.76999061
vn -0.09363618 -0.64567102 0.75785302
vn -0.08536594 -0.64615296 0.75841875
vn -0.25769780 -0.61343360 0.74651930
vn -0.25032129 -0.61586228 0.74702938
vn -0.40576239 -0.54165028 0.73618738
vn -0.40007490 -0.54532880 0.73658440
vn -0.52933158 -0.43653979 0.72748958
vn -0.52567250 -0.44051400 0.72774710
vn -0.62197750 -0.30563590 0.72092350
vn -0.62019704 -0.30893882 0.72104954
vn -0.67927459 -0.15723100 0.71684339
vn -0.67880554 -0.15909361 0.71687674
vn -0.25032129 0.61586228 0.74702938
vn -0.25769780 0.61343360 0.74651930
vn -0.08536594 0.64615296 0.75841875
vn -0.09363618 0.64567102 0.75785302
vn 0.08406052 0.63249371 0.76999061
vn 0.07598672 0.63417752 0.76944453
vn -0.86000141 -0.50000000 -0.10196850
vn -0.86000141 -0.50000000 -0.10196850
vn -0.25701871 0.96592583 -0.03047416
vn -0.25701871 0.96592583 -0.03047416
vn 0.70218819 0.70710679 0.08325696
vn 0.49652201 0.86602542 0.05887156
vn 0.70218819 0.70710679 0.08325696
vn 0.49652201 0.86602542 0.05887156
vn 0.86000141 0.50000000 0.10196850
vn 0.86000141 0.50000000 0.10196850
vn 0.95920694 0.25881901 0.11373110
vn 0.95920694 0.25881901 0.11373110
vn 0.99304409 0.00000000 0.11774310
vn 0.99304409 0.00000000 0.11774310
vn 0.95920694 -0.25881901 0.11373110
vn 0.95920694 -0.25881901 0.11373110
vn 0.86000141 -0.50000000 0.10196850
vn 0.86000141 -0.50000000 0.10196850
vn 0.70218819 -0.70710679 0.08325696
vn 0.70218819 -0.70710679 0.08325696
vn 0.49652201 -0.86602542 0.05887156
vn 0.49652201 -0.86602542 0.05887156
vn 0.25701871 -0.96592583 0.03047416
vn 0.25701871 -0.96592583 0.03047416
vn 0.00000000 -1.00000000 0.00000000
vn 0.00000000 -1.00000000 0.00000000
vn -0.25701871 -0.96592583 -0.03047416
vn -0.25701871 -0.96592583 -0.03047416
vn -0.49652201 -0.86602542 -0.05887156
vn -0.49652201 -0.86602542 -0.05887156
vn -0.70218819 -0.70710679 -0.08325696
vn -0.70218819 -0.70710679 -0.08325696
vn 0.00000000 1.00000000 0.00000000
vn 0.00000000 1.00000000 0.00000000
vn 0.25701871 0.96592583 0.03047416
vn 0.25701871 0.96592583 0.03047416
f 1//1 2//2 3//3
f 4//4 3//3 2//2
f 5//5 6//6 7//7
f 8//8 7//7 6//6
f 9//9 10//10 1//1
f 2//2 1//1 10//10
f 3//3 4//4 11//11
f 12//12 11//11 4//4
f 6//6 13//13 8//8
f 14//14 8//8 13//13
f 15//15 16//16 17//17
f 17//17 16//16 18//18
f 16//16 19//19 18//18
f 18//18 19//19 20//20
f 19//19 21//21 20//20
f 20//20 21//21 22//22
f 21//21 23//23 22//22
f 23//23 24//24 22//22
f 22//22 24//24 25//25
f 25//25 24//24 26//26
f 24//24 27//27 26//26
f 26//26 27//27 28//28
f 27//27 29//29 28//28
f 29//29 30//30 28//28
f 28//28 30//30 31//31
f 31//31 30//30 32//32
f 30//30 33//33 32//32
f 32//32 33//33 34//34
f 33//33 35//35 34//34
f 35//35 36//36 34//34
f 34//34 36//36 37//37
f 38//38 37//37 36//36
f 39//39 5//5 40//40
f 7//7 40//40 5//5
f 9//9 41//41 10//10
f 42//42 10//10 41//41
f 43//43 11//11 44//44
f 12//12 44//44 11//11
f 13//13 45//45 14//14
f 46//46 14//14 45//45
f 47//47 48//48 49//49
f 50//50 49//49 48//48
f 51//51 52//52 47//47
f 48//48 47//47 52//52
f 53//53 54//54 51//51
f 52//52 51//51 54//54
f 55//55 56//56 53//53
f 54//54 53//53 56//56
f 57//57 58//58 55//55
f 56//56 55//55 58//58
f 59//59 58//58 60//60
f 57//57 60//60 58//58
f 61//61 59//59 62//62
f 60//60 62//62 59//59
f 63//63 61//61 64//64
f 62//62 64//64 61//61
f 65//65 63//63 66//66
f 64//64 66//66 63//63
f 67//67 65//65 68//68
f 66//66 68//68 65//65
f 67//67 68//68 69//69
f 70//70 69//69 68//68
f 69//69 70//70 71//71
f 72//72 71//71 70//70
f 71//71 72//72 73//73
f 74//74 73//73 72//72
f 73//73 74//74 75//75
f 76//76 75//75 74//74
f 75//75 76//76 77//77
f 78//78 77//77 76//76
f 77//77 78//78 40//40
f 39//39 40//40 78//78
f 45//45 79//79 46//46
f 80//80 46//46 79//79
f 79//79 81//81 80//80
f 82//82 80//80 81//81
f 83//83 84//84 81//81
f 82//82 81//81 84//84
f 49//49 50//50 83//83
f 84//84 83//83 50//50
f 41//41 85//85 42//42
f 86//86 42//42 85//85
f 87//87 43//43 88//88
f 44//44 88//88 43//43
f 89//89 90//90 91//91
f 92//92 91//91 90//90
f 89//89 91//91 93//93
f 94//94 93//93 91//91
f 93//93 94//94 95//95
f 96//96 95//95 94//94
f 95//95 96//96 97//97
f 98//98 97//97 96//96
f 99//99 97//97 100//100
f 98//98 100//100 97//97
f 101//101 99//99 102//102
f 100//100 102//102 99//99
f 103//103 101//101 104//104
f 102//102 104//104 101//101
f 103//103 104//104 105//105
f 106//106 105//105 104//104
f 105//105 106//106 107//107
f 108//108 107//107 106//106
f 107//107 108//108 109//109
f 110//110 109//109 108//108
f 109//109 110//110 111//111
f 112//112 111//111 110//110
f 111//111 112//112 113//113
f 114//114 113//113 112//112
f 113//113 114//114 115//115
f 116//116 115//115 114//114
f 85//85 115//115 86//86
f 116//116 86//86 115//115
f 117//117 87//87 118//118
f 88//88 118//118 87//87
f 119//119 117//117 120//120
f 118//118 120//120 117//117
f 90//90 119//119 92//92
f 120//120 92//92 119//119

