# Blender v2.79 (sub 0) OBJ File: ''
# www.blender.org
mtllib original-8.mtl
o original-8
v 0.029697 0.147215 -0.188915
v -0.041955 0.147215 -0.187539
v -0.006219 0.147215 -0.192944
v -0.075074 0.147215 -0.173070
v 0.063347 0.147215 -0.175728
v -0.103319 0.147215 -0.150522
v 0.092437 0.147215 -0.154281
v -0.124766 0.147215 -0.121432
v 0.114985 0.147215 -0.126035
v -0.137953 0.147215 -0.087782
v 0.129455 0.147215 -0.092916
v -0.141982 0.147215 -0.051865
v 0.134859 0.147215 -0.057181
v 0.130830 0.147215 -0.021264
v -0.136578 0.147215 -0.016130
v -0.122108 0.147215 0.016989
v 0.117643 0.147215 0.012385
v -0.099560 0.147215 0.045234
v 0.096196 0.147215 0.041476
v -0.070470 0.147215 0.066681
v 0.067950 0.147215 0.064024
v -0.036820 0.147215 0.079869
v 0.034832 0.147215 0.078493
v -0.000904 0.147215 0.083897
v -0.000904 0.147215 0.083897
v 0.034832 0.147215 0.078493
v -0.036820 0.147215 0.079869
v 0.067950 0.147215 0.064024
v -0.070470 0.147215 0.066681
v 0.096196 0.147215 0.041476
v -0.099560 0.147215 0.045234
v 0.117643 0.147215 0.012385
v -0.122108 0.147215 0.016989
v 0.130830 0.147215 -0.021264
v -0.136578 0.147215 -0.016130
v -0.141982 0.147215 -0.051865
v 0.134859 0.147215 -0.057181
v 0.129455 0.147215 -0.092916
v -0.137953 0.147215 -0.087782
v 0.114985 0.147215 -0.126035
v -0.124766 0.147215 -0.121432
v 0.092437 0.147215 -0.154281
v -0.103319 0.147215 -0.150522
v 0.063347 0.147215 -0.175728
v -0.075074 0.147215 -0.173070
v 0.029697 0.147215 -0.188915
v -0.041955 0.147215 -0.187539
v -0.006219 0.147215 -0.192944
v 0.029697 0.146215 -0.188915
v -0.041955 0.146215 -0.187539
v -0.006219 0.146215 -0.192944
v -0.075074 0.146215 -0.173070
v 0.063347 0.146215 -0.175728
v -0.103319 0.146215 -0.150522
v 0.092437 0.146215 -0.154281
v -0.124766 0.146215 -0.121432
v 0.114985 0.146215 -0.126035
v -0.137953 0.146215 -0.087782
v 0.129455 0.146215 -0.092916
v -0.141982 0.146215 -0.051865
v 0.134859 0.146215 -0.057181
v 0.130830 0.146215 -0.021264
v -0.136578 0.146215 -0.016130
v -0.122108 0.146215 0.016989
v 0.117643 0.146215 0.012385
v -0.099560 0.146215 0.045234
v 0.096196 0.146215 0.041476
v -0.070470 0.146215 0.066681
v 0.067950 0.146215 0.064024
v -0.036820 0.146215 0.079869
v 0.034832 0.146215 0.078493
v -0.000904 0.146215 0.083897
v -0.000904 0.146215 0.083897
v 0.034832 0.146215 0.078493
v -0.036820 0.146215 0.079869
v 0.067950 0.146215 0.064024
v -0.070470 0.146215 0.066681
v 0.096196 0.146215 0.041476
v -0.099560 0.146215 0.045234
v 0.117643 0.146215 0.012385
v -0.122108 0.146215 0.016989
v 0.130830 0.146215 -0.021264
v -0.136578 0.146215 -0.016130
v -0.141982 0.146215 -0.051865
v 0.134859 0.146215 -0.057181
v 0.129455 0.146215 -0.092916
v -0.137953 0.146215 -0.087782
v 0.114985 0.146215 -0.126035
v -0.124766 0.146215 -0.121432
v 0.092437 0.146215 -0.154281
v -0.103319 0.146215 -0.150522
v 0.063347 0.146215 -0.175728
v -0.075074 0.146215 -0.173070
v 0.029697 0.146215 -0.188915
v -0.041955 0.146215 -0.187539
v -0.006219 0.146215 -0.192944
vn 0.1764 0.6789 -0.7128
vn -0.0141 0.6789 -0.7341
vn -0.2036 0.6789 -0.7055
vn -0.3793 0.6789 -0.6287
vn 0.3549 0.6789 -0.6428
vn -0.5291 0.6789 -0.5091
vn 0.5091 0.6789 -0.5291
vn -0.6428 0.6789 -0.3548
vn 0.6287 0.6789 -0.3793
vn -0.7128 0.6789 -0.1764
vn 0.7055 0.6789 -0.2036
vn -0.7341 0.6789 0.0141
vn 0.7341 0.6789 -0.0141
vn 0.7128 0.6789 0.1764
vn -0.7055 0.6789 0.2036
vn -0.6287 0.6789 0.3793
vn 0.6428 0.6789 0.3548
vn -0.5091 0.6789 0.5291
vn 0.5291 0.6789 0.5091
vn -0.3549 0.6789 0.6428
vn 0.3793 0.6789 0.6287
vn -0.1764 0.6789 0.7128
vn 0.2036 0.6789 0.7055
vn 0.0141 0.6789 0.7341
vn 0.1764 -0.6789 -0.7128
vn -0.2036 -0.6789 -0.7055
vn -0.0141 -0.6789 -0.7341
vn -0.3793 -0.6789 -0.6287
vn 0.3549 -0.6789 -0.6428
vn -0.5291 -0.6789 -0.5091
vn 0.5091 -0.6789 -0.5291
vn -0.6428 -0.6789 -0.3548
vn 0.6287 -0.6789 -0.3793
vn -0.7128 -0.6789 -0.1764
vn 0.7055 -0.6789 -0.2036
vn -0.7341 -0.6789 0.0141
vn 0.7341 -0.6789 -0.0141
vn 0.7128 -0.6789 0.1764
vn -0.7055 -0.6789 0.2036
vn -0.6287 -0.6789 0.3793
vn 0.6428 -0.6789 0.3548
vn -0.5091 -0.6789 0.5291
vn 0.5291 -0.6789 0.5091
vn -0.3549 -0.6789 0.6428
vn 0.3793 -0.6789 0.6287
vn -0.1764 -0.6789 0.7128
vn 0.2036 -0.6789 0.7055
vn 0.0141 -0.6789 0.7341
usemtl material_0_0.002
s 1
f 1//1 3//2 2//3
f 2//3 4//4 1//1
f 4//4 5//5 1//1
f 4//4 6//6 5//5
f 6//6 7//7 5//5
f 6//6 8//8 7//7
f 8//8 9//9 7//7
f 8//8 10//10 9//9
f 10//10 11//11 9//9
f 10//10 12//12 11//11
f 12//12 13//13 11//11
f 12//12 14//14 13//13
f 12//12 15//15 14//14
f 15//15 16//16 14//14
f 16//16 17//17 14//14
f 16//16 18//18 17//17
f 18//18 19//19 17//17
f 18//18 20//20 19//19
f 20//20 21//21 19//19
f 20//20 22//22 21//21
f 22//22 23//23 21//21
f 22//22 24//24 23//23
f 25//24 26//23 27//22
f 26//23 28//21 27//22
f 27//22 28//21 29//20
f 28//21 30//19 29//20
f 29//20 30//19 31//18
f 30//19 32//17 31//18
f 31//18 32//17 33//16
f 32//17 34//14 33//16
f 33//16 34//14 35//15
f 35//15 34//14 36//12
f 34//14 37//13 36//12
f 37//13 38//11 36//12
f 36//12 38//11 39//10
f 38//11 40//9 39//10
f 39//10 40//9 41//8
f 40//9 42//7 41//8
f 41//8 42//7 43//6
f 42//7 44//5 43//6
f 43//6 44//5 45//4
f 44//5 46//1 45//4
f 45//4 46//1 47//3
f 48//2 47//3 46//1
f 49//25 50//26 51//27
f 50//26 49//25 52//28
f 52//28 49//25 53//29
f 52//28 53//29 54//30
f 54//30 53//29 55//31
f 54//30 55//31 56//32
f 56//32 55//31 57//33
f 56//32 57//33 58//34
f 58//34 57//33 59//35
f 58//34 59//35 60//36
f 60//36 59//35 61//37
f 60//36 61//37 62//38
f 60//36 62//38 63//39
f 63//39 62//38 64//40
f 64//40 62//38 65//41
f 64//40 65//41 66//42
f 66//42 65//41 67//43
f 66//42 67//43 68//44
f 68//44 67//43 69//45
f 68//44 69//45 70//46
f 70//46 69//45 71//47
f 70//46 71//47 72//48
f 73//48 75//46 74//47
f 74//47 75//46 76//45
f 75//46 77//44 76//45
f 76//45 77//44 78//43
f 77//44 79//42 78//43
f 78//43 79//42 80//41
f 79//42 81//40 80//41
f 80//41 81//40 82//38
f 81//40 83//39 82//38
f 83//39 84//36 82//38
f 82//38 84//36 85//37
f 85//37 84//36 86//35
f 84//36 87//34 86//35
f 86//35 87//34 88//33
f 87//34 89//32 88//33
f 88//33 89//32 90//31
f 89//32 91//30 90//31
f 90//31 91//30 92//29
f 91//30 93//28 92//29
f 92//29 93//28 94//25
f 93//28 95//26 94//25
f 96//27 94//25 95//26
f 45//4 47//3 95//26 93//28
f 23//23 24//24 72//48 71//47
f 15//15 12//12 60//36 63//39
f 5//5 7//7 55//31 53//29
f 31//18 33//16 81//40 79//42
f 18//18 16//16 64//40 66//42
f 13//13 14//14 62//38 61//37
f 8//8 6//6 54//30 56//32
f 17//17 19//19 67//43 65//41
f 44//5 42//7 90//31 92//29
f 25//24 27//22 75//46 73//48
f 20//20 18//18 66//42 68//44
f 36//12 39//10 87//34 84//36
f 35//15 36//12 84//36 83//39
f 7//7 9//9 57//33 55//31
f 39//10 41//8 89//32 87//34
f 28//21 26//23 74//47 76//45
f 1//1 5//5 53//29 49//25
f 42//7 40//9 88//33 90//31
f 19//19 21//21 69//45 67//43
f 6//6 4//4 52//28 54//30
f 16//16 15//15 63//39 64//40
f 26//23 25//24 73//48 74//47
f 9//9 11//11 59//35 57//33
f 2//3 3//2 51//27 50//26
f 41//8 43//6 91//30 89//32
f 27//22 29//20 77//44 75//46
f 38//11 37//13 85//37 86//35
f 12//12 10//10 58//34 60//36
f 34//14 32//17 80//41 82//38
f 21//21 23//23 71//47 69//45
f 11//11 13//13 61//37 59//35
f 10//10 8//8 56//32 58//34
f 43//6 45//4 93//28 91//30
f 24//24 22//22 70//46 72//48
f 37//13 34//14 82//38 85//37
f 3//2 1//1 49//25 51//27
f 47//3 48//2 96//27 95//26
f 33//16 35//15 83//39 81//40
f 4//4 2//3 50//26 52//28
f 48//2 46//1 94//25 96//27
f 29//20 31//18 79//42 77//44
f 46//1 44//5 92//29 94//25
f 40//9 38//11 86//35 88//33
f 32//17 30//19 78//43 80//41
f 22//22 20//20 68//44 70//46
f 14//14 17//17 65//41 62//38
f 30//19 28//21 76//45 78//43
