mtllib material.mtl
usemtl material_0_0
v 0.05948900 0.41118400 0.16937700
v 0.06069500 0.41134300 0.16013200
v 0.06069500 0.41134300 0.17862100
v 0.06423300 0.41180900 0.15151700
v 0.06423300 0.41180900 0.18723600
v 0.06986100 0.41254900 0.19463300
v 0.06986100 0.41254900 0.14412000
v 0.07719500 0.41351500 0.13844300
v 0.07719500 0.41351500 0.20031000
v 0.08573600 0.41463900 0.13487500
v 0.08573600 0.41463900 0.20387800
v 0.09490200 0.41584600 0.20509500
v 0.09490200 0.41584600 0.13365800
v 0.10406700 0.41705300 0.20387800
v 0.10406700 0.41705300 0.13487500
v 0.11260800 0.41817700 0.20031000
v 0.11260800 0.41817700 0.13844300
v 0.11994300 0.41914300 0.14412000
v 0.11994300 0.41914300 0.19463300
v 0.12557000 0.41988400 0.18723600
v 0.12557000 0.41988400 0.15151700
v 0.12910800 0.42035000 0.17862100
v 0.12910800 0.42035000 0.16013200
v 0.13031500 0.42050800 0.16937700
v 0.11295700 0.41553300 0.20031000
v 0.10441600 0.41440900 0.20387800
v 0.12029100 0.41649900 0.19463300
v 0.12591900 0.41723900 0.18723600
v 0.12945700 0.41770500 0.17862100
v 0.13066300 0.41786400 0.16937700
v 0.12945700 0.41770500 0.16013200
v 0.12591900 0.41723900 0.15151700
v 0.12029100 0.41649900 0.14412000
v 0.11295700 0.41553300 0.13844300
v 0.10441600 0.41440900 0.13487500
v 0.09525000 0.41320200 0.13365800
v 0.08608400 0.41199500 0.13487500
v 0.07754300 0.41087100 0.13844300
v 0.07020900 0.40990500 0.14412000
v 0.06458100 0.40916400 0.15151700
v 0.06104400 0.40869800 0.16013200
v 0.05983700 0.40854000 0.16937700
v 0.06104400 0.40869800 0.17862100
v 0.06458100 0.40916400 0.18723600
v 0.07020900 0.40990500 0.19463300
v 0.07754300 0.41087100 0.20031000
v 0.08608400 0.41199500 0.20387800
v 0.09525000 0.41320200 0.20509500
vn 0.81658367 -0.57722708 0.00000000
vn 0.79177857 -0.58049278 0.19003899
vn 0.79177857 -0.58049278 -0.19003899
vn 0.71905378 -0.59006719 0.36712719
vn 0.71905378 -0.59006719 -0.36712719
vn 0.60336539 -0.60529779 -0.51919629
vn 0.60336539 -0.60529779 0.51919629
vn 0.45259729 -0.62514679 0.63588299
vn 0.45259729 -0.62514679 -0.63588299
vn 0.27702410 -0.64826149 0.70923529
vn 0.27702410 -0.64826149 -0.70923529
vn 0.08861089 -0.67306652 -0.73425443
vn 0.08861089 -0.67306652 0.73425443
vn -0.09980232 -0.69787161 -0.70923531
vn -0.09980232 -0.69787161 0.70923531
vn -0.27537549 -0.72098626 -0.63588297
vn -0.27537549 -0.72098626 0.63588297
vn -0.42614358 -0.74083526 0.51919627
vn -0.42614358 -0.74083526 -0.51919627
vn -0.54183202 -0.75606592 -0.36712721
vn -0.54183202 -0.75606592 0.36712721
vn -0.61455682 -0.76564032 -0.19003900
vn -0.61455682 -0.76564032 0.19003900
vn -0.63936188 -0.76890597 0.00000000
vn -0.49572241 -0.06526310 -0.86602542
vn -0.25660481 -0.03378266 -0.96592583
vn -0.70105738 -0.09229596 -0.70710678
vn -0.85861643 -0.11303900 -0.50000002
vn -0.95766221 -0.12607860 -0.25881900
vn -0.99144486 -0.13052619 0.00000000
vn -0.95766221 -0.12607860 0.25881900
vn -0.85861643 -0.11303900 0.50000002
vn -0.70105738 -0.09229596 0.70710678
vn -0.49572241 -0.06526310 0.86602542
vn -0.25660481 -0.03378266 0.96592583
vn 0.00000000 0.00000000 1.00000000
vn 0.25660481 0.03378266 0.96592583
vn 0.49572241 0.06526310 0.86602542
vn 0.70105738 0.09229596 0.70710678
vn 0.85861643 0.11303900 0.50000002
vn 0.95766221 0.12607860 0.25881900
vn 0.99144486 0.13052619 0.00000000
vn 0.95766221 0.12607860 -0.25881900
vn 0.85861643 0.11303900 -0.50000002
vn 0.70105738 0.09229596 -0.70710678
vn 0.49572241 0.06526310 -0.86602542
vn 0.25660481 0.03378266 -0.96592583
vn 0.00000000 0.00000000 -1.00000000
f 1//1 2//2 3//3
f 2//2 4//4 3//3
f 3//3 4//4 5//5
f 5//5 4//4 6//6
f 4//4 7//7 6//6
f 7//7 8//8 6//6
f 6//6 8//8 9//9
f 8//8 10//10 9//9
f 9//9 10//10 11//11
f 11//11 10//10 12//12
f 10//10 13//13 12//12
f 12//12 13//13 14//14
f 13//13 15//15 14//14
f 14//14 15//15 16//16
f 15//15 17//17 16//16
f 17//17 18//18 16//16
f 16//16 18//18 19//19
f 19//19 18//18 20//20
f 18//18 21//21 20//20
f 20//20 21//21 22//22
f 21//21 23//23 22//22
f 24//24 22//22 23//23
f 16//16 25//25 14//14
f 26//26 14//14 25//25
f 19//19 27//27 16//16
f 25//25 16//16 27//27
f 27//27 19//19 28//28
f 20//20 28//28 19//19
f 28//28 20//20 29//29
f 22//22 29//29 20//20
f 29//29 22//22 30//30
f 24//24 30//30 22//22
f 30//30 24//24 31//31
f 23//23 31//31 24//24
f 31//31 23//23 32//32
f 21//21 32//32 23//23
f 32//32 21//21 33//33
f 18//18 33//33 21//21
f 18//18 17//17 33//33
f 34//34 33//33 17//17
f 17//17 15//15 34//34
f 35//35 34//34 15//15
f 15//15 13//13 35//35
f 36//36 35//35 13//13
f 13//13 10//10 36//36
f 37//37 36//36 10//10
f 10//10 8//8 37//37
f 38//38 37//37 8//8
f 8//8 7//7 38//38
f 39//39 38//38 7//7
f 4//4 40//40 7//7
f 39//39 7//7 40//40
f 2//2 41//41 4//4
f 40//40 4//4 41//41
f 1//1 42//42 2//2
f 41//41 2//2 42//42
f 3//3 43//43 1//1
f 42//42 1//1 43//43
f 5//5 44//44 3//3
f 43//43 3//3 44//44
f 6//6 45//45 5//5
f 44//44 5//5 45//45
f 9//9 46//46 6//6
f 45//45 6//6 46//46
f 11//11 47//47 9//9
f 46//46 9//9 47//47
f 12//12 48//48 11//11
f 47//47 11//11 48//48
f 14//14 26//26 12//12
f 48//48 12//12 26//26

