mtllib material.mtl
usemtl material_0_0
v 0.10863800 -0.40024700 -0.22561600
v 0.10863800 -0.40024500 -0.27091300
v 0.11161900 -0.40024600 -0.24826500
v 0.09989500 -0.40024800 -0.20451100
v 0.09989500 -0.40024400 -0.29201900
v 0.08598900 -0.40024900 -0.18638800
v 0.08598900 -0.40024400 -0.31014200
v 0.06786500 -0.40025000 -0.17248100
v 0.06885500 -0.40024700 -0.24826500
v 0.06733100 -0.40024800 -0.23668400
v 0.04676000 -0.40025100 -0.16373900
v 0.06286100 -0.40024800 -0.22589300
v 0.05575000 -0.40024900 -0.21662700
v 0.04648400 -0.40024900 -0.20951600
v 0.02392400 -0.40025200 -0.16073300
v 0.03569200 -0.40025000 -0.20504600
v 0.02411200 -0.40025000 -0.20352100
v 0.01253100 -0.40025000 -0.20504600
v -0.24241300 -0.40025200 -0.16073300
v 0.00174000 -0.40025000 -0.20951600
v -0.00752700 -0.40025000 -0.21662700
v -0.01463700 -0.40025000 -0.22589300
v -0.01910700 -0.40024900 -0.23668400
v -0.02063200 -0.40024900 -0.24826500
v 0.06786500 -0.40024400 -0.32404800
v 0.06733100 -0.40024700 -0.25984500
v 0.04676000 -0.40024400 -0.33279000
v 0.06286100 -0.40024600 -0.27063700
v 0.05575000 -0.40024600 -0.27990300
v 0.04648400 -0.40024600 -0.28701400
v 0.02392400 -0.40024400 -0.33579700
v 0.03569200 -0.40024600 -0.29148400
v 0.02411200 -0.40024600 -0.29300800
v 0.01253100 -0.40024600 -0.29148400
v -0.24241300 -0.40024400 -0.33579700
v 0.00174000 -0.40024700 -0.28701400
v -0.00752700 -0.40024700 -0.27990300
v -0.01463700 -0.40024800 -0.27063700
v -0.01910700 -0.40024800 -0.25984500
v -0.26525000 -0.40024800 -0.16373900
v -0.26525000 -0.40024800 -0.33279000
v -0.28635500 -0.40024800 -0.17248100
v -0.28635500 -0.40024800 -0.32404800
v -0.30447900 -0.40024800 -0.31014200
v -0.30447900 -0.40024800 -0.18638800
v -0.31838500 -0.40024800 -0.29201900
v -0.31838500 -0.40024800 -0.20451100
v -0.32712700 -0.40024800 -0.27091300
v -0.32712700 -0.40024800 -0.22561600
v -0.33010900 -0.40024800 -0.24826500
v -0.28635500 -0.40024800 -0.17248100
v -0.30447900 -0.39358000 -0.18638800
v -0.30447900 -0.40024800 -0.18638800
v -0.28635600 -0.39358000 -0.17248100
v -0.31838500 -0.39358000 -0.20451100
v -0.31838500 -0.40024800 -0.20451100
v -0.32712700 -0.39358000 -0.22561600
v -0.32712700 -0.40024800 -0.22561600
v -0.33010900 -0.39358000 -0.24826500
v -0.33010900 -0.40024800 -0.24826500
v -0.32712700 -0.39358000 -0.27091300
v -0.32712700 -0.40024800 -0.27091300
v -0.31838500 -0.39358000 -0.29201800
v -0.31838500 -0.40024800 -0.29201900
v -0.30447900 -0.39358000 -0.31014200
v -0.30447900 -0.40024800 -0.31014200
v -0.28635600 -0.39358000 -0.32404800
v -0.28635500 -0.40024800 -0.32404800
v -0.26525000 -0.40024800 -0.33279000
v -0.26525000 -0.39358000 -0.33279000
v -0.24241300 -0.40024400 -0.33579700
v -0.24241300 -0.39357600 -0.33579700
v 0.02392400 -0.40024400 -0.33579700
v 0.02392400 -0.39357600 -0.33579700
v 0.04676000 -0.40024400 -0.33279000
v 0.04676000 -0.39357600 -0.33279000
v 0.06786500 -0.40024400 -0.32404800
v 0.06786500 -0.39357600 -0.32404800
v 0.08598900 -0.39357600 -0.31014200
v 0.08598900 -0.40024400 -0.31014200
v 0.09989500 -0.40024400 -0.29201900
v 0.09989500 -0.39357700 -0.29201800
v 0.10863800 -0.40024500 -0.27091300
v 0.10863800 -0.39357700 -0.27091300
v 0.11161900 -0.40024600 -0.24826500
v 0.11161900 -0.39357800 -0.24826500
v 0.10863800 -0.40024700 -0.22561600
v 0.10863800 -0.39357900 -0.22561600
v 0.09989500 -0.40024800 -0.20451100
v 0.09989500 -0.39358000 -0.20451100
v 0.08598900 -0.40024900 -0.18638800
v 0.08598900 -0.39358200 -0.18638800
v 0.06786500 -0.39358300 -0.17248100
v 0.06786500 -0.40025000 -0.17248100
v 0.04676000 -0.39358300 -0.16373900
v 0.04676000 -0.40025100 -0.16373900
v 0.02392400 -0.39358400 -0.16073300
v 0.02392400 -0.40025200 -0.16073300
v -0.24241300 -0.40025200 -0.16073300
v -0.24241300 -0.39358400 -0.16073300
v -0.26525000 -0.40024800 -0.16373900
v -0.26525000 -0.39358000 -0.16373900
vn 0.00000314 -1.00000000 -0.00002811
vn 0.00000314 -1.00000000 -0.00002811
vn 0.00000314 -1.00000000 -0.00002811
vn 0.00000314 -1.00000000 -0.00002811
vn 0.00000314 -1.00000000 -0.00002811
vn 0.00000314 -1.00000000 -0.00002811
vn 0.00000314 -1.00000000 -0.00002811
vn 0.00000314 -1.00000000 -0.00002811
vn 0.00000314 -1.00000000 -0.00002811
vn 0.00000314 -1.00000000 -0.00002811
vn 0.00000314 -1.00000000 -0.00002811
vn 0.00000314 -1.00000000 -0.00002811
vn 0.00000314 -1.00000000 -0.00002811
vn 0.00000314 -1.00000000 -0.00002811
vn 0.00000314 -1.00000000 -0.00002811
vn 0.00000314 -1.00000000 -0.00002811
vn 0.00000314 -1.00000000 -0.00002811
vn 0.00000314 -1.00000000 -0.00002811
vn 0.00000314 -1.00000000 -0.00002811
vn 0.00000314 -1.00000000 -0.00002811
vn 0.00000314 -1.00000000 -0.00002811
vn 0.00000314 -1.00000000 -0.00002811
vn 0.00000314 -1.00000000 -0.00002811
vn 0.00000314 -1.00000000 -0.00002811
vn 0.00000314 -1.00000000 -0.00002811
vn 0.00000314 -1.00000000 -0.00002811
vn 0.00000314 -1.00000000 -0.00002811
vn 0.00000314 -1.00000000 -0.00002811
vn 0.00000314 -1.00000000 -0.00002811
vn 0.00000314 -1.00000000 -0.00002811
vn 0.00000314 -1.00000000 -0.00002811
vn 0.00000314 -1.00000000 -0.00002811
vn 0.00000314 -1.00000000 -0.00002811
vn 0.00000314 -1.00000000 -0.00002811
vn 0.00000314 -1.00000000 -0.00002811
vn 0.00000314 -1.00000000 -0.00002811
vn 0.00000314 -1.00000000 -0.00002811
vn 0.00000314 -1.00000000 -0.00002811
vn 0.00000314 -1.00000000 -0.00002811
vn 0.00000314 -1.00000000 -0.00002811
vn 0.00000314 -1.00000000 -0.00002811
vn 0.00000314 -1.00000000 -0.00002811
vn 0.00000314 -1.00000000 -0.00002811
vn 0.00000314 -1.00000000 -0.00002811
vn 0.00000314 -1.00000000 -0.00002811
vn 0.00000314 -1.00000000 -0.00002811
vn 0.00000314 -1.00000000 -0.00002811
vn 0.00000314 -1.00000000 -0.00002811
vn 0.00000314 -1.00000000 -0.00002811
vn 0.00000314 -1.00000000 -0.00002811
vn -0.50000082 -0.00002587 0.86602493
vn -0.70710568 -0.00002207 0.70710788
vn -0.70710788 -0.00002207 0.70710568
vn -0.49999918 -0.00002587 0.86602587
vn -0.86602442 -0.00001676 0.50000171
vn -0.86602639 -0.00001676 0.49999829
vn -0.96592525 -0.00001031 0.25882121
vn -0.96592640 -0.00001031 0.25881690
vn -1.00000000 -0.00000315 0.00000241
vn -1.00000000 -0.00000315 -0.00000241
vn -0.96592645 0.00000422 -0.25881671
vn -0.96592520 0.00000422 -0.25882140
vn -0.86602650 0.00001130 -0.49999810
vn -0.86602431 0.00001130 -0.50000190
vn -0.70710813 0.00001761 -0.70710543
vn -0.70710543 0.00001761 -0.70710813
vn -0.50000113 0.00002272 -0.86602475
vn -0.49999887 0.00002272 -0.86602605
vn -0.25882510 0.00002628 -0.96592420
vn -0.25881299 0.00002628 -0.96592745
vn -0.06540643 0.00002779 -0.99785871
vn -0.06539983 0.00002779 -0.99785914
vn 0.06540286 0.00002820 -0.99785894
vn 0.06540339 0.00002820 -0.99785891
vn 0.25881800 0.00002792 -0.96592611
vn 0.25882011 0.00002792 -0.96592554
vn 0.49999950 0.00002587 -0.86602569
vn 0.50000051 0.00002587 -0.86602511
vn 0.70710688 0.00002207 -0.70710668
vn 0.70710668 0.00002207 -0.70710688
vn 0.86602563 0.00001676 -0.49999961
vn 0.86602518 0.00001676 -0.50000039
vn 0.96592606 0.00001031 -0.25881819
vn 0.96592560 0.00001031 -0.25881990
vn 1.00000000 0.00000315 0.00000134
vn 1.00000000 0.00000315 -0.00000134
vn 0.96592538 -0.00000422 0.25882070
vn 0.96592627 -0.00000422 0.25881739
vn 0.86602442 -0.00001130 0.50000171
vn 0.86602639 -0.00001130 0.49999829
vn 0.70710538 -0.00001761 0.70710818
vn 0.70710818 -0.00001761 0.70710538
vn 0.50000171 -0.00002272 0.86602442
vn 0.49999829 -0.00002272 0.86602639
vn 0.25882079 -0.00002628 0.96592536
vn 0.25881730 -0.00002628 0.96592629
vn 0.06540347 -0.00002779 0.99785890
vn 0.06540279 -0.00002779 0.99785894
vn -0.06539954 -0.00002820 0.99785916
vn -0.06540672 -0.00002820 0.99785869
vn -0.25881249 -0.00002792 0.96592758
vn -0.25882559 -0.00002792 0.96592407
f 1//1 2//2 3//3
f 2//2 1//1 4//4
f 2//2 4//4 5//5
f 5//5 4//4 6//6
f 5//5 6//6 7//7
f 7//7 6//6 8//8
f 7//7 8//8 9//9
f 9//9 8//8 10//10
f 10//10 8//8 11//11
f 10//10 11//11 12//12
f 12//12 11//11 13//13
f 13//13 11//11 14//14
f 14//14 11//11 15//15
f 14//14 15//15 16//16
f 16//16 15//15 17//17
f 17//17 15//15 18//18
f 18//18 15//15 19//19
f 18//18 19//19 20//20
f 20//20 19//19 21//21
f 21//21 19//19 22//22
f 22//22 19//19 23//23
f 23//23 19//19 24//24
f 9//9 25//25 7//7
f 25//25 9//9 26//26
f 25//25 26//26 27//27
f 27//27 26//26 28//28
f 27//27 28//28 29//29
f 27//27 29//29 30//30
f 27//27 30//30 31//31
f 31//31 30//30 32//32
f 31//31 32//32 33//33
f 31//31 33//33 34//34
f 31//31 34//34 35//35
f 35//35 34//34 36//36
f 35//35 36//36 37//37
f 35//35 37//37 38//38
f 35//35 38//38 39//39
f 35//35 39//39 24//24
f 35//35 24//24 19//19
f 35//35 19//19 40//40
f 35//35 40//40 41//41
f 41//41 40//40 42//42
f 41//41 42//42 43//43
f 43//43 42//42 44//44
f 44//44 42//42 45//45
f 44//44 45//45 46//46
f 46//46 45//45 47//47
f 46//46 47//47 48//48
f 48//48 47//47 49//49
f 48//48 49//49 50//50
f 51//51 52//52 53//53
f 52//52 51//51 54//54
f 53//53 55//55 56//56
f 55//55 53//53 52//52
f 56//56 57//57 58//58
f 57//57 56//56 55//55
f 58//58 59//59 60//60
f 59//59 58//58 57//57
f 60//60 61//61 62//62
f 61//61 60//60 59//59
f 62//62 63//63 64//64
f 63//63 62//62 61//61
f 64//64 65//65 66//66
f 65//65 64//64 63//63
f 66//66 67//67 68//68
f 67//67 66//66 65//65
f 67//67 69//69 68//68
f 69//69 67//67 70//70
f 70//70 71//71 69//69
f 71//71 70//70 72//72
f 72//72 73//73 71//71
f 73//73 72//72 74//74
f 74//74 75//75 73//73
f 75//75 74//74 76//76
f 76//76 77//77 75//75
f 77//77 76//76 78//78
f 77//77 79//79 80//80
f 79//79 77//77 78//78
f 79//79 81//81 80//80
f 81//81 79//79 82//82
f 82//82 83//83 81//81
f 83//83 82//82 84//84
f 84//84 85//85 83//83
f 85//85 84//84 86//86
f 86//86 87//87 85//85
f 87//87 86//86 88//88
f 88//88 89//89 87//87
f 89//89 88//88 90//90
f 90//90 91//91 89//89
f 91//91 90//90 92//92
f 91//91 93//93 94//94
f 93//93 91//91 92//92
f 94//94 95//95 96//96
f 95//95 94//94 93//93
f 96//96 97//97 98//98
f 97//97 96//96 95//95
f 97//97 99//99 98//98
f 99//99 97//97 100//100
f 100//100 101//101 99//99
f 101//101 100//100 102//102
f 101//101 54//54 51//51
f 54//54 101//101 102//102

