mtllib material.mtl
usemtl material_0_0
v -0.02876300 0.29951500 -0.16419500
v 0.02753500 0.29951500 -0.16527600
v -0.00068500 0.29951500 -0.16844200
v -0.05478500 0.29951500 -0.15282600
v 0.05397400 0.29951500 -0.15491500
v -0.07697700 0.29951500 -0.13511000
v 0.07683100 0.29951500 -0.13806300
v -0.09382900 0.29951500 -0.11225400
v 0.09454700 0.29951500 -0.11587100
v 0.10591600 0.29951500 -0.08984900
v -0.10419000 0.29951500 -0.08581400
v 0.11016200 0.29951500 -0.06177100
v -0.10735600 0.29951500 -0.05759400
v -0.10310900 0.29951500 -0.02951600
v 0.10699700 0.29951500 -0.03355100
v 0.09663600 0.29951500 -0.00711200
v -0.09174000 0.29951500 -0.00349500
v 0.07978400 0.29951500 0.01574500
v -0.07402400 0.29951500 0.01869800
v 0.05759100 0.29951500 0.03346100
v -0.05116800 0.29951500 0.03555000
v 0.03156900 0.29951500 0.04483000
v -0.02472800 0.29951500 0.04591100
v 0.00349200 0.29951500 0.04907700
v 0.02753500 0.29951500 -0.16527600
v -0.00068500 0.12151300 -0.16844200
v -0.00068500 0.29951500 -0.16844200
v 0.02753500 0.12151300 -0.16527600
v -0.02876300 0.12151300 -0.16419500
v -0.02876300 0.29951500 -0.16419500
v -0.05478500 0.12151300 -0.15282600
v -0.05478500 0.29951500 -0.15282600
v -0.07697700 0.12151300 -0.13511000
v -0.07697700 0.29951500 -0.13511000
v -0.09382900 0.29951500 -0.11225400
v -0.09382900 0.12151300 -0.11225400
v -0.10419000 0.29951500 -0.08581400
v -0.10419000 0.12151300 -0.08581400
v -0.10735600 0.29951500 -0.05759400
v -0.10735600 0.12151300 -0.05759400
v -0.10310900 0.29951500 -0.02951600
v -0.10310900 0.12151300 -0.02951600
v -0.09174000 0.29951500 -0.00349500
v -0.09174000 0.12151300 -0.00349500
v -0.07402400 0.29951500 0.01869800
v -0.07402400 0.12151300 0.01869800
v -0.05116800 0.12151300 0.03555000
v -0.05116800 0.29951500 0.03555000
v -0.02472800 0.12151300 0.04591100
v -0.02472800 0.29951500 0.04591100
v 0.00349200 0.12151300 0.04907700
v 0.00349200 0.29951500 0.04907700
v 0.03156900 0.12151300 0.04483000
v 0.03156900 0.29951500 0.04483000
v 0.05759100 0.12151300 0.03346100
v 0.05759100 0.29951500 0.03346100
v 0.07978400 0.12151300 0.01574500
v 0.07978400 0.29951500 0.01574500
v 0.09663600 0.29951500 -0.00711200
v 0.09663600 0.12151300 -0.00711200
v 0.10699700 0.29951500 -0.03355100
v 0.10699700 0.12151300 -0.03355100
v 0.11016200 0.29951500 -0.06177100
v 0.11016200 0.12151300 -0.06177100
v 0.10591600 0.29951500 -0.08984900
v 0.10591600 0.12151300 -0.08984900
v 0.09454700 0.29951500 -0.11587100
v 0.09454700 0.12151300 -0.11587100
v 0.07683100 0.29951500 -0.13806300
v 0.07683100 0.12151300 -0.13806300
v 0.05397400 0.12151300 -0.15491500
v 0.05397400 0.29951500 -0.15491500
vn 0.00000000 1.00000000 0.00000000
vn 0.00000000 1.00000000 0.00000000
vn 0.00000000 1.00000000 0.00000000
vn 0.00000000 1.00000000 0.00000000
vn 0.00000000 1.00000000 0.00000000
vn 0.00000000 1.00000000 0.00000000
vn 0.00000000 1.00000000 0.00000000
vn 0.00000000 1.00000000 0.00000000
vn 0.00000000 1.00000000 0.00000000
vn 0.00000000 1.00000000 0.00000000
vn 0.00000000 1.00000000 0.00000000
vn 0.00000000 1.00000000 0.00000000
vn 0.00000000 1.00000000 0.00000000
vn 0.00000000 1.00000000 0.00000000
vn 0.00000000 1.00000000 0.00000000
vn 0.00000000 1.00000000 0.00000000
vn 0.00000000 1.00000000 0.00000000
vn 0.00000000 1.00000000 0.00000000
vn 0.00000000 1.00000000 0.00000000
vn 0.00000000 1.00000000 0.00000000
vn 0.00000000 1.00000000 0.00000000
vn 0.00000000 1.00000000 0.00000000
vn 0.00000000 1.00000000 0.00000000
vn 0.00000000 1.00000000 0.00000000
vn 0.24022801 0.00000000 -0.97071649
vn -0.01919744 0.00000000 -0.99981571
vn -0.01919744 0.00000000 -0.99981571
vn 0.24022801 0.00000000 -0.97071649
vn -0.27731462 0.00000000 -0.96077916
vn -0.27731462 0.00000000 -0.96077916
vn -0.51653333 0.00000000 -0.85626708
vn -0.51653333 0.00000000 -0.85626708
vn -0.72055111 0.00000000 -0.69340183
vn -0.72055111 0.00000000 -0.69340183
vn -0.87546453 0.00000000 -0.48328239
vn -0.87546453 0.00000000 -0.48328239
vn -0.97071649 0.00000000 -0.24022801
vn -0.97071649 0.00000000 -0.24022801
vn -0.99981571 0.00000000 0.01919744
vn -0.99981571 0.00000000 0.01919744
vn -0.96077916 0.00000000 0.27731462
vn -0.96077916 0.00000000 0.27731462
vn -0.85626708 0.00000000 0.51653333
vn -0.85626708 0.00000000 0.51653333
vn -0.69340183 0.00000000 0.72055111
vn -0.69340183 0.00000000 0.72055111
vn -0.48328239 0.00000000 0.87546453
vn -0.48328239 0.00000000 0.87546453
vn -0.24022801 0.00000000 0.97071649
vn -0.24022801 0.00000000 0.97071649
vn 0.01919744 0.00000000 0.99981571
vn 0.01919744 0.00000000 0.99981571
vn 0.27731462 0.00000000 0.96077916
vn 0.27731462 0.00000000 0.96077916
vn 0.51653333 0.00000000 0.85626708
vn 0.51653333 0.00000000 0.85626708
vn 0.72055111 0.00000000 0.69340183
vn 0.72055111 0.00000000 0.69340183
vn 0.87546453 0.00000000 0.48328239
vn 0.87546453 0.00000000 0.48328239
vn 0.97071649 0.00000000 0.24022801
vn 0.97071649 0.00000000 0.24022801
vn 0.99981571 0.00000000 -0.01919744
vn 0.99981571 0.00000000 -0.01919744
vn 0.96077916 0.00000000 -0.27731462
vn 0.96077916 0.00000000 -0.27731462
vn 0.85626708 0.00000000 -0.51653333
vn 0.85626708 0.00000000 -0.51653333
vn 0.69340183 0.00000000 -0.72055111
vn 0.69340183 0.00000000 -0.72055111
vn 0.48328239 0.00000000 -0.87546453
vn 0.48328239 0.00000000 -0.87546453
f 1//1 2//2 3//3
f 2//2 1//1 4//4
f 2//2 4//4 5//5
f 5//5 4//4 6//6
f 5//5 6//6 7//7
f 7//7 6//6 8//8
f 7//7 8//8 9//9
f 9//9 8//8 10//10
f 10//10 8//8 11//11
f 10//10 11//11 12//12
f 12//12 11//11 13//13
f 12//12 13//13 14//14
f 12//12 14//14 15//15
f 15//15 14//14 16//16
f 16//16 14//14 17//17
f 16//16 17//17 18//18
f 18//18 17//17 19//19
f 18//18 19//19 20//20
f 20//20 19//19 21//21
f 20//20 21//21 22//22
f 22//22 21//21 23//23
f 22//22 23//23 24//24
f 25//25 26//26 27//27
f 26//26 25//25 28//28
f 27//27 29//29 30//30
f 29//29 27//27 26//26
f 30//30 31//31 32//32
f 31//31 30//30 29//29
f 32//32 33//33 34//34
f 33//33 32//32 31//31
f 35//35 33//33 36//36
f 33//33 35//35 34//34
f 37//37 36//36 38//38
f 36//36 37//37 35//35
f 39//39 38//38 40//40
f 38//38 39//39 37//37
f 41//41 40//40 42//42
f 40//40 41//41 39//39
f 43//43 42//42 44//44
f 42//42 43//43 41//41
f 45//45 44//44 46//46
f 44//44 45//45 43//43
f 47//47 45//45 46//46
f 45//45 47//47 48//48
f 49//49 48//48 47//47
f 48//48 49//49 50//50
f 51//51 50//50 49//49
f 50//50 51//51 52//52
f 53//53 52//52 51//51
f 52//52 53//53 54//54
f 55//55 54//54 53//53
f 54//54 55//55 56//56
f 57//57 56//56 55//55
f 56//56 57//57 58//58
f 59//59 57//57 60//60
f 57//57 59//59 58//58
f 61//61 60//60 62//62
f 60//60 61//61 59//59
f 63//63 62//62 64//64
f 62//62 63//63 61//61
f 65//65 64//64 66//66
f 64//64 65//65 63//63
f 67//67 66//66 68//68
f 66//66 67//67 65//65
f 69//69 68//68 70//70
f 68//68 69//69 67//67
f 69//69 71//71 72//72
f 71//71 69//69 70//70
f 72//72 28//28 25//25
f 28//28 72//72 71//71

