mtllib material.mtl
usemtl material_0_0
v 0.39219600 -0.24485600 0.04656200
v 0.39772000 -0.24061700 0.05989800
v 0.39772000 -0.24061700 0.04656200
v 0.39219600 -0.24485600 0.05989800
v 0.39219600 -0.24485600 0.05989800
v 0.39219600 -0.24485600 0.04656200
v 0.39772000 -0.24061700 0.05989800
v 0.39772000 -0.24061700 0.04656200
v 0.40195800 -0.23509400 0.04656200
v 0.40195800 -0.23509400 0.05989800
v 0.40195800 -0.23509400 0.05989800
v 0.40195800 -0.23509400 0.04656200
v 0.38576300 -0.24752100 0.04656200
v 0.37195700 -0.24752100 0.04656200
v 0.37886000 -0.24842900 0.04656200
v 0.36552500 -0.24485600 0.04656200
v 0.39219600 -0.24485600 0.04656200
v 0.37886000 -0.24461300 0.04656200
v 0.38477600 -0.24383500 0.04656200
v 0.39772000 -0.24061700 0.04656200
v 0.39028800 -0.24155100 0.04656200
v 0.39502200 -0.23791900 0.04656200
v 0.40195800 -0.23509400 0.04656200
v 0.39865400 -0.23318600 0.04656200
v 0.40462300 -0.22866100 0.04656200
v 0.40093700 -0.22767300 0.04656200
v 0.40553200 -0.22175800 0.04656200
v 0.40171600 -0.22175800 0.04656200
v 0.40093700 -0.21584300 0.04656200
v 0.40462300 -0.21485500 0.04656200
v 0.39865400 -0.21033000 0.04656200
v 0.40195800 -0.20842200 0.04656200
v 0.39502200 -0.20559700 0.04656200
v 0.39772000 -0.20289800 0.04656200
v 0.39028800 -0.20196500 0.04656200
v 0.39219600 -0.19866000 0.04656200
v 0.38477600 -0.19968100 0.04656200
v 0.37886000 -0.19890300 0.04656200
v 0.37294500 -0.24383500 0.04656200
v 0.36000100 -0.24061700 0.04656200
v 0.36743300 -0.24155100 0.04656200
v 0.36269900 -0.23791900 0.04656200
v 0.35576200 -0.23509400 0.04656200
v 0.35906700 -0.23318600 0.04656200
v 0.35309800 -0.22866100 0.04656200
v 0.35678400 -0.22767300 0.04656200
v 0.35218900 -0.22175800 0.04656200
v 0.35600500 -0.22175800 0.04656200
v 0.35678400 -0.21584300 0.04656200
v 0.35309800 -0.21485500 0.04656200
v 0.35906700 -0.21033000 0.04656200
v 0.35576200 -0.20842200 0.04656200
v 0.36269900 -0.20559700 0.04656200
v 0.36000100 -0.20289800 0.04656200
v 0.36743300 -0.20196500 0.04656200
v 0.36552500 -0.19866000 0.04656200
v 0.37294500 -0.19968100 0.04656200
v 0.38576300 -0.19599500 0.04656200
v 0.37195700 -0.19599500 0.04656200
v 0.37886000 -0.19508700 0.04656200
v 0.37886000 -0.19508700 0.04656200
v 0.38576300 -0.19599500 0.04656200
v 0.37195700 -0.19599500 0.04656200
v 0.36552500 -0.19866000 0.04656200
v 0.39219600 -0.19866000 0.04656200
v 0.37886000 -0.19890300 0.04656200
v 0.37294500 -0.19968100 0.04656200
v 0.36743300 -0.20196500 0.04656200
v 0.36000100 -0.20289800 0.04656200
v 0.36269900 -0.20559700 0.04656200
v 0.35576200 -0.20842200 0.04656200
v 0.35906700 -0.21033000 0.04656200
v 0.35309800 -0.21485500 0.04656200
v 0.35678400 -0.21584300 0.04656200
v 0.35218900 -0.22175800 0.04656200
v 0.35600500 -0.22175800 0.04656200
v 0.35678400 -0.22767300 0.04656200
v 0.35309800 -0.22866100 0.04656200
v 0.35906700 -0.23318600 0.04656200
v 0.35576200 -0.23509400 0.04656200
v 0.36269900 -0.23791900 0.04656200
v 0.36000100 -0.24061700 0.04656200
v 0.36743300 -0.24155100 0.04656200
v 0.37294500 -0.24383500 0.04656200
v 0.37886000 -0.24461300 0.04656200
v 0.36552500 -0.24485600 0.04656200
v 0.38477600 -0.19968100 0.04656200
v 0.39028800 -0.20196500 0.04656200
v 0.39772000 -0.20289800 0.04656200
v 0.39502200 -0.20559700 0.04656200
v 0.40195800 -0.20842200 0.04656200
v 0.39865400 -0.21033000 0.04656200
v 0.40462300 -0.21485500 0.04656200
v 0.40093700 -0.21584300 0.04656200
v 0.40553200 -0.22175800 0.04656200
v 0.40171600 -0.22175800 0.04656200
v 0.40093700 -0.22767300 0.04656200
v 0.40462300 -0.22866100 0.04656200
v 0.39865400 -0.23318600 0.04656200
v 0.40195800 -0.23509400 0.04656200
v 0.39502200 -0.23791900 0.04656200
v 0.39772000 -0.24061700 0.04656200
v 0.39028800 -0.24155100 0.04656200
v 0.38477600 -0.24383500 0.04656200
v 0.39219600 -0.24485600 0.04656200
v 0.38576300 -0.24752100 0.04656200
v 0.37195700 -0.24752100 0.04656200
v 0.37886000 -0.24842900 0.04656200
v 0.38576300 -0.24752100 0.04656200
v 0.38576300 -0.24752100 0.05989800
v 0.38576300 -0.24752100 0.05989800
v 0.38576300 -0.24752100 0.04656200
v 0.40462300 -0.22866100 0.04656200
v 0.40462300 -0.22866100 0.05989800
v 0.40462300 -0.22866100 0.05989800
v 0.40462300 -0.22866100 0.04656200
v 0.36000100 -0.20289800 0.05989800
v 0.36552500 -0.19866000 0.04656200
v 0.36552500 -0.19866000 0.05989800
v 0.36000100 -0.20289800 0.04656200
v 0.36000100 -0.20289800 0.04656200
v 0.36000100 -0.20289800 0.05989800
v 0.36552500 -0.19866000 0.04656200
v 0.36552500 -0.19866000 0.05989800
v 0.35576200 -0.20842200 0.04656200
v 0.35576200 -0.20842200 0.05989800
v 0.35576200 -0.20842200 0.05989800
v 0.35576200 -0.20842200 0.04656200
v 0.35309800 -0.21485500 0.04656200
v 0.35309800 -0.21485500 0.05989800
v 0.35309800 -0.21485500 0.05989800
v 0.35309800 -0.21485500 0.04656200
v 0.35218900 -0.22175800 0.04656200
v 0.35218900 -0.22175800 0.05989800
v 0.35218900 -0.22175800 0.05989800
v 0.35218900 -0.22175800 0.04656200
v 0.35309800 -0.22866100 0.04656200
v 0.35309800 -0.22866100 0.05989800
v 0.35309800 -0.22866100 0.05989800
v 0.35309800 -0.22866100 0.04656200
v 0.35576200 -0.23509400 0.04656200
v 0.35576200 -0.23509400 0.05989800
v 0.35576200 -0.23509400 0.05989800
v 0.35576200 -0.23509400 0.04656200
v 0.36000100 -0.24061700 0.04656200
v 0.36000100 -0.24061700 0.05989800
v 0.36000100 -0.24061700 0.05989800
v 0.36000100 -0.24061700 0.04656200
v 0.36552500 -0.24485600 0.05989800
v 0.36552500 -0.24485600 0.04656200
v 0.36552500 -0.24485600 0.05989800
v 0.36552500 -0.24485600 0.04656200
v 0.37195700 -0.24752100 0.05989800
v 0.37195700 -0.24752100 0.04656200
v 0.37195700 -0.24752100 0.05989800
v 0.37195700 -0.24752100 0.04656200
v 0.37886000 -0.24842900 0.05989800
v 0.37886000 -0.24842900 0.04656200
v 0.37886000 -0.24842900 0.05989800
v 0.37886000 -0.24842900 0.04656200
v 0.40553200 -0.22175800 0.04656200
v 0.40553200 -0.22175800 0.05989800
v 0.40553200 -0.22175800 0.05989800
v 0.40553200 -0.22175800 0.04656200
v 0.40462300 -0.21485500 0.04656200
v 0.40462300 -0.21485500 0.05989800
v 0.40462300 -0.21485500 0.05989800
v 0.40462300 -0.21485500 0.04656200
v 0.40195800 -0.20842200 0.04656200
v 0.40195800 -0.20842200 0.05989800
v 0.40195800 -0.20842200 0.05989800
v 0.40195800 -0.20842200 0.04656200
v 0.39772000 -0.20289800 0.04656200
v 0.39772000 -0.20289800 0.05989800
v 0.39772000 -0.20289800 0.05989800
v 0.39772000 -0.20289800 0.04656200
v 0.39219600 -0.19866000 0.05989800
v 0.39219600 -0.19866000 0.04656200
v 0.39219600 -0.19866000 0.04656200
v 0.39219600 -0.19866000 0.05989800
v 0.38576300 -0.19599500 0.05989800
v 0.38576300 -0.19599500 0.04656200
v 0.38576300 -0.19599500 0.04656200
v 0.38576300 -0.19599500 0.05989800
v 0.37886000 -0.19508700 0.05989800
v 0.37886000 -0.19508700 0.04656200
v 0.37886000 -0.19508700 0.04656200
v 0.37886000 -0.19508700 0.05989800
v 0.37195700 -0.19599500 0.05989800
v 0.37195700 -0.19599500 0.04656200
v 0.37195700 -0.19599500 0.04656200
v 0.37195700 -0.19599500 0.05989800
vn -0.50000000 0.86602540 0.00000000
vn -0.70710678 0.70710678 0.00000000
vn -0.70710678 0.70710678 0.00000000
vn -0.50000000 0.86602540 0.00000000
vn 0.50000000 -0.86602540 0.00000000
vn 0.50000000 -0.86602540 0.00000000
vn 0.70710678 -0.70710678 0.00000000
vn 0.70710678 -0.70710678 0.00000000
vn -0.86602540 0.50000000 0.00000000
vn -0.86602540 0.50000000 0.00000000
vn 0.86602540 -0.50000000 0.00000000
vn 0.86602540 -0.50000000 0.00000000
vn 0.00000000 0.00000000 1.00000000
vn 0.00000000 0.00000000 1.00000000
vn 0.00000000 0.00000000 1.00000000
vn 0.00000000 0.00000000 1.00000000
vn 0.00000000 0.00000000 1.00000000
vn 0.00000000 0.00000000 1.00000000
vn 0.00000000 0.00000000 1.00000000
vn 0.00000000 0.00000000 1.00000000
vn 0.00000000 0.00000000 1.00000000
vn 0.00000000 0.00000000 1.00000000
vn 0.00000000 0.00000000 1.00000000
vn 0.00000000 0.00000000 1.00000000
vn 0.00000000 0.00000000 1.00000000
vn 0.00000000 0.00000000 1.00000000
vn 0.00000000 0.00000000 1.00000000
vn 0.00000000 0.00000000 1.00000000
vn 0.00000000 0.00000000 1.00000000
vn 0.00000000 0.00000000 1.00000000
vn 0.00000000 0.00000000 1.00000000
vn 0.00000000 0.00000000 1.00000000
vn 0.00000000 0.00000000 1.00000000
vn 0.00000000 0.00000000 1.00000000
vn 0.00000000 0.00000000 1.00000000
vn 0.00000000 0.00000000 1.00000000
vn 0.00000000 0.00000000 1.00000000
vn 0.00000000 0.00000000 1.00000000
vn 0.00000000 0.00000000 1.00000000
vn 0.00000000 0.00000000 1.00000000
vn 0.00000000 0.00000000 1.00000000
vn 0.00000000 0.00000000 1.00000000
vn 0.00000000 0.00000000 1.00000000
vn 0.00000000 0.00000000 1.00000000
vn 0.00000000 0.00000000 1.00000000
vn 0.00000000 0.00000000 1.00000000
vn 0.00000000 0.00000000 1.00000000
vn 0.00000000 0.00000000 1.00000000
vn 0.00000000 0.00000000 1.00000000
vn 0.00000000 0.00000000 1.00000000
vn 0.00000000 0.00000000 1.00000000
vn 0.00000000 0.00000000 1.00000000
vn 0.00000000 0.00000000 1.00000000
vn 0.00000000 0.00000000 1.00000000
vn 0.00000000 0.00000000 1.00000000
vn 0.00000000 0.00000000 1.00000000
vn 0.00000000 0.00000000 1.00000000
vn 0.00000000 0.00000000 1.00000000
vn 0.00000000 0.00000000 1.00000000
vn 0.00000000 0.00000000 1.00000000
vn 0.00000000 0.00000000 -1.00000000
vn 0.00000000 0.00000000 -1.00000000
vn 0.00000000 0.00000000 -1.00000000
vn 0.00000000 0.00000000 -1.00000000
vn 0.00000000 0.00000000 -1.00000000
vn 0.00000000 0.00000000 -1.00000000
vn 0.00000000 0.00000000 -1.00000000
vn 0.00000000 0.00000000 -1.00000000
vn 0.00000000 0.00000000 -1.00000000
vn 0.00000000 0.00000000 -1.00000000
vn 0.00000000 0.00000000 -1.00000000
vn 0.00000000 0.00000000 -1.00000000
vn 0.00000000 0.00000000 -1.00000000
vn 0.00000000 0.00000000 -1.00000000
vn 0.00000000 0.00000000 -1.00000000
vn 0.00000000 0.00000000 -1.00000000
vn 0.00000000 0.00000000 -1.00000000
vn 0.00000000 0.00000000 -1.00000000
vn 0.00000000 0.00000000 -1.00000000
vn 0.00000000 0.00000000 -1.00000000
vn 0.00000000 0.00000000 -1.00000000
vn 0.00000000 0.00000000 -1.00000000
vn 0.00000000 0.00000000 -1.00000000
vn 0.00000000 0.00000000 -1.00000000
vn 0.00000000 0.00000000 -1.00000000
vn 0.00000000 0.00000000 -1.00000000
vn 0.00000000 0.00000000 -1.00000000
vn 0.00000000 0.00000000 -1.00000000
vn 0.00000000 0.00000000 -1.00000000
vn 0.00000000 0.00000000 -1.00000000
vn 0.00000000 0.00000000 -1.00000000
vn 0.00000000 0.00000000 -1.00000000
vn 0.00000000 0.00000000 -1.00000000
vn 0.00000000 0.00000000 -1.00000000
vn 0.00000000 0.00000000 -1.00000000
vn 0.00000000 0.00000000 -1.00000000
vn 0.00000000 0.00000000 -1.00000000
vn 0.00000000 0.00000000 -1.00000000
vn 0.00000000 0.00000000 -1.00000000
vn 0.00000000 0.00000000 -1.00000000
vn 0.00000000 0.00000000 -1.00000000
vn 0.00000000 0.00000000 -1.00000000
vn 0.00000000 0.00000000 -1.00000000
vn 0.00000000 0.00000000 -1.00000000
vn 0.00000000 0.00000000 -1.00000000
vn 0.00000000 0.00000000 -1.00000000
vn 0.00000000 0.00000000 -1.00000000
vn 0.00000000 0.00000000 -1.00000000
vn -0.25881901 0.96592584 0.00000000
vn -0.25881901 0.96592584 0.00000000
vn 0.25881901 -0.96592584 0.00000000
vn 0.25881901 -0.96592584 0.00000000
vn -0.96592584 0.25881901 0.00000000
vn -0.96592584 0.25881901 0.00000000
vn 0.96592584 -0.25881901 0.00000000
vn 0.96592584 -0.25881901 0.00000000
vn 0.70710678 -0.70710678 0.00000000
vn 0.50000000 -0.86602540 0.00000000
vn 0.50000000 -0.86602540 0.00000000
vn 0.70710678 -0.70710678 0.00000000
vn -0.70710678 0.70710678 0.00000000
vn -0.70710678 0.70710678 0.00000000
vn -0.50000000 0.86602540 0.00000000
vn -0.50000000 0.86602540 0.00000000
vn 0.86602540 -0.50000000 0.00000000
vn 0.86602540 -0.50000000 0.00000000
vn -0.86602540 0.50000000 0.00000000
vn -0.86602540 0.50000000 0.00000000
vn 0.96592584 -0.25881901 0.00000000
vn 0.96592584 -0.25881901 0.00000000
vn -0.96592584 0.25881901 0.00000000
vn -0.96592584 0.25881901 0.00000000
vn 1.00000000 0.00000000 0.00000000
vn 1.00000000 0.00000000 0.00000000
vn -1.00000000 0.00000000 0.00000000
vn -1.00000000 0.00000000 0.00000000
vn 0.96592584 0.25881901 0.00000000
vn 0.96592584 0.25881901 0.00000000
vn -0.96592584 -0.25881901 0.00000000
vn -0.96592584 -0.25881901 0.00000000
vn 0.86602540 0.50000000 0.00000000
vn 0.86602540 0.50000000 0.00000000
vn -0.86602540 -0.50000000 0.00000000
vn -0.86602540 -0.50000000 0.00000000
vn 0.70710678 0.70710678 0.00000000
vn 0.70710678 0.70710678 0.00000000
vn -0.70710678 -0.70710678 0.00000000
vn -0.70710678 -0.70710678 0.00000000
vn 0.50000000 0.86602540 0.00000000
vn 0.50000000 0.86602540 0.00000000
vn -0.50000000 -0.86602540 0.00000000
vn -0.50000000 -0.86602540 0.00000000
vn 0.25881901 0.96592584 0.00000000
vn 0.25881901 0.96592584 0.00000000
vn -0.25881901 -0.96592584 0.00000000
vn -0.25881901 -0.96592584 0.00000000
vn 0.00000000 1.00000000 0.00000000
vn 0.00000000 1.00000000 0.00000000
vn 0.00000000 -1.00000000 0.00000000
vn 0.00000000 -1.00000000 0.00000000
vn -1.00000000 0.00000000 0.00000000
vn -1.00000000 0.00000000 0.00000000
vn 1.00000000 0.00000000 0.00000000
vn 1.00000000 0.00000000 0.00000000
vn -0.96592584 -0.25881901 0.00000000
vn -0.96592584 -0.25881901 0.00000000
vn 0.96592584 0.25881901 0.00000000
vn 0.96592584 0.25881901 0.00000000
vn -0.86602540 -0.50000000 0.00000000
vn -0.86602540 -0.50000000 0.00000000
vn 0.86602540 0.50000000 0.00000000
vn 0.86602540 0.50000000 0.00000000
vn -0.70710678 -0.70710678 0.00000000
vn -0.70710678 -0.70710678 0.00000000
vn 0.70710678 0.70710678 0.00000000
vn 0.70710678 0.70710678 0.00000000
vn -0.50000000 -0.86602540 0.00000000
vn -0.50000000 -0.86602540 0.00000000
vn 0.50000000 0.86602540 0.00000000
vn 0.50000000 0.86602540 0.00000000
vn -0.25881901 -0.96592584 0.00000000
vn -0.25881901 -0.96592584 0.00000000
vn 0.25881901 0.96592584 0.00000000
vn 0.25881901 0.96592584 0.00000000
vn 0.00000000 -1.00000000 0.00000000
vn 0.00000000 -1.00000000 0.00000000
vn 0.00000000 1.00000000 0.00000000
vn 0.00000000 1.00000000 0.00000000
vn 0.25881901 -0.96592584 0.00000000
vn 0.25881901 -0.96592584 0.00000000
vn -0.25881901 0.96592584 0.00000000
vn -0.25881901 0.96592584 0.00000000
f 1//1 2//2 3//3
f 2//2 1//1 4//4
f 5//5 6//6 7//7
f 8//8 7//7 6//6
f 2//2 9//9 3//3
f 9//9 2//2 10//10
f 11//11 7//7 12//12
f 8//8 12//12 7//7
f 13//13 14//14 15//15
f 14//14 13//13 16//16
f 16//16 13//13 17//17
f 16//16 17//17 18//18
f 18//18 17//17 19//19
f 19//19 17//17 20//20
f 19//19 20//20 21//21
f 21//21 20//20 22//22
f 22//22 20//20 23//23
f 22//22 23//23 24//24
f 24//24 23//23 25//25
f 24//24 25//25 26//26
f 26//26 25//25 27//27
f 26//26 27//27 28//28
f 28//28 27//27 29//29
f 29//29 27//27 30//30
f 29//29 30//30 31//31
f 31//31 30//30 32//32
f 31//31 32//32 33//33
f 33//33 32//32 34//34
f 33//33 34//34 35//35
f 35//35 34//34 36//36
f 35//35 36//36 37//37
f 37//37 36//36 38//38
f 16//16 39//39 40//40
f 39//39 16//16 18//18
f 40//40 39//39 41//41
f 40//40 41//41 42//42
f 40//40 42//42 43//43
f 43//43 42//42 44//44
f 43//43 44//44 45//45
f 45//45 44//44 46//46
f 45//45 46//46 47//47
f 47//47 46//46 48//48
f 47//47 48//48 49//49
f 47//47 49//49 50//50
f 50//50 49//49 51//51
f 50//50 51//51 52//52
f 52//52 51//51 53//53
f 52//52 53//53 54//54
f 54//54 53//53 55//55
f 54//54 55//55 56//56
f 56//56 55//55 57//57
f 56//56 57//57 38//38
f 56//56 38//38 36//36
f 56//56 36//36 58//58
f 56//56 58//58 59//59
f 59//59 58//58 60//60
f 61//61 62//62 63//63
f 63//63 62//62 64//64
f 62//62 65//65 64//64
f 65//65 66//66 64//64
f 66//66 67//67 64//64
f 67//67 68//68 64//64
f 64//64 68//68 69//69
f 68//68 70//70 69//69
f 69//69 70//70 71//71
f 70//70 72//72 71//71
f 71//71 72//72 73//73
f 72//72 74//74 73//73
f 73//73 74//74 75//75
f 74//74 76//76 75//75
f 76//76 77//77 75//75
f 75//75 77//77 78//78
f 77//77 79//79 78//78
f 78//78 79//79 80//80
f 79//79 81//81 80//80
f 80//80 81//81 82//82
f 81//81 83//83 82//82
f 83//83 84//84 82//82
f 85//85 86//86 84//84
f 82//82 84//84 86//86
f 66//66 65//65 87//87
f 87//87 65//65 88//88
f 65//65 89//89 88//88
f 88//88 89//89 90//90
f 89//89 91//91 90//90
f 90//90 91//91 92//92
f 91//91 93//93 92//92
f 92//92 93//93 94//94
f 93//93 95//95 94//94
f 94//94 95//95 96//96
f 96//96 95//95 97//97
f 95//95 98//98 97//97
f 97//97 98//98 99//99
f 98//98 100//100 99//99
f 99//99 100//100 101//101
f 100//100 102//102 101//101
f 101//101 102//102 103//103
f 103//103 102//102 104//104
f 102//102 105//105 104//104
f 104//104 105//105 85//85
f 85//85 105//105 86//86
f 105//105 106//106 86//86
f 86//86 106//106 107//107
f 108//108 107//107 106//106
f 109//109 4//4 1//1
f 4//4 109//109 110//110
f 111//111 112//112 5//5
f 6//6 5//5 112//112
f 10//10 113//113 9//9
f 113//113 10//10 114//114
f 115//115 11//11 116//116
f 12//12 116//116 11//11
f 117//117 118//118 119//119
f 118//118 117//117 120//120
f 121//121 122//122 123//123
f 124//124 123//123 122//122
f 117//117 125//125 120//120
f 125//125 117//117 126//126
f 127//127 122//122 128//128
f 121//121 128//128 122//122
f 126//126 129//129 125//125
f 129//129 126//126 130//130
f 131//131 127//127 132//132
f 128//128 132//132 127//127
f 130//130 133//133 129//129
f 133//133 130//130 134//134
f 135//135 131//131 136//136
f 132//132 136//136 131//131
f 134//134 137//137 133//133
f 137//137 134//134 138//138
f 139//139 135//135 140//140
f 136//136 140//140 135//135
f 138//138 141//141 137//137
f 141//141 138//138 142//142
f 143//143 139//139 144//144
f 140//140 144//144 139//139
f 142//142 145//145 141//141
f 145//145 142//142 146//146
f 147//147 143//143 148//148
f 144//144 148//148 143//143
f 145//145 149//149 150//150
f 149//149 145//145 146//146
f 147//147 148//148 151//151
f 152//152 151//151 148//148
f 150//150 153//153 154//154
f 153//153 150//150 149//149
f 151//151 152//152 155//155
f 156//156 155//155 152//152
f 154//154 157//157 158//158
f 157//157 154//154 153//153
f 155//155 156//156 159//159
f 160//160 159//159 156//156
f 158//158 110//110 109//109
f 110//110 158//158 157//157
f 159//159 160//160 111//111
f 112//112 111//111 160//160
f 114//114 161//161 113//113
f 161//161 114//114 162//162
f 163//163 115//115 164//164
f 116//116 164//164 115//115
f 162//162 165//165 161//161
f 165//165 162//162 166//166
f 167//167 163//163 168//168
f 164//164 168//168 163//163
f 166//166 169//169 165//165
f 169//169 166//166 170//170
f 171//171 167//167 172//172
f 168//168 172//172 167//167
f 170//170 173//173 169//169
f 173//173 170//170 174//174
f 175//175 171//171 176//176
f 172//172 176//176 171//171
f 177//177 173//173 174//174
f 173//173 177//177 178//178
f 179//179 180//180 176//176
f 175//175 176//176 180//180
f 181//181 178//178 177//177
f 178//178 181//181 182//182
f 183//183 184//184 179//179
f 180//180 179//179 184//184
f 185//185 182//182 181//181
f 182//182 185//185 186//186
f 187//187 188//188 183//183
f 184//184 183//183 188//188
f 189//189 186//186 185//185
f 186//186 189//189 190//190
f 191//191 192//192 187//187
f 188//188 187//187 192//192
f 119//119 190//190 189//189
f 190//190 119//119 118//118
f 123//123 124//124 191//191
f 192//192 191//191 124//124

