mtllib material.mtl
usemtl material_0_0
v -0.73336600 0.42058200 -0.03958200
v -0.73781900 0.41240700 -0.03707400
v -0.73336600 0.41438700 -0.04204700
v -0.73781900 0.41860300 -0.03460900
v -0.73781900 0.41860300 -0.03460900
v -0.73336600 0.42058200 -0.03958200
v -0.73781900 0.41240700 -0.03707400
v -0.73336600 0.41438700 -0.04204700
v -0.74073400 0.41006900 -0.03119900
v -0.74073400 0.41626500 -0.02873400
v -0.74073400 0.41626500 -0.02873400
v -0.74073400 0.41006900 -0.03119900
v -0.68924900 0.40932000 -0.02931400
v -0.68979300 0.40421900 -0.01649700
v -0.68861300 0.40675600 -0.02287200
v -0.69009500 0.40677700 -0.02292600
v -0.69069600 0.40919800 -0.02901000
v -0.69165800 0.41173500 -0.03538400
v -0.69297100 0.41147900 -0.03474200
v -0.69567600 0.41383700 -0.04066700
v -0.69676600 0.41346500 -0.03973200
v -0.70102900 0.41548400 -0.04480500
v -0.70182100 0.41502000 -0.04363900
v -0.70735100 0.41656200 -0.04751400
v -0.70779200 0.41603800 -0.04619700
v -0.71421300 0.41699800 -0.04861000
v -0.71427200 0.41645000 -0.04723300
v -0.72114700 0.41676300 -0.04801900
v -0.72082000 0.41622800 -0.04667400
v -0.72698900 0.41538600 -0.04456000
v -0.72767900 0.41587200 -0.04578000
v -0.73235900 0.41398400 -0.04103500
v -0.73656400 0.41211500 -0.03633800
v -0.73931800 0.40990700 -0.03079000
v -0.74043200 0.40751100 -0.02477000
v -0.69121000 0.40438100 -0.01690500
v -0.69270800 0.40188100 -0.01062200
v -0.69396300 0.40217300 -0.01135700
v -0.69716100 0.39990200 -0.00564800
v -0.69816800 0.40030400 -0.00666100
v -0.70284800 0.39841600 -0.00191500
v -0.70353900 0.39890200 -0.00313500
v -0.70938000 0.39752500 0.00032300
v -0.70970800 0.39806000 -0.00102100
v -0.71631400 0.39729000 0.00091400
v -0.71625500 0.39783800 -0.00046300
v -0.72273600 0.39825000 -0.00149900
v -0.72317600 0.39772600 -0.00018200
v -0.72870700 0.39926800 -0.00405700
v -0.72949900 0.39880400 -0.00289100
v -0.73376200 0.40082300 -0.00796400
v -0.73485100 0.40045100 -0.00702800
v -0.73755600 0.40280900 -0.01295400
v -0.73886900 0.40255300 -0.01231200
v -0.73983100 0.40509000 -0.01868600
v -0.74127800 0.40496900 -0.01838200
v -0.74191400 0.40753200 -0.02482400
v -0.74191400 0.40753200 -0.02482400
v -0.74127800 0.40496900 -0.01838200
v -0.74043200 0.40751100 -0.02477000
v -0.73983100 0.40509000 -0.01868600
v -0.73886900 0.40255300 -0.01231200
v -0.73755600 0.40280900 -0.01295400
v -0.73485100 0.40045100 -0.00702800
v -0.73376200 0.40082300 -0.00796400
v -0.72949900 0.39880400 -0.00289100
v -0.72870700 0.39926800 -0.00405700
v -0.72317600 0.39772600 -0.00018200
v -0.72273600 0.39825000 -0.00149900
v -0.71631400 0.39729000 0.00091400
v -0.71625500 0.39783800 -0.00046300
v -0.70970800 0.39806000 -0.00102100
v -0.70938000 0.39752500 0.00032300
v -0.70353900 0.39890200 -0.00313500
v -0.70284800 0.39841600 -0.00191500
v -0.69816800 0.40030400 -0.00666100
v -0.69716100 0.39990200 -0.00564800
v -0.69396300 0.40217300 -0.01135700
v -0.69270800 0.40188100 -0.01062200
v -0.69121000 0.40438100 -0.01690500
v -0.69009500 0.40677700 -0.02292600
v -0.68979300 0.40421900 -0.01649700
v -0.73931800 0.40990700 -0.03079000
v -0.73656400 0.41211500 -0.03633800
v -0.73235900 0.41398400 -0.04103500
v -0.72767900 0.41587200 -0.04578000
v -0.72698900 0.41538600 -0.04456000
v -0.72114700 0.41676300 -0.04801900
v -0.72082000 0.41622800 -0.04667400
v -0.71427200 0.41645000 -0.04723300
v -0.71421300 0.41699800 -0.04861000
v -0.70779200 0.41603800 -0.04619700
v -0.70735100 0.41656200 -0.04751400
v -0.70182100 0.41502000 -0.04363900
v -0.70102900 0.41548400 -0.04480500
v -0.69676600 0.41346500 -0.03973200
v -0.69567600 0.41383700 -0.04066700
v -0.69297100 0.41147900 -0.03474200
v -0.69165800 0.41173500 -0.03538400
v -0.69069600 0.40919800 -0.02901000
v -0.68924900 0.40932000 -0.02931400
v -0.68861300 0.40675600 -0.02287200
v -0.72767900 0.42206700 -0.04331500
v -0.72767900 0.42206700 -0.04331500
v -0.74191400 0.41372800 -0.02235900
v -0.74191400 0.41372800 -0.02235900
v -0.72114700 0.42295800 -0.04555300
v -0.72114700 0.42295800 -0.04555300
v -0.74127800 0.41116400 -0.01591600
v -0.74127800 0.41116400 -0.01591600
v -0.73886900 0.40874900 -0.00984700
v -0.73886900 0.40874900 -0.00984700
v -0.73485100 0.40664600 -0.00456300
v -0.73485100 0.40664600 -0.00456300
v -0.72949900 0.40500000 -0.00042600
v -0.72949900 0.40500000 -0.00042600
v -0.72317600 0.40392200 0.00228300
v -0.72317600 0.40392200 0.00228300
v -0.71631400 0.40348500 0.00338000
v -0.71631400 0.40348500 0.00338000
v -0.70938000 0.40372100 0.00278800
v -0.70938000 0.40372100 0.00278800
v -0.70284800 0.40461100 0.00055000
v -0.70284800 0.40461100 0.00055000
v -0.69716100 0.40609700 -0.00318300
v -0.69716100 0.40609700 -0.00318300
v -0.69270800 0.40807600 -0.00815600
v -0.69270800 0.40807600 -0.00815600
v -0.68979300 0.41041400 -0.01403100
v -0.68979300 0.41041400 -0.01403100
v -0.68861300 0.41295100 -0.02040700
v -0.68861300 0.41295100 -0.02040700
v -0.68924900 0.41551500 -0.02684900
v -0.68924900 0.41551500 -0.02684900
v -0.69165800 0.41793000 -0.03291800
v -0.69165800 0.41793000 -0.03291800
v -0.69567600 0.42003300 -0.03820200
v -0.69567600 0.42003300 -0.03820200
v -0.70102900 0.42167900 -0.04233900
v -0.70102900 0.42167900 -0.04233900
v -0.70735100 0.42275700 -0.04504800
v -0.70735100 0.42275700 -0.04504800
v -0.71421300 0.42319300 -0.04614500
v -0.71421300 0.42319300 -0.04614500
vn 0.67871302 -0.27154331 0.68235832
vn 0.62093256 0.48586687 0.61512286
vn 0.49834801 0.43138241 0.75203622
vn 0.84566407 -0.19733959 0.49589249
vn -0.84566407 0.19733959 -0.49589249
vn -0.67871302 0.27154331 -0.68235832
vn -0.62093256 -0.48586687 -0.61512286
vn -0.49834801 -0.43138241 -0.75203622
vn 0.70120162 0.55022581 0.45339591
vn 0.95498452 -0.10968750 0.27563241
vn -0.95498452 0.10968750 -0.27563241
vn -0.70120162 -0.55022581 -0.45339591
vn -0.71616877 0.57087917 0.40149628
vn -0.70120161 0.71130281 0.04862729
vn -0.73368488 0.64145529 0.22414640
vn 0.00000000 0.92913256 0.36974678
vn 0.00000000 0.92913256 0.36974678
vn -0.64984689 0.50438419 0.56859089
vn 0.00000000 0.92913256 0.36974678
vn -0.53923908 0.44650178 0.71404297
vn 0.00000000 0.92913256 0.36974678
vn -0.39188300 0.40117650 0.82794030
vn 0.00000000 0.92913256 0.36974678
vn -0.21782069 0.37149729 0.90252087
vn 0.00000000 0.92913256 0.36974678
vn -0.02891433 0.35948671 0.93270213
vn 0.00000000 0.92913256 0.36974678
vn 0.16196250 0.36596330 0.91642731
vn 0.00000000 0.92913256 0.36974678
vn 0.00000000 0.92913256 0.36974678
vn 0.34180192 0.39048552 0.85480554
vn 0.00000000 0.92913256 0.36974678
vn 0.00000000 0.92913256 0.36974678
vn 0.00000000 0.92913256 0.36974678
vn 0.00000000 0.92913256 0.36974678
vn 0.00000000 0.92913256 0.36974678
vn -0.62093259 0.77566178 -0.11309960
vn 0.00000000 0.92913256 0.36974678
vn -0.49834801 0.83014622 -0.25001301
vn 0.00000000 0.92913256 0.36974678
vn -0.34180190 0.87104311 -0.35278230
vn 0.00000000 0.92913256 0.36974678
vn -0.16196250 0.89556540 -0.41440410
vn 0.00000000 0.92913256 0.36974678
vn 0.02891433 0.90204193 -0.43067891
vn 0.00000000 0.92913256 0.36974678
vn 0.00000000 0.92913256 0.36974678
vn 0.21782071 0.89003134 -0.40049762
vn 0.00000000 0.92913256 0.36974678
vn 0.39188300 0.86035211 -0.32591710
vn 0.00000000 0.92913256 0.36974678
vn 0.53923909 0.81502688 -0.21201979
vn 0.00000000 0.92913256 0.36974678
vn 0.64984689 0.75714448 -0.06656766
vn 0.00000000 0.92913256 0.36974678
vn 0.71616879 0.69064939 0.10052700
vn 0.73368490 0.62007330 0.27787690
vn -0.73368490 -0.62007330 -0.27787690
vn -0.71616879 -0.69064939 -0.10052700
vn 0.00000000 -0.92913256 -0.36974678
vn 0.00000000 -0.92913256 -0.36974678
vn -0.64984689 -0.75714448 0.06656766
vn 0.00000000 -0.92913256 -0.36974678
vn -0.53923909 -0.81502688 0.21201979
vn 0.00000000 -0.92913256 -0.36974678
vn -0.39188300 -0.86035211 0.32591710
vn 0.00000000 -0.92913256 -0.36974678
vn -0.21782071 -0.89003134 0.40049762
vn 0.00000000 -0.92913256 -0.36974678
vn -0.02891433 -0.90204193 0.43067891
vn 0.00000000 -0.92913256 -0.36974678
vn 0.00000000 -0.92913256 -0.36974678
vn 0.16196250 -0.89556540 0.41440410
vn 0.00000000 -0.92913256 -0.36974678
vn 0.34180190 -0.87104311 0.35278230
vn 0.00000000 -0.92913256 -0.36974678
vn 0.49834801 -0.83014622 0.25001301
vn 0.00000000 -0.92913256 -0.36974678
vn 0.62093259 -0.77566178 0.11309960
vn 0.00000000 -0.92913256 -0.36974678
vn 0.00000000 -0.92913256 -0.36974678
vn 0.70120161 -0.71130281 -0.04862729
vn 0.00000000 -0.92913256 -0.36974678
vn 0.00000000 -0.92913256 -0.36974678
vn 0.00000000 -0.92913256 -0.36974678
vn -0.34180192 -0.39048552 -0.85480554
vn 0.00000000 -0.92913256 -0.36974678
vn -0.16196250 -0.36596330 -0.91642731
vn 0.00000000 -0.92913256 -0.36974678
vn 0.00000000 -0.92913256 -0.36974678
vn 0.02891433 -0.35948671 -0.93270213
vn 0.00000000 -0.92913256 -0.36974678
vn 0.21782069 -0.37149729 -0.90252087
vn 0.00000000 -0.92913256 -0.36974678
vn 0.39188300 -0.40117650 -0.82794030
vn 0.00000000 -0.92913256 -0.36974678
vn 0.53923908 -0.44650178 -0.71404297
vn 0.00000000 -0.92913256 -0.36974678
vn 0.64984689 -0.50438419 -0.56859089
vn 0.00000000 -0.92913256 -0.36974678
vn 0.71616877 -0.57087917 -0.40149628
vn 0.73368488 -0.64145529 -0.22414640
vn 0.46550880 -0.32724190 0.82232250
vn -0.46550880 0.32724190 -0.82232250
vn 0.99922434 -0.01456032 0.03658847
vn -0.99922434 0.01456032 -0.03658847
vn 0.22058090 -0.36063940 0.90624681
vn -0.22058090 0.36063940 -0.90624681
vn 0.97536868 0.08155908 -0.20494890
vn -0.97536868 -0.08155908 0.20494890
vn 0.88504323 0.17212041 -0.43251942
vn -0.88504323 -0.17212041 0.43251942
vn 0.73440359 0.25095190 -0.63061439
vn -0.73440359 -0.25095190 0.63061439
vn 0.53371552 0.31268161 -0.78573402
vn -0.53371552 -0.31268161 0.78573402
vn 0.29665561 0.35310241 -0.88730724
vn -0.29665561 -0.35310241 0.88730724
vn 0.03937917 0.36945999 -0.92841187
vn -0.03937917 -0.36945999 0.92841187
vn -0.22058090 0.36063940 -0.90624681
vn 0.22058090 -0.36063940 0.90624681
vn -0.46550880 0.32724190 -0.82232250
vn 0.46550880 -0.32724190 0.82232250
vn -0.67871302 0.27154331 -0.68235832
vn 0.67871302 -0.27154331 0.68235832
vn -0.84566407 0.19733959 -0.49589249
vn 0.84566407 -0.19733959 0.49589249
vn -0.95498452 0.10968750 -0.27563241
vn 0.95498452 -0.10968750 0.27563241
vn -0.99922434 0.01456032 -0.03658847
vn 0.99922434 -0.01456032 0.03658847
vn -0.97536868 -0.08155908 0.20494890
vn 0.97536868 0.08155908 -0.20494890
vn -0.88504323 -0.17212041 0.43251942
vn 0.88504323 0.17212041 -0.43251942
vn -0.73440359 -0.25095190 0.63061439
vn 0.73440359 0.25095190 -0.63061439
vn -0.53371552 -0.31268161 0.78573402
vn 0.53371552 0.31268161 -0.78573402
vn -0.29665561 -0.35310241 0.88730724
vn 0.29665561 0.35310241 -0.88730724
vn -0.03937917 -0.36945999 0.92841187
vn 0.03937917 0.36945999 -0.92841187
f 1//1 2//2 3//3
f 2//2 1//1 4//4
f 5//5 6//6 7//7
f 8//8 7//7 6//6
f 4//4 9//9 2//2
f 9//9 4//4 10//10
f 11//11 5//5 12//12
f 7//7 12//12 5//5
f 13//13 14//14 15//15
f 14//14 13//13 16//16
f 16//16 13//13 17//17
f 17//17 13//13 18//18
f 17//17 18//18 19//19
f 19//19 18//18 20//20
f 19//19 20//20 21//21
f 21//21 20//20 22//22
f 21//21 22//22 23//23
f 23//23 22//22 24//24
f 23//23 24//24 25//25
f 25//25 24//24 26//26
f 25//25 26//26 27//27
f 27//27 26//26 28//28
f 27//27 28//28 29//29
f 29//29 28//28 30//30
f 30//30 28//28 31//31
f 30//30 31//31 32//32
f 32//32 31//31 3//3
f 32//32 3//3 33//33
f 33//33 3//3 2//2
f 33//33 2//2 34//34
f 34//34 2//2 9//9
f 34//34 9//9 35//35
f 14//14 36//36 37//37
f 36//36 14//14 16//16
f 37//37 36//36 38//38
f 37//37 38//38 39//39
f 39//39 38//38 40//40
f 39//39 40//40 41//41
f 41//41 40//40 42//42
f 41//41 42//42 43//43
f 43//43 42//42 44//44
f 43//43 44//44 45//45
f 45//45 44//44 46//46
f 45//45 46//46 47//47
f 45//45 47//47 48//48
f 48//48 47//47 49//49
f 48//48 49//49 50//50
f 50//50 49//49 51//51
f 50//50 51//51 52//52
f 52//52 51//51 53//53
f 52//52 53//53 54//54
f 54//54 53//53 55//55
f 54//54 55//55 56//56
f 56//56 55//55 35//35
f 56//56 35//35 9//9
f 56//56 9//9 57//57
f 58//58 12//12 59//59
f 12//12 60//60 59//59
f 60//60 61//61 59//59
f 59//59 61//61 62//62
f 61//61 63//63 62//62
f 62//62 63//63 64//64
f 63//63 65//65 64//64
f 64//64 65//65 66//66
f 65//65 67//67 66//66
f 66//66 67//67 68//68
f 67//67 69//69 68//68
f 68//68 69//69 70//70
f 69//69 71//71 70//70
f 71//71 72//72 70//70
f 70//70 72//72 73//73
f 72//72 74//74 73//73
f 73//73 74//74 75//75
f 74//74 76//76 75//75
f 75//75 76//76 77//77
f 76//76 78//78 77//77
f 77//77 78//78 79//79
f 78//78 80//80 79//79
f 81//81 82//82 80//80
f 79//79 80//80 82//82
f 60//60 12//12 83//83
f 12//12 7//7 83//83
f 83//83 7//7 84//84
f 7//7 8//8 84//84
f 84//84 8//8 85//85
f 8//8 86//86 85//85
f 85//85 86//86 87//87
f 86//86 88//88 87//87
f 87//87 88//88 89//89
f 89//89 88//88 90//90
f 88//88 91//91 90//90
f 90//90 91//91 92//92
f 91//91 93//93 92//92
f 92//92 93//93 94//94
f 93//93 95//95 94//94
f 94//94 95//95 96//96
f 95//95 97//97 96//96
f 96//96 97//97 98//98
f 97//97 99//99 98//98
f 98//98 99//99 100//100
f 99//99 101//101 100//100
f 100//100 101//101 81//81
f 81//81 101//101 82//82
f 102//102 82//82 101//101
f 31//31 1//1 3//3
f 1//1 31//31 103//103
f 104//104 86//86 6//6
f 8//8 6//6 86//86
f 10//10 57//57 9//9
f 57//57 10//10 105//105
f 106//106 11//11 58//58
f 12//12 58//58 11//11
f 28//28 103//103 31//31
f 103//103 28//28 107//107
f 108//108 88//88 104//104
f 86//86 104//104 88//88
f 105//105 56//56 57//57
f 56//56 105//105 109//109
f 110//110 106//106 59//59
f 58//58 59//59 106//106
f 109//109 54//54 56//56
f 54//54 109//109 111//111
f 112//112 110//110 62//62
f 59//59 62//62 110//110
f 111//111 52//52 54//54
f 52//52 111//111 113//113
f 114//114 112//112 64//64
f 62//62 64//64 112//112
f 52//52 115//115 50//50
f 115//115 52//52 113//113
f 114//114 64//64 116//116
f 66//66 116//116 64//64
f 50//50 117//117 48//48
f 117//117 50//50 115//115
f 116//116 66//66 118//118
f 68//68 118//118 66//66
f 48//48 119//119 45//45
f 119//119 48//48 117//117
f 118//118 68//68 120//120
f 70//70 120//120 68//68
f 119//119 43//43 45//45
f 43//43 119//119 121//121
f 122//122 120//120 73//73
f 70//70 73//73 120//120
f 121//121 41//41 43//43
f 41//41 121//121 123//123
f 124//124 122//122 75//75
f 73//73 75//75 122//122
f 123//123 39//39 41//41
f 39//39 123//123 125//125
f 126//126 124//124 77//77
f 75//75 77//77 124//124
f 39//39 127//127 37//37
f 127//127 39//39 125//125
f 126//126 77//77 128//128
f 79//79 128//128 77//77
f 37//37 129//129 14//14
f 129//129 37//37 127//127
f 128//128 79//79 130//130
f 82//82 130//130 79//79
f 14//14 131//131 15//15
f 131//131 14//14 129//129
f 130//130 82//82 132//132
f 102//102 132//132 82//82
f 15//15 133//133 13//13
f 133//133 15//15 131//131
f 132//132 102//102 134//134
f 101//101 134//134 102//102
f 13//13 135//135 18//18
f 135//135 13//13 133//133
f 134//134 101//101 136//136
f 99//99 136//136 101//101
f 18//18 137//137 20//20
f 137//137 18//18 135//135
f 136//136 99//99 138//138
f 97//97 138//138 99//99
f 137//137 22//22 20//20
f 22//22 137//137 139//139
f 140//140 138//138 95//95
f 97//97 95//95 138//138
f 139//139 24//24 22//22
f 24//24 139//139 141//141
f 142//142 140//140 93//93
f 95//95 93//93 140//140
f 141//141 26//26 24//24
f 26//26 141//141 143//143
f 144//144 142//142 91//91
f 93//93 91//91 142//142
f 26//26 107//107 28//28
f 107//107 26//26 143//143
f 144//144 91//91 108//108
f 88//88 108//108 91//91

