mtllib material.mtl
usemtl material_0_0
v -0.72950200 -0.37653000 -0.44272300
v -0.70223500 -0.37944800 -0.43949000
v -0.71605900 -0.37979700 -0.44112900
v -0.71577700 -0.37712300 -0.44109600
v -0.72854200 -0.37402100 -0.44260900
v -0.74164700 -0.36987200 -0.44416300
v -0.74007500 -0.36769800 -0.44397700
v -0.75166600 -0.36027400 -0.44535100
v -0.74958900 -0.35858400 -0.44510500
v -0.75887800 -0.34839300 -0.44620600
v -0.75643700 -0.34730200 -0.44591700
v -0.76279000 -0.33503600 -0.44667000
v -0.76015200 -0.33461900 -0.44635700
v -0.76313600 -0.32111500 -0.44671100
v -0.76048100 -0.32140000 -0.44639600
v -0.75740000 -0.30854500 -0.44603100
v -0.75989200 -0.30757900 -0.44632700
v -0.75112100 -0.29693200 -0.44528700
v -0.75328000 -0.29534900 -0.44554300
v -0.74207100 -0.28735100 -0.44421400
v -0.74375000 -0.28525900 -0.44441300
v -0.73086700 -0.28045500 -0.44288500
v -0.73195100 -0.27799700 -0.44301400
v -0.71827200 -0.27671400 -0.44139200
v -0.71868700 -0.27405700 -0.44144100
v -0.70514500 -0.27638300 -0.43983500
v -0.70265000 -0.37679200 -0.43954000
v -0.68897200 -0.37550900 -0.43791800
v -0.69005500 -0.37305100 -0.43804600
v -0.67717300 -0.36824700 -0.43651900
v -0.67885100 -0.36615500 -0.43671800
v -0.66764200 -0.35815700 -0.43538900
v -0.66980100 -0.35657400 -0.43564500
v -0.66103000 -0.34592700 -0.43460500
v -0.66352200 -0.34496000 -0.43490000
v -0.65778600 -0.33239000 -0.43422000
v -0.66044200 -0.33210600 -0.43453500
v -0.65813200 -0.31846900 -0.43426100
v -0.66077000 -0.31888700 -0.43457400
v -0.66448500 -0.30620400 -0.43501400
v -0.66204400 -0.30511300 -0.43472500
v -0.67133300 -0.29492100 -0.43582600
v -0.66925600 -0.29323100 -0.43558000
v -0.68084800 -0.28580800 -0.43695500
v -0.67927600 -0.28363400 -0.43676800
v -0.69238100 -0.27948500 -0.43832200
v -0.69142100 -0.27697500 -0.43820800
v -0.70486300 -0.27370900 -0.43980200
v -0.75910700 -0.30757900 -0.45294800
v -0.76313600 -0.32111500 -0.44671100
v -0.76235100 -0.32111500 -0.45333300
v -0.75989200 -0.30757900 -0.44632700
v -0.75249500 -0.29534900 -0.45216400
v -0.75328000 -0.29534900 -0.44554300
v -0.74296500 -0.28525900 -0.45103400
v -0.74375000 -0.28525900 -0.44441300
v -0.73195100 -0.27799700 -0.44301400
v -0.73116600 -0.27799700 -0.44963500
v -0.71868700 -0.27405700 -0.44144100
v -0.71790200 -0.27405700 -0.44806300
v -0.70486300 -0.27370900 -0.43980200
v -0.70407800 -0.27370900 -0.44642300
v -0.69142100 -0.27697500 -0.43820800
v -0.69063500 -0.27697500 -0.44483000
v -0.67927600 -0.28363400 -0.43676800
v -0.67849000 -0.28363400 -0.44339000
v -0.66925600 -0.29323100 -0.43558000
v -0.66847100 -0.29323100 -0.44220200
v -0.66125900 -0.30511300 -0.44134600
v -0.66204400 -0.30511300 -0.43472500
v -0.65734700 -0.31846900 -0.44088300
v -0.65813200 -0.31846900 -0.43426100
v -0.65700100 -0.33239000 -0.44084200
v -0.65778600 -0.33239000 -0.43422000
v -0.66103000 -0.34592700 -0.43460500
v -0.66024500 -0.34592700 -0.44122600
v -0.66764200 -0.35815700 -0.43538900
v -0.66685700 -0.35815700 -0.44201000
v -0.67717300 -0.36824700 -0.43651900
v -0.67638800 -0.36824700 -0.44314000
v -0.68818600 -0.37550900 -0.44453900
v -0.68897200 -0.37550900 -0.43791800
v -0.70145000 -0.37944800 -0.44611200
v -0.70223500 -0.37944800 -0.43949000
v -0.71527400 -0.37979700 -0.44775100
v -0.71605900 -0.37979700 -0.44112900
v -0.72871700 -0.37653000 -0.44934500
v -0.72950200 -0.37653000 -0.44272300
v -0.74086200 -0.36987200 -0.45078500
v -0.74164700 -0.36987200 -0.44416300
v -0.75088100 -0.36027400 -0.45197300
v -0.75166600 -0.36027400 -0.44535100
v -0.75887800 -0.34839300 -0.44620600
v -0.75809300 -0.34839300 -0.45282800
v -0.76279000 -0.33503600 -0.44667000
v -0.76200500 -0.33503600 -0.45329200
vn 0.11774310 0.00000000 -0.99304409
vn 0.11774310 0.00000000 -0.99304409
vn 0.11774310 0.00000000 -0.99304409
vn 0.11774310 0.00000000 -0.99304409
vn 0.11774310 0.00000000 -0.99304409
vn 0.11774310 0.00000000 -0.99304409
vn 0.11774310 0.00000000 -0.99304409
vn 0.11774310 0.00000000 -0.99304409
vn 0.11774310 0.00000000 -0.99304409
vn 0.11774310 0.00000000 -0.99304409
vn 0.11774310 0.00000000 -0.99304409
vn 0.11774310 0.00000000 -0.99304409
vn 0.11774310 0.00000000 -0.99304409
vn 0.11774310 0.00000000 -0.99304409
vn 0.11774310 0.00000000 -0.99304409
vn 0.11774310 0.00000000 -0.99304409
vn 0.11774310 0.00000000 -0.99304409
vn 0.11774310 0.00000000 -0.99304409
vn 0.11774310 0.00000000 -0.99304409
vn 0.11774310 0.00000000 -0.99304409
vn 0.11774310 0.00000000 -0.99304409
vn 0.11774310 0.00000000 -0.99304409
vn 0.11774310 0.00000000 -0.99304409
vn 0.11774310 0.00000000 -0.99304409
vn 0.11774310 0.00000000 -0.99304409
vn 0.11774310 0.00000000 -0.99304409
vn 0.11774310 0.00000000 -0.99304409
vn 0.11774310 0.00000000 -0.99304409
vn 0.11774310 0.00000000 -0.99304409
vn 0.11774310 0.00000000 -0.99304409
vn 0.11774310 0.00000000 -0.99304409
vn 0.11774310 0.00000000 -0.99304409
vn 0.11774310 0.00000000 -0.99304409
vn 0.11774310 0.00000000 -0.99304409
vn 0.11774310 0.00000000 -0.99304409
vn 0.11774310 0.00000000 -0.99304409
vn 0.11774310 0.00000000 -0.99304409
vn 0.11774310 0.00000000 -0.99304409
vn 0.11774310 0.00000000 -0.99304409
vn 0.11774310 0.00000000 -0.99304409
vn 0.11774310 0.00000000 -0.99304409
vn 0.11774310 0.00000000 -0.99304409
vn 0.11774310 0.00000000 -0.99304409
vn 0.11774310 0.00000000 -0.99304409
vn 0.11774310 0.00000000 -0.99304409
vn 0.11774310 0.00000000 -0.99304409
vn 0.11774310 0.00000000 -0.99304409
vn 0.11774310 0.00000000 -0.99304409
vn 0.92667395 -0.35944842 0.10987371
vn 0.98748326 -0.10567970 0.11708380
vn 0.98748326 -0.10567970 0.11708380
vn 0.92667395 -0.35944842 0.10987371
vn 0.80271330 -0.58872140 0.09517600
vn 0.80271330 -0.58872140 0.09517600
vn 0.62404912 -0.77787393 0.07399217
vn 0.62404912 -0.77787393 0.07399217
vn 0.40285699 -0.91401568 0.04776589
vn 0.40285699 -0.91401568 0.04776589
vn 0.15421080 -0.98786877 0.01828445
vn 0.15421080 -0.98786877 0.01828445
vn -0.10494460 -0.99440022 -0.01244305
vn -0.10494460 -0.99440022 -0.01244305
vn -0.35694812 -0.93316496 -0.04232258
vn -0.35694812 -0.93316496 -0.04232258
vn -0.58462631 -0.80833601 -0.06931789
vn -0.58462631 -0.80833601 -0.06931789
vn -0.77246313 -0.62842033 -0.09158930
vn -0.77246313 -0.62842033 -0.09158930
vn -0.90765789 -0.40567880 -0.10761910
vn -0.90765789 -0.40567880 -0.10761910
vn -0.98099724 -0.15529101 -0.11631471
vn -0.98099724 -0.15529101 -0.11631471
vn -0.98748326 0.10567970 -0.11708380
vn -0.98748326 0.10567970 -0.11708380
vn -0.92667395 0.35944842 -0.10987371
vn -0.92667395 0.35944842 -0.10987371
vn -0.80271330 0.58872140 -0.09517600
vn -0.80271330 0.58872140 -0.09517600
vn -0.62404912 0.77787393 -0.07399217
vn -0.62404912 0.77787393 -0.07399217
vn -0.40285699 0.91401568 -0.04776589
vn -0.40285699 0.91401568 -0.04776589
vn -0.15421080 0.98786877 -0.01828445
vn -0.15421080 0.98786877 -0.01828445
vn 0.10494460 0.99440022 0.01244305
vn 0.10494460 0.99440022 0.01244305
vn 0.35694812 0.93316496 0.04232258
vn 0.35694812 0.93316496 0.04232258
vn 0.58462631 0.80833601 0.06931789
vn 0.58462631 0.80833601 0.06931789
vn 0.77246313 0.62842033 0.09158930
vn 0.77246313 0.62842033 0.09158930
vn 0.90765789 0.40567880 0.10761910
vn 0.90765789 0.40567880 0.10761910
vn 0.98099724 0.15529101 0.11631471
vn 0.98099724 0.15529101 0.11631471
f 1//1 2//2 3//3
f 2//2 1//1 4//4
f 4//4 1//1 5//5
f 5//5 1//1 6//6
f 5//5 6//6 7//7
f 7//7 6//6 8//8
f 7//7 8//8 9//9
f 9//9 8//8 10//10
f 9//9 10//10 11//11
f 11//11 10//10 12//12
f 11//11 12//12 13//13
f 13//13 12//12 14//14
f 13//13 14//14 15//15
f 15//15 14//14 16//16
f 16//16 14//14 17//17
f 16//16 17//17 18//18
f 18//18 17//17 19//19
f 18//18 19//19 20//20
f 20//20 19//19 21//21
f 20//20 21//21 22//22
f 22//22 21//21 23//23
f 22//22 23//23 24//24
f 24//24 23//23 25//25
f 24//24 25//25 26//26
f 2//2 27//27 28//28
f 27//27 2//2 4//4
f 28//28 27//27 29//29
f 28//28 29//29 30//30
f 30//30 29//29 31//31
f 30//30 31//31 32//32
f 32//32 31//31 33//33
f 32//32 33//33 34//34
f 34//34 33//33 35//35
f 34//34 35//35 36//36
f 36//36 35//35 37//37
f 36//36 37//37 38//38
f 38//38 37//37 39//39
f 38//38 39//39 40//40
f 38//38 40//40 41//41
f 41//41 40//40 42//42
f 41//41 42//42 43//43
f 43//43 42//42 44//44
f 43//43 44//44 45//45
f 45//45 44//44 46//46
f 45//45 46//46 47//47
f 47//47 46//46 26//26
f 47//47 26//26 48//48
f 48//48 26//26 25//25
f 49//49 50//50 51//51
f 50//50 49//49 52//52
f 53//53 52//52 49//49
f 52//52 53//53 54//54
f 55//55 54//54 53//53
f 54//54 55//55 56//56
f 57//57 55//55 58//58
f 55//55 57//57 56//56
f 59//59 58//58 60//60
f 58//58 59//59 57//57
f 61//61 60//60 62//62
f 60//60 61//61 59//59
f 63//63 62//62 64//64
f 62//62 63//63 61//61
f 65//65 64//64 66//66
f 64//64 65//65 63//63
f 67//67 66//66 68//68
f 66//66 67//67 65//65
f 69//69 67//67 68//68
f 67//67 69//69 70//70
f 71//71 70//70 69//69
f 70//70 71//71 72//72
f 73//73 72//72 71//71
f 72//72 73//73 74//74
f 75//75 73//73 76//76
f 73//73 75//75 74//74
f 77//77 76//76 78//78
f 76//76 77//77 75//75
f 79//79 78//78 80//80
f 78//78 79//79 77//77
f 81//81 79//79 80//80
f 79//79 81//81 82//82
f 83//83 82//82 81//81
f 82//82 83//83 84//84
f 85//85 84//84 83//83
f 84//84 85//85 86//86
f 87//87 86//86 85//85
f 86//86 87//87 88//88
f 89//89 88//88 87//87
f 88//88 89//89 90//90
f 91//91 90//90 89//89
f 90//90 91//91 92//92
f 93//93 91//91 94//94
f 91//91 93//93 92//92
f 95//95 94//94 96//96
f 94//94 95//95 93//93
f 50//50 96//96 51//51
f 96//96 50//50 95//95

