mtllib material.mtl
usemtl material_0_0
v -0.54708500 0.38749400 0.04518300
v -0.54760400 0.38802200 0.04516400
v -0.56888100 0.38781200 0.04438500
v -0.54708500 0.39229300 0.04518300
v -0.54760400 0.39227300 0.04516400
v -0.54768600 0.39331700 0.04516100
v -0.54717100 0.39339900 0.04518000
v -0.54793000 0.39433800 0.04515200
v -0.54743400 0.39449900 0.04517000
v -0.54833000 0.39531100 0.04513700
v -0.54786500 0.39554600 0.04515400
v -0.54887700 0.39621100 0.04511700
v -0.54845400 0.39651600 0.04513300
v -0.54955600 0.39701700 0.04509200
v -0.54918500 0.39738300 0.04510600
v -0.55035100 0.39770800 0.04506300
v -0.55004100 0.39812700 0.04507500
v -0.55124200 0.39826800 0.04503100
v -0.55100100 0.39873000 0.04504000
v -0.55220800 0.39868200 0.04499500
v -0.55322500 0.39894100 0.04495800
v -0.55204100 0.39917600 0.04500100
v -0.55426800 0.39903900 0.04492000
v -0.56169900 0.39914700 0.04464800
v -0.56836200 0.38832400 0.04440400
v -0.56888100 0.39259600 0.04438500
v -0.56836200 0.39257500 0.04440400
v -0.56828000 0.39361800 0.04440700
v -0.56879500 0.39369900 0.04438800
v -0.56803600 0.39463100 0.04441600
v -0.56853100 0.39479300 0.04439800
v -0.56763500 0.39559200 0.04443000
v -0.56809900 0.39583000 0.04441300
v -0.56708900 0.39647600 0.04445100
v -0.56750900 0.39678500 0.04443500
v -0.56641000 0.39726200 0.04447500
v -0.56677600 0.39763400 0.04446200
v -0.56561500 0.39793000 0.04450400
v -0.56591700 0.39835500 0.04449300
v -0.56472300 0.39846400 0.04453700
v -0.56495500 0.39893100 0.04452800
v -0.56375800 0.39885100 0.04457200
v -0.56274100 0.39908000 0.04461000
v -0.56391200 0.39934800 0.04456700
v -0.55313600 0.39945500 0.04496100
v -0.56281500 0.39959600 0.04460700
v -0.55423900 0.39955800 0.04492100
v -0.56171100 0.39966700 0.04464700
v -0.56171100 0.39966700 0.04464700
v -0.55423900 0.39955800 0.04492100
v -0.56281500 0.39959600 0.04460700
v -0.55313600 0.39945500 0.04496100
v -0.56391200 0.39934800 0.04456700
v -0.55204100 0.39917600 0.04500100
v -0.56169900 0.39914700 0.04464800
v -0.56274100 0.39908000 0.04461000
v -0.56495500 0.39893100 0.04452800
v -0.56375800 0.39885100 0.04457200
v -0.56472300 0.39846400 0.04453700
v -0.56591700 0.39835500 0.04449300
v -0.56561500 0.39793000 0.04450400
v -0.56677600 0.39763400 0.04446200
v -0.56641000 0.39726200 0.04447500
v -0.56750900 0.39678500 0.04443500
v -0.56708900 0.39647600 0.04445100
v -0.56809900 0.39583000 0.04441300
v -0.56763500 0.39559200 0.04443000
v -0.56853100 0.39479300 0.04439800
v -0.56803600 0.39463100 0.04441600
v -0.56879500 0.39369900 0.04438800
v -0.56828000 0.39361800 0.04440700
v -0.56888100 0.39259600 0.04438500
v -0.56836200 0.39257500 0.04440400
v -0.56836200 0.38832400 0.04440400
v -0.54760400 0.38802200 0.04516400
v -0.56888100 0.38781200 0.04438500
v -0.55426800 0.39903900 0.04492000
v -0.55322500 0.39894100 0.04495800
v -0.55100100 0.39873000 0.04504000
v -0.55220800 0.39868200 0.04499500
v -0.55124200 0.39826800 0.04503100
v -0.55004100 0.39812700 0.04507500
v -0.55035100 0.39770800 0.04506300
v -0.54918500 0.39738300 0.04510600
v -0.54955600 0.39701700 0.04509200
v -0.54845400 0.39651600 0.04513300
v -0.54887700 0.39621100 0.04511700
v -0.54786500 0.39554600 0.04515400
v -0.54833000 0.39531100 0.04513700
v -0.54743400 0.39449900 0.04517000
v -0.54793000 0.39433800 0.04515200
v -0.54717100 0.39339900 0.04518000
v -0.54768600 0.39331700 0.04516100
v -0.54708500 0.39229300 0.04518300
v -0.54760400 0.39227300 0.04516400
v -0.54708500 0.38749400 0.04518300
v -0.56809900 0.39583000 0.04441300
v -0.56862900 0.39479300 0.04706300
v -0.56853100 0.39479300 0.04439800
v -0.56819700 0.39583000 0.04707900
v -0.56819700 0.39583000 0.04707900
v -0.56809900 0.39583000 0.04441300
v -0.56862900 0.39479300 0.04706300
v -0.56853100 0.39479300 0.04439800
v -0.56889200 0.39369900 0.04705300
v -0.56879500 0.39369900 0.04438800
v -0.56889200 0.39369900 0.04705300
v -0.56879500 0.39369900 0.04438800
v -0.56897900 0.39259600 0.04705000
v -0.56888100 0.39259600 0.04438500
v -0.56897900 0.39259600 0.04705000
v -0.56888100 0.39259600 0.04438500
v -0.56888100 0.38781200 0.04438500
v -0.56897900 0.38781200 0.04705000
v -0.56897900 0.38781200 0.04705000
v -0.56888100 0.38781200 0.04438500
v -0.56888100 0.38781200 0.04438500
v -0.54718200 0.38749400 0.04784800
v -0.54708500 0.38749400 0.04518300
v -0.56897900 0.38781200 0.04705000
v -0.56897900 0.38781200 0.04705000
v -0.56888100 0.38781200 0.04438500
v -0.54718200 0.38749400 0.04784800
v -0.54708500 0.38749400 0.04518300
v -0.54718200 0.38749400 0.04784800
v -0.54708500 0.39229300 0.04518300
v -0.54708500 0.38749400 0.04518300
v -0.54718200 0.39229300 0.04784800
v -0.54718200 0.39229300 0.04784800
v -0.54718200 0.38749400 0.04784800
v -0.54708500 0.39229300 0.04518300
v -0.54708500 0.38749400 0.04518300
v -0.54726900 0.39339900 0.04784500
v -0.54717100 0.39339900 0.04518000
v -0.54726900 0.39339900 0.04784500
v -0.54717100 0.39339900 0.04518000
v -0.54753200 0.39449900 0.04783500
v -0.54743400 0.39449900 0.04517000
v -0.54753200 0.39449900 0.04783500
v -0.54743400 0.39449900 0.04517000
v -0.54796300 0.39554600 0.04782000
v -0.54786500 0.39554600 0.04515400
v -0.54796300 0.39554600 0.04782000
v -0.54786500 0.39554600 0.04515400
v -0.54855100 0.39651600 0.04779800
v -0.54845400 0.39651600 0.04513300
v -0.54855100 0.39651600 0.04779800
v -0.54845400 0.39651600 0.04513300
v -0.54928200 0.39738300 0.04777100
v -0.54918500 0.39738300 0.04510600
v -0.54928200 0.39738300 0.04777100
v -0.54918500 0.39738300 0.04510600
v -0.55004100 0.39812700 0.04507500
v -0.55013800 0.39812700 0.04774000
v -0.55013800 0.39812700 0.04774000
v -0.55004100 0.39812700 0.04507500
v -0.55100100 0.39873000 0.04504000
v -0.55109800 0.39873000 0.04770500
v -0.55109800 0.39873000 0.04770500
v -0.55100100 0.39873000 0.04504000
v -0.55204100 0.39917600 0.04500100
v -0.55213800 0.39917600 0.04766700
v -0.55213800 0.39917600 0.04766700
v -0.55204100 0.39917600 0.04500100
v -0.55313600 0.39945500 0.04496100
v -0.55323400 0.39945500 0.04762700
v -0.55323400 0.39945500 0.04762700
v -0.55313600 0.39945500 0.04496100
v -0.55423900 0.39955800 0.04492100
v -0.55433700 0.39955800 0.04758600
v -0.55433700 0.39955800 0.04758600
v -0.55423900 0.39955800 0.04492100
v -0.56171100 0.39966700 0.04464700
v -0.56180900 0.39966700 0.04731300
v -0.56180900 0.39966700 0.04731300
v -0.56171100 0.39966700 0.04464700
v -0.56281500 0.39959600 0.04460700
v -0.56291300 0.39959600 0.04727200
v -0.56291300 0.39959600 0.04727200
v -0.56281500 0.39959600 0.04460700
v -0.56391200 0.39934800 0.04456700
v -0.56401000 0.39934800 0.04723200
v -0.56401000 0.39934800 0.04723200
v -0.56391200 0.39934800 0.04456700
v -0.56495500 0.39893100 0.04452800
v -0.56505200 0.39893100 0.04719400
v -0.56505200 0.39893100 0.04719400
v -0.56495500 0.39893100 0.04452800
v -0.56591700 0.39835500 0.04449300
v -0.56601500 0.39835500 0.04715900
v -0.56601500 0.39835500 0.04715900
v -0.56591700 0.39835500 0.04449300
v -0.56677600 0.39763400 0.04446200
v -0.56687400 0.39763400 0.04712700
v -0.56687400 0.39763400 0.04712700
v -0.56677600 0.39763400 0.04446200
v -0.56760700 0.39678500 0.04710000
v -0.56750900 0.39678500 0.04443500
v -0.56760700 0.39678500 0.04710000
v -0.56750900 0.39678500 0.04443500
vn -0.03659235 0.00000000 0.99933028
vn -0.03659235 0.00000000 0.99933028
vn -0.03659235 0.00000000 0.99933028
vn -0.03659235 0.00000000 0.99933028
vn -0.03659235 0.00000000 0.99933028
vn -0.03659235 0.00000000 0.99933028
vn -0.03659235 0.00000000 0.99933028
vn -0.03659235 0.00000000 0.99933028
vn -0.03659235 0.00000000 0.99933028
vn -0.03659235 0.00000000 0.99933028
vn -0.03659235 0.00000000 0.99933028
vn -0.03659235 0.00000000 0.99933028
vn -0.03659235 0.00000000 0.99933028
vn -0.03659235 0.00000000 0.99933028
vn -0.03659235 0.00000000 0.99933028
vn -0.03659235 0.00000000 0.99933028
vn -0.03659235 0.00000000 0.99933028
vn -0.03659235 0.00000000 0.99933028
vn -0.03659235 0.00000000 0.99933028
vn -0.03659235 0.00000000 0.99933028
vn -0.03659235 0.00000000 0.99933028
vn -0.03659235 0.00000000 0.99933028
vn -0.03659235 0.00000000 0.99933028
vn -0.03659235 0.00000000 0.99933028
vn -0.03659235 0.00000000 0.99933028
vn -0.03659235 0.00000000 0.99933028
vn -0.03659235 0.00000000 0.99933028
vn -0.03659235 0.00000000 0.99933028
vn -0.03659235 0.00000000 0.99933028
vn -0.03659235 0.00000000 0.99933028
vn -0.03659235 0.00000000 0.99933028
vn -0.03659235 0.00000000 0.99933028
vn -0.03659235 0.00000000 0.99933028
vn -0.03659235 0.00000000 0.99933028
vn -0.03659235 0.00000000 0.99933028
vn -0.03659235 0.00000000 0.99933028
vn -0.03659235 0.00000000 0.99933028
vn -0.03659235 0.00000000 0.99933028
vn -0.03659235 0.00000000 0.99933028
vn -0.03659235 0.00000000 0.99933028
vn -0.03659235 0.00000000 0.99933028
vn -0.03659235 0.00000000 0.99933028
vn -0.03659235 0.00000000 0.99933028
vn -0.03659235 0.00000000 0.99933028
vn -0.03659235 0.00000000 0.99933028
vn -0.03659235 0.00000000 0.99933028
vn -0.03659235 0.00000000 0.99933028
vn -0.03659235 0.00000000 0.99933028
vn 0.03659235 0.00000000 -0.99933028
vn 0.03659235 0.00000000 -0.99933028
vn 0.03659235 0.00000000 -0.99933028
vn 0.03659235 0.00000000 -0.99933028
vn 0.03659235 0.00000000 -0.99933028
vn 0.03659235 0.00000000 -0.99933028
vn 0.03659235 0.00000000 -0.99933028
vn 0.03659235 0.00000000 -0.99933028
vn 0.03659235 0.00000000 -0.99933028
vn 0.03659235 0.00000000 -0.99933028
vn 0.03659235 0.00000000 -0.99933028
vn 0.03659235 0.00000000 -0.99933028
vn 0.03659235 0.00000000 -0.99933028
vn 0.03659235 0.00000000 -0.99933028
vn 0.03659235 0.00000000 -0.99933028
vn 0.03659235 0.00000000 -0.99933028
vn 0.03659235 0.00000000 -0.99933028
vn 0.03659235 0.00000000 -0.99933028
vn 0.03659235 0.00000000 -0.99933028
vn 0.03659235 0.00000000 -0.99933028
vn 0.03659235 0.00000000 -0.99933028
vn 0.03659235 0.00000000 -0.99933028
vn 0.03659235 0.00000000 -0.99933028
vn 0.03659235 0.00000000 -0.99933028
vn 0.03659235 0.00000000 -0.99933028
vn 0.03659235 0.00000000 -0.99933028
vn 0.03659235 0.00000000 -0.99933028
vn 0.03659235 0.00000000 -0.99933028
vn 0.03659235 0.00000000 -0.99933028
vn 0.03659235 0.00000000 -0.99933028
vn 0.03659235 0.00000000 -0.99933028
vn 0.03659235 0.00000000 -0.99933028
vn 0.03659235 0.00000000 -0.99933028
vn 0.03659235 0.00000000 -0.99933028
vn 0.03659235 0.00000000 -0.99933028
vn 0.03659235 0.00000000 -0.99933028
vn 0.03659235 0.00000000 -0.99933028
vn 0.03659235 0.00000000 -0.99933028
vn 0.03659235 0.00000000 -0.99933028
vn 0.03659235 0.00000000 -0.99933028
vn 0.03659235 0.00000000 -0.99933028
vn 0.03659235 0.00000000 -0.99933028
vn 0.03659235 0.00000000 -0.99933028
vn 0.03659235 0.00000000 -0.99933028
vn 0.03659235 0.00000000 -0.99933028
vn 0.03659235 0.00000000 -0.99933028
vn 0.03659235 0.00000000 -0.99933028
vn 0.03659235 0.00000000 -0.99933028
vn 0.88903122 -0.45668781 0.03255354
vn 0.94997426 -0.31038509 0.03478509
vn 0.94997426 -0.31038509 0.03478509
vn 0.88903122 -0.45668781 0.03255354
vn -0.88903122 0.45668781 -0.03255354
vn -0.88903122 0.45668781 -0.03255354
vn -0.94997426 0.31038509 -0.03478509
vn -0.94997426 0.31038509 -0.03478509
vn 0.98696007 -0.15685589 0.03613939
vn 0.98696007 -0.15685589 0.03613939
vn -0.98696007 0.15685589 -0.03613939
vn -0.98696007 0.15685589 -0.03613939
vn 0.99855823 -0.03930050 0.03656408
vn 0.99855823 -0.03930050 0.03656408
vn -0.99855823 0.03930050 -0.03656408
vn -0.99855823 0.03930050 -0.03656408
vn 0.99933028 0.00000000 0.03659235
vn 0.99933028 0.00000000 0.03659235
vn -0.99933028 0.00000000 -0.03659235
vn -0.99933028 0.00000000 -0.03659235
vn 0.01455057 0.99989399 0.00053280
vn 0.01455057 0.99989399 0.00053280
vn 0.01455057 0.99989399 0.00053280
vn 0.01455057 0.99989399 0.00053280
vn -0.01455057 -0.99989399 -0.00053280
vn -0.01455057 -0.99989399 -0.00053280
vn -0.01455057 -0.99989399 -0.00053280
vn -0.01455057 -0.99989399 -0.00053280
vn -0.99933028 0.00000000 -0.03659235
vn -0.99856175 -0.03921095 -0.03656421
vn -0.99933028 0.00000000 -0.03659235
vn -0.99856175 -0.03921095 -0.03656421
vn 0.99856175 0.03921095 0.03656421
vn 0.99933028 0.00000000 0.03659235
vn 0.99856175 0.03921095 0.03656421
vn 0.99933028 0.00000000 0.03659235
vn -0.98709810 -0.15598370 -0.03614444
vn -0.98709810 -0.15598370 -0.03614444
vn 0.98709810 0.15598370 0.03614444
vn 0.98709810 0.15598370 0.03614444
vn -0.95087767 -0.30760259 -0.03481817
vn -0.95087767 -0.30760259 -0.03481817
vn 0.95087767 0.30760259 0.03481817
vn 0.95087767 0.30760259 0.03481817
vn -0.89180183 -0.45124622 -0.03265499
vn -0.89180183 -0.45124622 -0.03265499
vn 0.89180183 0.45124622 0.03265499
vn 0.89180183 0.45124622 0.03265499
vn -0.81144463 -0.58367352 -0.02971256
vn -0.81144463 -0.58367352 -0.02971256
vn 0.81144463 0.58367352 0.02971256
vn 0.81144463 0.58367352 0.02971256
vn -0.71175899 -0.70194009 -0.02606239
vn -0.71175899 -0.70194009 -0.02606239
vn 0.71175899 0.70194009 0.02606239
vn 0.71175899 0.70194009 0.02606239
vn -0.59503569 -0.80340388 -0.02178835
vn -0.59503569 -0.80340388 -0.02178835
vn 0.59503569 0.80340388 0.02178835
vn 0.59503569 0.80340388 0.02178835
vn -0.46388111 -0.88573461 -0.01698588
vn -0.46388111 -0.88573461 -0.01698588
vn 0.46388111 0.88573461 0.01698588
vn 0.46388111 0.88573461 0.01698588
vn -0.32120912 -0.94693525 -0.01176167
vn -0.32120912 -0.94693525 -0.01176167
vn 0.32120912 0.94693525 0.01176167
vn 0.32120912 0.94693525 0.01176167
vn -0.17023521 -0.98538374 -0.00623348
vn -0.17023521 -0.98538374 -0.00623348
vn 0.17023521 0.98538374 0.00623348
vn 0.17023521 0.98538374 0.00623348
vn -0.05371991 -0.99855411 -0.00196706
vn -0.05371991 -0.99855411 -0.00196706
vn 0.05371991 0.99855411 0.00196706
vn 0.05371991 0.99855411 0.00196706
vn 0.02473069 -0.99969374 0.00090556
vn 0.02473069 -0.99969374 0.00090556
vn -0.02473069 0.99969374 -0.00090556
vn -0.02473069 0.99969374 -0.00090556
vn 0.14236380 -0.98980067 0.00521292
vn 0.14236380 -0.98980067 0.00521292
vn -0.14236380 0.98980067 -0.00521292
vn -0.14236380 0.98980067 -0.00521292
vn 0.29631241 -0.95502944 0.01085003
vn 0.29631241 -0.95502944 0.01085003
vn -0.29631241 0.95502944 -0.01085003
vn -0.29631241 0.95502944 -0.01085003
vn 0.44338901 -0.89618223 0.01623552
vn 0.44338901 -0.89618223 0.01623552
vn -0.44338901 0.89618223 -0.01623552
vn -0.44338901 0.89618223 -0.01623552
vn 0.57967049 -0.81457449 0.02122572
vn 0.57967049 -0.81457449 0.02122572
vn -0.57967049 0.81457449 -0.02122572
vn -0.57967049 0.81457449 -0.02122572
vn 0.70146994 -0.71223604 0.02568564
vn 0.70146994 -0.71223604 0.02568564
vn -0.70146994 0.71223604 -0.02568564
vn -0.70146994 0.71223604 -0.02568564
vn 0.80550245 -0.59185796 0.02949498
vn 0.80550245 -0.59185796 0.02949498
vn -0.80550245 0.59185796 -0.02949498
vn -0.80550245 0.59185796 -0.02949498
f 1//1 2//2 3//3
f 2//2 1//1 4//4
f 2//2 4//4 5//5
f 5//5 4//4 6//6
f 6//6 4//4 7//7
f 6//6 7//7 8//8
f 8//8 7//7 9//9
f 8//8 9//9 10//10
f 10//10 9//9 11//11
f 10//10 11//11 12//12
f 12//12 11//11 13//13
f 12//12 13//13 14//14
f 14//14 13//13 15//15
f 14//14 15//15 16//16
f 16//16 15//15 17//17
f 16//16 17//17 18//18
f 18//18 17//17 19//19
f 18//18 19//19 20//20
f 20//20 19//19 21//21
f 21//21 19//19 22//22
f 21//21 22//22 23//23
f 23//23 22//22 24//24
f 3//3 25//25 26//26
f 25//25 3//3 2//2
f 26//26 25//25 27//27
f 26//26 27//27 28//28
f 26//26 28//28 29//29
f 29//29 28//28 30//30
f 29//29 30//30 31//31
f 31//31 30//30 32//32
f 31//31 32//32 33//33
f 33//33 32//32 34//34
f 33//33 34//34 35//35
f 35//35 34//34 36//36
f 35//35 36//36 37//37
f 37//37 36//36 38//38
f 37//37 38//38 39//39
f 39//39 38//38 40//40
f 39//39 40//40 41//41
f 41//41 40//40 42//42
f 41//41 42//42 43//43
f 41//41 43//43 44//44
f 44//44 43//43 24//24
f 44//44 24//24 22//22
f 44//44 22//22 45//45
f 44//44 45//45 46//46
f 46//46 45//45 47//47
f 46//46 47//47 48//48
f 49//49 50//50 51//51
f 50//50 52//52 51//51
f 51//51 52//52 53//53
f 52//52 54//54 53//53
f 54//54 55//55 53//53
f 55//55 56//56 53//53
f 53//53 56//56 57//57
f 56//56 58//58 57//57
f 58//58 59//59 57//57
f 57//57 59//59 60//60
f 59//59 61//61 60//60
f 60//60 61//61 62//62
f 61//61 63//63 62//62
f 62//62 63//63 64//64
f 63//63 65//65 64//64
f 64//64 65//65 66//66
f 65//65 67//67 66//66
f 66//66 67//67 68//68
f 67//67 69//69 68//68
f 68//68 69//69 70//70
f 69//69 71//71 70//70
f 70//70 71//71 72//72
f 71//71 73//73 72//72
f 73//73 74//74 72//72
f 75//75 76//76 74//74
f 72//72 74//74 76//76
f 55//55 54//54 77//77
f 77//77 54//54 78//78
f 54//54 79//79 78//78
f 78//78 79//79 80//80
f 80//80 79//79 81//81
f 79//79 82//82 81//81
f 81//81 82//82 83//83
f 82//82 84//84 83//83
f 83//83 84//84 85//85
f 84//84 86//86 85//85
f 85//85 86//86 87//87
f 86//86 88//88 87//87
f 87//87 88//88 89//89
f 88//88 90//90 89//89
f 89//89 90//90 91//91
f 90//90 92//92 91//91
f 91//91 92//92 93//93
f 92//92 94//94 93//93
f 93//93 94//94 95//95
f 95//95 94//94 75//75
f 94//94 96//96 75//75
f 76//76 75//75 96//96
f 97//97 98//98 99//99
f 98//98 97//97 100//100
f 101//101 102//102 103//103
f 104//104 103//103 102//102
f 99//99 105//105 106//106
f 105//105 99//99 98//98
f 103//103 104//104 107//107
f 108//108 107//107 104//104
f 106//106 109//109 110//110
f 109//109 106//106 105//105
f 107//107 108//108 111//111
f 112//112 111//111 108//108
f 109//109 113//113 110//110
f 113//113 109//109 114//114
f 115//115 111//111 116//116
f 112//112 116//116 111//111
f 117//117 118//118 119//119
f 118//118 117//117 120//120
f 121//121 122//122 123//123
f 124//124 123//123 122//122
f 125//125 126//126 127//127
f 126//126 125//125 128//128
f 129//129 130//130 131//131
f 132//132 131//131 130//130
f 126//126 133//133 134//134
f 133//133 126//126 128//128
f 129//129 131//131 135//135
f 136//136 135//135 131//131
f 134//134 137//137 138//138
f 137//137 134//134 133//133
f 135//135 136//136 139//139
f 140//140 139//139 136//136
f 138//138 141//141 142//142
f 141//141 138//138 137//137
f 139//139 140//140 143//143
f 144//144 143//143 140//140
f 142//142 145//145 146//146
f 145//145 142//142 141//141
f 143//143 144//144 147//147
f 148//148 147//147 144//144
f 146//146 149//149 150//150
f 149//149 146//146 145//145
f 147//147 148//148 151//151
f 152//152 151//151 148//148
f 149//149 153//153 150//150
f 153//153 149//149 154//154
f 155//155 151//151 156//156
f 152//152 156//156 151//151
f 154//154 157//157 153//153
f 157//157 154//154 158//158
f 159//159 155//155 160//160
f 156//156 160//160 155//155
f 158//158 161//161 157//157
f 161//161 158//158 162//162
f 163//163 159//159 164//164
f 160//160 164//164 159//159
f 162//162 165//165 161//161
f 165//165 162//162 166//166
f 167//167 163//163 168//168
f 164//164 168//168 163//163
f 166//166 169//169 165//165
f 169//169 166//166 170//170
f 171//171 167//167 172//172
f 168//168 172//172 167//167
f 170//170 173//173 169//169
f 173//173 170//170 174//174
f 175//175 171//171 176//176
f 172//172 176//176 171//171
f 174//174 177//177 173//173
f 177//177 174//174 178//178
f 179//179 175//175 180//180
f 176//176 180//180 175//175
f 178//178 181//181 177//177
f 181//181 178//178 182//182
f 183//183 179//179 184//184
f 180//180 184//184 179//179
f 182//182 185//185 181//181
f 185//185 182//182 186//186
f 187//187 183//183 188//188
f 184//184 188//188 183//183
f 186//186 189//189 185//185
f 189//189 186//186 190//190
f 191//191 187//187 192//192
f 188//188 192//192 187//187
f 190//190 193//193 189//189
f 193//193 190//190 194//194
f 195//195 191//191 196//196
f 192//192 196//196 191//191
f 193//193 197//197 198//198
f 197//197 193//193 194//194
f 195//195 196//196 199//199
f 200//200 199//199 196//196
f 198//198 100//100 97//97
f 100//100 198//198 197//197
f 199//199 200//200 101//101
f 102//102 101//101 200//200

