mtllib material.mtl
usemtl material_0_0
v 0.12089900 0.12151300 -0.13176700
v 0.18646100 -0.02682200 -0.10937000
v 0.16579100 -0.02682200 -0.15668300
v 0.09817000 0.12151300 -0.16023800
v 0.13548400 0.12151300 -0.09838300
v 0.16579100 -0.02682200 -0.15668300
v 0.18646100 -0.97616700 -0.10937000
v 0.16579100 -0.97616700 -0.15668300
v 0.18646100 -0.02682200 -0.10937000
v 0.13358000 -0.02682200 -0.19703400
v -0.03729700 0.12151300 -0.19376300
v 0.03492800 0.12151300 -0.19515000
v -0.00127600 0.12151300 -0.19921000
v -0.07068100 0.12151300 -0.17917800
v 0.06884700 0.12151300 -0.18185700
v -0.09915200 0.12151300 -0.15644900
v -0.00068500 0.12151300 -0.16844200
v -0.02876300 0.12151300 -0.16419500
v -0.05478500 0.12151300 -0.15282600
v -0.12077100 0.12151300 -0.12712600
v -0.07697700 0.12151300 -0.13511000
v -0.09382900 0.12151300 -0.11225400
v -0.13406400 0.12151300 -0.09320700
v -0.10419000 0.12151300 -0.08581400
v -0.13812400 0.12151300 -0.05700300
v -0.10735600 0.12151300 -0.05759400
v -0.13267700 0.12151300 -0.02098200
v -0.10310900 0.12151300 -0.02951600
v -0.09174000 0.12151300 -0.00349500
v -0.11809200 0.12151300 0.01240200
v -0.07402400 0.12151300 0.01869800
v -0.09536300 0.12151300 0.04087300
v -0.05116800 0.12151300 0.03555000
v -0.02472800 0.12151300 0.04591100
v -0.06604000 0.12151300 0.06249200
v 0.00349200 0.12151300 0.04907700
v 0.09817000 0.12151300 -0.16023800
v 0.02753500 0.12151300 -0.16527600
v 0.05397400 0.12151300 -0.15491500
v 0.12089900 0.12151300 -0.13176700
v 0.07683100 0.12151300 -0.13806300
v 0.09454700 0.12151300 -0.11587100
v 0.13548400 0.12151300 -0.09838300
v 0.10591600 0.12151300 -0.08984900
v 0.14093100 0.12151300 -0.06236200
v 0.11016200 0.12151300 -0.06177100
v 0.10699700 0.12151300 -0.03355100
v 0.13687000 0.12151300 -0.02615800
v 0.09663600 0.12151300 -0.00711200
v 0.12357800 0.12151300 0.00776100
v 0.07978400 0.12151300 0.01574500
v 0.10195900 0.12151300 0.03708400
v 0.05759100 0.12151300 0.03346100
v 0.03156900 0.12151300 0.04483000
v 0.07348700 0.12151300 0.05981300
v -0.03212100 0.12151300 0.07578400
v 0.04010400 0.12151300 0.07439800
v 0.00408300 0.12151300 0.07984500
v 0.19418200 -0.02682200 -0.05832000
v 0.13358000 -0.02682200 -0.19703400
v 0.13358000 -0.97616700 -0.19703400
v 0.19418200 -0.97616700 -0.05832000
v 0.19418200 -0.02682200 -0.05832000
v 0.04395100 -0.97616700 -0.24651100
v -0.05840900 -0.97616700 -0.24454600
v -0.00735800 -0.97616700 -0.25226700
v 0.09202200 -0.97616700 -0.22767300
v -0.10572200 -0.97616700 -0.22387600
v 0.13358000 -0.97616700 -0.19703400
v -0.14607200 -0.97616700 -0.19166400
v -0.17671100 -0.97616700 -0.15010700
v 0.16579100 -0.97616700 -0.15668300
v -0.19555000 -0.97616700 -0.10203500
v 0.18646100 -0.97616700 -0.10937000
v -0.20130500 -0.97616700 -0.05072600
v 0.19418200 -0.97616700 -0.05832000
v 0.18842700 -0.97616700 -0.00701100
v -0.19358500 -0.97616700 0.00032400
v -0.17291400 -0.97616700 0.04763700
v 0.16958800 -0.97616700 0.04106000
v -0.14070300 -0.97616700 0.08798700
v 0.13894900 -0.97616700 0.08261800
v 0.09859800 -0.97616700 0.11482900
v -0.09914500 -0.97616700 0.11862600
v -0.05107400 -0.97616700 0.13746500
v 0.05128600 -0.97616700 0.13550000
v 0.00023500 -0.97616700 0.14322100
v 0.09202200 -0.02682200 -0.22767300
v 0.03492800 0.12151300 -0.19515000
v 0.06884700 0.12151300 -0.18185700
v 0.04395100 -0.02682200 -0.24651100
v -0.00127600 0.12151300 -0.19921000
v -0.00735800 -0.02682200 -0.25226700
v -0.03729700 0.12151300 -0.19376300
v -0.10572200 -0.02682200 -0.22387600
v -0.07068100 0.12151300 -0.17917800
v -0.14607200 -0.02682200 -0.19166400
v -0.09915200 0.12151300 -0.15644900
v -0.12077100 0.12151300 -0.12712600
v -0.17671100 -0.02682200 -0.15010700
v -0.13406400 0.12151300 -0.09320700
v -0.19555000 -0.02682200 -0.10203500
v -0.13812400 0.12151300 -0.05700300
v -0.20130500 -0.02682200 -0.05072600
v -0.13267700 0.12151300 -0.02098200
v -0.19358500 -0.02682200 0.00032400
v -0.11809200 0.12151300 0.01240200
v -0.17291400 -0.02682200 0.04763700
v -0.09536300 0.12151300 0.04087300
v -0.06604000 0.12151300 0.06249200
v -0.09914500 -0.02682200 0.11862600
v -0.03212100 0.12151300 0.07578400
v -0.05107400 -0.02682200 0.13746500
v 0.00408300 0.12151300 0.07984500
v 0.00023500 -0.02682200 0.14322100
v 0.05128600 -0.02682200 0.13550000
v 0.04010400 0.12151300 0.07439800
v 0.09859800 -0.02682200 0.11482900
v 0.07348700 0.12151300 0.05981300
v 0.10195900 0.12151300 0.03708400
v 0.13894900 -0.02682200 0.08261800
v 0.12357800 0.12151300 0.00776100
v 0.18842700 -0.02682200 -0.00701100
v 0.13687000 0.12151300 -0.02615800
v 0.14093100 0.12151300 -0.06236200
v 0.09202200 -0.97616700 -0.22767300
v 0.09202200 -0.02682200 -0.22767300
v 0.18842700 -0.97616700 -0.00701100
v 0.18842700 -0.02682200 -0.00701100
v 0.04395100 -0.97616700 -0.24651100
v 0.04395100 -0.02682200 -0.24651100
v 0.16958800 -0.97616700 0.04106000
v 0.16958800 -0.02682200 0.04106000
v 0.13894900 -0.97616700 0.08261800
v 0.13894900 -0.02682200 0.08261800
v 0.09859800 -0.02682200 0.11482900
v 0.09859800 -0.97616700 0.11482900
v 0.05128600 -0.02682200 0.13550000
v 0.05128600 -0.97616700 0.13550000
v 0.00023500 -0.02682200 0.14322100
v 0.00023500 -0.97616700 0.14322100
v -0.05107400 -0.02682200 0.13746500
v -0.05107400 -0.97616700 0.13746500
v -0.09914500 -0.02682200 0.11862600
v -0.09914500 -0.97616700 0.11862600
v -0.14070300 -0.02682200 0.08798700
v -0.14070300 -0.97616700 0.08798700
v -0.17291400 -0.97616700 0.04763700
v -0.17291400 -0.02682200 0.04763700
v -0.19358500 -0.97616700 0.00032400
v -0.19358500 -0.02682200 0.00032400
v -0.20130500 -0.97616700 -0.05072600
v -0.20130500 -0.02682200 -0.05072600
v -0.19555000 -0.97616700 -0.10203500
v -0.19555000 -0.02682200 -0.10203500
v -0.17671100 -0.97616700 -0.15010700
v -0.17671100 -0.02682200 -0.15010700
v -0.14607200 -0.97616700 -0.19166400
v -0.14607200 -0.02682200 -0.19166400
v -0.10572200 -0.02682200 -0.22387600
v -0.10572200 -0.97616700 -0.22387600
v -0.05840900 -0.02682200 -0.24454600
v -0.05840900 -0.97616700 -0.24454600
v -0.00735800 -0.02682200 -0.25226700
v -0.00735800 -0.97616700 -0.25226700
v -0.05840900 -0.02682200 -0.24454600
v -0.14070300 -0.02682200 0.08798700
v 0.16958800 -0.02682200 0.04106000
vn 0.80872634 0.32689070 -0.48898280
vn 0.90709546 0.33099938 -0.26003312
vn 0.80967971 0.32691150 -0.48738860
vn 0.65563765 0.32551229 -0.68130832
vn 0.90612911 0.33092240 -0.26347752
vn 0.85626708 0.00000000 -0.51653333
vn 0.96077916 0.00000000 -0.27731462
vn 0.85626708 0.00000000 -0.51653333
vn 0.96077916 0.00000000 -0.27731462
vn 0.65563765 0.32551229 -0.68130832
vn 0.00000000 1.00000000 0.00000000
vn 0.00000000 1.00000000 0.00000000
vn 0.00000000 1.00000000 0.00000000
vn 0.00000000 1.00000000 0.00000000
vn 0.00000000 1.00000000 0.00000000
vn 0.00000000 1.00000000 0.00000000
vn 0.00000000 1.00000000 0.00000000
vn 0.00000000 1.00000000 0.00000000
vn 0.00000000 1.00000000 0.00000000
vn 0.00000000 1.00000000 0.00000000
vn 0.00000000 1.00000000 0.00000000
vn 0.00000000 1.00000000 0.00000000
vn 0.00000000 1.00000000 0.00000000
vn 0.00000000 1.00000000 0.00000000
vn 0.00000000 1.00000000 0.00000000
vn 0.00000000 1.00000000 0.00000000
vn 0.00000000 1.00000000 0.00000000
vn 0.00000000 1.00000000 0.00000000
vn 0.00000000 1.00000000 0.00000000
vn 0.00000000 1.00000000 0.00000000
vn 0.00000000 1.00000000 0.00000000
vn 0.00000000 1.00000000 0.00000000
vn 0.00000000 1.00000000 0.00000000
vn 0.00000000 1.00000000 0.00000000
vn 0.00000000 1.00000000 0.00000000
vn 0.00000000 1.00000000 0.00000000
vn 0.00000000 1.00000000 0.00000000
vn 0.00000000 1.00000000 0.00000000
vn 0.00000000 1.00000000 0.00000000
vn 0.00000000 1.00000000 0.00000000
vn 0.00000000 1.00000000 0.00000000
vn 0.00000000 1.00000000 0.00000000
vn 0.00000000 1.00000000 0.00000000
vn 0.00000000 1.00000000 0.00000000
vn 0.00000000 1.00000000 0.00000000
vn 0.00000000 1.00000000 0.00000000
vn 0.00000000 1.00000000 0.00000000
vn 0.00000000 1.00000000 0.00000000
vn 0.00000000 1.00000000 0.00000000
vn 0.00000000 1.00000000 0.00000000
vn 0.00000000 1.00000000 0.00000000
vn 0.00000000 1.00000000 0.00000000
vn 0.00000000 1.00000000 0.00000000
vn 0.00000000 1.00000000 0.00000000
vn 0.00000000 1.00000000 0.00000000
vn 0.00000000 1.00000000 0.00000000
vn 0.00000000 1.00000000 0.00000000
vn 0.00000000 1.00000000 0.00000000
vn 0.94121042 0.33745778 -0.01565831
vn 0.69340183 0.00000000 -0.72055111
vn 0.69340183 0.00000000 -0.72055111
vn 0.99981571 0.00000000 -0.01919744
vn 0.99981571 0.00000000 -0.01919744
vn 0.00000000 -1.00000000 0.00000000
vn 0.00000000 -1.00000000 0.00000000
vn 0.00000000 -1.00000000 0.00000000
vn 0.00000000 -1.00000000 0.00000000
vn 0.00000000 -1.00000000 0.00000000
vn 0.00000000 -1.00000000 0.00000000
vn 0.00000000 -1.00000000 0.00000000
vn 0.00000000 -1.00000000 0.00000000
vn 0.00000000 -1.00000000 0.00000000
vn 0.00000000 -1.00000000 0.00000000
vn 0.00000000 -1.00000000 0.00000000
vn 0.00000000 -1.00000000 0.00000000
vn 0.00000000 -1.00000000 0.00000000
vn 0.00000000 -1.00000000 0.00000000
vn 0.00000000 -1.00000000 0.00000000
vn 0.00000000 -1.00000000 0.00000000
vn 0.00000000 -1.00000000 0.00000000
vn 0.00000000 -1.00000000 0.00000000
vn 0.00000000 -1.00000000 0.00000000
vn 0.00000000 -1.00000000 0.00000000
vn 0.00000000 -1.00000000 0.00000000
vn 0.00000000 -1.00000000 0.00000000
vn 0.00000000 -1.00000000 0.00000000
vn 0.00000000 -1.00000000 0.00000000
vn 0.45594753 0.32691150 -0.82779268
vn 0.22849901 0.33092240 -0.91557554
vn 0.45757715 0.32689070 -0.82690122
vn 0.22502005 0.33099938 -0.91640896
vn -0.01545216 0.33730529 -0.94126849
vn -0.02048423 0.33745778 -0.94111776
vn -0.25716220 0.34556660 -0.90246957
vn -0.48558885 0.35538042 -0.79869157
vn -0.47983721 0.35510380 -0.80228271
vn -0.67299054 0.36552830 -0.64301851
vn -0.66824547 0.36523670 -0.64811275
vn -0.80979392 0.37526190 -0.45101255
vn -0.81292217 0.37552940 -0.44512382
vn -0.89533982 0.38450498 -0.22477218
vn -0.89667976 0.38471649 -0.21899460
vn -0.91968515 0.39236469 0.01513883
vn -0.91953408 0.39250381 0.01994567
vn -0.88175045 0.39834642 0.25265843
vn -0.88078408 0.39841519 0.25589986
vn -0.78447261 0.40208470 0.47215529
vn -0.78356450 0.40210298 0.47364530
vn -0.63449265 0.40335578 0.65933542
vn -0.44169309 0.40208470 0.80201939
vn -0.44321687 0.40210298 0.80116915
vn -0.21862373 0.39834642 0.89079953
vn -0.22189987 0.39841519 0.88995831
vn 0.02017702 0.39236469 0.91958841
vn 0.01536792 0.39250381 0.91962198
vn 0.25325475 0.38471649 0.88761211
vn 0.25897664 0.38450498 0.88605137
vn 0.47600202 0.37552940 0.79523565
vn 0.48176632 0.37526190 0.79188365
vn 0.67328752 0.36523670 0.64287329
vn 0.66837918 0.36552830 0.64781042
vn 0.82011126 0.35510380 0.44868565
vn 0.91012487 0.34579231 0.22825511
vn 0.91167627 0.34556660 0.22232883
vn 0.94116787 0.33730529 -0.02069246
vn 0.48328239 0.00000000 -0.87546453
vn 0.48328239 0.00000000 -0.87546453
vn 0.97071649 0.00000000 0.24022801
vn 0.97071649 0.00000000 0.24022801
vn 0.24022801 0.00000000 -0.97071649
vn 0.24022801 0.00000000 -0.97071649
vn 0.87546453 0.00000000 0.48328239
vn 0.87546453 0.00000000 0.48328239
vn 0.72055111 0.00000000 0.69340183
vn 0.72055111 0.00000000 0.69340183
vn 0.51653333 0.00000000 0.85626708
vn 0.51653333 0.00000000 0.85626708
vn 0.27731462 0.00000000 0.96077916
vn 0.27731462 0.00000000 0.96077916
vn 0.01919744 0.00000000 0.99981571
vn 0.01919744 0.00000000 0.99981571
vn -0.24022801 0.00000000 0.97071649
vn -0.24022801 0.00000000 0.97071649
vn -0.48328239 0.00000000 0.87546453
vn -0.48328239 0.00000000 0.87546453
vn -0.69340183 0.00000000 0.72055111
vn -0.69340183 0.00000000 0.72055111
vn -0.85626708 0.00000000 0.51653333
vn -0.85626708 0.00000000 0.51653333
vn -0.96077916 0.00000000 0.27731462
vn -0.96077916 0.00000000 0.27731462
vn -0.99981571 0.00000000 0.01919744
vn -0.99981571 0.00000000 0.01919744
vn -0.97071649 0.00000000 -0.24022801
vn -0.97071649 0.00000000 -0.24022801
vn -0.87546453 0.00000000 -0.48328239
vn -0.87546453 0.00000000 -0.48328239
vn -0.72055111 0.00000000 -0.69340183
vn -0.72055111 0.00000000 -0.69340183
vn -0.51653333 0.00000000 -0.85626708
vn -0.51653333 0.00000000 -0.85626708
vn -0.27731462 0.00000000 -0.96077916
vn -0.27731462 0.00000000 -0.96077916
vn -0.01919744 0.00000000 -0.99981571
vn -0.01919744 0.00000000 -0.99981571
vn -0.26302456 0.34579231 -0.90069182
vn -0.63449265 0.40335578 0.65933542
vn 0.81674356 0.35538042 0.45457091
f 1//1 2//2 3//3
f 1//1 3//3 4//4
f 5//5 2//2 1//1
f 6//6 7//7 8//8
f 7//7 6//6 9//9
f 4//4 3//3 10//10
f 11//11 12//12 13//13
f 12//12 11//11 14//14
f 12//12 14//14 15//15
f 15//15 14//14 16//16
f 15//15 16//16 17//17
f 17//17 16//16 18//18
f 18//18 16//16 19//19
f 19//19 16//16 20//20
f 19//19 20//20 21//21
f 21//21 20//20 22//22
f 22//22 20//20 23//23
f 22//22 23//23 24//24
f 24//24 23//23 25//25
f 24//24 25//25 26//26
f 26//26 25//25 27//27
f 26//26 27//27 28//28
f 28//28 27//27 29//29
f 29//29 27//27 30//30
f 29//29 30//30 31//31
f 31//31 30//30 32//32
f 31//31 32//32 33//33
f 33//33 32//32 34//34
f 34//34 32//32 35//35
f 34//34 35//35 36//36
f 17//17 37//37 15//15
f 37//37 17//17 38//38
f 37//37 38//38 39//39
f 37//37 39//39 40//40
f 40//40 39//39 41//41
f 40//40 41//41 42//42
f 40//40 42//42 43//43
f 43//43 42//42 44//44
f 43//43 44//44 45//45
f 45//45 44//44 46//46
f 45//45 46//46 47//47
f 45//45 47//47 48//48
f 48//48 47//47 49//49
f 48//48 49//49 50//50
f 50//50 49//49 51//51
f 50//50 51//51 52//52
f 52//52 51//51 53//53
f 52//52 53//53 54//54
f 52//52 54//54 55//55
f 55//55 54//54 36//36
f 55//55 36//36 35//35
f 55//55 35//35 56//56
f 55//55 56//56 57//57
f 57//57 56//56 58//58
f 5//5 59//59 2//2
f 60//60 8//8 61//61
f 8//8 60//60 6//6
f 9//9 62//62 7//7
f 62//62 9//9 63//63
f 64//64 65//65 66//66
f 65//65 64//64 67//67
f 65//65 67//67 68//68
f 68//68 67//67 69//69
f 68//68 69//69 70//70
f 70//70 69//69 71//71
f 71//71 69//69 72//72
f 71//71 72//72 73//73
f 73//73 72//72 74//74
f 73//73 74//74 75//75
f 75//75 74//74 76//76
f 75//75 76//76 77//77
f 75//75 77//77 78//78
f 78//78 77//77 79//79
f 79//79 77//77 80//80
f 79//79 80//80 81//81
f 81//81 80//80 82//82
f 81//81 82//82 83//83
f 81//81 83//83 84//84
f 84//84 83//83 85//85
f 85//85 83//83 86//86
f 85//85 86//86 87//87
f 10//10 88//88 4//4
f 88//88 89//89 90//90
f 91//91 92//92 89//89
f 92//92 93//93 94//94
f 94//94 95//95 96//96
f 96//96 97//97 98//98
f 98//98 97//97 99//99
f 99//99 100//100 101//101
f 101//101 102//102 103//103
f 103//103 104//104 105//105
f 105//105 106//106 107//107
f 107//107 108//108 109//109
f 110//110 109//109 111//111
f 112//112 110//110 113//113
f 114//114 112//112 115//115
f 116//116 117//117 114//114
f 118//118 119//119 117//117
f 120//120 119//119 118//118
f 120//120 121//121 122//122
f 122//122 123//123 124//124
f 124//124 123//123 125//125
f 125//125 59//59 5//5
f 4//4 88//88 90//90
f 60//60 126//126 127//127
f 126//126 60//60 61//61
f 63//63 128//128 62//62
f 128//128 63//63 129//129
f 127//127 130//130 131//131
f 130//130 127//127 126//126
f 129//129 132//132 128//128
f 132//132 129//129 133//133
f 133//133 134//134 132//132
f 134//134 133//133 135//135
f 134//134 136//136 137//137
f 136//136 134//134 135//135
f 137//137 138//138 139//139
f 138//138 137//137 136//136
f 139//139 140//140 141//141
f 140//140 139//139 138//138
f 141//141 142//142 143//143
f 142//142 141//141 140//140
f 143//143 144//144 145//145
f 144//144 143//143 142//142
f 145//145 146//146 147//147
f 146//146 145//145 144//144
f 146//146 148//148 147//147
f 148//148 146//146 149//149
f 149//149 150//150 148//148
f 150//150 149//149 151//151
f 151//151 152//152 150//150
f 152//152 151//151 153//153
f 153//153 154//154 152//152
f 154//154 153//153 155//155
f 155//155 156//156 154//154
f 156//156 155//155 157//157
f 157//157 158//158 156//156
f 158//158 157//157 159//159
f 160//160 158//158 159//159
f 158//158 160//160 161//161
f 162//162 161//161 160//160
f 161//161 162//162 163//163
f 164//164 163//163 162//162
f 163//163 164//164 165//165
f 131//131 165//165 164//164
f 165//165 131//131 130//130
f 88//88 91//91 89//89
f 91//91 93//93 92//92
f 93//93 166//166 94//94
f 94//94 166//166 95//95
f 96//96 95//95 97//97
f 99//99 97//97 100//100
f 101//101 100//100 102//102
f 103//103 102//102 104//104
f 105//105 104//104 106//106
f 107//107 106//106 108//108
f 109//109 108//108 167//167
f 109//109 167//167 111//111
f 113//113 110//110 111//111
f 115//115 112//112 113//113
f 116//116 114//114 115//115
f 118//118 117//117 116//116
f 121//121 120//120 118//118
f 122//122 121//121 168//168
f 122//122 168//168 123//123
f 125//125 123//123 59//59

