mtllib material.mtl
usemtl material_0_0
v -0.52868900 -0.26613200 -0.41219900
v -0.52914000 -0.26958400 -0.41225200
v -0.52711900 -0.26613200 -0.42544200
v -0.52757000 -0.26958400 -0.42549500
v -0.53046300 -0.27280000 -0.41240900
v -0.52889300 -0.27280000 -0.42565200
v -0.54193200 -0.25279700 -0.41376900
v -0.54535900 -0.25325100 -0.41417500
v -0.53850500 -0.25325100 -0.41336300
v -0.53531000 -0.25458300 -0.41298400
v -0.54855400 -0.25458300 -0.41455400
v -0.55129600 -0.25670200 -0.41487900
v -0.53256800 -0.25670200 -0.41265900
v -0.55340100 -0.25946400 -0.41512900
v -0.53046300 -0.25946400 -0.41240900
v -0.55472400 -0.26268100 -0.41528600
v -0.52914000 -0.26268100 -0.41225200
v -0.55517500 -0.26613200 -0.41533900
v -0.55472400 -0.26958400 -0.41528600
v -0.55340100 -0.27280000 -0.41512900
v -0.55129600 -0.27556200 -0.41487900
v -0.53256800 -0.27556200 -0.41265900
v -0.54855400 -0.27768100 -0.41455400
v -0.53531000 -0.27768100 -0.41298400
v -0.53850500 -0.27901300 -0.41336300
v -0.54535900 -0.27901300 -0.41417500
v -0.54193200 -0.27946800 -0.41376900
v -0.52757000 -0.26268100 -0.42549500
v -0.53099800 -0.27556200 -0.42590200
v -0.53374000 -0.25458300 -0.42622700
v -0.53099800 -0.25670200 -0.42590200
v -0.52889300 -0.25946400 -0.42565200
v -0.53374000 -0.27768100 -0.42622700
v -0.53693400 -0.27901300 -0.42660600
v -0.54036200 -0.27946800 -0.42701200
v -0.54378900 -0.27901300 -0.42741800
v -0.54698300 -0.27768100 -0.42779700
v -0.54972600 -0.27556200 -0.42812200
v -0.55183000 -0.27280000 -0.42837200
v -0.55315400 -0.26958400 -0.42852900
v -0.55360500 -0.26613200 -0.42858200
v -0.55315400 -0.26268100 -0.42852900
v -0.55183000 -0.25946400 -0.42837200
v -0.54972600 -0.25670200 -0.42812200
v -0.54698300 -0.25458300 -0.42779700
v -0.54378900 -0.25325100 -0.42741800
v -0.54036200 -0.25279700 -0.42701200
v -0.53693400 -0.25325100 -0.42660600
vn 0.64921421 0.00000000 0.76060562
vn 0.62436911 -0.19003900 0.75765981
vn 0.99304409 0.00000000 0.11774310
vn 0.95920694 -0.25881901 0.11373110
vn 0.55152700 -0.36712720 0.74902309
vn 0.86000141 -0.50000000 0.10196850
vn -0.07993279 0.73425441 0.67415221
vn -0.26864991 0.70923532 0.65177641
vn 0.10878430 0.70923530 0.69652800
vn 0.28464070 0.63588300 0.71737890
vn -0.44450629 0.63588299 0.63092549
vn -0.59551759 0.51919629 0.61302039
vn 0.43565199 0.51919629 0.73528399
vn -0.71139260 0.36712720 0.59928140
vn 0.55152700 0.36712720 0.74902309
vn -0.78423473 0.19003901 0.59064462
vn 0.62436911 0.19003900 0.75765981
vn -0.80907980 0.00000000 0.58769880
vn -0.78423473 -0.19003901 0.59064462
vn -0.71139260 -0.36712720 0.59928140
vn -0.59551759 -0.51919629 0.61302039
vn 0.43565199 -0.51919629 0.73528399
vn -0.44450629 -0.63588299 0.63092549
vn 0.28464070 -0.63588300 0.71737890
vn 0.10878430 -0.70923530 0.69652800
vn -0.26864991 -0.70923532 0.65177641
vn -0.07993279 -0.73425441 0.67415221
vn 0.95920694 0.25881901 0.11373110
vn 0.70218819 -0.70710679 0.08325696
vn 0.49652201 0.86602542 0.05887156
vn 0.70218819 0.70710679 0.08325696
vn 0.86000141 0.50000000 0.10196850
vn 0.49652201 -0.86602542 0.05887156
vn 0.25701871 -0.96592583 0.03047416
vn 0.00000000 -1.00000000 0.00000000
vn -0.25701871 -0.96592583 -0.03047416
vn -0.49652201 -0.86602542 -0.05887156
vn -0.70218819 -0.70710679 -0.08325696
vn -0.86000141 -0.50000000 -0.10196850
vn -0.95920694 -0.25881901 -0.11373110
vn -0.99304409 0.00000000 -0.11774310
vn -0.95920694 0.25881901 -0.11373110
vn -0.86000141 0.50000000 -0.10196850
vn -0.70218819 0.70710679 -0.08325696
vn -0.49652201 0.86602542 -0.05887156
vn -0.25701871 0.96592583 -0.03047416
vn 0.00000000 1.00000000 0.00000000
vn 0.25701871 0.96592583 0.03047416
f 1//1 2//2 3//3
f 4//4 3//3 2//2
f 2//2 5//5 4//4
f 6//6 4//4 5//5
f 7//7 8//8 9//9
f 9//9 8//8 10//10
f 8//8 11//11 10//10
f 11//11 12//12 10//10
f 10//10 12//12 13//13
f 12//12 14//14 13//13
f 13//13 14//14 15//15
f 14//14 16//16 15//15
f 15//15 16//16 17//17
f 17//17 16//16 1//1
f 16//16 18//18 1//1
f 18//18 19//19 1//1
f 1//1 19//19 2//2
f 19//19 20//20 2//2
f 2//2 20//20 5//5
f 20//20 21//21 5//5
f 5//5 21//21 22//22
f 21//21 23//23 22//22
f 22//22 23//23 24//24
f 24//24 23//23 25//25
f 23//23 26//26 25//25
f 27//27 25//25 26//26
f 1//1 3//3 17//17
f 28//28 17//17 3//3
f 5//5 22//22 6//6
f 29//29 6//6 22//22
f 10//10 13//13 30//30
f 31//31 30//30 13//13
f 15//15 32//32 13//13
f 31//31 13//13 32//32
f 17//17 28//28 15//15
f 32//32 15//15 28//28
f 24//24 33//33 22//22
f 29//29 22//22 33//33
f 25//25 34//34 24//24
f 33//33 24//24 34//34
f 27//27 35//35 25//25
f 34//34 25//25 35//35
f 26//26 36//36 27//27
f 35//35 27//27 36//36
f 23//23 37//37 26//26
f 36//36 26//26 37//37
f 21//21 38//38 23//23
f 37//37 23//23 38//38
f 21//21 20//20 38//38
f 39//39 38//38 20//20
f 20//20 19//19 39//39
f 40//40 39//39 19//19
f 19//19 18//18 40//40
f 41//41 40//40 18//18
f 16//16 42//42 18//18
f 41//41 18//18 42//42
f 14//14 43//43 16//16
f 42//42 16//16 43//43
f 12//12 44//44 14//14
f 43//43 14//14 44//44
f 12//12 11//11 44//44
f 45//45 44//44 11//11
f 11//11 8//8 45//45
f 46//46 45//45 8//8
f 8//8 7//7 46//46
f 47//47 46//46 7//7
f 7//7 9//9 47//47
f 48//48 47//47 9//9
f 9//9 10//10 48//48
f 30//30 48//48 10//10

