mtllib material.mtl
usemtl material_0_0
v 0.12329700 0.41689400 0.19766600
v 0.12925300 0.42036900 0.18938000
v 0.12960100 0.41772400 0.18938000
v 0.12294900 0.41953900 0.19766600
v 0.12294900 0.41953900 0.19766600
v 0.12329700 0.41689400 0.19766600
v 0.12925300 0.42036900 0.18938000
v 0.12960100 0.41772400 0.18938000
v 0.13321500 0.42089000 0.17973100
v 0.13356300 0.41824600 0.17973100
v 0.13321500 0.42089000 0.17973100
v 0.13356300 0.41824600 0.17973100
v 0.13356300 0.41824600 0.15902200
v 0.13356300 0.41824600 0.17973100
v 0.13491500 0.41842400 0.16937700
v 0.12960100 0.41772400 0.14937300
v 0.13066300 0.41786400 0.16937700
v 0.12945700 0.41770500 0.16013200
v 0.12329700 0.41689400 0.14108700
v 0.12591900 0.41723900 0.15151700
v 0.12029100 0.41649900 0.14412000
v 0.11508200 0.41581300 0.13472900
v 0.11295700 0.41553300 0.13844300
v 0.10551600 0.41455300 0.13073300
v 0.10441600 0.41440900 0.13487500
v 0.09525000 0.41320200 0.12936900
v 0.09525000 0.41320200 0.13365800
v 0.08498400 0.41185000 0.13073300
v 0.08608400 0.41199500 0.13487500
v 0.07754300 0.41087100 0.13844300
v 0.07541800 0.41059100 0.13472900
v 0.07020900 0.40990500 0.14412000
v 0.06720300 0.40950900 0.14108700
v 0.06458100 0.40916400 0.15151700
v 0.06089900 0.40867900 0.14937300
v 0.06104400 0.40869800 0.16013200
v 0.05983700 0.40854000 0.16937700
v 0.05693700 0.40815800 0.15902200
v 0.12960100 0.41772400 0.18938000
v 0.12945700 0.41770500 0.17862100
v 0.12329700 0.41689400 0.19766600
v 0.12591900 0.41723900 0.18723600
v 0.12029100 0.41649900 0.19463300
v 0.11508200 0.41581300 0.20402400
v 0.11295700 0.41553300 0.20031000
v 0.10551600 0.41455300 0.20802000
v 0.10441600 0.41440900 0.20387800
v 0.09525000 0.41320200 0.20938400
v 0.09525000 0.41320200 0.20509500
v 0.08608400 0.41199500 0.20387800
v 0.08498400 0.41185000 0.20802000
v 0.07754300 0.41087100 0.20031000
v 0.07541800 0.41059100 0.20402400
v 0.07020900 0.40990500 0.19463300
v 0.06720300 0.40950900 0.19766600
v 0.06458100 0.40916400 0.18723600
v 0.06089900 0.40867900 0.18938000
v 0.06104400 0.40869800 0.17862100
v 0.05693700 0.40815800 0.17973100
v 0.05558500 0.40798000 0.16937700
v 0.05558500 0.40798000 0.16937700
v 0.05693700 0.40815800 0.15902200
v 0.05693700 0.40815800 0.17973100
v 0.05983700 0.40854000 0.16937700
v 0.06089900 0.40867900 0.18938000
v 0.06104400 0.40869800 0.17862100
v 0.06458100 0.40916400 0.18723600
v 0.06720300 0.40950900 0.19766600
v 0.07020900 0.40990500 0.19463300
v 0.07541800 0.41059100 0.20402400
v 0.07754300 0.41087100 0.20031000
v 0.08498400 0.41185000 0.20802000
v 0.08608400 0.41199500 0.20387800
v 0.09525000 0.41320200 0.20938400
v 0.09525000 0.41320200 0.20509500
v 0.10441600 0.41440900 0.20387800
v 0.10551600 0.41455300 0.20802000
v 0.11295700 0.41553300 0.20031000
v 0.11508200 0.41581300 0.20402400
v 0.12029100 0.41649900 0.19463300
v 0.12329700 0.41689400 0.19766600
v 0.12591900 0.41723900 0.18723600
v 0.12945700 0.41770500 0.17862100
v 0.12960100 0.41772400 0.18938000
v 0.13066300 0.41786400 0.16937700
v 0.13356300 0.41824600 0.17973100
v 0.06089900 0.40867900 0.14937300
v 0.06104400 0.40869800 0.16013200
v 0.06458100 0.40916400 0.15151700
v 0.06720300 0.40950900 0.14108700
v 0.07020900 0.40990500 0.14412000
v 0.07541800 0.41059100 0.13472900
v 0.07754300 0.41087100 0.13844300
v 0.08498400 0.41185000 0.13073300
v 0.08608400 0.41199500 0.13487500
v 0.09525000 0.41320200 0.13365800
v 0.09525000 0.41320200 0.12936900
v 0.10441600 0.41440900 0.13487500
v 0.10551600 0.41455300 0.13073300
v 0.11295700 0.41553300 0.13844300
v 0.11508200 0.41581300 0.13472900
v 0.12029100 0.41649900 0.14412000
v 0.12329700 0.41689400 0.14108700
v 0.12591900 0.41723900 0.15151700
v 0.12945700 0.41770500 0.16013200
v 0.12960100 0.41772400 0.14937300
v 0.13356300 0.41824600 0.15902200
v 0.13491500 0.41842400 0.16937700
v 0.11473400 0.41845700 0.20402400
v 0.11508200 0.41581300 0.20402400
v 0.11473400 0.41845700 0.20402400
v 0.11508200 0.41581300 0.20402400
v 0.13456700 0.42106800 0.16937700
v 0.13491500 0.41842400 0.16937700
v 0.13456700 0.42106800 0.16937700
v 0.13491500 0.41842400 0.16937700
v 0.06685500 0.41215400 0.19766600
v 0.07541800 0.41059100 0.20402400
v 0.06720300 0.40950900 0.19766600
v 0.07507000 0.41323500 0.20402400
v 0.07507000 0.41323500 0.20402400
v 0.06685500 0.41215400 0.19766600
v 0.07541800 0.41059100 0.20402400
v 0.06720300 0.40950900 0.19766600
v 0.08498400 0.41185000 0.20802000
v 0.08463600 0.41449500 0.20802000
v 0.08463600 0.41449500 0.20802000
v 0.08498400 0.41185000 0.20802000
v 0.09525000 0.41320200 0.20938400
v 0.09490200 0.41584600 0.20938400
v 0.09490200 0.41584600 0.20938400
v 0.09525000 0.41320200 0.20938400
v 0.10551600 0.41455300 0.20802000
v 0.10516800 0.41719800 0.20802000
v 0.10516800 0.41719800 0.20802000
v 0.10551600 0.41455300 0.20802000
v 0.13321500 0.42089000 0.15902200
v 0.13356300 0.41824600 0.15902200
v 0.13321500 0.42089000 0.15902200
v 0.13356300 0.41824600 0.15902200
v 0.12925300 0.42036900 0.14937300
v 0.12960100 0.41772400 0.14937300
v 0.12925300 0.42036900 0.14937300
v 0.12960100 0.41772400 0.14937300
v 0.12294900 0.41953900 0.14108700
v 0.12329700 0.41689400 0.14108700
v 0.12294900 0.41953900 0.14108700
v 0.12329700 0.41689400 0.14108700
v 0.11473400 0.41845700 0.13472900
v 0.11508200 0.41581300 0.13472900
v 0.11473400 0.41845700 0.13472900
v 0.11508200 0.41581300 0.13472900
v 0.10516800 0.41719800 0.13073300
v 0.10551600 0.41455300 0.13073300
v 0.10516800 0.41719800 0.13073300
v 0.10551600 0.41455300 0.13073300
v 0.09490200 0.41584600 0.12936900
v 0.09525000 0.41320200 0.12936900
v 0.09490200 0.41584600 0.12936900
v 0.09525000 0.41320200 0.12936900
v 0.08463600 0.41449500 0.13073300
v 0.08498400 0.41185000 0.13073300
v 0.08463600 0.41449500 0.13073300
v 0.08498400 0.41185000 0.13073300
v 0.07507000 0.41323500 0.13472900
v 0.07541800 0.41059100 0.13472900
v 0.07507000 0.41323500 0.13472900
v 0.07541800 0.41059100 0.13472900
v 0.06685500 0.41215400 0.14108700
v 0.06720300 0.40950900 0.14108700
v 0.06685500 0.41215400 0.14108700
v 0.06720300 0.40950900 0.14108700
v 0.06055100 0.41132400 0.14937300
v 0.06089900 0.40867900 0.14937300
v 0.06089900 0.40867900 0.14937300
v 0.06055100 0.41132400 0.14937300
v 0.05658900 0.41080200 0.15902200
v 0.05693700 0.40815800 0.15902200
v 0.05693700 0.40815800 0.15902200
v 0.05658900 0.41080200 0.15902200
v 0.05523700 0.41062400 0.16937700
v 0.05558500 0.40798000 0.16937700
v 0.05558500 0.40798000 0.16937700
v 0.05523700 0.41062400 0.16937700
v 0.05658900 0.41080200 0.17973100
v 0.05693700 0.40815800 0.17973100
v 0.05693700 0.40815800 0.17973100
v 0.05658900 0.41080200 0.17973100
v 0.06055100 0.41132400 0.18938000
v 0.06089900 0.40867900 0.18938000
v 0.06089900 0.40867900 0.18938000
v 0.06055100 0.41132400 0.18938000
vn -0.70105738 -0.09229596 -0.70710678
vn -0.85861643 -0.11303900 -0.50000002
vn -0.85861643 -0.11303900 -0.50000002
vn -0.70105738 -0.09229596 -0.70710678
vn 0.70105738 0.09229596 0.70710678
vn 0.70105738 0.09229596 0.70710678
vn 0.85861643 0.11303900 0.50000002
vn 0.85861643 0.11303900 0.50000002
vn -0.95766221 -0.12607860 -0.25881900
vn -0.95766221 -0.12607860 -0.25881900
vn 0.95766221 0.12607860 0.25881900
vn 0.95766221 0.12607860 0.25881900
vn -0.13052619 0.99144486 0.00000000
vn -0.13052619 0.99144486 0.00000000
vn -0.13052619 0.99144486 0.00000000
vn -0.13052619 0.99144486 0.00000000
vn -0.13052619 0.99144486 0.00000000
vn -0.13052619 0.99144486 0.00000000
vn -0.13052619 0.99144486 0.00000000
vn -0.13052619 0.99144486 0.00000000
vn -0.13052619 0.99144486 0.00000000
vn -0.13052619 0.99144486 0.00000000
vn -0.13052619 0.99144486 0.00000000
vn -0.13052619 0.99144486 0.00000000
vn -0.13052619 0.99144486 0.00000000
vn -0.13052619 0.99144486 0.00000000
vn -0.13052619 0.99144486 0.00000000
vn -0.13052619 0.99144486 0.00000000
vn -0.13052619 0.99144486 0.00000000
vn -0.13052619 0.99144486 0.00000000
vn -0.13052619 0.99144486 0.00000000
vn -0.13052619 0.99144486 0.00000000
vn -0.13052619 0.99144486 0.00000000
vn -0.13052619 0.99144486 0.00000000
vn -0.13052619 0.99144486 0.00000000
vn -0.13052619 0.99144486 0.00000000
vn -0.13052619 0.99144486 0.00000000
vn -0.13052619 0.99144486 0.00000000
vn -0.13052619 0.99144486 0.00000000
vn -0.13052619 0.99144486 0.00000000
vn -0.13052619 0.99144486 0.00000000
vn -0.13052619 0.99144486 0.00000000
vn -0.13052619 0.99144486 0.00000000
vn -0.13052619 0.99144486 0.00000000
vn -0.13052619 0.99144486 0.00000000
vn -0.13052619 0.99144486 0.00000000
vn -0.13052619 0.99144486 0.00000000
vn -0.13052619 0.99144486 0.00000000
vn -0.13052619 0.99144486 0.00000000
vn -0.13052619 0.99144486 0.00000000
vn -0.13052619 0.99144486 0.00000000
vn -0.13052619 0.99144486 0.00000000
vn -0.13052619 0.99144486 0.00000000
vn -0.13052619 0.99144486 0.00000000
vn -0.13052619 0.99144486 0.00000000
vn -0.13052619 0.99144486 0.00000000
vn -0.13052619 0.99144486 0.00000000
vn -0.13052619 0.99144486 0.00000000
vn -0.13052619 0.99144486 0.00000000
vn -0.13052619 0.99144486 0.00000000
vn 0.13052619 -0.99144486 0.00000000
vn 0.13052619 -0.99144486 0.00000000
vn 0.13052619 -0.99144486 0.00000000
vn 0.13052619 -0.99144486 0.00000000
vn 0.13052619 -0.99144486 0.00000000
vn 0.13052619 -0.99144486 0.00000000
vn 0.13052619 -0.99144486 0.00000000
vn 0.13052619 -0.99144486 0.00000000
vn 0.13052619 -0.99144486 0.00000000
vn 0.13052619 -0.99144486 0.00000000
vn 0.13052619 -0.99144486 0.00000000
vn 0.13052619 -0.99144486 0.00000000
vn 0.13052619 -0.99144486 0.00000000
vn 0.13052619 -0.99144486 0.00000000
vn 0.13052619 -0.99144486 0.00000000
vn 0.13052619 -0.99144486 0.00000000
vn 0.13052619 -0.99144486 0.00000000
vn 0.13052619 -0.99144486 0.00000000
vn 0.13052619 -0.99144486 0.00000000
vn 0.13052619 -0.99144486 0.00000000
vn 0.13052619 -0.99144486 0.00000000
vn 0.13052619 -0.99144486 0.00000000
vn 0.13052619 -0.99144486 0.00000000
vn 0.13052619 -0.99144486 0.00000000
vn 0.13052619 -0.99144486 0.00000000
vn 0.13052619 -0.99144486 0.00000000
vn 0.13052619 -0.99144486 0.00000000
vn 0.13052619 -0.99144486 0.00000000
vn 0.13052619 -0.99144486 0.00000000
vn 0.13052619 -0.99144486 0.00000000
vn 0.13052619 -0.99144486 0.00000000
vn 0.13052619 -0.99144486 0.00000000
vn 0.13052619 -0.99144486 0.00000000
vn 0.13052619 -0.99144486 0.00000000
vn 0.13052619 -0.99144486 0.00000000
vn 0.13052619 -0.99144486 0.00000000
vn 0.13052619 -0.99144486 0.00000000
vn 0.13052619 -0.99144486 0.00000000
vn 0.13052619 -0.99144486 0.00000000
vn 0.13052619 -0.99144486 0.00000000
vn 0.13052619 -0.99144486 0.00000000
vn 0.13052619 -0.99144486 0.00000000
vn 0.13052619 -0.99144486 0.00000000
vn 0.13052619 -0.99144486 0.00000000
vn 0.13052619 -0.99144486 0.00000000
vn 0.13052619 -0.99144486 0.00000000
vn 0.13052619 -0.99144486 0.00000000
vn 0.13052619 -0.99144486 0.00000000
vn -0.49572241 -0.06526310 -0.86602542
vn -0.49572241 -0.06526310 -0.86602542
vn 0.49572241 0.06526310 0.86602542
vn 0.49572241 0.06526310 0.86602542
vn -0.99144486 -0.13052619 0.00000000
vn -0.99144486 -0.13052619 0.00000000
vn 0.99144486 0.13052619 0.00000000
vn 0.99144486 0.13052619 0.00000000
vn 0.70105738 0.09229596 -0.70710678
vn 0.49572241 0.06526310 -0.86602542
vn 0.70105738 0.09229596 -0.70710678
vn 0.49572241 0.06526310 -0.86602542
vn -0.49572241 -0.06526310 0.86602542
vn -0.70105738 -0.09229596 0.70710678
vn -0.49572241 -0.06526310 0.86602542
vn -0.70105738 -0.09229596 0.70710678
vn 0.25660481 0.03378266 -0.96592583
vn 0.25660481 0.03378266 -0.96592583
vn -0.25660481 -0.03378266 0.96592583
vn -0.25660481 -0.03378266 0.96592583
vn 0.00000000 0.00000000 -1.00000000
vn 0.00000000 0.00000000 -1.00000000
vn 0.00000000 0.00000000 1.00000000
vn 0.00000000 0.00000000 1.00000000
vn -0.25660481 -0.03378266 -0.96592583
vn -0.25660481 -0.03378266 -0.96592583
vn 0.25660481 0.03378266 0.96592583
vn 0.25660481 0.03378266 0.96592583
vn -0.95766221 -0.12607860 0.25881900
vn -0.95766221 -0.12607860 0.25881900
vn 0.95766221 0.12607860 -0.25881900
vn 0.95766221 0.12607860 -0.25881900
vn -0.85861643 -0.11303900 0.50000002
vn -0.85861643 -0.11303900 0.50000002
vn 0.85861643 0.11303900 -0.50000002
vn 0.85861643 0.11303900 -0.50000002
vn -0.70105738 -0.09229596 0.70710678
vn -0.70105738 -0.09229596 0.70710678
vn 0.70105738 0.09229596 -0.70710678
vn 0.70105738 0.09229596 -0.70710678
vn -0.49572241 -0.06526310 0.86602542
vn -0.49572241 -0.06526310 0.86602542
vn 0.49572241 0.06526310 -0.86602542
vn 0.49572241 0.06526310 -0.86602542
vn -0.25660481 -0.03378266 0.96592583
vn -0.25660481 -0.03378266 0.96592583
vn 0.25660481 0.03378266 -0.96592583
vn 0.25660481 0.03378266 -0.96592583
vn 0.00000000 0.00000000 1.00000000
vn 0.00000000 0.00000000 1.00000000
vn 0.00000000 0.00000000 -1.00000000
vn 0.00000000 0.00000000 -1.00000000
vn 0.25660481 0.03378266 0.96592583
vn 0.25660481 0.03378266 0.96592583
vn -0.25660481 -0.03378266 -0.96592583
vn -0.25660481 -0.03378266 -0.96592583
vn 0.49572241 0.06526310 0.86602542
vn 0.49572241 0.06526310 0.86602542
vn -0.49572241 -0.06526310 -0.86602542
vn -0.49572241 -0.06526310 -0.86602542
vn 0.70105738 0.09229596 0.70710678
vn 0.70105738 0.09229596 0.70710678
vn -0.70105738 -0.09229596 -0.70710678
vn -0.70105738 -0.09229596 -0.70710678
vn 0.85861643 0.11303900 0.50000002
vn 0.85861643 0.11303900 0.50000002
vn -0.85861643 -0.11303900 -0.50000002
vn -0.85861643 -0.11303900 -0.50000002
vn 0.95766221 0.12607860 0.25881900
vn 0.95766221 0.12607860 0.25881900
vn -0.95766221 -0.12607860 -0.25881900
vn -0.95766221 -0.12607860 -0.25881900
vn 0.99144486 0.13052619 0.00000000
vn 0.99144486 0.13052619 0.00000000
vn -0.99144486 -0.13052619 0.00000000
vn -0.99144486 -0.13052619 0.00000000
vn 0.95766221 0.12607860 -0.25881900
vn 0.95766221 0.12607860 -0.25881900
vn -0.95766221 -0.12607860 0.25881900
vn -0.95766221 -0.12607860 0.25881900
vn 0.85861643 0.11303900 -0.50000002
vn 0.85861643 0.11303900 -0.50000002
vn -0.85861643 -0.11303900 0.50000002
vn -0.85861643 -0.11303900 0.50000002
f 1//1 2//2 3//3
f 2//2 1//1 4//4
f 5//5 6//6 7//7
f 8//8 7//7 6//6
f 3//3 9//9 10//10
f 9//9 3//3 2//2
f 7//7 8//8 11//11
f 12//12 11//11 8//8
f 13//13 14//14 15//15
f 14//14 13//13 16//16
f 14//14 16//16 17//17
f 17//17 16//16 18//18
f 18//18 16//16 19//19
f 18//18 19//19 20//20
f 20//20 19//19 21//21
f 21//21 19//19 22//22
f 21//21 22//22 23//23
f 23//23 22//22 24//24
f 23//23 24//24 25//25
f 25//25 24//24 26//26
f 25//25 26//26 27//27
f 27//27 26//26 28//28
f 27//27 28//28 29//29
f 29//29 28//28 30//30
f 30//30 28//28 31//31
f 30//30 31//31 32//32
f 32//32 31//31 33//33
f 32//32 33//33 34//34
f 34//34 33//33 35//35
f 34//34 35//35 36//36
f 36//36 35//35 37//37
f 37//37 35//35 38//38
f 17//17 39//39 14//14
f 39//39 17//17 40//40
f 39//39 40//40 41//41
f 41//41 40//40 42//42
f 41//41 42//42 43//43
f 41//41 43//43 44//44
f 44//44 43//43 45//45
f 44//44 45//45 46//46
f 46//46 45//45 47//47
f 46//46 47//47 48//48
f 48//48 47//47 49//49
f 48//48 49//49 50//50
f 48//48 50//50 51//51
f 51//51 50//50 52//52
f 51//51 52//52 53//53
f 53//53 52//52 54//54
f 53//53 54//54 55//55
f 55//55 54//54 56//56
f 55//55 56//56 57//57
f 57//57 56//56 58//58
f 57//57 58//58 37//37
f 57//57 37//37 59//59
f 59//59 37//37 38//38
f 59//59 38//38 60//60
f 61//61 62//62 63//63
f 62//62 64//64 63//63
f 63//63 64//64 65//65
f 64//64 66//66 65//65
f 66//66 67//67 65//65
f 65//65 67//67 68//68
f 67//67 69//69 68//68
f 68//68 69//69 70//70
f 69//69 71//71 70//70
f 70//70 71//71 72//72
f 71//71 73//73 72//72
f 72//72 73//73 74//74
f 73//73 75//75 74//74
f 75//75 76//76 74//74
f 74//74 76//76 77//77
f 76//76 78//78 77//77
f 77//77 78//78 79//79
f 78//78 80//80 79//79
f 79//79 80//80 81//81
f 80//80 82//82 81//81
f 82//82 83//83 81//81
f 81//81 83//83 84//84
f 83//83 85//85 84//84
f 86//86 84//84 85//85
f 62//62 87//87 64//64
f 64//64 87//87 88//88
f 88//88 87//87 89//89
f 87//87 90//90 89//89
f 89//89 90//90 91//91
f 90//90 92//92 91//91
f 91//91 92//92 93//93
f 92//92 94//94 93//93
f 93//93 94//94 95//95
f 95//95 94//94 96//96
f 94//94 97//97 96//96
f 96//96 97//97 98//98
f 97//97 99//99 98//98
f 98//98 99//99 100//100
f 99//99 101//101 100//100
f 100//100 101//101 102//102
f 101//101 103//103 102//102
f 102//102 103//103 104//104
f 104//104 103//103 105//105
f 103//103 106//106 105//105
f 105//105 106//106 85//85
f 85//85 106//106 86//86
f 106//106 107//107 86//86
f 108//108 86//86 107//107
f 109//109 1//1 110//110
f 1//1 109//109 4//4
f 5//5 111//111 6//6
f 112//112 6//6 111//111
f 10//10 113//113 114//114
f 113//113 10//10 9//9
f 11//11 12//12 115//115
f 116//116 115//115 12//12
f 117//117 118//118 119//119
f 118//118 117//117 120//120
f 121//121 122//122 123//123
f 124//124 123//123 122//122
f 120//120 125//125 118//118
f 125//125 120//120 126//126
f 127//127 121//121 128//128
f 123//123 128//128 121//121
f 126//126 129//129 125//125
f 129//129 126//126 130//130
f 131//131 127//127 132//132
f 128//128 132//132 127//127
f 130//130 133//133 129//129
f 133//133 130//130 134//134
f 135//135 131//131 136//136
f 132//132 136//136 131//131
f 134//134 110//110 133//133
f 110//110 134//134 109//109
f 111//111 135//135 112//112
f 136//136 112//112 135//135
f 114//114 137//137 138//138
f 137//137 114//114 113//113
f 115//115 116//116 139//139
f 140//140 139//139 116//116
f 138//138 141//141 142//142
f 141//141 138//138 137//137
f 139//139 140//140 143//143
f 144//144 143//143 140//140
f 142//142 145//145 146//146
f 145//145 142//142 141//141
f 143//143 144//144 147//147
f 148//148 147//147 144//144
f 146//146 149//149 150//150
f 149//149 146//146 145//145
f 147//147 148//148 151//151
f 152//152 151//151 148//148
f 150//150 153//153 154//154
f 153//153 150//150 149//149
f 151//151 152//152 155//155
f 156//156 155//155 152//152
f 154//154 157//157 158//158
f 157//157 154//154 153//153
f 155//155 156//156 159//159
f 160//160 159//159 156//156
f 158//158 161//161 162//162
f 161//161 158//158 157//157
f 159//159 160//160 163//163
f 164//164 163//163 160//160
f 162//162 165//165 166//166
f 165//165 162//162 161//161
f 163//163 164//164 167//167
f 168//168 167//167 164//164
f 166//166 169//169 170//170
f 169//169 166//166 165//165
f 167//167 168//168 171//171
f 172//172 171//171 168//168
f 173//173 170//170 169//169
f 170//170 173//173 174//174
f 175//175 176//176 172//172
f 171//171 172//172 176//176
f 177//177 174//174 173//173
f 174//174 177//177 178//178
f 179//179 180//180 175//175
f 176//176 175//175 180//180
f 181//181 178//178 177//177
f 178//178 181//181 182//182
f 183//183 184//184 179//179
f 180//180 179//179 184//184
f 185//185 182//182 181//181
f 182//182 185//185 186//186
f 187//187 188//188 183//183
f 184//184 183//183 188//188
f 189//189 186//186 185//185
f 186//186 189//189 190//190
f 191//191 192//192 187//187
f 188//188 187//187 192//192
f 117//117 190//190 189//189
f 190//190 117//117 119//119
f 124//124 122//122 191//191
f 192//192 191//191 122//122

