mtllib material.mtl
usemtl material_0_0
v 0.15900700 0.40656400 -0.28350000
v 0.14865300 0.39856200 -0.28486300
v 0.15900700 0.39856200 -0.28350000
v 0.14865300 0.40656400 -0.28486300
v 0.14865300 0.40656400 -0.28486300
v 0.15900700 0.40656400 -0.28350000
v 0.14865300 0.39856200 -0.28486300
v 0.15900700 0.39856200 -0.28350000
v 0.13829800 0.39856200 -0.28350000
v 0.13829800 0.40656400 -0.28350000
v 0.13829800 0.40656400 -0.28350000
v 0.13829800 0.39856200 -0.28350000
v 0.18729700 0.39856200 -0.25521100
v 0.18729700 0.39856200 -0.23450200
v 0.18866000 0.39856200 -0.24485600
v 0.18330000 0.39856200 -0.26486000
v 0.18330000 0.39856200 -0.22485300
v 0.17694200 0.39856200 -0.27314500
v 0.17694200 0.39856200 -0.21656700
v 0.16865600 0.39856200 -0.27950300
v 0.16865600 0.39856200 -0.21020900
v 0.15900700 0.39856200 -0.20621200
v 0.15900700 0.39856200 -0.28350000
v 0.14865300 0.39856200 -0.28486300
v 0.14865300 0.39856200 -0.20484900
v 0.13829800 0.39856200 -0.28350000
v 0.13829800 0.39856200 -0.20621200
v 0.12864900 0.39856200 -0.27950300
v 0.12864900 0.39856200 -0.21020900
v 0.12036400 0.39856200 -0.21656700
v 0.12036400 0.39856200 -0.27314500
v 0.11400600 0.39856200 -0.26486000
v 0.11400600 0.39856200 -0.22485300
v 0.11000900 0.39856200 -0.25521100
v 0.11000900 0.39856200 -0.23450200
v 0.10864600 0.39856200 -0.24485600
v 0.10864600 0.39856200 -0.24485600
v 0.11000900 0.39856200 -0.25521100
v 0.11000900 0.39856200 -0.23450200
v 0.11400600 0.39856200 -0.22485300
v 0.11400600 0.39856200 -0.26486000
v 0.12036400 0.39856200 -0.21656700
v 0.12036400 0.39856200 -0.27314500
v 0.12864900 0.39856200 -0.27950300
v 0.12864900 0.39856200 -0.21020900
v 0.13829800 0.39856200 -0.20621200
v 0.13829800 0.39856200 -0.28350000
v 0.14865300 0.39856200 -0.20484900
v 0.14865300 0.39856200 -0.28486300
v 0.15900700 0.39856200 -0.20621200
v 0.15900700 0.39856200 -0.28350000
v 0.16865600 0.39856200 -0.27950300
v 0.16865600 0.39856200 -0.21020900
v 0.17694200 0.39856200 -0.21656700
v 0.17694200 0.39856200 -0.27314500
v 0.18330000 0.39856200 -0.22485300
v 0.18330000 0.39856200 -0.26486000
v 0.18729700 0.39856200 -0.23450200
v 0.18729700 0.39856200 -0.25521100
v 0.18866000 0.39856200 -0.24485600
v 0.16865600 0.40656400 -0.27950300
v 0.16865600 0.39856200 -0.27950300
v 0.16865600 0.40656400 -0.27950300
v 0.16865600 0.39856200 -0.27950300
v 0.12864900 0.39856200 -0.27950300
v 0.12864900 0.40656400 -0.27950300
v 0.12864900 0.40656400 -0.27950300
v 0.12864900 0.39856200 -0.27950300
v 0.12036400 0.39856200 -0.27314500
v 0.12036400 0.40656400 -0.27314500
v 0.12036400 0.40656400 -0.27314500
v 0.12036400 0.39856200 -0.27314500
v 0.11400600 0.40656400 -0.26486000
v 0.11400600 0.39856200 -0.26486000
v 0.11400600 0.39856200 -0.26486000
v 0.11400600 0.40656400 -0.26486000
v 0.11000900 0.40656400 -0.25521100
v 0.11000900 0.39856200 -0.25521100
v 0.11000900 0.39856200 -0.25521100
v 0.11000900 0.40656400 -0.25521100
v 0.10864600 0.40656400 -0.24485600
v 0.10864600 0.39856200 -0.24485600
v 0.10864600 0.39856200 -0.24485600
v 0.10864600 0.40656400 -0.24485600
v 0.11000900 0.40656400 -0.23450200
v 0.11000900 0.39856200 -0.23450200
v 0.11000900 0.39856200 -0.23450200
v 0.11000900 0.40656400 -0.23450200
v 0.11400600 0.40656400 -0.22485300
v 0.11400600 0.39856200 -0.22485300
v 0.11400600 0.39856200 -0.22485300
v 0.11400600 0.40656400 -0.22485300
v 0.12036400 0.40656400 -0.21656700
v 0.12036400 0.39856200 -0.21656700
v 0.12036400 0.39856200 -0.21656700
v 0.12036400 0.40656400 -0.21656700
v 0.12864900 0.39856200 -0.21020900
v 0.12864900 0.40656400 -0.21020900
v 0.12864900 0.40656400 -0.21020900
v 0.12864900 0.39856200 -0.21020900
v 0.13829800 0.39856200 -0.20621200
v 0.13829800 0.40656400 -0.20621200
v 0.13829800 0.40656400 -0.20621200
v 0.13829800 0.39856200 -0.20621200
v 0.14865300 0.39856200 -0.20484900
v 0.14865300 0.40656400 -0.20484900
v 0.14865300 0.40656400 -0.20484900
v 0.14865300 0.39856200 -0.20484900
v 0.15900700 0.39856200 -0.20621200
v 0.15900700 0.40656400 -0.20621200
v 0.15900700 0.40656400 -0.20621200
v 0.15900700 0.39856200 -0.20621200
v 0.16865600 0.39856200 -0.21020900
v 0.16865600 0.40656400 -0.21020900
v 0.16865600 0.40656400 -0.21020900
v 0.16865600 0.39856200 -0.21020900
v 0.17694200 0.39856200 -0.21656700
v 0.17694200 0.40656400 -0.21656700
v 0.17694200 0.40656400 -0.21656700
v 0.17694200 0.39856200 -0.21656700
v 0.18330000 0.40656400 -0.22485300
v 0.18330000 0.39856200 -0.22485300
v 0.18330000 0.40656400 -0.22485300
v 0.18330000 0.39856200 -0.22485300
v 0.18729700 0.40656400 -0.23450200
v 0.18729700 0.39856200 -0.23450200
v 0.18729700 0.40656400 -0.23450200
v 0.18729700 0.39856200 -0.23450200
v 0.18866000 0.40656400 -0.24485600
v 0.18866000 0.39856200 -0.24485600
v 0.18866000 0.40656400 -0.24485600
v 0.18866000 0.39856200 -0.24485600
v 0.18729700 0.40656400 -0.25521100
v 0.18729700 0.39856200 -0.25521100
v 0.18729700 0.40656400 -0.25521100
v 0.18729700 0.39856200 -0.25521100
v 0.18330000 0.40656400 -0.26486000
v 0.18330000 0.39856200 -0.26486000
v 0.18330000 0.40656400 -0.26486000
v 0.18330000 0.39856200 -0.26486000
v 0.17694200 0.40656400 -0.27314500
v 0.17694200 0.39856200 -0.27314500
v 0.17694200 0.40656400 -0.27314500
v 0.17694200 0.39856200 -0.27314500
vn -0.25881901 0.00000000 0.96592584
vn 0.00000000 0.00000000 1.00000000
vn -0.25881901 0.00000000 0.96592584
vn 0.00000000 0.00000000 1.00000000
vn 0.00000000 0.00000000 -1.00000000
vn 0.25881901 0.00000000 -0.96592584
vn 0.00000000 0.00000000 -1.00000000
vn 0.25881901 0.00000000 -0.96592584
vn 0.25881901 0.00000000 0.96592584
vn 0.25881901 0.00000000 0.96592584
vn -0.25881901 0.00000000 -0.96592584
vn -0.25881901 0.00000000 -0.96592584
vn 0.00000000 1.00000000 0.00000000
vn 0.00000000 1.00000000 0.00000000
vn 0.00000000 1.00000000 0.00000000
vn 0.00000000 1.00000000 0.00000000
vn 0.00000000 1.00000000 0.00000000
vn 0.00000000 1.00000000 0.00000000
vn 0.00000000 1.00000000 0.00000000
vn 0.00000000 1.00000000 0.00000000
vn 0.00000000 1.00000000 0.00000000
vn 0.00000000 1.00000000 0.00000000
vn 0.00000000 1.00000000 0.00000000
vn 0.00000000 1.00000000 0.00000000
vn 0.00000000 1.00000000 0.00000000
vn 0.00000000 1.00000000 0.00000000
vn 0.00000000 1.00000000 0.00000000
vn 0.00000000 1.00000000 0.00000000
vn 0.00000000 1.00000000 0.00000000
vn 0.00000000 1.00000000 0.00000000
vn 0.00000000 1.00000000 0.00000000
vn 0.00000000 1.00000000 0.00000000
vn 0.00000000 1.00000000 0.00000000
vn 0.00000000 1.00000000 0.00000000
vn 0.00000000 1.00000000 0.00000000
vn 0.00000000 1.00000000 0.00000000
vn 0.00000000 -1.00000000 0.00000000
vn 0.00000000 -1.00000000 0.00000000
vn 0.00000000 -1.00000000 0.00000000
vn 0.00000000 -1.00000000 0.00000000
vn 0.00000000 -1.00000000 0.00000000
vn 0.00000000 -1.00000000 0.00000000
vn 0.00000000 -1.00000000 0.00000000
vn 0.00000000 -1.00000000 0.00000000
vn 0.00000000 -1.00000000 0.00000000
vn 0.00000000 -1.00000000 0.00000000
vn 0.00000000 -1.00000000 0.00000000
vn 0.00000000 -1.00000000 0.00000000
vn 0.00000000 -1.00000000 0.00000000
vn 0.00000000 -1.00000000 0.00000000
vn 0.00000000 -1.00000000 0.00000000
vn 0.00000000 -1.00000000 0.00000000
vn 0.00000000 -1.00000000 0.00000000
vn 0.00000000 -1.00000000 0.00000000
vn 0.00000000 -1.00000000 0.00000000
vn 0.00000000 -1.00000000 0.00000000
vn 0.00000000 -1.00000000 0.00000000
vn 0.00000000 -1.00000000 0.00000000
vn 0.00000000 -1.00000000 0.00000000
vn 0.00000000 -1.00000000 0.00000000
vn -0.50000000 0.00000000 0.86602540
vn -0.50000000 0.00000000 0.86602540
vn 0.50000000 0.00000000 -0.86602540
vn 0.50000000 0.00000000 -0.86602540
vn 0.50000000 0.00000000 0.86602540
vn 0.50000000 0.00000000 0.86602540
vn -0.50000000 0.00000000 -0.86602540
vn -0.50000000 0.00000000 -0.86602540
vn 0.70710678 0.00000000 0.70710678
vn 0.70710678 0.00000000 0.70710678
vn -0.70710678 0.00000000 -0.70710678
vn -0.70710678 0.00000000 -0.70710678
vn 0.86602540 0.00000000 0.50000000
vn 0.86602540 0.00000000 0.50000000
vn -0.86602540 0.00000000 -0.50000000
vn -0.86602540 0.00000000 -0.50000000
vn 0.96592584 0.00000000 0.25881901
vn 0.96592584 0.00000000 0.25881901
vn -0.96592584 0.00000000 -0.25881901
vn -0.96592584 0.00000000 -0.25881901
vn 1.00000000 0.00000000 0.00000000
vn 1.00000000 0.00000000 0.00000000
vn -1.00000000 0.00000000 0.00000000
vn -1.00000000 0.00000000 0.00000000
vn 0.96592584 0.00000000 -0.25881901
vn 0.96592584 0.00000000 -0.25881901
vn -0.96592584 0.00000000 0.25881901
vn -0.96592584 0.00000000 0.25881901
vn 0.86602540 0.00000000 -0.50000000
vn 0.86602540 0.00000000 -0.50000000
vn -0.86602540 0.00000000 0.50000000
vn -0.86602540 0.00000000 0.50000000
vn 0.70710678 0.00000000 -0.70710678
vn 0.70710678 0.00000000 -0.70710678
vn -0.70710678 0.00000000 0.70710678
vn -0.70710678 0.00000000 0.70710678
vn 0.50000000 0.00000000 -0.86602540
vn 0.50000000 0.00000000 -0.86602540
vn -0.50000000 0.00000000 0.86602540
vn -0.50000000 0.00000000 0.86602540
vn 0.25881901 0.00000000 -0.96592584
vn 0.25881901 0.00000000 -0.96592584
vn -0.25881901 0.00000000 0.96592584
vn -0.25881901 0.00000000 0.96592584
vn 0.00000000 0.00000000 -1.00000000
vn 0.00000000 0.00000000 -1.00000000
vn 0.00000000 0.00000000 1.00000000
vn 0.00000000 0.00000000 1.00000000
vn -0.25881901 0.00000000 -0.96592584
vn -0.25881901 0.00000000 -0.96592584
vn 0.25881901 0.00000000 0.96592584
vn 0.25881901 0.00000000 0.96592584
vn -0.50000000 0.00000000 -0.86602540
vn -0.50000000 0.00000000 -0.86602540
vn 0.50000000 0.00000000 0.86602540
vn 0.50000000 0.00000000 0.86602540
vn -0.70710678 0.00000000 -0.70710678
vn -0.70710678 0.00000000 -0.70710678
vn 0.70710678 0.00000000 0.70710678
vn 0.70710678 0.00000000 0.70710678
vn -0.86602540 0.00000000 -0.50000000
vn -0.86602540 0.00000000 -0.50000000
vn 0.86602540 0.00000000 0.50000000
vn 0.86602540 0.00000000 0.50000000
vn -0.96592584 0.00000000 -0.25881901
vn -0.96592584 0.00000000 -0.25881901
vn 0.96592584 0.00000000 0.25881901
vn 0.96592584 0.00000000 0.25881901
vn -1.00000000 0.00000000 0.00000000
vn -1.00000000 0.00000000 0.00000000
vn 1.00000000 0.00000000 0.00000000
vn 1.00000000 0.00000000 0.00000000
vn -0.96592584 0.00000000 0.25881901
vn -0.96592584 0.00000000 0.25881901
vn 0.96592584 0.00000000 -0.25881901
vn 0.96592584 0.00000000 -0.25881901
vn -0.86602540 0.00000000 0.50000000
vn -0.86602540 0.00000000 0.50000000
vn 0.86602540 0.00000000 -0.50000000
vn 0.86602540 0.00000000 -0.50000000
vn -0.70710678 0.00000000 0.70710678
vn -0.70710678 0.00000000 0.70710678
vn 0.70710678 0.00000000 -0.70710678
vn 0.70710678 0.00000000 -0.70710678
f 1//1 2//2 3//3
f 2//2 1//1 4//4
f 5//5 6//6 7//7
f 8//8 7//7 6//6
f 4//4 9//9 2//2
f 9//9 4//4 10//10
f 11//11 5//5 12//12
f 7//7 12//12 5//5
f 13//13 14//14 15//15
f 14//14 13//13 16//16
f 14//14 16//16 17//17
f 17//17 16//16 18//18
f 17//17 18//18 19//19
f 19//19 18//18 20//20
f 19//19 20//20 21//21
f 21//21 20//20 22//22
f 22//22 20//20 23//23
f 22//22 23//23 24//24
f 22//22 24//24 25//25
f 25//25 24//24 26//26
f 25//25 26//26 27//27
f 27//27 26//26 28//28
f 27//27 28//28 29//29
f 29//29 28//28 30//30
f 30//30 28//28 31//31
f 30//30 31//31 32//32
f 30//30 32//32 33//33
f 33//33 32//32 34//34
f 33//33 34//34 35//35
f 35//35 34//34 36//36
f 37//37 38//38 39//39
f 39//39 38//38 40//40
f 38//38 41//41 40//40
f 40//40 41//41 42//42
f 41//41 43//43 42//42
f 43//43 44//44 42//42
f 42//42 44//44 45//45
f 45//45 44//44 46//46
f 44//44 47//47 46//46
f 46//46 47//47 48//48
f 47//47 49//49 48//48
f 48//48 49//49 50//50
f 49//49 51//51 50//50
f 51//51 52//52 50//50
f 50//50 52//52 53//53
f 53//53 52//52 54//54
f 52//52 55//55 54//54
f 54//54 55//55 56//56
f 55//55 57//57 56//56
f 56//56 57//57 58//58
f 57//57 59//59 58//58
f 60//60 58//58 59//59
f 61//61 3//3 62//62
f 3//3 61//61 1//1
f 6//6 63//63 8//8
f 64//64 8//8 63//63
f 10//10 65//65 9//9
f 65//65 10//10 66//66
f 67//67 11//11 68//68
f 12//12 68//68 11//11
f 66//66 69//69 65//65
f 69//69 66//66 70//70
f 71//71 67//67 72//72
f 68//68 72//72 67//67
f 73//73 69//69 70//70
f 69//69 73//73 74//74
f 75//75 76//76 72//72
f 71//71 72//72 76//76
f 77//77 74//74 73//73
f 74//74 77//77 78//78
f 79//79 80//80 75//75
f 76//76 75//75 80//80
f 81//81 78//78 77//77
f 78//78 81//81 82//82
f 83//83 84//84 79//79
f 80//80 79//79 84//84
f 85//85 82//82 81//81
f 82//82 85//85 86//86
f 87//87 88//88 83//83
f 84//84 83//83 88//88
f 89//89 86//86 85//85
f 86//86 89//89 90//90
f 91//91 92//92 87//87
f 88//88 87//87 92//92
f 93//93 90//90 89//89
f 90//90 93//93 94//94
f 95//95 96//96 91//91
f 92//92 91//91 96//96
f 93//93 97//97 94//94
f 97//97 93//93 98//98
f 99//99 96//96 100//100
f 95//95 100//100 96//96
f 98//98 101//101 97//97
f 101//101 98//98 102//102
f 103//103 99//99 104//104
f 100//100 104//104 99//99
f 102//102 105//105 101//101
f 105//105 102//102 106//106
f 107//107 103//103 108//108
f 104//104 108//108 103//103
f 106//106 109//109 105//105
f 109//109 106//106 110//110
f 111//111 107//107 112//112
f 108//108 112//112 107//107
f 110//110 113//113 109//109
f 113//113 110//110 114//114
f 115//115 111//111 116//116
f 112//112 116//116 111//111
f 114//114 117//117 113//113
f 117//117 114//114 118//118
f 119//119 115//115 120//120
f 116//116 120//120 115//115
f 117//117 121//121 122//122
f 121//121 117//117 118//118
f 119//119 120//120 123//123
f 124//124 123//123 120//120
f 122//122 125//125 126//126
f 125//125 122//122 121//121
f 123//123 124//124 127//127
f 128//128 127//127 124//124
f 126//126 129//129 130//130
f 129//129 126//126 125//125
f 127//127 128//128 131//131
f 132//132 131//131 128//128
f 130//130 133//133 134//134
f 133//133 130//130 129//129
f 131//131 132//132 135//135
f 136//136 135//135 132//132
f 134//134 137//137 138//138
f 137//137 134//134 133//133
f 135//135 136//136 139//139
f 140//140 139//139 136//136
f 138//138 141//141 142//142
f 141//141 138//138 137//137
f 139//139 140//140 143//143
f 144//144 143//143 140//140
f 141//141 62//62 142//142
f 62//62 141//141 61//61
f 63//63 143//143 64//64
f 144//144 64//64 143//143

