# https://github.com/mikedh/trimesh
mtllib material.mtl
usemtl material_0
v 0.48589823 0.18826063 0.25290845
v 0.48589823 0.18826063 -0.25290505
v 0.47587355 0.18826063 -0.28297909
v 0.44580291 0.18900069 -0.29300038
v 0.44580291 0.18900069 -0.29300038
v -0.47587355 0.18826063 -0.28297909
v -0.48589484 0.18900069 -0.25290505
v -0.44579951 0.18900069 -0.29300038
v -0.48589484 0.18900069 0.25290845
v -0.47587355 0.18826063 0.28297909
v 0.44580291 -0.15039905 -0.29300038
v -0.44579951 -0.15039905 -0.29300038
v -0.44579951 0.18900069 -0.29300038
v 0.44580291 0.18900069 -0.29300038
v 0.48644479 -0.18453321 -0.28794900
v 0.49553252 -0.18453321 -0.26068581
v 0.48212667 -0.18900069 -0.25850978
v 0.47584639 -0.18900069 -0.27735061
v 0.45700556 -0.18900069 -0.28363088
v 0.45918160 -0.18453321 -0.29703673
v 0.48644479 -0.18453321 -0.28794900
v 0.49553252 -0.18453321 0.26068581
v 0.48644479 -0.18453321 0.28794900
v 0.47584639 -0.18900069 0.27735061
v 0.48212667 -0.18900069 0.25850978
v -0.45700217 -0.18900069 -0.28363088
v -0.48212328 -0.18900069 0.25850978
v -0.48212328 -0.18900069 -0.25850978
v -0.47584300 -0.18900069 -0.27735061
v -0.49552912 -0.18453321 -0.26068581
v -0.48644139 -0.18453321 -0.28794900
v 0.48644479 -0.18453321 0.28794900
v 0.45918160 -0.18453321 0.29703673
v 0.45700556 -0.18900069 0.28363088
v -0.48644139 -0.18453321 -0.28794900
v -0.45917820 -0.18453321 -0.29703673
v -0.45917820 -0.18453321 0.29703673
v -0.48644139 -0.18453321 0.28794900
v -0.47584300 -0.18900069 0.27735061
v -0.45700217 -0.18900069 0.28363088
v -0.48644139 -0.18453321 0.28794900
v -0.49552912 -0.18453321 0.26068581
v 0.44580291 -0.15039905 -0.29300038
v 0.44580291 0.18900069 -0.29300038
v 0.47587355 0.18826063 -0.28297909
v 0.47587355 -0.15113911 -0.28297909
v 0.50000000 -0.17112397 0.26141228
v 0.48997871 -0.17112397 0.29148293
v 0.48644479 -0.18453321 0.28794900
v 0.49553252 -0.18453321 0.26068581
v -0.45990468 -0.17112397 0.30150761
v -0.48997532 -0.17112397 0.29148293
v -0.48644139 -0.18453321 0.28794900
v -0.45917820 -0.18453321 0.29703673
v 0.45990468 -0.17112397 -0.30150761
v 0.48997871 -0.17112397 -0.29148293
v 0.48644479 -0.18453321 -0.28794900
v 0.45918160 -0.18453321 -0.29703673
v -0.50000000 -0.17112397 -0.26141228
v -0.48997532 -0.17112397 -0.29148293
v -0.48644139 -0.18453321 -0.28794900
v -0.49552912 -0.18453321 -0.26068581
v 0.48997871 -0.17112397 0.29148293
v 0.45990468 -0.17112397 0.30150761
v 0.45918160 -0.18453321 0.29703673
v 0.48644479 -0.18453321 0.28794900
v -0.48997532 -0.17112397 0.29148293
v -0.50000000 -0.17112397 0.26141228
v -0.49552912 -0.18453321 0.26068581
v -0.48644139 -0.18453321 0.28794900
v 0.48997871 -0.17112397 -0.29148293
v 0.50000000 -0.17112397 -0.26141228
v 0.49553252 -0.18453321 -0.26068581
v 0.48644479 -0.18453321 -0.28794900
v -0.48997532 -0.17112397 -0.29148293
v -0.45990468 -0.17112397 -0.30150761
v -0.45917820 -0.18453321 -0.29703673
v -0.48644139 -0.18453321 -0.28794900
v -0.49552912 -0.18453321 0.26068581
v -0.49552912 -0.18453321 -0.26068581
v 0.45918160 -0.18453321 0.29703673
v -0.45917820 -0.18453321 0.29703673
v 0.49553252 -0.18453321 -0.26068581
v 0.49553252 -0.18453321 0.26068581
v -0.45917820 -0.18453321 -0.29703673
v 0.45918160 -0.18453321 -0.29703673
v -0.48997532 -0.13214551 -0.29148293
v -0.48997532 -0.17112397 -0.29148293
v -0.50000000 -0.17112397 -0.26141228
v -0.50000000 -0.13214551 -0.26141228
v -0.50000000 -0.17112397 0.26141228
v -0.50000000 -0.13214551 0.26141228
v -0.49552912 -0.18453321 -0.26068581
v -0.49552912 -0.18453321 0.26068581
v -0.48997532 -0.17112397 0.29148293
v -0.48997532 -0.13214551 0.29148293
v -0.45990468 -0.17112397 0.30150761
v -0.45990468 -0.13214551 0.30150761
v -0.48997532 -0.13214551 0.29148293
v -0.48997532 -0.17112397 0.29148293
v 0.50000000 -0.17112397 0.26141228
v 0.50000000 -0.13214551 0.26141228
v 0.48997871 -0.13214551 0.29148293
v 0.48997871 -0.17112397 0.29148293
v 0.45990468 -0.17112397 -0.30150761
v 0.45990468 -0.13214551 -0.30150761
v 0.48997871 -0.13214551 -0.29148293
v 0.48997871 -0.17112397 -0.29148293
v -0.45990468 -0.13214551 -0.30150761
v -0.45990468 -0.17112397 -0.30150761
v -0.48997532 -0.17112397 -0.29148293
v -0.48997532 -0.13214551 -0.29148293
v -0.44579951 0.18900069 -0.29300038
v -0.44579951 -0.15039905 -0.29300038
v -0.47587355 -0.15113911 -0.28297909
v -0.47587355 0.18826063 -0.28297909
v -0.44579951 -0.15113911 0.29300377
v -0.44579951 0.18826063 0.29300377
v -0.47587355 0.18826063 0.28297909
v -0.47587355 -0.15113911 0.28297909
v -0.44579951 -0.15113911 0.29300377
v 0.44580291 -0.15113911 0.29300377
v 0.44580291 0.18826063 0.29300377
v -0.44579951 0.18826063 0.29300377
v 0.47587355 -0.15113911 0.28297909
v 0.47587355 0.18826063 0.28297909
v -0.45990468 -0.13214551 0.30150761
v -0.45990468 -0.17112397 0.30150761
v 0.45990468 -0.17112397 0.30150761
v 0.45990468 -0.13214551 0.30150761
v 0.48997871 -0.17112397 0.29148293
v 0.48997871 -0.13214551 0.29148293
v -0.45917820 -0.18453321 0.29703673
v 0.45918160 -0.18453321 0.29703673
v 0.44580291 0.18826063 0.29300377
v 0.47587355 0.18826063 0.28297909
v -0.44579951 0.18826063 0.29300377
v 0.50000000 -0.13214551 0.26141228
v 0.50000000 -0.17112397 0.26141228
v 0.50000000 -0.17112397 -0.26141228
v 0.50000000 -0.13214551 -0.26141228
v 0.49553252 -0.18453321 0.26068581
v 0.49553252 -0.18453321 -0.26068581
v 0.48997871 -0.17112397 -0.29148293
v 0.48997871 -0.13214551 -0.29148293
v -0.47587355 -0.15113911 0.28297909
v -0.47587355 0.18826063 0.28297909
v -0.48589484 0.18900069 0.25290845
v -0.48589484 -0.15039905 0.25290845
v -0.48589484 0.18900069 -0.25290505
v -0.48589484 -0.15039905 -0.25290505
v -0.47587355 0.18826063 -0.28297909
v -0.47587355 -0.15113911 -0.28297909
v 0.45918160 -0.18453321 -0.29703673
v -0.45917820 -0.18453321 -0.29703673
v -0.45990468 -0.17112397 -0.30150761
v 0.45990468 -0.17112397 -0.30150761
v -0.45990468 -0.13214551 -0.30150761
v 0.45990468 -0.13214551 -0.30150761
v 0.47587355 0.18826063 0.28297909
v 0.47587355 -0.15113911 0.28297909
v 0.48589823 -0.15113911 0.25290845
v 0.48589823 0.18826063 0.25290845
v 0.48589823 -0.15113911 -0.25290505
v 0.48589823 0.18826063 -0.25290505
v 0.47587355 -0.15113911 -0.28297909
v 0.47587355 0.18826063 -0.28297909
v 0.44580291 0.18900069 -0.29300038
v -0.48589484 0.18900069 -0.25290505
v -0.47587355 0.18826063 0.28297909
v -0.44579951 0.18826063 0.29300377
v 0.48589823 0.18826063 0.25290845
vn 0.00619988 0.99998076 0.00020000
vn 0.00000000 1.00000000 0.00000000
vn 0.01240029 0.99992309 -0.00020000
vn 0.00600003 0.99990511 0.01240006
vn 0.00590003 0.99990571 0.01240007
vn -0.00050000 0.99970215 0.02440005
vn 0.02429936 0.99967351 -0.00789979
vn 0.00000000 0.99727321 0.07379802
vn 0.07379802 0.99727321 0.00000000
vn 0.03690069 0.99931869 0.00070001
vn 0.16019756 0.00000000 -0.98708497
vn -0.16019756 0.00000000 -0.98708497
vn -0.16019756 0.00000000 -0.98708497
vn 0.16019756 0.00000000 -0.98708497
vn 0.20200536 -0.95832545 -0.20200536
vn 0.30850119 -0.94990367 -0.05010019
vn 0.20789378 -0.97757074 -0.03369899
vn 0.13549575 -0.98146921 -0.13549575
vn 0.03369899 -0.97757074 -0.20789378
vn 0.05010019 -0.94990367 -0.30850119
vn 0.20200536 -0.95832545 -0.20200536
vn 0.30850119 -0.94990367 0.05010019
vn 0.20200536 -0.95832545 0.20200536
vn 0.13549575 -0.98146921 0.13549575
vn 0.20789378 -0.97757074 0.03369899
vn -0.02530003 -0.98740134 -0.15620021
vn -0.15610265 -0.98741676 0.02530043
vn -0.20789378 -0.97757074 -0.03369899
vn -0.13549575 -0.98146921 -0.13549575
vn -0.30850119 -0.94990367 -0.05010019
vn -0.20200536 -0.95832545 -0.20200536
vn 0.20200536 -0.95832545 0.20200536
vn 0.05010019 -0.94990367 0.30850119
vn 0.03369899 -0.97757074 0.20789378
vn -0.20200536 -0.95832545 -0.20200536
vn -0.05010019 -0.94990367 -0.30850119
vn -0.05010019 -0.94990367 0.30850119
vn -0.20200536 -0.95832545 0.20200536
vn -0.13549575 -0.98146921 0.13549575
vn -0.03369899 -0.97757074 0.20789378
vn -0.20200536 -0.95832545 0.20200536
vn -0.30850119 -0.94990367 0.05010019
vn 0.16019756 0.00000000 -0.98708497
vn 0.16019756 0.00000000 -0.98708497
vn 0.31619777 0.00000000 -0.94869330
vn 0.31619777 0.00000000 -0.94869330
vn 0.97400952 -0.16220159 0.15810155
vn 0.93641038 -0.16020178 0.31220346
vn 0.90000790 -0.31620278 0.30000263
vn 0.93521015 -0.31990347 0.15180165
vn -0.15810155 -0.16220159 0.97400952
vn -0.31220346 -0.16020178 0.93641038
vn -0.30000263 -0.31620278 0.90000790
vn -0.15180165 -0.31990347 0.93521015
vn 0.15810155 -0.16220159 -0.97400952
vn 0.31220346 -0.16020178 -0.93641038
vn 0.30000263 -0.31620278 -0.90000790
vn 0.15180165 -0.31990347 -0.93521015
vn -0.97400952 -0.16220159 -0.15810155
vn -0.93641038 -0.16020178 -0.31220346
vn -0.90000790 -0.31620278 -0.30000263
vn -0.93518023 -0.31999324 -0.15179679
vn 0.31211320 -0.16020678 0.93643961
vn 0.15810155 -0.16220159 0.97400952
vn 0.15180165 -0.31990347 0.93521015
vn 0.30000263 -0.31620278 0.90000790
vn -0.93641038 -0.16020178 0.31220346
vn -0.97400952 -0.16220159 0.15810155
vn -0.93518023 -0.31999324 0.15179679
vn -0.90000790 -0.31620278 0.30000263
vn 0.93641038 -0.16020178 -0.31220346
vn 0.97400952 -0.16220159 -0.15810155
vn 0.93521015 -0.31990347 -0.15180165
vn 0.90000790 -0.31620278 -0.30000263
vn -0.31220346 -0.16020178 -0.93641038
vn -0.15810155 -0.16220159 -0.97400952
vn -0.15180165 -0.31990347 -0.93521015
vn -0.30000263 -0.31620278 -0.90000790
vn -0.30850119 -0.94990367 0.05010019
vn -0.30850119 -0.94990367 -0.05010019
vn 0.05010019 -0.94990367 0.30850119
vn -0.05010019 -0.94990367 0.30850119
vn 0.30850119 -0.94990367 -0.05010019
vn 0.30850119 -0.94990367 0.05010019
vn -0.05010019 -0.94990367 -0.30850119
vn 0.05010019 -0.94990367 -0.30850119
vn -0.94869330 0.00000000 -0.31619777
vn -0.93643961 -0.16020678 -0.31211320
vn -0.97400952 -0.16220159 -0.15810155
vn -0.98708497 0.00000000 -0.16019756
vn -0.97402492 -0.16220415 0.15800404
vn -0.98708497 0.00000000 0.16019756
vn -0.93522434 -0.31990833 -0.15170395
vn -0.93519442 -0.31999809 0.15169910
vn -0.93643961 -0.16020678 0.31211320
vn -0.94869330 0.00000000 0.31619777
vn -0.15810155 -0.16220159 0.97400952
vn -0.16019756 -0.00010000 0.98708497
vn -0.31619777 0.00000000 0.94869330
vn -0.31211320 -0.16020678 0.93643961
vn 0.97400952 -0.16220159 0.15810155
vn 0.98708497 0.00000000 0.16019756
vn 0.94869330 0.00000000 0.31619777
vn 0.93643961 -0.16020678 0.31211320
vn 0.15810155 -0.16220159 -0.97400952
vn 0.16019756 0.00000000 -0.98708497
vn 0.31619777 0.00000000 -0.94869330
vn 0.31211320 -0.16020678 -0.93643961
vn -0.16019756 0.00000000 -0.98708497
vn -0.15810155 -0.16220159 -0.97400952
vn -0.31211320 -0.16020678 -0.93643961
vn -0.31619777 0.00000000 -0.94869330
vn -0.16019756 0.00000000 -0.98708497
vn -0.16019756 0.00000000 -0.98708497
vn -0.31619777 0.00000000 -0.94869330
vn -0.31619777 0.00000000 -0.94869330
vn -0.16019756 0.00000000 0.98708497
vn -0.16019756 0.00000000 0.98708497
vn -0.31619777 0.00000000 0.94869330
vn -0.31619777 0.00000000 0.94869330
vn -0.16019756 0.00000000 0.98708497
vn 0.16019756 0.00000000 0.98708497
vn 0.16019756 0.00000000 0.98708497
vn -0.16019756 0.00000000 0.98708497
vn 0.31619777 0.00000000 0.94869330
vn 0.31619777 0.00000000 0.94869330
vn -0.16019756 0.00000000 0.98708497
vn -0.15800404 -0.16220415 0.97402492
vn 0.15810155 -0.16220159 0.97400952
vn 0.16019756 0.00000000 0.98708497
vn 0.31211320 -0.16020678 0.93643961
vn 0.31619777 0.00000000 0.94869330
vn -0.15179679 -0.31999324 0.93518023
vn 0.15170395 -0.31990833 0.93522434
vn 0.00000000 1.00000000 0.00000000
vn 0.00000000 1.00000000 0.00000000
vn 0.00000000 0.99999976 0.00070000
vn 0.98708497 0.00000000 0.16019756
vn 0.97402492 -0.16220415 0.15800404
vn 0.97402492 -0.16220415 -0.15800404
vn 0.98708497 0.00000000 -0.16019756
vn 0.93522434 -0.31990833 0.15170395
vn 0.93522434 -0.31990833 -0.15170395
vn 0.93643961 -0.16020678 -0.31211320
vn 0.94869330 0.00000000 -0.31619777
vn -0.94869330 0.00000000 0.31619777
vn -0.94869330 0.00000000 0.31619777
vn -0.98711658 0.00000000 0.16000269
vn -0.98706915 0.00000000 0.16029499
vn -0.98710078 0.00000000 -0.16010013
vn -0.98708497 0.00000000 -0.16019756
vn -0.94869330 0.00000000 -0.31619777
vn -0.94869330 0.00000000 -0.31619777
vn 0.15170395 -0.31990833 -0.93522434
vn -0.15170395 -0.31990833 -0.93522434
vn -0.15810155 -0.16220159 -0.97400952
vn 0.15800404 -0.16220415 -0.97402492
vn -0.16019756 0.00000000 -0.98708497
vn 0.16019756 0.00000000 -0.98708497
vn 0.94869330 0.00000000 0.31619777
vn 0.94869330 0.00000000 0.31619777
vn 0.98708497 0.00000000 0.16019756
vn 0.98708497 0.00000000 0.16019756
vn 0.98708497 0.00000000 -0.16019756
vn 0.98708497 0.00000000 -0.16019756
vn 0.94869330 0.00000000 -0.31619777
vn 0.94869330 0.00000000 -0.31619777
vn 0.00590003 0.99990571 0.01240007
vn 0.02429936 0.99967351 -0.00789979
vn 0.03690069 0.99931869 0.00070001
vn -0.00020000 0.99999958 0.00090000
vn 0.00619988 0.99998076 0.00020000
vt 0.00003100 0.04303000
vt 0.00003100 0.58593700
vt 0.01030700 0.61816400
vt 0.04122900 0.62890600
vt 0.04122900 0.62890600
vt 0.98925800 0.61816400
vt 1.00000000 0.58593700
vt 0.95849600 0.62890600
vt 1.00000000 0.04303000
vt 0.98925800 0.01075700
vt 0.95849600 0.08776900
vt 0.04122900 0.08776900
vt 0.04122900 0.62695300
vt 0.95849600 0.62695300
vt 0.98681300 0.58359400
vt 0.99588600 0.55661800
vt 0.98193400 0.55419900
vt 0.97566400 0.57284100
vt 0.95683000 0.57904600
vt 0.95918300 0.59312900
vt 0.98643800 0.58414800
vt 0.99563100 0.04012400
vt 0.98653000 0.01313900
vt 0.97538400 0.02390900
vt 0.98167200 0.04255600
vt 0.04296900 0.57861300
vt 0.01757800 0.04209900
vt 0.01784000 0.55374200
vt 0.02412800 0.57238900
vt 0.00388100 0.55617400
vt 0.01298200 0.58315900
vt 0.98617200 0.01260200
vt 0.95890800 0.00359600
vt 0.95654300 0.01768500
vt 0.01334000 0.58369600
vt 0.04060400 0.59270200
vt 0.04032900 0.00316900
vt 0.01307400 0.01215000
vt 0.02384800 0.02345700
vt 0.04268200 0.01725200
vt 0.01269900 0.01270400
vt 0.00362600 0.03968000
vt 0.58056600 0.65087900
vt 0.58056600 1.01757800
vt 0.61084000 1.01757800
vt 0.61084000 0.65087900
vt 1.00976600 0.03875700
vt 1.00097700 0.00861400
vt 0.98812600 0.01332000
vt 0.99609400 0.04064900
vt 0.03921300 -0.01077800
vt 0.00873400 -0.00202100
vt 0.01347200 0.01139600
vt 0.04110500 0.00345700
vt 0.96044700 0.60741800
vt 0.99120900 0.59862800
vt 0.98638400 0.58528900
vt 0.95849400 0.59325800
vt -0.01047500 0.55761700
vt -0.00164700 0.58789100
vt 0.01170200 0.58311200
vt 0.00369800 0.55566400
vt 0.99121700 -0.00204100
vt 0.96045400 -0.01079800
vt 0.95551400 0.00298400
vt 0.98340400 0.01092300
vt -0.00164700 0.00861400
vt -0.01047500 0.03875700
vt 0.00324900 0.04358000
vt 0.01125300 0.01625100
vt 1.00097700 0.58789100
vt 1.00976600 0.55761700
vt 0.99624900 0.55263000
vt 0.98828100 0.58007800
vt 0.00872900 0.59864200
vt 0.03920800 0.60743100
vt 0.04407500 0.59342600
vt 0.01644200 0.58545800
vt 0.00359200 0.03995300
vt 0.00385600 0.55590200
vt 0.95872500 0.00355600
vt 0.04051300 0.00312100
vt 0.99592000 0.55634500
vt 0.99565600 0.04039600
vt 0.04078700 0.59274200
vt 0.95899900 0.59317700
vt 0.98486300 0.65087900
vt 0.98486300 0.60986300
vt 0.95556600 0.60986300
vt 0.95556600 0.65087900
vt 0.64013700 0.60986300
vt 0.64013700 0.65087900
vt 0.95566700 0.60644500
vt 0.64111300 0.60644500
vt 0.61084000 0.60986300
vt 0.61084000 0.65087900
vt 0.58154300 0.60986300
vt 0.58154300 0.65087900
vt 0.61084000 0.65087900
vt 0.61084000 0.60986300
vt -0.05340600 0.02760300
vt -0.05340600 0.08776900
vt -0.00666800 0.08776900
vt -0.00666800 0.02760300
vt 0.58154300 0.60986300
vt 0.58154300 0.65087900
vt 0.61084000 0.65087900
vt 0.61084000 0.60986300
vt 1.01367200 0.65087900
vt 1.01367200 0.60986300
vt 0.98486300 0.60986300
vt 0.98486300 0.65087900
vt 1.01464800 1.01757800
vt 1.01464800 0.65087900
vt 0.98486300 0.65087900
vt 0.98486300 1.01757800
vt 0.58056600 0.65087900
vt 0.58056600 1.01757800
vt 0.61084000 1.01757800
vt 0.61084000 0.65087900
vt 0.95849600 0.08776900
vt 0.04122900 0.08776900
vt 0.04122900 0.62695300
vt 0.95849600 0.62695300
vt -0.00686300 0.08776900
vt -0.00686300 0.62695300
vt 0.95947300 0.08776900
vt 0.95947300 0.02760300
vt 0.04007000 0.02760300
vt 0.04007000 0.08776900
vt -0.00666800 0.02760300
vt -0.00666800 0.08776900
vt 0.95948700 0.02034000
vt 0.04153400 0.02034000
vt 0.04123200 0.00000000
vt 0.01030700 0.01075700
vt 0.95849600 0.00003100
vt 0.95556600 0.65087900
vt 0.95556600 0.60986300
vt 0.64013700 0.60986300
vt 0.64013700 0.65087900
vt 0.95566700 0.60644500
vt 0.64111300 0.60644500
vt 0.61084000 0.60986300
vt 0.61084000 0.65087900
vt 0.61084000 0.65087900
vt 0.61084000 1.01757800
vt 0.64111300 1.01757800
vt 0.64111300 0.65087900
vt 0.95459000 1.01757800
vt 0.95459000 0.65087900
vt 0.98486300 1.01757800
vt 0.98486300 0.65087900
vt 0.95948700 0.02034000
vt 0.04153400 0.02034000
vt 0.04007000 0.02760300
vt 0.95947300 0.02760300
vt 0.04007000 0.08776900
vt 0.95947300 0.08776900
vt 0.98779300 1.01757800
vt 0.98779300 0.65087900
vt 0.95459000 0.65087900
vt 0.95459000 1.01757800
vt 0.64111300 0.65087900
vt 0.64111300 1.01757800
vt 0.61084000 0.65087900
vt 0.61084000 1.01757800
vt 0.04153400 0.62893800
vt 0.99999900 0.58593900
vt 0.98943600 0.01079200
vt 0.95849500 0.00003300
vt 0.00003000 0.04303200
f 1/1/1 2/2/2 3/3/3
f 1/1/1 3/3/3 5/5/5
f 6/6/6 7/7/7 4/4/4
f 8/8/8 6/6/6 4/4/4
f 7/7/7 9/9/9 10/10/10
f 11/11/11 12/12/12 13/13/13
f 11/11/11 13/13/13 14/14/14
f 15/15/15 16/16/16 17/17/17
f 15/15/15 17/17/17 18/18/18
f 18/18/18 19/19/19 20/20/20
f 18/18/18 20/20/20 21/21/21
f 22/22/22 23/23/23 24/24/24
f 22/22/22 24/24/24 25/25/25
f 26/26/26 27/27/27 28/28/28
f 26/26/26 28/28/28 29/29/29
f 29/29/29 28/28/28 30/30/30
f 29/29/29 30/30/30 31/31/31
f 32/32/32 33/33/33 34/34/34
f 32/32/32 34/34/34 24/24/24
f 35/35/35 36/36/36 26/26/26
f 35/35/35 26/26/26 29/29/29
f 37/37/37 38/38/38 39/39/39
f 37/37/37 39/39/39 40/40/40
f 27/27/27 39/39/39 41/41/41
f 27/27/27 41/41/41 42/42/42
f 43/43/43 44/44/44 45/45/45
f 43/43/43 45/45/45 46/46/46
f 47/47/47 48/48/48 49/49/49
f 47/47/47 49/49/49 50/50/50
f 51/51/51 52/52/52 53/53/53
f 51/51/51 53/53/53 54/54/54
f 55/55/55 56/56/56 57/57/57
f 55/55/55 57/57/57 58/58/58
f 59/59/59 60/60/60 61/61/61
f 59/59/59 61/61/61 62/62/62
f 63/63/63 64/64/64 65/65/65
f 63/63/63 65/65/65 66/66/66
f 67/67/67 68/68/68 69/69/69
f 67/67/67 69/69/69 70/70/70
f 71/71/71 72/72/72 73/73/73
f 71/71/71 73/73/73 74/74/74
f 75/75/75 76/76/76 77/77/77
f 75/75/75 77/77/77 78/78/78
f 28/28/28 27/27/27 79/79/79
f 28/28/28 79/79/79 80/80/80
f 40/40/40 34/34/34 81/81/81
f 40/40/40 81/81/81 82/82/82
f 25/25/25 17/17/17 83/83/83
f 25/25/25 83/83/83 84/84/84
f 19/19/19 26/26/26 85/85/85
f 19/19/19 85/85/85 86/86/86
f 87/87/87 88/88/88 89/89/89
f 87/87/87 89/89/89 90/90/90
f 90/90/90 89/89/89 91/91/91
f 90/90/90 91/91/91 92/92/92
f 93/93/93 94/94/94 91/91/91
f 93/93/93 91/91/91 89/89/89
f 92/92/92 91/91/91 95/95/95
f 92/92/92 95/95/95 96/96/96
f 97/97/97 98/98/98 99/99/99
f 97/97/97 99/99/99 100/100/100
f 101/101/101 102/102/102 103/103/103
f 101/101/101 103/103/103 104/104/104
f 105/105/105 106/106/106 107/107/107
f 105/105/105 107/107/107 108/108/108
f 109/109/109 110/110/110 111/111/111
f 109/109/109 111/111/111 112/112/112
f 113/113/113 114/114/114 115/115/115
f 113/113/113 115/115/115 116/116/116
f 117/117/117 118/118/118 119/119/119
f 117/117/117 119/119/119 120/120/120
f 121/121/121 122/122/122 123/123/123
f 121/121/121 123/123/123 124/124/124
f 123/123/123 122/122/122 125/125/125
f 123/123/123 125/125/125 126/126/126
f 127/127/127 128/128/128 129/129/129
f 127/127/127 129/129/129 130/130/130
f 131/131/131 132/132/132 130/130/130
f 131/131/131 130/130/130 129/129/129
f 129/129/129 128/128/128 133/133/133
f 129/129/129 133/133/133 134/134/134
f 135/135/135 136/136/136 1/1/1
f 135/135/135 1/1/1 137/137/137
f 138/138/138 139/139/139 140/140/140
f 138/138/138 140/140/140 141/141/141
f 142/142/142 143/143/143 140/140/140
f 142/142/142 140/140/140 139/139/139
f 141/141/141 140/140/140 144/144/144
f 141/141/141 144/144/144 145/145/145
f 146/146/146 147/147/147 148/148/148
f 146/146/146 148/148/148 149/149/149
f 148/148/148 150/150/150 151/151/151
f 148/148/148 151/151/151 149/149/149
f 151/151/151 150/150/150 152/152/152
f 151/151/151 152/152/152 153/153/153
f 154/154/154 155/155/155 156/156/156
f 154/154/154 156/156/156 157/157/157
f 156/156/156 158/158/158 159/159/159
f 156/156/156 159/159/159 157/157/157
f 160/160/160 161/161/161 162/162/162
f 160/160/160 162/162/162 163/163/163
f 162/162/162 164/164/164 165/165/165
f 162/162/162 165/165/165 163/163/163
f 165/165/165 164/164/164 166/166/166
f 165/165/165 166/166/166 167/167/167
f 26/26/26 39/39/39 27/27/27
f 39/39/39 26/26/26 40/40/40
f 40/40/40 26/26/26 19/19/19
f 40/40/40 19/19/19 34/34/34
f 34/34/34 19/19/19 18/18/18
f 34/34/34 18/18/18 24/24/24
f 24/24/24 18/18/18 17/17/17
f 24/24/24 17/17/17 25/25/25
f 170/170/170 168/168/168 169/169/169
f 168/168/168 170/170/170 171/171/171
f 168/168/168 171/171/171 172/172/172