# Blender v2.79 (sub 0) OBJ File: ''
# www.blender.org
mtllib original-73.mtl
o original-73
v 0.245295 -0.352226 -0.061123
v 0.052010 -0.352226 -0.061123
v 0.148653 -0.364950 -0.061123
v 0.335352 -0.314924 -0.061123
v -0.038047 -0.314924 -0.061123
v 0.412686 -0.255584 -0.061123
v -0.115380 -0.255584 -0.061123
v 0.472026 -0.178250 -0.061123
v -0.174721 -0.178250 -0.061123
v 0.509329 -0.088193 -0.061123
v -0.212023 -0.088193 -0.061123
v 0.201450 -0.042420 -0.061123
v 0.522052 0.008450 -0.061123
v 0.201450 0.057598 -0.061123
v 0.509329 0.105092 -0.061123
v 0.101432 0.057598 -0.061123
v 0.101432 -0.042420 -0.061123
v -0.224746 0.008450 -0.061123
v -0.212023 0.105092 -0.061123
v 0.472026 0.195149 -0.061123
v -0.174721 0.195149 -0.061123
v 0.412686 0.272483 -0.061123
v -0.115380 0.272483 -0.061123
v 0.335352 0.331823 -0.061123
v -0.038047 0.331823 -0.061123
v 0.245295 0.369126 -0.061123
v 0.052010 0.369126 -0.061123
v 0.148653 0.381849 -0.061123
v 0.148653 0.381849 -0.061123
v 0.245295 0.369126 -0.061123
v 0.052010 0.369126 -0.061123
v -0.038047 0.331823 -0.061123
v 0.335352 0.331823 -0.061123
v -0.115380 0.272483 -0.061123
v 0.412686 0.272483 -0.061123
v -0.174721 0.195149 -0.061123
v 0.472026 0.195149 -0.061123
v -0.212023 0.105092 -0.061123
v 0.509329 0.105092 -0.061123
v 0.101432 0.057598 -0.061123
v -0.224746 0.008450 -0.061123
v 0.101432 -0.042420 -0.061123
v 0.201450 -0.042420 -0.061123
v -0.212023 -0.088193 -0.061123
v 0.201450 0.057598 -0.061123
v 0.522052 0.008450 -0.061123
v 0.509329 -0.088193 -0.061123
v -0.174721 -0.178250 -0.061123
v 0.472026 -0.178250 -0.061123
v -0.115380 -0.255584 -0.061123
v 0.412686 -0.255584 -0.061123
v -0.038047 -0.314924 -0.061123
v 0.335352 -0.314924 -0.061123
v 0.052010 -0.352226 -0.061123
v 0.245295 -0.352226 -0.061123
v 0.148653 -0.364950 -0.061123
v 0.245295 -0.352226 -0.060123
v 0.052010 -0.352226 -0.060123
v 0.148653 -0.364950 -0.060123
v 0.335352 -0.314924 -0.060123
v -0.038047 -0.314924 -0.060123
v 0.412686 -0.255584 -0.060123
v -0.115380 -0.255584 -0.060123
v 0.472026 -0.178250 -0.060123
v -0.174721 -0.178250 -0.060123
v 0.509329 -0.088193 -0.060123
v -0.212023 -0.088193 -0.060123
v 0.201450 -0.042420 -0.060123
v 0.522052 0.008450 -0.060123
v 0.201450 0.057598 -0.060123
v 0.509329 0.105092 -0.060123
v 0.101432 0.057598 -0.060123
v 0.101432 -0.042420 -0.060123
v -0.224746 0.008450 -0.060123
v -0.212023 0.105092 -0.060123
v 0.472026 0.195149 -0.060123
v -0.174721 0.195149 -0.060123
v 0.412686 0.272483 -0.060123
v -0.115380 0.272483 -0.060123
v 0.335352 0.331823 -0.060123
v -0.038047 0.331823 -0.060123
v 0.245295 0.369126 -0.060123
v 0.052010 0.369126 -0.060123
v 0.148653 0.381849 -0.060123
v 0.148653 0.381849 -0.060123
v 0.245295 0.369126 -0.060123
v 0.052010 0.369126 -0.060123
v -0.038047 0.331823 -0.060123
v 0.335352 0.331823 -0.060123
v -0.115380 0.272483 -0.060123
v 0.412686 0.272483 -0.060123
v -0.174721 0.195149 -0.060123
v 0.472026 0.195149 -0.060123
v -0.212023 0.105092 -0.060123
v 0.509329 0.105092 -0.060123
v 0.101432 0.057598 -0.060123
v -0.224746 0.008450 -0.060123
v 0.101432 -0.042420 -0.060123
v 0.201450 -0.042420 -0.060123
v -0.212023 -0.088193 -0.060123
v 0.201450 0.057598 -0.060123
v 0.522052 0.008450 -0.060123
v 0.509329 -0.088193 -0.060123
v -0.174721 -0.178250 -0.060123
v 0.472026 -0.178250 -0.060123
v -0.115380 -0.255584 -0.060123
v 0.412686 -0.255584 -0.060123
v -0.038047 -0.314924 -0.060123
v 0.335352 -0.314924 -0.060123
v 0.052010 -0.352226 -0.060123
v 0.245295 -0.352226 -0.060123
v 0.148653 -0.364950 -0.060123
vn 0.1900 -0.7092 -0.6789
vn 0.0000 -0.7343 -0.6789
vn -0.1900 -0.7092 -0.6789
vn 0.3671 -0.6359 -0.6789
vn -0.3671 -0.6359 -0.6789
vn 0.5192 -0.5192 -0.6789
vn -0.5192 -0.5192 -0.6789
vn 0.6359 -0.3671 -0.6789
vn -0.6359 -0.3671 -0.6789
vn 0.7092 -0.1900 -0.6789
vn -0.7092 -0.1900 -0.6789
vn -0.3015 0.3015 -0.9045
vn 0.7343 0.0000 -0.6789
vn -0.3015 -0.3015 -0.9045
vn 0.7092 0.1900 -0.6789
vn 0.3015 -0.3015 -0.9045
vn -0.7343 0.0000 -0.6789
vn 0.3015 0.3015 -0.9045
vn -0.7092 0.1900 -0.6789
vn 0.6359 0.3671 -0.6789
vn -0.6359 0.3671 -0.6789
vn 0.5192 0.5192 -0.6789
vn -0.5192 0.5192 -0.6789
vn 0.3671 0.6359 -0.6789
vn -0.3671 0.6359 -0.6789
vn 0.1900 0.7092 -0.6789
vn -0.1900 0.7092 -0.6789
vn 0.0000 0.7343 -0.6789
vn 0.1900 -0.7092 0.6789
vn -0.1900 -0.7092 0.6789
vn 0.0000 -0.7343 0.6789
vn 0.3671 -0.6359 0.6789
vn -0.3671 -0.6359 0.6789
vn 0.5192 -0.5192 0.6789
vn -0.5192 -0.5192 0.6789
vn 0.6359 -0.3671 0.6789
vn -0.6359 -0.3671 0.6789
vn 0.7092 -0.1900 0.6789
vn -0.7092 -0.1900 0.6789
vn -0.3015 0.3015 0.9045
vn 0.7343 0.0000 0.6789
vn -0.3015 -0.3015 0.9045
vn 0.7092 0.1900 0.6789
vn 0.3015 -0.3015 0.9045
vn 0.3015 0.3015 0.9045
vn -0.7343 0.0000 0.6789
vn -0.7092 0.1900 0.6789
vn 0.6359 0.3671 0.6789
vn -0.6359 0.3671 0.6789
vn 0.5192 0.5192 0.6789
vn -0.5192 0.5192 0.6789
vn 0.3671 0.6359 0.6789
vn -0.3671 0.6359 0.6789
vn 0.1900 0.7092 0.6789
vn -0.1900 0.7092 0.6789
vn 0.0000 0.7343 0.6789
usemtl material_0_0.013
s 1
f 1//1 3//2 2//3
f 2//3 4//4 1//1
f 2//3 5//5 4//4
f 5//5 6//6 4//4
f 5//5 7//7 6//6
f 7//7 8//8 6//6
f 7//7 9//9 8//8
f 9//9 10//10 8//8
f 9//9 11//11 10//10
f 11//11 12//12 10//10
f 12//12 13//13 10//10
f 12//12 14//14 13//13
f 14//14 15//15 13//13
f 14//14 16//16 15//15
f 11//11 18//17 17//18
f 17//18 12//12 11//11
f 18//17 16//16 17//18
f 18//17 19//19 16//16
f 19//19 15//15 16//16
f 19//19 20//20 15//15
f 19//19 21//21 20//20
f 21//21 22//22 20//20
f 21//21 23//23 22//22
f 23//23 24//24 22//22
f 23//23 25//25 24//24
f 25//25 26//26 24//24
f 25//25 27//27 26//26
f 27//27 28//28 26//26
f 29//28 30//26 31//27
f 31//27 30//26 32//25
f 30//26 33//24 32//25
f 32//25 33//24 34//23
f 33//24 35//22 34//23
f 34//23 35//22 36//21
f 35//22 37//20 36//21
f 36//21 37//20 38//19
f 37//20 39//15 38//19
f 39//15 40//16 38//19
f 38//19 40//16 41//17
f 40//16 42//18 41//17
f 43//12 44//11 42//18
f 41//17 42//18 44//11
f 40//16 39//15 45//14
f 39//15 46//13 45//14
f 45//14 46//13 43//12
f 46//13 47//10 43//12
f 43//12 47//10 44//11
f 44//11 47//10 48//9
f 47//10 49//8 48//9
f 48//9 49//8 50//7
f 49//8 51//6 50//7
f 50//7 51//6 52//5
f 51//6 53//4 52//5
f 52//5 53//4 54//3
f 53//4 55//1 54//3
f 56//2 54//3 55//1
f 57//29 58//30 59//31
f 58//30 57//29 60//32
f 58//30 60//32 61//33
f 61//33 60//32 62//34
f 61//33 62//34 63//35
f 63//35 62//34 64//36
f 63//35 64//36 65//37
f 65//37 64//36 66//38
f 65//37 66//38 67//39
f 67//39 66//38 68//40
f 68//40 66//38 69//41
f 68//40 69//41 70//42
f 70//42 69//41 71//43
f 70//42 71//43 72//44
f 67//39 73//45 74//46
f 73//45 67//39 68//40
f 74//46 73//45 72//44
f 74//46 72//44 75//47
f 75//47 72//44 71//43
f 75//47 71//43 76//48
f 75//47 76//48 77//49
f 77//49 76//48 78//50
f 77//49 78//50 79//51
f 79//51 78//50 80//52
f 79//51 80//52 81//53
f 81//53 80//52 82//54
f 81//53 82//54 83//55
f 83//55 82//54 84//56
f 85//56 87//55 86//54
f 87//55 88//53 86//54
f 86//54 88//53 89//52
f 88//53 90//51 89//52
f 89//52 90//51 91//50
f 90//51 92//49 91//50
f 91//50 92//49 93//48
f 92//49 94//47 93//48
f 93//48 94//47 95//43
f 95//43 94//47 96//44
f 94//47 97//46 96//44
f 96//44 97//46 98//45
f 99//40 98//45 100//39
f 97//46 100//39 98//45
f 96//44 101//42 95//43
f 95//43 101//42 102//41
f 101//42 99//40 102//41
f 102//41 99//40 103//38
f 99//40 100//39 103//38
f 100//39 104//37 103//38
f 103//38 104//37 105//36
f 104//37 106//35 105//36
f 105//36 106//35 107//34
f 106//35 108//33 107//34
f 107//34 108//33 109//32
f 108//33 110//30 109//32
f 109//32 110//30 111//29
f 112//31 111//29 110//30
f 53//4 51//6 107//34 109//32
f 46//13 39//15 95//43 102//41
f 27//27 25//25 81//53 83//55
f 24//24 26//26 82//54 80//52
f 22//22 24//24 80//52 78//50
f 45//14 43//12 99//40 101//42
f 33//24 30//26 86//54 89//52
f 8//8 10//10 66//38 64//36
f 36//21 38//19 94//47 92//49
f 29//28 31//27 87//55 85//56
f 51//6 49//8 105//36 107//34
f 6//6 8//8 64//36 62//34
f 43//12 42//18 98//45 99//40
f 34//23 36//21 92//49 90//51
f 20//20 22//22 78//50 76//48
f 47//10 46//13 102//41 103//38
f 54//3 56//2 112//31 110//30
f 4//4 6//6 62//34 60//32
f 12//12 17//18 73//45 68//40
f 49//8 47//10 103//38 105//36
f 10//10 13//13 69//41 66//38
f 11//11 9//9 65//37 67//39
f 1//1 4//4 60//32 57//29
f 28//28 27//27 83//55 84//56
f 52//5 54//3 110//30 108//33
f 13//13 15//15 71//43 69//41
f 56//2 55//1 111//29 112//31
f 48//9 50//7 106//35 104//37
f 38//19 41//17 97//46 94//47
f 39//15 37//20 93//48 95//43
f 40//16 45//14 101//42 96//44
f 26//26 28//28 84//56 82//54
f 50//7 52//5 108//33 106//35
f 23//23 21//21 77//49 79//51
f 17//18 16//16 72//44 73//45
f 25//25 23//23 79//51 81//53
f 37//20 35//22 91//50 93//48
f 44//11 48//9 104//37 100//39
f 30//26 29//28 85//56 86//54
f 7//7 5//5 61//33 63//35
f 31//27 32//25 88//53 87//55
f 9//9 7//7 63//35 65//37
f 21//21 19//19 75//47 77//49
f 15//15 20//20 76//48 71//43
f 41//17 44//11 100//39 97//46
f 32//25 34//23 90//51 88//53
f 35//22 33//24 89//52 91//50
f 14//14 12//12 68//40 70//42
f 19//19 18//17 74//46 75//47
f 55//1 53//4 109//32 111//29
f 2//3 3//2 59//31 58//30
f 42//18 40//16 96//44 98//45
f 5//5 2//3 58//30 61//33
f 3//2 1//1 57//29 59//31
f 16//16 14//14 70//42 72//44
f 18//17 11//11 67//39 74//46
