mtllib material.mtl
usemtl material_0_0
v -0.61440000 0.12302500 -0.42907600
v -0.61776900 0.11483500 -0.42947500
v -0.61314400 0.12302500 -0.43967000
v -0.61651300 0.11483500 -0.44007000
v -0.61314400 0.12302500 -0.43967000
v -0.61651300 0.11483500 -0.44007000
v -0.60910600 0.12067700 -0.44319200
v -0.61200900 0.11362000 -0.44353600
v -0.61891800 0.10604600 -0.42961200
v -0.61766200 0.10604600 -0.44020600
v -0.60904200 0.13005800 -0.42844100
v -0.60778500 0.13005800 -0.43903500
v -0.60778500 0.13005800 -0.43903500
v -0.60448800 0.12673700 -0.44264500
v -0.58394100 0.13530800 -0.44020800
v -0.59146200 0.13431100 -0.44110000
v -0.57642000 0.13431100 -0.43931700
v -0.56941200 0.13138700 -0.43848600
v -0.59847000 0.13138700 -0.44193100
v -0.56339400 0.12673700 -0.43777200
v -0.60448800 0.12673700 -0.44264500
v -0.55877600 0.12067700 -0.43722500
v -0.60910600 0.12067700 -0.44319200
v -0.61200900 0.11362000 -0.44353600
v -0.55587300 0.11362000 -0.43688100
v -0.55488300 0.10604600 -0.43676300
v -0.61299900 0.10604600 -0.44365400
v -0.61200900 0.09847300 -0.44353600
v -0.55587300 0.09847300 -0.43688100
v -0.60910600 0.09141600 -0.44319200
v -0.55877600 0.09141600 -0.43722500
v -0.60448800 0.08535500 -0.44264500
v -0.56339400 0.08535500 -0.43777200
v -0.59847000 0.08070500 -0.44193100
v -0.56941200 0.08070500 -0.43848600
v -0.57642000 0.07778200 -0.43931700
v -0.59146200 0.07778200 -0.44110000
v -0.58394100 0.07678500 -0.44020800
v -0.61299900 0.10604600 -0.44365400
v -0.61766200 0.10604600 -0.44020600
v -0.61776900 0.09725800 -0.42947500
v -0.61651300 0.09725800 -0.44007000
v -0.60205800 0.13545400 -0.42761300
v -0.60080100 0.13545400 -0.43820700
v -0.60080100 0.13545400 -0.43820700
v -0.59847000 0.13138700 -0.44193100
v -0.59266900 0.13884600 -0.43724300
v -0.59146200 0.13431100 -0.44110000
v -0.58394100 0.14000400 -0.43620800
v -0.58394100 0.13530800 -0.44020800
v -0.57521300 0.13884600 -0.43517300
v -0.57642000 0.13431100 -0.43931700
v -0.56708100 0.13545400 -0.43420900
v -0.56941200 0.13138700 -0.43848600
v -0.56009700 0.13005800 -0.43338100
v -0.56339400 0.12673700 -0.43777200
v -0.55473800 0.12302500 -0.43274500
v -0.55877600 0.12067700 -0.43722500
v -0.55136900 0.11483500 -0.43234600
v -0.55587300 0.11362000 -0.43688100
v -0.55488300 0.10604600 -0.43676300
v -0.55022000 0.10604600 -0.43221000
v -0.55587300 0.09847300 -0.43688100
v -0.55136900 0.09725800 -0.43234600
v -0.55877600 0.09141600 -0.43722500
v -0.55473800 0.08906800 -0.43274500
v -0.56339400 0.08535500 -0.43777200
v -0.56009700 0.08203500 -0.43338100
v -0.56941200 0.08070500 -0.43848600
v -0.56708100 0.07663900 -0.43420900
v -0.57642000 0.07778200 -0.43931700
v -0.57521300 0.07324600 -0.43517300
v -0.58394100 0.07678500 -0.44020800
v -0.58394100 0.07208900 -0.43620800
v -0.59146200 0.07778200 -0.44110000
v -0.59266900 0.07324600 -0.43724300
v -0.59847000 0.08070500 -0.44193100
v -0.60080100 0.07663900 -0.43820700
v -0.60448800 0.08535500 -0.44264500
v -0.60778500 0.08203500 -0.43903500
v -0.60910600 0.09141600 -0.44319200
v -0.61314400 0.08906800 -0.43967000
v -0.61200900 0.09847300 -0.44353600
v -0.61651300 0.09725800 -0.44007000
v -0.61440000 0.08906800 -0.42907600
v -0.61314400 0.08906800 -0.43967000
v -0.59392500 0.13884600 -0.42664800
v -0.59266900 0.13884600 -0.43724300
v -0.58519700 0.14000400 -0.42561300
v -0.58394100 0.14000400 -0.43620800
v -0.57647000 0.13884600 -0.42457900
v -0.57521300 0.13884600 -0.43517300
v -0.56833700 0.13545400 -0.42361400
v -0.56708100 0.13545400 -0.43420900
v -0.56135300 0.13005800 -0.42278600
v -0.56009700 0.13005800 -0.43338100
v -0.55599400 0.12302500 -0.42215100
v -0.55473800 0.12302500 -0.43274500
v -0.55262500 0.11483500 -0.42175100
v -0.55136900 0.11483500 -0.43234600
v -0.55147600 0.10604600 -0.42161500
v -0.55022000 0.10604600 -0.43221000
v -0.55262500 0.09725800 -0.42175100
v -0.55136900 0.09725800 -0.43234600
v -0.55599400 0.08906800 -0.42215100
v -0.55473800 0.08906800 -0.43274500
v -0.56135300 0.08203500 -0.42278600
v -0.56009700 0.08203500 -0.43338100
v -0.56833700 0.07663900 -0.42361400
v -0.56708100 0.07663900 -0.43420900
v -0.57647000 0.07324600 -0.42457900
v -0.57521300 0.07324600 -0.43517300
v -0.58519700 0.07208900 -0.42561300
v -0.58394100 0.07208900 -0.43620800
v -0.59392500 0.07324600 -0.42664800
v -0.59266900 0.07324600 -0.43724300
v -0.60205800 0.07663900 -0.42761300
v -0.60080100 0.07663900 -0.43820700
v -0.60904200 0.08203500 -0.42844100
v -0.60778500 0.08203500 -0.43903500
vn 0.86000141 -0.50000000 0.10196850
vn 0.95920694 -0.25881901 0.11373110
vn 0.86000141 -0.50000000 0.10196850
vn 0.95920694 -0.25881901 0.11373110
vn 0.49703411 -0.34160201 0.79766231
vn 0.56956168 -0.17800169 0.80244307
vn 0.49944241 -0.33769720 0.79782071
vn 0.57021862 -0.17568981 0.80248602
vn 0.99304409 0.00000000 0.11774310
vn 0.99304409 0.00000000 0.11774310
vn 0.70218819 -0.70710679 0.08325696
vn 0.70218819 -0.70710679 0.08325696
vn 0.38359619 -0.47805449 0.79013788
vn 0.38827900 -0.47374170 0.79044811
vn -0.11774310 0.00000000 0.99304409
vn -0.11774310 0.00000000 0.99304409
vn -0.11774310 0.00000000 0.99304409
vn -0.11774310 0.00000000 0.99304409
vn -0.11774310 0.00000000 0.99304409
vn -0.11774310 0.00000000 0.99304409
vn -0.11774310 0.00000000 0.99304409
vn -0.11774310 0.00000000 0.99304409
vn -0.11774310 0.00000000 0.99304409
vn -0.11774310 0.00000000 0.99304409
vn -0.11774310 0.00000000 0.99304409
vn -0.11774310 0.00000000 0.99304409
vn -0.11774310 0.00000000 0.99304409
vn -0.11774310 0.00000000 0.99304409
vn -0.11774310 0.00000000 0.99304409
vn -0.11774310 0.00000000 0.99304409
vn -0.11774310 0.00000000 0.99304409
vn -0.11774310 0.00000000 0.99304409
vn -0.11774310 0.00000000 0.99304409
vn -0.11774310 0.00000000 0.99304409
vn -0.11774310 0.00000000 0.99304409
vn -0.11774310 0.00000000 0.99304409
vn -0.11774310 0.00000000 0.99304409
vn -0.11774310 0.00000000 0.99304409
vn 0.59451760 0.00000000 0.80408260
vn 0.59451760 0.00000000 0.80408260
vn 0.95920694 0.25881901 0.11373110
vn 0.95920694 0.25881901 0.11373110
vn 0.49652201 -0.86602542 0.05887156
vn 0.49652201 -0.86602542 0.05887156
vn 0.23925071 -0.57758972 0.78048012
vn 0.24602220 -0.57412230 0.78093320
vn 0.07598672 -0.63417752 0.76944453
vn 0.08406052 -0.63249371 0.76999061
vn -0.09363618 -0.64567102 0.75785302
vn -0.08536594 -0.64615296 0.75841875
vn -0.25769780 -0.61343360 0.74651930
vn -0.25032129 -0.61586228 0.74702938
vn -0.40576239 -0.54165028 0.73618738
vn -0.40007490 -0.54532880 0.73658440
vn -0.52933158 -0.43653979 0.72748958
vn -0.52567250 -0.44051400 0.72774710
vn -0.62197750 -0.30563590 0.72092350
vn -0.62019704 -0.30893882 0.72104954
vn -0.67927459 -0.15723100 0.71684339
vn -0.67880554 -0.15909361 0.71687674
vn -0.69865360 0.00000000 0.71546010
vn -0.69865360 0.00000000 0.71546010
vn -0.67880554 0.15909361 0.71687674
vn -0.67927459 0.15723100 0.71684339
vn -0.62019704 0.30893882 0.72104954
vn -0.62197750 0.30563590 0.72092350
vn -0.52567250 0.44051400 0.72774710
vn -0.52933158 0.43653979 0.72748958
vn -0.40007490 0.54532880 0.73658440
vn -0.40576239 0.54165028 0.73618738
vn -0.25032129 0.61586228 0.74702938
vn -0.25769780 0.61343360 0.74651930
vn -0.08536594 0.64615296 0.75841875
vn -0.09363618 0.64567102 0.75785302
vn 0.08406052 0.63249371 0.76999061
vn 0.07598672 0.63417752 0.76944453
vn 0.24602220 0.57412230 0.78093320
vn 0.23925071 0.57758972 0.78048012
vn 0.38827900 0.47374170 0.79044811
vn 0.38359619 0.47805449 0.79013788
vn 0.49944241 0.33769720 0.79782071
vn 0.49703411 0.34160201 0.79766231
vn 0.57021862 0.17568981 0.80248602
vn 0.56956168 0.17800169 0.80244307
vn 0.86000141 0.50000000 0.10196850
vn 0.86000141 0.50000000 0.10196850
vn 0.25701871 -0.96592583 0.03047416
vn 0.25701871 -0.96592583 0.03047416
vn 0.00000000 -1.00000000 0.00000000
vn 0.00000000 -1.00000000 0.00000000
vn -0.25701871 -0.96592583 -0.03047416
vn -0.25701871 -0.96592583 -0.03047416
vn -0.49652201 -0.86602542 -0.05887156
vn -0.49652201 -0.86602542 -0.05887156
vn -0.70218819 -0.70710679 -0.08325696
vn -0.70218819 -0.70710679 -0.08325696
vn -0.86000141 -0.50000000 -0.10196850
vn -0.86000141 -0.50000000 -0.10196850
vn -0.95920694 -0.25881901 -0.11373110
vn -0.95920694 -0.25881901 -0.11373110
vn -0.99304409 0.00000000 -0.11774310
vn -0.99304409 0.00000000 -0.11774310
vn -0.95920694 0.25881901 -0.11373110
vn -0.95920694 0.25881901 -0.11373110
vn -0.86000141 0.50000000 -0.10196850
vn -0.86000141 0.50000000 -0.10196850
vn -0.70218819 0.70710679 -0.08325696
vn -0.70218819 0.70710679 -0.08325696
vn -0.49652201 0.86602542 -0.05887156
vn -0.49652201 0.86602542 -0.05887156
vn -0.25701871 0.96592583 -0.03047416
vn -0.25701871 0.96592583 -0.03047416
vn 0.00000000 1.00000000 0.00000000
vn 0.00000000 1.00000000 0.00000000
vn 0.25701871 0.96592583 0.03047416
vn 0.25701871 0.96592583 0.03047416
vn 0.49652201 0.86602542 0.05887156
vn 0.49652201 0.86602542 0.05887156
vn 0.70218819 0.70710679 0.08325696
vn 0.70218819 0.70710679 0.08325696
f 1//1 2//2 3//3
f 4//4 3//3 2//2
f 5//5 6//6 7//7
f 8//8 7//7 6//6
f 2//2 9//9 4//4
f 10//10 4//4 9//9
f 11//11 1//1 12//12
f 3//3 12//12 1//1
f 13//13 5//5 14//14
f 7//7 14//14 5//5
f 15//15 16//16 17//17
f 17//17 16//16 18//18
f 16//16 19//19 18//18
f 18//18 19//19 20//20
f 19//19 21//21 20//20
f 20//20 21//21 22//22
f 21//21 23//23 22//22
f 23//23 24//24 22//22
f 22//22 24//24 25//25
f 25//25 24//24 26//26
f 24//24 27//27 26//26
f 27//27 28//28 26//26
f 26//26 28//28 29//29
f 28//28 30//30 29//29
f 29//29 30//30 31//31
f 30//30 32//32 31//31
f 31//31 32//32 33//33
f 32//32 34//34 33//33
f 33//33 34//34 35//35
f 35//35 34//34 36//36
f 34//34 37//37 36//36
f 38//38 36//36 37//37
f 8//8 6//6 39//39
f 40//40 39//39 6//6
f 41//41 42//42 9//9
f 10//10 9//9 42//42
f 11//11 12//12 43//43
f 44//44 43//43 12//12
f 45//45 13//13 46//46
f 14//14 46//46 13//13
f 47//47 45//45 48//48
f 46//46 48//48 45//45
f 49//49 47//47 50//50
f 48//48 50//50 47//47
f 49//49 50//50 51//51
f 52//52 51//51 50//50
f 51//51 52//52 53//53
f 54//54 53//53 52//52
f 53//53 54//54 55//55
f 56//56 55//55 54//54
f 55//55 56//56 57//57
f 58//58 57//57 56//56
f 57//57 58//58 59//59
f 60//60 59//59 58//58
f 60//60 61//61 59//59
f 62//62 59//59 61//61
f 61//61 63//63 62//62
f 64//64 62//62 63//63
f 63//63 65//65 64//64
f 66//66 64//64 65//65
f 65//65 67//67 66//66
f 68//68 66//66 67//67
f 67//67 69//69 68//68
f 70//70 68//68 69//69
f 69//69 71//71 70//70
f 72//72 70//70 71//71
f 71//71 73//73 72//72
f 74//74 72//72 73//73
f 75//75 76//76 73//73
f 74//74 73//73 76//76
f 77//77 78//78 75//75
f 76//76 75//75 78//78
f 79//79 80//80 77//77
f 78//78 77//77 80//80
f 81//81 82//82 79//79
f 80//80 79//79 82//82
f 83//83 84//84 81//81
f 82//82 81//81 84//84
f 39//39 40//40 83//83
f 84//84 83//83 40//40
f 85//85 86//86 41//41
f 42//42 41//41 86//86
f 43//43 44//44 87//87
f 88//88 87//87 44//44
f 87//87 88//88 89//89
f 90//90 89//89 88//88
f 89//89 90//90 91//91
f 92//92 91//91 90//90
f 91//91 92//92 93//93
f 94//94 93//93 92//92
f 93//93 94//94 95//95
f 96//96 95//95 94//94
f 97//97 95//95 98//98
f 96//96 98//98 95//95
f 99//99 97//97 100//100
f 98//98 100//100 97//97
f 101//101 99//99 102//102
f 100//100 102//102 99//99
f 101//101 102//102 103//103
f 104//104 103//103 102//102
f 103//103 104//104 105//105
f 106//106 105//105 104//104
f 105//105 106//106 107//107
f 108//108 107//107 106//106
f 109//109 107//107 110//110
f 108//108 110//110 107//107
f 111//111 109//109 112//112
f 110//110 112//112 109//109
f 113//113 111//111 114//114
f 112//112 114//114 111//111
f 115//115 113//113 116//116
f 114//114 116//116 113//113
f 117//117 115//115 118//118
f 116//116 118//118 115//115
f 119//119 117//117 120//120
f 118//118 120//120 117//117
f 119//119 120//120 85//85
f 86//86 85//85 120//120

