mtllib material.mtl
usemtl material_0_0
v 0.39219600 0.21555900 0.04656200
v 0.38477600 0.21658000 0.04656200
v 0.37886000 0.21580100 0.04656200
v 0.39772000 0.21979700 0.04656200
v 0.39028800 0.21886300 0.04656200
v 0.39502200 0.22249600 0.04656200
v 0.40195800 0.22532100 0.04656200
v 0.39865400 0.22722900 0.04656200
v 0.40462300 0.23175400 0.04656200
v 0.40093700 0.23274100 0.04656200
v 0.40553200 0.23865700 0.04656200
v 0.40171600 0.23865700 0.04656200
v 0.40462300 0.24556000 0.04656200
v 0.40093700 0.24457200 0.04656200
v 0.39865400 0.25008500 0.04656200
v 0.40195800 0.25199300 0.04656200
v 0.39502200 0.25481800 0.04656200
v 0.39772000 0.25751700 0.04656200
v 0.39028800 0.25845000 0.04656200
v 0.39219600 0.26175500 0.04656200
v 0.38477600 0.26073400 0.04656200
v 0.37886000 0.26151300 0.04656200
v 0.36552500 0.26175500 0.04656200
v 0.37195700 0.26441900 0.04656200
v 0.38576300 0.26441900 0.04656200
v 0.37886000 0.26532800 0.04656200
v 0.38576300 0.21289400 0.04656200
v 0.37195700 0.21289400 0.04656200
v 0.37886000 0.21198600 0.04656200
v 0.36552500 0.21555900 0.04656200
v 0.37294500 0.21658000 0.04656200
v 0.36000100 0.21979700 0.04656200
v 0.36743300 0.21886300 0.04656200
v 0.36269900 0.22249600 0.04656200
v 0.35576200 0.22532100 0.04656200
v 0.35906700 0.22722900 0.04656200
v 0.35309800 0.23175400 0.04656200
v 0.35678400 0.23274100 0.04656200
v 0.35218900 0.23865700 0.04656200
v 0.35600500 0.23865700 0.04656200
v 0.35309800 0.24556000 0.04656200
v 0.35678400 0.24457200 0.04656200
v 0.35906700 0.25008500 0.04656200
v 0.35576200 0.25199300 0.04656200
v 0.36269900 0.25481800 0.04656200
v 0.36000100 0.25751700 0.04656200
v 0.36743300 0.25845000 0.04656200
v 0.37294500 0.26073400 0.04656200
v 0.37886000 0.26151300 0.04656200
v 0.37294500 0.26073400 0.04656200
v 0.36552500 0.26175500 0.04656200
v 0.36743300 0.25845000 0.04656200
v 0.36000100 0.25751700 0.04656200
v 0.36269900 0.25481800 0.04656200
v 0.35576200 0.25199300 0.04656200
v 0.35906700 0.25008500 0.04656200
v 0.35309800 0.24556000 0.04656200
v 0.35678400 0.24457200 0.04656200
v 0.35600500 0.23865700 0.04656200
v 0.35218900 0.23865700 0.04656200
v 0.35678400 0.23274100 0.04656200
v 0.35309800 0.23175400 0.04656200
v 0.35906700 0.22722900 0.04656200
v 0.35576200 0.22532100 0.04656200
v 0.36269900 0.22249600 0.04656200
v 0.36000100 0.21979700 0.04656200
v 0.36743300 0.21886300 0.04656200
v 0.37294500 0.21658000 0.04656200
v 0.36552500 0.21555900 0.04656200
v 0.37886000 0.21580100 0.04656200
v 0.39219600 0.21555900 0.04656200
v 0.37195700 0.21289400 0.04656200
v 0.38576300 0.21289400 0.04656200
v 0.37886000 0.21198600 0.04656200
v 0.37886000 0.26532800 0.04656200
v 0.38576300 0.26441900 0.04656200
v 0.37195700 0.26441900 0.04656200
v 0.39219600 0.26175500 0.04656200
v 0.38477600 0.26073400 0.04656200
v 0.39028800 0.25845000 0.04656200
v 0.39772000 0.25751700 0.04656200
v 0.39502200 0.25481800 0.04656200
v 0.40195800 0.25199300 0.04656200
v 0.39865400 0.25008500 0.04656200
v 0.40462300 0.24556000 0.04656200
v 0.40093700 0.24457200 0.04656200
v 0.40171600 0.23865700 0.04656200
v 0.40553200 0.23865700 0.04656200
v 0.40093700 0.23274100 0.04656200
v 0.40462300 0.23175400 0.04656200
v 0.39865400 0.22722900 0.04656200
v 0.40195800 0.22532100 0.04656200
v 0.39502200 0.22249600 0.04656200
v 0.39772000 0.21979700 0.04656200
v 0.39028800 0.21886300 0.04656200
v 0.38477600 0.21658000 0.04656200
v 0.35576200 0.22532100 0.05989800
v 0.36000100 0.21979700 0.04656200
v 0.35576200 0.22532100 0.04656200
v 0.36000100 0.21979700 0.05989800
v 0.36000100 0.21979700 0.05989800
v 0.35576200 0.22532100 0.05989800
v 0.36000100 0.21979700 0.04656200
v 0.35576200 0.22532100 0.04656200
v 0.36552500 0.21555900 0.05989800
v 0.36552500 0.21555900 0.04656200
v 0.36552500 0.21555900 0.05989800
v 0.36552500 0.21555900 0.04656200
v 0.37195700 0.21289400 0.05989800
v 0.37195700 0.21289400 0.04656200
v 0.37195700 0.21289400 0.05989800
v 0.37195700 0.21289400 0.04656200
v 0.37886000 0.21198600 0.05989800
v 0.37886000 0.21198600 0.04656200
v 0.37886000 0.21198600 0.05989800
v 0.37886000 0.21198600 0.04656200
v 0.38576300 0.21289400 0.05989800
v 0.38576300 0.21289400 0.04656200
v 0.38576300 0.21289400 0.05989800
v 0.38576300 0.21289400 0.04656200
v 0.39219600 0.21555900 0.05989800
v 0.39219600 0.21555900 0.04656200
v 0.39219600 0.21555900 0.05989800
v 0.39219600 0.21555900 0.04656200
v 0.39772000 0.21979700 0.05989800
v 0.39772000 0.21979700 0.04656200
v 0.39772000 0.21979700 0.05989800
v 0.39772000 0.21979700 0.04656200
v 0.40195800 0.22532100 0.04656200
v 0.40195800 0.22532100 0.05989800
v 0.40195800 0.22532100 0.05989800
v 0.40195800 0.22532100 0.04656200
v 0.40462300 0.23175400 0.04656200
v 0.40462300 0.23175400 0.05989800
v 0.40462300 0.23175400 0.05989800
v 0.40462300 0.23175400 0.04656200
v 0.40553200 0.23865700 0.04656200
v 0.40553200 0.23865700 0.05989800
v 0.40553200 0.23865700 0.05989800
v 0.40553200 0.23865700 0.04656200
v 0.40462300 0.24556000 0.04656200
v 0.40462300 0.24556000 0.05989800
v 0.40462300 0.24556000 0.05989800
v 0.40462300 0.24556000 0.04656200
v 0.40195800 0.25199300 0.04656200
v 0.40195800 0.25199300 0.05989800
v 0.40195800 0.25199300 0.05989800
v 0.40195800 0.25199300 0.04656200
v 0.39772000 0.25751700 0.04656200
v 0.39772000 0.25751700 0.05989800
v 0.39772000 0.25751700 0.05989800
v 0.39772000 0.25751700 0.04656200
v 0.39219600 0.26175500 0.05989800
v 0.39219600 0.26175500 0.04656200
v 0.39219600 0.26175500 0.04656200
v 0.39219600 0.26175500 0.05989800
v 0.38576300 0.26441900 0.05989800
v 0.38576300 0.26441900 0.04656200
v 0.38576300 0.26441900 0.04656200
v 0.38576300 0.26441900 0.05989800
v 0.37886000 0.26532800 0.05989800
v 0.37886000 0.26532800 0.04656200
v 0.37886000 0.26532800 0.04656200
v 0.37886000 0.26532800 0.05989800
v 0.37195700 0.26441900 0.05989800
v 0.37195700 0.26441900 0.04656200
v 0.37195700 0.26441900 0.04656200
v 0.37195700 0.26441900 0.05989800
v 0.36552500 0.26175500 0.05989800
v 0.36552500 0.26175500 0.04656200
v 0.36552500 0.26175500 0.04656200
v 0.36552500 0.26175500 0.05989800
v 0.36000100 0.25751700 0.05989800
v 0.36000100 0.25751700 0.04656200
v 0.36000100 0.25751700 0.04656200
v 0.36000100 0.25751700 0.05989800
v 0.35576200 0.25199300 0.04656200
v 0.35576200 0.25199300 0.05989800
v 0.35576200 0.25199300 0.05989800
v 0.35576200 0.25199300 0.04656200
v 0.35309800 0.24556000 0.04656200
v 0.35309800 0.24556000 0.05989800
v 0.35309800 0.24556000 0.05989800
v 0.35309800 0.24556000 0.04656200
v 0.35218900 0.23865700 0.04656200
v 0.35218900 0.23865700 0.05989800
v 0.35218900 0.23865700 0.05989800
v 0.35218900 0.23865700 0.04656200
v 0.35309800 0.23175400 0.04656200
v 0.35309800 0.23175400 0.05989800
v 0.35309800 0.23175400 0.05989800
v 0.35309800 0.23175400 0.04656200
vn 0.00000000 0.00000000 1.00000000
vn 0.00000000 0.00000000 1.00000000
vn 0.00000000 0.00000000 1.00000000
vn 0.00000000 0.00000000 1.00000000
vn 0.00000000 0.00000000 1.00000000
vn 0.00000000 0.00000000 1.00000000
vn 0.00000000 0.00000000 1.00000000
vn 0.00000000 0.00000000 1.00000000
vn 0.00000000 0.00000000 1.00000000
vn 0.00000000 0.00000000 1.00000000
vn 0.00000000 0.00000000 1.00000000
vn 0.00000000 0.00000000 1.00000000
vn 0.00000000 0.00000000 1.00000000
vn 0.00000000 0.00000000 1.00000000
vn 0.00000000 0.00000000 1.00000000
vn 0.00000000 0.00000000 1.00000000
vn 0.00000000 0.00000000 1.00000000
vn 0.00000000 0.00000000 1.00000000
vn 0.00000000 0.00000000 1.00000000
vn 0.00000000 0.00000000 1.00000000
vn 0.00000000 0.00000000 1.00000000
vn 0.00000000 0.00000000 1.00000000
vn 0.00000000 0.00000000 1.00000000
vn 0.00000000 0.00000000 1.00000000
vn 0.00000000 0.00000000 1.00000000
vn 0.00000000 0.00000000 1.00000000
vn 0.00000000 0.00000000 1.00000000
vn 0.00000000 0.00000000 1.00000000
vn 0.00000000 0.00000000 1.00000000
vn 0.00000000 0.00000000 1.00000000
vn 0.00000000 0.00000000 1.00000000
vn 0.00000000 0.00000000 1.00000000
vn 0.00000000 0.00000000 1.00000000
vn 0.00000000 0.00000000 1.00000000
vn 0.00000000 0.00000000 1.00000000
vn 0.00000000 0.00000000 1.00000000
vn 0.00000000 0.00000000 1.00000000
vn 0.00000000 0.00000000 1.00000000
vn 0.00000000 0.00000000 1.00000000
vn 0.00000000 0.00000000 1.00000000
vn 0.00000000 0.00000000 1.00000000
vn 0.00000000 0.00000000 1.00000000
vn 0.00000000 0.00000000 1.00000000
vn 0.00000000 0.00000000 1.00000000
vn 0.00000000 0.00000000 1.00000000
vn 0.00000000 0.00000000 1.00000000
vn 0.00000000 0.00000000 1.00000000
vn 0.00000000 0.00000000 1.00000000
vn 0.00000000 0.00000000 -1.00000000
vn 0.00000000 0.00000000 -1.00000000
vn 0.00000000 0.00000000 -1.00000000
vn 0.00000000 0.00000000 -1.00000000
vn 0.00000000 0.00000000 -1.00000000
vn 0.00000000 0.00000000 -1.00000000
vn 0.00000000 0.00000000 -1.00000000
vn 0.00000000 0.00000000 -1.00000000
vn 0.00000000 0.00000000 -1.00000000
vn 0.00000000 0.00000000 -1.00000000
vn 0.00000000 0.00000000 -1.00000000
vn 0.00000000 0.00000000 -1.00000000
vn 0.00000000 0.00000000 -1.00000000
vn 0.00000000 0.00000000 -1.00000000
vn 0.00000000 0.00000000 -1.00000000
vn 0.00000000 0.00000000 -1.00000000
vn 0.00000000 0.00000000 -1.00000000
vn 0.00000000 0.00000000 -1.00000000
vn 0.00000000 0.00000000 -1.00000000
vn 0.00000000 0.00000000 -1.00000000
vn 0.00000000 0.00000000 -1.00000000
vn 0.00000000 0.00000000 -1.00000000
vn 0.00000000 0.00000000 -1.00000000
vn 0.00000000 0.00000000 -1.00000000
vn 0.00000000 0.00000000 -1.00000000
vn 0.00000000 0.00000000 -1.00000000
vn 0.00000000 0.00000000 -1.00000000
vn 0.00000000 0.00000000 -1.00000000
vn 0.00000000 0.00000000 -1.00000000
vn 0.00000000 0.00000000 -1.00000000
vn 0.00000000 0.00000000 -1.00000000
vn 0.00000000 0.00000000 -1.00000000
vn 0.00000000 0.00000000 -1.00000000
vn 0.00000000 0.00000000 -1.00000000
vn 0.00000000 0.00000000 -1.00000000
vn 0.00000000 0.00000000 -1.00000000
vn 0.00000000 0.00000000 -1.00000000
vn 0.00000000 0.00000000 -1.00000000
vn 0.00000000 0.00000000 -1.00000000
vn 0.00000000 0.00000000 -1.00000000
vn 0.00000000 0.00000000 -1.00000000
vn 0.00000000 0.00000000 -1.00000000
vn 0.00000000 0.00000000 -1.00000000
vn 0.00000000 0.00000000 -1.00000000
vn 0.00000000 0.00000000 -1.00000000
vn 0.00000000 0.00000000 -1.00000000
vn 0.00000000 0.00000000 -1.00000000
vn 0.00000000 0.00000000 -1.00000000
vn 0.86602540 0.50000000 0.00000000
vn 0.70710678 0.70710678 0.00000000
vn 0.86602540 0.50000000 0.00000000
vn 0.70710678 0.70710678 0.00000000
vn -0.70710678 -0.70710678 0.00000000
vn -0.86602540 -0.50000000 0.00000000
vn -0.70710678 -0.70710678 0.00000000
vn -0.86602540 -0.50000000 0.00000000
vn 0.50000000 0.86602540 0.00000000
vn 0.50000000 0.86602540 0.00000000
vn -0.50000000 -0.86602540 0.00000000
vn -0.50000000 -0.86602540 0.00000000
vn 0.25881901 0.96592584 0.00000000
vn 0.25881901 0.96592584 0.00000000
vn -0.25881901 -0.96592584 0.00000000
vn -0.25881901 -0.96592584 0.00000000
vn 0.00000000 1.00000000 0.00000000
vn 0.00000000 1.00000000 0.00000000
vn 0.00000000 -1.00000000 0.00000000
vn 0.00000000 -1.00000000 0.00000000
vn -0.25881901 0.96592584 0.00000000
vn -0.25881901 0.96592584 0.00000000
vn 0.25881901 -0.96592584 0.00000000
vn 0.25881901 -0.96592584 0.00000000
vn -0.50000000 0.86602540 0.00000000
vn -0.50000000 0.86602540 0.00000000
vn 0.50000000 -0.86602540 0.00000000
vn 0.50000000 -0.86602540 0.00000000
vn -0.70710678 0.70710678 0.00000000
vn -0.70710678 0.70710678 0.00000000
vn 0.70710678 -0.70710678 0.00000000
vn 0.70710678 -0.70710678 0.00000000
vn -0.86602540 0.50000000 0.00000000
vn -0.86602540 0.50000000 0.00000000
vn 0.86602540 -0.50000000 0.00000000
vn 0.86602540 -0.50000000 0.00000000
vn -0.96592584 0.25881901 0.00000000
vn -0.96592584 0.25881901 0.00000000
vn 0.96592584 -0.25881901 0.00000000
vn 0.96592584 -0.25881901 0.00000000
vn -1.00000000 0.00000000 0.00000000
vn -1.00000000 0.00000000 0.00000000
vn 1.00000000 0.00000000 0.00000000
vn 1.00000000 0.00000000 0.00000000
vn -0.96592584 -0.25881901 0.00000000
vn -0.96592584 -0.25881901 0.00000000
vn 0.96592584 0.25881901 0.00000000
vn 0.96592584 0.25881901 0.00000000
vn -0.86602540 -0.50000000 0.00000000
vn -0.86602540 -0.50000000 0.00000000
vn 0.86602540 0.50000000 0.00000000
vn 0.86602540 0.50000000 0.00000000
vn -0.70710678 -0.70710678 0.00000000
vn -0.70710678 -0.70710678 0.00000000
vn 0.70710678 0.70710678 0.00000000
vn 0.70710678 0.70710678 0.00000000
vn -0.50000000 -0.86602540 0.00000000
vn -0.50000000 -0.86602540 0.00000000
vn 0.50000000 0.86602540 0.00000000
vn 0.50000000 0.86602540 0.00000000
vn -0.25881901 -0.96592584 0.00000000
vn -0.25881901 -0.96592584 0.00000000
vn 0.25881901 0.96592584 0.00000000
vn 0.25881901 0.96592584 0.00000000
vn 0.00000000 -1.00000000 0.00000000
vn 0.00000000 -1.00000000 0.00000000
vn 0.00000000 1.00000000 0.00000000
vn 0.00000000 1.00000000 0.00000000
vn 0.25881901 -0.96592584 0.00000000
vn 0.25881901 -0.96592584 0.00000000
vn -0.25881901 0.96592584 0.00000000
vn -0.25881901 0.96592584 0.00000000
vn 0.50000000 -0.86602540 0.00000000
vn 0.50000000 -0.86602540 0.00000000
vn -0.50000000 0.86602540 0.00000000
vn -0.50000000 0.86602540 0.00000000
vn 0.70710678 -0.70710678 0.00000000
vn 0.70710678 -0.70710678 0.00000000
vn -0.70710678 0.70710678 0.00000000
vn -0.70710678 0.70710678 0.00000000
vn 0.86602540 -0.50000000 0.00000000
vn 0.86602540 -0.50000000 0.00000000
vn -0.86602540 0.50000000 0.00000000
vn -0.86602540 0.50000000 0.00000000
vn 0.96592584 -0.25881901 0.00000000
vn 0.96592584 -0.25881901 0.00000000
vn -0.96592584 0.25881901 0.00000000
vn -0.96592584 0.25881901 0.00000000
vn 1.00000000 0.00000000 0.00000000
vn 1.00000000 0.00000000 0.00000000
vn -1.00000000 0.00000000 0.00000000
vn -1.00000000 0.00000000 0.00000000
vn 0.96592584 0.25881901 0.00000000
vn 0.96592584 0.25881901 0.00000000
vn -0.96592584 -0.25881901 0.00000000
vn -0.96592584 -0.25881901 0.00000000
f 1//1 2//2 3//3
f 2//2 1//1 4//4
f 2//2 4//4 5//5
f 5//5 4//4 6//6
f 6//6 4//4 7//7
f 6//6 7//7 8//8
f 8//8 7//7 9//9
f 8//8 9//9 10//10
f 10//10 9//9 11//11
f 10//10 11//11 12//12
f 12//12 11//11 13//13
f 12//12 13//13 14//14
f 14//14 13//13 15//15
f 15//15 13//13 16//16
f 15//15 16//16 17//17
f 17//17 16//16 18//18
f 17//17 18//18 19//19
f 19//19 18//18 20//20
f 19//19 20//20 21//21
f 21//21 20//20 22//22
f 22//22 20//20 23//23
f 23//23 20//20 24//24
f 24//24 20//20 25//25
f 24//24 25//25 26//26
f 27//27 28//28 29//29
f 28//28 27//27 1//1
f 28//28 1//1 30//30
f 30//30 1//1 3//3
f 30//30 3//3 31//31
f 30//30 31//31 32//32
f 32//32 31//31 33//33
f 32//32 33//33 34//34
f 32//32 34//34 35//35
f 35//35 34//34 36//36
f 35//35 36//36 37//37
f 37//37 36//36 38//38
f 37//37 38//38 39//39
f 39//39 38//38 40//40
f 39//39 40//40 41//41
f 41//41 40//40 42//42
f 41//41 42//42 43//43
f 41//41 43//43 44//44
f 44//44 43//43 45//45
f 44//44 45//45 46//46
f 46//46 45//45 47//47
f 46//46 47//47 23//23
f 23//23 47//47 48//48
f 23//23 48//48 22//22
f 49//49 50//50 51//51
f 50//50 52//52 51//51
f 51//51 52//52 53//53
f 52//52 54//54 53//53
f 53//53 54//54 55//55
f 54//54 56//56 55//55
f 55//55 56//56 57//57
f 56//56 58//58 57//57
f 58//58 59//59 57//57
f 57//57 59//59 60//60
f 59//59 61//61 60//60
f 60//60 61//61 62//62
f 61//61 63//63 62//62
f 62//62 63//63 64//64
f 63//63 65//65 64//64
f 64//64 65//65 66//66
f 65//65 67//67 66//66
f 67//67 68//68 66//66
f 66//66 68//68 69//69
f 68//68 70//70 69//69
f 70//70 71//71 69//69
f 69//69 71//71 72//72
f 71//71 73//73 72//72
f 74//74 72//72 73//73
f 75//75 76//76 77//77
f 76//76 78//78 77//77
f 77//77 78//78 51//51
f 51//51 78//78 49//49
f 49//49 78//78 79//79
f 79//79 78//78 80//80
f 78//78 81//81 80//80
f 80//80 81//81 82//82
f 81//81 83//83 82//82
f 82//82 83//83 84//84
f 83//83 85//85 84//84
f 84//84 85//85 86//86
f 86//86 85//85 87//87
f 85//85 88//88 87//87
f 87//87 88//88 89//89
f 88//88 90//90 89//89
f 89//89 90//90 91//91
f 90//90 92//92 91//91
f 91//91 92//92 93//93
f 92//92 94//94 93//93
f 93//93 94//94 95//95
f 95//95 94//94 96//96
f 94//94 71//71 96//96
f 70//70 96//96 71//71
f 97//97 98//98 99//99
f 98//98 97//97 100//100
f 101//101 102//102 103//103
f 104//104 103//103 102//102
f 98//98 105//105 106//106
f 105//105 98//98 100//100
f 101//101 103//103 107//107
f 108//108 107//107 103//103
f 106//106 109//109 110//110
f 109//109 106//106 105//105
f 107//107 108//108 111//111
f 112//112 111//111 108//108
f 110//110 113//113 114//114
f 113//113 110//110 109//109
f 111//111 112//112 115//115
f 116//116 115//115 112//112
f 114//114 117//117 118//118
f 117//117 114//114 113//113
f 115//115 116//116 119//119
f 120//120 119//119 116//116
f 118//118 121//121 122//122
f 121//121 118//118 117//117
f 119//119 120//120 123//123
f 124//124 123//123 120//120
f 122//122 125//125 126//126
f 125//125 122//122 121//121
f 123//123 124//124 127//127
f 128//128 127//127 124//124
f 125//125 129//129 126//126
f 129//129 125//125 130//130
f 131//131 127//127 132//132
f 128//128 132//132 127//127
f 130//130 133//133 129//129
f 133//133 130//130 134//134
f 135//135 131//131 136//136
f 132//132 136//136 131//131
f 134//134 137//137 133//133
f 137//137 134//134 138//138
f 139//139 135//135 140//140
f 136//136 140//140 135//135
f 138//138 141//141 137//137
f 141//141 138//138 142//142
f 143//143 139//139 144//144
f 140//140 144//144 139//139
f 142//142 145//145 141//141
f 145//145 142//142 146//146
f 147//147 143//143 148//148
f 144//144 148//148 143//143
f 146//146 149//149 145//145
f 149//149 146//146 150//150
f 151//151 147//147 152//152
f 148//148 152//152 147//147
f 153//153 149//149 150//150
f 149//149 153//153 154//154
f 155//155 156//156 152//152
f 151//151 152//152 156//156
f 157//157 154//154 153//153
f 154//154 157//157 158//158
f 159//159 160//160 155//155
f 156//156 155//155 160//160
f 161//161 158//158 157//157
f 158//158 161//161 162//162
f 163//163 164//164 159//159
f 160//160 159//159 164//164
f 165//165 162//162 161//161
f 162//162 165//165 166//166
f 167//167 168//168 163//163
f 164//164 163//163 168//168
f 169//169 166//166 165//165
f 166//166 169//169 170//170
f 171//171 172//172 167//167
f 168//168 167//167 172//172
f 173//173 170//170 169//169
f 170//170 173//173 174//174
f 175//175 176//176 171//171
f 172//172 171//171 176//176
f 173//173 177//177 174//174
f 177//177 173//173 178//178
f 179//179 176//176 180//180
f 175//175 180//180 176//176
f 178//178 181//181 177//177
f 181//181 178//178 182//182
f 183//183 179//179 184//184
f 180//180 184//184 179//179
f 182//182 185//185 181//181
f 185//185 182//182 186//186
f 187//187 183//183 188//188
f 184//184 188//188 183//183
f 186//186 189//189 185//185
f 189//189 186//186 190//190
f 191//191 187//187 192//192
f 188//188 192//192 187//187
f 190//190 99//99 189//189
f 99//99 190//190 97//97
f 102//102 191//191 104//104
f 192//192 104//104 191//191

