mtllib material.mtl
usemtl material_1_0
v 0.59910700 0.01220300 0.18177000
v 0.59927000 0.00844900 0.28540500
v 0.59927000 0.00844900 0.18038700
v 0.59857300 0.02442900 0.19115200
v 0.59816300 0.03381100 0.20337900
v 0.59790600 0.03970900 0.21761700
v 0.59781800 0.04172000 0.23289600
v 0.59790600 0.03970900 0.24817500
v 0.59816300 0.03381100 0.26241300
v 0.59857300 0.02442900 0.27463900
v 0.59910700 0.01220300 0.28402100
v 0.58845000 0.03929600 0.21761700
v 0.59781800 0.04172000 0.23289600
v 0.59790600 0.03970900 0.21761700
v 0.58836300 0.04130700 0.23289600
v 0.58845000 0.03929600 0.24817500
v 0.59790600 0.03970900 0.24817500
v 0.58870800 0.03339800 0.26241300
v 0.59816300 0.03381100 0.26241300
v 0.58911800 0.02401600 0.27463900
v 0.59857300 0.02442900 0.27463900
v 0.59910700 0.01220300 0.28402100
v 0.58965100 0.01179000 0.28402100
v 0.58979700 0.00844900 0.28540500
v 0.59927000 0.00844900 0.28540500
v 0.59877700 -0.00286100 0.17587300
v 0.59765700 -0.02850000 0.17386100
v 0.59811000 -0.01814000 0.17386100
v 0.59765700 -0.02850000 0.29193000
v 0.59877700 -0.00286100 0.28991900
v 0.59811000 -0.01814000 0.29193000
v 0.58965100 0.01179000 0.18177000
v 0.59927000 0.00844900 0.18038700
v 0.58979700 0.00844900 0.18038700
v 0.59910700 0.01220300 0.18177000
v 0.58911800 0.02401600 0.19115200
v 0.59857300 0.02442900 0.19115200
v 0.59816300 0.03381100 0.20337900
v 0.58870800 0.03339800 0.20337900
v 0.58932100 -0.00244800 0.28991900
v 0.59877700 -0.00286100 0.28991900
v 0.58865400 -0.01772700 0.17386100
v 0.59877700 -0.00286100 0.17587300
v 0.59811000 -0.01814000 0.17386100
v 0.58932100 -0.00244800 0.17587300
v 0.58865400 -0.01772700 0.29193000
v 0.59811000 -0.01814000 0.29193000
v 0.58822000 -0.02767400 0.29193000
v 0.59765700 -0.02850000 0.29193000
v 0.59283000 -0.06516800 0.17386100
v 0.59283000 -0.06516800 0.29193000
v 0.58822000 -0.02767400 0.17386100
v 0.59765700 -0.02850000 0.17386100
v 0.59765700 -0.02850000 0.29193000
v 0.58350000 -0.06352300 0.29193000
v 0.59283000 -0.06516800 0.29193000
v 0.58822000 -0.02767400 0.29193000
v 0.58482500 -0.10127600 0.17386100
v 0.58482500 -0.10127600 0.29193000
v 0.58350000 -0.06352300 0.17386100
v 0.59283000 -0.06516800 0.17386100
v 0.57567400 -0.09882400 0.29193000
v 0.58482500 -0.10127600 0.29193000
v 0.57371700 -0.13650600 0.17386100
v 0.57371700 -0.13650600 0.29193000
v 0.57567400 -0.09882400 0.17386100
v 0.58482500 -0.10127600 0.17386100
v 0.56480100 -0.13330900 0.29193000
v 0.57371700 -0.13650600 0.29193000
v 0.56119800 -0.16754600 0.29193000
v 0.56119800 -0.16754600 0.17386100
v 0.56480100 -0.13330900 0.17386100
v 0.57371700 -0.13650600 0.17386100
v 0.55258000 -0.16361200 0.29193000
v 0.56119800 -0.16754600 0.29193000
v 0.56119800 -0.16754600 0.29193000
v 0.55926500 -0.17131700 0.17404900
v 0.56119800 -0.16754600 0.17386100
v 0.55258000 -0.16361200 0.17386100
v 0.56119800 -0.16754600 0.17386100
v 0.55098600 -0.16672800 0.29174300
v 0.55926800 -0.17131900 0.29174300
v 0.55926800 -0.17131900 0.29174300
v 0.55098300 -0.16672600 0.17404900
v 0.55926500 -0.17131700 0.17404900
v 0.54935700 -0.16944600 0.29138600
v 0.55746200 -0.17433200 0.29138600
v 0.55746200 -0.17433200 0.17440500
v 0.54935700 -0.16944600 0.17440500
v 0.55746200 -0.17433200 0.17440500
v 0.54549800 -0.17580100 0.29054900
v 0.55350400 -0.18085200 0.29054900
v 0.55746200 -0.17433200 0.29138600
v 0.54549800 -0.17580100 0.17524200
v 0.55350400 -0.18085200 0.17524200
v 0.54236000 -0.18059300 0.28991900
v 0.55027800 -0.18577800 0.28991900
v 0.55350400 -0.18085200 0.17524200
v 0.55350400 -0.18085200 0.29054900
v 0.54236000 -0.18059300 0.17587300
v 0.55027800 -0.18577800 0.17587300
v 0.54109800 -0.18252000 0.28912000
v 0.54893700 -0.18782500 0.28912000
v 0.55027800 -0.18577800 0.17587300
v 0.54893700 -0.18782500 0.17667200
v 0.54893700 -0.18782500 0.28912000
v 0.55027800 -0.18577800 0.28991900
v 0.54109800 -0.18252000 0.17667200
v 0.54893700 -0.18782500 0.17667200
v 0.53626400 -0.18943800 0.28625500
v 0.54394600 -0.19496700 0.28625500
v 0.54394600 -0.19496700 0.17953700
v 0.54394600 -0.19496700 0.28625500
v 0.53626400 -0.18943800 0.17953700
v 0.54394600 -0.19496700 0.17953700
v 0.53226700 -0.19483000 0.28402100
v 0.53987100 -0.20046600 0.28402100
v 0.53987100 -0.20046600 0.18177000
v 0.53864300 -0.20212200 0.18296200
v 0.53864300 -0.20212200 0.28282900
v 0.53987100 -0.20046600 0.28402100
v 0.53226700 -0.19483000 0.18177000
v 0.53987100 -0.20046600 0.18177000
v 0.53111600 -0.19638300 0.28282900
v 0.53864300 -0.20212200 0.28282900
v 0.53314600 -0.20913100 0.18818200
v 0.53314600 -0.20913100 0.27761000
v 0.53111600 -0.19638300 0.18296200
v 0.53864300 -0.20212200 0.18296200
v 0.52578100 -0.20318600 0.27761000
v 0.53314600 -0.20913100 0.27761000
v 0.52984800 -0.21310300 0.19115200
v 0.52758000 -0.21583400 0.19456900
v 0.52758000 -0.21583400 0.27122300
v 0.52984800 -0.21310300 0.27463900
v 0.52578100 -0.20318600 0.18818200
v 0.53314600 -0.20913100 0.18818200
v 0.52256700 -0.20705700 0.27463900
v 0.52984800 -0.21310300 0.27463900
v 0.52039000 -0.20967900 0.27122300
v 0.52758000 -0.21583400 0.27122300
v 0.52206400 -0.22208400 0.20241700
v 0.52206400 -0.22208400 0.26337500
v 0.52039000 -0.20967900 0.19456900
v 0.52984800 -0.21310300 0.19115200
v 0.52758000 -0.21583400 0.19456900
v 0.52256700 -0.20705700 0.19115200
v 0.51507500 -0.21570100 0.26337500
v 0.52206400 -0.22208400 0.26337500
v 0.52125600 -0.22293900 0.20337900
v 0.51671300 -0.22774600 0.21464200
v 0.51671300 -0.22774600 0.25114900
v 0.52125600 -0.22293900 0.26241300
v 0.51507500 -0.21570100 0.20241700
v 0.52206400 -0.22208400 0.20241700
v 0.51437800 -0.21643900 0.26241300
v 0.52125600 -0.22293900 0.26241300
v 0.51671300 -0.22774600 0.25114900
v 0.50996800 -0.22110400 0.25114900
v 0.51530900 -0.22911400 0.21761700
v 0.51530900 -0.22911400 0.24817500
v 0.51324500 -0.23112600 0.23289600
v 0.51671300 -0.22774600 0.21464200
v 0.51437800 -0.21643900 0.20337900
v 0.52125600 -0.22293900 0.20337900
v 0.50996800 -0.22110400 0.21464200
v 0.50870400 -0.22233600 0.24817500
v 0.51530900 -0.22911400 0.24817500
v 0.50664000 -0.22434800 0.23289600
v 0.51324500 -0.23112600 0.23289600
v 0.50870400 -0.22233600 0.21761700
v 0.51530900 -0.22911400 0.21761700
vn 0.99904822 0.04361939 0.00000000
vn 0.99994908 -0.01009141 0.00000000
vn 0.99994908 -0.01009141 0.00000000
vn 0.99904822 0.04361939 0.00000000
vn 0.99904822 0.04361939 0.00000000
vn 0.99904822 0.04361939 0.00000000
vn 0.99904822 0.04361939 0.00000000
vn 0.99904822 0.04361939 0.00000000
vn 0.99904822 0.04361939 0.00000000
vn 0.99904822 0.04361939 0.00000000
vn 0.99904822 0.04361939 0.00000000
vn -0.04213049 0.96494698 -0.25904120
vn -0.04361939 0.99904822 0.00000000
vn -0.04213049 0.96494698 -0.25904120
vn -0.04361939 0.99904822 0.00000000
vn -0.04213049 0.96494698 0.25904120
vn -0.04213049 0.96494698 0.25904120
vn -0.03776681 0.86500206 0.50034498
vn -0.03776681 0.86500206 0.50034498
vn -0.03082938 0.70610881 0.70743191
vn -0.03082938 0.70610881 0.70743191
vn -0.01739133 0.48985022 0.87163313
vn -0.01739123 0.48984889 0.87163388
vn 0.00015343 0.36912810 0.92937851
vn 0.00015462 0.36912911 0.92937811
vn 0.99904822 -0.04361939 0.00000000
vn 0.99619470 -0.08715574 0.00000000
vn 0.99904822 -0.04361939 0.00000000
vn 0.99619470 -0.08715574 0.00000000
vn 0.99904822 -0.04361939 0.00000000
vn 0.99904822 -0.04361939 0.00000000
vn -0.01739123 0.48984889 -0.87163388
vn 0.00015462 0.36912911 -0.92937811
vn 0.00015343 0.36912810 -0.92937851
vn -0.01739133 0.48985022 -0.87163313
vn -0.03082938 0.70610881 -0.70743191
vn -0.03082938 0.70610881 -0.70743191
vn -0.03776681 0.86500206 -0.50034498
vn -0.03776681 0.86500206 -0.50034498
vn 0.00700285 0.25529201 0.96683864
vn 0.00700285 0.25529189 0.96683867
vn 0.00285016 0.06527948 -0.99786295
vn 0.00700285 0.25529189 -0.96683867
vn 0.00285016 0.06527948 -0.99786295
vn 0.00700285 0.25529201 -0.96683864
vn 0.00285016 0.06527948 0.99786295
vn 0.00285016 0.06527948 0.99786295
vn 0.00000000 0.00000000 1.00000000
vn 0.00000000 0.00000000 1.00000000
vn 0.98480775 -0.17364819 0.00000000
vn 0.98480775 -0.17364819 0.00000000
vn 0.00000000 0.00000000 -1.00000000
vn 0.00000000 0.00000000 -1.00000000
vn 0.00000000 0.00000000 1.00000000
vn 0.00000000 0.00000000 1.00000000
vn 0.00000000 0.00000000 1.00000000
vn 0.00000000 0.00000000 1.00000000
vn 0.96592584 -0.25881901 0.00000000
vn 0.96592584 -0.25881901 0.00000000
vn 0.00000000 0.00000000 -1.00000000
vn 0.00000000 0.00000000 -1.00000000
vn 0.00000000 0.00000000 1.00000000
vn 0.00000000 0.00000000 1.00000000
vn 0.94127798 -0.33763259 0.00000000
vn 0.94127798 -0.33763259 0.00000000
vn 0.00000000 0.00000000 -1.00000000
vn 0.00000000 0.00000000 -1.00000000
vn 0.00000139 -0.00000109 1.00000000
vn 0.00000139 -0.00000109 1.00000000
vn 0.92740983 -0.37404681 0.00000000
vn 0.92740983 -0.37404681 0.00000000
vn -0.00000139 0.00000109 -1.00000000
vn -0.00000139 0.00000109 -1.00000000
vn -0.01080094 -0.02142372 0.99971214
vn -0.01080417 -0.02143010 0.99971197
vn 0.89027282 -0.45542761 -0.00002654
vn 0.87534331 -0.48350190 -0.00001331
vn 0.88993636 -0.45608473 0.00000000
vn -0.01081234 -0.02141590 -0.99971218
vn -0.01080983 -0.02141093 -0.99971232
vn -0.03731439 -0.06727367 0.99703655
vn -0.03731527 -0.06727504 0.99703643
vn 0.87532496 -0.48353513 -0.00001450
vn -0.03733289 -0.06726409 -0.99703651
vn -0.03733498 -0.06726733 -0.99703621
vn -0.05547275 -0.09280963 0.99413739
vn -0.05547201 -0.09280928 0.99413746
vn 0.85665948 -0.51588229 -0.00001428
vn -0.05549047 -0.09281389 -0.99413600
vn -0.05549122 -0.09281424 -0.99413593
vn -0.05816043 -0.09238722 0.99402312
vn -0.05816043 -0.09238722 0.99402312
vn 0.85641329 -0.51629089 0.00000000
vn -0.05816559 -0.09238910 -0.99402264
vn -0.05816559 -0.09238910 -0.99402264
vn -0.11808780 -0.17895370 0.97674502
vn -0.11808781 -0.17895361 0.97674504
vn 0.84640143 -0.53254542 0.00000000
vn 0.84640138 -0.53254549 0.00000000
vn -0.11808780 -0.17895370 -0.97674502
vn -0.11808781 -0.17895361 -0.97674504
vn -0.17887751 -0.26240382 0.94823366
vn -0.17887751 -0.26240391 0.94823363
vn 0.83655214 -0.54788732 0.00000000
vn 0.82991860 -0.55788450 0.00000000
vn 0.82991860 -0.55788450 0.00000000
vn 0.83655214 -0.54788732 0.00000000
vn -0.17887751 -0.26240382 -0.94823366
vn -0.17887751 -0.26240391 -0.94823363
vn -0.18295871 -0.25625851 0.94913523
vn -0.18295870 -0.25625860 0.94913521
vn 0.81327038 -0.58188598 0.00000000
vn 0.81327038 -0.58188598 0.00000000
vn -0.18295871 -0.25625851 -0.94913523
vn -0.18295870 -0.25625860 -0.94913521
vn -0.24759490 -0.33296180 0.90985340
vn -0.24759479 -0.33296169 0.90985347
vn 0.80339549 -0.59544579 0.00000000
vn 0.79797580 -0.60268950 0.00000000
vn 0.79797580 -0.60268950 0.00000000
vn 0.80339549 -0.59544579 0.00000000
vn -0.24759490 -0.33296180 -0.90985340
vn -0.24759479 -0.33296169 -0.90985347
vn -0.31156400 -0.40567360 0.85927691
vn -0.31156400 -0.40567360 0.85927691
vn 0.78109620 -0.62441070 0.00000000
vn 0.78109620 -0.62441070 0.00000000
vn -0.31156400 -0.40567360 -0.85927691
vn -0.31156400 -0.40567360 -0.85927691
vn -0.31719440 -0.39583220 0.86180310
vn -0.31719431 -0.39583242 0.86180303
vn 0.76933058 -0.63885089 0.00000000
vn 0.76434020 -0.64481320 0.00000000
vn 0.76434020 -0.64481320 0.00000000
vn 0.76933058 -0.63885089 0.00000000
vn -0.31719440 -0.39583220 -0.86180310
vn -0.31719431 -0.39583242 -0.86180303
vn -0.38823670 -0.46615010 0.79496940
vn -0.38823660 -0.46615000 0.79496951
vn -0.45503539 -0.52702229 0.71776758
vn -0.45503511 -0.52702302 0.71776722
vn 0.74352469 -0.66870849 0.00000000
vn 0.74352469 -0.66870849 0.00000000
vn -0.45503539 -0.52702229 -0.71776758
vn -0.38823660 -0.46615000 -0.79496951
vn -0.45503511 -0.52702302 -0.71776722
vn -0.38823670 -0.46615010 -0.79496940
vn -0.45312641 -0.50020861 0.73788062
vn -0.45312822 -0.50021462 0.73787543
vn 0.72677471 -0.68687591 0.00000000
vn 0.72160221 -0.69230791 0.00000000
vn 0.72160221 -0.69230791 0.00000000
vn 0.72677471 -0.68687591 0.00000000
vn -0.45312641 -0.50020861 -0.73788062
vn -0.45312822 -0.50021462 -0.73787543
vn -0.53140278 -0.55990838 0.63569937
vn -0.53140402 -0.55990942 0.63569742
vn -0.60104431 -0.61045561 0.51583881
vn -0.60104431 -0.61045071 0.51584461
vn 0.69792614 -0.71616974 0.00000000
vn 0.69792614 -0.71616974 0.00000000
vn 0.69792614 -0.71616974 0.00000000
vn -0.60104431 -0.61045561 -0.51583881
vn -0.53140278 -0.55990838 -0.63569937
vn -0.53140402 -0.55990942 -0.63569742
vn -0.60104431 -0.61045071 -0.51584461
vn -0.66386491 -0.65308191 0.36437261
vn -0.66386500 -0.65308200 0.36437230
vn -0.71616974 -0.69792614 0.00000000
vn -0.71616974 -0.69792614 0.00000000
vn -0.66386491 -0.65308191 -0.36437261
vn -0.66386500 -0.65308200 -0.36437230
f 1//1 2//2 3//3
f 2//2 1//1 4//4
f 2//2 4//4 5//5
f 2//2 5//5 6//6
f 2//2 6//6 7//7
f 2//2 7//7 8//8
f 2//2 8//8 9//9
f 2//2 9//9 10//10
f 2//2 10//10 11//11
f 12//12 13//13 14//14
f 13//13 12//12 15//15
f 13//13 16//16 17//17
f 16//16 13//13 15//15
f 17//17 18//18 19//19
f 18//18 17//17 16//16
f 19//19 20//20 21//21
f 20//20 19//19 18//18
f 22//22 20//20 23//23
f 20//20 22//22 21//21
f 22//22 24//24 25//25
f 24//24 22//22 23//23
f 26//26 27//27 28//28
f 27//27 26//26 29//29
f 29//29 26//26 3//3
f 29//29 3//3 2//2
f 29//29 2//2 30//30
f 29//29 30//30 31//31
f 32//32 33//33 34//34
f 33//33 32//32 35//35
f 36//36 35//35 32//32
f 35//35 36//36 37//37
f 36//36 38//38 37//37
f 38//38 36//36 39//39
f 39//39 14//14 38//38
f 14//14 39//39 12//12
f 25//25 40//40 41//41
f 40//40 25//25 24//24
f 42//42 43//43 44//44
f 43//43 42//42 45//45
f 45//45 33//33 43//43
f 33//33 45//45 34//34
f 41//41 46//46 47//47
f 46//46 41//41 40//40
f 47//47 48//48 49//49
f 48//48 47//47 46//46
f 29//29 50//50 27//27
f 50//50 29//29 51//51
f 52//52 44//44 53//53
f 44//44 52//52 42//42
f 54//54 55//55 56//56
f 55//55 54//54 57//57
f 51//51 58//58 50//50
f 58//58 51//51 59//59
f 60//60 53//53 61//61
f 53//53 60//60 52//52
f 56//56 62//62 63//63
f 62//62 56//56 55//55
f 59//59 64//64 58//58
f 64//64 59//59 65//65
f 66//66 61//61 67//67
f 61//61 66//66 60//60
f 63//63 68//68 69//69
f 68//68 63//63 62//62
f 64//64 70//70 71//71
f 70//70 64//64 65//65
f 72//72 67//67 73//73
f 67//67 72//72 66//66
f 69//69 74//74 75//75
f 74//74 69//69 68//68
f 76//76 77//77 78//78
f 79//79 73//73 80//80
f 73//73 79//79 72//72
f 75//75 81//81 82//82
f 81//81 75//75 74//74
f 76//76 83//83 77//77
f 84//84 80//80 85//85
f 80//80 84//84 79//79
f 82//82 86//86 87//87
f 86//86 82//82 81//81
f 83//83 88//88 77//77
f 89//89 85//85 90//90
f 85//85 89//89 84//84
f 87//87 91//91 92//92
f 91//91 87//87 86//86
f 83//83 93//93 88//88
f 94//94 90//90 95//95
f 90//90 94//94 89//89
f 92//92 96//96 97//97
f 96//96 92//92 91//91
f 93//93 98//98 88//88
f 98//98 93//93 99//99
f 100//100 95//95 101//101
f 95//95 100//100 94//94
f 97//97 102//102 103//103
f 102//102 97//97 96//96
f 99//99 104//104 98//98
f 104//104 99//99 105//105
f 105//105 99//99 106//106
f 106//106 99//99 107//107
f 108//108 101//101 109//109
f 101//101 108//108 100//100
f 103//103 110//110 111//111
f 110//110 103//103 102//102
f 106//106 112//112 105//105
f 112//112 106//106 113//113
f 114//114 109//109 115//115
f 109//109 114//114 108//108
f 111//111 116//116 117//117
f 116//116 111//111 110//110
f 113//113 118//118 112//112
f 118//118 113//113 119//119
f 119//119 113//113 120//120
f 120//120 113//113 121//121
f 122//122 115//115 123//123
f 115//115 122//122 114//114
f 117//117 124//124 125//125
f 124//124 117//117 116//116
f 120//120 126//126 119//119
f 126//126 120//120 127//127
f 128//128 123//123 129//129
f 123//123 128//128 122//122
f 125//125 130//130 131//131
f 130//130 125//125 124//124
f 127//127 132//132 126//126
f 132//132 127//127 133//133
f 133//133 127//127 134//134
f 134//134 127//127 135//135
f 136//136 129//129 137//137
f 129//129 136//136 128//128
f 131//131 138//138 139//139
f 138//138 131//131 130//130
f 139//139 140//140 141//141
f 140//140 139//139 138//138
f 134//134 142//142 133//133
f 142//142 134//134 143//143
f 144//144 145//145 146//146
f 145//145 144//144 147//147
f 147//147 137//137 145//145
f 137//137 147//147 136//136
f 141//141 148//148 149//149
f 148//148 141//141 140//140
f 143//143 150//150 142//142
f 150//150 143//143 151//151
f 151//151 143//143 152//152
f 152//152 143//143 153//153
f 154//154 146//146 155//155
f 146//146 154//154 144//144
f 149//149 156//156 157//157
f 156//156 149//149 148//148
f 156//156 158//158 157//157
f 158//158 156//156 159//159
f 152//152 160//160 151//151
f 160//160 152//152 161//161
f 160//160 161//161 162//162
f 163//163 164//164 165//165
f 164//164 163//163 166//166
f 164//164 155//155 165//165
f 155//155 164//164 154//154
f 158//158 167//167 168//168
f 167//167 158//158 159//159
f 168//168 169//169 170//170
f 169//169 168//168 167//167
f 170//170 171//171 172//172
f 171//171 170//170 169//169
f 172//172 166//166 163//163
f 166//166 172//172 171//171

