# Blender v2.79 (sub 0) OBJ File: ''
# www.blender.org
mtllib original-15.mtl
o original-15
v -0.013531 0.477322 0.421428
v -0.013531 0.487560 0.421428
v -0.014204 0.482441 0.421441
v -0.011555 0.472552 0.421390
v -0.011555 0.492330 0.421390
v -0.008413 0.496427 0.421330
v -0.008413 0.468456 0.421330
v -0.004317 0.465313 0.421251
v -0.004317 0.482441 0.421251
v -0.003981 0.479882 0.421245
v 0.000452 0.463337 0.421160
v -0.002993 0.477497 0.421226
v -0.001421 0.475449 0.421196
v 0.000626 0.473877 0.421156
v 0.005570 0.462663 0.421062
v 0.003011 0.472889 0.421111
v 0.005570 0.472552 0.421062
v 0.010688 0.463337 0.420963
v 0.008129 0.472889 0.421012
v 0.010513 0.473877 0.420967
v 0.012561 0.475449 0.420927
v 0.015457 0.465313 0.420872
v 0.014132 0.477497 0.420897
v 0.015119 0.479882 0.420878
v 0.015457 0.482441 0.420872
v 0.019552 0.468456 0.420793
v 0.019552 0.496427 0.420793
v 0.022695 0.492330 0.420733
v 0.022695 0.472552 0.420733
v 0.024670 0.487560 0.420695
v 0.024670 0.477322 0.420695
v 0.025344 0.482441 0.420682
v -0.004317 0.499570 0.421251
v -0.003981 0.485001 0.421245
v 0.000452 0.501546 0.421160
v -0.002993 0.487386 0.421226
v -0.001421 0.489434 0.421196
v 0.000626 0.491005 0.421156
v 0.005570 0.502219 0.421062
v 0.003011 0.491993 0.421111
v 0.005570 0.492330 0.421062
v 0.008129 0.491993 0.421012
v 0.010688 0.501546 0.420963
v 0.010513 0.491005 0.420967
v 0.012561 0.489434 0.420927
v 0.015457 0.499570 0.420872
v 0.014132 0.487386 0.420897
v 0.015119 0.485001 0.420878
v 0.019552 0.496427 0.420793
v 0.015457 0.482441 0.420872
v 0.015457 0.499570 0.420872
v 0.015119 0.485001 0.420878
v 0.014132 0.487386 0.420897
v 0.012561 0.489434 0.420927
v 0.010688 0.501546 0.420963
v 0.010513 0.491005 0.420967
v 0.008129 0.491993 0.421012
v 0.005570 0.502219 0.421062
v 0.005570 0.492330 0.421062
v 0.003011 0.491993 0.421111
v 0.000626 0.491005 0.421156
v 0.000452 0.501546 0.421160
v -0.001421 0.489434 0.421196
v -0.002993 0.487386 0.421226
v -0.003981 0.485001 0.421245
v -0.004317 0.499570 0.421251
v -0.004317 0.482441 0.421251
v -0.008413 0.496427 0.421330
v 0.025344 0.482441 0.420682
v 0.024670 0.477322 0.420695
v 0.024670 0.487560 0.420695
v 0.022695 0.472552 0.420733
v 0.022695 0.492330 0.420733
v 0.019552 0.468456 0.420793
v 0.015457 0.465313 0.420872
v 0.015119 0.479882 0.420878
v 0.014132 0.477497 0.420897
v 0.012561 0.475449 0.420927
v 0.010688 0.463337 0.420963
v 0.010513 0.473877 0.420967
v 0.008129 0.472889 0.421012
v 0.005570 0.472552 0.421062
v 0.005570 0.462663 0.421062
v 0.003011 0.472889 0.421111
v 0.000626 0.473877 0.421156
v 0.000452 0.463337 0.421160
v -0.001421 0.475449 0.421196
v -0.002993 0.477497 0.421226
v -0.003981 0.479882 0.421245
v -0.004317 0.465313 0.421251
v -0.008413 0.468456 0.421330
v -0.011555 0.472552 0.421390
v -0.011555 0.492330 0.421390
v -0.013531 0.487560 0.421428
v -0.013531 0.477322 0.421428
v -0.014204 0.482441 0.421441
v -0.013550 0.477322 0.420428
v -0.013550 0.487560 0.420428
v -0.014223 0.482441 0.420441
v -0.011574 0.472552 0.420390
v -0.011574 0.492330 0.420390
v -0.008432 0.496427 0.420330
v -0.008432 0.468456 0.420330
v -0.004336 0.465313 0.420251
v -0.004336 0.482441 0.420251
v -0.003999 0.479882 0.420245
v 0.000433 0.463337 0.420160
v -0.003012 0.477497 0.420226
v -0.001440 0.475449 0.420196
v 0.000607 0.473877 0.420156
v 0.005551 0.462663 0.420062
v 0.002992 0.472889 0.420111
v 0.005551 0.472552 0.420062
v 0.010669 0.463337 0.419963
v 0.008110 0.472889 0.420012
v 0.010494 0.473877 0.419967
v 0.012542 0.475449 0.419927
v 0.015438 0.465313 0.419872
v 0.014113 0.477497 0.419897
v 0.015101 0.479882 0.419878
v 0.015438 0.482441 0.419872
v 0.019533 0.468456 0.419793
v 0.019533 0.496427 0.419793
v 0.022676 0.492330 0.419733
v 0.022676 0.472552 0.419733
v 0.024651 0.487560 0.419695
v 0.024651 0.477322 0.419695
v 0.025325 0.482441 0.419682
v -0.004336 0.499570 0.420251
v -0.003999 0.485001 0.420245
v 0.000433 0.501546 0.420160
v -0.003012 0.487386 0.420226
v -0.001440 0.489434 0.420196
v 0.000607 0.491005 0.420156
v 0.005551 0.502219 0.420062
v 0.002992 0.491993 0.420111
v 0.005551 0.492330 0.420062
v 0.008110 0.491993 0.420012
v 0.010669 0.501546 0.419963
v 0.010494 0.491005 0.419967
v 0.012542 0.489434 0.419927
v 0.015438 0.499570 0.419872
v 0.014113 0.487386 0.419897
v 0.015101 0.485001 0.419878
v 0.019533 0.496427 0.419793
v 0.015438 0.482441 0.419872
v 0.015438 0.499570 0.419872
v 0.015101 0.485001 0.419878
v 0.014113 0.487386 0.419897
v 0.012542 0.489434 0.419927
v 0.010669 0.501546 0.419963
v 0.010494 0.491005 0.419967
v 0.008110 0.491993 0.420012
v 0.005551 0.502219 0.420062
v 0.005551 0.492330 0.420062
v 0.002992 0.491993 0.420111
v 0.000607 0.491005 0.420156
v 0.000433 0.501546 0.420160
v -0.001440 0.489434 0.420196
v -0.003012 0.487386 0.420226
v -0.003999 0.485001 0.420245
v -0.004336 0.499570 0.420251
v -0.004336 0.482441 0.420251
v -0.008432 0.496427 0.420330
v 0.025325 0.482441 0.419682
v 0.024651 0.477322 0.419695
v 0.024651 0.487560 0.419695
v 0.022676 0.472552 0.419733
v 0.022676 0.492330 0.419733
v 0.019533 0.468456 0.419793
v 0.015438 0.465313 0.419872
v 0.015101 0.479882 0.419878
v 0.014113 0.477497 0.419897
v 0.012542 0.475449 0.419927
v 0.010669 0.463337 0.419963
v 0.010494 0.473877 0.419967
v 0.008110 0.472889 0.420012
v 0.005551 0.472552 0.420062
v 0.005551 0.462663 0.420062
v 0.002992 0.472889 0.420111
v 0.000607 0.473877 0.420156
v 0.000433 0.463337 0.420160
v -0.001440 0.475449 0.420196
v -0.003012 0.477497 0.420226
v -0.003999 0.479882 0.420245
v -0.004336 0.465313 0.420251
v -0.008432 0.468456 0.420330
v -0.011574 0.472552 0.420390
v -0.011574 0.492330 0.420390
v -0.013550 0.487560 0.420428
v -0.013550 0.477322 0.420428
v -0.014223 0.482441 0.420441
vn -0.6961 -0.1900 0.6923
vn -0.6961 0.1900 0.6923
vn -0.7210 0.0000 0.6929
vn -0.6228 -0.3671 0.6909
vn -0.6228 0.3671 0.6909
vn -0.5061 0.5192 0.6887
vn -0.5061 -0.5192 0.6887
vn -0.3541 -0.6359 0.6858
vn 0.6891 0.0000 0.7247
vn 0.6650 0.1762 0.7257
vn -0.1770 -0.7092 0.6824
vn 0.5986 0.3376 0.7264
vn 0.4915 0.4774 0.7284
vn 0.3519 0.5847 0.7310
vn 0.0131 -0.7342 0.6788
vn 0.1887 0.6521 0.7343
vn 0.0142 0.6751 0.7376
vn 0.2031 -0.7092 0.6751
vn -0.1606 0.6522 0.7409
vn -0.3233 0.5846 0.7442
vn -0.4632 0.4774 0.7467
vn 0.3801 -0.6358 0.6718
vn -0.5705 0.3376 0.7487
vn -0.6387 0.1763 0.7490
vn -0.6609 0.0000 0.7505
vn 0.5321 -0.5192 0.6688
vn 0.5322 0.5192 0.6688
vn 0.6488 0.3671 0.6666
vn 0.6488 -0.3671 0.6666
vn 0.7221 0.1900 0.6651
vn 0.7222 -0.1900 0.6651
vn 0.7472 -0.0000 0.6646
vn -0.3541 0.6359 0.6858
vn 0.6655 -0.1734 0.7260
vn -0.1770 0.7092 0.6824
vn 0.5986 -0.3376 0.7264
vn 0.4914 -0.4774 0.7284
vn 0.3518 -0.5847 0.7310
vn 0.0131 0.7341 0.6789
vn 0.1887 -0.6521 0.7343
vn 0.0144 -0.6748 0.7379
vn -0.1606 -0.6522 0.7409
vn 0.2030 0.7093 0.6751
vn -0.3232 -0.5846 0.7441
vn -0.4631 -0.4774 0.7467
vn 0.3801 0.6358 0.6718
vn -0.5705 -0.3376 0.7487
vn -0.6390 -0.1761 0.7488
vn -0.6384 -0.1762 0.7493
vn 0.0143 -0.6751 0.7376
vn 0.1889 -0.6518 0.7345
vn 0.6646 -0.1755 0.7263
vn -0.6388 0.1733 0.7496
vn 0.6646 0.1758 0.7263
vn -0.6961 0.1900 0.6924
vn -0.7222 -0.1900 -0.6651
vn -0.7472 0.0000 -0.6646
vn -0.7222 0.1900 -0.6651
vn -0.6487 -0.3671 -0.6666
vn -0.6487 0.3671 -0.6666
vn -0.5322 0.5192 -0.6687
vn -0.5322 -0.5192 -0.6688
vn -0.3800 -0.6359 -0.6718
vn 0.6610 0.0000 -0.7504
vn 0.6388 0.1732 -0.7497
vn -0.2030 -0.7093 -0.6751
vn 0.5703 0.3376 -0.7488
vn 0.4632 0.4774 -0.7466
vn 0.3233 0.5845 -0.7442
vn -0.0130 -0.7343 -0.6787
vn 0.1607 0.6522 -0.7408
vn -0.0142 0.6751 -0.7375
vn 0.1770 -0.7092 -0.6824
vn -0.1889 0.6520 -0.7343
vn -0.3519 0.5847 -0.7310
vn -0.4915 0.4773 -0.7284
vn 0.3541 -0.6359 -0.6858
vn -0.5987 0.3375 -0.7264
vn -0.6647 0.1762 -0.7260
vn -0.6890 0.0000 -0.7248
vn 0.5060 -0.5192 -0.6887
vn 0.5061 0.5192 -0.6887
vn 0.6228 0.3671 -0.6909
vn 0.6228 -0.3671 -0.6909
vn 0.6960 0.1900 -0.6924
vn 0.6960 -0.1900 -0.6924
vn 0.7210 -0.0000 -0.6929
vn -0.3800 0.6359 -0.6718
vn 0.6383 -0.1759 -0.7494
vn -0.2030 0.7093 -0.6750
vn 0.5702 -0.3376 -0.7489
vn 0.4632 -0.4775 -0.7467
vn 0.3232 -0.5846 -0.7441
vn -0.0131 0.7343 -0.6787
vn 0.1607 -0.6522 -0.7408
vn -0.0147 -0.6753 -0.7374
vn -0.1889 -0.6520 -0.7343
vn 0.1769 0.7093 -0.6824
vn -0.3518 -0.5848 -0.7309
vn -0.4914 -0.4774 -0.7285
vn 0.3541 0.6359 -0.6858
vn -0.5987 -0.3375 -0.7264
vn -0.6645 -0.1758 -0.7263
vn -0.6655 -0.1734 -0.7260
vn -0.0143 -0.6752 -0.7375
vn 0.1611 -0.6521 -0.7408
vn 0.6387 -0.1758 -0.7491
vn -0.6651 0.1763 -0.7257
vn -0.3518 0.5847 -0.7310
vn 0.6387 0.1761 -0.7491
usemtl material_0_0
s 1
f 1//1 2//2 3//3
f 2//2 1//1 4//4
f 2//2 4//4 5//5
f 5//5 4//4 6//6
f 6//6 4//4 7//7
f 6//6 7//7 8//8
f 6//6 8//8 9//9
f 9//9 8//8 10//10
f 10//10 8//8 11//11
f 10//10 11//11 12//12
f 12//12 11//11 13//13
f 13//13 11//11 14//14
f 14//14 11//11 15//15
f 14//14 15//15 16//16
f 16//16 15//15 17//17
f 17//17 15//15 18//18
f 17//17 18//18 19//19
f 19//19 18//18 20//20
f 20//20 18//18 21//21
f 21//21 18//18 22//22
f 21//21 22//22 23//23
f 23//23 22//22 24//24
f 24//24 22//22 25//25
f 25//25 22//22 26//26
f 25//25 26//26 27//27
f 27//27 26//26 28//28
f 28//28 26//26 29//29
f 28//28 29//29 30//30
f 30//30 29//29 31//31
f 30//30 31//31 32//32
f 9//9 33//33 6//6
f 33//33 9//9 34//34
f 33//33 34//34 35//35
f 35//35 34//34 36//36
f 35//35 36//36 37//37
f 35//35 37//37 38//38
f 35//35 38//38 39//39
f 39//39 38//38 40//40
f 39//39 40//40 41//41
f 39//39 41//41 42//42
f 39//39 42//42 43//43
f 43//43 42//42 44//44
f 43//43 44//44 45//45
f 43//43 45//45 46//46
f 46//46 45//45 47//47
f 46//46 47//47 48//48
f 46//46 48//48 25//25
f 46//46 25//25 27//27
f 49//27 51//46 50//25
f 50//25 51//46 52//49
f 52//49 51//46 53//47
f 53//47 51//46 54//45
f 51//46 55//43 54//45
f 54//45 55//43 56//44
f 56//44 55//43 57//42
f 55//43 58//39 57//42
f 57//42 58//39 59//50
f 59//50 58//39 60//51
f 60//51 58//39 61//38
f 58//39 62//35 61//38
f 61//38 62//35 63//37
f 63//37 62//35 64//36
f 64//36 62//35 65//52
f 62//35 66//33 65//52
f 65//52 66//33 67//9
f 68//6 67//9 66//33
f 69//32 71//30 70//31
f 70//31 71//30 72//29
f 71//30 73//28 72//29
f 72//29 73//28 74//26
f 73//28 49//27 74//26
f 49//27 50//25 74//26
f 74//26 50//25 75//22
f 50//25 76//53 75//22
f 76//53 77//23 75//22
f 77//23 78//21 75//22
f 75//22 78//21 79//18
f 78//21 80//20 79//18
f 80//20 81//19 79//18
f 81//19 82//17 79//18
f 79//18 82//17 83//15
f 82//17 84//16 83//15
f 84//16 85//14 83//15
f 83//15 85//14 86//11
f 85//14 87//13 86//11
f 87//13 88//12 86//11
f 88//12 89//54 86//11
f 86//11 89//54 90//8
f 89//54 67//9 90//8
f 67//9 68//6 90//8
f 90//8 68//6 91//7
f 91//7 68//6 92//4
f 68//6 93//5 92//4
f 93//5 94//55 92//4
f 92//4 94//55 95//1
f 96//3 95//1 94//55
f 97//56 99//57 98//58
f 98//58 100//59 97//56
f 98//58 101//60 100//59
f 101//60 102//61 100//59
f 102//61 103//62 100//59
f 102//61 104//63 103//62
f 102//61 105//64 104//63
f 105//64 106//65 104//63
f 106//65 107//66 104//63
f 106//65 108//67 107//66
f 108//67 109//68 107//66
f 109//68 110//69 107//66
f 110//69 111//70 107//66
f 110//69 112//71 111//70
f 112//71 113//72 111//70
f 113//72 114//73 111//70
f 113//72 115//74 114//73
f 115//74 116//75 114//73
f 116//75 117//76 114//73
f 117//76 118//77 114//73
f 117//76 119//78 118//77
f 119//78 120//79 118//77
f 120//79 121//80 118//77
f 121//80 122//81 118//77
f 121//80 123//82 122//81
f 123//82 124//83 122//81
f 124//83 125//84 122//81
f 124//83 126//85 125//84
f 126//85 127//86 125//84
f 126//85 128//87 127//86
f 105//64 102//61 129//88
f 129//88 130//89 105//64
f 129//88 131//90 130//89
f 131//90 132//91 130//89
f 131//90 133//92 132//91
f 131//90 134//93 133//92
f 131//90 135//94 134//93
f 135//94 136//95 134//93
f 135//94 137//96 136//95
f 135//94 138//97 137//96
f 135//94 139//98 138//97
f 139//98 140//99 138//97
f 139//98 141//100 140//99
f 139//98 142//101 141//100
f 142//101 143//102 141//100
f 142//101 144//103 143//102
f 142//101 121//80 144//103
f 142//101 123//82 121//80
f 145//82 146//80 147//101
f 146//80 148//104 147//101
f 148//104 149//102 147//101
f 149//102 150//100 147//101
f 147//101 150//100 151//98
f 150//100 152//99 151//98
f 152//99 153//97 151//98
f 151//98 153//97 154//94
f 153//97 155//105 154//94
f 155//105 156//106 154//94
f 156//106 157//93 154//94
f 154//94 157//93 158//90
f 157//93 159//92 158//90
f 159//92 160//91 158//90
f 160//91 161//107 158//90
f 158//90 161//107 162//88
f 161//107 163//64 162//88
f 164//61 162//88 163//64
f 165//87 166//86 167//85
f 166//86 168//84 167//85
f 167//85 168//84 169//83
f 168//84 170//81 169//83
f 169//83 170//81 145//82
f 145//82 170//81 146//80
f 170//81 171//77 146//80
f 146//80 171//77 172//108
f 172//108 171//77 173//78
f 173//78 171//77 174//76
f 171//77 175//73 174//76
f 174//76 175//73 176//109
f 176//109 175//73 177//74
f 177//74 175//73 178//72
f 175//73 179//70 178//72
f 178//72 179//70 180//71
f 180//71 179//70 181//69
f 179//70 182//66 181//69
f 181//69 182//66 183//68
f 183//68 182//66 184//67
f 184//67 182//66 185//110
f 182//66 186//63 185//110
f 185//110 186//63 163//64
f 163//64 186//63 164//61
f 186//63 187//62 164//61
f 187//62 188//59 164//61
f 164//61 188//59 189//60
f 189//60 188//59 190//58
f 188//59 191//56 190//58
f 192//57 190//58 191//56
f 29//29 26//26 122//81 125//84
f 13//13 14//14 110//69 109//68
f 68//6 66//33 162//88 164//61
f 63//37 64//36 160//91 159//92
f 55//43 51//46 147//101 151//98
f 52//49 53//47 149//102 148//104
f 38//38 37//37 133//92 134//93
f 6//6 33//33 129//88 102//61
f 31//31 29//29 125//84 127//86
f 91//7 92//4 188//59 187//62
f 51//46 49//27 145//82 147//101
f 26//26 22//22 118//77 122//81
f 45//45 44//44 140//99 141//100
f 23//23 24//24 120//79 119//78
f 82//17 81//19 177//74 178//72
f 22//22 18//18 114//73 118//77
f 5//5 6//6 102//61 101//60
f 36//36 34//34 130//89 132//91
f 74//26 75//22 171//77 170//81
f 60//51 61//38 157//93 156//106
f 58//39 55//43 151//98 154//94
f 8//8 7//7 103//62 104//63
f 19//19 20//20 116//75 115//74
f 77//23 76//53 172//108 173//78
f 15//15 11//11 107//66 111//70
f 49//27 73//28 169//83 145//82
f 57//42 59//50 155//105 153//97
f 54//45 56//44 152//99 150//100
f 12//12 13//13 109//68 108//67
f 47//47 45//45 141//100 143//102
f 87//13 85//14 181//69 183//68
f 85//14 84//16 180//71 181//69
f 4//4 1//1 97//56 100//59
f 96//3 94//55 190//58 192//57
f 95//1 96//3 192//57 191//56
f 73//28 71//30 167//85 169//83
f 61//38 63//37 159//92 157//93
f 28//28 30//30 126//85 124//83
f 27//27 28//28 124//83 123//82
f 94//55 93//5 189//60 190//58
f 72//29 74//26 170//81 168//84
f 71//30 69//32 165//87 167//85
f 53//47 54//45 150//100 149//102
f 39//39 43//43 139//98 135//94
f 64//36 65//52 161//107 160//91
f 34//34 9//9 105//64 130//89
f 43//43 46//46 142//101 139//98
f 50//25 52//49 148//104 146//80
f 21//21 23//23 119//78 117//76
f 16//16 17//17 113//72 112//71
f 76//53 50//25 146//80 172//108
f 11//11 8//8 104//63 107//66
f 41//41 40//40 136//95 137//96
f 30//30 32//32 128//87 126//85
f 81//19 80//20 176//109 177//74
f 86//11 90//8 186//63 182//66
f 44//44 42//42 138//97 140//99
f 35//35 39//39 135//94 131//90
f 24//24 25//25 121//80 120//79
f 37//37 36//36 132//91 133//92
f 32//32 31//31 127//86 128//87
f 65//52 67//9 163//64 161//107
f 18//18 15//15 111//70 114//73
f 80//20 78//21 174//76 176//109
f 59//50 60//51 156//106 155//105
f 62//35 58//39 154//94 158//90
f 33//33 35//35 131//90 129//88
f 20//20 21//21 117//76 116//75
f 92//4 95//1 191//56 188//59
f 78//21 77//23 173//78 174//76
f 7//7 4//4 100//59 103//62
f 79//18 83//15 179//70 175//73
f 42//42 41//41 137//96 138//97
f 89//54 88//12 184//67 185//110
f 17//17 19//19 115//74 113//72
f 88//12 87//13 183//68 184//67
f 90//8 91//7 187//62 186//63
f 10//10 12//12 108//67 106//65
f 3//3 2//2 98//58 99//57
f 83//15 86//11 182//66 179//70
f 75//22 79//18 175//73 171//77
f 2//2 5//5 101//60 98//58
f 93//5 68//6 164//61 189//60
f 67//9 89//54 185//110 163//64
f 9//9 10//10 106//65 105//64
f 1//1 3//3 99//57 97//56
f 70//31 72//29 168//84 166//86
f 46//46 27//27 123//82 142//101
f 84//16 82//17 178//72 180//71
f 48//48 47//47 143//102 144//103
f 40//40 38//38 134//93 136//95
f 56//44 57//42 153//97 152//99
f 14//14 16//16 112//71 110//69
f 69//32 70//31 166//86 165//87
f 66//33 62//35 158//90 162//88
f 25//25 48//48 144//103 121//80
