# Blender v2.79 (sub 0) OBJ File: ''
# www.blender.org
mtllib original-109_0.mtl
o original-109_0
v 0.019271 -0.353343 -0.457410
v 0.018613 -0.344441 -0.457410
v 0.018923 -0.341571 -0.457410
v 0.016638 -0.353920 -0.457410
v 0.017682 -0.346473 -0.457410
v 0.016964 -0.347179 -0.457410
v 0.016050 -0.347683 -0.457410
v 0.013639 -0.354113 -0.457410
v 0.013639 -0.348086 -0.457410
v 0.010561 -0.353917 -0.457410
v 0.011265 -0.347698 -0.457410
v 0.010350 -0.347214 -0.457410
v 0.007885 -0.353330 -0.457410
v 0.009618 -0.346537 -0.457410
v 0.008655 -0.344521 -0.457410
v 0.008333 -0.341571 -0.457410
v 0.008333 -0.321856 -0.457410
v 0.000397 -0.321856 -0.457410
v 0.005611 -0.352352 -0.457410
v 0.003739 -0.350983 -0.457410
v 0.002277 -0.349248 -0.457410
v 0.001232 -0.347176 -0.457410
v 0.000605 -0.344765 -0.457410
v 0.000397 -0.342016 -0.457410
v 0.026646 -0.344820 -0.457410
v 0.026860 -0.321856 -0.457410
v 0.026860 -0.342038 -0.457410
v 0.018923 -0.321856 -0.457410
v 0.026003 -0.347248 -0.457410
v 0.024932 -0.349319 -0.457410
v 0.023433 -0.351036 -0.457410
v 0.021535 -0.352382 -0.457410
v 0.019271 -0.353343 -0.456410
v 0.018613 -0.344441 -0.456410
v 0.018923 -0.341571 -0.456410
v 0.016638 -0.353920 -0.456410
v 0.017682 -0.346473 -0.456410
v 0.016964 -0.347179 -0.456410
v 0.016050 -0.347683 -0.456410
v 0.013639 -0.354113 -0.456410
v 0.013639 -0.348086 -0.456410
v 0.010561 -0.353917 -0.456410
v 0.011265 -0.347698 -0.456410
v 0.010350 -0.347214 -0.456410
v 0.007885 -0.353330 -0.456410
v 0.009618 -0.346537 -0.456410
v 0.008655 -0.344521 -0.456410
v 0.008333 -0.341571 -0.456410
v 0.008333 -0.321856 -0.456410
v 0.000397 -0.321856 -0.456410
v 0.005611 -0.352352 -0.456410
v 0.003739 -0.350983 -0.456410
v 0.002277 -0.349248 -0.456410
v 0.001232 -0.347176 -0.456410
v 0.000605 -0.344765 -0.456410
v 0.000397 -0.342016 -0.456410
v 0.026646 -0.344820 -0.456410
v 0.026860 -0.321856 -0.456410
v 0.026860 -0.342038 -0.456410
v 0.018923 -0.321856 -0.456410
v 0.026003 -0.347248 -0.456410
v 0.024932 -0.349319 -0.456410
v 0.023433 -0.351036 -0.456410
v 0.021535 -0.352382 -0.456410
vn 0.2208 -0.6925 -0.6868
vn -0.6431 0.1770 -0.7451
vn -0.6936 0.0377 -0.7194
vn 0.1009 -0.7163 -0.6905
vn -0.5413 0.3797 -0.7502
vn -0.4025 0.5402 -0.7391
vn -0.2184 0.6279 -0.7470
vn 0.0002 -0.7209 -0.6930
vn -0.0012 0.6663 -0.7457
vn -0.1008 -0.7164 -0.6904
vn 0.2124 0.6319 -0.7453
vn 0.3905 0.5511 -0.7375
vn -0.2226 -0.6924 -0.6863
vn 0.5306 0.3910 -0.7520
vn 0.6397 0.1816 -0.7469
vn 0.6935 0.0377 -0.7195
vn 0.5774 0.5774 -0.5773
vn -0.5774 0.5774 -0.5773
vn -0.3623 -0.6346 -0.6827
vn -0.4996 -0.5352 -0.6812
vn -0.6104 -0.4031 -0.6819
vn -0.6825 -0.2575 -0.6840
vn -0.7163 -0.1193 -0.6876
vn -0.7150 -0.0270 -0.6986
vn 0.7163 -0.1213 -0.6872
vn 0.5773 0.5773 -0.5774
vn 0.7148 -0.0280 -0.6987
vn 0.6812 -0.2627 -0.6834
vn 0.6054 -0.4119 -0.6811
vn 0.4907 -0.5429 -0.6815
vn 0.3557 -0.6372 -0.6837
vn 0.2207 -0.6925 0.6868
vn -0.6935 0.0377 0.7195
vn -0.6431 0.1770 0.7450
vn 0.1009 -0.7163 0.6905
vn -0.5413 0.3797 0.7502
vn -0.4025 0.5401 0.7391
vn -0.2184 0.6279 0.7470
vn 0.0002 -0.7209 0.6930
vn -0.0012 0.6663 0.7457
vn -0.1008 -0.7164 0.6904
vn 0.2124 0.6319 0.7453
vn 0.3905 0.5511 0.7375
vn -0.2226 -0.6924 0.6863
vn 0.5306 0.3910 0.7520
vn 0.6396 0.1816 0.7469
vn 0.6934 0.0377 0.7195
vn 0.5773 0.5773 0.5774
vn -0.5774 0.5774 0.5773
vn -0.3623 -0.6346 0.6827
vn -0.4996 -0.5352 0.6812
vn -0.6104 -0.4031 0.6819
vn -0.6825 -0.2575 0.6840
vn -0.7163 -0.1192 0.6875
vn -0.7149 -0.0270 0.6987
vn 0.7163 -0.1213 0.6872
vn 0.7152 -0.0269 0.6984
vn -0.5774 0.5774 0.5774
vn 0.6812 -0.2627 0.6834
vn 0.6054 -0.4119 0.6811
vn 0.4907 -0.5429 0.6815
vn 0.3557 -0.6372 0.6837
usemtl material_1_0.002
s 1
f 1//1 2//2 3//3
f 2//2 1//1 4//4
f 2//2 4//4 5//5
f 5//5 4//4 6//6
f 6//6 4//4 7//7
f 7//7 4//4 8//8
f 7//7 8//8 9//9
f 9//9 8//8 10//10
f 9//9 10//10 11//11
f 11//11 10//10 12//12
f 12//12 10//10 13//13
f 12//12 13//13 14//14
f 14//14 13//13 15//15
f 15//15 13//13 16//16
f 16//16 13//13 17//17
f 17//17 13//13 18//18
f 18//18 13//13 19//19
f 18//18 19//19 20//20
f 18//18 20//20 21//21
f 18//18 21//21 22//22
f 18//18 22//22 23//23
f 18//18 23//23 24//24
f 25//25 26//26 27//27
f 26//26 25//25 28//18
f 28//18 25//25 29//28
f 28//18 29//28 30//29
f 28//18 30//29 31//30
f 28//18 31//30 32//31
f 28//18 32//31 1//1
f 28//18 1//1 3//3
f 33//32 35//33 34//34
f 34//34 36//35 33//32
f 34//34 37//36 36//35
f 37//36 38//37 36//35
f 38//37 39//38 36//35
f 39//38 40//39 36//35
f 39//38 41//40 40//39
f 41//40 42//41 40//39
f 41//40 43//42 42//41
f 43//42 44//43 42//41
f 44//43 45//44 42//41
f 44//43 46//45 45//44
f 46//45 47//46 45//44
f 47//46 48//47 45//44
f 48//47 49//48 45//44
f 49//48 50//49 45//44
f 50//49 51//50 45//44
f 50//49 52//51 51//50
f 50//49 53//52 52//51
f 50//49 54//53 53//52
f 50//49 55//54 54//53
f 50//49 56//55 55//54
f 57//56 59//57 58//48
f 58//48 60//58 57//56
f 60//58 61//59 57//56
f 60//58 62//60 61//59
f 60//58 63//61 62//60
f 60//58 64//62 63//61
f 60//58 33//32 64//62
f 60//58 35//33 33//32
f 24//24 23//23 55//54 56//55
f 27//27 26//26 58//48 59//57
f 28//18 3//3 35//33 60//58
f 12//12 14//14 46//45 44//43
f 5//5 6//6 38//37 37//36
f 32//31 31//30 63//61 64//62
f 25//25 27//27 59//57 57//56
f 23//23 22//22 54//53 55//54
f 7//7 9//9 41//40 39//38
f 26//26 28//18 60//58 58//48
f 17//17 18//18 50//49 49//48
f 15//15 16//16 48//47 47//46
f 13//13 10//10 42//41 45//44
f 9//9 11//11 43//42 41//40
f 3//3 2//2 34//34 35//33
f 4//4 1//1 33//32 36//35
f 20//20 19//19 51//50 52//51
f 16//16 17//17 49//48 48//47
f 31//30 30//29 62//60 63//61
f 18//18 24//24 56//55 50//49
f 10//10 8//8 40//39 42//41
f 2//2 5//5 37//36 34//34
f 21//21 20//20 52//51 53//52
f 8//8 4//4 36//35 40//39
f 22//22 21//21 53//52 54//53
f 14//14 15//15 47//46 46//45
f 11//11 12//12 44//43 43//42
f 6//6 7//7 39//38 38//37
f 19//19 13//13 45//44 51//50
f 29//28 25//25 57//56 61//59
f 1//1 32//31 64//62 33//32
f 30//29 29//28 61//59 62//60
