mtllib material.mtl
usemtl material_1_0
v 0.14865300 0.25562500 -0.02011600
v 0.14865300 0.28617600 0.05989800
v 0.21262700 0.24720300 -0.02011600
v 0.22053400 0.27671200 0.05989800
v 0.07677200 0.27671200 0.05989800
v 0.08467900 0.24720300 -0.02011600
v 0.34899400 0.11831800 -0.02011600
v -0.05168900 0.11831800 -0.02011600
v -0.06540800 0.13203700 -0.02011600
v -0.09010100 0.07242300 -0.02011600
v -0.09852300 0.00845000 -0.02011600
v -0.09010100 -0.05552400 -0.02011600
v -0.05168900 -0.10141900 -0.02011600
v 0.34899400 -0.10141900 -0.02011600
v -0.06540800 -0.11513900 -0.02011600
v 0.14865300 0.25562500 -0.02011600
v 0.21262700 0.24720300 -0.02011600
v 0.08467900 0.24720300 -0.02011600
v 0.02506500 0.22251000 -0.02011600
v 0.27224100 0.22251000 -0.02011600
v 0.14865300 0.21833600 -0.02011600
v 0.14002400 0.21720000 -0.02011600
v 0.13198300 0.21386900 -0.02011600
v 0.12507800 0.20857100 -0.02011600
v 0.11978000 0.20166600 -0.02011600
v 0.11645000 0.19362600 -0.02011600
v 0.11531400 0.18499700 -0.02011600
v -0.02612700 0.18322900 -0.02011600
v 0.11645000 0.17636800 -0.02011600
v 0.11978000 0.16832700 -0.02011600
v 0.12507800 0.16142200 -0.02011600
v 0.13198300 0.15612400 -0.02011600
v 0.14002400 0.15279400 -0.02011600
v 0.14865300 0.15165700 -0.02011600
v 0.36271400 0.13203700 -0.02011600
v 0.38740700 0.07242300 -0.02011600
v 0.39582900 0.00845000 -0.02011600
v 0.38740700 -0.05552400 -0.02011600
v 0.36271400 -0.11513900 -0.02011600
v 0.32343300 -0.16633000 -0.02011600
v -0.02612700 -0.16633000 -0.02011600
v 0.02506500 -0.20561100 -0.02011600
v 0.27224100 -0.20561100 -0.02011600
v 0.08467900 -0.23030400 -0.02011600
v 0.21262700 -0.23030400 -0.02011600
v 0.14865300 -0.23872700 -0.02011600
v 0.15728100 0.21720000 -0.02011600
v 0.16532200 0.21386900 -0.02011600
v 0.17222700 0.20857100 -0.02011600
v 0.17752500 0.20166600 -0.02011600
v 0.18085600 0.19362600 -0.02011600
v 0.18199200 0.18499700 -0.02011600
v 0.32343300 0.18322900 -0.02011600
v 0.18085600 0.17636800 -0.02011600
v 0.17752500 0.16832700 -0.02011600
v 0.17222700 0.16142200 -0.02011600
v 0.16532200 0.15612400 -0.02011600
v 0.15728100 0.15279400 -0.02011600
v 0.27224100 0.22251000 -0.02011600
v 0.28751600 0.24896700 0.05989800
v 0.00979000 0.24896700 0.05989800
v 0.02506500 0.22251000 -0.02011600
v -0.04772900 0.20483100 0.05989800
v -0.02612700 0.18322900 -0.02011600
v -0.09186500 0.14731300 0.05989800
v -0.06540800 0.13203700 -0.02011600
v -0.11961000 0.08033000 0.05989800
v -0.09010100 0.07242300 -0.02011600
v -0.12907300 0.00845000 0.05989800
v -0.09852300 0.00845000 -0.02011600
v -0.11961000 -0.06343100 0.05989800
v -0.09010100 -0.05552400 -0.02011600
v -0.09186500 -0.13041300 0.05989800
v -0.06540800 -0.11513900 -0.02011600
v -0.04772900 -0.18793200 0.05989800
v -0.02612700 -0.16633000 -0.02011600
v 0.00979000 -0.23206800 0.05989800
v 0.02506500 -0.20561100 -0.02011600
v 0.07677200 -0.25981300 0.05989800
v 0.08467900 -0.23030400 -0.02011600
v 0.14865300 -0.26927600 0.05989800
v 0.14865300 -0.23872700 -0.02011600
v 0.21262700 -0.23030400 -0.02011600
v 0.22053400 -0.25981300 0.05989800
v 0.27224100 -0.20561100 -0.02011600
v 0.28751600 -0.23206800 0.05989800
v 0.32343300 -0.16633000 -0.02011600
v 0.34503500 -0.18793200 0.05989800
v 0.38917000 -0.13041300 0.05989800
v 0.36271400 -0.11513900 -0.02011600
v 0.41691500 -0.06343100 0.05989800
v 0.38740700 -0.05552400 -0.02011600
v 0.42637900 0.00845000 0.05989800
v 0.39582900 0.00845000 -0.02011600
v 0.41691500 0.08033000 0.05989800
v 0.38740700 0.07242300 -0.02011600
v 0.38917000 0.14731300 0.05989800
v 0.36271400 0.13203700 -0.02011600
v 0.34503500 0.20483100 0.05989800
v 0.32343300 0.18322900 -0.02011600
vn 0.00000000 0.93422223 -0.35669151
vn 0.00000000 0.93422223 -0.35669151
vn 0.24179450 0.90238938 -0.35669149
vn 0.24179450 0.90238938 -0.35669149
vn -0.24179450 0.90238938 -0.35669149
vn -0.24179450 0.90238938 -0.35669149
vn 0.00000000 0.00000000 -1.00000000
vn 0.00000000 0.00000000 -1.00000000
vn 0.00000000 0.00000000 -1.00000000
vn 0.00000000 0.00000000 -1.00000000
vn 0.00000000 0.00000000 -1.00000000
vn 0.00000000 0.00000000 -1.00000000
vn 0.00000000 0.00000000 -1.00000000
vn 0.00000000 0.00000000 -1.00000000
vn 0.00000000 0.00000000 -1.00000000
vn 0.00000000 0.00000000 -1.00000000
vn 0.00000000 0.00000000 -1.00000000
vn 0.00000000 0.00000000 -1.00000000
vn 0.00000000 0.00000000 -1.00000000
vn 0.00000000 0.00000000 -1.00000000
vn 0.00000000 0.00000000 -1.00000000
vn 0.00000000 0.00000000 -1.00000000
vn 0.00000000 0.00000000 -1.00000000
vn 0.00000000 0.00000000 -1.00000000
vn 0.00000000 0.00000000 -1.00000000
vn 0.00000000 0.00000000 -1.00000000
vn 0.00000000 0.00000000 -1.00000000
vn 0.00000000 0.00000000 -1.00000000
vn 0.00000000 0.00000000 -1.00000000
vn 0.00000000 0.00000000 -1.00000000
vn 0.00000000 0.00000000 -1.00000000
vn 0.00000000 0.00000000 -1.00000000
vn 0.00000000 0.00000000 -1.00000000
vn 0.00000000 0.00000000 -1.00000000
vn 0.00000000 0.00000000 -1.00000000
vn 0.00000000 0.00000000 -1.00000000
vn 0.00000000 0.00000000 -1.00000000
vn 0.00000000 0.00000000 -1.00000000
vn 0.00000000 0.00000000 -1.00000000
vn 0.00000000 0.00000000 -1.00000000
vn 0.00000000 0.00000000 -1.00000000
vn 0.00000000 0.00000000 -1.00000000
vn 0.00000000 0.00000000 -1.00000000
vn 0.00000000 0.00000000 -1.00000000
vn 0.00000000 0.00000000 -1.00000000
vn 0.00000000 0.00000000 -1.00000000
vn 0.00000000 0.00000000 -1.00000000
vn 0.00000000 0.00000000 -1.00000000
vn 0.00000000 0.00000000 -1.00000000
vn 0.00000000 0.00000000 -1.00000000
vn 0.00000000 0.00000000 -1.00000000
vn 0.00000000 0.00000000 -1.00000000
vn 0.00000000 0.00000000 -1.00000000
vn 0.00000000 0.00000000 -1.00000000
vn 0.00000000 0.00000000 -1.00000000
vn 0.00000000 0.00000000 -1.00000000
vn 0.00000000 0.00000000 -1.00000000
vn 0.00000000 0.00000000 -1.00000000
vn 0.46711110 0.80906019 -0.35669150
vn 0.46711110 0.80906019 -0.35669150
vn -0.46711110 0.80906019 -0.35669150
vn -0.46711110 0.80906019 -0.35669150
vn -0.66059488 0.66059488 -0.35669149
vn -0.66059488 0.66059488 -0.35669149
vn -0.80906019 0.46711110 -0.35669150
vn -0.80906019 0.46711110 -0.35669150
vn -0.90238938 0.24179450 -0.35669149
vn -0.90238938 0.24179450 -0.35669149
vn -0.93422223 0.00000000 -0.35669151
vn -0.93422223 0.00000000 -0.35669151
vn -0.90238938 -0.24179450 -0.35669149
vn -0.90238938 -0.24179450 -0.35669149
vn -0.80906019 -0.46711110 -0.35669150
vn -0.80906019 -0.46711110 -0.35669150
vn -0.66059488 -0.66059488 -0.35669149
vn -0.66059488 -0.66059488 -0.35669149
vn -0.46711110 -0.80906019 -0.35669150
vn -0.46711110 -0.80906019 -0.35669150
vn -0.24179450 -0.90238938 -0.35669149
vn -0.24179450 -0.90238938 -0.35669149
vn 0.00000000 -0.93422223 -0.35669151
vn 0.00000000 -0.93422223 -0.35669151
vn 0.24179450 -0.90238938 -0.35669149
vn 0.24179450 -0.90238938 -0.35669149
vn 0.46711110 -0.80906019 -0.35669150
vn 0.46711110 -0.80906019 -0.35669150
vn 0.66059488 -0.66059488 -0.35669149
vn 0.66059488 -0.66059488 -0.35669149
vn 0.80906019 -0.46711110 -0.35669150
vn 0.80906019 -0.46711110 -0.35669150
vn 0.90238938 -0.24179450 -0.35669149
vn 0.90238938 -0.24179450 -0.35669149
vn 0.93422223 0.00000000 -0.35669151
vn 0.93422223 0.00000000 -0.35669151
vn 0.90238938 0.24179450 -0.35669149
vn 0.90238938 0.24179450 -0.35669149
vn 0.80906019 0.46711110 -0.35669150
vn 0.80906019 0.46711110 -0.35669150
vn 0.66059488 0.66059488 -0.35669149
vn 0.66059488 0.66059488 -0.35669149
f 1//1 2//2 3//3
f 4//4 3//3 2//2
f 5//5 2//2 6//6
f 1//1 6//6 2//2
f 7//7 8//8 9//9
f 9//9 8//8 10//10
f 10//10 8//8 11//11
f 11//11 8//8 12//12
f 8//8 13//13 12//12
f 14//14 15//15 13//13
f 12//12 13//13 15//15
f 16//16 17//17 18//18
f 18//18 17//17 19//19
f 17//17 20//20 19//19
f 20//20 21//21 19//19
f 21//21 22//22 19//19
f 22//22 23//23 19//19
f 23//23 24//24 19//19
f 24//24 25//25 19//19
f 25//25 26//26 19//19
f 26//26 27//27 19//19
f 19//19 27//27 28//28
f 27//27 29//29 28//28
f 29//29 30//30 28//28
f 30//30 31//31 28//28
f 31//31 32//32 28//28
f 32//32 33//33 28//28
f 28//28 33//33 9//9
f 33//33 34//34 9//9
f 34//34 35//35 9//9
f 9//9 35//35 7//7
f 35//35 36//36 7//7
f 36//36 37//37 7//7
f 37//37 38//38 7//7
f 7//7 38//38 14//14
f 38//38 39//39 14//14
f 14//14 39//39 15//15
f 39//39 40//40 15//15
f 15//15 40//40 41//41
f 41//41 40//40 42//42
f 40//40 43//43 42//42
f 42//42 43//43 44//44
f 43//43 45//45 44//44
f 46//46 44//44 45//45
f 21//21 20//20 47//47
f 47//47 20//20 48//48
f 48//48 20//20 49//49
f 49//49 20//20 50//50
f 50//50 20//20 51//51
f 51//51 20//20 52//52
f 20//20 53//53 52//52
f 52//52 53//53 54//54
f 54//54 53//53 55//55
f 55//55 53//53 56//56
f 56//56 53//53 57//57
f 57//57 53//53 58//58
f 53//53 35//35 58//58
f 34//34 58//58 35//35
f 3//3 4//4 59//59
f 60//60 59//59 4//4
f 61//61 5//5 62//62
f 6//6 62//62 5//5
f 63//63 61//61 64//64
f 62//62 64//64 61//61
f 65//65 63//63 66//66
f 64//64 66//66 63//63
f 67//67 65//65 68//68
f 66//66 68//68 65//65
f 69//69 67//67 70//70
f 68//68 70//70 67//67
f 71//71 69//69 72//72
f 70//70 72//72 69//69
f 73//73 71//71 74//74
f 72//72 74//74 71//71
f 75//75 73//73 76//76
f 74//74 76//76 73//73
f 75//75 76//76 77//77
f 78//78 77//77 76//76
f 77//77 78//78 79//79
f 80//80 79//79 78//78
f 79//79 80//80 81//81
f 82//82 81//81 80//80
f 82//82 83//83 81//81
f 84//84 81//81 83//83
f 83//83 85//85 84//84
f 86//86 84//84 85//85
f 85//85 87//87 86//86
f 88//88 86//86 87//87
f 89//89 88//88 90//90
f 87//87 90//90 88//88
f 91//91 89//89 92//92
f 90//90 92//92 89//89
f 93//93 91//91 94//94
f 92//92 94//94 91//91
f 95//95 93//93 96//96
f 94//94 96//96 93//93
f 97//97 95//95 98//98
f 96//96 98//98 95//95
f 99//99 97//97 100//100
f 98//98 100//100 97//97
f 59//59 60//60 100//100
f 99//99 100//100 60//60

