mtllib material.mtl
usemtl material_0_0
v 0.14865300 0.16378300 0.35328300
v 0.18885600 0.15849000 0.33994800
v 0.18885600 0.15849000 0.35328300
v 0.14865300 0.16378300 0.33994800
v 0.14865300 0.16378300 0.33994800
v 0.14865300 0.16378300 0.35328300
v 0.18885600 0.15849000 0.33994800
v 0.18885600 0.15849000 0.35328300
v 0.10844900 0.15849000 0.35328300
v 0.10844900 0.15849000 0.33994800
v 0.10844900 0.15849000 0.33994800
v 0.10844900 0.15849000 0.35328300
v 0.22631900 0.14297200 0.33994800
v 0.22631900 0.14297200 0.35328300
v 0.22631900 0.14297200 0.33994800
v 0.22631900 0.14297200 0.35328300
v 0.07098600 0.14297200 0.35328300
v 0.07098600 0.14297200 0.33994800
v 0.07098600 0.14297200 0.33994800
v 0.07098600 0.14297200 0.35328300
v 0.25849000 0.11828700 0.33994800
v 0.25849000 0.11828700 0.35328300
v 0.25849000 0.11828700 0.33994800
v 0.25849000 0.11828700 0.35328300
v 0.03881500 0.11828700 0.35328300
v 0.03881500 0.11828700 0.33994800
v 0.03881500 0.11828700 0.33994800
v 0.03881500 0.11828700 0.35328300
v 0.28317500 0.08611600 0.35328300
v 0.28317500 0.08611600 0.33994800
v 0.28317500 0.08611600 0.35328300
v 0.28317500 0.08611600 0.33994800
v 0.01413000 0.08611600 0.33994800
v 0.01413000 0.08611600 0.35328300
v 0.01413000 0.08611600 0.35328300
v 0.01413000 0.08611600 0.33994800
v 0.29869300 0.04865300 0.35328300
v 0.29869300 0.04865300 0.33994800
v 0.29869300 0.04865300 0.35328300
v 0.29869300 0.04865300 0.33994800
v -0.00138800 0.04865300 0.33994800
v -0.00138800 0.04865300 0.35328300
v -0.00138800 0.04865300 0.35328300
v -0.00138800 0.04865300 0.33994800
v 0.30398600 0.00844900 0.35328300
v 0.30398600 0.00844900 0.33994800
v 0.30398600 0.00844900 0.35328300
v 0.30398600 0.00844900 0.33994800
v -0.00668100 0.00844900 0.33994800
v -0.00668100 0.00844900 0.35328300
v -0.00668100 0.00844900 0.35328300
v -0.00668100 0.00844900 0.33994800
v 0.29869300 -0.03175400 0.35328300
v 0.29869300 -0.03175400 0.33994800
v 0.29869300 -0.03175400 0.35328300
v 0.29869300 -0.03175400 0.33994800
v -0.00138800 -0.03175400 0.33994800
v -0.00138800 -0.03175400 0.35328300
v -0.00138800 -0.03175400 0.35328300
v -0.00138800 -0.03175400 0.33994800
v 0.28317500 -0.06921700 0.35328300
v 0.28317500 -0.06921700 0.33994800
v 0.28317500 -0.06921700 0.35328300
v 0.28317500 -0.06921700 0.33994800
v 0.01413000 -0.06921700 0.33994800
v 0.01413000 -0.06921700 0.35328300
v 0.01413000 -0.06921700 0.35328300
v 0.01413000 -0.06921700 0.33994800
v 0.25849000 -0.10138800 0.35328300
v 0.25849000 -0.10138800 0.33994800
v 0.25849000 -0.10138800 0.35328300
v 0.25849000 -0.10138800 0.33994800
v 0.03881500 -0.10138800 0.33994800
v 0.03881500 -0.10138800 0.35328300
v 0.03881500 -0.10138800 0.35328300
v 0.03881500 -0.10138800 0.33994800
v 0.22631900 -0.12607300 0.33994800
v 0.22631900 -0.12607300 0.35328300
v 0.22631900 -0.12607300 0.35328300
v 0.22631900 -0.12607300 0.33994800
v 0.07098600 -0.12607300 0.35328300
v 0.07098600 -0.12607300 0.33994800
v 0.07098600 -0.12607300 0.35328300
v 0.07098600 -0.12607300 0.33994800
v 0.18885600 -0.14159100 0.33994800
v 0.18885600 -0.14159100 0.35328300
v 0.18885600 -0.14159100 0.35328300
v 0.18885600 -0.14159100 0.33994800
v 0.10844900 -0.14159100 0.35328300
v 0.10844900 -0.14159100 0.33994800
v 0.10844900 -0.14159100 0.35328300
v 0.10844900 -0.14159100 0.33994800
v 0.14865300 -0.14688400 0.33994800
v 0.14865300 -0.14688400 0.35328300
v 0.14865300 -0.14688400 0.35328300
v 0.14865300 -0.14688400 0.33994800
vn 0.00000000 -1.00000000 0.00000000
vn -0.25881901 -0.96592584 0.00000000
vn -0.25881901 -0.96592584 0.00000000
vn 0.00000000 -1.00000000 0.00000000
vn 0.00000000 1.00000000 0.00000000
vn 0.00000000 1.00000000 0.00000000
vn 0.25881901 0.96592584 0.00000000
vn 0.25881901 0.96592584 0.00000000
vn 0.25881901 -0.96592584 0.00000000
vn 0.25881901 -0.96592584 0.00000000
vn -0.25881901 0.96592584 0.00000000
vn -0.25881901 0.96592584 0.00000000
vn -0.50000000 -0.86602540 0.00000000
vn -0.50000000 -0.86602540 0.00000000
vn 0.50000000 0.86602540 0.00000000
vn 0.50000000 0.86602540 0.00000000
vn 0.50000000 -0.86602540 0.00000000
vn 0.50000000 -0.86602540 0.00000000
vn -0.50000000 0.86602540 0.00000000
vn -0.50000000 0.86602540 0.00000000
vn -0.70710678 -0.70710678 0.00000000
vn -0.70710678 -0.70710678 0.00000000
vn 0.70710678 0.70710678 0.00000000
vn 0.70710678 0.70710678 0.00000000
vn 0.70710678 -0.70710678 0.00000000
vn 0.70710678 -0.70710678 0.00000000
vn -0.70710678 0.70710678 0.00000000
vn -0.70710678 0.70710678 0.00000000
vn -0.86602540 -0.50000000 0.00000000
vn -0.86602540 -0.50000000 0.00000000
vn 0.86602540 0.50000000 0.00000000
vn 0.86602540 0.50000000 0.00000000
vn 0.86602540 -0.50000000 0.00000000
vn 0.86602540 -0.50000000 0.00000000
vn -0.86602540 0.50000000 0.00000000
vn -0.86602540 0.50000000 0.00000000
vn -0.96592584 -0.25881901 0.00000000
vn -0.96592584 -0.25881901 0.00000000
vn 0.96592584 0.25881901 0.00000000
vn 0.96592584 0.25881901 0.00000000
vn 0.96592584 -0.25881901 0.00000000
vn 0.96592584 -0.25881901 0.00000000
vn -0.96592584 0.25881901 0.00000000
vn -0.96592584 0.25881901 0.00000000
vn -1.00000000 0.00000000 0.00000000
vn -1.00000000 0.00000000 0.00000000
vn 1.00000000 0.00000000 0.00000000
vn 1.00000000 0.00000000 0.00000000
vn 1.00000000 0.00000000 0.00000000
vn 1.00000000 0.00000000 0.00000000
vn -1.00000000 0.00000000 0.00000000
vn -1.00000000 0.00000000 0.00000000
vn -0.96592584 0.25881901 0.00000000
vn -0.96592584 0.25881901 0.00000000
vn 0.96592584 -0.25881901 0.00000000
vn 0.96592584 -0.25881901 0.00000000
vn 0.96592584 0.25881901 0.00000000
vn 0.96592584 0.25881901 0.00000000
vn -0.96592584 -0.25881901 0.00000000
vn -0.96592584 -0.25881901 0.00000000
vn -0.86602540 0.50000000 0.00000000
vn -0.86602540 0.50000000 0.00000000
vn 0.86602540 -0.50000000 0.00000000
vn 0.86602540 -0.50000000 0.00000000
vn 0.86602540 0.50000000 0.00000000
vn 0.86602540 0.50000000 0.00000000
vn -0.86602540 -0.50000000 0.00000000
vn -0.86602540 -0.50000000 0.00000000
vn -0.70710678 0.70710678 0.00000000
vn -0.70710678 0.70710678 0.00000000
vn 0.70710678 -0.70710678 0.00000000
vn 0.70710678 -0.70710678 0.00000000
vn 0.70710678 0.70710678 0.00000000
vn 0.70710678 0.70710678 0.00000000
vn -0.70710678 -0.70710678 0.00000000
vn -0.70710678 -0.70710678 0.00000000
vn -0.50000000 0.86602540 0.00000000
vn -0.50000000 0.86602540 0.00000000
vn 0.50000000 -0.86602540 0.00000000
vn 0.50000000 -0.86602540 0.00000000
vn 0.50000000 0.86602540 0.00000000
vn 0.50000000 0.86602540 0.00000000
vn -0.50000000 -0.86602540 0.00000000
vn -0.50000000 -0.86602540 0.00000000
vn -0.25881901 0.96592584 0.00000000
vn -0.25881901 0.96592584 0.00000000
vn 0.25881901 -0.96592584 0.00000000
vn 0.25881901 -0.96592584 0.00000000
vn 0.25881901 0.96592584 0.00000000
vn 0.25881901 0.96592584 0.00000000
vn -0.25881901 -0.96592584 0.00000000
vn -0.25881901 -0.96592584 0.00000000
vn 0.00000000 1.00000000 0.00000000
vn 0.00000000 1.00000000 0.00000000
vn 0.00000000 -1.00000000 0.00000000
vn 0.00000000 -1.00000000 0.00000000
f 1//1 2//2 3//3
f 2//2 1//1 4//4
f 5//5 6//6 7//7
f 8//8 7//7 6//6
f 9//9 4//4 1//1
f 4//4 9//9 10//10
f 11//11 12//12 5//5
f 6//6 5//5 12//12
f 3//3 13//13 14//14
f 13//13 3//3 2//2
f 7//7 8//8 15//15
f 16//16 15//15 8//8
f 17//17 10//10 9//9
f 10//10 17//17 18//18
f 19//19 20//20 11//11
f 12//12 11//11 20//20
f 14//14 21//21 22//22
f 21//21 14//14 13//13
f 15//15 16//16 23//23
f 24//24 23//23 16//16
f 25//25 18//18 17//17
f 18//18 25//25 26//26
f 27//27 28//28 19//19
f 20//20 19//19 28//28
f 29//29 21//21 30//30
f 21//21 29//29 22//22
f 24//24 31//31 23//23
f 32//32 23//23 31//31
f 25//25 33//33 26//26
f 33//33 25//25 34//34
f 35//35 28//28 36//36
f 27//27 36//36 28//28
f 37//37 30//30 38//38
f 30//30 37//37 29//29
f 31//31 39//39 32//32
f 40//40 32//32 39//39
f 34//34 41//41 33//33
f 41//41 34//34 42//42
f 43//43 35//35 44//44
f 36//36 44//44 35//35
f 45//45 38//38 46//46
f 38//38 45//45 37//37
f 39//39 47//47 40//40
f 48//48 40//40 47//47
f 42//42 49//49 41//41
f 49//49 42//42 50//50
f 51//51 43//43 52//52
f 44//44 52//52 43//43
f 53//53 46//46 54//54
f 46//46 53//53 45//45
f 47//47 55//55 48//48
f 56//56 48//48 55//55
f 50//50 57//57 49//49
f 57//57 50//50 58//58
f 59//59 51//51 60//60
f 52//52 60//60 51//51
f 61//61 54//54 62//62
f 54//54 61//61 53//53
f 55//55 63//63 56//56
f 64//64 56//56 63//63
f 58//58 65//65 57//57
f 65//65 58//58 66//66
f 67//67 59//59 68//68
f 60//60 68//68 59//59
f 69//69 62//62 70//70
f 62//62 69//69 61//61
f 63//63 71//71 64//64
f 72//72 64//64 71//71
f 66//66 73//73 65//65
f 73//73 66//66 74//74
f 75//75 67//67 76//76
f 68//68 76//76 67//67
f 77//77 69//69 70//70
f 69//69 77//77 78//78
f 79//79 80//80 71//71
f 72//72 71//71 80//80
f 73//73 81//81 82//82
f 81//81 73//73 74//74
f 75//75 76//76 83//83
f 84//84 83//83 76//76
f 85//85 78//78 77//77
f 78//78 85//85 86//86
f 87//87 88//88 79//79
f 80//80 79//79 88//88
f 82//82 89//89 90//90
f 89//89 82//82 81//81
f 83//83 84//84 91//91
f 92//92 91//91 84//84
f 93//93 86//86 85//85
f 86//86 93//93 94//94
f 95//95 96//96 87//87
f 88//88 87//87 96//96
f 90//90 94//94 93//93
f 94//94 90//90 89//89
f 91//91 92//92 95//95
f 96//96 95//95 92//92

