# Blender v2.79 (sub 0) OBJ File: ''
# www.blender.org
mtllib original-105_0.mtl
o original-105_0
v 0.117943 -0.353455 -0.457410
v 0.115226 -0.321856 -0.457410
v 0.125901 -0.353455 -0.457410
v 0.111003 -0.330854 -0.457410
v 0.106568 -0.321856 -0.457410
v 0.104064 -0.353455 -0.457410
v 0.095894 -0.353455 -0.457410
v 0.117943 -0.353455 -0.456410
v 0.115226 -0.321856 -0.456410
v 0.125901 -0.353455 -0.456410
v 0.111003 -0.330854 -0.456410
v 0.106568 -0.321856 -0.456410
v 0.104064 -0.353455 -0.456410
v 0.095894 -0.353455 -0.456410
vn -0.4778 -0.6466 -0.5947
vn 0.4680 0.6521 -0.5964
vn 0.6719 -0.4822 -0.5621
vn 0.0000 -0.1600 -0.9871
vn -0.4680 0.6521 -0.5964
vn 0.4778 -0.6466 -0.5947
vn -0.6719 -0.4822 -0.5621
vn -0.4778 -0.6466 0.5947
vn 0.6719 -0.4822 0.5621
vn 0.4680 0.6521 0.5964
vn 0.0000 -0.1600 0.9871
vn -0.4680 0.6521 0.5964
vn 0.4778 -0.6466 0.5947
vn -0.6719 -0.4822 0.5621
usemtl material_1_0.009
s 1
f 1//1 2//2 3//3
f 2//2 1//1 4//4
f 2//2 4//4 5//5
f 5//5 4//4 6//6
f 5//5 6//6 7//7
f 8//8 10//9 9//10
f 9//10 11//11 8//8
f 9//10 12//12 11//11
f 12//12 13//13 11//11
f 12//12 14//14 13//13
f 7//7 6//6 13//13 14//14
f 5//5 7//7 14//14 12//12
f 2//2 5//5 12//12 9//10
f 3//3 2//2 9//10 10//9
f 1//1 3//3 10//9 8//8
f 6//6 4//4 11//11 13//13
f 4//4 1//1 8//8 11//11
