mtllib material.mtl
usemtl material_0_0
v -0.67288700 0.21415600 -0.44272500
v -0.66872900 0.17234800 -0.42880300
v -0.67288700 0.17054800 -0.44272500
v -0.66872900 0.21235500 -0.42880300
v -0.54143700 0.21235500 -0.41371000
v -0.67288700 0.21415600 -0.44272500
v -0.53413800 0.21415600 -0.42627400
v -0.66872900 0.21235500 -0.42880300
v -0.66872900 0.21235500 -0.42880300
v -0.54143700 0.17234800 -0.41371000
v -0.66872900 0.17234800 -0.42880300
v -0.54143700 0.21235500 -0.41371000
v -0.67288700 0.17054800 -0.44272500
v -0.54143700 0.17234800 -0.41371000
v -0.53413800 0.17054800 -0.42627400
v -0.66872900 0.17234800 -0.42880300
v -0.54143700 0.17234800 -0.41371000
v -0.53413800 0.21415600 -0.42627400
v -0.53413800 0.17054800 -0.42627400
v -0.54143700 0.21235500 -0.41371000
vn 0.95817931 0.00000000 -0.28616850
vn 0.95817931 0.00000000 -0.28616850
vn 0.95817931 0.00000000 -0.28616850
vn 0.95817931 0.00000000 -0.28616850
vn 0.01575242 -0.99101019 -0.13285580
vn 0.01575242 -0.99101019 -0.13285580
vn 0.01575242 -0.99101019 -0.13285580
vn 0.01575242 -0.99101019 -0.13285580
vn 0.11774310 0.00000000 -0.99304409
vn 0.11774310 0.00000000 -0.99304409
vn 0.11774310 0.00000000 -0.99304409
vn 0.11774310 0.00000000 -0.99304409
vn 0.01575242 0.99101019 -0.13285580
vn 0.01575242 0.99101019 -0.13285580
vn 0.01575242 0.99101019 -0.13285580
vn 0.01575242 0.99101019 -0.13285580
vn -0.86469198 0.00000000 -0.50230249
vn -0.86469198 0.00000000 -0.50230249
vn -0.86469198 0.00000000 -0.50230249
vn -0.86469198 0.00000000 -0.50230249
f 1//1 2//2 3//3
f 2//2 1//1 4//4
f 5//5 6//6 7//7
f 6//6 5//5 8//8
f 9//9 10//10 11//11
f 10//10 9//9 12//12
f 13//13 14//14 15//15
f 14//14 13//13 16//16
f 17//17 18//18 19//19
f 18//18 17//17 20//20

