mtllib material.mtl
usemtl material_0_0
v -0.01168900 -0.40802500 0.16401500
v -0.01168900 -0.40802500 0.16401500
v -0.01168900 -0.40802500 0.16401500
v -0.01168900 -0.40802500 0.16401500
v -0.01168900 -0.40802500 0.16401500
v -0.01168900 -0.40802500 0.16401500
v -0.02398800 -0.42146700 0.16674900
v -0.02398800 -0.42146700 0.16674900
v -0.02398800 -0.42146700 0.16674900
v -0.02398800 -0.42146700 0.16674900
v -0.02398800 -0.42146700 0.16674900
v -0.02398800 -0.42146700 0.16674900
v -0.03343300 -0.41620100 0.16567800
v -0.03343300 -0.41620100 0.16567800
v -0.03343300 -0.41620100 0.16567800
v -0.03343300 -0.41620100 0.16567800
v -0.03343300 -0.41620100 0.16567800
v -0.03343300 -0.41620100 0.16567800
v -0.00816500 -0.41551800 0.16553900
v -0.00816500 -0.41551800 0.16553900
v -0.00816500 -0.41551800 0.16553900
v -0.00816500 -0.41551800 0.16553900
v -0.00816500 -0.41551800 0.16553900
v -0.00816500 -0.41551800 0.16553900
v -0.02008100 -0.44470000 0.17147600
v -0.02008100 -0.44470000 0.17147600
v -0.02008100 -0.44470000 0.17147600
v -0.02008100 -0.44470000 0.17147600
v -0.02008100 -0.44470000 0.17147600
v -0.02008100 -0.44470000 0.17147600
v -0.03343300 -0.41554300 0.16891200
v -0.03343300 -0.41554300 0.16891200
v -0.03343300 -0.41554300 0.16891200
v -0.03343300 -0.41554300 0.16891200
v -0.03343300 -0.41554300 0.16891200
v -0.03343300 -0.41554300 0.16891200
v -0.00816500 -0.41486000 0.16877300
v -0.00816500 -0.41486000 0.16877300
v -0.00816500 -0.41486000 0.16877300
v -0.00816500 -0.41486000 0.16877300
v -0.00816500 -0.41486000 0.16877300
v -0.00816500 -0.41486000 0.16877300
v -0.02229300 -0.42511400 0.16749100
v -0.02229300 -0.42511400 0.16749100
v -0.02229300 -0.42511400 0.16749100
v -0.02229300 -0.42511400 0.16749100
v -0.02229300 -0.42511400 0.16749100
v -0.02229300 -0.42511400 0.16749100
v -0.01168900 -0.40736700 0.16724900
v -0.01168900 -0.40736700 0.16724900
v -0.01168900 -0.40736700 0.16724900
v -0.01168900 -0.40736700 0.16724900
v -0.01168900 -0.40736700 0.16724900
v -0.01168900 -0.40736700 0.16724900
v -0.02398800 -0.42080900 0.16998300
v -0.02398800 -0.42080900 0.16998300
v -0.02398800 -0.42080900 0.16998300
v -0.02398800 -0.42080900 0.16998300
v -0.02398800 -0.42080900 0.16998300
v -0.02398800 -0.42080900 0.16998300
v -0.02229300 -0.42445600 0.17072500
v -0.02229300 -0.42445600 0.17072500
v -0.02229300 -0.42445600 0.17072500
v -0.02229300 -0.42445600 0.17072500
v -0.02229300 -0.42445600 0.17072500
v -0.02229300 -0.42445600 0.17072500
v -0.02004300 -0.42991500 0.16846800
v -0.02004300 -0.42991500 0.16846800
v -0.02004300 -0.42991500 0.16846800
v -0.02004300 -0.42991500 0.16846800
v -0.02004300 -0.42991500 0.16846800
v -0.02004300 -0.42991500 0.16846800
v -0.02008100 -0.44404200 0.17471000
v -0.02008100 -0.44404200 0.17471000
v -0.02008100 -0.44404200 0.17471000
v -0.02008100 -0.44404200 0.17471000
v -0.02008100 -0.44404200 0.17471000
v -0.02008100 -0.44404200 0.17471000
v -0.00757100 -0.41957800 0.16636500
v -0.00757100 -0.41957800 0.16636500
v -0.00757100 -0.41957800 0.16636500
v -0.00757100 -0.41957800 0.16636500
v -0.00757100 -0.41957800 0.16636500
v -0.00757100 -0.41957800 0.16636500
v -0.01819500 -0.43416300 0.16933200
v -0.01819500 -0.43416300 0.16933200
v -0.01819500 -0.43416300 0.16933200
v -0.01819500 -0.43416300 0.16933200
v -0.01819500 -0.43416300 0.16933200
v -0.01819500 -0.43416300 0.16933200
v 0.00222300 -0.43565500 0.17300400
v 0.00222300 -0.43565500 0.17300400
v 0.00222300 -0.43565500 0.17300400
v 0.00222300 -0.43565500 0.17300400
v 0.00222300 -0.43565500 0.17300400
v 0.00222300 -0.43565500 0.17300400
v -0.00757100 -0.41892000 0.16959900
v -0.00757100 -0.41892000 0.16959900
v -0.00757100 -0.41892000 0.16959900
v -0.00757100 -0.41892000 0.16959900
v -0.00757100 -0.41892000 0.16959900
v -0.00757100 -0.41892000 0.16959900
v -0.00532100 -0.42437900 0.16734200
v -0.00532100 -0.42437900 0.16734200
v -0.00532100 -0.42437900 0.16734200
v -0.00532100 -0.42437900 0.16734200
v -0.00532100 -0.42437900 0.16734200
v -0.00532100 -0.42437900 0.16734200
v 0.00222300 -0.43631300 0.16977000
v 0.00222300 -0.43631300 0.16977000
v 0.00222300 -0.43631300 0.16977000
v 0.00222300 -0.43631300 0.16977000
v 0.00222300 -0.43631300 0.16977000
v 0.00222300 -0.43631300 0.16977000
v -0.01819500 -0.43350500 0.17256600
v -0.01819500 -0.43350500 0.17256600
v -0.01819500 -0.43350500 0.17256600
v -0.01819500 -0.43350500 0.17256600
v -0.01819500 -0.43350500 0.17256600
v -0.01819500 -0.43350500 0.17256600
v -0.02004300 -0.42925700 0.17170200
v -0.02004300 -0.42925700 0.17170200
v -0.02004300 -0.42925700 0.17170200
v -0.02004300 -0.42925700 0.17170200
v -0.02004300 -0.42925700 0.17170200
v -0.02004300 -0.42925700 0.17170200
v -0.00532100 -0.42372200 0.17057600
v -0.00532100 -0.42372200 0.17057600
v -0.00532100 -0.42372200 0.17057600
v -0.00532100 -0.42372200 0.17057600
v -0.00532100 -0.42372200 0.17057600
v -0.00532100 -0.42372200 0.17057600
v -0.00181200 -0.42800300 0.16807900
v -0.00181200 -0.42800300 0.16807900
v -0.00181200 -0.42800300 0.16807900
v -0.00181200 -0.42800300 0.16807900
v -0.00181200 -0.42800300 0.16807900
v -0.00181200 -0.42800300 0.16807900
v -0.00181200 -0.42734500 0.17131300
v -0.00181200 -0.42734500 0.17131300
v -0.00181200 -0.42734500 0.17131300
v -0.00181200 -0.42734500 0.17131300
v -0.00181200 -0.42734500 0.17131300
v -0.00181200 -0.42734500 0.17131300
vn 0.00000000 -0.19936947 -0.97992439
vn 0.00000000 0.19936947 0.97992439
vn -0.35824165 0.91488573 -0.18613710
vn 0.35824165 -0.91488573 0.18613710
vn 0.90816513 0.41020820 -0.08345847
vn -0.90816513 -0.41020820 0.08345847
vn -0.35824165 0.91488573 -0.18613710
vn 0.00000000 0.19936947 0.97992439
vn 0.35824165 -0.91488573 0.18613710
vn 0.00000000 -0.19936947 -0.97992439
vn 0.91007761 0.40611778 -0.08262626
vn -0.91007761 -0.40611778 0.08262626
vn -0.35824165 0.91488573 -0.18613710
vn 0.35824165 -0.91488573 0.18613710
vn 0.00000000 -0.19936947 -0.97992439
vn 0.00000000 0.19936947 0.97992439
vn -0.90879271 -0.40887140 0.08318650
vn 0.90879271 0.40887140 -0.08318650
vn 0.00000000 0.19936947 0.97992439
vn -0.35824165 0.91488573 -0.18613710
vn 0.35824165 -0.91488573 0.18613710
vn -0.90816513 -0.41020820 0.08345847
vn 0.90816513 0.41020820 -0.08345847
vn 0.00000000 -0.19936947 -0.97992439
vn 0.00000000 -0.19936947 -0.97992439
vn -0.90879271 -0.40887140 0.08318650
vn 0.90879271 0.40887140 -0.08318650
vn 0.35824165 -0.91488573 0.18613710
vn -0.35824165 0.91488573 -0.18613710
vn 0.00000000 0.19936947 0.97992439
vn -0.35824165 0.91488573 -0.18613710
vn 0.00000000 0.19936947 0.97992439
vn 0.35824165 -0.91488573 0.18613710
vn 0.00000000 -0.19936947 -0.97992439
vn -0.90879271 -0.40887140 0.08318650
vn 0.90879271 0.40887140 -0.08318650
vn 0.00000000 0.19936947 0.97992439
vn -0.90816513 -0.41020820 0.08345847
vn 0.00000000 -0.19936947 -0.97992439
vn -0.35824165 0.91488573 -0.18613710
vn 0.90816513 0.41020820 -0.08345847
vn 0.35824165 -0.91488573 0.18613710
vn -0.91007761 -0.40611778 0.08262626
vn 0.91007761 0.40611778 -0.08262626
vn 0.35824165 -0.91488573 0.18613710
vn -0.35824165 0.91488573 -0.18613710
vn 0.00000000 0.19936947 0.97992439
vn 0.00000000 -0.19936947 -0.97992439
vn 0.00000000 -0.19936947 -0.97992439
vn 0.00000000 0.19936947 0.97992439
vn -0.35824165 0.91488573 -0.18613710
vn 0.35824165 -0.91488573 0.18613710
vn 0.90816513 0.41020820 -0.08345847
vn -0.90816513 -0.41020820 0.08345847
vn 0.35824165 -0.91488573 0.18613710
vn -0.91007761 -0.40611778 0.08262626
vn 0.00000000 0.19936947 0.97992439
vn -0.35824165 0.91488573 -0.18613710
vn 0.91007761 0.40611778 -0.08262626
vn 0.00000000 -0.19936947 -0.97992439
vn -0.35824165 0.91488573 -0.18613710
vn 0.35824165 -0.91488573 0.18613710
vn 0.00000000 -0.19936947 -0.97992439
vn 0.00000000 0.19936947 0.97992439
vn 0.91007761 0.40611778 -0.08262626
vn -0.91007761 -0.40611778 0.08262626
vn 0.00000000 -0.19936947 -0.97992439
vn 0.35824165 -0.91488573 0.18613710
vn 0.00000000 0.19936947 0.97992439
vn -0.35824165 0.91488573 -0.18613710
vn -0.91985654 -0.38438020 0.07820366
vn 0.91985654 0.38438020 -0.07820366
vn 0.90879271 0.40887140 -0.08318650
vn 0.00000000 -0.19936947 -0.97992439
vn 0.00000000 0.19936947 0.97992439
vn -0.35824165 0.91488573 -0.18613710
vn -0.90879271 -0.40887140 0.08318650
vn 0.35824165 -0.91488573 0.18613710
vn 0.00000000 0.19936947 0.97992439
vn 0.90879271 0.40887140 -0.08318650
vn -0.35824165 0.91488573 -0.18613710
vn 0.00000000 -0.19936947 -0.97992439
vn 0.35824165 -0.91488573 0.18613710
vn -0.90879271 -0.40887140 0.08318650
vn 0.00000000 -0.19936947 -0.97992439
vn 0.00000000 0.19936947 0.97992439
vn 0.35824165 -0.91488573 0.18613710
vn -0.35824165 0.91488573 -0.18613710
vn 0.91985654 0.38438020 -0.07820366
vn -0.91985654 -0.38438020 0.07820366
vn 0.90298561 0.42104490 -0.08566324
vn -0.90298561 -0.42104490 0.08566324
vn -0.35824165 0.91488573 -0.18613710
vn 0.35824165 -0.91488573 0.18613710
vn 0.00000000 -0.19936947 -0.97992439
vn 0.00000000 0.19936947 0.97992439
vn -0.35824165 0.91488573 -0.18613710
vn 0.35824165 -0.91488573 0.18613710
vn -0.90879271 -0.40887140 0.08318650
vn 0.90879271 0.40887140 -0.08318650
vn 0.00000000 -0.19936947 -0.97992439
vn 0.00000000 0.19936947 0.97992439
vn 0.90879271 0.40887140 -0.08318650
vn -0.90879271 -0.40887140 0.08318650
vn 0.00000000 0.19936947 0.97992439
vn 0.00000000 -0.19936947 -0.97992439
vn 0.35824165 -0.91488573 0.18613710
vn -0.35824165 0.91488573 -0.18613710
vn 0.00000000 -0.19936947 -0.97992439
vn 0.00000000 0.19936947 0.97992439
vn -0.35824165 0.91488573 -0.18613710
vn 0.35824165 -0.91488573 0.18613710
vn -0.90298561 -0.42104490 0.08566324
vn 0.90298561 0.42104490 -0.08566324
vn 0.00000000 0.19936947 0.97992439
vn 0.00000000 -0.19936947 -0.97992439
vn 0.35824165 -0.91488573 0.18613710
vn -0.35824165 0.91488573 -0.18613710
vn -0.91985654 -0.38438020 0.07820366
vn 0.91985654 0.38438020 -0.07820366
vn -0.35824165 0.91488573 -0.18613710
vn 0.35824165 -0.91488573 0.18613710
vn 0.00000000 -0.19936947 -0.97992439
vn 0.00000000 0.19936947 0.97992439
vn 0.91985654 0.38438020 -0.07820366
vn -0.91985654 -0.38438020 0.07820366
vn 0.35824165 -0.91488573 0.18613710
vn -0.35824165 0.91488573 -0.18613710
vn 0.90879271 0.40887140 -0.08318650
vn -0.90879271 -0.40887140 0.08318650
vn 0.00000000 -0.19936947 -0.97992439
vn 0.00000000 0.19936947 0.97992439
vn 0.00000000 0.19936947 0.97992439
vn 0.00000000 -0.19936947 -0.97992439
vn 0.35824165 -0.91488573 0.18613710
vn -0.35824165 0.91488573 -0.18613710
vn -0.90298561 -0.42104490 0.08566324
vn 0.90298561 0.42104490 -0.08566324
vn 0.00000000 -0.19936947 -0.97992439
vn 0.00000000 0.19936947 0.97992439
vn -0.35824165 0.91488573 -0.18613710
vn 0.35824165 -0.91488573 0.18613710
vn 0.90298561 0.42104490 -0.08566324
vn -0.90298561 -0.42104490 0.08566324
f 1//1 10//10 15//15
f 10//10 1//1 24//24
f 16//16 8//8 2//2
f 19//19 2//2 8//8
f 10//10 25//25 15//15
f 16//16 30//30 8//8
f 31//31 3//3 13//13
f 14//14 4//4 33//33
f 5//5 41//41 23//23
f 22//22 38//38 6//6
f 42//42 9//9 21//21
f 20//20 7//7 40//40
f 25//25 10//10 48//48
f 47//47 8//8 30//30
f 26//26 35//35 17//17
f 18//18 36//36 27//27
f 3//3 31//31 51//51
f 52//52 33//33 4//4
f 41//41 5//5 53//53
f 54//54 6//6 38//38
f 9//9 42//42 55//55
f 58//58 40//40 7//7
f 11//11 65//65 44//44
f 43//43 66//66 12//12
f 25//25 48//48 67//67
f 69//69 47//47 30//30
f 35//35 26//26 77//77
f 73//73 27//27 36//36
f 57//57 50//50 32//32
f 34//34 49//49 60//60
f 50//50 57//57 37//37
f 39//39 60//60 49//49
f 65//65 11//11 59//59
f 56//56 12//12 66//66
f 61//61 81//81 46//46
f 45//45 83//83 62//62
f 67//67 48//48 82//82
f 79//79 47//47 69//69
f 85//85 25//25 67//67
f 69//69 30//30 86//86
f 28//28 94//94 78//78
f 76//76 93//93 29//29
f 75//75 57//57 32//32
f 34//34 60//60 74//74
f 57//57 75//75 64//64
f 63//63 74//74 60//60
f 81//81 61//61 97//97
f 98//98 62//62 83//83
f 67//67 82//82 106//106
f 105//105 79//79 69//69
f 25//25 85//85 109//109
f 110//110 86//86 30//30
f 72//72 120//120 89//89
f 90//90 119//119 71//71
f 94//94 28//28 112//112
f 111//111 29//29 93//93
f 115//115 75//75 96//96
f 95//95 74//74 116//116
f 64//64 75//75 124//124
f 123//123 74//74 63//63
f 64//64 124//124 102//102
f 101//101 123//123 63//63
f 129//129 80//80 100//100
f 99//99 84//84 130//130
f 80//80 129//129 103//103
f 104//104 130//130 84//84
f 127//127 68//68 107//107
f 108//108 70//70 128//128
f 109//109 85//85 134//134
f 133//133 86//86 110//110
f 120//120 72//72 125//125
f 126//126 71//71 119//119
f 118//118 136//136 88//88
f 87//87 135//135 117//117
f 138//138 91//91 114//114
f 113//113 92//92 137//137
f 75//75 115//115 124//124
f 123//123 116//116 74//74
f 115//115 96//96 140//140
f 139//139 95//95 116//116
f 102//102 124//124 132//132
f 131//131 123//123 101//101
f 68//68 127//127 122//122
f 121//121 128//128 70//70
f 136//136 118//118 141//141
f 142//142 117//117 135//135
f 91//91 138//138 143//143
f 144//144 137//137 92//92

