mtllib material.mtl
usemtl material_0_0
v 0.08803800 -0.40024900 -0.18433900
v 0.10240500 -0.39358100 -0.20306200
v 0.10240500 -0.40024800 -0.20306200
v 0.08803800 -0.39358200 -0.18433900
v 0.06931500 -0.39358300 -0.16997100
v 0.06931500 -0.40025000 -0.16997200
v 0.11143700 -0.39357900 -0.22486600
v 0.11161900 -0.39357800 -0.24826500
v 0.11451700 -0.39357800 -0.24826500
v 0.10863800 -0.39357900 -0.22561600
v 0.10240500 -0.39358100 -0.20306200
v 0.09989500 -0.39358000 -0.20451100
v 0.08803800 -0.39358200 -0.18433900
v 0.08598900 -0.39358200 -0.18638800
v 0.06931500 -0.39358300 -0.16997100
v 0.06786500 -0.39358300 -0.17248100
v 0.04751000 -0.39358300 -0.16094000
v 0.04676000 -0.39358300 -0.16373900
v 0.02411200 -0.39358400 -0.15785900
v 0.02392400 -0.39358400 -0.16073300
v -0.24260200 -0.39358400 -0.15785900
v -0.24241300 -0.39358400 -0.16073300
v -0.26525000 -0.39358000 -0.16373900
v -0.26600100 -0.39358000 -0.16094000
v -0.28635600 -0.39358000 -0.17248100
v -0.28780400 -0.39358000 -0.16997100
v -0.30447900 -0.39358000 -0.18638800
v -0.30652800 -0.39358000 -0.18433900
v -0.31838500 -0.39358000 -0.20451100
v -0.32089500 -0.39358000 -0.20306200
v -0.32712700 -0.39358000 -0.22561600
v -0.32992700 -0.39358000 -0.22486600
v -0.33010900 -0.39358000 -0.24826500
v -0.33300700 -0.39358000 -0.24826500
v 0.11143700 -0.39357700 -0.27166300
v 0.10863800 -0.39357700 -0.27091300
v 0.10240500 -0.39357700 -0.29346700
v 0.09989500 -0.39357700 -0.29201800
v 0.08803800 -0.39357600 -0.31219100
v 0.08598900 -0.39357600 -0.31014200
v 0.06931500 -0.39357600 -0.32655800
v 0.06786500 -0.39357600 -0.32404800
v 0.04751000 -0.39357600 -0.33558900
v 0.04676000 -0.39357600 -0.33279000
v 0.02411200 -0.39357600 -0.33867000
v 0.02392400 -0.39357600 -0.33579700
v -0.24260200 -0.39357600 -0.33867000
v -0.24241300 -0.39357600 -0.33579700
v -0.26525000 -0.39358000 -0.33279000
v -0.26600100 -0.39358000 -0.33558900
v -0.28635600 -0.39358000 -0.32404800
v -0.28780400 -0.39358000 -0.32655800
v -0.30447900 -0.39358000 -0.31014200
v -0.30652800 -0.39358000 -0.31219100
v -0.31838500 -0.39358000 -0.29201800
v -0.32089500 -0.39358000 -0.29346700
v -0.32712700 -0.39358000 -0.27091300
v -0.32992700 -0.39358000 -0.27166300
v 0.11143700 -0.39357900 -0.22486600
v 0.11143700 -0.40024700 -0.22486600
v 0.04751000 -0.39358300 -0.16094000
v 0.04751000 -0.40025100 -0.16094000
v 0.02411200 -0.39358400 -0.15785900
v 0.02411200 -0.40025200 -0.15786000
v -0.24260200 -0.39358400 -0.15785900
v -0.24260200 -0.40025200 -0.15786000
v -0.26600100 -0.40024800 -0.16094000
v -0.26600100 -0.39358000 -0.16094000
v -0.28780400 -0.40024800 -0.16997200
v -0.28780400 -0.39358000 -0.16997100
v -0.30652800 -0.40024800 -0.18433900
v -0.30652800 -0.39358000 -0.18433900
v -0.32089500 -0.39358000 -0.20306200
v -0.32089500 -0.40024800 -0.20306200
v -0.32992700 -0.39358000 -0.22486600
v -0.32992700 -0.40024800 -0.22486600
v -0.33300700 -0.39358000 -0.24826500
v -0.33300700 -0.40024800 -0.24826500
v -0.32992700 -0.39358000 -0.27166300
v -0.32992700 -0.40024800 -0.27166300
v -0.32089500 -0.39358000 -0.29346700
v -0.32089500 -0.40024800 -0.29346700
v -0.30652800 -0.39358000 -0.31219100
v -0.30652800 -0.40024800 -0.31219100
v -0.28780400 -0.40024800 -0.32655800
v -0.28780400 -0.39358000 -0.32655800
v -0.26600100 -0.40024800 -0.33559000
v -0.26600100 -0.39358000 -0.33558900
v -0.24260200 -0.40024400 -0.33867000
v -0.24260200 -0.39357600 -0.33867000
v 0.02411200 -0.39357600 -0.33867000
v 0.02411200 -0.40024400 -0.33867000
v 0.04751000 -0.40024400 -0.33559000
v 0.04751000 -0.39357600 -0.33558900
v 0.06931500 -0.40024400 -0.32655800
v 0.06931500 -0.39357600 -0.32655800
v 0.08803800 -0.39357600 -0.31219100
v 0.08803800 -0.40024400 -0.31219100
v 0.10240500 -0.40024400 -0.29346700
v 0.10240500 -0.39357700 -0.29346700
v 0.11143700 -0.40024500 -0.27166300
v 0.11143700 -0.39357700 -0.27166300
v 0.11451700 -0.40024600 -0.24826500
v 0.11451700 -0.39357800 -0.24826500
vn -0.70710538 0.00001761 -0.70710818
vn -0.86602632 0.00001130 -0.49999841
vn -0.86602448 0.00001130 -0.50000159
vn -0.70710818 0.00001761 -0.70710538
vn -0.50000171 0.00002272 -0.86602442
vn -0.49999829 0.00002272 -0.86602639
vn 0.00000315 -1.00000000 -0.00002806
vn 0.00000315 -1.00000000 -0.00002806
vn 0.00000315 -1.00000000 -0.00002806
vn 0.00000315 -1.00000000 -0.00002806
vn 0.00000315 -1.00000000 -0.00002806
vn 0.00000315 -1.00000000 -0.00002806
vn 0.00000315 -1.00000000 -0.00002806
vn 0.00000315 -1.00000000 -0.00002806
vn 0.00000315 -1.00000000 -0.00002806
vn 0.00000315 -1.00000000 -0.00002806
vn 0.00000315 -1.00000000 -0.00002806
vn 0.00000315 -1.00000000 -0.00002806
vn 0.00000315 -1.00000000 -0.00002806
vn 0.00000315 -1.00000000 -0.00002806
vn 0.00000315 -1.00000000 -0.00002806
vn 0.00000315 -1.00000000 -0.00002806
vn 0.00000315 -1.00000000 -0.00002806
vn 0.00000315 -1.00000000 -0.00002806
vn 0.00000315 -1.00000000 -0.00002806
vn 0.00000315 -1.00000000 -0.00002806
vn 0.00000315 -1.00000000 -0.00002806
vn 0.00000315 -1.00000000 -0.00002806
vn 0.00000315 -1.00000000 -0.00002806
vn 0.00000315 -1.00000000 -0.00002806
vn 0.00000315 -1.00000000 -0.00002806
vn 0.00000315 -1.00000000 -0.00002806
vn 0.00000315 -1.00000000 -0.00002806
vn 0.00000315 -1.00000000 -0.00002806
vn 0.00000315 -1.00000000 -0.00002806
vn 0.00000315 -1.00000000 -0.00002806
vn 0.00000315 -1.00000000 -0.00002806
vn 0.00000315 -1.00000000 -0.00002806
vn 0.00000315 -1.00000000 -0.00002806
vn 0.00000315 -1.00000000 -0.00002806
vn 0.00000315 -1.00000000 -0.00002806
vn 0.00000315 -1.00000000 -0.00002806
vn 0.00000315 -1.00000000 -0.00002806
vn 0.00000315 -1.00000000 -0.00002806
vn 0.00000315 -1.00000000 -0.00002806
vn 0.00000315 -1.00000000 -0.00002806
vn 0.00000315 -1.00000000 -0.00002806
vn 0.00000315 -1.00000000 -0.00002806
vn 0.00000315 -1.00000000 -0.00002806
vn 0.00000315 -1.00000000 -0.00002806
vn 0.00000315 -1.00000000 -0.00002806
vn 0.00000315 -1.00000000 -0.00002806
vn 0.00000315 -1.00000000 -0.00002806
vn 0.00000315 -1.00000000 -0.00002806
vn 0.00000315 -1.00000000 -0.00002806
vn 0.00000315 -1.00000000 -0.00002806
vn 0.00000315 -1.00000000 -0.00002806
vn 0.00000315 -1.00000000 -0.00002806
vn -0.96592624 0.00000422 -0.25881751
vn -0.96592541 0.00000422 -0.25882060
vn -0.25882070 0.00002628 -0.96592538
vn -0.25881739 0.00002628 -0.96592627
vn -0.06540347 0.00002779 -0.99785890
vn -0.06540279 0.00002779 -0.99785894
vn 0.06540667 0.00002820 -0.99785869
vn 0.06539960 0.00002820 -0.99785915
vn 0.25881261 0.00002792 -0.96592755
vn 0.25882550 0.00002792 -0.96592410
vn 0.50000082 0.00002587 -0.86602493
vn 0.49999918 0.00002587 -0.86602587
vn 0.70710783 0.00002207 -0.70710573
vn 0.70710573 0.00002207 -0.70710783
vn 0.86602448 0.00001676 -0.50000159
vn 0.86602632 0.00001676 -0.49999841
vn 0.96592525 0.00001031 -0.25882119
vn 0.96592640 0.00001031 -0.25881690
vn 1.00000000 0.00000315 -0.00000233
vn 1.00000000 0.00000315 0.00000233
vn 0.96592643 -0.00000422 0.25881681
vn 0.96592522 -0.00000422 0.25882131
vn 0.86602650 -0.00001130 0.49999810
vn 0.86602431 -0.00001130 0.50000190
vn 0.70710808 -0.00001761 0.70710548
vn 0.70710548 -0.00001761 0.70710808
vn 0.49999880 -0.00002272 0.86602610
vn 0.50000120 -0.00002272 0.86602471
vn 0.25882501 -0.00002628 0.96592423
vn 0.25881310 -0.00002628 0.96592742
vn 0.06540640 -0.00002779 0.99785871
vn 0.06539986 -0.00002779 0.99785914
vn -0.06540338 -0.00002820 0.99785891
vn -0.06540287 -0.00002820 0.99785894
vn -0.25881800 -0.00002792 0.96592611
vn -0.25882011 -0.00002792 0.96592554
vn -0.49999950 -0.00002587 0.86602569
vn -0.50000051 -0.00002587 0.86602511
vn -0.70710688 -0.00002207 0.70710668
vn -0.70710668 -0.00002207 0.70710688
vn -0.86602558 -0.00001676 0.49999969
vn -0.86602522 -0.00001676 0.50000031
vn -0.96592606 -0.00001031 0.25881819
vn -0.96592560 -0.00001031 0.25881990
vn -1.00000000 -0.00000315 -0.00000129
vn -1.00000000 -0.00000315 0.00000130
f 1//1 2//2 3//3
f 2//2 1//1 4//4
f 5//5 1//1 6//6
f 1//1 5//5 4//4
f 7//7 8//8 9//9
f 8//8 7//7 10//10
f 10//10 7//7 11//11
f 10//10 11//11 12//12
f 12//12 11//11 13//13
f 12//12 13//13 14//14
f 14//14 13//13 15//15
f 14//14 15//15 16//16
f 16//16 15//15 17//17
f 16//16 17//17 18//18
f 18//18 17//17 19//19
f 18//18 19//19 20//20
f 20//20 19//19 21//21
f 20//20 21//21 22//22
f 22//22 21//21 23//23
f 23//23 21//21 24//24
f 23//23 24//24 25//25
f 25//25 24//24 26//26
f 25//25 26//26 27//27
f 27//27 26//26 28//28
f 27//27 28//28 29//29
f 29//29 28//28 30//30
f 29//29 30//30 31//31
f 31//31 30//30 32//32
f 31//31 32//32 33//33
f 33//33 32//32 34//34
f 8//8 35//35 9//9
f 35//35 8//8 36//36
f 35//35 36//36 37//37
f 37//37 36//36 38//38
f 37//37 38//38 39//39
f 39//39 38//38 40//40
f 39//39 40//40 41//41
f 41//41 40//40 42//42
f 41//41 42//42 43//43
f 43//43 42//42 44//44
f 43//43 44//44 45//45
f 45//45 44//44 46//46
f 45//45 46//46 47//47
f 47//47 46//46 48//48
f 47//47 48//48 49//49
f 47//47 49//49 50//50
f 50//50 49//49 51//51
f 50//50 51//51 52//52
f 52//52 51//51 53//53
f 52//52 53//53 54//54
f 54//54 53//53 55//55
f 54//54 55//55 56//56
f 56//56 55//55 57//57
f 56//56 57//57 58//58
f 58//58 57//57 33//33
f 58//58 33//33 34//34
f 3//3 59//59 60//60
f 59//59 3//3 2//2
f 61//61 6//6 62//62
f 6//6 61//61 5//5
f 63//63 62//62 64//64
f 62//62 63//63 61//61
f 65//65 64//64 66//66
f 64//64 65//65 63//63
f 67//67 65//65 66//66
f 65//65 67//67 68//68
f 69//69 68//68 67//67
f 68//68 69//69 70//70
f 71//71 70//70 69//69
f 70//70 71//71 72//72
f 73//73 71//71 74//74
f 71//71 73//73 72//72
f 75//75 74//74 76//76
f 74//74 75//75 73//73
f 77//77 76//76 78//78
f 76//76 77//77 75//75
f 79//79 78//78 80//80
f 78//78 79//79 77//77
f 81//81 80//80 82//82
f 80//80 81//81 79//79
f 83//83 82//82 84//84
f 82//82 83//83 81//81
f 85//85 83//83 84//84
f 83//83 85//85 86//86
f 87//87 86//86 85//85
f 86//86 87//87 88//88
f 89//89 88//88 87//87
f 88//88 89//89 90//90
f 91//91 89//89 92//92
f 89//89 91//91 90//90
f 93//93 91//91 92//92
f 91//91 93//93 94//94
f 95//95 94//94 93//93
f 94//94 95//95 96//96
f 97//97 95//95 98//98
f 95//95 97//97 96//96
f 99//99 97//97 98//98
f 97//97 99//99 100//100
f 101//101 100//100 99//99
f 100//100 101//101 102//102
f 103//103 102//102 101//101
f 102//102 103//103 104//104
f 60//60 104//104 103//103
f 104//104 60//60 59//59

