# Blender v2.79 (sub 0) OBJ File: ''
# www.blender.org
mtllib original-117.mtl
o original-117
v 0.547411 0.372375 -0.094483
v 0.532304 0.371267 -0.094483
v 0.546139 0.369852 -0.094483
v 0.535195 0.371739 -0.094483
v 0.536308 0.372328 -0.094483
v 0.537200 0.373153 -0.094483
v 0.548174 0.375310 -0.094483
v 0.538373 0.375608 -0.094483
v 0.548428 0.378657 -0.094483
v 0.538764 0.379200 -0.094483
v 0.548428 0.403206 -0.094483
v 0.538764 0.403206 -0.094483
v 0.536051 0.364167 -0.094483
v 0.528651 0.364163 -0.094483
v 0.532304 0.363928 -0.094483
v 0.525446 0.364865 -0.094483
v 0.539310 0.364881 -0.094483
v 0.522689 0.366036 -0.094483
v 0.542079 0.366072 -0.094483
v 0.520378 0.367675 -0.094483
v 0.544358 0.367740 -0.094483
v 0.518553 0.369765 -0.094483
v 0.517249 0.372288 -0.094483
v 0.529368 0.371758 -0.094483
v 0.528256 0.372372 -0.094483
v 0.516466 0.375243 -0.094483
v 0.527381 0.373231 -0.094483
v 0.526247 0.375705 -0.094483
v 0.516205 0.378632 -0.094483
v 0.525869 0.379200 -0.094483
v 0.516205 0.403206 -0.094483
v 0.525869 0.403206 -0.094483
v 0.525869 0.403206 -0.094483
v 0.525869 0.379200 -0.094483
v 0.516205 0.403206 -0.094483
v 0.516205 0.378632 -0.094483
v 0.526247 0.375705 -0.094483
v 0.516466 0.375243 -0.094483
v 0.527381 0.373231 -0.094483
v 0.528256 0.372372 -0.094483
v 0.517249 0.372288 -0.094483
v 0.529368 0.371758 -0.094483
v 0.532304 0.371267 -0.094483
v 0.546139 0.369852 -0.094483
v 0.518553 0.369765 -0.094483
v 0.544358 0.367740 -0.094483
v 0.520378 0.367675 -0.094483
v 0.542079 0.366072 -0.094483
v 0.522689 0.366036 -0.094483
v 0.539310 0.364881 -0.094483
v 0.525446 0.364865 -0.094483
v 0.536051 0.364167 -0.094483
v 0.528651 0.364163 -0.094483
v 0.532304 0.363928 -0.094483
v 0.538764 0.403206 -0.094483
v 0.548428 0.403206 -0.094483
v 0.538764 0.379200 -0.094483
v 0.548428 0.378657 -0.094483
v 0.538373 0.375608 -0.094483
v 0.548174 0.375310 -0.094483
v 0.537200 0.373153 -0.094483
v 0.547411 0.372375 -0.094483
v 0.536308 0.372328 -0.094483
v 0.535195 0.371739 -0.094483
v 0.547411 0.372375 -0.093483
v 0.532304 0.371267 -0.093483
v 0.546139 0.369852 -0.093483
v 0.535195 0.371739 -0.093483
v 0.536308 0.372328 -0.093483
v 0.537200 0.373153 -0.093483
v 0.548174 0.375310 -0.093483
v 0.538373 0.375608 -0.093483
v 0.548428 0.378657 -0.093483
v 0.538764 0.379200 -0.093483
v 0.548428 0.403206 -0.093483
v 0.538764 0.403206 -0.093483
v 0.536051 0.364167 -0.093483
v 0.528651 0.364163 -0.093483
v 0.532304 0.363928 -0.093483
v 0.525446 0.364865 -0.093483
v 0.539310 0.364881 -0.093483
v 0.522689 0.366036 -0.093483
v 0.542079 0.366072 -0.093483
v 0.520378 0.367675 -0.093483
v 0.544358 0.367740 -0.093483
v 0.518553 0.369765 -0.093483
v 0.517249 0.372288 -0.093483
v 0.529368 0.371758 -0.093483
v 0.528256 0.372372 -0.093483
v 0.516466 0.375243 -0.093483
v 0.527381 0.373231 -0.093483
v 0.526247 0.375705 -0.093483
v 0.516205 0.378632 -0.093483
v 0.525869 0.379200 -0.093483
v 0.516205 0.403206 -0.093483
v 0.525869 0.403206 -0.093483
v 0.525869 0.403206 -0.093483
v 0.525869 0.379200 -0.093483
v 0.516205 0.403206 -0.093483
v 0.516205 0.378632 -0.093483
v 0.526247 0.375705 -0.093483
v 0.516466 0.375243 -0.093483
v 0.527381 0.373231 -0.093483
v 0.528256 0.372372 -0.093483
v 0.517249 0.372288 -0.093483
v 0.529368 0.371758 -0.093483
v 0.532304 0.371267 -0.093483
v 0.546139 0.369852 -0.093483
v 0.518553 0.369765 -0.093483
v 0.544358 0.367740 -0.093483
v 0.520378 0.367675 -0.093483
v 0.542079 0.366072 -0.093483
v 0.522689 0.366036 -0.093483
v 0.539310 0.364881 -0.093483
v 0.525446 0.364865 -0.093483
v 0.536051 0.364167 -0.093483
v 0.528651 0.364163 -0.093483
v 0.532304 0.363928 -0.093483
v 0.538764 0.403206 -0.093483
v 0.548428 0.403206 -0.093483
v 0.538764 0.379200 -0.093483
v 0.548428 0.378657 -0.093483
v 0.538373 0.375608 -0.093483
v 0.548174 0.375310 -0.093483
v 0.537200 0.373153 -0.093483
v 0.547411 0.372375 -0.093483
v 0.536308 0.372328 -0.093483
v 0.535195 0.371739 -0.093483
vn 0.6826 -0.2574 -0.6840
vn 0.6104 -0.4032 -0.6818
vn 0.0013 0.6663 -0.7457
vn -0.2124 0.6319 -0.7454
vn -0.3906 0.5510 -0.7374
vn -0.5306 0.3910 -0.7520
vn 0.7162 -0.1193 -0.6876
vn -0.6396 0.1819 -0.7469
vn 0.7149 -0.0271 -0.6987
vn -0.6935 0.0376 -0.7195
vn 0.5774 0.5774 -0.5774
vn -0.5774 0.5774 -0.5774
vn 0.1007 -0.7164 -0.6904
vn -0.0002 -0.7210 -0.6930
vn -0.1009 -0.7163 -0.6905
vn -0.2208 -0.6925 -0.6868
vn 0.2225 -0.6924 -0.6863
vn -0.3558 -0.6372 -0.6837
vn 0.3625 -0.6345 -0.6826
vn -0.4907 -0.5429 -0.6815
vn 0.4995 -0.5351 -0.6813
vn -0.6054 -0.4119 -0.6811
vn -0.6811 -0.2626 -0.6834
vn 0.2186 0.6277 -0.7471
vn 0.4026 0.5404 -0.7389
vn -0.7162 -0.1214 -0.6872
vn 0.5410 0.3799 -0.7503
vn 0.6431 0.1771 -0.7450
vn -0.7150 -0.0275 -0.6986
vn 0.6936 0.0374 -0.7194
vn -0.2124 0.6318 -0.7454
vn 0.6826 -0.2574 0.6840
vn 0.0013 0.6663 0.7457
vn 0.6104 -0.4032 0.6818
vn -0.2124 0.6319 0.7454
vn -0.3906 0.5510 0.7374
vn -0.5306 0.3910 0.7520
vn 0.7162 -0.1193 0.6876
vn -0.6396 0.1819 0.7469
vn 0.7149 -0.0271 0.6987
vn -0.6935 0.0376 0.7195
vn 0.5774 0.5774 0.5774
vn -0.5774 0.5774 0.5774
vn 0.1007 -0.7164 0.6904
vn -0.1009 -0.7163 0.6905
vn -0.0002 -0.7209 0.6930
vn -0.2208 -0.6925 0.6868
vn 0.2225 -0.6924 0.6863
vn -0.3558 -0.6372 0.6837
vn 0.3625 -0.6345 0.6826
vn -0.4907 -0.5429 0.6815
vn 0.4995 -0.5351 0.6813
vn -0.6054 -0.4119 0.6811
vn -0.6811 -0.2626 0.6834
vn 0.2186 0.6277 0.7471
vn 0.4026 0.5403 0.7389
vn -0.7163 -0.1214 0.6872
vn 0.5410 0.3799 0.7503
vn 0.6431 0.1771 0.7450
vn -0.7150 -0.0275 0.6986
vn 0.6936 0.0374 0.7194
usemtl material_0_0.006
s 1
f 1//1 3//2 2//3
f 2//3 4//4 1//1
f 4//4 5//5 1//1
f 5//5 6//6 1//1
f 6//6 7//7 1//1
f 6//6 8//8 7//7
f 8//8 9//9 7//7
f 8//8 10//10 9//9
f 10//10 11//11 9//9
f 10//10 12//12 11//11
f 13//13 15//14 14//15
f 14//15 16//16 13//13
f 16//16 17//17 13//13
f 16//16 18//18 17//17
f 18//18 19//19 17//17
f 18//18 20//20 19//19
f 20//20 21//21 19//19
f 20//20 22//22 21//21
f 22//22 3//2 21//21
f 22//22 23//23 3//2
f 23//23 2//3 3//2
f 23//23 24//24 2//3
f 23//23 25//25 24//24
f 23//23 26//26 25//25
f 26//26 27//27 25//25
f 26//26 28//28 27//27
f 26//26 29//29 28//28
f 29//29 30//30 28//28
f 29//29 31//12 30//30
f 31//12 32//11 30//30
f 33//11 34//30 35//12
f 35//12 34//30 36//29
f 34//30 37//28 36//29
f 36//29 37//28 38//26
f 37//28 39//27 38//26
f 39//27 40//25 38//26
f 38//26 40//25 41//23
f 40//25 42//24 41//23
f 42//24 43//3 41//23
f 43//3 44//2 41//23
f 41//23 44//2 45//22
f 44//2 46//21 45//22
f 45//22 46//21 47//20
f 46//21 48//19 47//20
f 47//20 48//19 49//18
f 48//19 50//17 49//18
f 49//18 50//17 51//16
f 50//17 52//13 51//16
f 51//16 52//13 53//15
f 54//14 53//15 52//13
f 55//12 56//11 57//10
f 56//11 58//9 57//10
f 57//10 58//9 59//8
f 58//9 60//7 59//8
f 59//8 60//7 61//6
f 60//7 62//1 61//6
f 61//6 62//1 63//5
f 63//5 62//1 64//31
f 64//31 62//1 43//3
f 44//2 43//3 62//1
f 65//32 66//33 67//34
f 66//33 65//32 68//35
f 68//35 65//32 69//36
f 69//36 65//32 70//37
f 70//37 65//32 71//38
f 70//37 71//38 72//39
f 72//39 71//38 73//40
f 72//39 73//40 74//41
f 74//41 73//40 75//42
f 74//41 75//42 76//43
f 77//44 78//45 79//46
f 78//45 77//44 80//47
f 80//47 77//44 81//48
f 80//47 81//48 82//49
f 82//49 81//48 83//50
f 82//49 83//50 84//51
f 84//51 83//50 85//52
f 84//51 85//52 86//53
f 86//53 85//52 67//34
f 86//53 67//34 87//54
f 87//54 67//34 66//33
f 87//54 66//33 88//55
f 87//54 88//55 89//56
f 87//54 89//56 90//57
f 90//57 89//56 91//58
f 90//57 91//58 92//59
f 90//57 92//59 93//60
f 93//60 92//59 94//61
f 93//60 94//61 95//43
f 95//43 94//61 96//42
f 97//42 99//43 98//61
f 99//43 100//60 98//61
f 98//61 100//60 101//59
f 100//60 102//57 101//59
f 101//59 102//57 103//58
f 103//58 102//57 104//56
f 102//57 105//54 104//56
f 104//56 105//54 106//55
f 106//55 105//54 107//33
f 107//33 105//54 108//34
f 105//54 109//53 108//34
f 108//34 109//53 110//52
f 109//53 111//51 110//52
f 110//52 111//51 112//50
f 111//51 113//49 112//50
f 112//50 113//49 114//48
f 113//49 115//47 114//48
f 114//48 115//47 116//44
f 115//47 117//45 116//44
f 118//46 116//44 117//45
f 119//43 121//41 120//42
f 120//42 121//41 122//40
f 121//41 123//39 122//40
f 122//40 123//39 124//38
f 123//39 125//37 124//38
f 124//38 125//37 126//32
f 125//37 127//36 126//32
f 127//36 128//35 126//32
f 128//35 107//33 126//32
f 108//34 126//32 107//33
f 51//16 53//15 117//45 115//47
f 29//29 26//26 90//57 93//60
f 63//5 64//31 128//35 127//36
f 25//25 27//27 91//58 89//56
f 26//26 23//23 87//54 90//57
f 10//10 8//8 72//39 74//41
f 36//29 38//26 102//57 100//60
f 31//12 29//29 93//60 95//43
f 49//18 51//16 115//47 113//49
f 40//25 39//27 103//58 104//56
f 8//8 6//6 70//37 72//39
f 41//23 45//22 109//53 105//54
f 59//8 61//6 125//37 123//39
f 21//21 3//2 67//34 85//52
f 6//6 5//5 69//36 70//37
f 43//3 42//24 106//55 107//33
f 35//12 36//29 100//60 99//43
f 22//22 20//20 84//51 86//53
f 58//9 56//11 120//42 122//40
f 57//10 59//8 123//39 121//41
f 45//22 47//20 111//51 109//53
f 20//20 18//18 82//49 84//51
f 34//30 33//11 97//42 98//61
f 47//20 49//18 113//49 111//51
f 9//9 11//11 75//42 73//40
f 61//6 63//5 127//36 125//37
f 13//13 17//17 81//48 77//44
f 28//28 30//30 94//61 92//59
f 4//4 2//3 66//33 68//35
f 27//27 28//28 92//59 91//58
f 53//15 54//14 118//46 117//45
f 14//15 15//14 79//46 78//45
f 54//14 52//13 116//44 118//46
f 15//14 13//13 77//44 79//46
f 56//11 55//12 119//43 120//42
f 50//17 48//19 112//50 114//48
f 38//26 41//23 105//54 102//57
f 39//27 37//28 101//59 103//58
f 23//23 22//22 86//53 87//54
f 52//13 50//17 114//48 116//44
f 46//21 44//2 108//34 110//52
f 30//30 32//11 96//42 94//61
f 62//1 60//7 124//38 126//32
f 2//3 24//24 88//55 66//33
f 24//24 25//25 89//56 88//55
f 18//18 16//16 80//47 82//49
f 44//2 62//1 126//32 108//34
f 32//11 31//12 95//43 96//42
f 7//7 9//9 73//40 71//38
f 19//19 21//21 85//52 83//50
f 60//7 58//9 122//40 124//38
f 37//28 34//30 98//61 101//59
f 48//19 46//21 110//52 112//50
f 33//11 35//12 99//43 97//42
f 1//1 7//7 71//38 65//32
f 11//11 12//12 76//43 75//42
f 64//31 43//3 107//33 128//35
f 17//17 19//19 83//50 81//48
f 5//5 4//4 68//35 69//36
f 12//12 10//10 74//41 76//43
f 55//12 57//10 121//41 119//43
f 42//24 40//25 104//56 106//55
f 3//2 1//1 65//32 67//34
f 16//16 14//15 78//45 80//47
