mtllib material.mtl
usemtl material_0_0
v 0.03913200 0.39322800 -0.13521000
v 0.25817300 0.39322800 -0.32648000
v 0.25817300 0.39322800 -0.13521000
v 0.03913200 0.39322800 -0.32648000
v 0.03913200 0.39322800 -0.32648000
v 0.03913200 0.39322800 -0.13521000
v 0.25817300 0.39322800 -0.32648000
v 0.25817300 0.39322800 -0.13521000
v 0.25817300 0.39322800 -0.13521000
v 0.23349700 0.40656400 -0.13521000
v 0.03913200 0.39322800 -0.13521000
v 0.25817300 0.45323900 -0.13521000
v 0.23349700 0.43990300 -0.13521000
v 0.22016200 0.43990300 -0.13521000
v 0.22016200 0.45323900 -0.13521000
v 0.07714400 0.45323900 -0.13521000
v 0.06380800 0.43990300 -0.13521000
v 0.07714400 0.43990300 -0.13521000
v 0.06380800 0.40656400 -0.13521000
v 0.03913200 0.45323900 -0.13521000
v 0.07714400 0.45323900 -0.13521000
v 0.06380800 0.43990300 -0.13521000
v 0.03913200 0.45323900 -0.13521000
v 0.06380800 0.40656400 -0.13521000
v 0.23349700 0.40656400 -0.13521000
v 0.03913200 0.39322800 -0.13521000
v 0.07714400 0.43990300 -0.13521000
v 0.22016200 0.45323900 -0.13521000
v 0.25817300 0.45323900 -0.13521000
v 0.22016200 0.43990300 -0.13521000
v 0.23349700 0.43990300 -0.13521000
v 0.25817300 0.39322800 -0.13521000
v 0.03913200 0.39322800 -0.13521000
v 0.03913200 0.45323900 -0.32648000
v 0.03913200 0.39322800 -0.32648000
v 0.03913200 0.45323900 -0.13521000
v 0.03913200 0.45323900 -0.13521000
v 0.03913200 0.39322800 -0.13521000
v 0.03913200 0.45323900 -0.32648000
v 0.03913200 0.39322800 -0.32648000
v 0.03913200 0.39322800 -0.32648000
v 0.06380800 0.40656400 -0.32648000
v 0.25817300 0.39322800 -0.32648000
v 0.03913200 0.45323900 -0.32648000
v 0.06380800 0.43990300 -0.32648000
v 0.07714400 0.43990300 -0.32648000
v 0.07714400 0.45323900 -0.32648000
v 0.22016200 0.45323900 -0.32648000
v 0.23349700 0.43990300 -0.32648000
v 0.22016200 0.43990300 -0.32648000
v 0.23349700 0.40656400 -0.32648000
v 0.25817300 0.45323900 -0.32648000
v 0.22016200 0.45323900 -0.32648000
v 0.23349700 0.43990300 -0.32648000
v 0.25817300 0.45323900 -0.32648000
v 0.23349700 0.40656400 -0.32648000
v 0.06380800 0.40656400 -0.32648000
v 0.25817300 0.39322800 -0.32648000
v 0.22016200 0.43990300 -0.32648000
v 0.07714400 0.45323900 -0.32648000
v 0.03913200 0.45323900 -0.32648000
v 0.07714400 0.43990300 -0.32648000
v 0.06380800 0.43990300 -0.32648000
v 0.03913200 0.39322800 -0.32648000
v 0.25817300 0.45323900 -0.13521000
v 0.25817300 0.39322800 -0.32648000
v 0.25817300 0.45323900 -0.32648000
v 0.25817300 0.39322800 -0.13521000
v 0.25817300 0.39322800 -0.13521000
v 0.25817300 0.45323900 -0.13521000
v 0.25817300 0.39322800 -0.32648000
v 0.25817300 0.45323900 -0.32648000
v 0.22016200 0.45323900 -0.32648000
v 0.25817300 0.45323900 -0.13521000
v 0.25817300 0.45323900 -0.32648000
v 0.22016200 0.45323900 -0.13521000
v 0.22016200 0.45323900 -0.13521000
v 0.22016200 0.45323900 -0.32648000
v 0.25817300 0.45323900 -0.13521000
v 0.25817300 0.45323900 -0.32648000
v 0.22016200 0.43990300 -0.13521000
v 0.22016200 0.45323900 -0.32648000
v 0.22016200 0.43990300 -0.32648000
v 0.22016200 0.45323900 -0.13521000
v 0.22016200 0.45323900 -0.13521000
v 0.22016200 0.43990300 -0.13521000
v 0.22016200 0.45323900 -0.32648000
v 0.22016200 0.43990300 -0.32648000
v 0.22016200 0.43990300 -0.13521000
v 0.23349700 0.43990300 -0.32648000
v 0.23349700 0.43990300 -0.13521000
v 0.22016200 0.43990300 -0.32648000
v 0.22016200 0.43990300 -0.32648000
v 0.22016200 0.43990300 -0.13521000
v 0.23349700 0.43990300 -0.32648000
v 0.23349700 0.43990300 -0.13521000
v 0.23349700 0.40656400 -0.13521000
v 0.23349700 0.43990300 -0.32648000
v 0.23349700 0.40656400 -0.32648000
v 0.23349700 0.43990300 -0.13521000
v 0.23349700 0.43990300 -0.13521000
v 0.23349700 0.40656400 -0.13521000
v 0.23349700 0.43990300 -0.32648000
v 0.23349700 0.40656400 -0.32648000
v 0.15900700 0.40656400 -0.20621200
v 0.16198800 0.40656400 -0.17002900
v 0.16865600 0.40656400 -0.21020900
v 0.16153400 0.40656400 -0.17348100
v 0.16020200 0.40656400 -0.17669700
v 0.15808300 0.40656400 -0.17945900
v 0.14865300 0.40656400 -0.20484900
v 0.15532100 0.40656400 -0.18157800
v 0.15210400 0.40656400 -0.18291100
v 0.14865300 0.40656400 -0.18336500
v 0.13829800 0.40656400 -0.20621200
v 0.14520100 0.40656400 -0.18291100
v 0.14198500 0.40656400 -0.18157800
v 0.13922300 0.40656400 -0.17945900
v 0.13710400 0.40656400 -0.17669700
v 0.12864900 0.40656400 -0.21020900
v 0.13577100 0.40656400 -0.17348100
v 0.13531700 0.40656400 -0.17002900
v 0.23349700 0.40656400 -0.32648000
v 0.18729700 0.40656400 -0.25521100
v 0.23349700 0.40656400 -0.13521000
v 0.18330000 0.40656400 -0.26486000
v 0.17694200 0.40656400 -0.27314500
v 0.16865600 0.40656400 -0.27950300
v 0.06380800 0.40656400 -0.32648000
v 0.18866000 0.40656400 -0.24485600
v 0.15900700 0.40656400 -0.28350000
v 0.14865300 0.40656400 -0.28486300
v 0.13829800 0.40656400 -0.28350000
v 0.12864900 0.40656400 -0.27950300
v 0.12036400 0.40656400 -0.27314500
v 0.11400600 0.40656400 -0.26486000
v 0.11000900 0.40656400 -0.25521100
v 0.10864600 0.40656400 -0.24485600
v 0.15210400 0.40656400 -0.15714800
v 0.06380800 0.40656400 -0.13521000
v 0.15532100 0.40656400 -0.15848000
v 0.15808300 0.40656400 -0.16060000
v 0.16020200 0.40656400 -0.16336100
v 0.16153400 0.40656400 -0.16657800
v 0.18729700 0.40656400 -0.23450200
v 0.18330000 0.40656400 -0.22485300
v 0.17694200 0.40656400 -0.21656700
v 0.14865300 0.40656400 -0.15669400
v 0.14520100 0.40656400 -0.15714800
v 0.14198500 0.40656400 -0.15848000
v 0.13922300 0.40656400 -0.16060000
v 0.13710400 0.40656400 -0.16336100
v 0.13577100 0.40656400 -0.16657800
v 0.12036400 0.40656400 -0.21656700
v 0.11400600 0.40656400 -0.22485300
v 0.11000900 0.40656400 -0.23450200
v 0.06380800 0.40656400 -0.32648000
v 0.10864600 0.40656400 -0.24485600
v 0.06380800 0.40656400 -0.13521000
v 0.11000900 0.40656400 -0.23450200
v 0.11400600 0.40656400 -0.22485300
v 0.12036400 0.40656400 -0.21656700
v 0.12864900 0.40656400 -0.21020900
v 0.13531700 0.40656400 -0.17002900
v 0.13577100 0.40656400 -0.16657800
v 0.13710400 0.40656400 -0.16336100
v 0.13922300 0.40656400 -0.16060000
v 0.14198500 0.40656400 -0.15848000
v 0.14520100 0.40656400 -0.15714800
v 0.14865300 0.40656400 -0.15669400
v 0.15210400 0.40656400 -0.15714800
v 0.16198800 0.40656400 -0.17002900
v 0.16865600 0.40656400 -0.21020900
v 0.16153400 0.40656400 -0.16657800
v 0.17694200 0.40656400 -0.21656700
v 0.18330000 0.40656400 -0.22485300
v 0.18729700 0.40656400 -0.23450200
v 0.18866000 0.40656400 -0.24485600
v 0.23349700 0.40656400 -0.13521000
v 0.16020200 0.40656400 -0.16336100
v 0.15808300 0.40656400 -0.16060000
v 0.15532100 0.40656400 -0.15848000
v 0.11000900 0.40656400 -0.25521100
v 0.11400600 0.40656400 -0.26486000
v 0.12036400 0.40656400 -0.27314500
v 0.12864900 0.40656400 -0.27950300
v 0.13829800 0.40656400 -0.28350000
v 0.14865300 0.40656400 -0.28486300
v 0.15900700 0.40656400 -0.28350000
v 0.16865600 0.40656400 -0.27950300
v 0.18729700 0.40656400 -0.25521100
v 0.23349700 0.40656400 -0.32648000
v 0.17694200 0.40656400 -0.27314500
v 0.18330000 0.40656400 -0.26486000
v 0.13577100 0.40656400 -0.17348100
v 0.13710400 0.40656400 -0.17669700
v 0.13829800 0.40656400 -0.20621200
v 0.13922300 0.40656400 -0.17945900
v 0.14198500 0.40656400 -0.18157800
v 0.14520100 0.40656400 -0.18291100
v 0.14865300 0.40656400 -0.18336500
v 0.14865300 0.40656400 -0.20484900
v 0.15210400 0.40656400 -0.18291100
v 0.15532100 0.40656400 -0.18157800
v 0.15808300 0.40656400 -0.17945900
v 0.15900700 0.40656400 -0.20621200
v 0.16020200 0.40656400 -0.17669700
v 0.16153400 0.40656400 -0.17348100
v 0.06380800 0.43990300 -0.13521000
v 0.06380800 0.40656400 -0.32648000
v 0.06380800 0.43990300 -0.32648000
v 0.06380800 0.40656400 -0.13521000
v 0.06380800 0.40656400 -0.13521000
v 0.06380800 0.43990300 -0.13521000
v 0.06380800 0.40656400 -0.32648000
v 0.06380800 0.43990300 -0.32648000
v 0.06380800 0.43990300 -0.13521000
v 0.07714400 0.43990300 -0.32648000
v 0.07714400 0.43990300 -0.13521000
v 0.06380800 0.43990300 -0.32648000
v 0.06380800 0.43990300 -0.32648000
v 0.06380800 0.43990300 -0.13521000
v 0.07714400 0.43990300 -0.32648000
v 0.07714400 0.43990300 -0.13521000
v 0.07714400 0.45323900 -0.13521000
v 0.07714400 0.43990300 -0.32648000
v 0.07714400 0.45323900 -0.32648000
v 0.07714400 0.43990300 -0.13521000
v 0.07714400 0.43990300 -0.13521000
v 0.07714400 0.45323900 -0.13521000
v 0.07714400 0.43990300 -0.32648000
v 0.07714400 0.45323900 -0.32648000
v 0.03913200 0.45323900 -0.32648000
v 0.07714400 0.45323900 -0.13521000
v 0.07714400 0.45323900 -0.32648000
v 0.03913200 0.45323900 -0.13521000
v 0.03913200 0.45323900 -0.13521000
v 0.03913200 0.45323900 -0.32648000
v 0.07714400 0.45323900 -0.13521000
v 0.07714400 0.45323900 -0.32648000
vn 0.00000000 -1.00000000 0.00000000
vn 0.00000000 -1.00000000 0.00000000
vn 0.00000000 -1.00000000 0.00000000
vn 0.00000000 -1.00000000 0.00000000
vn 0.00000000 1.00000000 0.00000000
vn 0.00000000 1.00000000 0.00000000
vn 0.00000000 1.00000000 0.00000000
vn 0.00000000 1.00000000 0.00000000
vn 0.00000000 0.00000000 1.00000000
vn 0.00000000 0.00000000 1.00000000
vn 0.00000000 0.00000000 1.00000000
vn 0.00000000 0.00000000 1.00000000
vn 0.00000000 0.00000000 1.00000000
vn 0.00000000 0.00000000 1.00000000
vn 0.00000000 0.00000000 1.00000000
vn 0.00000000 0.00000000 1.00000000
vn 0.00000000 0.00000000 1.00000000
vn 0.00000000 0.00000000 1.00000000
vn 0.00000000 0.00000000 1.00000000
vn 0.00000000 0.00000000 1.00000000
vn 0.00000000 0.00000000 -1.00000000
vn 0.00000000 0.00000000 -1.00000000
vn 0.00000000 0.00000000 -1.00000000
vn 0.00000000 0.00000000 -1.00000000
vn 0.00000000 0.00000000 -1.00000000
vn 0.00000000 0.00000000 -1.00000000
vn 0.00000000 0.00000000 -1.00000000
vn 0.00000000 0.00000000 -1.00000000
vn 0.00000000 0.00000000 -1.00000000
vn 0.00000000 0.00000000 -1.00000000
vn 0.00000000 0.00000000 -1.00000000
vn 0.00000000 0.00000000 -1.00000000
vn -1.00000000 0.00000000 0.00000000
vn -1.00000000 0.00000000 0.00000000
vn -1.00000000 0.00000000 0.00000000
vn -1.00000000 0.00000000 0.00000000
vn 1.00000000 0.00000000 0.00000000
vn 1.00000000 0.00000000 0.00000000
vn 1.00000000 0.00000000 0.00000000
vn 1.00000000 0.00000000 0.00000000
vn 0.00000000 0.00000000 -1.00000000
vn 0.00000000 0.00000000 -1.00000000
vn 0.00000000 0.00000000 -1.00000000
vn 0.00000000 0.00000000 -1.00000000
vn 0.00000000 0.00000000 -1.00000000
vn 0.00000000 0.00000000 -1.00000000
vn 0.00000000 0.00000000 -1.00000000
vn 0.00000000 0.00000000 -1.00000000
vn 0.00000000 0.00000000 -1.00000000
vn 0.00000000 0.00000000 -1.00000000
vn 0.00000000 0.00000000 -1.00000000
vn 0.00000000 0.00000000 -1.00000000
vn 0.00000000 0.00000000 1.00000000
vn 0.00000000 0.00000000 1.00000000
vn 0.00000000 0.00000000 1.00000000
vn 0.00000000 0.00000000 1.00000000
vn 0.00000000 0.00000000 1.00000000
vn 0.00000000 0.00000000 1.00000000
vn 0.00000000 0.00000000 1.00000000
vn 0.00000000 0.00000000 1.00000000
vn 0.00000000 0.00000000 1.00000000
vn 0.00000000 0.00000000 1.00000000
vn 0.00000000 0.00000000 1.00000000
vn 0.00000000 0.00000000 1.00000000
vn 1.00000000 0.00000000 0.00000000
vn 1.00000000 0.00000000 0.00000000
vn 1.00000000 0.00000000 0.00000000
vn 1.00000000 0.00000000 0.00000000
vn -1.00000000 0.00000000 0.00000000
vn -1.00000000 0.00000000 0.00000000
vn -1.00000000 0.00000000 0.00000000
vn -1.00000000 0.00000000 0.00000000
vn 0.00000000 1.00000000 0.00000000
vn 0.00000000 1.00000000 0.00000000
vn 0.00000000 1.00000000 0.00000000
vn 0.00000000 1.00000000 0.00000000
vn 0.00000000 -1.00000000 0.00000000
vn 0.00000000 -1.00000000 0.00000000
vn 0.00000000 -1.00000000 0.00000000
vn 0.00000000 -1.00000000 0.00000000
vn -1.00000000 0.00000000 0.00000000
vn -1.00000000 0.00000000 0.00000000
vn -1.00000000 0.00000000 0.00000000
vn -1.00000000 0.00000000 0.00000000
vn 1.00000000 0.00000000 0.00000000
vn 1.00000000 0.00000000 0.00000000
vn 1.00000000 0.00000000 0.00000000
vn 1.00000000 0.00000000 0.00000000
vn 0.00000000 -1.00000000 0.00000000
vn 0.00000000 -1.00000000 0.00000000
vn 0.00000000 -1.00000000 0.00000000
vn 0.00000000 -1.00000000 0.00000000
vn 0.00000000 1.00000000 0.00000000
vn 0.00000000 1.00000000 0.00000000
vn 0.00000000 1.00000000 0.00000000
vn 0.00000000 1.00000000 0.00000000
vn -1.00000000 0.00000000 0.00000000
vn -1.00000000 0.00000000 0.00000000
vn -1.00000000 0.00000000 0.00000000
vn -1.00000000 0.00000000 0.00000000
vn 1.00000000 0.00000000 0.00000000
vn 1.00000000 0.00000000 0.00000000
vn 1.00000000 0.00000000 0.00000000
vn 1.00000000 0.00000000 0.00000000
vn 0.00000000 1.00000000 0.00000000
vn 0.00000000 1.00000000 0.00000000
vn 0.00000000 1.00000000 0.00000000
vn 0.00000000 1.00000000 0.00000000
vn 0.00000000 1.00000000 0.00000000
vn 0.00000000 1.00000000 0.00000000
vn 0.00000000 1.00000000 0.00000000
vn 0.00000000 1.00000000 0.00000000
vn 0.00000000 1.00000000 0.00000000
vn 0.00000000 1.00000000 0.00000000
vn 0.00000000 1.00000000 0.00000000
vn 0.00000000 1.00000000 0.00000000
vn 0.00000000 1.00000000 0.00000000
vn 0.00000000 1.00000000 0.00000000
vn 0.00000000 1.00000000 0.00000000
vn 0.00000000 1.00000000 0.00000000
vn 0.00000000 1.00000000 0.00000000
vn 0.00000000 1.00000000 0.00000000
vn 0.00000000 1.00000000 0.00000000
vn 0.00000000 1.00000000 0.00000000
vn 0.00000000 1.00000000 0.00000000
vn 0.00000000 1.00000000 0.00000000
vn 0.00000000 1.00000000 0.00000000
vn 0.00000000 1.00000000 0.00000000
vn 0.00000000 1.00000000 0.00000000
vn 0.00000000 1.00000000 0.00000000
vn 0.00000000 1.00000000 0.00000000
vn 0.00000000 1.00000000 0.00000000
vn 0.00000000 1.00000000 0.00000000
vn 0.00000000 1.00000000 0.00000000
vn 0.00000000 1.00000000 0.00000000
vn 0.00000000 1.00000000 0.00000000
vn 0.00000000 1.00000000 0.00000000
vn 0.00000000 1.00000000 0.00000000
vn 0.00000000 1.00000000 0.00000000
vn 0.00000000 1.00000000 0.00000000
vn 0.00000000 1.00000000 0.00000000
vn 0.00000000 1.00000000 0.00000000
vn 0.00000000 1.00000000 0.00000000
vn 0.00000000 1.00000000 0.00000000
vn 0.00000000 1.00000000 0.00000000
vn 0.00000000 1.00000000 0.00000000
vn 0.00000000 1.00000000 0.00000000
vn 0.00000000 1.00000000 0.00000000
vn 0.00000000 1.00000000 0.00000000
vn 0.00000000 1.00000000 0.00000000
vn 0.00000000 1.00000000 0.00000000
vn 0.00000000 1.00000000 0.00000000
vn 0.00000000 1.00000000 0.00000000
vn 0.00000000 1.00000000 0.00000000
vn 0.00000000 1.00000000 0.00000000
vn 0.00000000 1.00000000 0.00000000
vn 0.00000000 -1.00000000 0.00000000
vn 0.00000000 -1.00000000 0.00000000
vn 0.00000000 -1.00000000 0.00000000
vn 0.00000000 -1.00000000 0.00000000
vn 0.00000000 -1.00000000 0.00000000
vn 0.00000000 -1.00000000 0.00000000
vn 0.00000000 -1.00000000 0.00000000
vn 0.00000000 -1.00000000 0.00000000
vn 0.00000000 -1.00000000 0.00000000
vn 0.00000000 -1.00000000 0.00000000
vn 0.00000000 -1.00000000 0.00000000
vn 0.00000000 -1.00000000 0.00000000
vn 0.00000000 -1.00000000 0.00000000
vn 0.00000000 -1.00000000 0.00000000
vn 0.00000000 -1.00000000 0.00000000
vn 0.00000000 -1.00000000 0.00000000
vn 0.00000000 -1.00000000 0.00000000
vn 0.00000000 -1.00000000 0.00000000
vn 0.00000000 -1.00000000 0.00000000
vn 0.00000000 -1.00000000 0.00000000
vn 0.00000000 -1.00000000 0.00000000
vn 0.00000000 -1.00000000 0.00000000
vn 0.00000000 -1.00000000 0.00000000
vn 0.00000000 -1.00000000 0.00000000
vn 0.00000000 -1.00000000 0.00000000
vn 0.00000000 -1.00000000 0.00000000
vn 0.00000000 -1.00000000 0.00000000
vn 0.00000000 -1.00000000 0.00000000
vn 0.00000000 -1.00000000 0.00000000
vn 0.00000000 -1.00000000 0.00000000
vn 0.00000000 -1.00000000 0.00000000
vn 0.00000000 -1.00000000 0.00000000
vn 0.00000000 -1.00000000 0.00000000
vn 0.00000000 -1.00000000 0.00000000
vn 0.00000000 -1.00000000 0.00000000
vn 0.00000000 -1.00000000 0.00000000
vn 0.00000000 -1.00000000 0.00000000
vn 0.00000000 -1.00000000 0.00000000
vn 0.00000000 -1.00000000 0.00000000
vn 0.00000000 -1.00000000 0.00000000
vn 0.00000000 -1.00000000 0.00000000
vn 0.00000000 -1.00000000 0.00000000
vn 0.00000000 -1.00000000 0.00000000
vn 0.00000000 -1.00000000 0.00000000
vn 0.00000000 -1.00000000 0.00000000
vn 0.00000000 -1.00000000 0.00000000
vn 0.00000000 -1.00000000 0.00000000
vn 0.00000000 -1.00000000 0.00000000
vn 0.00000000 -1.00000000 0.00000000
vn 0.00000000 -1.00000000 0.00000000
vn 0.00000000 -1.00000000 0.00000000
vn 0.00000000 -1.00000000 0.00000000
vn 1.00000000 0.00000000 0.00000000
vn 1.00000000 0.00000000 0.00000000
vn 1.00000000 0.00000000 0.00000000
vn 1.00000000 0.00000000 0.00000000
vn -1.00000000 0.00000000 0.00000000
vn -1.00000000 0.00000000 0.00000000
vn -1.00000000 0.00000000 0.00000000
vn -1.00000000 0.00000000 0.00000000
vn 0.00000000 -1.00000000 0.00000000
vn 0.00000000 -1.00000000 0.00000000
vn 0.00000000 -1.00000000 0.00000000
vn 0.00000000 -1.00000000 0.00000000
vn 0.00000000 1.00000000 0.00000000
vn 0.00000000 1.00000000 0.00000000
vn 0.00000000 1.00000000 0.00000000
vn 0.00000000 1.00000000 0.00000000
vn 1.00000000 0.00000000 0.00000000
vn 1.00000000 0.00000000 0.00000000
vn 1.00000000 0.00000000 0.00000000
vn 1.00000000 0.00000000 0.00000000
vn -1.00000000 0.00000000 0.00000000
vn -1.00000000 0.00000000 0.00000000
vn -1.00000000 0.00000000 0.00000000
vn -1.00000000 0.00000000 0.00000000
vn 0.00000000 1.00000000 0.00000000
vn 0.00000000 1.00000000 0.00000000
vn 0.00000000 1.00000000 0.00000000
vn 0.00000000 1.00000000 0.00000000
vn 0.00000000 -1.00000000 0.00000000
vn 0.00000000 -1.00000000 0.00000000
vn 0.00000000 -1.00000000 0.00000000
vn 0.00000000 -1.00000000 0.00000000
f 1//1 2//2 3//3
f 2//2 1//1 4//4
f 5//5 6//6 7//7
f 8//8 7//7 6//6
f 9//9 10//10 11//11
f 10//10 9//9 12//12
f 10//10 12//12 13//13
f 13//13 12//12 14//14
f 14//14 12//12 15//15
f 16//16 17//17 18//18
f 11//11 19//19 20//20
f 19//19 11//11 10//10
f 20//20 19//19 17//17
f 20//20 17//17 16//16
f 21//21 22//22 23//23
f 22//22 24//24 23//23
f 25//25 26//26 24//24
f 23//23 24//24 26//26
f 27//27 22//22 21//21
f 28//28 29//29 30//30
f 30//30 29//29 31//31
f 31//31 29//29 25//25
f 29//29 32//32 25//25
f 26//26 25//25 32//32
f 33//33 34//34 35//35
f 34//34 33//33 36//36
f 37//37 38//38 39//39
f 40//40 39//39 38//38
f 41//41 42//42 43//43
f 42//42 41//41 44//44
f 42//42 44//44 45//45
f 45//45 44//44 46//46
f 46//46 44//44 47//47
f 48//48 49//49 50//50
f 43//43 51//51 52//52
f 51//51 43//43 42//42
f 52//52 51//51 49//49
f 52//52 49//49 48//48
f 53//53 54//54 55//55
f 54//54 56//56 55//55
f 57//57 58//58 56//56
f 55//55 56//56 58//58
f 59//59 54//54 53//53
f 60//60 61//61 62//62
f 62//62 61//61 63//63
f 63//63 61//61 57//57
f 61//61 64//64 57//57
f 58//58 57//57 64//64
f 65//65 66//66 67//67
f 66//66 65//65 68//68
f 69//69 70//70 71//71
f 72//72 71//71 70//70
f 73//73 74//74 75//75
f 74//74 73//73 76//76
f 77//77 78//78 79//79
f 80//80 79//79 78//78
f 81//81 82//82 83//83
f 82//82 81//81 84//84
f 85//85 86//86 87//87
f 88//88 87//87 86//86
f 89//89 90//90 91//91
f 90//90 89//89 92//92
f 93//93 94//94 95//95
f 96//96 95//95 94//94
f 97//97 98//98 99//99
f 98//98 97//97 100//100
f 101//101 102//102 103//103
f 104//104 103//103 102//102
f 105//105 106//106 107//107
f 106//106 105//105 108//108
f 108//108 105//105 109//109
f 109//109 105//105 110//110
f 110//110 105//105 111//111
f 110//110 111//111 112//112
f 112//112 111//111 113//113
f 113//113 111//111 114//114
f 114//114 111//111 115//115
f 114//114 115//115 116//116
f 116//116 115//115 117//117
f 117//117 115//115 118//118
f 118//118 115//115 119//119
f 119//119 115//115 120//120
f 119//119 120//120 121//121
f 121//121 120//120 122//122
f 123//123 124//124 125//125
f 124//124 123//123 126//126
f 126//126 123//123 127//127
f 127//127 123//123 128//128
f 128//128 123//123 129//129
f 125//125 124//124 130//130
f 128//128 129//129 131//131
f 131//131 129//129 132//132
f 132//132 129//129 133//133
f 133//133 129//129 134//134
f 134//134 129//129 135//135
f 135//135 129//129 136//136
f 136//136 129//129 137//137
f 137//137 129//129 138//138
f 125//125 139//139 140//140
f 139//139 125//125 141//141
f 141//141 125//125 142//142
f 142//142 125//125 143//143
f 143//143 125//125 144//144
f 144//144 125//125 145//145
f 145//145 125//125 130//130
f 144//144 145//145 146//146
f 144//144 146//146 147//147
f 144//144 147//147 107//107
f 144//144 107//107 106//106
f 140//140 139//139 148//148
f 140//140 148//148 149//149
f 140//140 149//149 150//150
f 140//140 150//150 151//151
f 140//140 151//151 152//152
f 140//140 152//152 153//153
f 140//140 153//153 122//122
f 140//140 122//122 120//120
f 140//140 120//120 154//154
f 140//140 154//154 155//155
f 140//140 155//155 156//156
f 140//140 156//156 138//138
f 140//140 138//138 129//129
f 157//157 158//158 159//159
f 158//158 160//160 159//159
f 160//160 161//161 159//159
f 161//161 162//162 159//159
f 162//162 163//163 159//159
f 163//163 164//164 159//159
f 164//164 165//165 159//159
f 165//165 166//166 159//159
f 166//166 167//167 159//159
f 167//167 168//168 159//159
f 168//168 169//169 159//159
f 169//169 170//170 159//159
f 170//170 171//171 159//159
f 172//172 173//173 174//174
f 173//173 175//175 174//174
f 175//175 176//176 174//174
f 176//176 177//177 174//174
f 178//178 179//179 177//177
f 177//177 179//179 174//174
f 174//174 179//179 180//180
f 180//180 179//179 181//181
f 181//181 179//179 182//182
f 182//182 179//179 171//171
f 159//159 171//171 179//179
f 158//158 157//157 183//183
f 183//183 157//157 184//184
f 184//184 157//157 185//185
f 185//185 157//157 186//186
f 186//186 157//157 187//187
f 187//187 157//157 188//188
f 188//188 157//157 189//189
f 189//189 157//157 190//190
f 178//178 191//191 179//179
f 157//157 192//192 190//190
f 190//190 192//192 193//193
f 193//193 192//192 194//194
f 194//194 192//192 191//191
f 179//179 191//191 192//192
f 164//164 163//163 195//195
f 195//195 163//163 196//196
f 163//163 197//197 196//196
f 196//196 197//197 198//198
f 198//198 197//197 199//199
f 199//199 197//197 200//200
f 200//200 197//197 201//201
f 197//197 202//202 201//201
f 201//201 202//202 203//203
f 203//203 202//202 204//204
f 204//204 202//202 205//205
f 202//202 206//206 205//205
f 205//205 206//206 207//207
f 207//207 206//206 208//208
f 208//208 206//206 172//172
f 173//173 172//172 206//206
f 209//209 210//210 211//211
f 210//210 209//209 212//212
f 213//213 214//214 215//215
f 216//216 215//215 214//214
f 217//217 218//218 219//219
f 218//218 217//217 220//220
f 221//221 222//222 223//223
f 224//224 223//223 222//222
f 225//225 226//226 227//227
f 226//226 225//225 228//228
f 229//229 230//230 231//231
f 232//232 231//231 230//230
f 233//233 234//234 235//235
f 234//234 233//233 236//236
f 237//237 238//238 239//239
f 240//240 239//239 238//238

