mtllib material.mtl
usemtl material_0_0
v -0.60973000 -0.10547200 -0.44866600
v -0.61347500 -0.10924300 -0.45311100
v -0.60227500 -0.11525500 -0.44778200
v -0.60686100 -0.11792200 -0.45232600
v -0.60384500 -0.11525500 -0.43453900
v -0.61130000 -0.10547200 -0.43542300
v -0.60227500 -0.11525500 -0.44778200
v -0.60973000 -0.10547200 -0.44866600
v -0.59758800 -0.12664800 -0.44722600
v -0.60270400 -0.12802900 -0.45183400
v -0.64290000 -0.09696900 -0.45659900
v -0.65367100 -0.09839700 -0.45787700
v -0.63213000 -0.09839700 -0.45532200
v -0.62209300 -0.10258300 -0.45413200
v -0.66370700 -0.10258300 -0.45906700
v -0.67232600 -0.10924300 -0.46008800
v -0.61347500 -0.10924300 -0.45311100
v -0.67893900 -0.11792200 -0.46087300
v -0.60686100 -0.11792200 -0.45232600
v -0.68309600 -0.12802900 -0.46136500
v -0.60270400 -0.12802900 -0.45183400
v -0.68451400 -0.13887400 -0.46153400
v -0.60128600 -0.13887400 -0.45166500
v -0.60270400 -0.14972000 -0.45183400
v -0.68309600 -0.14972000 -0.46136500
v -0.60686100 -0.15982700 -0.45232600
v -0.67893900 -0.15982700 -0.46087300
v -0.67232600 -0.16850600 -0.46008800
v -0.61347500 -0.16850600 -0.45311100
v -0.66370700 -0.17516600 -0.45906700
v -0.62209300 -0.17516600 -0.45413200
v -0.63213000 -0.17935200 -0.45532200
v -0.65367100 -0.17935200 -0.45787700
v -0.64290000 -0.18078000 -0.45659900
v -0.61944500 -0.09796400 -0.44981800
v -0.62209300 -0.10258300 -0.45413200
v -0.62101500 -0.09796400 -0.43657500
v -0.61944500 -0.09796400 -0.44981800
v -0.59915900 -0.12664800 -0.43398300
v -0.59758800 -0.12664800 -0.44722600
v -0.60128600 -0.13887400 -0.45166500
v -0.59599000 -0.13887400 -0.44703700
v -0.67607100 -0.10547200 -0.45653200
v -0.68352600 -0.11525500 -0.45741600
v -0.67232600 -0.10924300 -0.46008800
v -0.67893900 -0.11792200 -0.46087300
v -0.66635500 -0.09796400 -0.45538000
v -0.66370700 -0.10258300 -0.45906700
v -0.65504100 -0.09324500 -0.45403800
v -0.65367100 -0.09839700 -0.45787700
v -0.64290000 -0.09163600 -0.45259900
v -0.64290000 -0.09696900 -0.45659900
v -0.63075900 -0.09324500 -0.45115900
v -0.63213000 -0.09839700 -0.45532200
v -0.60270400 -0.14972000 -0.45183400
v -0.59758800 -0.15110100 -0.44722600
v -0.60686100 -0.15982700 -0.45232600
v -0.60227500 -0.16249400 -0.44778200
v -0.61347500 -0.16850600 -0.45311100
v -0.60973000 -0.17227700 -0.44866600
v -0.62209300 -0.17516600 -0.45413200
v -0.61944500 -0.17978400 -0.44981800
v -0.63213000 -0.17935200 -0.45532200
v -0.63075900 -0.18450400 -0.45115900
v -0.64290000 -0.18078000 -0.45659900
v -0.64290000 -0.18611300 -0.45259900
v -0.65367100 -0.17935200 -0.45787700
v -0.65504100 -0.18450400 -0.45403800
v -0.66370700 -0.17516600 -0.45906700
v -0.66635500 -0.17978400 -0.45538000
v -0.67232600 -0.16850600 -0.46008800
v -0.67607100 -0.17227700 -0.45653200
v -0.67893900 -0.15982700 -0.46087300
v -0.68352600 -0.16249400 -0.45741600
v -0.68309600 -0.14972000 -0.46136500
v -0.68821200 -0.15110100 -0.45797100
v -0.68451400 -0.13887400 -0.46153400
v -0.68981000 -0.13887400 -0.45816100
v -0.68309600 -0.12802900 -0.46136500
v -0.68821200 -0.12664800 -0.45797100
v -0.63232900 -0.09324500 -0.43791600
v -0.63075900 -0.09324500 -0.45115900
v -0.59756000 -0.13887400 -0.43379400
v -0.59599000 -0.13887400 -0.44703700
v -0.67764100 -0.10547200 -0.44328900
v -0.68509600 -0.11525500 -0.44417300
v -0.67607100 -0.10547200 -0.45653200
v -0.68352600 -0.11525500 -0.45741600
v -0.66792500 -0.09796400 -0.44213700
v -0.66635500 -0.09796400 -0.45538000
v -0.65661100 -0.09324500 -0.44079500
v -0.65504100 -0.09324500 -0.45403800
v -0.64447000 -0.09163600 -0.43935600
v -0.64290000 -0.09163600 -0.45259900
v -0.59915900 -0.15110100 -0.43398300
v -0.59758800 -0.15110100 -0.44722600
v -0.60384500 -0.16249400 -0.43453900
v -0.60227500 -0.16249400 -0.44778200
v -0.61130000 -0.17227700 -0.43542300
v -0.60973000 -0.17227700 -0.44866600
v -0.62101500 -0.17978400 -0.43657500
v -0.61944500 -0.17978400 -0.44981800
v -0.63232900 -0.18450400 -0.43791600
v -0.63075900 -0.18450400 -0.45115900
v -0.64447000 -0.18611300 -0.43935600
v -0.64290000 -0.18611300 -0.45259900
v -0.65661100 -0.18450400 -0.44079500
v -0.65504100 -0.18450400 -0.45403800
v -0.66792500 -0.17978400 -0.44213700
v -0.66635500 -0.17978400 -0.45538000
v -0.67764100 -0.17227700 -0.44328900
v -0.67607100 -0.17227700 -0.45653200
v -0.68509600 -0.16249400 -0.44417300
v -0.68352600 -0.16249400 -0.45741600
v -0.68978200 -0.15110100 -0.44472800
v -0.68821200 -0.15110100 -0.45797100
v -0.69138000 -0.13887400 -0.44491800
v -0.68981000 -0.13887400 -0.45816100
v -0.68978200 -0.12664800 -0.44472800
v -0.68821200 -0.12664800 -0.45797100
vn -0.50093358 -0.40440199 0.76519578
vn -0.49779049 -0.40780929 0.76543858
vn -0.58687641 -0.28323910 0.75851941
vn -0.58534558 -0.28607459 0.75863817
vn -0.86000141 -0.50000000 -0.10196850
vn -0.70218819 -0.70710679 -0.08325696
vn -0.86000141 -0.50000000 -0.10196850
vn -0.70218819 -0.70710679 -0.08325696
vn -0.64006309 -0.14574320 0.75437269
vn -0.63965959 -0.14734340 0.75440409
vn -0.11774310 0.00000000 0.99304409
vn -0.11774310 0.00000000 0.99304409
vn -0.11774310 0.00000000 0.99304409
vn -0.11774310 0.00000000 0.99304409
vn -0.11774310 0.00000000 0.99304409
vn -0.11774310 0.00000000 0.99304409
vn -0.11774310 0.00000000 0.99304409
vn -0.11774310 0.00000000 0.99304409
vn -0.11774310 0.00000000 0.99304409
vn -0.11774310 0.00000000 0.99304409
vn -0.11774310 0.00000000 0.99304409
vn -0.11774310 0.00000000 0.99304409
vn -0.11774310 0.00000000 0.99304409
vn -0.11774310 0.00000000 0.99304409
vn -0.11774310 0.00000000 0.99304409
vn -0.11774310 0.00000000 0.99304409
vn -0.11774310 0.00000000 0.99304409
vn -0.11774310 0.00000000 0.99304409
vn -0.11774310 0.00000000 0.99304409
vn -0.11774310 0.00000000 0.99304409
vn -0.11774310 0.00000000 0.99304409
vn -0.11774310 0.00000000 0.99304409
vn -0.11774310 0.00000000 0.99304409
vn -0.11774310 0.00000000 0.99304409
vn -0.38640940 -0.50153790 0.77404620
vn -0.38152969 -0.50468559 0.77442078
vn -0.49652201 -0.86602542 -0.05887156
vn -0.49652201 -0.86602542 -0.05887156
vn -0.95920694 -0.25881901 -0.11373110
vn -0.95920694 -0.25881901 -0.11373110
vn -0.65805813 0.00000000 0.75296713
vn -0.65805813 0.00000000 0.75296713
vn 0.34282391 -0.44154531 0.82916193
vn 0.44735673 -0.31542302 0.83688725
vn 0.34681921 -0.43785592 0.82945683
vn 0.44941039 -0.31208609 0.83703798
vn 0.20972930 -0.53368819 0.81926219
vn 0.21551129 -0.53071629 0.81969208
vn 0.05906858 -0.58625551 0.80796991
vn 0.06596951 -0.58480468 0.80848717
vn -0.09761544 -0.59720129 0.79612929
vn -0.09053813 -0.59760259 0.79666429
vn -0.24933070 -0.56770071 0.78457001
vn -0.24300999 -0.56977189 0.78505168
vn -0.63965959 0.14734340 0.75440409
vn -0.64006309 0.14574320 0.75437269
vn -0.58534558 0.28607459 0.75863817
vn -0.58687641 0.28323910 0.75851941
vn -0.49779049 0.40780929 0.76543858
vn -0.50093358 0.40440199 0.76519578
vn -0.38152969 0.50468559 0.77442078
vn -0.38640940 0.50153790 0.77404620
vn -0.24300999 0.56977189 0.78505168
vn -0.24933070 0.56770071 0.78457001
vn -0.09053813 0.59760259 0.79666429
vn -0.09761544 0.59720129 0.79612929
vn 0.06596951 0.58480468 0.80848717
vn 0.05906858 0.58625551 0.80796991
vn 0.21551129 0.53071629 0.81969208
vn 0.20972930 0.53368819 0.81926219
vn 0.34681921 0.43785592 0.82945683
vn 0.34282391 0.44154531 0.82916193
vn 0.44941039 0.31208609 0.83703798
vn 0.44735673 0.31542302 0.83688725
vn 0.51472459 0.16235710 0.84184248
vn 0.51416462 0.16433171 0.84180154
vn 0.53714801 0.00000000 0.84348801
vn 0.53714801 0.00000000 0.84348801
vn 0.51472459 -0.16235710 0.84184248
vn 0.51416462 -0.16433171 0.84180154
vn -0.25701871 -0.96592583 -0.03047416
vn -0.25701871 -0.96592583 -0.03047416
vn -0.99304409 0.00000000 -0.11774310
vn -0.99304409 0.00000000 -0.11774310
vn 0.70218819 -0.70710679 0.08325696
vn 0.86000141 -0.50000000 0.10196850
vn 0.70218819 -0.70710679 0.08325696
vn 0.86000141 -0.50000000 0.10196850
vn 0.49652201 -0.86602542 0.05887156
vn 0.49652201 -0.86602542 0.05887156
vn 0.25701871 -0.96592583 0.03047416
vn 0.25701871 -0.96592583 0.03047416
vn 0.00000000 -1.00000000 0.00000000
vn 0.00000000 -1.00000000 0.00000000
vn -0.95920694 0.25881901 -0.11373110
vn -0.95920694 0.25881901 -0.11373110
vn -0.86000141 0.50000000 -0.10196850
vn -0.86000141 0.50000000 -0.10196850
vn -0.70218819 0.70710679 -0.08325696
vn -0.70218819 0.70710679 -0.08325696
vn -0.49652201 0.86602542 -0.05887156
vn -0.49652201 0.86602542 -0.05887156
vn -0.25701871 0.96592583 -0.03047416
vn -0.25701871 0.96592583 -0.03047416
vn 0.00000000 1.00000000 0.00000000
vn 0.00000000 1.00000000 0.00000000
vn 0.25701871 0.96592583 0.03047416
vn 0.25701871 0.96592583 0.03047416
vn 0.49652201 0.86602542 0.05887156
vn 0.49652201 0.86602542 0.05887156
vn 0.70218819 0.70710679 0.08325696
vn 0.70218819 0.70710679 0.08325696
vn 0.86000141 0.50000000 0.10196850
vn 0.86000141 0.50000000 0.10196850
vn 0.95920694 0.25881901 0.11373110
vn 0.95920694 0.25881901 0.11373110
vn 0.99304409 0.00000000 0.11774310
vn 0.99304409 0.00000000 0.11774310
vn 0.95920694 -0.25881901 0.11373110
vn 0.95920694 -0.25881901 0.11373110
f 1//1 2//2 3//3
f 4//4 3//3 2//2
f 5//5 6//6 7//7
f 8//8 7//7 6//6
f 3//3 4//4 9//9
f 10//10 9//9 4//4
f 11//11 12//12 13//13
f 13//13 12//12 14//14
f 12//12 15//15 14//14
f 15//15 16//16 14//14
f 14//14 16//16 17//17
f 16//16 18//18 17//17
f 17//17 18//18 19//19
f 18//18 20//20 19//19
f 19//19 20//20 21//21
f 20//20 22//22 21//21
f 21//21 22//22 23//23
f 23//23 22//22 24//24
f 22//22 25//25 24//24
f 24//24 25//25 26//26
f 25//25 27//27 26//26
f 27//27 28//28 26//26
f 26//26 28//28 29//29
f 28//28 30//30 29//29
f 29//29 30//30 31//31
f 31//31 30//30 32//32
f 30//30 33//33 32//32
f 34//34 32//32 33//33
f 35//35 36//36 1//1
f 2//2 1//1 36//36
f 37//37 38//38 6//6
f 8//8 6//6 38//38
f 39//39 5//5 40//40
f 7//7 40//40 5//5
f 10//10 41//41 9//9
f 42//42 9//9 41//41
f 43//43 44//44 45//45
f 46//46 45//45 44//44
f 47//47 43//43 48//48
f 45//45 48//48 43//43
f 49//49 47//47 50//50
f 48//48 50//50 47//47
f 51//51 49//49 52//52
f 50//50 52//52 49//49
f 51//51 52//52 53//53
f 54//54 53//53 52//52
f 53//53 54//54 35//35
f 36//36 35//35 54//54
f 41//41 55//55 42//42
f 56//56 42//42 55//55
f 55//55 57//57 56//56
f 58//58 56//56 57//57
f 57//57 59//59 58//58
f 60//60 58//58 59//59
f 59//59 61//61 60//60
f 62//62 60//60 61//61
f 61//61 63//63 62//62
f 64//64 62//62 63//63
f 63//63 65//65 64//64
f 66//66 64//64 65//65
f 67//67 68//68 65//65
f 66//66 65//65 68//68
f 69//69 70//70 67//67
f 68//68 67//67 70//70
f 71//71 72//72 69//69
f 70//70 69//69 72//72
f 73//73 74//74 71//71
f 72//72 71//71 74//74
f 75//75 76//76 73//73
f 74//74 73//73 76//76
f 77//77 78//78 75//75
f 76//76 75//75 78//78
f 79//79 80//80 77//77
f 78//78 77//77 80//80
f 44//44 80//80 46//46
f 79//79 46//46 80//80
f 81//81 82//82 37//37
f 38//38 37//37 82//82
f 83//83 39//39 84//84
f 40//40 84//84 39//39
f 85//85 86//86 87//87
f 88//88 87//87 86//86
f 85//85 87//87 89//89
f 90//90 89//89 87//87
f 89//89 90//90 91//91
f 92//92 91//91 90//90
f 91//91 92//92 93//93
f 94//94 93//93 92//92
f 93//93 94//94 81//81
f 82//82 81//81 94//94
f 83//83 84//84 95//95
f 96//96 95//95 84//84
f 95//95 96//96 97//97
f 98//98 97//97 96//96
f 97//97 98//98 99//99
f 100//100 99//99 98//98
f 101//101 99//99 102//102
f 100//100 102//102 99//99
f 103//103 101//101 104//104
f 102//102 104//104 101//101
f 105//105 103//103 106//106
f 104//104 106//106 103//103
f 107//107 105//105 108//108
f 106//106 108//108 105//105
f 109//109 107//107 110//110
f 108//108 110//110 107//107
f 111//111 109//109 112//112
f 110//110 112//112 109//109
f 111//111 112//112 113//113
f 114//114 113//113 112//112
f 113//113 114//114 115//115
f 116//116 115//115 114//114
f 115//115 116//116 117//117
f 118//118 117//117 116//116
f 119//119 117//117 120//120
f 118//118 120//120 117//117
f 86//86 119//119 88//88
f 120//120 88//88 119//119

