mtllib material.mtl
usemtl material_1_0
v -0.38296500 0.39438200 -0.06683100
v -0.38703400 0.34317800 -0.06334200
v -0.38296500 0.34006600 -0.06683100
v -0.39243800 0.35022100 -0.05870600
v -0.39402600 0.35399900 -0.05734400
v -0.39402600 0.38044900 -0.05734400
v -0.39243800 0.38422700 -0.05870600
v -0.38703400 0.39127000 -0.06334200
v -0.37766700 0.39760700 -0.07124000
v -0.37996700 0.33777400 -0.06932600
v -0.37766700 0.33684100 -0.07124000
v -0.37996700 0.39667400 -0.06932600
v -0.39588200 0.35842200 -0.05565200
v -0.39704100 0.36722400 -0.05459600
v -0.39588200 0.37602500 -0.05565200
v -0.37207400 0.39988200 -0.07534900
v -0.37207400 0.33456600 -0.07534900
v -0.36624300 0.40076500 -0.07911200
v -0.36624300 0.33368300 -0.07911200
v -0.36019400 0.40091300 -0.08251900
v -0.36019400 0.33353500 -0.08251900
v -0.35368400 0.33437700 -0.08566400
v -0.35368400 0.40007100 -0.08566400
v -0.34754200 0.33687400 -0.08820500
v -0.34754200 0.39757400 -0.08820500
v -0.34098000 0.34105100 -0.09046700
v -0.34098000 0.39339700 -0.09046700
v -0.34531000 0.39667400 -0.08897400
v -0.33814700 0.34317800 -0.09125500
v -0.33429500 0.34812000 -0.09232800
v -0.33814700 0.34317800 -0.09125500
v -0.33429500 0.38632700 -0.09232800
v -0.33814700 0.39127000 -0.09125500
v -0.33262200 0.35022100 -0.09268700
v -0.32922500 0.35842200 -0.09341500
v -0.33262200 0.35022100 -0.09268700
v -0.32806600 0.36722400 -0.09366300
v -0.32922500 0.37602500 -0.09341500
v -0.33262200 0.38422700 -0.09268700
vn 0.64339656 0.00000000 0.76553306
vn 0.65107597 0.00000000 0.75901257
vn 0.64339656 0.00000000 0.76553306
vn 0.65107597 0.00000000 0.75901257
vn 0.65481720 0.00000000 0.75578730
vn 0.65481720 0.00000000 0.75578730
vn 0.65107597 0.00000000 0.75901257
vn 0.65107597 0.00000000 0.75901257
vn 0.61140192 0.00000000 0.79132022
vn 0.63955562 0.00000000 0.76874483
vn 0.61140192 0.00000000 0.79132022
vn 0.63955562 0.00000000 0.76874483
vn 0.67366989 0.00000000 0.73903239
vn 0.67366989 0.00000000 0.73903239
vn 0.67366989 0.00000000 0.73903239
vn 0.56371409 0.00000000 0.82596999
vn 0.56371409 0.00000000 0.82596999
vn 0.51550530 0.00000000 0.85688639
vn 0.51550530 0.00000000 0.85688639
vn 0.46398051 0.00000000 0.88584541
vn 0.46398051 0.00000000 0.88584541
vn 0.41314180 0.00000000 0.91066671
vn 0.41314180 0.00000000 0.91066671
vn 0.36276678 0.00000000 0.93187996
vn 0.36068948 0.00000000 0.93268596
vn 0.30813790 0.00000000 0.95134170
vn 0.30858650 0.00000000 0.95119629
vn 0.32581609 0.00000000 0.94543317
vn 0.26820950 0.00000000 0.96336061
vn 0.25555500 0.00000000 0.96679452
vn 0.26820950 0.00000000 0.96336061
vn 0.25555500 0.00000000 0.96679452
vn 0.26820950 0.00000000 0.96336061
vn 0.20962660 0.00000000 0.97778151
vn 0.20962660 0.00000000 0.97778151
vn 0.20962660 0.00000000 0.97778151
vn 0.20962660 0.00000000 0.97778151
vn 0.20962660 0.00000000 0.97778151
vn 0.20962660 0.00000000 0.97778151
f 1//1 2//2 3//3
f 2//2 1//1 4//4
f 4//4 1//1 5//5
f 5//5 1//1 6//6
f 6//6 1//1 7//7
f 7//7 1//1 8//8
f 9//9 10//10 11//11
f 10//10 9//9 3//3
f 3//3 9//9 1//1
f 1//1 9//9 12//12
f 6//6 13//13 5//5
f 13//13 6//6 14//14
f 14//14 6//6 15//15
f 16//16 11//11 17//17
f 11//11 16//16 9//9
f 18//18 17//17 19//19
f 17//17 18//18 16//16
f 20//20 19//19 21//21
f 19//19 20//20 18//18
f 20//20 21//21 22//22
f 20//20 22//22 23//23
f 23//23 22//22 24//24
f 23//23 24//24 25//25
f 26//26 25//25 24//24
f 25//25 26//26 27//27
f 25//25 27//27 28//28
f 27//27 26//26 29//29
f 30//30 27//27 31//31
f 27//27 30//30 32//32
f 27//27 32//32 33//33
f 32//32 30//30 34//34
f 35//35 32//32 36//36
f 32//32 35//35 37//37
f 32//32 37//37 38//38
f 32//32 38//38 39//39

