mtllib material.mtl
usemtl material_1_0
v -0.48390900 -0.38691000 -0.12341800
v -0.47800000 -0.38691000 -0.12542300
v -0.48390900 -0.40024500 -0.12341800
v -0.47800000 -0.40024500 -0.12542300
v -0.84998900 -0.40024500 -0.16968600
v -0.84957900 -0.40024500 -0.16343300
v -0.84998900 -0.40024500 -0.27565200
v -0.84957900 -0.40024500 -0.28190500
v -0.84835600 -0.40024500 -0.28805100
v -0.84835600 -0.40024500 -0.15728700
v -0.84634200 -0.40024500 -0.15135300
v -0.84634200 -0.40024500 -0.29398500
v -0.84357000 -0.40024500 -0.29960500
v -0.84357000 -0.40024500 -0.14573300
v -0.84008900 -0.40024500 -0.30481500
v -0.84008900 -0.40024500 -0.14052300
v -0.83595700 -0.40024500 -0.30952700
v -0.83595700 -0.40024500 -0.13581100
v -0.83124600 -0.40024500 -0.31365800
v -0.83124600 -0.40024500 -0.13168000
v -0.82603500 -0.40024500 -0.12819800
v -0.82603500 -0.40024500 -0.31714000
v -0.82041500 -0.40024500 -0.12542700
v -0.82041500 -0.40024500 -0.31991200
v -0.81448100 -0.40024500 -0.32192600
v -0.81448100 -0.40024500 -0.12341200
v -0.80833500 -0.40024500 -0.32314800
v -0.80833500 -0.40024500 -0.12219000
v -0.80208200 -0.40024500 -0.32355800
v -0.80208200 -0.40024500 -0.12178000
v -0.56057400 -0.40024500 -0.22266900
v -0.55902900 -0.40024500 -0.23440800
v -0.55449800 -0.40024500 -0.24534800
v -0.54728900 -0.40024500 -0.25474100
v -0.53789600 -0.40024500 -0.26195000
v -0.52695600 -0.40024500 -0.26648100
v -0.51521700 -0.40024500 -0.26802600
v -0.50347800 -0.40024500 -0.26648100
v -0.49644500 -0.40024500 -0.32355800
v -0.49253800 -0.40024500 -0.26195000
v -0.49002900 -0.40024500 -0.32313800
v -0.48390900 -0.40024500 -0.32192000
v -0.48314500 -0.40024500 -0.25474100
v -0.47800000 -0.40024500 -0.31991500
v -0.47593600 -0.40024500 -0.24534800
v -0.47240300 -0.40024500 -0.31715500
v -0.47140500 -0.40024500 -0.23440800
v -0.46986000 -0.40024500 -0.22266900
v -0.46721500 -0.40024500 -0.13165000
v -0.46721500 -0.40024500 -0.31368800
v -0.46252400 -0.40024500 -0.30957300
v -0.46252400 -0.40024500 -0.13576500
v -0.45840900 -0.40024500 -0.14045600
v -0.45840900 -0.40024500 -0.30488200
v -0.45494200 -0.40024500 -0.29969400
v -0.45494200 -0.40024500 -0.14564400
v -0.45218200 -0.40024500 -0.29409700
v -0.45218200 -0.40024500 -0.15124100
v -0.45017700 -0.40024500 -0.28818800
v -0.45017700 -0.40024500 -0.15715000
v -0.44895900 -0.40024500 -0.28206800
v -0.44895900 -0.40024500 -0.16327000
v -0.44853900 -0.40024500 -0.16968600
v -0.44853900 -0.40024500 -0.27565200
v -0.55902900 -0.40024500 -0.21093000
v -0.55449800 -0.40024500 -0.19999000
v -0.54728900 -0.40024500 -0.19059700
v -0.53789600 -0.40024500 -0.18338800
v -0.52695600 -0.40024500 -0.17885700
v -0.51521700 -0.40024500 -0.17731200
v -0.50347800 -0.40024500 -0.17885700
v -0.49644500 -0.40024500 -0.12178000
v -0.49253800 -0.40024500 -0.18338800
v -0.49002900 -0.40024500 -0.12220000
v -0.48390900 -0.40024500 -0.12341800
v -0.48314500 -0.40024500 -0.19059700
v -0.47800000 -0.40024500 -0.12542300
v -0.47593600 -0.40024500 -0.19999000
v -0.47240300 -0.40024500 -0.12818300
v -0.47140500 -0.40024500 -0.21093000
v -0.47240300 -0.38691000 -0.12818300
v -0.47240300 -0.40024500 -0.12818300
v -0.49002900 -0.38691000 -0.12220000
v -0.49002900 -0.40024500 -0.12220000
v -0.44853900 -0.40024500 -0.16968600
v -0.44853900 -0.38691000 -0.16968600
v -0.44853900 -0.40024500 -0.27565200
v -0.44853900 -0.38691000 -0.27565200
v -0.44895900 -0.40024500 -0.16327000
v -0.44895900 -0.38691000 -0.16327000
v -0.45017700 -0.40024500 -0.15715000
v -0.45017700 -0.38691000 -0.15715000
v -0.45218200 -0.40024500 -0.15124100
v -0.45218200 -0.38691000 -0.15124100
v -0.45494200 -0.40024500 -0.14564400
v -0.45494200 -0.38691000 -0.14564400
v -0.45840900 -0.40024500 -0.14045600
v -0.45840900 -0.38691000 -0.14045600
v -0.46252400 -0.40024500 -0.13576500
v -0.46252400 -0.38691000 -0.13576500
v -0.46721500 -0.38691000 -0.13165000
v -0.46721500 -0.40024500 -0.13165000
v -0.49644500 -0.38691000 -0.12178000
v -0.49644500 -0.40024500 -0.12178000
v -0.80208200 -0.38691000 -0.12178000
v -0.80208200 -0.40024500 -0.12178000
v -0.80833500 -0.38691000 -0.12219000
v -0.80833500 -0.40024500 -0.12219000
v -0.81448100 -0.38691000 -0.12341200
v -0.81448100 -0.40024500 -0.12341200
v -0.82041500 -0.38691000 -0.12542700
v -0.82041500 -0.40024500 -0.12542700
v -0.82603500 -0.38691000 -0.12819800
v -0.82603500 -0.40024500 -0.12819800
v -0.83124600 -0.38691000 -0.13168000
v -0.83124600 -0.40024500 -0.13168000
v -0.83595700 -0.38691000 -0.13581100
v -0.83595700 -0.40024500 -0.13581100
v -0.84008900 -0.38691000 -0.14052300
v -0.84008900 -0.40024500 -0.14052300
v -0.84357000 -0.38691000 -0.14573300
v -0.84357000 -0.40024500 -0.14573300
v -0.84634200 -0.38691000 -0.15135300
v -0.84634200 -0.40024500 -0.15135300
v -0.84835600 -0.38691000 -0.15728700
v -0.84835600 -0.40024500 -0.15728700
v -0.84957900 -0.38691000 -0.16343300
v -0.84957900 -0.40024500 -0.16343300
v -0.84998900 -0.38691000 -0.16968600
v -0.84998900 -0.40024500 -0.16968600
v -0.84998900 -0.38691000 -0.27565200
v -0.84998900 -0.40024500 -0.27565200
v -0.84957900 -0.38691000 -0.28190500
v -0.84957900 -0.40024500 -0.28190500
v -0.84835600 -0.38691000 -0.28805100
v -0.84835600 -0.40024500 -0.28805100
v -0.84634200 -0.38691000 -0.29398500
v -0.84634200 -0.40024500 -0.29398500
v -0.84357000 -0.38691000 -0.29960500
v -0.84357000 -0.40024500 -0.29960500
v -0.84008900 -0.38691000 -0.30481500
v -0.84008900 -0.40024500 -0.30481500
v -0.83595700 -0.38691000 -0.30952700
v -0.83595700 -0.40024500 -0.30952700
v -0.83124600 -0.38691000 -0.31365800
v -0.83124600 -0.40024500 -0.31365800
v -0.82603500 -0.38691000 -0.31714000
v -0.82603500 -0.40024500 -0.31714000
v -0.82041500 -0.38691000 -0.31991200
v -0.82041500 -0.40024500 -0.31991200
v -0.81448100 -0.38691000 -0.32192600
v -0.81448100 -0.40024500 -0.32192600
v -0.80833500 -0.38691000 -0.32314800
v -0.80833500 -0.40024500 -0.32314800
v -0.80208200 -0.38691000 -0.32355800
v -0.80208200 -0.40024500 -0.32355800
v -0.49644500 -0.38691000 -0.32355800
v -0.49644500 -0.40024500 -0.32355800
v -0.49002900 -0.38691000 -0.32313800
v -0.49002900 -0.40024500 -0.32313800
v -0.48390900 -0.38691000 -0.32192000
v -0.48390900 -0.40024500 -0.32192000
v -0.47800000 -0.38691000 -0.31991500
v -0.47800000 -0.40024500 -0.31991500
v -0.47240300 -0.38691000 -0.31715500
v -0.47240300 -0.40024500 -0.31715500
v -0.46721500 -0.38691000 -0.31368800
v -0.46721500 -0.40024500 -0.31368800
v -0.46252400 -0.38691000 -0.30957300
v -0.46252400 -0.40024500 -0.30957300
v -0.45840900 -0.40024500 -0.30488200
v -0.45840900 -0.38691000 -0.30488200
v -0.45494200 -0.40024500 -0.29969400
v -0.45494200 -0.38691000 -0.29969400
v -0.45218200 -0.40024500 -0.29409700
v -0.45218200 -0.38691000 -0.29409700
v -0.45017700 -0.40024500 -0.28818800
v -0.45017700 -0.38691000 -0.28818800
v -0.44895900 -0.40024500 -0.28206800
v -0.44895900 -0.38691000 -0.28206800
vn -0.25881901 0.00000000 -0.96592584
vn -0.38268342 0.00000000 -0.92387954
vn -0.25881901 0.00000000 -0.96592584
vn -0.38268342 0.00000000 -0.92387954
vn 0.00000000 1.00000000 0.00000000
vn 0.00000000 1.00000000 0.00000000
vn 0.00000000 1.00000000 0.00000000
vn 0.00000000 1.00000000 0.00000000
vn 0.00000000 1.00000000 0.00000000
vn 0.00000000 1.00000000 0.00000000
vn 0.00000000 1.00000000 0.00000000
vn 0.00000000 1.00000000 0.00000000
vn 0.00000000 1.00000000 0.00000000
vn 0.00000000 1.00000000 0.00000000
vn 0.00000000 1.00000000 0.00000000
vn 0.00000000 1.00000000 0.00000000
vn 0.00000000 1.00000000 0.00000000
vn 0.00000000 1.00000000 0.00000000
vn 0.00000000 1.00000000 0.00000000
vn 0.00000000 1.00000000 0.00000000
vn 0.00000000 1.00000000 0.00000000
vn 0.00000000 1.00000000 0.00000000
vn 0.00000000 1.00000000 0.00000000
vn 0.00000000 1.00000000 0.00000000
vn 0.00000000 1.00000000 0.00000000
vn 0.00000000 1.00000000 0.00000000
vn 0.00000000 1.00000000 0.00000000
vn 0.00000000 1.00000000 0.00000000
vn 0.00000000 1.00000000 0.00000000
vn 0.00000000 1.00000000 0.00000000
vn 0.00000000 1.00000000 0.00000000
vn 0.00000000 1.00000000 0.00000000
vn 0.00000000 1.00000000 0.00000000
vn 0.00000000 1.00000000 0.00000000
vn 0.00000000 1.00000000 0.00000000
vn 0.00000000 1.00000000 0.00000000
vn 0.00000000 1.00000000 0.00000000
vn 0.00000000 1.00000000 0.00000000
vn 0.00000000 1.00000000 0.00000000
vn 0.00000000 1.00000000 0.00000000
vn 0.00000000 1.00000000 0.00000000
vn 0.00000000 1.00000000 0.00000000
vn 0.00000000 1.00000000 0.00000000
vn 0.00000000 1.00000000 0.00000000
vn 0.00000000 1.00000000 0.00000000
vn 0.00000000 1.00000000 0.00000000
vn 0.00000000 1.00000000 0.00000000
vn 0.00000000 1.00000000 0.00000000
vn 0.00000000 1.00000000 0.00000000
vn 0.00000000 1.00000000 0.00000000
vn 0.00000000 1.00000000 0.00000000
vn 0.00000000 1.00000000 0.00000000
vn 0.00000000 1.00000000 0.00000000
vn 0.00000000 1.00000000 0.00000000
vn 0.00000000 1.00000000 0.00000000
vn 0.00000000 1.00000000 0.00000000
vn 0.00000000 1.00000000 0.00000000
vn 0.00000000 1.00000000 0.00000000
vn 0.00000000 1.00000000 0.00000000
vn 0.00000000 1.00000000 0.00000000
vn 0.00000000 1.00000000 0.00000000
vn 0.00000000 1.00000000 0.00000000
vn 0.00000000 1.00000000 0.00000000
vn 0.00000000 1.00000000 0.00000000
vn 0.00000000 1.00000000 0.00000000
vn 0.00000000 1.00000000 0.00000000
vn 0.00000000 1.00000000 0.00000000
vn 0.00000000 1.00000000 0.00000000
vn 0.00000000 1.00000000 0.00000000
vn 0.00000000 1.00000000 0.00000000
vn 0.00000000 1.00000000 0.00000000
vn 0.00000000 1.00000000 0.00000000
vn 0.00000000 1.00000000 0.00000000
vn 0.00000000 1.00000000 0.00000000
vn 0.00000000 1.00000000 0.00000000
vn 0.00000000 1.00000000 0.00000000
vn 0.00000000 1.00000000 0.00000000
vn 0.00000000 1.00000000 0.00000000
vn 0.00000000 1.00000000 0.00000000
vn 0.00000000 1.00000000 0.00000000
vn -0.50000000 0.00000000 -0.86602540
vn -0.50000000 0.00000000 -0.86602540
vn -0.13052619 0.00000000 -0.99144486
vn -0.13052619 0.00000000 -0.99144486
vn -0.99946459 0.00000000 -0.03271908
vn -0.99946459 0.00000000 -0.03271908
vn -0.99946459 0.00000000 0.03271908
vn -0.99946459 0.00000000 0.03271908
vn -0.99144486 0.00000000 -0.13052619
vn -0.99144486 0.00000000 -0.13052619
vn -0.96592584 0.00000000 -0.25881901
vn -0.96592584 0.00000000 -0.25881901
vn -0.92387954 0.00000000 -0.38268342
vn -0.92387954 0.00000000 -0.38268342
vn -0.86602540 0.00000000 -0.50000000
vn -0.86602540 0.00000000 -0.50000000
vn -0.79335334 0.00000000 -0.60876143
vn -0.79335334 0.00000000 -0.60876143
vn -0.70710678 0.00000000 -0.70710678
vn -0.70710678 0.00000000 -0.70710678
vn -0.60876143 0.00000000 -0.79335334
vn -0.60876143 0.00000000 -0.79335334
vn -0.03271908 0.00000000 -0.99946459
vn -0.03271908 0.00000000 -0.99946459
vn 0.03271908 0.00000000 -0.99946459
vn 0.03271908 0.00000000 -0.99946459
vn 0.13052619 0.00000000 -0.99144486
vn 0.13052619 0.00000000 -0.99144486
vn 0.25881901 0.00000000 -0.96592584
vn 0.25881901 0.00000000 -0.96592584
vn 0.38268342 0.00000000 -0.92387954
vn 0.38268342 0.00000000 -0.92387954
vn 0.50000000 0.00000000 -0.86602540
vn 0.50000000 0.00000000 -0.86602540
vn 0.60876143 0.00000000 -0.79335334
vn 0.60876143 0.00000000 -0.79335334
vn 0.70710678 0.00000000 -0.70710678
vn 0.70710678 0.00000000 -0.70710678
vn 0.79335334 0.00000000 -0.60876143
vn 0.79335334 0.00000000 -0.60876143
vn 0.86602540 0.00000000 -0.50000000
vn 0.86602540 0.00000000 -0.50000000
vn 0.92387954 0.00000000 -0.38268342
vn 0.92387954 0.00000000 -0.38268342
vn 0.96592584 0.00000000 -0.25881901
vn 0.96592584 0.00000000 -0.25881901
vn 0.99144486 0.00000000 -0.13052619
vn 0.99144486 0.00000000 -0.13052619
vn 0.99946459 0.00000000 -0.03271908
vn 0.99946459 0.00000000 -0.03271908
vn 0.99946459 0.00000000 0.03271908
vn 0.99946459 0.00000000 0.03271908
vn 0.99144486 0.00000000 0.13052619
vn 0.99144486 0.00000000 0.13052619
vn 0.96592584 0.00000000 0.25881901
vn 0.96592584 0.00000000 0.25881901
vn 0.92387954 0.00000000 0.38268342
vn 0.92387954 0.00000000 0.38268342
vn 0.86602540 0.00000000 0.50000000
vn 0.86602540 0.00000000 0.50000000
vn 0.79335334 0.00000000 0.60876143
vn 0.79335334 0.00000000 0.60876143
vn 0.70710678 0.00000000 0.70710678
vn 0.70710678 0.00000000 0.70710678
vn 0.60876143 0.00000000 0.79335334
vn 0.60876143 0.00000000 0.79335334
vn 0.50000000 0.00000000 0.86602540
vn 0.50000000 0.00000000 0.86602540
vn 0.38268342 0.00000000 0.92387954
vn 0.38268342 0.00000000 0.92387954
vn 0.25881901 0.00000000 0.96592584
vn 0.25881901 0.00000000 0.96592584
vn 0.13052619 0.00000000 0.99144486
vn 0.13052619 0.00000000 0.99144486
vn 0.03271908 0.00000000 0.99946459
vn 0.03271908 0.00000000 0.99946459
vn -0.03271908 0.00000000 0.99946459
vn -0.03271908 0.00000000 0.99946459
vn -0.13052619 0.00000000 0.99144486
vn -0.13052619 0.00000000 0.99144486
vn -0.25881901 0.00000000 0.96592584
vn -0.25881901 0.00000000 0.96592584
vn -0.38268342 0.00000000 0.92387954
vn -0.38268342 0.00000000 0.92387954
vn -0.50000000 0.00000000 0.86602540
vn -0.50000000 0.00000000 0.86602540
vn -0.60876143 0.00000000 0.79335334
vn -0.60876143 0.00000000 0.79335334
vn -0.70710678 0.00000000 0.70710678
vn -0.70710678 0.00000000 0.70710678
vn -0.79335334 0.00000000 0.60876143
vn -0.79335334 0.00000000 0.60876143
vn -0.86602540 0.00000000 0.50000000
vn -0.86602540 0.00000000 0.50000000
vn -0.92387954 0.00000000 0.38268342
vn -0.92387954 0.00000000 0.38268342
vn -0.96592584 0.00000000 0.25881901
vn -0.96592584 0.00000000 0.25881901
vn -0.99144486 0.00000000 0.13052619
vn -0.99144486 0.00000000 0.13052619
f 1//1 2//2 3//3
f 4//4 3//3 2//2
f 5//5 6//6 7//7
f 7//7 6//6 8//8
f 8//8 6//6 9//9
f 6//6 10//10 9//9
f 10//10 11//11 9//9
f 9//9 11//11 12//12
f 12//12 11//11 13//13
f 11//11 14//14 13//13
f 13//13 14//14 15//15
f 14//14 16//16 15//15
f 15//15 16//16 17//17
f 16//16 18//18 17//17
f 17//17 18//18 19//19
f 18//18 20//20 19//19
f 20//20 21//21 19//19
f 19//19 21//21 22//22
f 21//21 23//23 22//22
f 22//22 23//23 24//24
f 24//24 23//23 25//25
f 23//23 26//26 25//25
f 25//25 26//26 27//27
f 26//26 28//28 27//27
f 27//27 28//28 29//29
f 28//28 30//30 29//29
f 30//30 31//31 29//29
f 31//31 32//32 29//29
f 32//32 33//33 29//29
f 33//33 34//34 29//29
f 34//34 35//35 29//29
f 35//35 36//36 29//29
f 36//36 37//37 29//29
f 37//37 38//38 29//29
f 29//29 38//38 39//39
f 38//38 40//40 39//39
f 39//39 40//40 41//41
f 41//41 40//40 42//42
f 40//40 43//43 42//42
f 42//42 43//43 44//44
f 43//43 45//45 44//44
f 44//44 45//45 46//46
f 45//45 47//47 46//46
f 47//47 48//48 46//46
f 48//48 49//49 46//46
f 46//46 49//49 50//50
f 50//50 49//49 51//51
f 49//49 52//52 51//51
f 52//52 53//53 51//51
f 51//51 53//53 54//54
f 54//54 53//53 55//55
f 53//53 56//56 55//55
f 55//55 56//56 57//57
f 56//56 58//58 57//57
f 57//57 58//58 59//59
f 58//58 60//60 59//59
f 59//59 60//60 61//61
f 60//60 62//62 61//61
f 62//62 63//63 61//61
f 64//64 61//61 63//63
f 31//31 30//30 65//65
f 65//65 30//30 66//66
f 66//66 30//30 67//67
f 67//67 30//30 68//68
f 68//68 30//30 69//69
f 69//69 30//30 70//70
f 70//70 30//30 71//71
f 30//30 72//72 71//71
f 71//71 72//72 73//73
f 72//72 74//74 73//73
f 74//74 75//75 73//73
f 73//73 75//75 76//76
f 75//75 77//77 76//76
f 76//76 77//77 78//78
f 77//77 79//79 78//78
f 78//78 79//79 80//80
f 80//80 79//79 48//48
f 49//49 48//48 79//79
f 81//81 82//82 2//2
f 4//4 2//2 82//82
f 83//83 1//1 84//84
f 3//3 84//84 1//1
f 85//85 86//86 87//87
f 88//88 87//87 86//86
f 89//89 90//90 85//85
f 86//86 85//85 90//90
f 91//91 92//92 89//89
f 90//90 89//89 92//92
f 93//93 94//94 91//91
f 92//92 91//91 94//94
f 95//95 96//96 93//93
f 94//94 93//93 96//96
f 97//97 98//98 95//95
f 96//96 95//95 98//98
f 99//99 100//100 97//97
f 98//98 97//97 100//100
f 101//101 100//100 102//102
f 99//99 102//102 100//100
f 81//81 101//101 82//82
f 102//102 82//82 101//101
f 103//103 83//83 104//104
f 84//84 104//104 83//83
f 105//105 103//103 106//106
f 104//104 106//106 103//103
f 107//107 105//105 108//108
f 106//106 108//108 105//105
f 109//109 107//107 110//110
f 108//108 110//110 107//107
f 111//111 109//109 112//112
f 110//110 112//112 109//109
f 113//113 111//111 114//114
f 112//112 114//114 111//111
f 115//115 113//113 116//116
f 114//114 116//116 113//113
f 117//117 115//115 118//118
f 116//116 118//118 115//115
f 117//117 118//118 119//119
f 120//120 119//119 118//118
f 119//119 120//120 121//121
f 122//122 121//121 120//120
f 121//121 122//122 123//123
f 124//124 123//123 122//122
f 123//123 124//124 125//125
f 126//126 125//125 124//124
f 125//125 126//126 127//127
f 128//128 127//127 126//126
f 127//127 128//128 129//129
f 130//130 129//129 128//128
f 129//129 130//130 131//131
f 132//132 131//131 130//130
f 131//131 132//132 133//133
f 134//134 133//133 132//132
f 133//133 134//134 135//135
f 136//136 135//135 134//134
f 135//135 136//136 137//137
f 138//138 137//137 136//136
f 137//137 138//138 139//139
f 140//140 139//139 138//138
f 139//139 140//140 141//141
f 142//142 141//141 140//140
f 141//141 142//142 143//143
f 144//144 143//143 142//142
f 145//145 143//143 146//146
f 144//144 146//146 143//143
f 147//147 145//145 148//148
f 146//146 148//148 145//145
f 147//147 148//148 149//149
f 150//150 149//149 148//148
f 151//151 149//149 152//152
f 150//150 152//152 149//149
f 153//153 151//151 154//154
f 152//152 154//154 151//151
f 153//153 154//154 155//155
f 156//156 155//155 154//154
f 155//155 156//156 157//157
f 158//158 157//157 156//156
f 157//157 158//158 159//159
f 160//160 159//159 158//158
f 161//161 159//159 162//162
f 160//160 162//162 159//159
f 161//161 162//162 163//163
f 164//164 163//163 162//162
f 165//165 163//163 166//166
f 164//164 166//166 163//163
f 165//165 166//166 167//167
f 168//168 167//167 166//166
f 169//169 167//167 170//170
f 168//168 170//170 167//167
f 171//171 172//172 170//170
f 169//169 170//170 172//172
f 173//173 174//174 171//171
f 172//172 171//171 174//174
f 175//175 176//176 173//173
f 174//174 173//173 176//176
f 177//177 178//178 175//175
f 176//176 175//175 178//178
f 179//179 180//180 177//177
f 178//178 177//177 180//180
f 87//87 88//88 179//179
f 180//180 179//179 88//88

