mtllib material.mtl
usemtl material-0
v 0.75092900 0.51348000 -0.11370000
v 0.75092900 0.51348000 -0.11370000
v 0.48566700 -0.25689500 0.04303500
v 0.48566700 -0.25689500 0.04303500
v 0.75092900 -0.40253300 0.15161800
v 0.75092900 -0.40253300 0.15161800
v -0.50906300 -0.25689500 0.04303500
v -0.50906300 -0.25689500 0.04303500
v 0.75092900 -0.40033000 0.16244900
v 0.75092900 -0.40033000 0.16244900
v 0.75092900 -0.40033000 0.16244900
v 0.75092900 -0.40033000 0.16244900
v -0.77432400 0.51348000 -0.11370000
v -0.77432400 0.51348000 -0.11370000
v -0.77432400 -0.40033000 0.16244900
v -0.77432400 -0.40033000 0.16244900
v 0.75092900 0.53110800 -0.02705400
v 0.75092900 0.53110800 -0.02705400
v -0.77432400 -0.40253300 0.15161800
v -0.77432400 -0.40253300 0.15161800
v -0.77432400 -0.40143200 0.15703400
v -0.77432400 -0.40143200 0.15703400
v -0.77432400 0.53110800 -0.02705400
v -0.77432400 0.53110800 -0.02705400
v 0.75092900 -0.40143200 0.15703400
v 0.75092900 -0.40143200 0.15703400
vn 0.00000000 -0.19936800 -0.97992500
vn 0.00000000 0.19936800 0.97992500
vn 0.00000000 0.19936800 0.97992500
vn 0.00000000 -0.19936800 -0.97992500
vn 0.00000000 0.97992500 -0.19936800
vn 0.00000000 -0.97992500 0.19936800
vn 0.00000000 -0.19936800 -0.97992500
vn 0.00000000 0.19936800 0.97992500
vn 0.00000000 -0.97992500 0.19936800
vn 0.00000000 0.97992500 -0.19936800
vn 0.00000000 0.19936800 0.97992500
vn 0.00000000 -0.19936800 -0.97992500
vn 0.00000000 0.19936800 0.97992500
vn 0.00000000 -0.19936800 -0.97992500
vn 0.00000000 -0.19936800 -0.97992500
vn 0.00000000 0.19936800 0.97992500
vn 0.00000000 -0.19936800 -0.97992500
vn 0.00000000 0.19936800 0.97992500
vn 0.00000000 0.97992500 -0.19936800
vn 0.00000000 -0.97992500 0.19936800
vn 0.00000000 -0.97992500 0.19936800
vn 0.00000000 0.97992500 -0.19936800
vn 0.00000000 0.19936800 0.97992500
vn 0.00000000 -0.19936800 -0.97992500
vn 0.00000000 -0.97992500 0.19936800
vn 0.00000000 0.97992500 -0.19936800
f 1//1 4//4 14//14
f 13//13 3//3 2//2
f 7//7 14//14 4//4
f 3//3 13//13 8//8
f 24//24 12//12 15//15
f 16//16 11//11 23//23
f 12//12 24//24 17//17
f 18//18 23//23 11//11
f 19//19 26//26 5//5
f 6//6 25//25 20//20
f 22//22 10//10 26//26
f 25//25 9//9 21//21

