# Blender v2.79 (sub 0) OBJ File: ''
# www.blender.org
mtllib original-17_0.mtl
o original-17_0
v 0.185273 -0.128219 0.327612
v 0.112032 -0.128219 0.327612
v 0.148653 -0.133040 0.327612
v 0.219398 -0.114084 0.327612
v 0.148653 -0.119197 0.327612
v 0.181690 -0.114847 0.327612
v 0.212476 -0.102095 0.327612
v 0.248701 -0.091599 0.327612
v 0.238912 -0.081810 0.327612
v 0.271187 -0.062296 0.327612
v 0.259198 -0.055374 0.327612
v 0.285321 -0.028171 0.327612
v 0.271950 -0.024588 0.327612
v 0.290143 0.008449 0.327612
v 0.276299 0.008449 0.327612
v 0.285321 0.045070 0.327612
v 0.271950 0.041487 0.327612
v 0.259198 0.072273 0.327612
v 0.271187 0.079195 0.327612
v 0.238912 0.098709 0.327612
v 0.248701 0.108498 0.327612
v 0.212476 0.118995 0.327612
v 0.219398 0.130983 0.327612
v 0.181690 0.131746 0.327612
v 0.185273 0.145118 0.327612
v 0.148653 0.136096 0.327612
v 0.077908 -0.114084 0.327612
v 0.115616 -0.114847 0.327612
v 0.084830 -0.102095 0.327612
v 0.048604 -0.091599 0.327612
v 0.058393 -0.081810 0.327612
v 0.026119 -0.062296 0.327612
v 0.038108 -0.055374 0.327612
v 0.011984 -0.028171 0.327612
v 0.025356 -0.024588 0.327612
v 0.007163 0.008449 0.327612
v 0.021007 0.008449 0.327612
v 0.025356 0.041487 0.327612
v 0.011984 0.045070 0.327612
v 0.038108 0.072273 0.327612
v 0.026119 0.079195 0.327612
v 0.058393 0.098709 0.327612
v 0.048604 0.108498 0.327612
v 0.084830 0.118995 0.327612
v 0.077908 0.130983 0.327612
v 0.115616 0.131746 0.327612
v 0.112032 0.145118 0.327612
v 0.148653 0.149939 0.327612
v 0.185273 -0.128219 0.326612
v 0.112032 -0.128219 0.326612
v 0.148653 -0.133040 0.326612
v 0.219398 -0.114084 0.326612
v 0.148653 -0.119197 0.326612
v 0.181690 -0.114847 0.326612
v 0.212476 -0.102095 0.326612
v 0.248701 -0.091599 0.326612
v 0.238912 -0.081810 0.326612
v 0.271187 -0.062296 0.326612
v 0.259198 -0.055374 0.326612
v 0.285321 -0.028171 0.326612
v 0.271950 -0.024588 0.326612
v 0.290143 0.008449 0.326612
v 0.276299 0.008449 0.326612
v 0.285321 0.045070 0.326612
v 0.271950 0.041487 0.326612
v 0.259198 0.072273 0.326612
v 0.271187 0.079195 0.326612
v 0.238912 0.098709 0.326612
v 0.248701 0.108498 0.326612
v 0.212476 0.118995 0.326612
v 0.219398 0.130983 0.326612
v 0.181690 0.131746 0.326612
v 0.185273 0.145118 0.326612
v 0.148653 0.136096 0.326612
v 0.077908 -0.114084 0.326612
v 0.115616 -0.114847 0.326612
v 0.084830 -0.102095 0.326612
v 0.048604 -0.091599 0.326612
v 0.058393 -0.081810 0.326612
v 0.026119 -0.062296 0.326612
v 0.038108 -0.055374 0.326612
v 0.011984 -0.028171 0.326612
v 0.025356 -0.024588 0.326612
v 0.007163 0.008449 0.326612
v 0.021007 0.008449 0.326612
v 0.025356 0.041487 0.326612
v 0.011984 0.045070 0.326612
v 0.038108 0.072273 0.326612
v 0.026119 0.079195 0.326612
v 0.058393 0.098709 0.326612
v 0.048604 0.108498 0.326612
v 0.084830 0.118995 0.326612
v 0.077908 0.130983 0.326612
v 0.115616 0.131746 0.326612
v 0.112032 0.145118 0.326612
v 0.148653 0.149939 0.326612
vn 0.1900 -0.7092 0.6789
vn -0.1900 -0.7092 0.6789
vn 0.0000 -0.7343 0.6789
vn 0.3671 -0.6359 0.6789
vn 0.0000 0.6751 0.7377
vn -0.1747 0.6521 0.7377
vn -0.3376 0.5847 0.7377
vn 0.5192 -0.5192 0.6789
vn -0.4774 0.4774 0.7377
vn 0.6359 -0.3671 0.6789
vn -0.5847 0.3376 0.7377
vn 0.7092 -0.1900 0.6789
vn -0.6521 0.1747 0.7377
vn 0.7343 -0.0000 0.6789
vn -0.6751 0.0000 0.7377
vn 0.7092 0.1900 0.6789
vn -0.6521 -0.1747 0.7377
vn -0.5847 -0.3376 0.7377
vn 0.6359 0.3671 0.6789
vn -0.4774 -0.4774 0.7377
vn 0.5192 0.5192 0.6789
vn -0.3376 -0.5847 0.7377
vn 0.3671 0.6359 0.6789
vn -0.1747 -0.6521 0.7377
vn 0.1900 0.7092 0.6789
vn 0.0000 -0.6751 0.7377
vn -0.3671 -0.6359 0.6789
vn 0.1747 0.6521 0.7377
vn 0.3376 0.5847 0.7377
vn -0.5192 -0.5192 0.6789
vn 0.4774 0.4774 0.7377
vn -0.6359 -0.3671 0.6789
vn 0.5847 0.3376 0.7377
vn -0.7092 -0.1900 0.6789
vn 0.6521 0.1747 0.7377
vn -0.7343 -0.0000 0.6789
vn 0.6751 0.0000 0.7377
vn 0.6521 -0.1747 0.7377
vn -0.7092 0.1900 0.6789
vn 0.5847 -0.3376 0.7377
vn -0.6359 0.3671 0.6789
vn 0.4774 -0.4774 0.7377
vn -0.5192 0.5192 0.6789
vn 0.3376 -0.5847 0.7377
vn -0.3671 0.6359 0.6789
vn 0.1747 -0.6521 0.7377
vn -0.1900 0.7092 0.6789
vn 0.0000 0.7343 0.6789
vn 0.1900 -0.7092 -0.6789
vn 0.0000 -0.7343 -0.6789
vn -0.1900 -0.7092 -0.6789
vn 0.3671 -0.6359 -0.6789
vn 0.0000 0.6751 -0.7377
vn -0.1747 0.6521 -0.7377
vn -0.3376 0.5847 -0.7377
vn 0.5192 -0.5192 -0.6789
vn -0.4774 0.4774 -0.7377
vn 0.6359 -0.3671 -0.6789
vn -0.5847 0.3376 -0.7377
vn 0.7092 -0.1900 -0.6789
vn -0.6521 0.1747 -0.7377
vn 0.7343 -0.0000 -0.6789
vn -0.6751 0.0000 -0.7377
vn 0.7092 0.1900 -0.6789
vn -0.6521 -0.1747 -0.7377
vn -0.5847 -0.3376 -0.7377
vn 0.6359 0.3671 -0.6789
vn -0.4774 -0.4774 -0.7377
vn 0.5192 0.5192 -0.6789
vn -0.3376 -0.5847 -0.7377
vn 0.3671 0.6359 -0.6789
vn -0.1747 -0.6521 -0.7377
vn 0.1900 0.7092 -0.6789
vn 0.0000 -0.6751 -0.7377
vn -0.3671 -0.6359 -0.6789
vn 0.1747 0.6521 -0.7377
vn 0.3376 0.5847 -0.7377
vn -0.5192 -0.5192 -0.6789
vn 0.4774 0.4774 -0.7377
vn -0.6359 -0.3671 -0.6789
vn 0.5847 0.3376 -0.7377
vn -0.7092 -0.1900 -0.6789
vn 0.6521 0.1747 -0.7377
vn -0.7343 -0.0000 -0.6789
vn 0.6751 0.0000 -0.7377
vn 0.6521 -0.1747 -0.7377
vn -0.7092 0.1900 -0.6789
vn 0.5847 -0.3376 -0.7377
vn -0.6359 0.3671 -0.6789
vn 0.4774 -0.4774 -0.7377
vn -0.5192 0.5192 -0.6789
vn 0.3376 -0.5847 -0.7377
vn -0.3671 0.6359 -0.6789
vn 0.1747 -0.6521 -0.7377
vn -0.1900 0.7092 -0.6789
vn 0.0000 0.7343 -0.6789
usemtl material_1_0.007
s 1
f 1//1 2//2 3//3
f 2//2 1//1 4//4
f 2//2 4//4 5//5
f 5//5 4//4 6//6
f 6//6 4//4 7//7
f 7//7 4//4 8//8
f 7//7 8//8 9//9
f 9//9 8//8 10//10
f 9//9 10//10 11//11
f 11//11 10//10 12//12
f 11//11 12//12 13//13
f 13//13 12//12 14//14
f 13//13 14//14 15//15
f 15//15 14//14 16//16
f 15//15 16//16 17//17
f 17//17 16//16 18//18
f 18//18 16//16 19//19
f 18//18 19//19 20//20
f 20//20 19//19 21//21
f 20//20 21//21 22//22
f 22//22 21//21 23//23
f 22//22 23//23 24//24
f 24//24 23//23 25//25
f 24//24 25//25 26//26
f 5//5 27//27 2//2
f 27//27 5//5 28//28
f 27//27 28//28 29//29
f 27//27 29//29 30//30
f 30//30 29//29 31//31
f 30//30 31//31 32//32
f 32//32 31//31 33//33
f 32//32 33//33 34//34
f 34//34 33//33 35//35
f 34//34 35//35 36//36
f 36//36 35//35 37//37
f 36//36 37//37 38//38
f 36//36 38//38 39//39
f 39//39 38//38 40//40
f 39//39 40//40 41//41
f 41//41 40//40 42//42
f 41//41 42//42 43//43
f 43//43 42//42 44//44
f 43//43 44//44 45//45
f 45//45 44//44 46//46
f 45//45 46//46 47//47
f 47//47 46//46 26//26
f 47//47 26//26 25//25
f 47//47 25//25 48//48
f 49//49 51//50 50//51
f 50//51 52//52 49//49
f 50//51 53//53 52//52
f 53//53 54//54 52//52
f 54//54 55//55 52//52
f 55//55 56//56 52//52
f 55//55 57//57 56//56
f 57//57 58//58 56//56
f 57//57 59//59 58//58
f 59//59 60//60 58//58
f 59//59 61//61 60//60
f 61//61 62//62 60//60
f 61//61 63//63 62//62
f 63//63 64//64 62//62
f 63//63 65//65 64//64
f 65//65 66//66 64//64
f 66//66 67//67 64//64
f 66//66 68//68 67//67
f 68//68 69//69 67//67
f 68//68 70//70 69//69
f 70//70 71//71 69//69
f 70//70 72//72 71//71
f 72//72 73//73 71//71
f 72//72 74//74 73//73
f 53//53 50//51 75//75
f 75//75 76//76 53//53
f 75//75 77//77 76//76
f 75//75 78//78 77//77
f 78//78 79//79 77//77
f 78//78 80//80 79//79
f 80//80 81//81 79//79
f 80//80 82//82 81//81
f 82//82 83//83 81//81
f 82//82 84//84 83//83
f 84//84 85//85 83//83
f 84//84 86//86 85//85
f 84//84 87//87 86//86
f 87//87 88//88 86//86
f 87//87 89//89 88//88
f 89//89 90//90 88//88
f 89//89 91//91 90//90
f 91//91 92//92 90//90
f 91//91 93//93 92//92
f 93//93 94//94 92//92
f 93//93 95//95 94//94
f 95//95 74//74 94//94
f 95//95 73//73 74//74
f 95//95 96//96 73//73
f 45//45 47//47 95//95 93//93
f 19//19 16//16 64//64 67//67
f 16//16 14//14 62//62 64//64
f 33//33 31//31 79//79 81//81
f 24//24 26//26 74//74 72//72
f 14//14 12//12 60//60 62//62
f 5//5 6//6 54//54 53//53
f 15//15 17//17 65//65 63//63
f 44//44 42//42 90//90 92//92
f 27//27 30//30 78//78 75//75
f 18//18 20//20 68//68 66//66
f 36//36 39//39 87//87 84//84
f 48//48 25//25 73//73 96//96
f 7//7 9//9 57//57 55//55
f 39//39 41//41 89//89 87//87
f 17//17 18//18 66//66 65//65
f 42//42 40//40 88//88 90//90
f 21//21 19//19 67//67 69//69
f 9//9 11//11 59//59 57//57
f 3//3 2//2 50//51 51//50
f 41//41 43//43 91//91 89//89
f 38//38 37//37 85//85 86//86
f 34//34 36//36 84//84 82//82
f 12//12 10//10 58//58 60//60
f 4//4 1//1 49//49 52//52
f 32//32 34//34 82//82 80//80
f 2//2 27//27 75//75 50//51
f 23//23 21//21 69//69 71//71
f 28//28 5//5 53//53 76//76
f 11//11 13//13 61//61 59//59
f 10//10 8//8 56//56 58//58
f 43//43 45//45 93//93 91//91
f 22//22 24//24 72//72 70//70
f 1//1 3//3 51//50 49//49
f 47//47 48//48 96//96 95//95
f 35//35 33//33 81//81 83//83
f 8//8 4//4 52//52 56//56
f 29//29 28//28 76//76 77//77
f 31//31 29//29 77//77 79//79
f 6//6 7//7 55//55 54//54
f 25//25 23//23 71//71 73//73
f 26//26 46//46 94//94 74//74
f 46//46 44//44 92//92 94//94
f 40//40 38//38 86//86 88//88
f 37//37 35//35 83//83 85//85
f 30//30 32//32 80//80 78//78
f 20//20 22//22 70//70 68//68
f 13//13 15//15 63//63 61//61
