mtllib material.mtl
usemtl material_0_0
v -0.22505300 0.43323500 -0.23540800
v -0.22505300 0.44657100 -0.23540800
v -0.21885600 0.43323500 -0.24348300
v -0.21885600 0.44657100 -0.24348300
v -0.22505300 0.44657100 -0.23540800
v -0.22728600 0.45057200 -0.23764100
v -0.21885600 0.44657100 -0.24348300
v -0.22159200 0.45057200 -0.24506200
v -0.23312800 0.44657100 -0.22921100
v -0.23312800 0.43323500 -0.22921100
v -0.21496100 0.43323500 -0.25288600
v -0.21496100 0.44657100 -0.25288600
v -0.21496100 0.44657100 -0.25288600
v -0.21801300 0.45057200 -0.25370400
v -0.28845400 0.45057200 -0.26297800
v -0.28723300 0.45057200 -0.27225100
v -0.28723300 0.45057200 -0.25370400
v -0.28365300 0.45057200 -0.24506200
v -0.28365300 0.45057200 -0.28089300
v -0.27795900 0.45057200 -0.23764100
v -0.27795900 0.45057200 -0.28831400
v -0.27053800 0.45057200 -0.29400800
v -0.27053800 0.45057200 -0.23194700
v -0.26189700 0.45057200 -0.29758800
v -0.26189700 0.45057200 -0.22836800
v -0.25262300 0.45057200 -0.22714700
v -0.25262300 0.45057200 -0.29880900
v -0.24334900 0.45057200 -0.29758800
v -0.24334900 0.45057200 -0.22836800
v -0.23470700 0.45057200 -0.23194700
v -0.23470700 0.45057200 -0.29400800
v -0.22728600 0.45057200 -0.28831400
v -0.22728600 0.45057200 -0.23764100
v -0.22159200 0.45057200 -0.24506200
v -0.22159200 0.45057200 -0.28089300
v -0.21801300 0.45057200 -0.25370400
v -0.21801300 0.45057200 -0.27225100
v -0.21679200 0.45057200 -0.26297800
v -0.23470700 0.45057200 -0.23194700
v -0.23312800 0.44657100 -0.22921100
v -0.24253200 0.44657100 -0.22531600
v -0.24253200 0.43323500 -0.22531600
v -0.21363300 0.43323500 -0.26297800
v -0.21363300 0.44657100 -0.26297800
v -0.21363300 0.44657100 -0.26297800
v -0.21679200 0.45057200 -0.26297800
v -0.28365300 0.45057200 -0.28089300
v -0.28638900 0.44657100 -0.28247300
v -0.27795900 0.45057200 -0.28831400
v -0.28019300 0.44657100 -0.29054800
v -0.28723300 0.45057200 -0.27225100
v -0.29028400 0.44657100 -0.27306900
v -0.28845400 0.45057200 -0.26297800
v -0.29161300 0.44657100 -0.26297800
v -0.29028400 0.44657100 -0.25288600
v -0.28723300 0.45057200 -0.25370400
v -0.28638900 0.44657100 -0.24348300
v -0.28365300 0.45057200 -0.24506200
v -0.28019300 0.44657100 -0.23540800
v -0.27795900 0.45057200 -0.23764100
v -0.27053800 0.45057200 -0.23194700
v -0.27211800 0.44657100 -0.22921100
v -0.26189700 0.45057200 -0.22836800
v -0.26271400 0.44657100 -0.22531600
v -0.25262300 0.45057200 -0.22714700
v -0.25262300 0.44657100 -0.22398800
v -0.24334900 0.45057200 -0.22836800
v -0.24253200 0.44657100 -0.22531600
v -0.21801300 0.45057200 -0.27225100
v -0.21496100 0.44657100 -0.27306900
v -0.22159200 0.45057200 -0.28089300
v -0.21885600 0.44657100 -0.28247300
v -0.22728600 0.45057200 -0.28831400
v -0.22505300 0.44657100 -0.29054800
v -0.23470700 0.45057200 -0.29400800
v -0.23312800 0.44657100 -0.29674400
v -0.24334900 0.45057200 -0.29758800
v -0.24253200 0.44657100 -0.30063900
v -0.25262300 0.45057200 -0.29880900
v -0.25262300 0.44657100 -0.30196800
v -0.26189700 0.45057200 -0.29758800
v -0.26271400 0.44657100 -0.30063900
v -0.27053800 0.45057200 -0.29400800
v -0.27211800 0.44657100 -0.29674400
v -0.25262300 0.44657100 -0.22398800
v -0.25262300 0.43323500 -0.22398800
v -0.21496100 0.43323500 -0.27306900
v -0.21496100 0.44657100 -0.27306900
v -0.28638900 0.44657100 -0.28247300
v -0.28638900 0.43323500 -0.28247300
v -0.28019300 0.44657100 -0.29054800
v -0.28019300 0.43323500 -0.29054800
v -0.29028400 0.44657100 -0.27306900
v -0.29028400 0.43323500 -0.27306900
v -0.29161300 0.44657100 -0.26297800
v -0.29161300 0.43323500 -0.26297800
v -0.29028400 0.44657100 -0.25288600
v -0.29028400 0.43323500 -0.25288600
v -0.28638900 0.44657100 -0.24348300
v -0.28638900 0.43323500 -0.24348300
v -0.28019300 0.44657100 -0.23540800
v -0.28019300 0.43323500 -0.23540800
v -0.27211800 0.44657100 -0.22921100
v -0.27211800 0.43323500 -0.22921100
v -0.26271400 0.44657100 -0.22531600
v -0.26271400 0.43323500 -0.22531600
v -0.21885600 0.43323500 -0.28247300
v -0.21885600 0.44657100 -0.28247300
v -0.22505300 0.43323500 -0.29054800
v -0.22505300 0.44657100 -0.29054800
v -0.23312800 0.44657100 -0.29674400
v -0.23312800 0.43323500 -0.29674400
v -0.24253200 0.44657100 -0.30063900
v -0.24253200 0.43323500 -0.30063900
v -0.25262300 0.44657100 -0.30196800
v -0.25262300 0.43323500 -0.30196800
v -0.26271400 0.44657100 -0.30063900
v -0.26271400 0.43323500 -0.30063900
v -0.27211800 0.44657100 -0.29674400
v -0.27211800 0.43323500 -0.29674400
vn -0.70710678 0.00000000 -0.70710678
vn -0.70710678 0.00000000 -0.70710678
vn -0.86602540 0.00000000 -0.50000000
vn -0.86602540 0.00000000 -0.50000000
vn -0.55495708 -0.61971387 -0.55495708
vn -0.55495708 -0.61971387 -0.55495708
vn -0.67968081 -0.61971391 -0.39241390
vn -0.67968081 -0.61971391 -0.39241390
vn -0.50000000 0.00000000 -0.86602540
vn -0.50000000 0.00000000 -0.86602540
vn -0.96592584 0.00000000 -0.25881901
vn -0.96592584 0.00000000 -0.25881901
vn -0.75808542 -0.61971392 -0.20312841
vn -0.75808542 -0.61971392 -0.20312841
vn 0.00000000 -1.00000000 0.00000000
vn 0.00000000 -1.00000000 0.00000000
vn 0.00000000 -1.00000000 0.00000000
vn 0.00000000 -1.00000000 0.00000000
vn 0.00000000 -1.00000000 0.00000000
vn 0.00000000 -1.00000000 0.00000000
vn 0.00000000 -1.00000000 0.00000000
vn 0.00000000 -1.00000000 0.00000000
vn 0.00000000 -1.00000000 0.00000000
vn 0.00000000 -1.00000000 0.00000000
vn 0.00000000 -1.00000000 0.00000000
vn 0.00000000 -1.00000000 0.00000000
vn 0.00000000 -1.00000000 0.00000000
vn 0.00000000 -1.00000000 0.00000000
vn 0.00000000 -1.00000000 0.00000000
vn 0.00000000 -1.00000000 0.00000000
vn 0.00000000 -1.00000000 0.00000000
vn 0.00000000 -1.00000000 0.00000000
vn 0.00000000 -1.00000000 0.00000000
vn 0.00000000 -1.00000000 0.00000000
vn 0.00000000 -1.00000000 0.00000000
vn 0.00000000 -1.00000000 0.00000000
vn 0.00000000 -1.00000000 0.00000000
vn 0.00000000 -1.00000000 0.00000000
vn -0.39241390 -0.61971391 -0.67968081
vn -0.39241390 -0.61971391 -0.67968081
vn -0.25881901 0.00000000 -0.96592584
vn -0.25881901 0.00000000 -0.96592584
vn -1.00000000 0.00000000 0.00000000
vn -1.00000000 0.00000000 0.00000000
vn -0.78482780 -0.61971390 0.00000000
vn -0.78482780 -0.61971390 0.00000000
vn 0.67968081 -0.61971391 0.39241390
vn 0.67968081 -0.61971391 0.39241390
vn 0.55495708 -0.61971387 0.55495708
vn 0.55495708 -0.61971387 0.55495708
vn 0.75808542 -0.61971392 0.20312841
vn 0.75808542 -0.61971392 0.20312841
vn 0.78482780 -0.61971390 0.00000000
vn 0.78482780 -0.61971390 0.00000000
vn 0.75808542 -0.61971392 -0.20312841
vn 0.75808542 -0.61971392 -0.20312841
vn 0.67968081 -0.61971391 -0.39241390
vn 0.67968081 -0.61971391 -0.39241390
vn 0.55495708 -0.61971387 -0.55495708
vn 0.55495708 -0.61971387 -0.55495708
vn 0.39241390 -0.61971391 -0.67968081
vn 0.39241390 -0.61971391 -0.67968081
vn 0.20312841 -0.61971392 -0.75808542
vn 0.20312841 -0.61971392 -0.75808542
vn 0.00000000 -0.61971390 -0.78482780
vn 0.00000000 -0.61971390 -0.78482780
vn -0.20312841 -0.61971392 -0.75808542
vn -0.20312841 -0.61971392 -0.75808542
vn -0.75808542 -0.61971392 0.20312841
vn -0.75808542 -0.61971392 0.20312841
vn -0.67968081 -0.61971391 0.39241390
vn -0.67968081 -0.61971391 0.39241390
vn -0.55495708 -0.61971387 0.55495708
vn -0.55495708 -0.61971387 0.55495708
vn -0.39241390 -0.61971391 0.67968081
vn -0.39241390 -0.61971391 0.67968081
vn -0.20312841 -0.61971392 0.75808542
vn -0.20312841 -0.61971392 0.75808542
vn 0.00000000 -0.61971390 0.78482780
vn 0.00000000 -0.61971390 0.78482780
vn 0.20312841 -0.61971392 0.75808542
vn 0.20312841 -0.61971392 0.75808542
vn 0.39241390 -0.61971391 0.67968081
vn 0.39241390 -0.61971391 0.67968081
vn 0.00000000 0.00000000 -1.00000000
vn 0.00000000 0.00000000 -1.00000000
vn -0.96592584 0.00000000 0.25881901
vn -0.96592584 0.00000000 0.25881901
vn 0.86602540 0.00000000 0.50000000
vn 0.86602540 0.00000000 0.50000000
vn 0.70710678 0.00000000 0.70710678
vn 0.70710678 0.00000000 0.70710678
vn 0.96592584 0.00000000 0.25881901
vn 0.96592584 0.00000000 0.25881901
vn 1.00000000 0.00000000 0.00000000
vn 1.00000000 0.00000000 0.00000000
vn 0.96592584 0.00000000 -0.25881901
vn 0.96592584 0.00000000 -0.25881901
vn 0.86602540 0.00000000 -0.50000000
vn 0.86602540 0.00000000 -0.50000000
vn 0.70710678 0.00000000 -0.70710678
vn 0.70710678 0.00000000 -0.70710678
vn 0.50000000 0.00000000 -0.86602540
vn 0.50000000 0.00000000 -0.86602540
vn 0.25881901 0.00000000 -0.96592584
vn 0.25881901 0.00000000 -0.96592584
vn -0.86602540 0.00000000 0.50000000
vn -0.86602540 0.00000000 0.50000000
vn -0.70710678 0.00000000 0.70710678
vn -0.70710678 0.00000000 0.70710678
vn -0.50000000 0.00000000 0.86602540
vn -0.50000000 0.00000000 0.86602540
vn -0.25881901 0.00000000 0.96592584
vn -0.25881901 0.00000000 0.96592584
vn 0.00000000 0.00000000 1.00000000
vn 0.00000000 0.00000000 1.00000000
vn 0.25881901 0.00000000 0.96592584
vn 0.25881901 0.00000000 0.96592584
vn 0.50000000 0.00000000 0.86602540
vn 0.50000000 0.00000000 0.86602540
f 1//1 2//2 3//3
f 4//4 3//3 2//2
f 5//5 6//6 7//7
f 8//8 7//7 6//6
f 9//9 2//2 10//10
f 1//1 10//10 2//2
f 3//3 4//4 11//11
f 12//12 11//11 4//4
f 7//7 8//8 13//13
f 14//14 13//13 8//8
f 15//15 16//16 17//17
f 17//17 16//16 18//18
f 16//16 19//19 18//18
f 18//18 19//19 20//20
f 19//19 21//21 20//20
f 21//21 22//22 20//20
f 20//20 22//22 23//23
f 22//22 24//24 23//23
f 23//23 24//24 25//25
f 25//25 24//24 26//26
f 24//24 27//27 26//26
f 27//27 28//28 26//26
f 26//26 28//28 29//29
f 29//29 28//28 30//30
f 28//28 31//31 30//30
f 31//31 32//32 30//30
f 30//30 32//32 33//33
f 33//33 32//32 34//34
f 32//32 35//35 34//34
f 34//34 35//35 36//36
f 35//35 37//37 36//36
f 38//38 36//36 37//37
f 39//39 6//6 40//40
f 5//5 40//40 6//6
f 41//41 9//9 42//42
f 10//10 42//42 9//9
f 11//11 12//12 43//43
f 44//44 43//43 12//12
f 13//13 14//14 45//45
f 46//46 45//45 14//14
f 47//47 48//48 49//49
f 50//50 49//49 48//48
f 51//51 52//52 47//47
f 48//48 47//47 52//52
f 53//53 54//54 51//51
f 52//52 51//51 54//54
f 55//55 54//54 56//56
f 53//53 56//56 54//54
f 57//57 55//55 58//58
f 56//56 58//58 55//55
f 59//59 57//57 60//60
f 58//58 60//60 57//57
f 60//60 61//61 59//59
f 62//62 59//59 61//61
f 61//61 63//63 62//62
f 64//64 62//62 63//63
f 63//63 65//65 64//64
f 66//66 64//64 65//65
f 65//65 67//67 66//66
f 68//68 66//66 67//67
f 67//67 39//39 68//68
f 40//40 68//68 39//39
f 46//46 69//69 45//45
f 70//70 45//45 69//69
f 69//69 71//71 70//70
f 72//72 70//70 71//71
f 71//71 73//73 72//72
f 74//74 72//72 73//73
f 73//73 75//75 74//74
f 76//76 74//74 75//75
f 75//75 77//77 76//76
f 78//78 76//76 77//77
f 77//77 79//79 78//78
f 80//80 78//78 79//79
f 79//79 81//81 80//80
f 82//82 80//80 81//81
f 81//81 83//83 82//82
f 84//84 82//82 83//83
f 83//83 49//49 84//84
f 50//50 84//84 49//49
f 85//85 41//41 86//86
f 42//42 86//86 41//41
f 43//43 44//44 87//87
f 88//88 87//87 44//44
f 89//89 90//90 91//91
f 92//92 91//91 90//90
f 93//93 94//94 89//89
f 90//90 89//89 94//94
f 95//95 96//96 93//93
f 94//94 93//93 96//96
f 97//97 98//98 95//95
f 96//96 95//95 98//98
f 99//99 100//100 97//97
f 98//98 97//97 100//100
f 101//101 102//102 99//99
f 100//100 99//99 102//102
f 101//101 103//103 102//102
f 104//104 102//102 103//103
f 103//103 105//105 104//104
f 106//106 104//104 105//105
f 105//105 85//85 106//106
f 86//86 106//106 85//85
f 87//87 88//88 107//107
f 108//108 107//107 88//88
f 107//107 108//108 109//109
f 110//110 109//109 108//108
f 110//110 111//111 109//109
f 112//112 109//109 111//111
f 111//111 113//113 112//112
f 114//114 112//112 113//113
f 113//113 115//115 114//114
f 116//116 114//114 115//115
f 115//115 117//117 116//116
f 118//118 116//116 117//117
f 117//117 119//119 118//118
f 120//120 118//118 119//119
f 119//119 91//91 120//120
f 92//92 120//120 91//91

