mtllib material.mtl
usemtl material_1_0
v -0.83196000 0.43990300 -0.14906100
v -0.81609300 0.42656700 -0.12099700
v -0.80973600 0.43990300 -0.13200800
v -0.84095000 0.42656700 -0.14007000
v -0.81609300 0.42656700 -0.12099700
v -0.84095000 0.33988500 -0.14007000
v -0.81609300 0.33988500 -0.12099700
v -0.84095000 0.42656700 -0.14007000
v -0.78714600 0.42656700 -0.10900600
v -0.78385500 0.43990300 -0.12128800
v -0.68020500 0.43990300 -0.30081500
v -0.68613900 0.43990300 -0.24367900
v -0.68367200 0.43990300 -0.22493800
v -0.70242900 0.43990300 -0.31786800
v -0.69337300 0.43990300 -0.26114300
v -0.70488100 0.43990300 -0.27614000
v -0.72830900 0.43990300 -0.32858800
v -0.71987700 0.43990300 -0.28764700
v -0.73734100 0.43990300 -0.29488100
v -0.75608200 0.43990300 -0.33224500
v -0.75608200 0.43990300 -0.29734800
v -0.78385500 0.43990300 -0.32858800
v -0.77482400 0.43990300 -0.29488100
v -0.79228800 0.43990300 -0.28764700
v -0.80973600 0.43990300 -0.31786800
v -0.80728400 0.43990300 -0.27614000
v -0.81879200 0.43990300 -0.26114300
v -0.83196000 0.43990300 -0.30081500
v -0.82602500 0.43990300 -0.24367900
v -0.82849300 0.43990300 -0.22493800
v -0.65243200 0.43990300 -0.25271100
v -0.65243200 0.43990300 -0.19716500
v -0.64877600 0.43990300 -0.22493800
v -0.66315200 0.43990300 -0.17128500
v -0.66315200 0.43990300 -0.27859100
v -0.68020500 0.43990300 -0.14906100
v -0.68613900 0.43990300 -0.20619700
v -0.70242900 0.43990300 -0.13200800
v -0.69337300 0.43990300 -0.18873300
v -0.70488100 0.43990300 -0.17373600
v -0.72830900 0.43990300 -0.12128800
v -0.71987700 0.43990300 -0.16222900
v -0.73734100 0.43990300 -0.15499500
v -0.75608200 0.43990300 -0.11763100
v -0.75608200 0.43990300 -0.15252800
v -0.77482400 0.43990300 -0.15499500
v -0.78385500 0.43990300 -0.12128800
v -0.79228800 0.43990300 -0.16222900
v -0.80973600 0.43990300 -0.13200800
v -0.80728400 0.43990300 -0.17373600
v -0.81879200 0.43990300 -0.18873300
v -0.83196000 0.43990300 -0.14906100
v -0.82602500 0.43990300 -0.20619700
v -0.84901300 0.43990300 -0.27859100
v -0.84901300 0.43990300 -0.17128500
v -0.85973300 0.43990300 -0.25271100
v -0.85973300 0.43990300 -0.19716500
v -0.86338900 0.43990300 -0.22493800
v -0.84901300 0.43990300 -0.17128500
v -0.86002400 0.42656700 -0.16492700
v -0.78714600 0.42656700 -0.10900600
v -0.78714600 0.33988500 -0.10900600
v -0.86002400 0.42656700 -0.16492700
v -0.86002400 0.33988500 -0.16492700
v -0.75608200 0.43990300 -0.11763100
v -0.75608200 0.42656700 -0.10491700
v -0.65243200 0.43990300 -0.19716500
v -0.65214100 0.42656700 -0.16492700
v -0.64015100 0.42656700 -0.19387400
v -0.66315200 0.43990300 -0.17128500
v -0.64877600 0.43990300 -0.22493800
v -0.63606100 0.42656700 -0.22493800
v -0.65243200 0.43990300 -0.25271100
v -0.64015100 0.42656700 -0.25600200
v -0.65214100 0.42656700 -0.28494900
v -0.66315200 0.43990300 -0.27859100
v -0.67121500 0.42656700 -0.30980600
v -0.68020500 0.43990300 -0.30081500
v -0.69607200 0.42656700 -0.32887900
v -0.70242900 0.43990300 -0.31786800
v -0.72501900 0.42656700 -0.34087000
v -0.72830900 0.43990300 -0.32858800
v -0.75608200 0.43990300 -0.33224500
v -0.75608200 0.42656700 -0.34495900
v -0.78385500 0.43990300 -0.32858800
v -0.78714600 0.42656700 -0.34087000
v -0.80973600 0.43990300 -0.31786800
v -0.81609300 0.42656700 -0.32887900
v -0.83196000 0.43990300 -0.30081500
v -0.84095000 0.42656700 -0.30980600
v -0.84901300 0.43990300 -0.27859100
v -0.86002400 0.42656700 -0.28494900
v -0.85973300 0.43990300 -0.25271100
v -0.87201400 0.42656700 -0.25600200
v -0.87610300 0.42656700 -0.22493800
v -0.86338900 0.43990300 -0.22493800
v -0.85973300 0.43990300 -0.19716500
v -0.87201400 0.42656700 -0.19387400
v -0.72830900 0.43990300 -0.12128800
v -0.72501900 0.42656700 -0.10900600
v -0.70242900 0.43990300 -0.13200800
v -0.69607200 0.42656700 -0.12099700
v -0.68020500 0.43990300 -0.14906100
v -0.67121500 0.42656700 -0.14007000
v -0.75608200 0.42656700 -0.10491700
v -0.75608200 0.33988500 -0.10491700
v -0.87201400 0.33988500 -0.19387400
v -0.87201400 0.42656700 -0.19387400
v -0.65214100 0.42656700 -0.16492700
v -0.64015100 0.33988500 -0.19387400
v -0.64015100 0.42656700 -0.19387400
v -0.65214100 0.33988500 -0.16492700
v -0.63606100 0.33988500 -0.22493800
v -0.63606100 0.42656700 -0.22493800
v -0.64015100 0.33988500 -0.25600200
v -0.64015100 0.42656700 -0.25600200
v -0.65214100 0.33988500 -0.28494900
v -0.65214100 0.42656700 -0.28494900
v -0.67121500 0.33988500 -0.30980600
v -0.67121500 0.42656700 -0.30980600
v -0.69607200 0.42656700 -0.32887900
v -0.69607200 0.33988500 -0.32887900
v -0.72501900 0.42656700 -0.34087000
v -0.72501900 0.33988500 -0.34087000
v -0.75608200 0.42656700 -0.34495900
v -0.75608200 0.33988500 -0.34495900
v -0.78714600 0.42656700 -0.34087000
v -0.78714600 0.33988500 -0.34087000
v -0.81609300 0.42656700 -0.32887900
v -0.81609300 0.33988500 -0.32887900
v -0.84095000 0.42656700 -0.30980600
v -0.84095000 0.33988500 -0.30980600
v -0.86002400 0.33988500 -0.28494900
v -0.86002400 0.42656700 -0.28494900
v -0.87201400 0.33988500 -0.25600200
v -0.87201400 0.42656700 -0.25600200
v -0.87610300 0.33988500 -0.22493800
v -0.87610300 0.42656700 -0.22493800
v -0.72501900 0.42656700 -0.10900600
v -0.72501900 0.33988500 -0.10900600
v -0.69607200 0.42656700 -0.12099700
v -0.69607200 0.33988500 -0.12099700
v -0.67121500 0.42656700 -0.14007000
v -0.67121500 0.33988500 -0.14007000
vn -0.51177922 0.69004642 0.51177922
vn -0.36188259 0.69004639 0.62679899
vn -0.36188259 0.69004639 0.62679899
vn -0.51177922 0.69004642 0.51177922
vn -0.50000000 0.00000000 0.86602540
vn -0.70710678 0.00000000 0.70710678
vn -0.50000000 0.00000000 0.86602540
vn -0.70710678 0.00000000 0.70710678
vn -0.18732420 0.69004642 0.69910342
vn -0.18732420 0.69004642 0.69910342
vn 0.00000000 1.00000000 0.00000000
vn 0.00000000 1.00000000 0.00000000
vn 0.00000000 1.00000000 0.00000000
vn 0.00000000 1.00000000 0.00000000
vn 0.00000000 1.00000000 0.00000000
vn 0.00000000 1.00000000 0.00000000
vn 0.00000000 1.00000000 0.00000000
vn 0.00000000 1.00000000 0.00000000
vn 0.00000000 1.00000000 0.00000000
vn 0.00000000 1.00000000 0.00000000
vn 0.00000000 1.00000000 0.00000000
vn 0.00000000 1.00000000 0.00000000
vn 0.00000000 1.00000000 0.00000000
vn 0.00000000 1.00000000 0.00000000
vn 0.00000000 1.00000000 0.00000000
vn 0.00000000 1.00000000 0.00000000
vn 0.00000000 1.00000000 0.00000000
vn 0.00000000 1.00000000 0.00000000
vn 0.00000000 1.00000000 0.00000000
vn 0.00000000 1.00000000 0.00000000
vn 0.00000000 1.00000000 0.00000000
vn 0.00000000 1.00000000 0.00000000
vn 0.00000000 1.00000000 0.00000000
vn 0.00000000 1.00000000 0.00000000
vn 0.00000000 1.00000000 0.00000000
vn 0.00000000 1.00000000 0.00000000
vn 0.00000000 1.00000000 0.00000000
vn 0.00000000 1.00000000 0.00000000
vn 0.00000000 1.00000000 0.00000000
vn 0.00000000 1.00000000 0.00000000
vn 0.00000000 1.00000000 0.00000000
vn 0.00000000 1.00000000 0.00000000
vn 0.00000000 1.00000000 0.00000000
vn 0.00000000 1.00000000 0.00000000
vn 0.00000000 1.00000000 0.00000000
vn 0.00000000 1.00000000 0.00000000
vn 0.00000000 1.00000000 0.00000000
vn 0.00000000 1.00000000 0.00000000
vn 0.00000000 1.00000000 0.00000000
vn 0.00000000 1.00000000 0.00000000
vn 0.00000000 1.00000000 0.00000000
vn 0.00000000 1.00000000 0.00000000
vn 0.00000000 1.00000000 0.00000000
vn 0.00000000 1.00000000 0.00000000
vn 0.00000000 1.00000000 0.00000000
vn 0.00000000 1.00000000 0.00000000
vn 0.00000000 1.00000000 0.00000000
vn 0.00000000 1.00000000 0.00000000
vn -0.62679899 0.69004639 0.36188259
vn -0.62679899 0.69004639 0.36188259
vn -0.25881901 0.00000000 0.96592584
vn -0.25881901 0.00000000 0.96592584
vn -0.86602540 0.00000000 0.50000000
vn -0.86602540 0.00000000 0.50000000
vn 0.00000000 0.69004642 0.72376512
vn 0.00000000 0.69004642 0.72376512
vn 0.69910342 0.69004642 0.18732420
vn 0.62679899 0.69004639 0.36188259
vn 0.69910342 0.69004642 0.18732420
vn 0.62679899 0.69004639 0.36188259
vn 0.72376512 0.69004642 0.00000000
vn 0.72376512 0.69004642 0.00000000
vn 0.69910342 0.69004642 -0.18732420
vn 0.69910342 0.69004642 -0.18732420
vn 0.62679899 0.69004639 -0.36188259
vn 0.62679899 0.69004639 -0.36188259
vn 0.51177922 0.69004642 -0.51177922
vn 0.51177922 0.69004642 -0.51177922
vn 0.36188259 0.69004639 -0.62679899
vn 0.36188259 0.69004639 -0.62679899
vn 0.18732420 0.69004642 -0.69910342
vn 0.18732420 0.69004642 -0.69910342
vn 0.00000000 0.69004642 -0.72376512
vn 0.00000000 0.69004642 -0.72376512
vn -0.18732420 0.69004642 -0.69910342
vn -0.18732420 0.69004642 -0.69910342
vn -0.36188259 0.69004639 -0.62679899
vn -0.36188259 0.69004639 -0.62679899
vn -0.51177922 0.69004642 -0.51177922
vn -0.51177922 0.69004642 -0.51177922
vn -0.62679899 0.69004639 -0.36188259
vn -0.62679899 0.69004639 -0.36188259
vn -0.69910342 0.69004642 -0.18732420
vn -0.69910342 0.69004642 -0.18732420
vn -0.72376512 0.69004642 0.00000000
vn -0.72376512 0.69004642 0.00000000
vn -0.69910342 0.69004642 0.18732420
vn -0.69910342 0.69004642 0.18732420
vn 0.18732420 0.69004642 0.69910342
vn 0.18732420 0.69004642 0.69910342
vn 0.36188259 0.69004639 0.62679899
vn 0.36188259 0.69004639 0.62679899
vn 0.51177922 0.69004642 0.51177922
vn 0.51177922 0.69004642 0.51177922
vn 0.00000000 0.00000000 1.00000000
vn 0.00000000 0.00000000 1.00000000
vn -0.96592584 0.00000000 0.25881901
vn -0.96592584 0.00000000 0.25881901
vn 0.86602540 0.00000000 0.50000000
vn 0.96592584 0.00000000 0.25881901
vn 0.96592584 0.00000000 0.25881901
vn 0.86602540 0.00000000 0.50000000
vn 1.00000000 0.00000000 0.00000000
vn 1.00000000 0.00000000 0.00000000
vn 0.96592584 0.00000000 -0.25881901
vn 0.96592584 0.00000000 -0.25881901
vn 0.86602540 0.00000000 -0.50000000
vn 0.86602540 0.00000000 -0.50000000
vn 0.70710678 0.00000000 -0.70710678
vn 0.70710678 0.00000000 -0.70710678
vn 0.50000000 0.00000000 -0.86602540
vn 0.50000000 0.00000000 -0.86602540
vn 0.25881901 0.00000000 -0.96592584
vn 0.25881901 0.00000000 -0.96592584
vn 0.00000000 0.00000000 -1.00000000
vn 0.00000000 0.00000000 -1.00000000
vn -0.25881901 0.00000000 -0.96592584
vn -0.25881901 0.00000000 -0.96592584
vn -0.50000000 0.00000000 -0.86602540
vn -0.50000000 0.00000000 -0.86602540
vn -0.70710678 0.00000000 -0.70710678
vn -0.70710678 0.00000000 -0.70710678
vn -0.86602540 0.00000000 -0.50000000
vn -0.86602540 0.00000000 -0.50000000
vn -0.96592584 0.00000000 -0.25881901
vn -0.96592584 0.00000000 -0.25881901
vn -1.00000000 0.00000000 0.00000000
vn -1.00000000 0.00000000 0.00000000
vn 0.25881901 0.00000000 0.96592584
vn 0.25881901 0.00000000 0.96592584
vn 0.50000000 0.00000000 0.86602540
vn 0.50000000 0.00000000 0.86602540
vn 0.70710678 0.00000000 0.70710678
vn 0.70710678 0.00000000 0.70710678
f 1//1 2//2 3//3
f 2//2 1//1 4//4
f 5//5 6//6 7//7
f 6//6 5//5 8//8
f 3//3 9//9 10//10
f 9//9 3//3 2//2
f 11//11 12//12 13//13
f 12//12 11//11 14//14
f 12//12 14//14 15//15
f 15//15 14//14 16//16
f 16//16 14//14 17//17
f 16//16 17//17 18//18
f 18//18 17//17 19//19
f 19//19 17//17 20//20
f 19//19 20//20 21//21
f 21//21 20//20 22//22
f 21//21 22//22 23//23
f 23//23 22//22 24//24
f 24//24 22//22 25//25
f 24//24 25//25 26//26
f 26//26 25//25 27//27
f 27//27 25//25 28//28
f 27//27 28//28 29//29
f 29//29 28//28 30//30
f 31//31 32//32 33//33
f 32//32 31//31 34//34
f 34//34 31//31 35//35
f 34//34 35//35 11//11
f 34//34 11//11 36//36
f 36//36 11//11 13//13
f 36//36 13//13 37//37
f 36//36 37//37 38//38
f 38//38 37//37 39//39
f 38//38 39//39 40//40
f 38//38 40//40 41//41
f 41//41 40//40 42//42
f 41//41 42//42 43//43
f 41//41 43//43 44//44
f 44//44 43//43 45//45
f 44//44 45//45 46//46
f 44//44 46//46 47//47
f 47//47 46//46 48//48
f 47//47 48//48 49//49
f 49//49 48//48 50//50
f 49//49 50//50 51//51
f 49//49 51//51 52//52
f 52//52 51//51 53//53
f 52//52 53//53 30//30
f 52//52 30//30 28//28
f 52//52 28//28 54//54
f 52//52 54//54 55//55
f 55//55 54//54 56//56
f 55//55 56//56 57//57
f 57//57 56//56 58//58
f 59//59 4//4 1//1
f 4//4 59//59 60//60
f 61//61 7//7 62//62
f 7//7 61//61 5//5
f 6//6 63//63 64//64
f 63//63 6//6 8//8
f 65//65 9//9 66//66
f 9//9 65//65 10//10
f 67//67 68//68 69//69
f 68//68 67//67 70//70
f 71//71 69//69 72//72
f 69//69 71//71 67//67
f 73//73 72//72 74//74
f 72//72 73//73 71//71
f 75//75 73//73 74//74
f 73//73 75//75 76//76
f 77//77 76//76 75//75
f 76//76 77//77 78//78
f 79//79 78//78 77//77
f 78//78 79//79 80//80
f 81//81 80//80 79//79
f 80//80 81//81 82//82
f 83//83 81//81 84//84
f 81//81 83//83 82//82
f 85//85 84//84 86//86
f 84//84 85//85 83//83
f 86//86 87//87 85//85
f 87//87 86//86 88//88
f 88//88 89//89 87//87
f 89//89 88//88 90//90
f 90//90 91//91 89//89
f 91//91 90//90 92//92
f 92//92 93//93 91//91
f 93//93 92//92 94//94
f 95//95 93//93 94//94
f 93//93 95//95 96//96
f 95//95 97//97 96//96
f 97//97 95//95 98//98
f 97//97 60//60 59//59
f 60//60 97//97 98//98
f 99//99 66//66 100//100
f 66//66 99//99 65//65
f 101//101 100//100 102//102
f 100//100 101//101 99//99
f 103//103 102//102 104//104
f 102//102 103//103 101//101
f 70//70 104//104 68//68
f 104//104 70//70 103//103
f 105//105 62//62 106//106
f 62//62 105//105 61//61
f 107//107 63//63 108//108
f 63//63 107//107 64//64
f 109//109 110//110 111//111
f 110//110 109//109 112//112
f 111//111 113//113 114//114
f 113//113 111//111 110//110
f 114//114 115//115 116//116
f 115//115 114//114 113//113
f 116//116 117//117 118//118
f 117//117 116//116 115//115
f 118//118 119//119 120//120
f 119//119 118//118 117//117
f 121//121 119//119 122//122
f 119//119 121//121 120//120
f 123//123 122//122 124//124
f 122//122 123//123 121//121
f 125//125 124//124 126//126
f 124//124 125//125 123//123
f 127//127 126//126 128//128
f 126//126 127//127 125//125
f 129//129 128//128 130//130
f 128//128 129//129 127//127
f 131//131 130//130 132//132
f 130//130 131//131 129//129
f 133//133 131//131 132//132
f 131//131 133//133 134//134
f 135//135 134//134 133//133
f 134//134 135//135 136//136
f 137//137 136//136 135//135
f 136//136 137//137 138//138
f 107//107 138//138 137//137
f 138//138 107//107 108//108
f 139//139 106//106 140//140
f 106//106 139//139 105//105
f 141//141 140//140 142//142
f 140//140 141//141 139//139
f 143//143 142//142 144//144
f 142//142 143//143 141//141
f 143//143 112//112 109//109
f 112//112 143//143 144//144

