mtllib material.mtl
usemtl material_0_0
v -0.58595800 -0.10576900 -0.44984800
v -0.59054500 -0.10843600 -0.44639100
v -0.57939000 -0.12173800 -0.44906900
v -0.58450600 -0.12311800 -0.44567500
v -0.58529100 -0.12311800 -0.43905400
v -0.58450600 -0.12311800 -0.44567500
v -0.59133000 -0.10843600 -0.43977000
v -0.59054500 -0.10843600 -0.44639100
v -0.59158000 -0.09839200 -0.45051500
v -0.59854900 -0.09793200 -0.44734000
v -0.57811600 -0.08483300 -0.44891800
v -0.59158000 -0.09839200 -0.45051500
v -0.56946800 -0.09618100 -0.44789300
v -0.58595800 -0.10576900 -0.44984800
v -0.56099700 -0.11677500 -0.44688800
v -0.57939000 -0.12173800 -0.44906900
v -0.55810800 -0.13887400 -0.44654600
v -0.57715000 -0.13887400 -0.44880400
v -0.57939000 -0.15601100 -0.44906900
v -0.56099700 -0.16097400 -0.44688800
v -0.58595800 -0.17198000 -0.44984800
v -0.59158000 -0.17935700 -0.45051500
v -0.56946800 -0.18156700 -0.44789300
v -0.57811600 -0.19291600 -0.44891800
v -0.57715000 -0.13887400 -0.44880400
v -0.58244600 -0.13887400 -0.44543100
v -0.59933400 -0.09793200 -0.44071900
v -0.59854900 -0.09793200 -0.44734000
v -0.58323100 -0.13887400 -0.43880900
v -0.58244600 -0.13887400 -0.44543100
v -0.57759500 -0.07683000 -0.44485600
v -0.57811600 -0.08483300 -0.44891800
v -0.57759500 -0.07683000 -0.44485600
v -0.57811600 -0.08483300 -0.44891800
v -0.56488100 -0.09351500 -0.44334800
v -0.56946800 -0.09618100 -0.44789300
v -0.55588100 -0.11539500 -0.44228100
v -0.56099700 -0.11677500 -0.44688800
v -0.55281200 -0.13887400 -0.44191700
v -0.55810800 -0.13887400 -0.44654600
v -0.56099700 -0.16097400 -0.44688800
v -0.55588100 -0.16235400 -0.44228100
v -0.56946800 -0.18156700 -0.44789300
v -0.56488100 -0.18423400 -0.44334800
v -0.57811600 -0.19291600 -0.44891800
v -0.57759500 -0.20091900 -0.44485600
v -0.59158000 -0.17935700 -0.45051500
v -0.59854900 -0.17981700 -0.44734000
v -0.58595800 -0.17198000 -0.44984800
v -0.59054500 -0.16931300 -0.44639100
v -0.59158000 -0.17935700 -0.45051500
v -0.59854900 -0.17981700 -0.44734000
v -0.58450600 -0.15463100 -0.44567500
v -0.57939000 -0.15601100 -0.44906900
v -0.59933400 -0.09793200 -0.44071900
v -0.59854900 -0.09793200 -0.44734000
v -0.57838000 -0.07683000 -0.43823400
v -0.57759500 -0.07683000 -0.44485600
v -0.58529100 -0.15463100 -0.43905400
v -0.58450600 -0.15463100 -0.44567500
v -0.56566600 -0.09351500 -0.43672700
v -0.57838000 -0.07683000 -0.43823400
v -0.56488100 -0.09351500 -0.44334800
v -0.57759500 -0.07683000 -0.44485600
v -0.55666600 -0.11539500 -0.43566000
v -0.55588100 -0.11539500 -0.44228100
v -0.55359700 -0.13887400 -0.43529600
v -0.55281200 -0.13887400 -0.44191700
v -0.55666600 -0.16235400 -0.43566000
v -0.55588100 -0.16235400 -0.44228100
v -0.56566600 -0.18423400 -0.43672700
v -0.56488100 -0.18423400 -0.44334800
v -0.57838000 -0.20091900 -0.43823400
v -0.57759500 -0.20091900 -0.44485600
v -0.59933400 -0.17981700 -0.44071900
v -0.57838000 -0.20091900 -0.43823400
v -0.59854900 -0.17981700 -0.44734000
v -0.57759500 -0.20091900 -0.44485600
v -0.59133000 -0.16931300 -0.43977000
v -0.59933400 -0.17981700 -0.44071900
v -0.59054500 -0.16931300 -0.44639100
v -0.59854900 -0.17981700 -0.44734000
vn 0.44735673 0.31542302 0.83688725
vn 0.44941039 0.31208609 0.83703798
vn 0.51416462 0.16433171 0.84180154
vn 0.51472459 0.16235710 0.84184248
vn 0.95920694 0.25881901 0.11373110
vn 0.95920694 0.25881901 0.11373110
vn 0.86000141 0.50000000 0.10196850
vn 0.86000141 0.50000000 0.10196850
vn 0.41255531 -0.03197424 0.91037122
vn 0.41238620 -0.03444288 0.91035779
vn -0.11774310 0.00000000 0.99304409
vn -0.11774310 0.00000000 0.99304409
vn -0.11774310 0.00000000 0.99304409
vn -0.11774310 0.00000000 0.99304409
vn -0.11774310 0.00000000 0.99304409
vn -0.11774310 0.00000000 0.99304409
vn -0.11774310 0.00000000 0.99304409
vn -0.11774310 0.00000000 0.99304409
vn -0.11774310 0.00000000 0.99304409
vn -0.11774310 0.00000000 0.99304409
vn -0.11774310 0.00000000 0.99304409
vn -0.11774310 0.00000000 0.99304409
vn -0.11774310 0.00000000 0.99304409
vn -0.11774310 0.00000000 0.99304409
vn 0.53714801 0.00000000 0.84348801
vn 0.53714801 0.00000000 0.84348801
vn 0.78783484 0.60876143 0.09341190
vn 0.78783484 0.60876143 0.09341190
vn 0.99304409 0.00000000 0.11774310
vn 0.99304409 0.00000000 0.11774310
vn 0.34741289 -0.44234868 0.82682037
vn 0.34741289 -0.44234868 0.82682037
vn -0.54892829 -0.34968499 0.75920889
vn -0.54892829 -0.34968499 0.75920889
vn -0.58687641 -0.28323910 0.75851941
vn -0.58534558 -0.28607459 0.75863817
vn -0.64006309 -0.14574320 0.75437269
vn -0.63965959 -0.14734340 0.75440409
vn -0.65805813 0.00000000 0.75296713
vn -0.65805813 0.00000000 0.75296713
vn -0.63965959 0.14734340 0.75440409
vn -0.64006309 0.14574320 0.75437269
vn -0.58534558 0.28607459 0.75863817
vn -0.58687641 0.28323910 0.75851941
vn -0.10278680 0.44493829 0.88964307
vn -0.14110530 0.44081660 0.88643670
vn 0.34741289 0.44234868 0.82682037
vn 0.34741289 0.44234868 0.82682037
vn 0.44735673 -0.31542302 0.83688725
vn 0.44941039 -0.31208609 0.83703798
vn 0.40375639 -0.38273329 0.83096089
vn 0.40375639 -0.38273329 0.83096089
vn 0.51472459 -0.16235710 0.84184248
vn 0.51416462 -0.16433171 0.84180154
vn 0.70218819 -0.70710679 0.08325696
vn 0.70218819 -0.70710679 0.08325696
vn 0.70218819 -0.70710679 0.08325696
vn 0.70218819 -0.70710679 0.08325696
vn 0.95920694 -0.25881901 0.11373110
vn 0.95920694 -0.25881901 0.11373110
vn -0.86000141 -0.50000000 -0.10196850
vn -0.78783484 -0.60876143 -0.09341190
vn -0.86000141 -0.50000000 -0.10196850
vn -0.78783484 -0.60876143 -0.09341190
vn -0.95920694 -0.25881901 -0.11373110
vn -0.95920694 -0.25881901 -0.11373110
vn -0.99304409 0.00000000 -0.11774310
vn -0.99304409 0.00000000 -0.11774310
vn -0.95920694 0.25881901 -0.11373110
vn -0.95920694 0.25881901 -0.11373110
vn -0.86000141 0.50000000 -0.10196850
vn -0.86000141 0.50000000 -0.10196850
vn -0.78783484 0.60876143 -0.09341190
vn -0.78783484 0.60876143 -0.09341190
vn 0.70218819 0.70710679 0.08325696
vn 0.70218819 0.70710679 0.08325696
vn 0.70218819 0.70710679 0.08325696
vn 0.70218819 0.70710679 0.08325696
vn 0.86000141 -0.50000000 0.10196850
vn 0.78783484 -0.60876143 0.09341190
vn 0.86000141 -0.50000000 0.10196850
vn 0.78783484 -0.60876143 0.09341190
f 1//1 2//2 3//3
f 4//4 3//3 2//2
f 5//5 6//6 7//7
f 8//8 7//7 6//6
f 9//9 10//10 1//1
f 2//2 1//1 10//10
f 11//11 12//12 13//13
f 12//12 14//14 13//13
f 13//13 14//14 15//15
f 14//14 16//16 15//15
f 15//15 16//16 17//17
f 16//16 18//18 17//17
f 18//18 19//19 17//17
f 17//17 19//19 20//20
f 19//19 21//21 20//20
f 21//21 22//22 20//20
f 20//20 22//22 23//23
f 24//24 23//23 22//22
f 3//3 4//4 25//25
f 26//26 25//25 4//4
f 7//7 8//8 27//27
f 28//28 27//27 8//8
f 29//29 30//30 5//5
f 6//6 5//5 30//30
f 31//31 10//10 32//32
f 9//9 32//32 10//10
f 33//33 34//34 35//35
f 36//36 35//35 34//34
f 35//35 36//36 37//37
f 38//38 37//37 36//36
f 37//37 38//38 39//39
f 40//40 39//39 38//38
f 40//40 41//41 39//39
f 42//42 39//39 41//41
f 41//41 43//43 42//42
f 44//44 42//42 43//43
f 43//43 45//45 44//44
f 46//46 44//44 45//45
f 47//47 48//48 45//45
f 46//46 45//45 48//48
f 49//49 50//50 51//51
f 52//52 51//51 50//50
f 53//53 50//50 54//54
f 49//49 54//54 50//50
f 26//26 53//53 25//25
f 54//54 25//25 53//53
f 55//55 56//56 57//57
f 58//58 57//57 56//56
f 29//29 59//59 30//30
f 60//60 30//30 59//59
f 61//61 62//62 63//63
f 64//64 63//63 62//62
f 65//65 61//61 66//66
f 63//63 66//66 61//61
f 67//67 65//65 68//68
f 66//66 68//68 65//65
f 67//67 68//68 69//69
f 70//70 69//69 68//68
f 69//69 70//70 71//71
f 72//72 71//71 70//70
f 71//71 72//72 73//73
f 74//74 73//73 72//72
f 75//75 76//76 77//77
f 78//78 77//77 76//76
f 79//79 80//80 81//81
f 82//82 81//81 80//80
f 59//59 79//79 60//60
f 81//81 60//60 79//79

