mtllib material.mtl
usemtl material_1_0
v -0.60302700 -0.09421300 -0.44115700
v -0.61267300 -0.08615300 -0.44901500
v -0.60224200 -0.09421300 -0.44777800
v -0.61345800 -0.08615300 -0.44239300
v -0.62725300 -0.08007100 -0.45074400
v -0.62803800 -0.08007100 -0.44412200
v -0.61267300 -0.08615300 -0.44901500
v -0.60269900 -0.08719500 -0.45183300
v -0.60224200 -0.09421300 -0.44777800
v -0.61002500 -0.08153400 -0.45270200
v -0.58207300 -0.07311200 -0.43867200
v -0.60224200 -0.09421300 -0.44777800
v -0.58128700 -0.07311200 -0.44529300
v -0.60302700 -0.09421300 -0.44115700
v -0.64290000 -0.07799700 -0.45259900
v -0.64368500 -0.07799700 -0.44597700
v -0.62725300 -0.08007100 -0.45074400
v -0.62588200 -0.07492000 -0.45458200
v -0.69656600 -0.07363600 -0.46296300
v -0.67577500 -0.08153400 -0.46049700
v -0.68310100 -0.08719500 -0.46136600
v -0.65991700 -0.07492000 -0.45861700
v -0.64290000 -0.07266400 -0.45659900
v -0.68529600 -0.06492800 -0.46162600
v -0.61002500 -0.08153400 -0.45270200
v -0.58923400 -0.07363600 -0.45023600
v -0.60269900 -0.08719500 -0.45183300
v -0.62588200 -0.07492000 -0.45458200
v -0.60050400 -0.06492800 -0.45157300
v -0.66484600 -0.05639800 -0.45920200
v -0.62095400 -0.05639800 -0.45399700
v -0.64290000 -0.05348800 -0.45659900
v -0.60269900 -0.08719500 -0.45183300
v -0.58128700 -0.07311200 -0.44529300
v -0.60224200 -0.09421300 -0.44777800
v -0.58923400 -0.07363600 -0.45023600
v -0.59785600 -0.06030900 -0.44725800
v -0.58207300 -0.07311200 -0.43867200
v -0.58128700 -0.07311200 -0.44529300
v -0.59864100 -0.06030900 -0.44063700
v -0.65854700 -0.08007100 -0.45445400
v -0.65933200 -0.08007100 -0.44783200
v -0.64290000 -0.07799700 -0.45259900
v -0.64290000 -0.07266400 -0.45659900
v -0.70451300 -0.07311200 -0.45990400
v -0.68529600 -0.06492800 -0.46162600
v -0.69656600 -0.07363600 -0.46296300
v -0.68794400 -0.06030900 -0.45794000
v -0.66484600 -0.05639800 -0.45920200
v -0.66621700 -0.05124600 -0.45536300
v -0.64290000 -0.05348800 -0.45659900
v -0.64290000 -0.04815500 -0.45259900
v -0.61958400 -0.05124600 -0.44983400
v -0.62095400 -0.05639800 -0.45399700
v -0.59785600 -0.06030900 -0.44725800
v -0.60050400 -0.06492800 -0.45157300
v -0.65991700 -0.07492000 -0.45861700
v -0.65854700 -0.08007100 -0.45445400
v -0.67577500 -0.08153400 -0.46049700
v -0.67312700 -0.08615300 -0.45618300
v -0.68310100 -0.08719500 -0.46136600
v -0.68355800 -0.09421300 -0.45742000
v -0.70451300 -0.07311200 -0.45990400
v -0.69656600 -0.07363600 -0.46296300
v -0.61958400 -0.05124600 -0.44983400
v -0.62036900 -0.05124600 -0.44321300
v -0.67312700 -0.08615300 -0.45618300
v -0.67391200 -0.08615300 -0.44956100
v -0.70451300 -0.07311200 -0.45990400
v -0.68872900 -0.06030900 -0.45131800
v -0.68794400 -0.06030900 -0.45794000
v -0.70529800 -0.07311200 -0.45328300
v -0.66700200 -0.05124600 -0.44874200
v -0.66621700 -0.05124600 -0.45536300
v -0.64368500 -0.04815500 -0.44597700
v -0.64290000 -0.04815500 -0.45259900
v -0.68355800 -0.09421300 -0.45742000
v -0.68434300 -0.09421300 -0.45079800
v -0.68434300 -0.09421300 -0.45079800
v -0.70451300 -0.07311200 -0.45990400
v -0.68355800 -0.09421300 -0.45742000
v -0.70529800 -0.07311200 -0.45328300
vn -0.60452693 -0.79335334 -0.07167747
vn -0.49652201 -0.86602542 -0.05887156
vn -0.60452693 -0.79335334 -0.07167747
vn -0.49652201 -0.86602542 -0.05887156
vn -0.25701871 -0.96592583 -0.03047416
vn -0.25701871 -0.96592583 -0.03047416
vn -0.21551129 -0.53071629 -0.81969208
vn -0.28384121 -0.49348891 -0.82213312
vn -0.28384121 -0.49348891 -0.82213312
vn -0.20972930 -0.53368819 -0.81926219
vn 0.70218819 -0.70710679 0.08325696
vn 0.70218819 -0.70710679 0.08325696
vn 0.70218819 -0.70710679 0.08325696
vn 0.70218819 -0.70710679 0.08325696
vn 0.00000000 -1.00000000 0.00000000
vn 0.00000000 -1.00000000 0.00000000
vn -0.06596951 -0.58480468 -0.80848717
vn -0.05906858 -0.58625551 -0.80796991
vn 0.11774310 0.00000000 -0.99304409
vn 0.11774310 0.00000000 -0.99304409
vn 0.11774310 0.00000000 -0.99304409
vn 0.11774310 0.00000000 -0.99304409
vn 0.11774310 0.00000000 -0.99304409
vn 0.11774310 0.00000000 -0.99304409
vn 0.11774310 0.00000000 -0.99304409
vn 0.11774310 0.00000000 -0.99304409
vn 0.11774310 0.00000000 -0.99304409
vn 0.11774310 0.00000000 -0.99304409
vn 0.11774310 0.00000000 -0.99304409
vn 0.11774310 0.00000000 -0.99304409
vn 0.11774310 0.00000000 -0.99304409
vn 0.11774310 0.00000000 -0.99304409
vn 0.50144771 -0.40813671 -0.76287261
vn 0.52667072 0.02731137 -0.84963053
vn 0.50144771 -0.40813671 -0.76287261
vn 0.52652331 0.02966386 -0.84964302
vn 0.49652201 0.86602542 0.05887156
vn 0.60452693 0.79335334 0.07167747
vn 0.60452693 0.79335334 0.07167747
vn 0.49652201 0.86602542 0.05887156
vn 0.25701871 -0.96592583 0.03047416
vn 0.25701871 -0.96592583 0.03047416
vn 0.09053813 -0.59760259 -0.79666429
vn 0.09761544 -0.59720129 -0.79612929
vn -0.28384121 0.49348891 -0.82213312
vn -0.21551129 0.53071629 -0.81969208
vn -0.28384121 0.49348891 -0.82213312
vn -0.20972930 0.53368819 -0.81926219
vn -0.06596951 0.58480468 -0.80848717
vn -0.05906858 0.58625551 -0.80796991
vn 0.09053813 0.59760259 -0.79666429
vn 0.09761544 0.59720129 -0.79612929
vn 0.24933070 0.56770071 -0.78457001
vn 0.24300999 0.56977189 -0.78505168
vn 0.38640940 0.50153790 -0.77404620
vn 0.38152969 0.50468559 -0.77442078
vn 0.24933070 -0.56770071 -0.78457001
vn 0.24300999 -0.56977189 -0.78505168
vn 0.38640940 -0.50153790 -0.77404620
vn 0.38152969 -0.50468559 -0.77442078
vn 0.04352074 -0.49184692 -0.86959333
vn 0.07824286 -0.49252232 -0.86677553
vn -0.34741289 -0.44234868 -0.82682037
vn -0.34741289 -0.44234868 -0.82682037
vn 0.25701871 0.96592583 0.03047416
vn 0.25701871 0.96592583 0.03047416
vn 0.49652201 -0.86602542 0.05887156
vn 0.49652201 -0.86602542 0.05887156
vn -0.60452693 0.79335334 -0.07167747
vn -0.49652201 0.86602542 -0.05887156
vn -0.49652201 0.86602542 -0.05887156
vn -0.60452693 0.79335334 -0.07167747
vn -0.25701871 0.96592583 -0.03047416
vn -0.25701871 0.96592583 -0.03047416
vn 0.00000000 1.00000000 0.00000000
vn 0.00000000 1.00000000 0.00000000
vn 0.60452693 -0.79335334 0.07167747
vn 0.60452693 -0.79335334 0.07167747
vn -0.70218819 -0.70710679 -0.08325696
vn -0.70218819 -0.70710679 -0.08325696
vn -0.70218819 -0.70710679 -0.08325696
vn -0.70218819 -0.70710679 -0.08325696
f 1//1 2//2 3//3
f 2//2 1//1 4//4
f 4//4 5//5 2//2
f 5//5 4//4 6//6
f 7//7 8//8 9//9
f 8//8 7//7 10//10
f 11//11 12//12 13//13
f 12//12 11//11 14//14
f 6//6 15//15 5//5
f 15//15 6//6 16//16
f 17//17 10//10 7//7
f 10//10 17//17 18//18
f 19//19 20//20 21//21
f 20//20 19//19 22//22
f 22//22 19//19 23//23
f 23//23 19//19 24//24
f 25//25 26//26 27//27
f 26//26 25//25 28//28
f 26//26 28//28 23//23
f 26//26 23//23 29//29
f 29//29 23//23 24//24
f 29//29 24//24 30//30
f 29//29 30//30 31//31
f 31//31 30//30 32//32
f 33//33 34//34 35//35
f 34//34 33//33 36//36
f 37//37 38//38 39//39
f 38//38 37//37 40//40
f 16//16 41//41 15//15
f 41//41 16//16 42//42
f 43//43 18//18 17//17
f 18//18 43//43 44//44
f 45//45 46//46 47//47
f 46//46 45//45 48//48
f 48//48 49//49 46//46
f 49//49 48//48 50//50
f 50//50 51//51 49//49
f 51//51 50//50 52//52
f 51//51 53//53 54//54
f 53//53 51//51 52//52
f 54//54 55//55 56//56
f 55//55 54//54 53//53
f 56//56 34//34 36//36
f 34//34 56//56 55//55
f 57//57 43//43 58//58
f 43//43 57//57 44//44
f 59//59 58//58 60//60
f 58//58 59//59 57//57
f 61//61 60//60 62//62
f 60//60 61//61 59//59
f 63//63 61//61 62//62
f 61//61 63//63 64//64
f 65//65 40//40 37//37
f 40//40 65//65 66//66
f 42//42 67//67 41//41
f 67//67 42//42 68//68
f 69//69 70//70 71//71
f 70//70 69//69 72//72
f 71//71 73//73 74//74
f 73//73 71//71 70//70
f 74//74 75//75 76//76
f 75//75 74//74 73//73
f 76//76 66//66 65//65
f 66//66 76//76 75//75
f 68//68 77//77 67//67
f 77//77 68//68 78//78
f 79//79 80//80 81//81
f 80//80 79//79 82//82

